<?xml version="1.0" encoding="utf-8" standalone="no"?>
<!DOCTYPE svg PUBLIC "-//W3C//DTD SVG 1.1//EN"
  "http://www.w3.org/Graphics/SVG/1.1/DTD/svg11.dtd">
<!-- Created with matplotlib (https://matplotlib.org/) -->
<svg height="150.3pt" version="1.1" viewBox="0 0 153.9 150.3" width="153.9pt" xmlns="http://www.w3.org/2000/svg" xmlns:xlink="http://www.w3.org/1999/xlink">
 <defs>
  <style type="text/css">
*{stroke-linecap:butt;stroke-linejoin:round;}
  </style>
 </defs>
 <g id="figure_1">
  <g id="patch_1">
   <path d="M 0 150.3 
L 153.9 150.3 
L 153.9 0 
L 0 0 
z
" style="fill:none;"/>
  </g>
  <g id="patch_2">
   <path d="M 7.2 143.1 
L 146.7 143.1 
L 146.7 7.2 
L 7.2 7.2 
z
" style="fill:none;"/>
  </g>
  <g id="axes_1">
   <g id="Poly3DCollection_1">
    <path clip-path="url(#p431780675e)" d="M 68.30093 71.130335 
L 70.269453 69.646704 
L 70.37308 80.282261 
L 68.415333 80.661668 
z
" style="fill:#821580;fill-opacity:0.15;stroke:#ffffff;stroke-width:0.2;"/>
    <path clip-path="url(#p431780675e)" d="M 66.374602 72.60984 
L 68.30093 71.130335 
L 68.415333 80.661668 
L 66.495622 81.119345 
z
" style="fill:#821580;fill-opacity:0.15;stroke:#ffffff;stroke-width:0.2;"/>
    <path clip-path="url(#p431780675e)" d="M 70.269453 69.646704 
L 72.273549 68.158228 
L 72.361653 79.982366 
L 70.37308 80.282261 
z
" style="fill:#821580;fill-opacity:0.15;stroke:#ffffff;stroke-width:0.2;"/>
    <path clip-path="url(#p431780675e)" d="M 64.497006 74.08612 
L 66.374602 72.60984 
L 66.495622 81.119345 
L 64.621058 81.65379 
z
" style="fill:#821580;fill-opacity:0.15;stroke:#ffffff;stroke-width:0.2;"/>
    <path clip-path="url(#p431780675e)" d="M 72.273549 68.158228 
L 74.306522 66.66444 
L 74.373768 79.76296 
L 72.361653 79.982366 
z
" style="fill:#821580;fill-opacity:0.15;stroke:#ffffff;stroke-width:0.2;"/>
    <path clip-path="url(#p431780675e)" d="M 62.674586 75.560192 
L 64.497006 74.08612 
L 64.621058 81.65379 
L 62.79864 82.263236 
z
" style="fill:#821580;fill-opacity:0.15;stroke:#ffffff;stroke-width:0.2;"/>
    <path clip-path="url(#p431780675e)" d="M 74.306522 66.66444 
L 76.361606 65.165203 
L 76.402083 79.624756 
L 74.373768 79.76296 
z
" style="fill:#821580;fill-opacity:0.15;stroke:#ffffff;stroke-width:0.2;"/>
    <path clip-path="url(#p431780675e)" d="M 60.913682 77.033125 
L 62.674586 75.560192 
L 62.79864 82.263236 
L 61.035234 82.945659 
z
" style="fill:#821580;fill-opacity:0.15;stroke:#ffffff;stroke-width:0.2;"/>
    <path clip-path="url(#p431780675e)" d="M 76.361606 65.165203 
L 78.431971 63.660787 
L 78.439216 79.568203 
L 76.402083 79.624756 
z
" style="fill:#821580;fill-opacity:0.15;stroke:#ffffff;stroke-width:0.2;"/>
    <path clip-path="url(#p431780675e)" d="M 59.22051 78.505984 
L 60.913682 77.033125 
L 61.035234 82.945659 
L 59.337549 83.698776 
z
" style="fill:#821580;fill-opacity:0.15;stroke:#ffffff;stroke-width:0.2;"/>
    <path clip-path="url(#p431780675e)" d="M 78.431971 63.660787 
L 80.510727 62.151951 
L 80.477765 79.593483 
L 78.439216 79.568203 
z
" style="fill:#821580;fill-opacity:0.15;stroke:#ffffff;stroke-width:0.2;"/>
    <path clip-path="url(#p431780675e)" d="M 57.601153 79.979776 
L 59.22051 78.505984 
L 59.337549 83.698776 
L 57.712121 84.520047 
z
" style="fill:#821580;fill-opacity:0.15;stroke:#ffffff;stroke-width:0.2;"/>
    <path clip-path="url(#p431780675e)" d="M 80.510727 62.151951 
L 82.590926 60.640035 
L 82.510321 79.700514 
L 80.477765 79.593483 
z
" style="fill:#821580;fill-opacity:0.15;stroke:#ffffff;stroke-width:0.2;"/>
    <path clip-path="url(#p431780675e)" d="M 56.061538 81.455404 
L 57.601153 79.979776 
L 57.712121 84.520047 
L 56.16529 85.406682 
z
" style="fill:#821580;fill-opacity:0.15;stroke:#ffffff;stroke-width:0.2;"/>
    <path clip-path="url(#p431780675e)" d="M 82.590926 60.640035 
L 84.665561 59.127043 
L 84.529494 79.888951 
L 82.510321 79.700514 
z
" style="fill:#821580;fill-opacity:0.15;stroke:#ffffff;stroke-width:0.2;"/>
    <path clip-path="url(#p431780675e)" d="M 54.607421 82.933617 
L 56.061538 81.455404 
L 56.16529 85.406682 
L 54.703176 86.355639 
z
" style="fill:#821580;fill-opacity:0.15;stroke:#ffffff;stroke-width:0.2;"/>
    <path clip-path="url(#p431780675e)" d="M 84.665561 59.127043 
L 86.72757 57.615738 
L 86.527925 80.15818 
L 84.529494 79.888951 
z
" style="fill:#821580;fill-opacity:0.15;stroke:#ffffff;stroke-width:0.2;"/>
    <path clip-path="url(#p431780675e)" d="M 53.24436 84.414976 
L 54.607421 82.933617 
L 54.703176 86.355639 
L 53.33166 87.363632 
z
" style="fill:#821580;fill-opacity:0.15;stroke:#ffffff;stroke-width:0.2;"/>
    <path clip-path="url(#p431780675e)" d="M 86.72757 57.615738 
L 88.769832 56.109732 
L 88.498303 80.507325 
L 86.527925 80.15818 
z
" style="fill:#821580;fill-opacity:0.15;stroke:#ffffff;stroke-width:0.2;"/>
    <path clip-path="url(#p431780675e)" d="M 51.977696 85.899819 
L 53.24436 84.414976 
L 53.33166 87.363632 
L 52.056361 88.427138 
z
" style="fill:#821580;fill-opacity:0.15;stroke:#ffffff;stroke-width:0.2;"/>
    <path clip-path="url(#p431780675e)" d="M 88.769832 56.109732 
L 90.785169 54.613586 
L 90.433391 80.935247 
L 88.498303 80.507325 
z
" style="fill:#821580;fill-opacity:0.15;stroke:#ffffff;stroke-width:0.2;"/>
    <path clip-path="url(#p431780675e)" d="M 50.81253 87.388228 
L 51.977696 85.899819 
L 52.056361 88.427138 
L 50.88261 89.542397 
z
" style="fill:#821580;fill-opacity:0.15;stroke:#ffffff;stroke-width:0.2;"/>
    <path clip-path="url(#p431780675e)" d="M 49.753692 88.880006 
L 50.81253 87.388228 
L 50.88261 89.542397 
L 49.815428 90.705423 
z
" style="fill:#821580;fill-opacity:0.15;stroke:#ffffff;stroke-width:0.2;"/>
    <path clip-path="url(#p431780675e)" d="M 90.785169 54.613586 
L 92.766348 53.132893 
L 92.326035 81.440541 
L 90.433391 80.935247 
z
" style="fill:#821580;fill-opacity:0.15;stroke:#ffffff;stroke-width:0.2;"/>
    <path clip-path="url(#p431780675e)" d="M 48.805721 90.374654 
L 49.753692 88.880006 
L 49.815428 90.705423 
L 48.859502 91.912014 
z
" style="fill:#821580;fill-opacity:0.15;stroke:#ffffff;stroke-width:0.2;"/>
    <path clip-path="url(#p431780675e)" d="M 92.766348 53.132893 
L 94.706079 51.674374 
L 94.169193 82.021543 
L 92.326035 81.440541 
z
" style="fill:#821580;fill-opacity:0.15;stroke:#ffffff;stroke-width:0.2;"/>
    <path clip-path="url(#p431780675e)" d="M 47.972832 91.871357 
L 48.805721 90.374654 
L 48.859502 91.912014 
L 48.019163 93.157755 
z
" style="fill:#821580;fill-opacity:0.15;stroke:#ffffff;stroke-width:0.2;"/>
    <path clip-path="url(#p431780675e)" d="M 94.706079 51.674374 
L 96.597023 50.245957 
L 95.955944 82.676327 
L 94.169193 82.021543 
z
" style="fill:#821580;fill-opacity:0.15;stroke:#ffffff;stroke-width:0.2;"/>
    <path clip-path="url(#p431780675e)" d="M 47.258894 93.368973 
L 47.972832 91.871357 
L 48.019163 93.157755 
L 47.298357 94.438034 
z
" style="fill:#821580;fill-opacity:0.15;stroke:#ffffff;stroke-width:0.2;"/>
    <path clip-path="url(#p431780675e)" d="M 96.597023 50.245957 
L 98.431795 48.856858 
L 97.679518 83.402707 
L 95.955944 82.676327 
z
" style="fill:#821580;fill-opacity:0.15;stroke:#ffffff;stroke-width:0.2;"/>
    <path clip-path="url(#p431780675e)" d="M 46.667399 94.866023 
L 47.258894 93.368973 
L 47.298357 94.438034 
L 46.700626 95.748053 
z
" style="fill:#821580;fill-opacity:0.15;stroke:#ffffff;stroke-width:0.2;"/>
    <path clip-path="url(#p431780675e)" d="M 98.431795 48.856858 
L 100.202973 47.517645 
L 99.33331 84.198242 
L 97.679518 83.402707 
z
" style="fill:#821580;fill-opacity:0.15;stroke:#ffffff;stroke-width:0.2;"/>
    <path clip-path="url(#p431780675e)" d="M 46.201436 96.360691 
L 46.667399 94.866023 
L 46.700626 95.748053 
L 46.229083 97.082839 
z
" style="fill:#821580;fill-opacity:0.15;stroke:#ffffff;stroke-width:0.2;"/>
    <path clip-path="url(#p431780675e)" d="M 45.863662 97.850825 
L 46.201436 96.360691 
L 46.229083 97.082839 
L 45.886385 98.43726 
z
" style="fill:#821580;fill-opacity:0.15;stroke:#ffffff;stroke-width:0.2;"/>
    <path clip-path="url(#p431780675e)" d="M 100.202973 47.517645 
L 101.903112 46.240291 
L 100.910903 85.060237 
L 99.33331 84.198242 
z
" style="fill:#821580;fill-opacity:0.15;stroke:#ffffff;stroke-width:0.2;"/>
    <path clip-path="url(#p431780675e)" d="M 45.656278 99.333947 
L 45.863662 97.850825 
L 45.886385 98.43726 
L 45.674718 99.80604 
z
" style="fill:#821580;fill-opacity:0.15;stroke:#ffffff;stroke-width:0.2;"/>
    <path clip-path="url(#p431780675e)" d="M 101.903112 46.240291 
L 103.524763 45.038205 
L 102.40609 85.985746 
L 100.910903 85.060237 
z
" style="fill:#821580;fill-opacity:0.15;stroke:#ffffff;stroke-width:0.2;"/>
    <path clip-path="url(#p431780675e)" d="M 45.581005 100.807258 
L 45.656278 99.333947 
L 45.674718 99.80604 
L 45.595771 101.183782 
z
" style="fill:#821580;fill-opacity:0.15;stroke:#ffffff;stroke-width:0.2;"/>
    <path clip-path="url(#p431780675e)" d="M 103.524763 45.038205 
L 105.060492 43.926248 
L 103.812895 86.971576 
L 102.40609 85.985746 
z
" style="fill:#821580;fill-opacity:0.15;stroke:#ffffff;stroke-width:0.2;"/>
    <path clip-path="url(#p431780675e)" d="M 45.639057 102.267659 
L 45.581005 100.807258 
L 45.595771 101.183782 
L 45.650717 102.564978 
z
" style="fill:#821580;fill-opacity:0.15;stroke:#ffffff;stroke-width:0.2;"/>
    <path clip-path="url(#p431780675e)" d="M 45.831121 103.711769 
L 45.639057 102.267659 
L 45.650717 102.564978 
L 45.840193 103.944038 
z
" style="fill:#821580;fill-opacity:0.15;stroke:#ffffff;stroke-width:0.2;"/>
    <path clip-path="url(#p431780675e)" d="M 105.060492 43.926248 
L 106.502913 42.920719 
L 105.125598 88.014293 
L 103.812895 86.971576 
z
" style="fill:#821580;fill-opacity:0.15;stroke:#ffffff;stroke-width:0.2;"/>
    <path clip-path="url(#p431780675e)" d="M 46.15734 105.135943 
L 45.831121 103.711769 
L 45.840193 103.944038 
L 46.164287 105.315307 
z
" style="fill:#821580;fill-opacity:0.15;stroke:#ffffff;stroke-width:0.2;"/>
    <path clip-path="url(#p431780675e)" d="M 106.502913 42.920719 
L 107.844724 42.0393 
L 106.338754 89.110228 
L 105.125598 88.014293 
z
" style="fill:#821580;fill-opacity:0.15;stroke:#ffffff;stroke-width:0.2;"/>
    <path clip-path="url(#p431780675e)" d="M 46.617291 106.536307 
L 46.15734 105.135943 
L 46.164287 105.315307 
L 46.622523 106.673093 
z
" style="fill:#821580;fill-opacity:0.15;stroke:#ffffff;stroke-width:0.2;"/>
    <path clip-path="url(#p431780675e)" d="M 107.844724 42.0393 
L 109.078751 41.300977 
L 107.447221 90.25548 
L 106.338754 89.110228 
z
" style="fill:#821580;fill-opacity:0.15;stroke:#ffffff;stroke-width:0.2;"/>
    <path clip-path="url(#p431780675e)" d="M 47.209976 107.908781 
L 46.617291 106.536307 
L 46.622523 106.673093 
L 47.213846 108.011688 
z
" style="fill:#821580;fill-opacity:0.15;stroke:#ffffff;stroke-width:0.2;"/>
    <path clip-path="url(#p431780675e)" d="M 47.933808 109.249116 
L 47.209976 107.908781 
L 47.213846 108.011688 
L 47.936615 109.325397 
z
" style="fill:#821580;fill-opacity:0.15;stroke:#ffffff;stroke-width:0.2;"/>
    <path clip-path="url(#p431780675e)" d="M 109.078751 41.300977 
L 110.197999 40.725903 
L 108.446182 91.445928 
L 107.447221 90.25548 
z
" style="fill:#821580;fill-opacity:0.15;stroke:#ffffff;stroke-width:0.2;"/>
    <path clip-path="url(#p431780675e)" d="M 48.786604 110.552929 
L 47.933808 109.249116 
L 47.936615 109.325397 
L 48.788598 110.608562 
z
" style="fill:#821580;fill-opacity:0.15;stroke:#ffffff;stroke-width:0.2;"/>
    <path clip-path="url(#p431780675e)" d="M 110.197999 40.725903 
L 111.195714 40.335223 
L 109.331167 92.677238 
L 108.446182 91.445928 
z
" style="fill:#821580;fill-opacity:0.15;stroke:#ffffff;stroke-width:0.2;"/>
    <path clip-path="url(#p431780675e)" d="M 49.765581 111.815738 
L 48.786604 110.552929 
L 48.788598 110.608562 
L 49.766966 111.855594 
z
" style="fill:#821580;fill-opacity:0.15;stroke:#ffffff;stroke-width:0.2;"/>
    <path clip-path="url(#p431780675e)" d="M 50.867359 113.033008 
L 49.765581 111.815738 
L 49.766966 111.855594 
L 50.868296 113.061003 
z
" style="fill:#821580;fill-opacity:0.15;stroke:#ffffff;stroke-width:0.2;"/>
    <path clip-path="url(#p431780675e)" d="M 111.195714 40.335223 
L 112.065455 40.150833 
L 110.09808 93.944871 
L 109.331167 92.677238 
z
" style="fill:#821580;fill-opacity:0.15;stroke:#ffffff;stroke-width:0.2;"/>
    <path clip-path="url(#p431780675e)" d="M 52.087957 114.200184 
L 50.867359 113.033008 
L 50.868296 113.061003 
L 52.088574 114.21942 
z
" style="fill:#821580;fill-opacity:0.15;stroke:#ffffff;stroke-width:0.2;"/>
    <path clip-path="url(#p431780675e)" d="M 53.422811 115.312739 
L 52.087957 114.200184 
L 52.088574 114.21942 
L 53.423204 115.325637 
z
" style="fill:#821580;fill-opacity:0.15;stroke:#ffffff;stroke-width:0.2;"/>
    <path clip-path="url(#p431780675e)" d="M 112.065455 40.150833 
L 112.801168 40.195085 
L 110.743222 95.2441 
L 110.09808 93.944871 
z
" style="fill:#821580;fill-opacity:0.15;stroke:#ffffff;stroke-width:0.2;"/>
    <path clip-path="url(#p431780675e)" d="M 54.866779 116.366217 
L 53.422811 115.312739 
L 53.423204 115.325637 
L 54.867021 116.374628 
z
" style="fill:#821580;fill-opacity:0.15;stroke:#ffffff;stroke-width:0.2;"/>
    <path clip-path="url(#p431780675e)" d="M 112.801168 40.195085 
L 113.397273 40.490422 
L 111.263313 96.570017 
L 110.743222 95.2441 
z
" style="fill:#821580;fill-opacity:0.15;stroke:#ffffff;stroke-width:0.2;"/>
    <path clip-path="url(#p431780675e)" d="M 56.414161 117.356271 
L 54.866779 116.366217 
L 54.867021 116.374628 
L 56.414304 117.361586 
z
" style="fill:#821580;fill-opacity:0.15;stroke:#ffffff;stroke-width:0.2;"/>
    <path clip-path="url(#p431780675e)" d="M 58.05872 118.278706 
L 56.414161 117.356271 
L 56.414304 117.361586 
L 58.058801 118.281946 
z
" style="fill:#821580;fill-opacity:0.15;stroke:#ffffff;stroke-width:0.2;"/>
    <path clip-path="url(#p431780675e)" d="M 113.397273 40.490422 
L 113.848759 41.058948 
L 111.65552 97.917547 
L 111.263313 96.570017 
z
" style="fill:#821580;fill-opacity:0.15;stroke:#ffffff;stroke-width:0.2;"/>
    <path clip-path="url(#p431780675e)" d="M 59.793704 119.129524 
L 58.05872 118.278706 
L 58.058801 118.281946 
L 59.793748 119.131418 
z
" style="fill:#821580;fill-opacity:0.15;stroke:#ffffff;stroke-width:0.2;"/>
    <path clip-path="url(#p431780675e)" d="M 61.611883 119.904959 
L 59.793704 119.129524 
L 59.793748 119.131418 
L 61.611905 119.906013 
z
" style="fill:#821580;fill-opacity:0.15;stroke:#ffffff;stroke-width:0.2;"/>
    <path clip-path="url(#p431780675e)" d="M 113.848759 41.058948 
L 114.151275 41.921929 
L 111.917473 99.28147 
L 111.65552 97.917547 
z
" style="fill:#821580;fill-opacity:0.15;stroke:#ffffff;stroke-width:0.2;"/>
    <path clip-path="url(#p431780675e)" d="M 63.505572 120.601516 
L 61.611883 119.904959 
L 61.611905 119.906013 
L 63.505582 120.602069 
z
" style="fill:#821580;fill-opacity:0.15;stroke:#ffffff;stroke-width:0.2;"/>
    <path clip-path="url(#p431780675e)" d="M 65.466678 121.216002 
L 63.505572 120.601516 
L 63.505582 120.602069 
L 65.466682 121.216273 
z
" style="fill:#821580;fill-opacity:0.15;stroke:#ffffff;stroke-width:0.2;"/>
    <path clip-path="url(#p431780675e)" d="M 67.486733 121.745567 
L 65.466678 121.216002 
L 65.466682 121.216273 
L 67.486735 121.745688 
z
" style="fill:#821580;fill-opacity:0.15;stroke:#ffffff;stroke-width:0.2;"/>
    <path clip-path="url(#p431780675e)" d="M 114.151275 41.921929 
L 114.301236 43.099225 
L 112.047292 100.656431 
L 111.917473 99.28147 
z
" style="fill:#821580;fill-opacity:0.15;stroke:#ffffff;stroke-width:0.2;"/>
    <path clip-path="url(#p431780675e)" d="M 69.556945 122.18772 
L 67.486733 121.745567 
L 67.486735 121.745688 
L 69.556946 122.187769 
z
" style="fill:#821580;fill-opacity:0.15;stroke:#ffffff;stroke-width:0.2;"/>
    <path clip-path="url(#p431780675e)" d="M 71.66824 122.540366 
L 69.556945 122.18772 
L 69.556946 122.187769 
L 71.66824 122.540383 
z
" style="fill:#821580;fill-opacity:0.15;stroke:#ffffff;stroke-width:0.2;"/>
    <path clip-path="url(#p431780675e)" d="M 73.811311 122.801817 
L 71.66824 122.540366 
L 71.66824 122.540383 
L 73.811311 122.801822 
z
" style="fill:#821580;fill-opacity:0.15;stroke:#ffffff;stroke-width:0.2;"/>
    <path clip-path="url(#p431780675e)" d="M 86.805969 121.809047 
L 84.668075 122.712742 
L 84.668075 122.712742 
L 86.800117 122.416278 
z
" style="fill:#821580;fill-opacity:0.15;stroke:#ffffff;stroke-width:0.2;"/>
    <path clip-path="url(#p431780675e)" d="M 88.924366 119.764318 
L 86.805969 121.809047 
L 86.800117 122.416278 
L 88.896801 122.02924 
z
" style="fill:#821580;fill-opacity:0.15;stroke:#ffffff;stroke-width:0.2;"/>
    <path clip-path="url(#p431780675e)" d="M 84.668075 122.712742 
L 82.5101 122.917196 
L 82.5101 122.917196 
L 84.668075 122.712742 
z
" style="fill:#821580;fill-opacity:0.15;stroke:#ffffff;stroke-width:0.2;"/>
    <path clip-path="url(#p431780675e)" d="M 75.976674 122.970817 
L 73.811311 122.801817 
L 73.811311 122.801822 
L 75.976674 122.970818 
z
" style="fill:#821580;fill-opacity:0.15;stroke:#ffffff;stroke-width:0.2;"/>
    <path clip-path="url(#p431780675e)" d="M 82.5101 122.917196 
L 80.33576 123.028646 
L 80.33576 123.028646 
L 82.5101 122.917196 
z
" style="fill:#821580;fill-opacity:0.15;stroke:#ffffff;stroke-width:0.2;"/>
    <path clip-path="url(#p431780675e)" d="M 78.154718 123.046549 
L 75.976674 122.970817 
L 75.976674 122.970818 
L 78.154718 123.046549 
z
" style="fill:#821580;fill-opacity:0.15;stroke:#ffffff;stroke-width:0.2;"/>
    <path clip-path="url(#p431780675e)" d="M 80.33576 123.028646 
L 78.154718 123.046549 
L 78.154718 123.046549 
L 80.33576 123.028646 
z
" style="fill:#821580;fill-opacity:0.15;stroke:#ffffff;stroke-width:0.2;"/>
    <path clip-path="url(#p431780675e)" d="M 91.01851 116.800461 
L 88.924366 119.764318 
L 88.896801 122.02924 
L 90.948906 121.553501 
z
" style="fill:#821580;fill-opacity:0.15;stroke:#ffffff;stroke-width:0.2;"/>
    <path clip-path="url(#p431780675e)" d="M 114.301236 43.099225 
L 114.295917 44.608654 
L 112.043604 102.036962 
L 112.047292 100.656431 
z
" style="fill:#821580;fill-opacity:0.15;stroke:#ffffff;stroke-width:0.2;"/>
    <path clip-path="url(#p431780675e)" d="M 93.081812 113.110559 
L 91.01851 116.800461 
L 90.948906 121.553501 
L 92.947457 120.991353 
z
" style="fill:#821580;fill-opacity:0.15;stroke:#ffffff;stroke-width:0.2;"/>
    <path clip-path="url(#p431780675e)" d="M 95.106204 108.863996 
L 93.081812 113.110559 
L 92.947457 120.991353 
L 94.883778 120.345494 
z
" style="fill:#821580;fill-opacity:0.15;stroke:#ffffff;stroke-width:0.2;"/>
    <path clip-path="url(#p431780675e)" d="M 114.295917 44.608654 
L 114.133554 46.465302 
L 111.905566 103.417503 
L 112.043604 102.036962 
z
" style="fill:#821580;fill-opacity:0.15;stroke:#ffffff;stroke-width:0.2;"/>
    <path clip-path="url(#p431780675e)" d="M 97.082457 104.210142 
L 95.106204 108.863996 
L 94.883778 120.345494 
L 96.749537 119.619006 
z
" style="fill:#821580;fill-opacity:0.15;stroke:#ffffff;stroke-width:0.2;"/>
    <path clip-path="url(#p431780675e)" d="M 114.133554 46.465302 
L 113.813428 48.680781 
L 111.632876 104.792421 
L 111.905566 103.417503 
z
" style="fill:#821580;fill-opacity:0.15;stroke:#ffffff;stroke-width:0.2;"/>
    <path clip-path="url(#p431780675e)" d="M 99.000498 99.281001 
L 97.082457 104.210142 
L 96.749537 119.619006 
L 98.536788 118.815338 
z
" style="fill:#821580;fill-opacity:0.15;stroke:#ffffff;stroke-width:0.2;"/>
    <path clip-path="url(#p431780675e)" d="M 113.813428 48.680781 
L 113.335945 51.262441 
L 111.225796 106.156035 
L 111.632876 104.792421 
z
" style="fill:#821580;fill-opacity:0.15;stroke:#ffffff;stroke-width:0.2;"/>
    <path clip-path="url(#p431780675e)" d="M 100.849701 94.193123 
L 99.000498 99.281001 
L 98.536788 118.815338 
L 100.238007 117.938281 
z
" style="fill:#821580;fill-opacity:0.15;stroke:#ffffff;stroke-width:0.2;"/>
    <path clip-path="url(#p431780675e)" d="M 113.335945 51.262441 
L 112.702698 54.212569 
L 110.685157 107.50264 
L 111.225796 106.156035 
z
" style="fill:#821580;fill-opacity:0.15;stroke:#ffffff;stroke-width:0.2;"/>
    <path clip-path="url(#p431780675e)" d="M 102.619171 89.049 
L 100.849701 94.193123 
L 100.238007 117.938281 
L 101.846133 116.991942 
z
" style="fill:#821580;fill-opacity:0.15;stroke:#ffffff;stroke-width:0.2;"/>
    <path clip-path="url(#p431780675e)" d="M 104.298014 83.938107 
L 102.619171 89.049 
L 101.846133 116.991942 
L 103.354597 115.980719 
z
" style="fill:#821580;fill-opacity:0.15;stroke:#ffffff;stroke-width:0.2;"/>
    <path clip-path="url(#p431780675e)" d="M 112.702698 54.212569 
L 111.916506 57.527569 
L 110.012376 108.826532 
L 110.685157 107.50264 
z
" style="fill:#821580;fill-opacity:0.15;stroke:#ffffff;stroke-width:0.2;"/>
    <path clip-path="url(#p431780675e)" d="M 105.875592 78.937723 
L 104.298014 83.938107 
L 103.354597 115.980719 
L 104.757344 114.909274 
z
" style="fill:#821580;fill-opacity:0.15;stroke:#ffffff;stroke-width:0.2;"/>
    <path clip-path="url(#p431780675e)" d="M 111.916506 57.527569 
L 110.981431 61.197148 
L 109.209458 110.122036 
L 110.012376 108.826532 
z
" style="fill:#821580;fill-opacity:0.15;stroke:#ffffff;stroke-width:0.2;"/>
    <path clip-path="url(#p431780675e)" d="M 107.341746 74.113618 
L 105.875592 78.937723 
L 104.757344 114.909274 
L 106.048865 113.782499 
z
" style="fill:#821580;fill-opacity:0.15;stroke:#ffffff;stroke-width:0.2;"/>
    <path clip-path="url(#p431780675e)" d="M 110.981431 61.197148 
L 109.902769 65.203527 
L 108.279003 111.383535 
L 109.209458 110.122036 
z
" style="fill:#821580;fill-opacity:0.15;stroke:#ffffff;stroke-width:0.2;"/>
    <path clip-path="url(#p431780675e)" d="M 108.687007 69.520679 
L 107.341746 74.113618 
L 106.048865 113.782499 
L 107.22421 112.605495 
z
" style="fill:#821580;fill-opacity:0.15;stroke:#ffffff;stroke-width:0.2;"/>
    <path clip-path="url(#p431780675e)" d="M 109.902769 65.203527 
L 108.687007 69.520679 
L 107.22421 112.605495 
L 108.279003 111.383535 
z
" style="fill:#821580;fill-opacity:0.15;stroke:#ffffff;stroke-width:0.2;"/>
   </g>
   <g id="line2d_1">
    <path clip-path="url(#p431780675e)" d="M 84.668075 122.712742 
L 82.5101 122.917196 
L 80.33576 123.028646 
L 78.154718 123.046549 
L 75.976674 122.970818 
L 73.811311 122.801822 
L 71.66824 122.540383 
L 69.556946 122.187769 
L 67.486735 121.745688 
L 65.466682 121.216273 
L 63.505582 120.602069 
L 61.611905 119.906013 
L 59.793748 119.131418 
L 58.058801 118.281946 
L 56.414304 117.361586 
L 54.867021 116.374628 
L 53.423204 115.325637 
L 52.088574 114.21942 
L 50.868296 113.061003 
L 49.766966 111.855594 
L 48.788598 110.608562 
L 47.936615 109.325397 
L 47.213846 108.011688 
L 46.622523 106.673093 
L 46.164287 105.315307 
L 45.840193 103.944038 
L 45.650717 102.564978 
L 45.595771 101.183782 
L 45.674718 99.80604 
L 45.886385 98.43726 
L 46.229083 97.082839 
L 46.700626 95.748053 
L 47.298357 94.438034 
L 48.019163 93.157755 
L 48.859502 91.912014 
L 49.815428 90.705423 
L 50.88261 89.542397 
L 52.056361 88.427138 
L 53.33166 87.363632 
L 54.703176 86.355639 
L 56.16529 85.406682 
L 57.712121 84.520047 
L 59.337549 83.698776 
L 61.035234 82.945659 
L 62.79864 82.263236 
L 64.621058 81.65379 
L 66.495622 81.119345 
L 68.415333 80.661668 
L 70.37308 80.282261 
L 72.361653 79.982366 
L 74.373768 79.76296 
L 76.402083 79.624756 
L 78.439216 79.568203 
L 80.477765 79.593483 
L 82.510321 79.700514 
L 84.529494 79.888951 
L 86.527925 80.15818 
L 88.498303 80.507325 
L 90.433391 80.935247 
L 92.326035 81.440541 
L 94.169193 82.021543 
L 95.955944 82.676327 
L 97.679518 83.402707 
L 99.33331 84.198242 
L 100.910903 85.060237 
L 102.40609 85.985746 
L 103.812895 86.971576 
L 105.125598 88.014293 
L 106.338754 89.110228 
L 107.447221 90.25548 
L 108.446182 91.445928 
L 109.331167 92.677238 
L 110.09808 93.944871 
L 110.743222 95.2441 
L 111.263313 96.570017 
L 111.65552 97.917547 
L 111.917473 99.28147 
L 112.047292 100.656431 
L 112.043604 102.036962 
L 111.905566 103.417503 
L 111.632876 104.792421 
L 111.225796 106.156035 
L 110.685157 107.50264 
L 110.012376 108.826532 
L 109.209458 110.122036 
L 108.279003 111.383535 
L 107.22421 112.605495 
L 106.048865 113.782499 
L 104.757344 114.909274 
L 103.354597 115.980719 
L 101.846133 116.991942 
L 100.238007 117.938281 
L 98.536788 118.815338 
L 96.749537 119.619006 
L 94.883778 120.345494 
L 92.947457 120.991353 
L 90.948906 121.553501 
L 88.896801 122.02924 
L 86.800117 122.416278 
L 84.668075 122.712742 
" style="fill:none;stroke:#000000;stroke-dasharray:3.7,1.6;stroke-dashoffset:0;"/>
   </g>
   <g id="line2d_2">
    <path clip-path="url(#p431780675e)" d="M 84.668075 122.712742 
L 82.5101 122.917196 
L 80.33576 123.028646 
L 78.154718 123.046549 
L 75.976674 122.970817 
L 73.811311 122.801817 
L 71.66824 122.540366 
L 69.556945 122.18772 
L 67.486733 121.745567 
L 65.466678 121.216002 
L 63.505572 120.601516 
L 61.611883 119.904959 
L 59.793704 119.129524 
L 58.05872 118.278706 
L 56.414161 117.356271 
L 54.866779 116.366217 
L 53.422811 115.312739 
L 52.087957 114.200184 
L 50.867359 113.033008 
L 49.765581 111.815738 
L 48.786604 110.552929 
L 47.933808 109.249116 
L 47.209976 107.908781 
L 46.617291 106.536307 
L 46.15734 105.135943 
L 45.831121 103.711769 
L 45.639057 102.267659 
L 45.581005 100.807258 
L 45.656278 99.333947 
L 45.863662 97.850825 
L 46.201436 96.360691 
L 46.667399 94.866023 
L 47.258894 93.368973 
L 47.972832 91.871357 
L 48.805721 90.374654 
L 49.753692 88.880006 
L 50.81253 87.388228 
L 51.977696 85.899819 
L 53.24436 84.414976 
L 54.607421 82.933617 
L 56.061538 81.455404 
L 57.601153 79.979776 
L 59.22051 78.505984 
L 60.913682 77.033125 
L 62.674586 75.560192 
L 64.497006 74.08612 
L 66.374602 72.60984 
L 68.30093 71.130335 
L 70.269453 69.646704 
L 72.273549 68.158228 
L 74.306522 66.66444 
L 76.361606 65.165203 
L 78.431971 63.660787 
L 80.510727 62.151951 
L 82.590926 60.640035 
L 84.665561 59.127043 
L 86.72757 57.615738 
L 88.769832 56.109732 
L 90.785169 54.613586 
L 92.766348 53.132893 
L 94.706079 51.674374 
L 96.597023 50.245957 
L 98.431795 48.856858 
L 100.202973 47.517645 
L 101.903112 46.240291 
L 103.524763 45.038205 
L 105.060492 43.926248 
L 106.502913 42.920719 
L 107.844724 42.0393 
L 109.078751 41.300977 
L 110.197999 40.725903 
L 111.195714 40.335223 
L 112.065455 40.150833 
L 112.801168 40.195085 
L 113.397273 40.490422 
L 113.848759 41.058948 
L 114.151275 41.921929 
L 114.301236 43.099225 
L 114.295917 44.608654 
L 114.133554 46.465302 
L 113.813428 48.680781 
L 113.335945 51.262441 
L 112.702698 54.212569 
L 111.916506 57.527569 
L 110.981431 61.197148 
L 109.902769 65.203527 
L 108.687007 69.520679 
L 107.341746 74.113618 
L 105.875592 78.937723 
L 104.298014 83.938107 
L 102.619171 89.049 
L 100.849701 94.193123 
L 99.000498 99.281001 
L 97.082457 104.210142 
L 95.106204 108.863996 
L 93.081812 113.110559 
L 91.01851 116.800461 
L 88.924366 119.764318 
L 86.805969 121.809047 
L 84.668075 122.712742 
" style="fill:none;stroke:#821580;stroke-linecap:round;stroke-width:1.5;"/>
   </g>
   <g id="text_1">
    <!-- $0$° -->
    <defs>
     <path d="M 31.78125 66.40625 
Q 24.171875 66.40625 20.328125 58.90625 
Q 16.5 51.421875 16.5 36.375 
Q 16.5 21.390625 20.328125 13.890625 
Q 24.171875 6.390625 31.78125 6.390625 
Q 39.453125 6.390625 43.28125 13.890625 
Q 47.125 21.390625 47.125 36.375 
Q 47.125 51.421875 43.28125 58.90625 
Q 39.453125 66.40625 31.78125 66.40625 
z
M 31.78125 74.21875 
Q 44.046875 74.21875 50.515625 64.515625 
Q 56.984375 54.828125 56.984375 36.375 
Q 56.984375 17.96875 50.515625 8.265625 
Q 44.046875 -1.421875 31.78125 -1.421875 
Q 19.53125 -1.421875 13.0625 8.265625 
Q 6.59375 17.96875 6.59375 36.375 
Q 6.59375 54.828125 13.0625 64.515625 
Q 19.53125 74.21875 31.78125 74.21875 
z
" id="DejaVuSans-48"/>
     <path d="M 6.25 59.28125 
Q 6.25 64.890625 10.21875 68.84375 
Q 14.203125 72.796875 19.78125 72.796875 
Q 25.4375 72.796875 29.390625 68.84375 
Q 33.34375 64.890625 33.34375 59.28125 
Q 33.34375 53.65625 29.359375 49.671875 
Q 25.390625 45.703125 19.78125 45.703125 
Q 14.203125 45.703125 10.21875 49.65625 
Q 6.25 53.609375 6.25 59.28125 
z
M 11.578125 59.28125 
Q 11.578125 55.859375 13.984375 53.4375 
Q 16.40625 51.03125 19.828125 51.03125 
Q 23.1875 51.03125 25.609375 53.4375 
Q 28.03125 55.859375 28.03125 59.28125 
Q 28.03125 62.703125 25.609375 65.109375 
Q 23.1875 67.53125 19.828125 67.53125 
Q 16.40625 67.53125 13.984375 65.109375 
Q 11.578125 62.703125 11.578125 59.28125 
z
" id="ArialMT-176"/>
    </defs>
    <g style="fill:#cccccc;" transform="translate(37.362162 14.545946)scale(0.1 -0.1)">
     <use transform="translate(0 0.78125)" xlink:href="#DejaVuSans-48"/>
     <use transform="translate(63.623047 0.78125)" xlink:href="#ArialMT-176"/>
    </g>
   </g>
  </g>
 </g>
 <defs>
  <clipPath id="p431780675e">
   <rect height="135.9" width="139.5" x="7.2" y="7.2"/>
  </clipPath>
 </defs>
</svg>
