<?xml version="1.0" encoding="utf-8" standalone="no"?>
<!DOCTYPE svg PUBLIC "-//W3C//DTD SVG 1.1//EN"
  "http://www.w3.org/Graphics/SVG/1.1/DTD/svg11.dtd">
<!-- Created with matplotlib (https://matplotlib.org/) -->
<svg height="150.3pt" version="1.1" viewBox="0 0 153.9 150.3" width="153.9pt" xmlns="http://www.w3.org/2000/svg" xmlns:xlink="http://www.w3.org/1999/xlink">
 <defs>
  <style type="text/css">
*{stroke-linecap:butt;stroke-linejoin:round;}
  </style>
 </defs>
 <g id="figure_1">
  <g id="patch_1">
   <path d="M 0 150.3 
L 153.9 150.3 
L 153.9 0 
L 0 0 
z
" style="fill:none;"/>
  </g>
  <g id="patch_2">
   <path d="M 7.2 143.1 
L 146.7 143.1 
L 146.7 7.2 
L 7.2 7.2 
z
" style="fill:none;"/>
  </g>
  <g id="axes_1">
   <g id="Poly3DCollection_1">
    <path clip-path="url(#p140b982963)" d="M 78.447774 79.522647 
L 80.486321 79.53229 
L 80.486217 79.587244 
L 78.447792 79.562 
z
" style="fill:#821580;fill-opacity:0.15;stroke:#ffffff;stroke-width:0.2;"/>
    <path clip-path="url(#p140b982963)" d="M 76.410702 79.590961 
L 78.447774 79.522647 
L 78.447792 79.562 
L 76.410779 79.618593 
z
" style="fill:#821580;fill-opacity:0.15;stroke:#ffffff;stroke-width:0.2;"/>
    <path clip-path="url(#p140b982963)" d="M 80.486321 79.53229 
L 82.518968 79.618856 
L 82.518648 79.694242 
L 80.486217 79.587244 
z
" style="fill:#821580;fill-opacity:0.15;stroke:#ffffff;stroke-width:0.2;"/>
    <path clip-path="url(#p140b982963)" d="M 74.382483 79.737857 
L 76.410702 79.590961 
L 76.410779 79.618593 
L 74.38258 79.756838 
z
" style="fill:#821580;fill-opacity:0.15;stroke:#ffffff;stroke-width:0.2;"/>
    <path clip-path="url(#p140b982963)" d="M 82.518968 79.618856 
L 84.538362 79.780891 
L 84.537694 79.882647 
L 82.518648 79.694242 
z
" style="fill:#821580;fill-opacity:0.15;stroke:#ffffff;stroke-width:0.2;"/>
    <path clip-path="url(#p140b982963)" d="M 72.370483 79.963564 
L 74.382483 79.737857 
L 74.38258 79.756838 
L 72.370578 79.976287 
z
" style="fill:#821580;fill-opacity:0.15;stroke:#ffffff;stroke-width:0.2;"/>
    <path clip-path="url(#p140b982963)" d="M 84.538362 79.780891 
L 86.537195 80.016513 
L 86.535995 80.151847 
L 84.537694 79.882647 
z
" style="fill:#821580;fill-opacity:0.15;stroke:#ffffff;stroke-width:0.2;"/>
    <path clip-path="url(#p140b982963)" d="M 70.382033 80.267932 
L 72.370483 79.963564 
L 72.370578 79.976287 
L 70.382113 80.276227 
z
" style="fill:#821580;fill-opacity:0.15;stroke:#ffffff;stroke-width:0.2;"/>
    <path clip-path="url(#p140b982963)" d="M 86.537195 80.016513 
L 88.508222 80.323394 
L 88.506244 80.500967 
L 86.535995 80.151847 
z
" style="fill:#821580;fill-opacity:0.15;stroke:#ffffff;stroke-width:0.2;"/>
    <path clip-path="url(#p140b982963)" d="M 68.424408 80.65044 
L 70.382033 80.267932 
L 70.382113 80.276227 
L 68.424471 80.655681 
z
" style="fill:#821580;fill-opacity:0.15;stroke:#ffffff;stroke-width:0.2;"/>
    <path clip-path="url(#p140b982963)" d="M 88.508222 80.323394 
L 90.444279 80.698759 
L 90.441201 80.928866 
L 88.506244 80.500967 
z
" style="fill:#821580;fill-opacity:0.15;stroke:#ffffff;stroke-width:0.2;"/>
    <path clip-path="url(#p140b982963)" d="M 66.504812 81.110213 
L 68.424408 80.65044 
L 68.424471 80.655681 
L 66.504858 81.113408 
z
" style="fill:#821580;fill-opacity:0.15;stroke:#ffffff;stroke-width:0.2;"/>
    <path clip-path="url(#p140b982963)" d="M 90.444279 80.698759 
L 92.338303 81.139375 
L 92.333716 81.434141 
L 90.441201 80.928866 
z
" style="fill:#821580;fill-opacity:0.15;stroke:#ffffff;stroke-width:0.2;"/>
    <path clip-path="url(#p140b982963)" d="M 64.630356 81.646036 
L 66.504812 81.110213 
L 66.504858 81.113408 
L 64.630387 81.647903 
z
" style="fill:#821580;fill-opacity:0.15;stroke:#ffffff;stroke-width:0.2;"/>
    <path clip-path="url(#p140b982963)" d="M 92.338303 81.139375 
L 94.183355 81.641548 
L 94.176743 82.015127 
L 92.333716 81.434141 
z
" style="fill:#821580;fill-opacity:0.15;stroke:#ffffff;stroke-width:0.2;"/>
    <path clip-path="url(#p140b982963)" d="M 62.808037 82.256362 
L 64.630356 81.646036 
L 64.630387 81.647903 
L 62.808057 82.257401 
z
" style="fill:#821580;fill-opacity:0.15;stroke:#ffffff;stroke-width:0.2;"/>
    <path clip-path="url(#p140b982963)" d="M 94.183355 81.641548 
L 95.972637 82.201119 
L 95.963366 82.669897 
L 94.176743 82.015127 
z
" style="fill:#821580;fill-opacity:0.15;stroke:#ffffff;stroke-width:0.2;"/>
    <path clip-path="url(#p140b982963)" d="M 61.04472 82.939332 
L 62.808037 82.256362 
L 62.808057 82.257401 
L 61.044731 82.939878 
z
" style="fill:#821580;fill-opacity:0.15;stroke:#ffffff;stroke-width:0.2;"/>
    <path clip-path="url(#p140b982963)" d="M 95.972637 82.201119 
L 97.699509 82.813462 
L 97.686813 83.396267 
L 95.963366 82.669897 
z
" style="fill:#821580;fill-opacity:0.15;stroke:#ffffff;stroke-width:0.2;"/>
    <path clip-path="url(#p140b982963)" d="M 59.347115 83.692782 
L 61.04472 82.939332 
L 61.044731 82.939878 
L 59.347121 83.693049 
z
" style="fill:#821580;fill-opacity:0.15;stroke:#ffffff;stroke-width:0.2;"/>
    <path clip-path="url(#p140b982963)" d="M 97.699509 82.813462 
L 99.357516 83.473491 
L 99.34048 84.191796 
L 97.686813 83.396267 
z
" style="fill:#821580;fill-opacity:0.15;stroke:#ffffff;stroke-width:0.2;"/>
    <path clip-path="url(#p140b982963)" d="M 57.721758 84.514256 
L 59.347115 83.692782 
L 59.347121 83.693049 
L 57.721761 84.514376 
z
" style="fill:#821580;fill-opacity:0.15;stroke:#ffffff;stroke-width:0.2;"/>
    <path clip-path="url(#p140b982963)" d="M 99.357516 83.473491 
L 100.940402 84.175665 
L 100.917951 85.053788 
L 99.34048 84.191796 
z
" style="fill:#821580;fill-opacity:0.15;stroke:#ffffff;stroke-width:0.2;"/>
    <path clip-path="url(#p140b982963)" d="M 56.174989 85.401019 
L 57.721758 84.514256 
L 57.721761 84.514376 
L 56.17499 85.401067 
z
" style="fill:#821580;fill-opacity:0.15;stroke:#ffffff;stroke-width:0.2;"/>
    <path clip-path="url(#p140b982963)" d="M 100.940402 84.175665 
L 102.44213 84.913993 
L 102.413018 85.979297 
L 100.917951 85.053788 
z
" style="fill:#821580;fill-opacity:0.15;stroke:#ffffff;stroke-width:0.2;"/>
    <path clip-path="url(#p140b982963)" d="M 54.712929 86.350064 
L 56.174989 85.401019 
L 56.17499 85.401067 
L 54.712929 86.35008 
z
" style="fill:#821580;fill-opacity:0.15;stroke:#ffffff;stroke-width:0.2;"/>
    <path clip-path="url(#p140b982963)" d="M 53.34146 87.358127 
L 54.712929 86.350064 
L 54.712929 86.35008 
L 53.34146 87.358131 
z
" style="fill:#821580;fill-opacity:0.15;stroke:#ffffff;stroke-width:0.2;"/>
    <path clip-path="url(#p140b982963)" d="M 102.44213 84.913993 
L 103.856906 85.682053 
L 103.819708 86.965131 
L 102.413018 85.979297 
z
" style="fill:#821580;fill-opacity:0.15;stroke:#ffffff;stroke-width:0.2;"/>
    <path clip-path="url(#p140b982963)" d="M 52.066199 88.421693 
L 53.34146 87.358127 
L 53.34146 87.358131 
L 52.066199 88.421694 
z
" style="fill:#821580;fill-opacity:0.15;stroke:#ffffff;stroke-width:0.2;"/>
    <path clip-path="url(#p140b982963)" d="M 103.856906 85.682053 
L 105.179191 86.473003 
L 105.132299 88.007856 
L 103.819708 86.965131 
z
" style="fill:#821580;fill-opacity:0.15;stroke:#ffffff;stroke-width:0.2;"/>
    <path clip-path="url(#p140b982963)" d="M 50.892478 89.537011 
L 52.066199 88.421693 
L 52.066199 88.421694 
L 50.892478 89.537011 
z
" style="fill:#821580;fill-opacity:0.15;stroke:#ffffff;stroke-width:0.2;"/>
    <path clip-path="url(#p140b982963)" d="M 105.179191 86.473003 
L 106.403725 87.279607 
L 106.345349 89.103801 
L 105.132299 88.007856 
z
" style="fill:#821580;fill-opacity:0.15;stroke:#ffffff;stroke-width:0.2;"/>
    <path clip-path="url(#p140b982963)" d="M 49.825318 90.700095 
L 50.892478 89.537011 
L 50.892478 89.537011 
L 49.825318 90.700095 
z
" style="fill:#821580;fill-opacity:0.15;stroke:#ffffff;stroke-width:0.2;"/>
    <path clip-path="url(#p140b982963)" d="M 106.403725 87.279607 
L 107.525544 88.09426 
L 107.453714 90.249067 
L 106.345349 89.103801 
z
" style="fill:#821580;fill-opacity:0.15;stroke:#ffffff;stroke-width:0.2;"/>
    <path clip-path="url(#p140b982963)" d="M 48.869407 91.906742 
L 49.825318 90.700095 
L 49.825318 90.700095 
L 48.869407 91.906742 
z
" style="fill:#821580;fill-opacity:0.15;stroke:#ffffff;stroke-width:0.2;"/>
    <path clip-path="url(#p140b982963)" d="M 107.525544 88.09426 
L 108.539998 88.909015 
L 108.452578 91.439533 
L 107.453714 90.249067 
z
" style="fill:#821580;fill-opacity:0.15;stroke:#ffffff;stroke-width:0.2;"/>
    <path clip-path="url(#p140b982963)" d="M 48.029074 93.152539 
L 48.869407 91.906742 
L 48.869407 91.906742 
L 48.029074 93.152539 
z
" style="fill:#821580;fill-opacity:0.15;stroke:#ffffff;stroke-width:0.2;"/>
    <path clip-path="url(#p140b982963)" d="M 108.539998 88.909015 
L 109.442767 89.715621 
L 109.337473 92.670864 
L 108.452578 91.439533 
z
" style="fill:#821580;fill-opacity:0.15;stroke:#ffffff;stroke-width:0.2;"/>
    <path clip-path="url(#p140b982963)" d="M 47.286073 93.831496 
L 48.029074 93.152539 
L 48.029074 93.152539 
L 47.308266 94.432874 
z
" style="fill:#821580;fill-opacity:0.15;stroke:#ffffff;stroke-width:0.2;"/>
    <path clip-path="url(#p140b982963)" d="M 109.442767 89.715621 
L 110.229877 90.505563 
L 110.104301 93.938523 
L 109.337473 92.670864 
z
" style="fill:#821580;fill-opacity:0.15;stroke:#ffffff;stroke-width:0.2;"/>
    <path clip-path="url(#p140b982963)" d="M 46.626004 93.498613 
L 47.286073 93.831496 
L 47.308266 94.432874 
L 46.710525 95.742947 
z
" style="fill:#821580;fill-opacity:0.15;stroke:#ffffff;stroke-width:0.2;"/>
    <path clip-path="url(#p140b982963)" d="M 110.229877 90.505563 
L 110.897719 91.270108 
L 110.749365 95.23778 
L 110.104301 93.938523 
z
" style="fill:#821580;fill-opacity:0.15;stroke:#ffffff;stroke-width:0.2;"/>
    <path clip-path="url(#p140b982963)" d="M 110.897719 91.270108 
L 111.443064 92.000354 
L 111.269385 96.563728 
L 110.749365 95.23778 
z
" style="fill:#821580;fill-opacity:0.15;stroke:#ffffff;stroke-width:0.2;"/>
    <path clip-path="url(#p140b982963)" d="M 46.058605 92.365322 
L 46.626004 93.498613 
L 46.710525 95.742947 
L 46.238962 97.077786 
z
" style="fill:#821580;fill-opacity:0.15;stroke:#ffffff;stroke-width:0.2;"/>
    <path clip-path="url(#p140b982963)" d="M 111.443064 92.000354 
L 111.863072 92.68729 
L 111.661528 97.911293 
L 111.269385 96.563728 
z
" style="fill:#821580;fill-opacity:0.15;stroke:#ffffff;stroke-width:0.2;"/>
    <path clip-path="url(#p140b982963)" d="M 45.593397 90.614232 
L 46.058605 92.365322 
L 46.238962 97.077786 
L 45.896238 98.432258 
z
" style="fill:#821580;fill-opacity:0.15;stroke:#ffffff;stroke-width:0.2;"/>
    <path clip-path="url(#p140b982963)" d="M 111.863072 92.68729 
L 112.155313 93.321855 
L 111.923424 99.275254 
L 111.661528 97.911293 
z
" style="fill:#821580;fill-opacity:0.15;stroke:#ffffff;stroke-width:0.2;"/>
    <path clip-path="url(#p140b982963)" d="M 112.155313 93.321855 
L 112.317776 93.895006 
L 112.053194 100.650256 
L 111.923424 99.275254 
z
" style="fill:#821580;fill-opacity:0.15;stroke:#ffffff;stroke-width:0.2;"/>
    <path clip-path="url(#p140b982963)" d="M 45.239507 88.404113 
L 45.593397 90.614232 
L 45.896238 98.432258 
L 45.684537 99.801089 
z
" style="fill:#821580;fill-opacity:0.15;stroke:#ffffff;stroke-width:0.2;"/>
    <path clip-path="url(#p140b982963)" d="M 112.317776 93.895006 
L 112.348881 94.397795 
L 112.049466 102.030832 
L 112.053194 100.650256 
z
" style="fill:#821580;fill-opacity:0.15;stroke:#ffffff;stroke-width:0.2;"/>
    <path clip-path="url(#p140b982963)" d="M 45.005505 85.873536 
L 45.239507 88.404113 
L 45.684537 99.801089 
L 45.605548 101.178878 
z
" style="fill:#821580;fill-opacity:0.15;stroke:#ffffff;stroke-width:0.2;"/>
    <path clip-path="url(#p140b982963)" d="M 112.348881 94.397795 
L 112.247494 94.821446 
L 111.911395 103.41142 
L 112.049466 102.030832 
z
" style="fill:#821580;fill-opacity:0.15;stroke:#ffffff;stroke-width:0.2;"/>
    <path clip-path="url(#p140b982963)" d="M 112.247494 94.821446 
L 112.012935 95.157442 
L 111.638681 104.786387 
L 111.911395 103.41142 
z
" style="fill:#821580;fill-opacity:0.15;stroke:#ffffff;stroke-width:0.2;"/>
    <path clip-path="url(#p140b982963)" d="M 44.899237 83.143541 
L 45.005505 85.873536 
L 45.605548 101.178878 
L 45.660443 102.56012 
z
" style="fill:#821580;fill-opacity:0.15;stroke:#ffffff;stroke-width:0.2;"/>
    <path clip-path="url(#p140b982963)" d="M 112.012935 95.157442 
L 111.644987 95.397613 
L 111.231585 106.150053 
L 111.638681 104.786387 
z
" style="fill:#821580;fill-opacity:0.15;stroke:#ffffff;stroke-width:0.2;"/>
    <path clip-path="url(#p140b982963)" d="M 111.644987 95.397613 
L 111.143912 95.53424 
L 110.690938 107.496711 
L 111.231585 106.150053 
z
" style="fill:#821580;fill-opacity:0.15;stroke:#ffffff;stroke-width:0.2;"/>
    <path clip-path="url(#p140b982963)" d="M 44.927665 80.319613 
L 44.899237 83.143541 
L 45.660443 102.56012 
L 45.849861 103.939223 
z
" style="fill:#821580;fill-opacity:0.15;stroke:#ffffff;stroke-width:0.2;"/>
    <path clip-path="url(#p140b982963)" d="M 111.143912 95.53424 
L 110.510453 95.560149 
L 110.018158 108.820659 
L 110.690938 107.496711 
z
" style="fill:#821580;fill-opacity:0.15;stroke:#ffffff;stroke-width:0.2;"/>
    <path clip-path="url(#p140b982963)" d="M 45.096719 77.493154 
L 44.927665 80.319613 
L 45.849861 103.939223 
L 46.173891 105.310533 
z
" style="fill:#821580;fill-opacity:0.15;stroke:#ffffff;stroke-width:0.2;"/>
    <path clip-path="url(#p140b982963)" d="M 110.510453 95.560149 
L 109.745849 95.468824 
L 109.215249 110.116222 
L 110.018158 108.820659 
z
" style="fill:#821580;fill-opacity:0.15;stroke:#ffffff;stroke-width:0.2;"/>
    <path clip-path="url(#p140b982963)" d="M 109.745849 95.468824 
L 108.851841 95.254518 
L 108.284813 111.37778 
L 109.215249 110.116222 
z
" style="fill:#821580;fill-opacity:0.15;stroke:#ffffff;stroke-width:0.2;"/>
    <path clip-path="url(#p140b982963)" d="M 45.411171 74.74261 
L 45.096719 77.493154 
L 46.173891 105.310533 
L 46.632055 106.668357 
z
" style="fill:#821580;fill-opacity:0.15;stroke:#ffffff;stroke-width:0.2;"/>
    <path clip-path="url(#p140b982963)" d="M 108.851841 95.254518 
L 107.83068 94.91237 
L 107.230045 112.599801 
L 108.284813 111.37778 
z
" style="fill:#821580;fill-opacity:0.15;stroke:#ffffff;stroke-width:0.2;"/>
    <path clip-path="url(#p140b982963)" d="M 45.874524 72.134376 
L 45.411171 74.74261 
L 46.632055 106.668357 
L 47.223299 108.006987 
z
" style="fill:#821580;fill-opacity:0.15;stroke:#ffffff;stroke-width:0.2;"/>
    <path clip-path="url(#p140b982963)" d="M 107.83068 94.91237 
L 106.685138 94.438525 
L 106.054735 113.776867 
L 107.230045 112.599801 
z
" style="fill:#821580;fill-opacity:0.15;stroke:#ffffff;stroke-width:0.2;"/>
    <path clip-path="url(#p140b982963)" d="M 106.685138 94.438525 
L 105.418511 93.830259 
L 104.763256 114.903705 
L 106.054735 113.776867 
z
" style="fill:#821580;fill-opacity:0.15;stroke:#ffffff;stroke-width:0.2;"/>
    <path clip-path="url(#p140b982963)" d="M 46.488928 69.723543 
L 45.874524 72.134376 
L 47.223299 108.006987 
L 47.945983 109.320727 
z
" style="fill:#821580;fill-opacity:0.15;stroke:#ffffff;stroke-width:0.2;"/>
    <path clip-path="url(#p140b982963)" d="M 105.418511 93.830259 
L 104.034634 93.086099 
L 103.360559 115.975214 
L 104.763256 114.903705 
z
" style="fill:#821580;fill-opacity:0.15;stroke:#ffffff;stroke-width:0.2;"/>
    <path clip-path="url(#p140b982963)" d="M 104.034634 93.086099 
L 102.537879 92.205956 
L 101.852154 116.9865 
L 103.360559 115.975214 
z
" style="fill:#821580;fill-opacity:0.15;stroke:#ffffff;stroke-width:0.2;"/>
    <path clip-path="url(#p140b982963)" d="M 47.255119 67.554578 
L 46.488928 69.723543 
L 47.945983 109.320727 
L 48.797875 110.60392 
z
" style="fill:#821580;fill-opacity:0.15;stroke:#ffffff;stroke-width:0.2;"/>
    <path clip-path="url(#p140b982963)" d="M 102.537879 92.205956 
L 100.933172 91.191243 
L 100.244094 117.932902 
L 101.852154 116.9865 
z
" style="fill:#821580;fill-opacity:0.15;stroke:#ffffff;stroke-width:0.2;"/>
    <path clip-path="url(#p140b982963)" d="M 48.172398 65.661965 
L 47.255119 67.554578 
L 48.797875 110.60392 
L 49.776146 111.850978 
z
" style="fill:#821580;fill-opacity:0.15;stroke:#ffffff;stroke-width:0.2;"/>
    <path clip-path="url(#p140b982963)" d="M 100.933172 91.191243 
L 99.225987 90.044999 
L 98.542947 118.810023 
L 100.244094 117.932902 
z
" style="fill:#821580;fill-opacity:0.15;stroke:#ffffff;stroke-width:0.2;"/>
    <path clip-path="url(#p140b982963)" d="M 49.238621 64.070853 
L 48.172398 65.661965 
L 49.776146 111.850978 
L 50.877373 113.056407 
z
" style="fill:#821580;fill-opacity:0.15;stroke:#ffffff;stroke-width:0.2;"/>
    <path clip-path="url(#p140b982963)" d="M 99.225987 90.044999 
L 97.422363 88.772003 
L 96.755777 119.613753 
L 98.542947 118.810023 
z
" style="fill:#821580;fill-opacity:0.15;stroke:#ffffff;stroke-width:0.2;"/>
    <path clip-path="url(#p140b982963)" d="M 97.422363 88.772003 
L 95.528897 87.378883 
L 94.890104 120.340302 
L 96.755777 119.613753 
z
" style="fill:#821580;fill-opacity:0.15;stroke:#ffffff;stroke-width:0.2;"/>
    <path clip-path="url(#p140b982963)" d="M 50.450234 62.797725 
L 49.238621 64.070853 
L 50.877373 113.056407 
L 52.097544 114.214842 
z
" style="fill:#821580;fill-opacity:0.15;stroke:#ffffff;stroke-width:0.2;"/>
    <path clip-path="url(#p140b982963)" d="M 95.528897 87.378883 
L 93.552749 85.874209 
L 92.953876 120.986222 
L 94.890104 120.340302 
z
" style="fill:#821580;fill-opacity:0.15;stroke:#ffffff;stroke-width:0.2;"/>
    <path clip-path="url(#p140b982963)" d="M 51.802325 61.851095 
L 50.450234 62.797725 
L 52.097544 114.214842 
L 53.432063 115.321072 
z
" style="fill:#821580;fill-opacity:0.15;stroke:#ffffff;stroke-width:0.2;"/>
    <path clip-path="url(#p140b982963)" d="M 93.552749 85.874209 
L 91.501641 84.268576 
L 90.955423 121.548428 
L 92.953876 120.986222 
z
" style="fill:#821580;fill-opacity:0.15;stroke:#ffffff;stroke-width:0.2;"/>
    <path clip-path="url(#p140b982963)" d="M 91.501641 84.268576 
L 89.383848 82.574664 
L 88.903422 122.024224 
L 90.955423 121.548428 
z
" style="fill:#821580;fill-opacity:0.15;stroke:#ffffff;stroke-width:0.2;"/>
    <path clip-path="url(#p140b982963)" d="M 53.288703 61.232246 
L 51.802325 61.851095 
L 53.432063 115.321072 
L 54.875763 116.370073 
z
" style="fill:#821580;fill-opacity:0.15;stroke:#ffffff;stroke-width:0.2;"/>
    <path clip-path="url(#p140b982963)" d="M 89.383848 82.574664 
L 87.208192 80.807276 
L 86.806846 122.411316 
L 88.903422 122.024224 
z
" style="fill:#821580;fill-opacity:0.15;stroke:#ffffff;stroke-width:0.2;"/>
    <path clip-path="url(#p140b982963)" d="M 54.901996 60.936001 
L 53.288703 61.232246 
L 54.875763 116.370073 
L 56.422927 117.357035 
z
" style="fill:#821580;fill-opacity:0.15;stroke:#ffffff;stroke-width:0.2;"/>
    <path clip-path="url(#p140b982963)" d="M 87.208192 80.807276 
L 84.984026 78.983345 
L 84.674918 122.707833 
L 86.806846 122.411316 
z
" style="fill:#821580;fill-opacity:0.15;stroke:#ffffff;stroke-width:0.2;"/>
    <path clip-path="url(#p140b982963)" d="M 56.63377 60.951511 
L 54.901996 60.936001 
L 56.422927 117.357035 
L 58.0673 118.277396 
z
" style="fill:#821580;fill-opacity:0.15;stroke:#ffffff;stroke-width:0.2;"/>
    <path clip-path="url(#p140b982963)" d="M 84.984026 78.983345 
L 82.721209 77.121908 
L 82.517061 122.912336 
L 84.674918 122.707833 
z
" style="fill:#821580;fill-opacity:0.15;stroke:#ffffff;stroke-width:0.2;"/>
    <path clip-path="url(#p140b982963)" d="M 58.474655 61.263062 
L 56.63377 60.951511 
L 58.0673 118.277396 
L 59.802121 119.126865 
z
" style="fill:#821580;fill-opacity:0.15;stroke:#ffffff;stroke-width:0.2;"/>
    <path clip-path="url(#p140b982963)" d="M 82.721209 77.121908 
L 80.430082 75.244042 
L 80.342842 123.023832 
L 82.517061 122.912336 
z
" style="fill:#821580;fill-opacity:0.15;stroke:#ffffff;stroke-width:0.2;"/>
    <path clip-path="url(#p140b982963)" d="M 60.414482 61.850872 
L 58.474655 61.263062 
L 59.802121 119.126865 
L 61.62015 119.901453 
z
" style="fill:#821580;fill-opacity:0.15;stroke:#ffffff;stroke-width:0.2;"/>
    <path clip-path="url(#p140b982963)" d="M 80.430082 75.244042 
L 78.121429 73.37275 
L 78.161924 123.041778 
L 80.342842 123.023832 
z
" style="fill:#821580;fill-opacity:0.15;stroke:#ffffff;stroke-width:0.2;"/>
    <path clip-path="url(#p140b982963)" d="M 78.121429 73.37275 
L 75.80643 71.532797 
L 75.984006 122.966087 
L 78.161924 123.041778 
z
" style="fill:#821580;fill-opacity:0.15;stroke:#ffffff;stroke-width:0.2;"/>
    <path clip-path="url(#p140b982963)" d="M 62.442426 62.691886 
L 60.414482 61.850872 
L 61.62015 119.901453 
L 63.513698 120.597496 
z
" style="fill:#821580;fill-opacity:0.15;stroke:#ffffff;stroke-width:0.2;"/>
    <path clip-path="url(#p140b982963)" d="M 75.80643 71.532797 
L 73.496605 69.750494 
L 73.818772 122.797128 
L 75.984006 122.966087 
z
" style="fill:#821580;fill-opacity:0.15;stroke:#ffffff;stroke-width:0.2;"/>
    <path clip-path="url(#p140b982963)" d="M 64.54715 63.760527 
L 62.442426 62.691886 
L 63.513698 120.597496 
L 65.474667 121.211684 
z
" style="fill:#821580;fill-opacity:0.15;stroke:#ffffff;stroke-width:0.2;"/>
    <path clip-path="url(#p140b982963)" d="M 73.496605 69.750494 
L 71.203742 68.053417 
L 71.675831 122.535721 
L 73.818772 122.797128 
z
" style="fill:#821580;fill-opacity:0.15;stroke:#ffffff;stroke-width:0.2;"/>
    <path clip-path="url(#p140b982963)" d="M 66.716936 65.02942 
L 64.54715 63.760527 
L 65.474667 121.211684 
L 67.494589 121.741079 
z
" style="fill:#821580;fill-opacity:0.15;stroke:#ffffff;stroke-width:0.2;"/>
    <path clip-path="url(#p140b982963)" d="M 71.203742 68.053417 
L 68.939826 66.470059 
L 69.564668 122.183135 
L 71.675831 122.535721 
z
" style="fill:#821580;fill-opacity:0.15;stroke:#ffffff;stroke-width:0.2;"/>
    <path clip-path="url(#p140b982963)" d="M 68.939826 66.470059 
L 66.716936 65.02942 
L 67.494589 121.741079 
L 69.564668 122.183135 
z
" style="fill:#821580;fill-opacity:0.15;stroke:#ffffff;stroke-width:0.2;"/>
   </g>
   <g id="line2d_1">
    <path clip-path="url(#p140b982963)" d="M 48.029074 93.152539 
L 48.869407 91.906742 
L 49.825318 90.700095 
L 50.892478 89.537011 
L 52.066199 88.421694 
L 53.34146 87.358131 
L 54.712929 86.35008 
L 56.17499 85.401067 
L 57.721761 84.514376 
L 59.347121 83.693049 
L 61.044731 82.939878 
L 62.808057 82.257401 
L 64.630387 81.647903 
L 66.504858 81.113408 
L 68.424471 80.655681 
L 70.382113 80.276227 
L 72.370578 79.976287 
L 74.38258 79.756838 
L 76.410779 79.618593 
L 78.447792 79.562 
L 80.486217 79.587244 
L 82.518648 79.694242 
L 84.537694 79.882647 
L 86.535995 80.151847 
L 88.506244 80.500967 
L 90.441201 80.928866 
L 92.333716 81.434141 
L 94.176743 82.015127 
L 95.963366 82.669897 
L 97.686813 83.396267 
L 99.34048 84.191796 
L 100.917951 85.053788 
L 102.413018 85.979297 
L 103.819708 86.965131 
L 105.132299 88.007856 
L 106.345349 89.103801 
L 107.453714 90.249067 
L 108.452578 91.439533 
L 109.337473 92.670864 
L 110.104301 93.938523 
L 110.749365 95.23778 
L 111.269385 96.563728 
L 111.661528 97.911293 
L 111.923424 99.275254 
L 112.053194 100.650256 
L 112.049466 102.030832 
L 111.911395 103.41142 
L 111.638681 104.786387 
L 111.231585 106.150053 
L 110.690938 107.496711 
L 110.018158 108.820659 
L 109.215249 110.116222 
L 108.284813 111.37778 
L 107.230045 112.599801 
L 106.054735 113.776867 
L 104.763256 114.903705 
L 103.360559 115.975214 
L 101.852154 116.9865 
L 100.244094 117.932902 
L 98.542947 118.810023 
L 96.755777 119.613753 
L 94.890104 120.340302 
L 92.953876 120.986222 
L 90.955423 121.548428 
L 88.903422 122.024224 
L 86.806846 122.411316 
L 84.674918 122.707833 
L 82.517061 122.912336 
L 80.342842 123.023832 
L 78.161924 123.041778 
L 75.984006 122.966087 
L 73.818772 122.797128 
L 71.675831 122.535721 
L 69.564668 122.183135 
L 67.494589 121.741079 
L 65.474667 121.211684 
L 63.513698 120.597496 
L 61.62015 119.901453 
L 59.802121 119.126865 
L 58.0673 118.277396 
L 56.422927 117.357035 
L 54.875763 116.370073 
L 53.432063 115.321072 
L 52.097544 114.214842 
L 50.877373 113.056407 
L 49.776146 111.850978 
L 48.797875 110.60392 
L 47.945983 109.320727 
L 47.223299 108.006987 
L 46.632055 106.668357 
L 46.173891 105.310533 
L 45.849861 103.939223 
L 45.660443 102.56012 
L 45.605548 101.178878 
L 45.684537 99.801089 
L 45.896238 98.432258 
L 46.238962 97.077786 
L 46.710525 95.742947 
L 47.308266 94.432874 
L 48.029074 93.152539 
" style="fill:none;stroke:#000000;stroke-dasharray:3.7,1.6;stroke-dashoffset:0;"/>
   </g>
   <g id="line2d_2">
    <path clip-path="url(#p140b982963)" d="M 48.029074 93.152539 
L 48.869407 91.906742 
L 49.825318 90.700095 
L 50.892478 89.537011 
L 52.066199 88.421693 
L 53.34146 87.358127 
L 54.712929 86.350064 
L 56.174989 85.401019 
L 57.721758 84.514256 
L 59.347115 83.692782 
L 61.04472 82.939332 
L 62.808037 82.256362 
L 64.630356 81.646036 
L 66.504812 81.110213 
L 68.424408 80.65044 
L 70.382033 80.267932 
L 72.370483 79.963564 
L 74.382483 79.737857 
L 76.410702 79.590961 
L 78.447774 79.522647 
L 80.486321 79.53229 
L 82.518968 79.618856 
L 84.538362 79.780891 
L 86.537195 80.016513 
L 88.508222 80.323394 
L 90.444279 80.698759 
L 92.338303 81.139375 
L 94.183355 81.641548 
L 95.972637 82.201119 
L 97.699509 82.813462 
L 99.357516 83.473491 
L 100.940402 84.175665 
L 102.44213 84.913993 
L 103.856906 85.682053 
L 105.179191 86.473003 
L 106.403725 87.279607 
L 107.525544 88.09426 
L 108.539998 88.909015 
L 109.442767 89.715621 
L 110.229877 90.505563 
L 110.897719 91.270108 
L 111.443064 92.000354 
L 111.863072 92.68729 
L 112.155313 93.321855 
L 112.317776 93.895006 
L 112.348881 94.397795 
L 112.247494 94.821446 
L 112.012935 95.157442 
L 111.644987 95.397613 
L 111.143912 95.53424 
L 110.510453 95.560149 
L 109.745849 95.468824 
L 108.851841 95.254518 
L 107.83068 94.91237 
L 106.685138 94.438525 
L 105.418511 93.830259 
L 104.034634 93.086099 
L 102.537879 92.205956 
L 100.933172 91.191243 
L 99.225987 90.044999 
L 97.422363 88.772003 
L 95.528897 87.378883 
L 93.552749 85.874209 
L 91.501641 84.268576 
L 89.383848 82.574664 
L 87.208192 80.807276 
L 84.984026 78.983345 
L 82.721209 77.121908 
L 80.430082 75.244042 
L 78.121429 73.37275 
L 75.80643 71.532797 
L 73.496605 69.750494 
L 71.203742 68.053417 
L 68.939826 66.470059 
L 66.716936 65.02942 
L 64.54715 63.760527 
L 62.442426 62.691886 
L 60.414482 61.850872 
L 58.474655 61.263062 
L 56.63377 60.951511 
L 54.901996 60.936001 
L 53.288703 61.232246 
L 51.802325 61.851095 
L 50.450234 62.797725 
L 49.238621 64.070853 
L 48.172398 65.661965 
L 47.255119 67.554578 
L 46.488928 69.723543 
L 45.874524 72.134376 
L 45.411171 74.74261 
L 45.096719 77.493154 
L 44.927665 80.319613 
L 44.899237 83.143541 
L 45.005505 85.873536 
L 45.239507 88.404113 
L 45.593397 90.614232 
L 46.058605 92.365322 
L 46.626004 93.498613 
L 47.286073 93.831496 
L 48.029074 93.152539 
" style="fill:none;stroke:#821580;stroke-linecap:round;stroke-width:1.5;"/>
   </g>
   <g id="text_1">
    <!-- $120$° -->
    <defs>
     <path d="M 12.40625 8.296875 
L 28.515625 8.296875 
L 28.515625 63.921875 
L 10.984375 60.40625 
L 10.984375 69.390625 
L 28.421875 72.90625 
L 38.28125 72.90625 
L 38.28125 8.296875 
L 54.390625 8.296875 
L 54.390625 0 
L 12.40625 0 
z
" id="DejaVuSans-49"/>
     <path d="M 19.1875 8.296875 
L 53.609375 8.296875 
L 53.609375 0 
L 7.328125 0 
L 7.328125 8.296875 
Q 12.9375 14.109375 22.625 23.890625 
Q 32.328125 33.6875 34.8125 36.53125 
Q 39.546875 41.84375 41.421875 45.53125 
Q 43.3125 49.21875 43.3125 52.78125 
Q 43.3125 58.59375 39.234375 62.25 
Q 35.15625 65.921875 28.609375 65.921875 
Q 23.96875 65.921875 18.8125 64.3125 
Q 13.671875 62.703125 7.8125 59.421875 
L 7.8125 69.390625 
Q 13.765625 71.78125 18.9375 73 
Q 24.125 74.21875 28.421875 74.21875 
Q 39.75 74.21875 46.484375 68.546875 
Q 53.21875 62.890625 53.21875 53.421875 
Q 53.21875 48.921875 51.53125 44.890625 
Q 49.859375 40.875 45.40625 35.40625 
Q 44.1875 33.984375 37.640625 27.21875 
Q 31.109375 20.453125 19.1875 8.296875 
z
" id="DejaVuSans-50"/>
     <path d="M 31.78125 66.40625 
Q 24.171875 66.40625 20.328125 58.90625 
Q 16.5 51.421875 16.5 36.375 
Q 16.5 21.390625 20.328125 13.890625 
Q 24.171875 6.390625 31.78125 6.390625 
Q 39.453125 6.390625 43.28125 13.890625 
Q 47.125 21.390625 47.125 36.375 
Q 47.125 51.421875 43.28125 58.90625 
Q 39.453125 66.40625 31.78125 66.40625 
z
M 31.78125 74.21875 
Q 44.046875 74.21875 50.515625 64.515625 
Q 56.984375 54.828125 56.984375 36.375 
Q 56.984375 17.96875 50.515625 8.265625 
Q 44.046875 -1.421875 31.78125 -1.421875 
Q 19.53125 -1.421875 13.0625 8.265625 
Q 6.59375 17.96875 6.59375 36.375 
Q 6.59375 54.828125 13.0625 64.515625 
Q 19.53125 74.21875 31.78125 74.21875 
z
" id="DejaVuSans-48"/>
     <path d="M 6.25 59.28125 
Q 6.25 64.890625 10.21875 68.84375 
Q 14.203125 72.796875 19.78125 72.796875 
Q 25.4375 72.796875 29.390625 68.84375 
Q 33.34375 64.890625 33.34375 59.28125 
Q 33.34375 53.65625 29.359375 49.671875 
Q 25.390625 45.703125 19.78125 45.703125 
Q 14.203125 45.703125 10.21875 49.65625 
Q 6.25 53.609375 6.25 59.28125 
z
M 11.578125 59.28125 
Q 11.578125 55.859375 13.984375 53.4375 
Q 16.40625 51.03125 19.828125 51.03125 
Q 23.1875 51.03125 25.609375 53.4375 
Q 28.03125 55.859375 28.03125 59.28125 
Q 28.03125 62.703125 25.609375 65.109375 
Q 23.1875 67.53125 19.828125 67.53125 
Q 16.40625 67.53125 13.984375 65.109375 
Q 11.578125 62.703125 11.578125 59.28125 
z
" id="ArialMT-176"/>
    </defs>
    <g style="fill:#cccccc;" transform="translate(37.362162 14.545946)scale(0.1 -0.1)">
     <use transform="translate(0 0.78125)" xlink:href="#DejaVuSans-49"/>
     <use transform="translate(63.623047 0.78125)" xlink:href="#DejaVuSans-50"/>
     <use transform="translate(127.246094 0.78125)" xlink:href="#DejaVuSans-48"/>
     <use transform="translate(190.869141 0.78125)" xlink:href="#ArialMT-176"/>
    </g>
   </g>
  </g>
 </g>
 <defs>
  <clipPath id="p140b982963">
   <rect height="135.9" width="139.5" x="7.2" y="7.2"/>
  </clipPath>
 </defs>
</svg>
