<?xml version="1.0" encoding="utf-8" standalone="no"?>
<!DOCTYPE svg PUBLIC "-//W3C//DTD SVG 1.1//EN"
  "http://www.w3.org/Graphics/SVG/1.1/DTD/svg11.dtd">
<!-- Created with matplotlib (https://matplotlib.org/) -->
<svg height="150.3pt" version="1.1" viewBox="0 0 153.9 150.3" width="153.9pt" xmlns="http://www.w3.org/2000/svg" xmlns:xlink="http://www.w3.org/1999/xlink">
 <defs>
  <style type="text/css">
*{stroke-linecap:butt;stroke-linejoin:round;}
  </style>
 </defs>
 <g id="figure_1">
  <g id="patch_1">
   <path d="M 0 150.3 
L 153.9 150.3 
L 153.9 0 
L 0 0 
z
" style="fill:none;"/>
  </g>
  <g id="patch_2">
   <path d="M 7.2 143.1 
L 146.7 143.1 
L 146.7 7.2 
L 7.2 7.2 
z
" style="fill:none;"/>
  </g>
  <g id="axes_1">
   <g id="Poly3DCollection_1">
    <path clip-path="url(#pe5c9473f92)" d="M 99.453783 79.512462 
L 100.977314 82.827153 
L 100.920181 85.061495 
L 99.342609 84.199425 
z
" style="fill:#821580;fill-opacity:0.15;stroke:#ffffff;stroke-width:0.2;"/>
    <path clip-path="url(#pe5c9473f92)" d="M 100.977314 82.827153 
L 102.431735 85.387809 
L 102.415356 85.987081 
L 100.920181 85.061495 
z
" style="fill:#821580;fill-opacity:0.15;stroke:#ffffff;stroke-width:0.2;"/>
    <path clip-path="url(#pe5c9473f92)" d="M 97.858089 75.635678 
L 99.453783 79.512462 
L 99.342609 84.199425 
L 97.688845 83.403818 
z
" style="fill:#821580;fill-opacity:0.15;stroke:#ffffff;stroke-width:0.2;"/>
    <path clip-path="url(#pe5c9473f92)" d="M 96.189066 71.364249 
L 97.858089 75.635678 
L 97.688845 83.403818 
L 95.965307 82.677367 
z
" style="fill:#821580;fill-opacity:0.15;stroke:#ffffff;stroke-width:0.2;"/>
    <path clip-path="url(#pe5c9473f92)" d="M 102.431735 85.387809 
L 103.822158 86.97299 
L 103.822158 86.97299 
L 102.415356 85.987081 
z
" style="fill:#821580;fill-opacity:0.15;stroke:#ffffff;stroke-width:0.2;"/>
    <path clip-path="url(#pe5c9473f92)" d="M 94.447282 66.844779 
L 96.189066 71.364249 
L 95.965307 82.677367 
L 94.1786 82.022517 
z
" style="fill:#821580;fill-opacity:0.15;stroke:#ffffff;stroke-width:0.2;"/>
    <path clip-path="url(#pe5c9473f92)" d="M 103.822158 86.97299 
L 105.134866 88.015788 
L 105.134866 88.015788 
L 103.822158 86.97299 
z
" style="fill:#821580;fill-opacity:0.15;stroke:#ffffff;stroke-width:0.2;"/>
    <path clip-path="url(#pe5c9473f92)" d="M 92.634909 62.205689 
L 94.447282 66.844779 
L 94.1786 82.022517 
L 92.335495 81.441451 
z
" style="fill:#821580;fill-opacity:0.15;stroke:#ffffff;stroke-width:0.2;"/>
    <path clip-path="url(#pe5c9473f92)" d="M 105.134866 88.015788 
L 106.348035 89.111804 
L 106.348035 89.111804 
L 105.134866 88.015788 
z
" style="fill:#821580;fill-opacity:0.15;stroke:#ffffff;stroke-width:0.2;"/>
    <path clip-path="url(#pe5c9473f92)" d="M 90.755589 57.559198 
L 92.634909 62.205689 
L 92.335495 81.441451 
L 90.44291 80.936095 
z
" style="fill:#821580;fill-opacity:0.15;stroke:#ffffff;stroke-width:0.2;"/>
    <path clip-path="url(#pe5c9473f92)" d="M 106.348035 89.111804 
L 107.456524 90.257138 
L 107.456524 90.257139 
L 106.348035 89.111804 
z
" style="fill:#821580;fill-opacity:0.15;stroke:#ffffff;stroke-width:0.2;"/>
    <path clip-path="url(#pe5c9473f92)" d="M 88.814308 53.002809 
L 90.755589 57.559198 
L 90.44291 80.936095 
L 88.507889 80.508116 
z
" style="fill:#821580;fill-opacity:0.15;stroke:#ffffff;stroke-width:0.2;"/>
    <path clip-path="url(#pe5c9473f92)" d="M 107.456524 90.257138 
L 108.455515 91.447669 
L 108.455515 91.44767 
L 107.456524 90.257139 
z
" style="fill:#821580;fill-opacity:0.15;stroke:#ffffff;stroke-width:0.2;"/>
    <path clip-path="url(#pe5c9473f92)" d="M 86.817253 48.620477 
L 88.814308 53.002809 
L 88.507889 80.508116 
L 86.537584 80.158916 
z
" style="fill:#821580;fill-opacity:0.15;stroke:#ffffff;stroke-width:0.2;"/>
    <path clip-path="url(#pe5c9473f92)" d="M 84.771671 44.483552 
L 86.817253 48.620477 
L 86.537584 80.158916 
L 84.539234 79.889636 
z
" style="fill:#821580;fill-opacity:0.15;stroke:#ffffff;stroke-width:0.2;"/>
    <path clip-path="url(#pe5c9473f92)" d="M 108.455515 91.447669 
L 109.340538 92.679059 
L 109.340538 92.679063 
L 108.455515 91.44767 
z
" style="fill:#821580;fill-opacity:0.15;stroke:#ffffff;stroke-width:0.2;"/>
    <path clip-path="url(#pe5c9473f92)" d="M 82.685725 40.651595 
L 84.771671 44.483552 
L 84.539234 79.889636 
L 82.520148 79.701153 
z
" style="fill:#821580;fill-opacity:0.15;stroke:#ffffff;stroke-width:0.2;"/>
    <path clip-path="url(#pe5c9473f92)" d="M 109.340538 92.679059 
L 110.107498 93.946764 
L 110.107497 93.946781 
L 109.340538 92.679063 
z
" style="fill:#821580;fill-opacity:0.15;stroke:#ffffff;stroke-width:0.2;"/>
    <path clip-path="url(#pe5c9473f92)" d="M 80.568338 37.173127 
L 82.685725 40.651595 
L 82.520148 79.701153 
L 80.487684 79.594079 
z
" style="fill:#821580;fill-opacity:0.15;stroke:#ffffff;stroke-width:0.2;"/>
    <path clip-path="url(#pe5c9473f92)" d="M 110.107498 93.946764 
L 110.752694 95.246046 
L 110.752693 95.246094 
L 110.107497 93.946781 
z
" style="fill:#821580;fill-opacity:0.15;stroke:#ffffff;stroke-width:0.2;"/>
    <path clip-path="url(#pe5c9473f92)" d="M 78.429041 34.086344 
L 80.568338 37.173127 
L 80.487684 79.594079 
L 78.449234 79.568761 
z
" style="fill:#821580;fill-opacity:0.15;stroke:#ffffff;stroke-width:0.2;"/>
    <path clip-path="url(#pe5c9473f92)" d="M 110.752694 95.246046 
L 111.27285 96.571973 
L 111.272846 96.572093 
L 110.752693 95.246094 
z
" style="fill:#821580;fill-opacity:0.15;stroke:#ffffff;stroke-width:0.2;"/>
    <path clip-path="url(#pe5c9473f92)" d="M 76.277821 31.419829 
L 78.429041 34.086344 
L 78.449234 79.568761 
L 76.412204 79.62528 
z
" style="fill:#821580;fill-opacity:0.15;stroke:#ffffff;stroke-width:0.2;"/>
    <path clip-path="url(#pe5c9473f92)" d="M 111.27285 96.571973 
L 111.665131 97.919437 
L 111.665121 97.919706 
L 111.272846 96.572093 
z
" style="fill:#821580;fill-opacity:0.15;stroke:#ffffff;stroke-width:0.2;"/>
    <path clip-path="url(#pe5c9473f92)" d="M 74.124972 29.193284 
L 76.277821 31.419829 
L 76.412204 79.62528 
L 74.383998 79.763454 
z
" style="fill:#821580;fill-opacity:0.15;stroke:#ffffff;stroke-width:0.2;"/>
    <path clip-path="url(#pe5c9473f92)" d="M 71.980953 27.418273 
L 74.124972 29.193284 
L 74.383998 79.763454 
L 72.371995 79.982835 
z
" style="fill:#821580;fill-opacity:0.15;stroke:#ffffff;stroke-width:0.2;"/>
    <path clip-path="url(#pe5c9473f92)" d="M 111.665131 97.919437 
L 111.927171 99.283161 
L 111.927149 99.28371 
L 111.665121 97.919706 
z
" style="fill:#821580;fill-opacity:0.15;stroke:#ffffff;stroke-width:0.2;"/>
    <path clip-path="url(#pe5c9473f92)" d="M 69.856255 26.098995 
L 71.980953 27.418273 
L 72.371995 79.982835 
L 70.383539 80.282709 
z
" style="fill:#821580;fill-opacity:0.15;stroke:#ffffff;stroke-width:0.2;"/>
    <path clip-path="url(#pe5c9473f92)" d="M 111.927171 99.283161 
L 112.057092 100.657703 
L 112.057051 100.65875 
L 111.927149 99.28371 
z
" style="fill:#821580;fill-opacity:0.15;stroke:#ffffff;stroke-width:0.2;"/>
    <path clip-path="url(#pe5c9473f92)" d="M 67.761279 25.233057 
L 69.856255 26.098995 
L 70.383539 80.282709 
L 68.425912 80.662099 
z
" style="fill:#821580;fill-opacity:0.15;stroke:#ffffff;stroke-width:0.2;"/>
    <path clip-path="url(#pe5c9473f92)" d="M 65.706225 24.812262 
L 67.761279 25.233057 
L 68.425912 80.662099 
L 66.506323 81.119765 
z
" style="fill:#821580;fill-opacity:0.15;stroke:#ffffff;stroke-width:0.2;"/>
    <path clip-path="url(#pe5c9473f92)" d="M 112.057092 100.657703 
L 112.053526 102.037477 
L 112.053452 102.03936 
L 112.057051 100.65875 
z
" style="fill:#821580;fill-opacity:0.15;stroke:#ffffff;stroke-width:0.2;"/>
    <path clip-path="url(#pe5c9473f92)" d="M 63.701002 24.823387 
L 65.706225 24.812262 
L 66.506323 81.119765 
L 64.631885 81.654203 
z
" style="fill:#821580;fill-opacity:0.15;stroke:#ffffff;stroke-width:0.2;"/>
    <path clip-path="url(#pe5c9473f92)" d="M 61.755139 25.248939 
L 63.701002 24.823387 
L 64.631885 81.654203 
L 62.809595 82.263648 
z
" style="fill:#821580;fill-opacity:0.15;stroke:#ffffff;stroke-width:0.2;"/>
    <path clip-path="url(#pe5c9473f92)" d="M 112.053526 102.037477 
L 111.915635 103.416752 
L 111.915509 103.419976 
L 112.053452 102.03936 
z
" style="fill:#821580;fill-opacity:0.15;stroke:#ffffff;stroke-width:0.2;"/>
    <path clip-path="url(#pe5c9473f92)" d="M 59.877724 26.067897 
L 61.755139 25.248939 
L 62.809595 82.263648 
L 61.046317 82.946074 
z
" style="fill:#821580;fill-opacity:0.15;stroke:#ffffff;stroke-width:0.2;"/>
    <path clip-path="url(#pe5c9473f92)" d="M 58.077345 27.256396 
L 59.877724 26.067897 
L 61.046317 82.946074 
L 59.348762 83.699198 
z
" style="fill:#821580;fill-opacity:0.15;stroke:#ffffff;stroke-width:0.2;"/>
    <path clip-path="url(#pe5c9473f92)" d="M 111.915635 103.416752 
L 111.643126 104.789674 
L 111.64292 104.794967 
L 111.915509 103.419976 
z
" style="fill:#821580;fill-opacity:0.15;stroke:#ffffff;stroke-width:0.2;"/>
    <path clip-path="url(#pe5c9473f92)" d="M 56.362054 28.788386 
L 58.077345 27.256396 
L 59.348762 83.699198 
L 57.723465 84.520483 
z
" style="fill:#821580;fill-opacity:0.15;stroke:#ffffff;stroke-width:0.2;"/>
    <path clip-path="url(#pe5c9473f92)" d="M 54.739337 30.636222 
L 56.362054 28.788386 
L 57.723465 84.520483 
L 56.176763 85.407135 
z
" style="fill:#821580;fill-opacity:0.15;stroke:#ffffff;stroke-width:0.2;"/>
    <path clip-path="url(#pe5c9473f92)" d="M 111.643126 104.789674 
L 111.236268 106.150268 
L 111.235946 106.15865 
L 111.64292 104.794967 
z
" style="fill:#821580;fill-opacity:0.15;stroke:#ffffff;stroke-width:0.2;"/>
    <path clip-path="url(#pe5c9473f92)" d="M 53.216093 32.77121 
L 54.739337 30.636222 
L 56.176763 85.407135 
L 54.714779 86.356114 
z
" style="fill:#821580;fill-opacity:0.15;stroke:#ffffff;stroke-width:0.2;"/>
    <path clip-path="url(#pe5c9473f92)" d="M 51.798625 35.164086 
L 53.216093 32.77121 
L 54.714779 86.356114 
L 53.343392 87.364135 
z
" style="fill:#821580;fill-opacity:0.15;stroke:#ffffff;stroke-width:0.2;"/>
    <path clip-path="url(#pe5c9473f92)" d="M 50.492641 37.785444 
L 51.798625 35.164086 
L 53.343392 87.364135 
L 52.06822 88.427673 
z
" style="fill:#821580;fill-opacity:0.15;stroke:#ffffff;stroke-width:0.2;"/>
    <path clip-path="url(#pe5c9473f92)" d="M 111.236268 106.150268 
L 110.695905 107.492457 
L 110.695418 107.505322 
L 111.235946 106.15865 
z
" style="fill:#821580;fill-opacity:0.15;stroke:#ffffff;stroke-width:0.2;"/>
    <path clip-path="url(#pe5c9473f92)" d="M 49.303252 40.606095 
L 50.492641 37.785444 
L 52.06822 88.427673 
L 50.894594 89.542969 
z
" style="fill:#821580;fill-opacity:0.15;stroke:#ffffff;stroke-width:0.2;"/>
    <path clip-path="url(#pe5c9473f92)" d="M 48.234983 43.597379 
L 49.303252 40.606095 
L 50.894594 89.542969 
L 49.827534 90.706037 
z
" style="fill:#821580;fill-opacity:0.15;stroke:#ffffff;stroke-width:0.2;"/>
    <path clip-path="url(#pe5c9473f92)" d="M 110.695905 107.492457 
L 110.023465 108.810074 
L 110.022752 108.829277 
L 110.695418 107.505322 
z
" style="fill:#821580;fill-opacity:0.15;stroke:#ffffff;stroke-width:0.2;"/>
    <path clip-path="url(#pe5c9473f92)" d="M 47.291785 46.73142 
L 48.234983 43.597379 
L 49.827534 90.706037 
L 48.871727 91.912673 
z
" style="fill:#821580;fill-opacity:0.15;stroke:#ffffff;stroke-width:0.2;"/>
    <path clip-path="url(#pe5c9473f92)" d="M 46.477044 49.981332 
L 47.291785 46.73142 
L 48.871727 91.912673 
L 48.031504 93.158464 
z
" style="fill:#821580;fill-opacity:0.15;stroke:#ffffff;stroke-width:0.2;"/>
    <path clip-path="url(#pe5c9473f92)" d="M 110.023465 108.810074 
L 109.220966 110.096872 
L 109.219953 110.12484 
L 110.022752 108.829277 
z
" style="fill:#821580;fill-opacity:0.15;stroke:#ffffff;stroke-width:0.2;"/>
    <path clip-path="url(#pe5c9473f92)" d="M 45.793599 53.321379 
L 46.477044 49.981332 
L 48.031504 93.158464 
L 47.310809 94.438798 
z
" style="fill:#821580;fill-opacity:0.15;stroke:#ffffff;stroke-width:0.2;"/>
    <path clip-path="url(#pe5c9473f92)" d="M 45.243753 56.7271 
L 45.793599 53.321379 
L 47.310809 94.438798 
L 46.713185 95.748876 
z
" style="fill:#821580;fill-opacity:0.15;stroke:#ffffff;stroke-width:0.2;"/>
    <path clip-path="url(#pe5c9473f92)" d="M 44.829288 60.175392 
L 45.243753 56.7271 
L 46.713185 95.748876 
L 46.241744 97.083724 
z
" style="fill:#821580;fill-opacity:0.15;stroke:#ffffff;stroke-width:0.2;"/>
    <path clip-path="url(#pe5c9473f92)" d="M 109.220966 110.096872 
L 108.291023 111.346544 
L 108.289621 111.386394 
L 109.219953 110.12484 
z
" style="fill:#821580;fill-opacity:0.15;stroke:#ffffff;stroke-width:0.2;"/>
    <path clip-path="url(#pe5c9473f92)" d="M 44.551476 63.644568 
L 44.829288 60.175392 
L 46.241744 97.083724 
L 45.899143 98.438211 
z
" style="fill:#821580;fill-opacity:0.15;stroke:#ffffff;stroke-width:0.2;"/>
    <path clip-path="url(#pe5c9473f92)" d="M 44.411088 67.114382 
L 44.551476 63.644568 
L 45.899143 98.438211 
L 45.687567 99.807062 
z
" style="fill:#821580;fill-opacity:0.15;stroke:#ffffff;stroke-width:0.2;"/>
    <path clip-path="url(#pe5c9473f92)" d="M 108.291023 111.346544 
L 107.236843 112.552735 
L 107.234953 112.608405 
L 108.289621 111.386394 
z
" style="fill:#821580;fill-opacity:0.15;stroke:#ffffff;stroke-width:0.2;"/>
    <path clip-path="url(#pe5c9473f92)" d="M 44.408407 70.566045 
L 44.411088 67.114382 
L 45.687567 99.807062 
L 45.608705 101.184877 
z
" style="fill:#821580;fill-opacity:0.15;stroke:#ffffff;stroke-width:0.2;"/>
    <path clip-path="url(#pe5c9473f92)" d="M 44.543231 73.982205 
L 44.408407 70.566045 
L 45.608705 101.184877 
L 45.663729 102.566149 
z
" style="fill:#821580;fill-opacity:0.15;stroke:#ffffff;stroke-width:0.2;"/>
    <path clip-path="url(#pe5c9473f92)" d="M 107.236843 112.552735 
L 106.062226 113.709061 
L 106.059736 113.785455 
L 107.234953 112.608405 
z
" style="fill:#821580;fill-opacity:0.15;stroke:#ffffff;stroke-width:0.2;"/>
    <path clip-path="url(#pe5c9473f92)" d="M 44.81488 77.346933 
L 44.543231 73.982205 
L 45.663729 102.566149 
L 45.853277 103.945288 
z
" style="fill:#821580;fill-opacity:0.15;stroke:#ffffff;stroke-width:0.2;"/>
    <path clip-path="url(#pe5c9473f92)" d="M 106.062226 113.709061 
L 104.771552 114.809125 
L 104.768344 114.91227 
L 106.059736 113.785455 
z
" style="fill:#821580;fill-opacity:0.15;stroke:#ffffff;stroke-width:0.2;"/>
    <path clip-path="url(#pe5c9473f92)" d="M 45.222201 80.64568 
L 44.81488 77.346933 
L 45.853277 103.945288 
L 46.177437 105.316639 
z
" style="fill:#821580;fill-opacity:0.15;stroke:#ffffff;stroke-width:0.2;"/>
    <path clip-path="url(#pe5c9473f92)" d="M 45.763566 83.865234 
L 45.222201 80.64568 
L 46.177437 105.316639 
L 46.635731 106.674508 
z
" style="fill:#821580;fill-opacity:0.15;stroke:#ffffff;stroke-width:0.2;"/>
    <path clip-path="url(#pe5c9473f92)" d="M 104.771552 114.809125 
L 103.369769 115.846538 
L 103.365728 115.983751 
L 104.768344 114.91227 
z
" style="fill:#821580;fill-opacity:0.15;stroke:#ffffff;stroke-width:0.2;"/>
    <path clip-path="url(#pe5c9473f92)" d="M 46.43688 86.993675 
L 45.763566 83.865234 
L 46.635731 106.674508 
L 47.227104 108.013189 
z
" style="fill:#821580;fill-opacity:0.15;stroke:#ffffff;stroke-width:0.2;"/>
    <path clip-path="url(#pe5c9473f92)" d="M 47.239574 90.020317 
L 46.43688 86.993675 
L 47.227104 108.013189 
L 47.949916 109.326984 
z
" style="fill:#821580;fill-opacity:0.15;stroke:#ffffff;stroke-width:0.2;"/>
    <path clip-path="url(#pe5c9473f92)" d="M 103.369769 115.846538 
L 101.86238 116.814936 
L 101.857396 116.995004 
L 103.365728 115.983751 
z
" style="fill:#821580;fill-opacity:0.15;stroke:#ffffff;stroke-width:0.2;"/>
    <path clip-path="url(#pe5c9473f92)" d="M 48.168611 92.935652 
L 47.239574 90.020317 
L 47.949916 109.326984 
L 48.801933 110.610237 
z
" style="fill:#821580;fill-opacity:0.15;stroke:#ffffff;stroke-width:0.2;"/>
    <path clip-path="url(#pe5c9473f92)" d="M 101.86238 116.814936 
L 100.255416 117.708003 
L 100.249401 117.941367 
L 101.857396 116.995004 
z
" style="fill:#821580;fill-opacity:0.15;stroke:#ffffff;stroke-width:0.2;"/>
    <path clip-path="url(#pe5c9473f92)" d="M 49.220484 95.731295 
L 48.168611 92.935652 
L 48.801933 110.610237 
L 49.780328 111.857358 
z
" style="fill:#821580;fill-opacity:0.15;stroke:#ffffff;stroke-width:0.2;"/>
    <path clip-path="url(#pe5c9473f92)" d="M 100.255416 117.708003 
L 98.555414 118.519491 
L 98.548314 118.818442 
L 100.249401 117.941367 
z
" style="fill:#821580;fill-opacity:0.15;stroke:#ffffff;stroke-width:0.2;"/>
    <path clip-path="url(#pe5c9473f92)" d="M 50.391217 98.399924 
L 49.220484 95.731295 
L 49.780328 111.857358 
L 50.881676 113.062856 
z
" style="fill:#821580;fill-opacity:0.15;stroke:#ffffff;stroke-width:0.2;"/>
    <path clip-path="url(#pe5c9473f92)" d="M 51.676368 100.935227 
L 50.391217 98.399924 
L 50.881676 113.062856 
L 52.101965 114.221362 
z
" style="fill:#821580;fill-opacity:0.15;stroke:#ffffff;stroke-width:0.2;"/>
    <path clip-path="url(#pe5c9473f92)" d="M 98.555414 118.519491 
L 96.769385 119.243244 
L 96.761194 119.622123 
L 98.548314 118.818442 
z
" style="fill:#821580;fill-opacity:0.15;stroke:#ffffff;stroke-width:0.2;"/>
    <path clip-path="url(#pe5c9473f92)" d="M 53.071033 103.331845 
L 51.676368 100.935227 
L 52.101965 114.221362 
L 53.436597 115.327668 
z
" style="fill:#821580;fill-opacity:0.15;stroke:#ffffff;stroke-width:0.2;"/>
    <path clip-path="url(#pe5c9473f92)" d="M 96.769385 119.243244 
L 94.904781 119.873218 
L 94.895564 120.348617 
L 96.761194 119.622123 
z
" style="fill:#821580;fill-opacity:0.15;stroke:#ffffff;stroke-width:0.2;"/>
    <path clip-path="url(#pe5c9473f92)" d="M 54.569851 105.585322 
L 53.071033 103.331845 
L 53.436597 115.327668 
L 54.880408 116.376746 
z
" style="fill:#821580;fill-opacity:0.15;stroke:#ffffff;stroke-width:0.2;"/>
    <path clip-path="url(#pe5c9473f92)" d="M 94.904781 119.873218 
L 92.969454 120.403512 
L 92.95937 120.994477 
L 94.895564 120.348617 
z
" style="fill:#821580;fill-opacity:0.15;stroke:#ffffff;stroke-width:0.2;"/>
    <path clip-path="url(#pe5c9473f92)" d="M 56.167011 107.692052 
L 54.569851 105.585322 
L 54.880408 116.376746 
L 56.427677 117.36379 
z
" style="fill:#821580;fill-opacity:0.15;stroke:#ffffff;stroke-width:0.2;"/>
    <path clip-path="url(#pe5c9473f92)" d="M 57.856267 109.649233 
L 56.167011 107.692052 
L 56.427677 117.36379 
L 58.072151 118.284235 
z
" style="fill:#821580;fill-opacity:0.15;stroke:#ffffff;stroke-width:0.2;"/>
    <path clip-path="url(#pe5c9473f92)" d="M 92.969454 120.403512 
L 90.971619 120.828384 
L 90.960944 121.556619 
L 92.95937 120.994477 
z
" style="fill:#821580;fill-opacity:0.15;stroke:#ffffff;stroke-width:0.2;"/>
    <path clip-path="url(#pe5c9473f92)" d="M 59.630947 111.454819 
L 57.856267 109.649233 
L 58.072151 118.284235 
L 59.807068 119.13379 
z
" style="fill:#821580;fill-opacity:0.15;stroke:#ffffff;stroke-width:0.2;"/>
    <path clip-path="url(#pe5c9473f92)" d="M 90.971619 120.828384 
L 88.919807 121.142284 
L 88.908962 122.032346 
L 90.960944 121.556619 
z
" style="fill:#821580;fill-opacity:0.15;stroke:#ffffff;stroke-width:0.2;"/>
    <path clip-path="url(#pe5c9473f92)" d="M 61.483974 113.107481 
L 59.630947 111.454819 
L 59.807068 119.13379 
L 61.625186 119.908465 
z
" style="fill:#821580;fill-opacity:0.15;stroke:#ffffff;stroke-width:0.2;"/>
    <path clip-path="url(#pe5c9473f92)" d="M 88.919807 121.142284 
L 86.822816 121.339875 
L 86.812395 122.419366 
L 88.908962 122.032346 
z
" style="fill:#821580;fill-opacity:0.15;stroke:#ffffff;stroke-width:0.2;"/>
    <path clip-path="url(#pe5c9473f92)" d="M 63.407888 114.606565 
L 61.483974 113.107481 
L 61.625186 119.908465 
L 63.518817 120.604598 
z
" style="fill:#821580;fill-opacity:0.15;stroke:#ffffff;stroke-width:0.2;"/>
    <path clip-path="url(#pe5c9473f92)" d="M 86.822816 121.339875 
L 84.689666 121.416061 
L 84.680469 122.715807 
L 86.812395 122.419366 
z
" style="fill:#821580;fill-opacity:0.15;stroke:#ffffff;stroke-width:0.2;"/>
    <path clip-path="url(#pe5c9473f92)" d="M 65.394865 115.952049 
L 63.407888 114.606565 
L 63.518817 120.604598 
L 65.479863 121.218876 
z
" style="fill:#821580;fill-opacity:0.15;stroke:#ffffff;stroke-width:0.2;"/>
    <path clip-path="url(#pe5c9473f92)" d="M 84.689666 121.416061 
L 82.529543 121.366013 
L 82.522604 122.920231 
L 84.680469 122.715807 
z
" style="fill:#821580;fill-opacity:0.15;stroke:#ffffff;stroke-width:0.2;"/>
    <path clip-path="url(#pe5c9473f92)" d="M 67.436753 117.144512 
L 65.394865 115.952049 
L 65.479863 121.218876 
L 67.499854 121.748361 
z
" style="fill:#821580;fill-opacity:0.15;stroke:#ffffff;stroke-width:0.2;"/>
    <path clip-path="url(#pe5c9473f92)" d="M 82.529543 121.366013 
L 80.351753 121.185199 
L 80.348369 123.031644 
L 82.522604 122.920231 
z
" style="fill:#821580;fill-opacity:0.15;stroke:#ffffff;stroke-width:0.2;"/>
    <path clip-path="url(#pe5c9473f92)" d="M 69.5251 118.185098 
L 67.436753 117.144512 
L 67.499854 121.748361 
L 69.569997 122.190508 
z
" style="fill:#821580;fill-opacity:0.15;stroke:#ffffff;stroke-width:0.2;"/>
    <path clip-path="url(#pe5c9473f92)" d="M 80.351753 121.185199 
L 78.165665 120.869407 
L 78.167428 123.049506 
L 80.348369 123.031644 
z
" style="fill:#821580;fill-opacity:0.15;stroke:#ffffff;stroke-width:0.2;"/>
    <path clip-path="url(#pe5c9473f92)" d="M 71.651189 119.075479 
L 69.5251 118.185098 
L 69.569997 122.190508 
L 71.681215 122.543184 
z
" style="fill:#821580;fill-opacity:0.15;stroke:#ffffff;stroke-width:0.2;"/>
    <path clip-path="url(#pe5c9473f92)" d="M 78.165665 120.869407 
L 75.98066 120.414777 
L 75.989478 122.973728 
L 78.167428 123.049506 
z
" style="fill:#821580;fill-opacity:0.15;stroke:#ffffff;stroke-width:0.2;"/>
    <path clip-path="url(#pe5c9473f92)" d="M 73.806083 119.817826 
L 71.651189 119.075479 
L 71.681215 122.543184 
L 73.824203 122.80468 
z
" style="fill:#821580;fill-opacity:0.15;stroke:#ffffff;stroke-width:0.2;"/>
    <path clip-path="url(#pe5c9473f92)" d="M 75.98066 120.414777 
L 73.806083 119.817826 
L 73.824203 122.80468 
L 75.989478 122.973728 
z
" style="fill:#821580;fill-opacity:0.15;stroke:#ffffff;stroke-width:0.2;"/>
   </g>
   <g id="line2d_1">
    <path clip-path="url(#pe5c9473f92)" d="M 103.822158 86.97299 
L 105.134866 88.015788 
L 106.348035 89.111804 
L 107.456524 90.257139 
L 108.455515 91.44767 
L 109.340538 92.679063 
L 110.107497 93.946781 
L 110.752693 95.246094 
L 111.272846 96.572093 
L 111.665121 97.919706 
L 111.927149 99.28371 
L 112.057051 100.65875 
L 112.053452 102.03936 
L 111.915509 103.419976 
L 111.64292 104.794967 
L 111.235946 106.15865 
L 110.695418 107.505322 
L 110.022752 108.829277 
L 109.219953 110.12484 
L 108.289621 111.386394 
L 107.234953 112.608405 
L 106.059736 113.785455 
L 104.768344 114.91227 
L 103.365728 115.983751 
L 101.857396 116.995004 
L 100.249401 117.941367 
L 98.548314 118.818442 
L 96.761194 119.622123 
L 94.895564 120.348617 
L 92.95937 120.994477 
L 90.960944 121.556619 
L 88.908962 122.032346 
L 86.812395 122.419366 
L 84.680469 122.715807 
L 82.522604 122.920231 
L 80.348369 123.031644 
L 78.167428 123.049506 
L 75.989478 122.973728 
L 73.824203 122.80468 
L 71.681215 122.543184 
L 69.569997 122.190508 
L 67.499854 121.748361 
L 65.479863 121.218876 
L 63.518817 120.604598 
L 61.625186 119.908465 
L 59.807068 119.13379 
L 58.072151 118.284235 
L 56.427677 117.36379 
L 54.880408 116.376746 
L 53.436597 115.327668 
L 52.101965 114.221362 
L 50.881676 113.062856 
L 49.780328 111.857358 
L 48.801933 110.610237 
L 47.949916 109.326984 
L 47.227104 108.013189 
L 46.635731 106.674508 
L 46.177437 105.316639 
L 45.853277 103.945288 
L 45.663729 102.566149 
L 45.608705 101.184877 
L 45.687567 99.807062 
L 45.899143 98.438211 
L 46.241744 97.083724 
L 46.713185 95.748876 
L 47.310809 94.438798 
L 48.031504 93.158464 
L 48.871727 91.912673 
L 49.827534 90.706037 
L 50.894594 89.542969 
L 52.06822 88.427673 
L 53.343392 87.364135 
L 54.714779 86.356114 
L 56.176763 85.407135 
L 57.723465 84.520483 
L 59.348762 83.699198 
L 61.046317 82.946074 
L 62.809595 82.263648 
L 64.631885 81.654203 
L 66.506323 81.119765 
L 68.425912 80.662099 
L 70.383539 80.282709 
L 72.371995 79.982835 
L 74.383998 79.763454 
L 76.412204 79.62528 
L 78.449234 79.568761 
L 80.487684 79.594079 
L 82.520148 79.701153 
L 84.539234 79.889636 
L 86.537584 80.158916 
L 88.507889 80.508116 
L 90.44291 80.936095 
L 92.335495 81.441451 
L 94.1786 82.022517 
L 95.965307 82.677367 
L 97.688845 83.403818 
L 99.342609 84.199425 
L 100.920181 85.061495 
L 102.415356 85.987081 
L 103.822158 86.97299 
" style="fill:none;stroke:#000000;stroke-dasharray:3.7,1.6;stroke-dashoffset:0;"/>
   </g>
   <g id="line2d_2">
    <path clip-path="url(#pe5c9473f92)" d="M 103.822158 86.97299 
L 105.134866 88.015788 
L 106.348035 89.111804 
L 107.456524 90.257138 
L 108.455515 91.447669 
L 109.340538 92.679059 
L 110.107498 93.946764 
L 110.752694 95.246046 
L 111.27285 96.571973 
L 111.665131 97.919437 
L 111.927171 99.283161 
L 112.057092 100.657703 
L 112.053526 102.037477 
L 111.915635 103.416752 
L 111.643126 104.789674 
L 111.236268 106.150268 
L 110.695905 107.492457 
L 110.023465 108.810074 
L 109.220966 110.096872 
L 108.291023 111.346544 
L 107.236843 112.552735 
L 106.062226 113.709061 
L 104.771552 114.809125 
L 103.369769 115.846538 
L 101.86238 116.814936 
L 100.255416 117.708003 
L 98.555414 118.519491 
L 96.769385 119.243244 
L 94.904781 119.873218 
L 92.969454 120.403512 
L 90.971619 120.828384 
L 88.919807 121.142284 
L 86.822816 121.339875 
L 84.689666 121.416061 
L 82.529543 121.366013 
L 80.351753 121.185199 
L 78.165665 120.869407 
L 75.98066 120.414777 
L 73.806083 119.817826 
L 71.651189 119.075479 
L 69.5251 118.185098 
L 67.436753 117.144512 
L 65.394865 115.952049 
L 63.407888 114.606565 
L 61.483974 113.107481 
L 59.630947 111.454819 
L 57.856267 109.649233 
L 56.167011 107.692052 
L 54.569851 105.585322 
L 53.071033 103.331845 
L 51.676368 100.935227 
L 50.391217 98.399924 
L 49.220484 95.731295 
L 48.168611 92.935652 
L 47.239574 90.020317 
L 46.43688 86.993675 
L 45.763566 83.865234 
L 45.222201 80.64568 
L 44.81488 77.346933 
L 44.543231 73.982205 
L 44.408407 70.566045 
L 44.411088 67.114382 
L 44.551476 63.644568 
L 44.829288 60.175392 
L 45.243753 56.7271 
L 45.793599 53.321379 
L 46.477044 49.981332 
L 47.291785 46.73142 
L 48.234983 43.597379 
L 49.303252 40.606095 
L 50.492641 37.785444 
L 51.798625 35.164086 
L 53.216093 32.77121 
L 54.739337 30.636222 
L 56.362054 28.788386 
L 58.077345 27.256396 
L 59.877724 26.067897 
L 61.755139 25.248939 
L 63.701002 24.823387 
L 65.706225 24.812262 
L 67.761279 25.233057 
L 69.856255 26.098995 
L 71.980953 27.418273 
L 74.124972 29.193284 
L 76.277821 31.419829 
L 78.429041 34.086344 
L 80.568338 37.173127 
L 82.685725 40.651595 
L 84.771671 44.483552 
L 86.817253 48.620477 
L 88.814308 53.002809 
L 90.755589 57.559198 
L 92.634909 62.205689 
L 94.447282 66.844779 
L 96.189066 71.364249 
L 97.858089 75.635678 
L 99.453783 79.512462 
L 100.977314 82.827153 
L 102.431735 85.387809 
L 103.822158 86.97299 
" style="fill:none;stroke:#821580;stroke-linecap:round;stroke-width:1.5;"/>
   </g>
   <g id="text_1">
    <!-- $240$° -->
    <defs>
     <path d="M 19.1875 8.296875 
L 53.609375 8.296875 
L 53.609375 0 
L 7.328125 0 
L 7.328125 8.296875 
Q 12.9375 14.109375 22.625 23.890625 
Q 32.328125 33.6875 34.8125 36.53125 
Q 39.546875 41.84375 41.421875 45.53125 
Q 43.3125 49.21875 43.3125 52.78125 
Q 43.3125 58.59375 39.234375 62.25 
Q 35.15625 65.921875 28.609375 65.921875 
Q 23.96875 65.921875 18.8125 64.3125 
Q 13.671875 62.703125 7.8125 59.421875 
L 7.8125 69.390625 
Q 13.765625 71.78125 18.9375 73 
Q 24.125 74.21875 28.421875 74.21875 
Q 39.75 74.21875 46.484375 68.546875 
Q 53.21875 62.890625 53.21875 53.421875 
Q 53.21875 48.921875 51.53125 44.890625 
Q 49.859375 40.875 45.40625 35.40625 
Q 44.1875 33.984375 37.640625 27.21875 
Q 31.109375 20.453125 19.1875 8.296875 
z
" id="DejaVuSans-50"/>
     <path d="M 37.796875 64.3125 
L 12.890625 25.390625 
L 37.796875 25.390625 
z
M 35.203125 72.90625 
L 47.609375 72.90625 
L 47.609375 25.390625 
L 58.015625 25.390625 
L 58.015625 17.1875 
L 47.609375 17.1875 
L 47.609375 0 
L 37.796875 0 
L 37.796875 17.1875 
L 4.890625 17.1875 
L 4.890625 26.703125 
z
" id="DejaVuSans-52"/>
     <path d="M 31.78125 66.40625 
Q 24.171875 66.40625 20.328125 58.90625 
Q 16.5 51.421875 16.5 36.375 
Q 16.5 21.390625 20.328125 13.890625 
Q 24.171875 6.390625 31.78125 6.390625 
Q 39.453125 6.390625 43.28125 13.890625 
Q 47.125 21.390625 47.125 36.375 
Q 47.125 51.421875 43.28125 58.90625 
Q 39.453125 66.40625 31.78125 66.40625 
z
M 31.78125 74.21875 
Q 44.046875 74.21875 50.515625 64.515625 
Q 56.984375 54.828125 56.984375 36.375 
Q 56.984375 17.96875 50.515625 8.265625 
Q 44.046875 -1.421875 31.78125 -1.421875 
Q 19.53125 -1.421875 13.0625 8.265625 
Q 6.59375 17.96875 6.59375 36.375 
Q 6.59375 54.828125 13.0625 64.515625 
Q 19.53125 74.21875 31.78125 74.21875 
z
" id="DejaVuSans-48"/>
     <path d="M 6.25 59.28125 
Q 6.25 64.890625 10.21875 68.84375 
Q 14.203125 72.796875 19.78125 72.796875 
Q 25.4375 72.796875 29.390625 68.84375 
Q 33.34375 64.890625 33.34375 59.28125 
Q 33.34375 53.65625 29.359375 49.671875 
Q 25.390625 45.703125 19.78125 45.703125 
Q 14.203125 45.703125 10.21875 49.65625 
Q 6.25 53.609375 6.25 59.28125 
z
M 11.578125 59.28125 
Q 11.578125 55.859375 13.984375 53.4375 
Q 16.40625 51.03125 19.828125 51.03125 
Q 23.1875 51.03125 25.609375 53.4375 
Q 28.03125 55.859375 28.03125 59.28125 
Q 28.03125 62.703125 25.609375 65.109375 
Q 23.1875 67.53125 19.828125 67.53125 
Q 16.40625 67.53125 13.984375 65.109375 
Q 11.578125 62.703125 11.578125 59.28125 
z
" id="ArialMT-176"/>
    </defs>
    <g style="fill:#cccccc;" transform="translate(37.362162 14.545946)scale(0.1 -0.1)">
     <use transform="translate(0 0.78125)" xlink:href="#DejaVuSans-50"/>
     <use transform="translate(63.623047 0.78125)" xlink:href="#DejaVuSans-52"/>
     <use transform="translate(127.246094 0.78125)" xlink:href="#DejaVuSans-48"/>
     <use transform="translate(190.869141 0.78125)" xlink:href="#ArialMT-176"/>
    </g>
   </g>
  </g>
 </g>
 <defs>
  <clipPath id="pe5c9473f92">
   <rect height="135.9" width="139.5" x="7.2" y="7.2"/>
  </clipPath>
 </defs>
</svg>
