<?xml version="1.0" encoding="UTF-8" standalone="no"?>
<!DOCTYPE svg PUBLIC "-//W3C//DTD SVG 1.1//EN" "http://www.w3.org/Graphics/SVG/1.1/DTD/svg11.dtd">
<svg xmlns:dc="http://purl.org/dc/elements/1.1/" xmlns:xl="http://www.w3.org/1999/xlink" version="1.1" xmlns="http://www.w3.org/2000/svg" viewBox="67.0315 117.1378 864.9436 163.60826" width="864.9436" height="163.60826">
  <defs/>
  <metadata> Produced by OmniGraffle 7.8.2 
    <dc:date>2019-09-15 12:57:40 +0000</dc:date>
  </metadata>
  <g id="Canvas_1" fill-opacity="1" stroke-dasharray="none" stroke="none" stroke-opacity="1" fill="none">
    <title>Canvas 1</title>
    <g id="Canvas_1: Layer 1">
      <title>Layer 1</title>
      <g id="Graphic_1578">
        <path d="M 911.2907 145.41732 C 909.1077 142.98092 895.4191 130.75837 889.3029 127.84252 C 883.1868 124.92666 893.7642 146.25962 899.7911 153.07087 C 905.8181 159.88211 929.5572 179.01745 925.8699 170.07874 C 922.1825 161.14002 913.4737 147.85371 911.2907 145.41732 Z" stroke="black" stroke-linecap="round" stroke-linejoin="round" stroke-dasharray="2.0,2.0" stroke-width="1"/>
      </g>
      <g id="Graphic_1557">
        <path d="M 458.3651 146.02558 C 456.18215 143.58918 451.7254 138.16978 445.6092 135.25392 C 439.49306 132.33807 445.8185 143.18284 451.84544 149.99408 C 457.8724 156.80533 469.97926 166.5908 466.86906 159.34841 C 463.75887 152.10602 460.5481 148.46197 458.3651 146.02558 Z" stroke="black" stroke-linecap="round" stroke-linejoin="round" stroke-dasharray="2.0,2.0" stroke-width="1"/>
      </g>
      <g id="Group_1540">
        <g id="Graphic_1546">
          <circle cx="397.06593" cy="199.24606" r="81.0001294300536" fill="white" fill-opacity=".75"/>
          <circle cx="397.06593" cy="199.24606" r="81.0001294300536" stroke="#b4b4b4" stroke-linecap="round" stroke-linejoin="round" stroke-width="1"/>
        </g>
        <g id="Group_1541">
          <g id="Graphic_1545">
            <path d="M 454.3415 182.47026 C 485.9741 192.20332 485.9741 207.9837 454.3415 217.71677 C 422.70907 227.44988 371.4228 227.44988 339.79034 217.71677 C 308.15773 207.9837 308.15773 192.20332 339.79034 182.47026 C 371.4228 172.73715 422.70907 172.73715 454.3415 182.47026" stroke="#b4b4b4" stroke-linecap="round" stroke-linejoin="round" stroke-dasharray="4.0,4.0" stroke-width="1"/>
          </g>
          <g id="Line_1544">
            <path d="M 397.06593 118.24606 L 397.06593 280.24606 L 397.06593 280.24606" stroke="#b4b4b4" stroke-linecap="round" stroke-linejoin="round" stroke-dasharray="4.0,4.0" stroke-width="1"/>
          </g>
          <g id="Line_1543">
            <line x1="316.06593" y1="199.24606" x2="478.0659" y2="199.24606" stroke="#b4b4b4" stroke-linecap="round" stroke-linejoin="round" stroke-dasharray="4.0,4.0" stroke-width="1"/>
          </g>
          <g id="Line_1542">
            <path d="M 343.06593 217.24606 L 371.19944 207.87808 L 451.0659 181.24606" stroke="#b4b4b4" stroke-linecap="round" stroke-linejoin="round" stroke-dasharray="4.0,4.0" stroke-width="1"/>
          </g>
        </g>
      </g>
      <g id="Group_1391">
        <g id="Graphic_1397">
          <circle cx="170.29134" cy="198.6378" r="81.0001294300536" fill="white" fill-opacity=".75"/>
          <circle cx="170.29134" cy="198.6378" r="81.0001294300536" stroke="#b4b4b4" stroke-linecap="round" stroke-linejoin="round" stroke-width="1"/>
        </g>
        <g id="Group_1392">
          <g id="Graphic_1396">
            <path d="M 227.56692 181.862 C 259.19953 191.59506 259.19953 207.37545 227.56692 217.1085 C 195.93448 226.84162 144.6482 226.84162 113.01575 217.1085 C 81.38315 207.37545 81.38315 191.59506 113.01575 181.862 C 144.6482 172.12889 195.93448 172.12889 227.56692 181.862" stroke="#b4b4b4" stroke-linecap="round" stroke-linejoin="round" stroke-dasharray="4.0,4.0" stroke-width="1"/>
          </g>
          <g id="Line_1395">
            <path d="M 170.29134 117.6378 L 170.29134 279.6378 L 170.29134 279.6378" stroke="#b4b4b4" stroke-linecap="round" stroke-linejoin="round" stroke-dasharray="4.0,4.0" stroke-width="1"/>
          </g>
          <g id="Line_1394">
            <line x1="89.29134" y1="198.6378" x2="251.29134" y2="198.6378" stroke="#b4b4b4" stroke-linecap="round" stroke-linejoin="round" stroke-dasharray="4.0,4.0" stroke-width="1"/>
          </g>
          <g id="Line_1393">
            <path d="M 116.29134 216.6378 L 144.42485 207.26982 L 224.29134 180.6378" stroke="#b4b4b4" stroke-linecap="round" stroke-linejoin="round" stroke-dasharray="4.0,4.0" stroke-width="1"/>
          </g>
        </g>
      </g>
      <g id="Graphic_1505">
        <circle cx="247.32284" cy="265.74804" r="3.54331272782083" fill="#a87bd9" fill-opacity=".33"/>
        <circle cx="247.32284" cy="265.74804" r="3.54331272782083" stroke="#41147a" stroke-linecap="round" stroke-linejoin="round" stroke-width="2"/>
      </g>
      <g id="Line_1506">
        <line x1="243.828" y1="262.84452" x2="220.9679" y2="243.85233" stroke="#797979" stroke-linecap="round" stroke-linejoin="round" stroke-dasharray="1.0,3.0" stroke-width="1"/>
      </g>
      <g id="Graphic_1538">
        <circle cx="247.32284" cy="133.93701" r="3.54331272782083" fill="#a87bd9" fill-opacity=".33"/>
        <circle cx="247.32284" cy="133.93701" r="3.54331272782083" stroke="#41147a" stroke-linecap="round" stroke-linejoin="round" stroke-width="2"/>
      </g>
      <g id="Graphic_1539">
        <circle cx="71.5748" cy="163.7008" r="3.54331272782083" fill="#a87bd9" fill-opacity=".33"/>
        <circle cx="71.5748" cy="163.7008" r="3.54331272782083" stroke="#41147a" stroke-linecap="round" stroke-linejoin="round" stroke-width="2"/>
      </g>
      <g id="Graphic_1554">
        <path d="M 296.50393 164.6929 C 296.52352 166.12889 319.90132 171.59836 317.76377 181.98425 C 315.62622 192.37013 323.52545 181.64215 325.70078 175.1811 C 327.8761 168.72004 328.3123 155.28391 323.71946 163.88384 C 319.1266 172.48378 296.48434 163.25693 296.50393 164.6929 Z" fill="#a87bd9" fill-opacity=".33"/>
        <path d="M 296.50393 164.6929 C 296.52352 166.12889 319.90132 171.59836 317.76377 181.98425 C 315.62622 192.37013 323.52545 181.64215 325.70078 175.1811 C 327.8761 168.72004 328.3123 155.28391 323.71946 163.88384 C 319.1266 172.48378 296.48434 163.25693 296.50393 164.6929 Z" stroke="#41147a" stroke-linecap="round" stroke-linejoin="round" stroke-width="2"/>
      </g>
      <g id="Graphic_1555">
        <path d="M 472.8218 265.0807 C 474.26046 263.53224 457.38255 256.7114 464.8848 244.10431 C 472.38707 231.49722 456.96056 243.8515 453.5462 248.07282 C 450.1319 252.29413 441.68397 268.04745 450.4281 259.69487 C 459.17226 251.34228 471.3832 266.62915 472.8218 265.0807 Z" fill="#a87bd9" fill-opacity=".33"/>
        <path d="M 472.8218 265.0807 C 474.26046 263.53224 457.38255 256.7114 464.8848 244.10431 C 472.38707 231.49722 456.96056 243.8515 453.5462 248.07282 C 450.1319 252.29413 441.68397 268.04745 450.4281 259.69487 C 459.17226 251.34228 471.3832 266.62915 472.8218 265.0807 Z" stroke="#41147a" stroke-linecap="round" stroke-linejoin="round" stroke-width="2"/>
      </g>
      <g id="Graphic_1556">
        <path d="M 477.64073 131.00196 C 476.137 128.85426 463.5668 146.46191 450.7116 138.08857 C 437.8564 129.71524 451.1416 137.75584 458.08166 145.45865 C 465.02174 153.16146 471.2649 166.65562 464.8848 155.09645 C 458.50477 143.53728 479.14447 133.14966 477.64073 131.00196 Z" fill="#a87bd9" fill-opacity=".33"/>
        <path d="M 477.64073 131.00196 C 476.137 128.85426 463.5668 146.46191 450.7116 138.08857 C 437.8564 129.71524 451.1416 137.75584 458.08166 145.45865 C 465.02174 153.16146 471.2649 166.65562 464.8848 155.09645 C 458.50477 143.53728 479.14447 133.14966 477.64073 131.00196 Z" stroke="#41147a" stroke-linecap="round" stroke-linejoin="round" stroke-width="2"/>
      </g>
      <g id="Graphic_1566">
        <path d="M 684.7279 145.41732 C 682.5449 142.98092 678.3716 136.71112 672.2555 133.79527 C 666.1393 130.87942 669.6301 144.8423 675.6571 151.65354 C 681.684 158.46479 697.1924 165.98255 694.08225 158.74015 C 690.97205 151.49776 686.9109 147.85371 684.7279 145.41732 Z" stroke="black" stroke-linecap="round" stroke-linejoin="round" stroke-dasharray="2.0,2.0" stroke-width="1"/>
      </g>
      <g id="Group_1567">
        <g id="Graphic_1573">
          <circle cx="623.4287" cy="198.6378" r="81.0001294300536" fill="white" fill-opacity=".75"/>
          <circle cx="623.4287" cy="198.6378" r="81.0001294300536" stroke="#b4b4b4" stroke-linecap="round" stroke-linejoin="round" stroke-width="1"/>
        </g>
        <g id="Group_1568">
          <g id="Graphic_1572">
            <path d="M 680.7043 181.862 C 712.3369 191.59506 712.3369 207.37545 680.7043 217.1085 C 649.07186 226.84162 597.7856 226.84162 566.1531 217.1085 C 534.5205 207.37545 534.5205 191.59506 566.1531 181.862 C 597.7856 172.12889 649.07186 172.12889 680.7043 181.862" stroke="#b4b4b4" stroke-linecap="round" stroke-linejoin="round" stroke-dasharray="4.0,4.0" stroke-width="1"/>
          </g>
          <g id="Line_1571">
            <path d="M 623.4287 117.6378 L 623.4287 279.6378 L 623.4287 279.6378" stroke="#b4b4b4" stroke-linecap="round" stroke-linejoin="round" stroke-dasharray="4.0,4.0" stroke-width="1"/>
          </g>
          <g id="Line_1570">
            <line x1="542.4287" y1="198.6378" x2="704.4287" y2="198.6378" stroke="#b4b4b4" stroke-linecap="round" stroke-linejoin="round" stroke-dasharray="4.0,4.0" stroke-width="1"/>
          </g>
          <g id="Line_1569">
            <path d="M 569.4287 216.6378 L 597.5622 207.26982 L 677.4287 180.6378" stroke="#b4b4b4" stroke-linecap="round" stroke-linejoin="round" stroke-dasharray="4.0,4.0" stroke-width="1"/>
          </g>
        </g>
      </g>
      <g id="Graphic_1575">
        <path d="M 530.2397 166.96063 C 528.43964 170.85259 542.32734 179.1016 542.4287 188.50394 C 542.5301 197.90628 552.15644 188.49873 555.1846 178.58268 C 558.2128 168.66663 557.4222 151.74025 552.35 158.74016 C 547.27775 165.74007 532.0398 163.06866 530.2397 166.96063 Z" fill="#a87bd9" fill-opacity=".33"/>
        <path d="M 530.2397 166.96063 C 528.43964 170.85259 542.32734 179.1016 542.4287 188.50394 C 542.5301 197.90628 552.15644 188.49873 555.1846 178.58268 C 558.2128 168.66663 557.4222 151.74025 552.35 158.74016 C 547.27775 165.74007 532.0398 163.06866 530.2397 166.96063 Z" stroke="#41147a" stroke-linecap="round" stroke-linejoin="round" stroke-width="2"/>
      </g>
      <g id="Graphic_1576">
        <path d="M 694.0823 260.7874 C 697.3097 257.96408 691.7679 243.9063 695.4996 235.2756 C 699.23124 226.6449 682.4567 235.95244 675.6571 243.77953 C 668.85746 251.60662 661.0896 269.37105 668.57045 265.03937 C 676.0513 260.7077 690.8548 263.61073 694.0823 260.7874 Z" fill="#a87bd9" fill-opacity=".33"/>
        <path d="M 694.0823 260.7874 C 697.3097 257.96408 691.7679 243.9063 695.4996 235.2756 C 699.23124 226.6449 682.4567 235.95244 675.6571 243.77953 C 668.85746 251.60662 661.0896 269.37105 668.57045 265.03937 C 676.0513 260.7077 690.8548 263.61073 694.0823 260.7874 Z" stroke="#41147a" stroke-linecap="round" stroke-linejoin="round" stroke-width="2"/>
      </g>
      <g id="Graphic_1577">
        <path d="M 696.9169 136.063 C 694.508 132.5155 681.82216 139.23013 673.7106 134.47447 C 665.599 129.71881 677.5044 137.14758 684.44445 144.85039 C 691.3845 152.5532 697.501 166.2611 694.1133 158.30813 C 690.7256 150.35516 699.32586 139.61048 696.9169 136.063 Z" fill="#a87bd9" fill-opacity=".33"/>
        <path d="M 696.9169 136.063 C 694.508 132.5155 681.82216 139.23013 673.7106 134.47447 C 665.599 129.71881 677.5044 137.14758 684.44445 144.85039 C 691.3845 152.5532 697.501 166.2611 694.1133 158.30813 C 690.7256 150.35516 699.32586 139.61048 696.9169 136.063 Z" stroke="#41147a" stroke-linecap="round" stroke-linejoin="round" stroke-width="2"/>
      </g>
      <g id="Group_1579">
        <g id="Graphic_1585">
          <circle cx="849.9915" cy="198.6378" r="81.0001294300536" fill="white" fill-opacity=".75"/>
          <circle cx="849.9915" cy="198.6378" r="81.0001294300536" stroke="#b4b4b4" stroke-linecap="round" stroke-linejoin="round" stroke-width="1"/>
        </g>
        <g id="Group_1580">
          <g id="Graphic_1584">
            <path d="M 907.2671 181.862 C 938.8997 191.59506 938.8997 207.37545 907.2671 217.1085 C 875.6347 226.84162 824.3484 226.84162 792.7159 217.1085 C 761.0833 207.37545 761.0833 191.59506 792.7159 181.862 C 824.3484 172.12889 875.6347 172.12889 907.2671 181.862" stroke="#b4b4b4" stroke-linecap="round" stroke-linejoin="round" stroke-dasharray="4.0,4.0" stroke-width="1"/>
          </g>
          <g id="Line_1583">
            <path d="M 849.9915 117.6378 L 849.9915 279.6378 L 849.9915 279.6378" stroke="#b4b4b4" stroke-linecap="round" stroke-linejoin="round" stroke-dasharray="4.0,4.0" stroke-width="1"/>
          </g>
          <g id="Line_1582">
            <line x1="768.9915" y1="198.6378" x2="930.9915" y2="198.6378" stroke="#b4b4b4" stroke-linecap="round" stroke-linejoin="round" stroke-dasharray="4.0,4.0" stroke-width="1"/>
          </g>
          <g id="Line_1581">
            <path d="M 795.9915 216.6378 L 824.125 207.26982 L 903.9915 180.6378" stroke="#b4b4b4" stroke-linecap="round" stroke-linejoin="round" stroke-dasharray="4.0,4.0" stroke-width="1"/>
          </g>
        </g>
      </g>
      <g id="Graphic_1586">
        <path d="M 765.1455 170.07874 C 762.5047 179.9152 764.3118 193.8243 769.39745 211.1811 C 774.4831 228.5379 817.4007 210.7975 819.0037 181.41732 C 820.6068 152.03715 799.0683 137.67817 789.24 144.56693 C 779.4116 151.45569 767.7863 160.24228 765.1455 170.07874 Z" fill="#a87bd9" fill-opacity=".33"/>
        <path d="M 765.1455 170.07874 C 762.5047 179.9152 764.3118 193.8243 769.39745 211.1811 C 774.4831 228.5379 817.4007 210.7975 819.0037 181.41732 C 820.6068 152.03715 799.0683 137.67817 789.24 144.56693 C 779.4116 151.45569 767.7863 160.24228 765.1455 170.07874 Z" stroke="#41147a" stroke-linecap="round" stroke-linejoin="round" stroke-width="2"/>
      </g>
      <g id="Graphic_1587">
        <path d="M 916.799 256.53544 C 925.8557 248.5379 930.5986 219.04586 930.9723 206.92914 C 931.3459 194.81241 894.5946 217.11712 888.6614 226.77166 C 882.7283 236.4262 874.1311 274.62715 881.366 273.5433 C 888.6008 272.45947 907.7424 264.53297 916.799 256.53544 Z" fill="#a87bd9" fill-opacity=".33"/>
        <path d="M 916.799 256.53544 C 925.8557 248.5379 930.5986 219.04586 930.9723 206.92914 C 931.3459 194.81241 894.5946 217.11712 888.6614 226.77166 C 882.7283 236.4262 874.1311 274.62715 881.366 273.5433 C 888.6008 272.45947 907.7424 264.53297 916.799 256.53544 Z" stroke="#41147a" stroke-linecap="round" stroke-linejoin="round" stroke-width="2"/>
      </g>
      <g id="Graphic_1588">
        <path d="M 921.051 138.89764 C 918.642 135.35015 896.8523 129.7653 890.1533 126.70866 C 883.4543 123.65201 899.0126 144.51766 905.9527 152.22047 C 912.8928 159.92328 930.108 178.03171 926.7203 170.07874 C 923.3326 162.12577 923.4599 142.44513 921.051 138.89764 Z" fill="#a87bd9" fill-opacity=".33"/>
        <path d="M 921.051 138.89764 C 918.642 135.35015 896.8523 129.7653 890.1533 126.70866 C 883.4543 123.65201 899.0126 144.51766 905.9527 152.22047 C 912.8928 159.92328 930.108 178.03171 926.7203 170.07874 C 923.3326 162.12577 923.4599 142.44513 921.051 138.89764 Z" stroke="#41147a" stroke-linecap="round" stroke-linejoin="round" stroke-width="2"/>
      </g>
      <g id="Line_1616">
        <line x1="100.76336" y1="171.75573" x2="75.95517" y2="164.9096" stroke="#797979" stroke-linecap="round" stroke-linejoin="round" stroke-dasharray="1.0,3.0" stroke-width="1"/>
      </g>
      <g id="Line_1617">
        <line x1="232.3193" y1="146.53889" x2="243.84368" y2="136.85925" stroke="#797979" stroke-linecap="round" stroke-linejoin="round" stroke-dasharray="1.0,3.0" stroke-width="1"/>
      </g>
    </g>
  </g>
</svg>
