<?xml version="1.0" encoding="utf-8" standalone="no"?>
<!DOCTYPE svg PUBLIC "-//W3C//DTD SVG 1.1//EN"
  "http://www.w3.org/Graphics/SVG/1.1/DTD/svg11.dtd">
<!-- Created with matplotlib (https://matplotlib.org/) -->
<svg height="153.976563pt" version="1.1" viewBox="0 0 704.9 153.976563" width="704.9pt" xmlns="http://www.w3.org/2000/svg" xmlns:xlink="http://www.w3.org/1999/xlink">
 <defs>
  <style type="text/css">
*{stroke-linecap:butt;stroke-linejoin:round;}
  </style>
 </defs>
 <g id="figure_1">
  <g id="patch_1">
   <path d="M 0 153.976563 
L 704.9 153.976563 
L 704.9 0 
L 0 0 
z
" style="fill:none;"/>
  </g>
  <g id="axes_1">
   <g id="patch_2">
    <path d="M 28.1 130.63125 
L 225.041176 130.63125 
L 225.041176 21.91125 
L 28.1 21.91125 
z
" style="fill:none;"/>
   </g>
   <g id="matplotlib.axis_1">
    <g id="xtick_1">
     <g id="text_1">
      <!-- 0.0 -->
      <defs>
       <path d="M 4.15625 35.296875 
Q 4.15625 48 6.765625 55.734375 
Q 9.375 63.484375 14.515625 67.671875 
Q 19.671875 71.875 27.484375 71.875 
Q 33.25 71.875 37.59375 69.546875 
Q 41.9375 67.234375 44.765625 62.859375 
Q 47.609375 58.5 49.21875 52.21875 
Q 50.828125 45.953125 50.828125 35.296875 
Q 50.828125 22.703125 48.234375 14.96875 
Q 45.65625 7.234375 40.5 3 
Q 35.359375 -1.21875 27.484375 -1.21875 
Q 17.140625 -1.21875 11.234375 6.203125 
Q 4.15625 15.140625 4.15625 35.296875 
z
M 13.1875 35.296875 
Q 13.1875 17.671875 17.3125 11.828125 
Q 21.4375 6 27.484375 6 
Q 33.546875 6 37.671875 11.859375 
Q 41.796875 17.71875 41.796875 35.296875 
Q 41.796875 52.984375 37.671875 58.78125 
Q 33.546875 64.59375 27.390625 64.59375 
Q 21.34375 64.59375 17.71875 59.46875 
Q 13.1875 52.9375 13.1875 35.296875 
z
" id="ArialMT-48"/>
       <path d="M 9.078125 0 
L 9.078125 10.015625 
L 19.09375 10.015625 
L 19.09375 0 
z
" id="ArialMT-46"/>
      </defs>
      <g style="fill:#262626;" transform="translate(26.448046 144.789063)scale(0.1 -0.1)">
       <use xlink:href="#ArialMT-48"/>
       <use x="55.615234" xlink:href="#ArialMT-46"/>
       <use x="83.398438" xlink:href="#ArialMT-48"/>
      </g>
     </g>
    </g>
    <g id="xtick_2">
     <g id="text_2">
      <!-- 0.1 -->
      <defs>
       <path d="M 37.25 0 
L 28.46875 0 
L 28.46875 56 
Q 25.296875 52.984375 20.140625 49.953125 
Q 14.984375 46.921875 10.890625 45.40625 
L 10.890625 53.90625 
Q 18.265625 57.375 23.78125 62.296875 
Q 29.296875 67.234375 31.59375 71.875 
L 37.25 71.875 
z
" id="ArialMT-49"/>
      </defs>
      <g style="fill:#262626;" transform="translate(62.986298 144.789063)scale(0.1 -0.1)">
       <use xlink:href="#ArialMT-48"/>
       <use x="55.615234" xlink:href="#ArialMT-46"/>
       <use x="83.398438" xlink:href="#ArialMT-49"/>
      </g>
     </g>
    </g>
    <g id="xtick_3">
     <g id="text_3">
      <!-- 0.2 -->
      <defs>
       <path d="M 50.34375 8.453125 
L 50.34375 0 
L 3.03125 0 
Q 2.9375 3.171875 4.046875 6.109375 
Q 5.859375 10.9375 9.828125 15.625 
Q 13.8125 20.3125 21.34375 26.46875 
Q 33.015625 36.03125 37.109375 41.625 
Q 41.21875 47.21875 41.21875 52.203125 
Q 41.21875 57.421875 37.46875 61 
Q 33.734375 64.59375 27.734375 64.59375 
Q 21.390625 64.59375 17.578125 60.78125 
Q 13.765625 56.984375 13.71875 50.25 
L 4.6875 51.171875 
Q 5.609375 61.28125 11.65625 66.578125 
Q 17.71875 71.875 27.9375 71.875 
Q 38.234375 71.875 44.234375 66.15625 
Q 50.25 60.453125 50.25 52 
Q 50.25 47.703125 48.484375 43.546875 
Q 46.734375 39.40625 42.65625 34.8125 
Q 38.578125 30.21875 29.109375 22.21875 
Q 21.1875 15.578125 18.9375 13.203125 
Q 16.703125 10.84375 15.234375 8.453125 
z
" id="ArialMT-50"/>
      </defs>
      <g style="fill:#262626;" transform="translate(99.52455 144.789063)scale(0.1 -0.1)">
       <use xlink:href="#ArialMT-48"/>
       <use x="55.615234" xlink:href="#ArialMT-46"/>
       <use x="83.398438" xlink:href="#ArialMT-50"/>
      </g>
     </g>
    </g>
    <g id="xtick_4">
     <g id="text_4">
      <!-- 0.3 -->
      <defs>
       <path d="M 4.203125 18.890625 
L 12.984375 20.0625 
Q 14.5 12.59375 18.140625 9.296875 
Q 21.78125 6 27 6 
Q 33.203125 6 37.46875 10.296875 
Q 41.75 14.59375 41.75 20.953125 
Q 41.75 27 37.796875 30.921875 
Q 33.84375 34.859375 27.734375 34.859375 
Q 25.25 34.859375 21.53125 33.890625 
L 22.515625 41.609375 
Q 23.390625 41.5 23.921875 41.5 
Q 29.546875 41.5 34.03125 44.421875 
Q 38.53125 47.359375 38.53125 53.46875 
Q 38.53125 58.296875 35.25 61.46875 
Q 31.984375 64.65625 26.8125 64.65625 
Q 21.6875 64.65625 18.265625 61.421875 
Q 14.84375 58.203125 13.875 51.765625 
L 5.078125 53.328125 
Q 6.6875 62.15625 12.390625 67.015625 
Q 18.109375 71.875 26.609375 71.875 
Q 32.46875 71.875 37.390625 69.359375 
Q 42.328125 66.84375 44.9375 62.5 
Q 47.5625 58.15625 47.5625 53.265625 
Q 47.5625 48.640625 45.0625 44.828125 
Q 42.578125 41.015625 37.703125 38.765625 
Q 44.046875 37.3125 47.5625 32.6875 
Q 51.078125 28.078125 51.078125 21.140625 
Q 51.078125 11.765625 44.234375 5.25 
Q 37.40625 -1.265625 26.953125 -1.265625 
Q 17.53125 -1.265625 11.296875 4.34375 
Q 5.078125 9.96875 4.203125 18.890625 
z
" id="ArialMT-51"/>
      </defs>
      <g style="fill:#262626;" transform="translate(136.062801 144.789063)scale(0.1 -0.1)">
       <use xlink:href="#ArialMT-48"/>
       <use x="55.615234" xlink:href="#ArialMT-46"/>
       <use x="83.398438" xlink:href="#ArialMT-51"/>
      </g>
     </g>
    </g>
    <g id="xtick_5">
     <g id="text_5">
      <!-- 0.4 -->
      <defs>
       <path d="M 32.328125 0 
L 32.328125 17.140625 
L 1.265625 17.140625 
L 1.265625 25.203125 
L 33.9375 71.578125 
L 41.109375 71.578125 
L 41.109375 25.203125 
L 50.78125 25.203125 
L 50.78125 17.140625 
L 41.109375 17.140625 
L 41.109375 0 
z
M 32.328125 25.203125 
L 32.328125 57.46875 
L 9.90625 25.203125 
z
" id="ArialMT-52"/>
      </defs>
      <g style="fill:#262626;" transform="translate(172.601053 144.789063)scale(0.1 -0.1)">
       <use xlink:href="#ArialMT-48"/>
       <use x="55.615234" xlink:href="#ArialMT-46"/>
       <use x="83.398438" xlink:href="#ArialMT-52"/>
      </g>
     </g>
    </g>
    <g id="xtick_6">
     <g id="text_6">
      <!-- 0.5 -->
      <defs>
       <path d="M 4.15625 18.75 
L 13.375 19.53125 
Q 14.40625 12.796875 18.140625 9.390625 
Q 21.875 6 27.15625 6 
Q 33.5 6 37.890625 10.78125 
Q 42.28125 15.578125 42.28125 23.484375 
Q 42.28125 31 38.0625 35.34375 
Q 33.84375 39.703125 27 39.703125 
Q 22.75 39.703125 19.328125 37.765625 
Q 15.921875 35.84375 13.96875 32.765625 
L 5.71875 33.84375 
L 12.640625 70.609375 
L 48.25 70.609375 
L 48.25 62.203125 
L 19.671875 62.203125 
L 15.828125 42.96875 
Q 22.265625 47.46875 29.34375 47.46875 
Q 38.71875 47.46875 45.15625 40.96875 
Q 51.609375 34.46875 51.609375 24.265625 
Q 51.609375 14.546875 45.953125 7.46875 
Q 39.0625 -1.21875 27.15625 -1.21875 
Q 17.390625 -1.21875 11.203125 4.25 
Q 5.03125 9.71875 4.15625 18.75 
z
" id="ArialMT-53"/>
      </defs>
      <g style="fill:#262626;" transform="translate(209.139305 144.789063)scale(0.1 -0.1)">
       <use xlink:href="#ArialMT-48"/>
       <use x="55.615234" xlink:href="#ArialMT-46"/>
       <use x="83.398438" xlink:href="#ArialMT-53"/>
      </g>
     </g>
    </g>
   </g>
   <g id="matplotlib.axis_2">
    <g id="ytick_1">
     <g id="text_7">
      <!-- 0.0 -->
      <g style="fill:#262626;" transform="translate(7.2 134.210156)scale(0.1 -0.1)">
       <use xlink:href="#ArialMT-48"/>
       <use x="55.615234" xlink:href="#ArialMT-46"/>
       <use x="83.398438" xlink:href="#ArialMT-48"/>
      </g>
     </g>
    </g>
    <g id="ytick_2">
     <g id="text_8">
      <!-- 0.1 -->
      <g style="fill:#262626;" transform="translate(7.2 107.030156)scale(0.1 -0.1)">
       <use xlink:href="#ArialMT-48"/>
       <use x="55.615234" xlink:href="#ArialMT-46"/>
       <use x="83.398438" xlink:href="#ArialMT-49"/>
      </g>
     </g>
    </g>
    <g id="ytick_3">
     <g id="text_9">
      <!-- 0.2 -->
      <g style="fill:#262626;" transform="translate(7.2 79.850156)scale(0.1 -0.1)">
       <use xlink:href="#ArialMT-48"/>
       <use x="55.615234" xlink:href="#ArialMT-46"/>
       <use x="83.398438" xlink:href="#ArialMT-50"/>
      </g>
     </g>
    </g>
    <g id="ytick_4">
     <g id="text_10">
      <!-- 0.3 -->
      <g style="fill:#262626;" transform="translate(7.2 52.670156)scale(0.1 -0.1)">
       <use xlink:href="#ArialMT-48"/>
       <use x="55.615234" xlink:href="#ArialMT-46"/>
       <use x="83.398438" xlink:href="#ArialMT-51"/>
      </g>
     </g>
    </g>
    <g id="ytick_5">
     <g id="text_11">
      <!-- 0.4 -->
      <g style="fill:#262626;" transform="translate(7.2 25.490156)scale(0.1 -0.1)">
       <use xlink:href="#ArialMT-48"/>
       <use x="55.615234" xlink:href="#ArialMT-46"/>
       <use x="83.398438" xlink:href="#ArialMT-52"/>
      </g>
     </g>
    </g>
   </g>
   <g id="PolyCollection_1">
    <defs>
     <path d="M 37.051872 -85.456083 
L 37.051872 -1.821759 
L 38.860331 -2.806902 
L 40.668789 -4.380773 
L 42.477248 -6.108328 
L 44.285707 -5.922654 
L 46.094166 -7.665477 
L 47.902625 -7.567018 
L 49.711084 -8.412418 
L 51.519543 -9.464429 
L 53.328002 -8.71797 
L 55.136461 -12.270916 
L 56.94492 -11.417437 
L 58.753379 -17.533323 
L 60.561838 -17.411488 
L 62.370297 -18.479759 
L 64.178755 -16.732962 
L 65.987214 -18.933632 
L 67.795673 -20.468916 
L 69.604132 -23.919083 
L 71.412591 -25.068664 
L 73.22105 -24.588529 
L 75.029509 -22.641421 
L 76.837968 -24.363643 
L 78.646427 -21.993628 
L 80.454886 -24.108364 
L 82.263345 -21.500742 
L 84.071804 -22.35261 
L 85.880263 -21.683102 
L 87.688721 -21.203665 
L 89.49718 -23.482996 
L 91.305639 -21.244396 
L 93.114098 -23.190229 
L 94.922557 -23.675174 
L 96.731016 -24.387522 
L 98.539475 -23.678824 
L 100.347934 -22.90308 
L 102.156393 -22.773429 
L 103.964852 -22.950202 
L 105.773311 -25.448429 
L 107.58177 -21.850882 
L 109.390228 -19.627101 
L 111.198687 -24.495604 
L 113.007146 -22.243539 
L 114.815605 -24.122417 
L 116.624064 -26.842586 
L 118.432523 -24.222568 
L 120.240982 -27.181831 
L 122.049441 -22.096563 
L 123.8579 -29.026045 
L 125.666359 -18.507178 
L 127.474818 -22.187249 
L 129.283277 -27.390975 
L 131.091736 -21.944696 
L 132.900194 -24.475764 
L 134.708653 -28.51382 
L 136.517112 -25.976582 
L 138.325571 -26.241746 
L 140.13403 -27.977785 
L 141.942489 -27.173686 
L 143.750948 -28.717949 
L 145.559407 -28.174873 
L 147.367866 -26.358526 
L 149.176325 -22.685731 
L 150.984784 -22.719128 
L 152.793243 -25.397008 
L 154.601702 -23.937877 
L 156.41016 -26.75308 
L 158.218619 -28.774559 
L 160.027078 -24.302432 
L 161.835537 -29.146228 
L 163.643996 -25.451925 
L 165.452455 -29.228553 
L 167.260914 -26.344081 
L 169.069373 -28.030098 
L 170.877832 -23.75907 
L 172.686291 -25.780737 
L 174.49475 -27.820526 
L 176.303209 -32.385228 
L 178.111667 -32.147935 
L 179.920126 -28.349598 
L 181.728585 -27.88436 
L 183.537044 -27.65762 
L 185.345503 -30.583214 
L 187.153962 -32.145092 
L 188.962421 -29.128014 
L 190.77088 -24.746453 
L 192.579339 -26.678735 
L 194.387798 -29.638294 
L 196.196257 -28.397528 
L 198.004716 -25.48488 
L 199.813175 -29.817057 
L 201.621633 -23.015462 
L 203.430092 -31.882281 
L 205.238551 -34.966299 
L 207.04701 -35.026994 
L 208.855469 -28.860158 
L 210.663928 -28.998607 
L 212.472387 -28.008553 
L 214.280846 -35.131059 
L 216.089305 -34.529276 
L 216.089305 -113.530719 
L 216.089305 -113.530719 
L 214.280846 -111.39401 
L 212.472387 -106.948629 
L 210.663928 -110.842155 
L 208.855469 -103.807133 
L 207.04701 -101.575878 
L 205.238551 -120.278114 
L 203.430092 -101.78515 
L 201.621633 -93.278597 
L 199.813175 -106.4224 
L 198.004716 -103.072794 
L 196.196257 -102.725939 
L 194.387798 -105.594706 
L 192.579339 -105.922343 
L 190.77088 -101.299839 
L 188.962421 -101.154287 
L 187.153962 -95.847155 
L 185.345503 -85.014954 
L 183.537044 -96.57977 
L 181.728585 -95.396373 
L 179.920126 -96.359389 
L 178.111667 -103.867848 
L 176.303209 -88.561964 
L 174.49475 -92.550582 
L 172.686291 -84.866654 
L 170.877832 -102.827057 
L 169.069373 -99.481816 
L 167.260914 -91.131004 
L 165.452455 -92.682308 
L 163.643996 -96.734758 
L 161.835537 -75.47122 
L 160.027078 -93.818123 
L 158.218619 -86.286863 
L 156.41016 -87.764821 
L 154.601702 -90.688666 
L 152.793243 -81.817202 
L 150.984784 -81.035493 
L 149.176325 -75.872074 
L 147.367866 -83.042685 
L 145.559407 -86.372653 
L 143.750948 -80.232788 
L 141.942489 -85.320703 
L 140.13403 -81.812769 
L 138.325571 -83.963909 
L 136.517112 -81.278745 
L 134.708653 -84.235883 
L 132.900194 -78.435241 
L 131.091736 -76.764617 
L 129.283277 -71.301693 
L 127.474818 -79.33181 
L 125.666359 -73.092469 
L 123.8579 -72.61933 
L 122.049441 -71.429479 
L 120.240982 -80.334502 
L 118.432523 -70.160311 
L 116.624064 -68.197091 
L 114.815605 -74.493686 
L 113.007146 -64.978708 
L 111.198687 -62.78991 
L 109.390228 -64.712421 
L 107.58177 -68.281172 
L 105.773311 -63.448107 
L 103.964852 -60.92347 
L 102.156393 -65.48212 
L 100.347934 -59.171453 
L 98.539475 -65.802835 
L 96.731016 -59.544453 
L 94.922557 -63.923655 
L 93.114098 -54.462693 
L 91.305639 -61.737855 
L 89.49718 -57.466239 
L 87.688721 -59.96301 
L 85.880263 -58.702729 
L 84.071804 -55.530722 
L 82.263345 -55.493026 
L 80.454886 -49.034775 
L 78.646427 -49.30142 
L 76.837968 -43.817715 
L 75.029509 -55.303048 
L 73.22105 -48.924258 
L 71.412591 -46.483015 
L 69.604132 -47.223609 
L 67.795673 -53.533063 
L 65.987214 -50.77415 
L 64.178755 -57.528965 
L 62.370297 -50.868023 
L 60.561838 -55.854895 
L 58.753379 -60.012001 
L 56.94492 -59.603875 
L 55.136461 -61.540577 
L 53.328002 -66.411654 
L 51.519543 -67.252393 
L 49.711084 -69.45606 
L 47.902625 -70.167198 
L 46.094166 -71.390805 
L 44.285707 -74.649329 
L 42.477248 -75.100349 
L 40.668789 -79.198 
L 38.860331 -83.02265 
L 37.051872 -85.456083 
z
" id="mc172c44fca" style="stroke:#ffffff;stroke-opacity:0.1;"/>
    </defs>
    <g clip-path="url(#p4f0b3d28f3)">
     <use style="fill:#821580;fill-opacity:0.1;stroke:#ffffff;stroke-opacity:0.1;" x="0" xlink:href="#mc172c44fca" y="153.976563"/>
    </g>
   </g>
   <g id="line2d_1">
    <path clip-path="url(#p4f0b3d28f3)" d="M 37.051872 110.337642 
L 38.860331 111.061786 
L 40.668789 112.187176 
L 42.477248 113.372224 
L 44.285707 113.690571 
L 46.094166 114.448421 
L 47.902625 115.109454 
L 49.711084 115.042323 
L 51.519543 115.618152 
L 53.328002 116.411751 
L 55.136461 117.070816 
L 56.94492 118.465906 
L 58.753379 115.2039 
L 60.561838 117.343371 
L 62.370297 119.302671 
L 64.178755 116.845599 
L 65.987214 119.122672 
L 67.795673 116.975573 
L 69.604132 118.405217 
L 71.412591 118.200723 
L 73.22105 117.220169 
L 75.029509 115.004328 
L 76.837968 119.885883 
L 78.646427 118.329038 
L 80.454886 117.404993 
L 82.263345 115.479679 
L 84.071804 115.034897 
L 85.880263 113.783647 
L 87.688721 113.393225 
L 89.49718 113.501945 
L 91.305639 112.485437 
L 93.114098 115.150101 
L 94.922557 110.177148 
L 96.731016 112.010575 
L 98.539475 109.235733 
L 100.347934 112.939296 
L 102.156393 109.848788 
L 103.964852 112.039727 
L 105.773311 109.528295 
L 107.58177 108.910536 
L 109.390228 111.806802 
L 111.198687 110.333805 
L 113.007146 110.365439 
L 114.815605 104.668511 
L 116.624064 106.456724 
L 118.432523 106.785123 
L 120.240982 100.218396 
L 122.049441 107.213541 
L 123.8579 103.153875 
L 125.666359 108.176739 
L 127.474818 103.217033 
L 129.283277 104.630228 
L 131.091736 104.621906 
L 132.900194 102.52106 
L 134.708653 97.601711 
L 136.517112 100.348899 
L 138.325571 98.873735 
L 140.13403 99.081285 
L 141.942489 97.729368 
L 143.750948 99.501194 
L 145.559407 96.702799 
L 147.367866 99.275957 
L 149.176325 104.69766 
L 150.984784 102.099252 
L 152.793243 100.369458 
L 154.601702 96.663291 
L 156.41016 96.717612 
L 158.218619 96.445851 
L 160.027078 94.916285 
L 161.835537 101.667839 
L 163.643996 92.883221 
L 165.452455 93.021132 
L 167.260914 95.23902 
L 169.069373 90.220605 
L 170.877832 90.683499 
L 172.686291 98.652867 
L 174.49475 93.791009 
L 176.303209 93.502967 
L 178.111667 85.968671 
L 179.920126 91.622069 
L 181.728585 92.336196 
L 183.537044 91.857867 
L 185.345503 96.177479 
L 187.153962 89.980439 
L 188.962421 88.835412 
L 190.77088 90.953417 
L 192.579339 87.676023 
L 194.387798 86.360063 
L 196.196257 88.414829 
L 198.004716 89.697725 
L 199.813175 85.856834 
L 201.621633 95.829533 
L 203.430092 87.142847 
L 205.238551 76.354356 
L 207.04701 85.675127 
L 208.855469 87.642917 
L 210.663928 84.056181 
L 212.472387 86.497971 
L 214.280846 80.714028 
L 216.089305 79.946565 
" style="fill:none;stroke:#821580;stroke-linecap:round;stroke-width:1.5;"/>
   </g>
   <g id="line2d_2">
    <path clip-path="url(#p4f0b3d28f3)" d="M 28.1 122.11381 
L 225.041176 122.11381 
" style="fill:none;stroke:#000000;stroke-dasharray:5.55,2.4;stroke-dashoffset:0;stroke-width:1.5;"/>
   </g>
   <g id="patch_3">
    <path d="M 28.1 130.63125 
L 28.1 21.91125 
" style="fill:none;stroke:#cccccc;stroke-linecap:square;stroke-linejoin:miter;stroke-width:0.8;"/>
   </g>
   <g id="patch_4">
    <path d="M 28.1 130.63125 
L 225.041176 130.63125 
" style="fill:none;stroke:#cccccc;stroke-linecap:square;stroke-linejoin:miter;stroke-width:0.8;"/>
   </g>
   <g id="text_12">
    <!-- Uniform -->
    <defs>
     <path d="M 82.40625 71 
L 82.40625 72 
L 57.59375 72 
L 57.59375 71 
Q 62.40625 70.296875 64.84375 68.546875 
Q 67.296875 66.796875 68.296875 64 
Q 68.703125 63 68.890625 61.34375 
Q 69.09375 59.703125 69.1875 57.796875 
Q 69.296875 55.90625 69.34375 53.796875 
Q 69.40625 51.703125 69.40625 49.703125 
Q 69.40625 47.59375 69.40625 45.59375 
Q 69.40625 43.703125 69.40625 41.703125 
Q 69.40625 39.796875 69.40625 37.59375 
Q 69.40625 35.40625 69.40625 32.703125 
Q 69.40625 29.296875 69.15625 25.75 
Q 68.90625 22.203125 68.15625 18.796875 
Q 67.40625 15.40625 65.84375 12.40625 
Q 64.296875 9.40625 61.640625 7.09375 
Q 59 4.796875 55.046875 3.5 
Q 51.09375 2.203125 45.40625 2.203125 
Q 40.40625 2.203125 36.5 3.84375 
Q 32.59375 5.5 29.890625 8.546875 
Q 27.203125 11.59375 25.703125 15.9375 
Q 24.203125 20.296875 24.09375 25.59375 
Q 24.09375 28 24.046875 30.140625 
Q 24 32.296875 24 34.59375 
Q 24 37 24 39.703125 
Q 24 42.40625 24 45.796875 
Q 24 48.5 24 50.5 
Q 24 52.59375 24 54.5 
Q 24 56.40625 24.046875 58.40625 
Q 24.09375 60.40625 24.203125 63 
Q 24.296875 65.296875 25.1875 66.796875 
Q 26.09375 68.296875 27.390625 69.140625 
Q 28.703125 70 30.296875 70.390625 
Q 31.90625 70.796875 33.296875 71 
L 33.296875 72 
L 3.5 72 
L 3.5 71 
Q 6.09375 70.703125 8.140625 69.953125 
Q 10.203125 69.203125 11.59375 67.5 
Q 12.203125 66.796875 12.5 65.546875 
Q 12.796875 64.296875 12.9375 62.75 
Q 13.09375 61.203125 13.09375 59.40625 
Q 13.09375 57.59375 13.09375 55.796875 
L 13.09375 42.5 
Q 13.09375 37 13.046875 32.5 
Q 13 28 13 25.203125 
Q 13 24 13.140625 21.546875 
Q 13.296875 19.09375 14.140625 16.140625 
Q 15 13.203125 16.75 10.140625 
Q 18.5 7.09375 21.703125 4.546875 
Q 24.90625 2 29.84375 0.5 
Q 34.796875 -1 42 -1 
Q 49.296875 -1 54.296875 0.546875 
Q 59.296875 2.09375 62.5 4.75 
Q 65.703125 7.40625 67.453125 10.65625 
Q 69.203125 13.90625 70 17.15625 
Q 70.796875 20.40625 70.9375 23.296875 
Q 71.09375 26.203125 71.203125 28.09375 
Q 71.40625 34.796875 71.546875 40.09375 
Q 71.703125 45.40625 71.796875 49.703125 
Q 71.796875 52 71.890625 54.34375 
Q 72 56.703125 72.203125 58.796875 
Q 72.40625 60.90625 72.65625 62.5 
Q 72.90625 64.09375 73.203125 64.796875 
Q 74.40625 67.703125 76.546875 69.09375 
Q 78.703125 70.5 82.40625 71 
z
" id="BigCaslon-Medium-85"/>
     <path d="M 51.203125 0 
L 51.203125 0.90625 
Q 50.296875 1 49.25 1.140625 
Q 48.203125 1.296875 47.296875 1.546875 
Q 46.40625 1.796875 45.75 2.296875 
Q 45.09375 2.796875 45.09375 3.5 
L 45.09375 32.90625 
Q 45.09375 39.703125 42 44 
Q 38.90625 48.296875 33.09375 48.296875 
Q 30.40625 48.296875 27.90625 47.25 
Q 25.40625 46.203125 23.296875 44.59375 
Q 21.203125 43 19.546875 41.046875 
Q 17.90625 39.09375 16.796875 37.40625 
L 16.59375 37.5 
L 16.59375 48.296875 
L 16 48.296875 
L 2.90625 43.59375 
L 2.90625 43 
Q 4.09375 42.5 5.296875 41.84375 
Q 6.5 41.203125 7.40625 40.703125 
Q 8.09375 40.203125 8.25 39.796875 
Q 8.40625 39.40625 8.40625 38.59375 
L 8.40625 4.203125 
Q 8.40625 2.59375 6.75 1.890625 
Q 5.09375 1.203125 2.796875 1 
L 2.796875 0 
L 22.09375 0 
L 22.09375 1 
Q 21.09375 1.203125 20.1875 1.25 
Q 19.296875 1.296875 18.59375 1.5 
Q 17.90625 1.703125 17.40625 2.140625 
Q 16.90625 2.59375 16.703125 3.59375 
L 16.703125 36.40625 
Q 19.40625 39.09375 21.59375 40.5 
Q 23.796875 41.90625 27.09375 41.90625 
Q 32.296875 41.90625 34.5 38.34375 
Q 36.703125 34.796875 36.703125 29 
L 36.703125 3.796875 
Q 36.703125 2.203125 35.09375 1.75 
Q 33.5 1.296875 30.796875 1.09375 
L 30.796875 0 
z
" id="BigCaslon-Medium-110"/>
     <path d="M 17.703125 64.09375 
Q 17.703125 66.40625 16.140625 67.90625 
Q 14.59375 69.40625 12.296875 69.40625 
Q 10 69.40625 8.453125 67.90625 
Q 6.90625 66.40625 6.90625 64.09375 
Q 6.90625 61.90625 8.5 60.296875 
Q 10.09375 58.703125 12.296875 58.703125 
Q 14.59375 58.703125 16.140625 60.25 
Q 17.703125 61.796875 17.703125 64.09375 
z
M 23.296875 0 
L 23.296875 1 
Q 22.296875 1.203125 21.25 1.25 
Q 20.203125 1.296875 19.296875 1.5 
Q 18.40625 1.703125 17.75 2.140625 
Q 17.09375 2.59375 16.90625 3.59375 
L 16.90625 48.296875 
L 16.296875 48.296875 
L 2.796875 43.90625 
L 2.796875 43.296875 
Q 4.203125 42.796875 5.453125 42.1875 
Q 6.703125 41.59375 7.59375 41 
Q 8.296875 40.5 8.4375 39.890625 
Q 8.59375 39.296875 8.59375 38.5 
L 8.59375 4.203125 
Q 8.59375 3.296875 7.9375 2.6875 
Q 7.296875 2.09375 6.34375 1.75 
Q 5.40625 1.40625 4.203125 1.25 
Q 3 1.09375 1.796875 1 
L 1.796875 0 
z
" id="BigCaslon-Medium-105"/>
     <path d="M 37.90625 67.5 
Q 37.90625 68.90625 37.15625 69.84375 
Q 36.40625 70.796875 35.25 71.390625 
Q 34.09375 72 32.640625 72.296875 
Q 31.203125 72.59375 29.703125 72.59375 
Q 26.5 72.59375 23.453125 71.75 
Q 20.40625 70.90625 17.84375 69.453125 
Q 15.296875 68 13.296875 66.046875 
Q 11.296875 64.09375 10.203125 61.796875 
Q 9.09375 59.59375 8.84375 55.546875 
Q 8.59375 51.5 8.59375 47.296875 
L 2.40625 47.296875 
L 1.296875 42.90625 
L 8.5 42.90625 
L 8.5 4.203125 
Q 8.5 3.40625 7.59375 2.84375 
Q 6.703125 2.296875 5.34375 1.9375 
Q 4 1.59375 2.546875 1.34375 
Q 1.09375 1.09375 0 1 
L 0 0 
L 25.40625 0 
L 25.40625 1 
Q 23.90625 1.203125 22.453125 1.296875 
Q 21 1.40625 19.796875 1.703125 
Q 18.59375 2 17.796875 2.5 
Q 17 3 16.796875 3.90625 
L 16.796875 42.90625 
L 27.40625 42.90625 
L 28.703125 47.296875 
L 16.90625 47.296875 
Q 16.90625 50.90625 16.953125 53.75 
Q 17 56.59375 17.203125 60.59375 
Q 17.40625 63.703125 18.25 65.546875 
Q 19.09375 67.40625 20.25 68.34375 
Q 21.40625 69.296875 22.5 69.59375 
Q 23.59375 69.90625 24.203125 69.90625 
Q 25.40625 69.5 26.34375 68.296875 
Q 27.296875 67.09375 28.34375 65.84375 
Q 29.40625 64.59375 30.65625 63.640625 
Q 31.90625 62.703125 33.703125 62.703125 
Q 35.59375 62.703125 36.75 64.203125 
Q 37.90625 65.703125 37.90625 67.5 
z
" id="BigCaslon-Medium-102"/>
     <path d="M 49.203125 24.5 
Q 49.203125 30.5 47.046875 34.953125 
Q 44.90625 39.40625 41.546875 42.34375 
Q 38.203125 45.296875 34.09375 46.796875 
Q 30 48.296875 26 48.296875 
Q 20.59375 48.296875 16.140625 46.296875 
Q 11.703125 44.296875 8.546875 41 
Q 5.40625 37.703125 3.65625 33.390625 
Q 1.90625 29.09375 1.90625 24.5 
Q 1.90625 18.09375 4.15625 13.34375 
Q 6.40625 8.59375 9.953125 5.546875 
Q 13.5 2.5 17.703125 1.09375 
Q 21.90625 -0.296875 25.796875 -0.296875 
Q 30.5 -0.296875 34.75 1.59375 
Q 39 3.5 42.203125 6.890625 
Q 45.40625 10.296875 47.296875 14.84375 
Q 49.203125 19.40625 49.203125 24.5 
z
M 39.90625 24.59375 
Q 39.90625 21.09375 39.15625 17 
Q 38.40625 12.90625 36.75 9.34375 
Q 35.09375 5.796875 32.4375 3.4375 
Q 29.796875 1.09375 25.90625 1.09375 
Q 22 1.09375 19.203125 2.9375 
Q 16.40625 4.796875 14.59375 7.9375 
Q 12.796875 11.09375 12 15.1875 
Q 11.203125 19.296875 11.203125 23.90625 
Q 11.203125 28.09375 12.140625 32.140625 
Q 13.09375 36.203125 14.9375 39.453125 
Q 16.796875 42.703125 19.390625 44.703125 
Q 22 46.703125 25.296875 46.703125 
Q 29.40625 46.703125 32.203125 44.546875 
Q 35 42.40625 36.703125 39.09375 
Q 38.40625 35.796875 39.15625 31.890625 
Q 39.90625 28 39.90625 24.59375 
z
" id="BigCaslon-Medium-111"/>
     <path d="M 36.703125 43 
Q 36.703125 45.296875 34.953125 46.796875 
Q 33.203125 48.296875 30.703125 48.296875 
Q 27.59375 48.296875 25.1875 46.59375 
Q 22.796875 44.90625 21.09375 42.546875 
Q 19.40625 40.203125 18.296875 37.890625 
Q 17.203125 35.59375 16.703125 34.40625 
L 16.5 34.40625 
L 16.703125 48.296875 
L 16.09375 48.296875 
L 3 43.203125 
L 3 42.59375 
Q 4.203125 42.09375 5.390625 41.34375 
Q 6.59375 40.59375 7.5 40.09375 
Q 8.203125 39.59375 8.34375 39.1875 
Q 8.5 38.796875 8.5 38 
L 8.5 4.203125 
Q 8.5 2.59375 6.84375 1.890625 
Q 5.203125 1.203125 2.90625 1 
L 2.90625 0 
L 25.296875 0 
L 25.296875 1 
Q 24.296875 1.203125 22.9375 1.25 
Q 21.59375 1.296875 20.34375 1.5 
Q 19.09375 1.703125 18.09375 2.203125 
Q 17.09375 2.703125 16.796875 3.59375 
L 16.796875 32.40625 
Q 17.40625 33.90625 18.203125 35.546875 
Q 19 37.203125 20 38.5 
Q 21 39.796875 22.140625 40.640625 
Q 23.296875 41.5 24.5 41.5 
Q 25.90625 41.5 26.703125 40.953125 
Q 27.5 40.40625 28.203125 39.703125 
Q 28.90625 39 29.84375 38.453125 
Q 30.796875 37.90625 32.40625 37.90625 
Q 34.09375 37.90625 35.390625 39.34375 
Q 36.703125 40.796875 36.703125 43 
z
" id="BigCaslon-Medium-114"/>
     <path d="M 78.203125 0 
L 78.203125 0.90625 
Q 77.296875 1 76.296875 1.140625 
Q 75.296875 1.296875 74.4375 1.546875 
Q 73.59375 1.796875 73 2.296875 
Q 72.40625 2.796875 72.40625 3.5 
L 72.40625 33.296875 
Q 72.40625 39.90625 69.453125 44.09375 
Q 66.5 48.296875 60.703125 48.296875 
Q 58 48.296875 55.453125 47.1875 
Q 52.90625 46.09375 50.796875 44.34375 
Q 48.703125 42.59375 47.09375 40.546875 
Q 45.5 38.5 44.59375 36.703125 
L 44.296875 36.703125 
Q 43.59375 42 40.640625 45.140625 
Q 37.703125 48.296875 32.90625 48.296875 
Q 30.203125 48.296875 27.75 47.25 
Q 25.296875 46.203125 23.1875 44.640625 
Q 21.09375 43.09375 19.5 41.140625 
Q 17.90625 39.203125 16.90625 37.40625 
L 16.703125 37.5 
L 16.703125 48.296875 
L 16.09375 48.296875 
L 3 43.59375 
L 3 42.796875 
Q 4.203125 42.296875 5.390625 41.640625 
Q 6.59375 41 7.5 40.5 
Q 8.203125 40 8.34375 39.59375 
Q 8.5 39.203125 8.5 38.40625 
L 8.5 4.203125 
Q 8.5 2.59375 6.84375 1.890625 
Q 5.203125 1.203125 2.90625 1 
L 2.90625 0 
L 22.296875 0 
L 22.296875 1 
Q 21.296875 1.203125 20.390625 1.25 
Q 19.5 1.296875 18.75 1.5 
Q 18 1.703125 17.5 2.140625 
Q 17 2.59375 16.796875 3.59375 
L 16.796875 36.40625 
Q 19.40625 39.203125 21.5 40.59375 
Q 23.59375 42 26.90625 42 
Q 32.09375 42 34.140625 38.640625 
Q 36.203125 35.296875 36.203125 29.40625 
L 36.203125 3.796875 
Q 36.203125 2.203125 34.59375 1.75 
Q 33 1.296875 30.296875 1.09375 
L 30.296875 0 
L 50 0 
L 50 0.90625 
Q 49.09375 1 48.140625 1.140625 
Q 47.203125 1.296875 46.390625 1.546875 
Q 45.59375 1.796875 45.09375 2.296875 
Q 44.59375 2.796875 44.59375 3.5 
L 44.59375 35.796875 
Q 47 38.5 49.203125 40.25 
Q 51.40625 42 54.703125 42 
Q 59.90625 42 61.953125 38.546875 
Q 64 35.09375 64 29.296875 
L 64 3.796875 
Q 64 2.203125 62.59375 1.75 
Q 61.203125 1.296875 58.5 1.09375 
L 58.5 0 
z
" id="BigCaslon-Medium-109"/>
    </defs>
    <g style="fill:#262626;" transform="translate(105.324026 15.91125)scale(0.12 -0.12)">
     <use xlink:href="#BigCaslon-Medium-85"/>
     <use x="83.399994" xlink:href="#BigCaslon-Medium-110"/>
     <use x="135.499985" xlink:href="#BigCaslon-Medium-105"/>
     <use x="160.899979" xlink:href="#BigCaslon-Medium-102"/>
     <use x="187.899963" xlink:href="#BigCaslon-Medium-111"/>
     <use x="238.999954" xlink:href="#BigCaslon-Medium-114"/>
     <use x="274.699951" xlink:href="#BigCaslon-Medium-109"/>
    </g>
   </g>
  </g>
  <g id="axes_2">
   <g id="patch_5">
    <path d="M 264.429412 130.63125 
L 461.370588 130.63125 
L 461.370588 21.91125 
L 264.429412 21.91125 
z
" style="fill:none;"/>
   </g>
   <g id="matplotlib.axis_3">
    <g id="xtick_7">
     <g id="text_13">
      <!-- 0.0 -->
      <g style="fill:#262626;" transform="translate(262.777458 144.789063)scale(0.1 -0.1)">
       <use xlink:href="#ArialMT-48"/>
       <use x="55.615234" xlink:href="#ArialMT-46"/>
       <use x="83.398438" xlink:href="#ArialMT-48"/>
      </g>
     </g>
    </g>
    <g id="xtick_8">
     <g id="text_14">
      <!-- 0.1 -->
      <g style="fill:#262626;" transform="translate(299.31571 144.789063)scale(0.1 -0.1)">
       <use xlink:href="#ArialMT-48"/>
       <use x="55.615234" xlink:href="#ArialMT-46"/>
       <use x="83.398438" xlink:href="#ArialMT-49"/>
      </g>
     </g>
    </g>
    <g id="xtick_9">
     <g id="text_15">
      <!-- 0.2 -->
      <g style="fill:#262626;" transform="translate(335.853962 144.789063)scale(0.1 -0.1)">
       <use xlink:href="#ArialMT-48"/>
       <use x="55.615234" xlink:href="#ArialMT-46"/>
       <use x="83.398438" xlink:href="#ArialMT-50"/>
      </g>
     </g>
    </g>
    <g id="xtick_10">
     <g id="text_16">
      <!-- 0.3 -->
      <g style="fill:#262626;" transform="translate(372.392213 144.789063)scale(0.1 -0.1)">
       <use xlink:href="#ArialMT-48"/>
       <use x="55.615234" xlink:href="#ArialMT-46"/>
       <use x="83.398438" xlink:href="#ArialMT-51"/>
      </g>
     </g>
    </g>
    <g id="xtick_11">
     <g id="text_17">
      <!-- 0.4 -->
      <g style="fill:#262626;" transform="translate(408.930465 144.789063)scale(0.1 -0.1)">
       <use xlink:href="#ArialMT-48"/>
       <use x="55.615234" xlink:href="#ArialMT-46"/>
       <use x="83.398438" xlink:href="#ArialMT-52"/>
      </g>
     </g>
    </g>
    <g id="xtick_12">
     <g id="text_18">
      <!-- 0.5 -->
      <g style="fill:#262626;" transform="translate(445.468717 144.789063)scale(0.1 -0.1)">
       <use xlink:href="#ArialMT-48"/>
       <use x="55.615234" xlink:href="#ArialMT-46"/>
       <use x="83.398438" xlink:href="#ArialMT-53"/>
      </g>
     </g>
    </g>
   </g>
   <g id="matplotlib.axis_4">
    <g id="ytick_6"/>
    <g id="ytick_7"/>
    <g id="ytick_8"/>
    <g id="ytick_9"/>
    <g id="ytick_10"/>
   </g>
   <g id="PolyCollection_2">
    <defs>
     <path d="M 273.381283 -77.932436 
L 273.381283 -4.407493 
L 275.189742 -5.36033 
L 276.998201 -7.148341 
L 278.80666 -7.560721 
L 280.615119 -8.617749 
L 282.423578 -8.24371 
L 284.232037 -10.061478 
L 286.040496 -12.954037 
L 287.848955 -12.224698 
L 289.657414 -9.845024 
L 291.465873 -14.806684 
L 293.274332 -13.714459 
L 295.08279 -11.948595 
L 296.891249 -18.394024 
L 298.699708 -17.94457 
L 300.508167 -20.120293 
L 302.316626 -19.841896 
L 304.125085 -17.624728 
L 305.933544 -19.392233 
L 307.742003 -23.762718 
L 309.550462 -20.246387 
L 311.358921 -19.663435 
L 313.16738 -20.218567 
L 314.975839 -17.457006 
L 316.784298 -20.324438 
L 318.592756 -20.126182 
L 320.401215 -21.104283 
L 322.209674 -21.945812 
L 324.018133 -16.726669 
L 325.826592 -19.11166 
L 327.635051 -19.193998 
L 329.44351 -20.467642 
L 331.251969 -23.193259 
L 333.060428 -22.5779 
L 334.868887 -15.960032 
L 336.677346 -20.52245 
L 338.485805 -23.257371 
L 340.294263 -19.179906 
L 342.102722 -15.259091 
L 343.911181 -21.966715 
L 345.71964 -17.203213 
L 347.528099 -22.921905 
L 349.336558 -16.67518 
L 351.145017 -21.745602 
L 352.953476 -24.045043 
L 354.761935 -22.648498 
L 356.570394 -22.693229 
L 358.378853 -25.826561 
L 360.187312 -25.908187 
L 361.995771 -18.943473 
L 363.804229 -22.528018 
L 365.612688 -25.242466 
L 367.421147 -16.338424 
L 369.229606 -21.612422 
L 371.038065 -25.493606 
L 372.846524 -24.482989 
L 374.654983 -19.341842 
L 376.463442 -23.358256 
L 378.271901 -23.990403 
L 380.08036 -25.145888 
L 381.888819 -23.767231 
L 383.697278 -26.377839 
L 385.505737 -25.064215 
L 387.314195 -23.826728 
L 389.122654 -28.046129 
L 390.931113 -26.787884 
L 392.739572 -25.754837 
L 394.548031 -27.837844 
L 396.35649 -23.338125 
L 398.164949 -27.254066 
L 399.973408 -27.0942 
L 401.781867 -27.074771 
L 403.590326 -27.041378 
L 405.398785 -28.673245 
L 407.207244 -26.50594 
L 409.015702 -23.711109 
L 410.824161 -24.912801 
L 412.63262 -24.762914 
L 414.441079 -25.440213 
L 416.249538 -23.500771 
L 418.057997 -34.300491 
L 419.866456 -29.966545 
L 421.674915 -28.576971 
L 423.483374 -21.809842 
L 425.291833 -22.173462 
L 427.100292 -33.684052 
L 428.908751 -31.242763 
L 430.71721 -32.394121 
L 432.525668 -33.552515 
L 434.334127 -28.804961 
L 436.142586 -29.177374 
L 437.951045 -29.919134 
L 439.759504 -31.889002 
L 441.567963 -26.481566 
L 443.376422 -35.0516 
L 445.184881 -30.620777 
L 446.99334 -32.284347 
L 448.801799 -25.089049 
L 450.610258 -28.790151 
L 452.418717 -36.279794 
L 452.418717 -103.302005 
L 452.418717 -103.302005 
L 450.610258 -95.83871 
L 448.801799 -99.152639 
L 446.99334 -104.716772 
L 445.184881 -108.011142 
L 443.376422 -111.32126 
L 441.567963 -99.378873 
L 439.759504 -104.764291 
L 437.951045 -106.79254 
L 436.142586 -102.9096 
L 434.334127 -104.41278 
L 432.525668 -100.513242 
L 430.71721 -97.88818 
L 428.908751 -100.443999 
L 427.100292 -98.961412 
L 425.291833 -109.028098 
L 423.483374 -99.840396 
L 421.674915 -94.486244 
L 419.866456 -96.982074 
L 418.057997 -95.300813 
L 416.249538 -99.512184 
L 414.441079 -98.05111 
L 412.63262 -99.4874 
L 410.824161 -97.563325 
L 409.015702 -87.284263 
L 407.207244 -84.772411 
L 405.398785 -91.875626 
L 403.590326 -94.412859 
L 401.781867 -80.999973 
L 399.973408 -92.287507 
L 398.164949 -91.43175 
L 396.35649 -91.368622 
L 394.548031 -87.521139 
L 392.739572 -78.733456 
L 390.931113 -94.714241 
L 389.122654 -71.12043 
L 387.314195 -78.520543 
L 385.505737 -73.889382 
L 383.697278 -73.451959 
L 381.888819 -81.132888 
L 380.08036 -80.056682 
L 378.271901 -79.815588 
L 376.463442 -86.650806 
L 374.654983 -72.729401 
L 372.846524 -68.979786 
L 371.038065 -77.710482 
L 369.229606 -77.416901 
L 367.421147 -73.913173 
L 365.612688 -71.018357 
L 363.804229 -66.749169 
L 361.995771 -77.661592 
L 360.187312 -70.044558 
L 358.378853 -64.362097 
L 356.570394 -75.538722 
L 354.761935 -72.847474 
L 352.953476 -59.717864 
L 351.145017 -70.468965 
L 349.336558 -70.76361 
L 347.528099 -61.401462 
L 345.71964 -73.853218 
L 343.911181 -55.523447 
L 342.102722 -66.395907 
L 340.294263 -62.856678 
L 338.485805 -55.361186 
L 336.677346 -53.949805 
L 334.868887 -59.118324 
L 333.060428 -52.213635 
L 331.251969 -45.690901 
L 329.44351 -55.399842 
L 327.635051 -50.100432 
L 325.826592 -56.235798 
L 324.018133 -54.74508 
L 322.209674 -47.349182 
L 320.401215 -50.561735 
L 318.592756 -48.397053 
L 316.784298 -52.420466 
L 314.975839 -52.719413 
L 313.16738 -44.957885 
L 311.358921 -43.866726 
L 309.550462 -45.668229 
L 307.742003 -42.803546 
L 305.933544 -47.380651 
L 304.125085 -46.751737 
L 302.316626 -46.845331 
L 300.508167 -50.495714 
L 298.699708 -47.565328 
L 296.891249 -43.782691 
L 295.08279 -53.227321 
L 293.274332 -54.322584 
L 291.465873 -51.617164 
L 289.657414 -58.986862 
L 287.848955 -56.781646 
L 286.040496 -56.044873 
L 284.232037 -62.102592 
L 282.423578 -65.522508 
L 280.615119 -66.199019 
L 278.80666 -69.112037 
L 276.998201 -70.65115 
L 275.189742 -74.852746 
L 273.381283 -77.932436 
z
" id="md1ccde49c0" style="stroke:#ffffff;stroke-opacity:0.1;"/>
    </defs>
    <g clip-path="url(#paf3f4becf7)">
     <use style="fill:#821580;fill-opacity:0.1;stroke:#ffffff;stroke-opacity:0.1;" x="0" xlink:href="#md1ccde49c0" y="153.976563"/>
    </g>
   </g>
   <g id="line2d_3">
    <path clip-path="url(#paf3f4becf7)" d="M 273.381283 112.806598 
L 275.189742 113.870025 
L 276.998201 115.076817 
L 278.80666 115.640184 
L 280.615119 116.568179 
L 282.423578 117.093454 
L 284.232037 117.894528 
L 286.040496 119.477107 
L 287.848955 119.47339 
L 289.657414 119.560619 
L 291.465873 120.764639 
L 293.274332 119.958041 
L 295.08279 121.388604 
L 296.891249 122.888205 
L 298.699708 121.221613 
L 300.508167 118.668559 
L 302.316626 120.632949 
L 304.125085 121.78833 
L 305.933544 120.59012 
L 307.742003 120.69343 
L 309.550462 121.019255 
L 311.358921 122.211482 
L 313.16738 121.388336 
L 314.975839 118.888353 
L 316.784298 117.604111 
L 318.592756 119.714945 
L 320.401215 118.143554 
L 322.209674 119.329065 
L 324.018133 118.240688 
L 325.826592 116.302834 
L 327.635051 119.329347 
L 329.44351 116.042821 
L 331.251969 119.534483 
L 333.060428 116.580795 
L 334.868887 116.437385 
L 336.677346 116.740435 
L 338.485805 114.667284 
L 340.294263 112.95827 
L 342.102722 113.149064 
L 343.911181 115.231482 
L 345.71964 108.448347 
L 347.528099 111.814879 
L 349.336558 110.257167 
L 351.145017 107.869279 
L 352.953476 112.095109 
L 354.761935 106.228577 
L 356.570394 104.860587 
L 358.378853 108.882234 
L 360.187312 106.00019 
L 361.995771 105.67403 
L 363.804229 109.337969 
L 365.612688 105.846151 
L 367.421147 108.850764 
L 369.229606 104.461901 
L 371.038065 102.374519 
L 372.846524 107.245175 
L 374.654983 107.940941 
L 376.463442 98.972031 
L 378.271901 102.073567 
L 380.08036 101.375277 
L 381.888819 101.526503 
L 383.697278 104.061663 
L 385.505737 104.499764 
L 387.314195 102.802927 
L 389.122654 104.393283 
L 390.931113 93.2255 
L 392.739572 101.732416 
L 394.548031 96.297071 
L 396.35649 96.623189 
L 398.164949 94.633655 
L 399.973408 94.285709 
L 401.781867 99.939191 
L 403.590326 93.249444 
L 405.398785 93.702127 
L 407.207244 98.337387 
L 409.015702 98.478876 
L 410.824161 92.738499 
L 412.63262 91.851405 
L 414.441079 92.230901 
L 416.249538 92.470085 
L 418.057997 89.175911 
L 419.866456 90.502253 
L 421.674915 92.444955 
L 423.483374 93.151443 
L 425.291833 88.375783 
L 427.100292 87.653831 
L 428.908751 88.133181 
L 430.71721 88.835412 
L 432.525668 86.943684 
L 434.334127 87.367692 
L 436.142586 87.933075 
L 437.951045 85.620725 
L 439.759504 85.649916 
L 441.567963 91.046343 
L 443.376422 80.790132 
L 445.184881 84.660603 
L 446.99334 85.476003 
L 448.801799 91.855718 
L 450.610258 91.662132 
L 452.418717 84.185663 
" style="fill:none;stroke:#821580;stroke-linecap:round;stroke-width:1.5;"/>
   </g>
   <g id="line2d_4">
    <path clip-path="url(#paf3f4becf7)" d="M 264.429412 122.11381 
L 461.370588 122.11381 
" style="fill:none;stroke:#000000;stroke-dasharray:5.55,2.4;stroke-dashoffset:0;stroke-width:1.5;"/>
   </g>
   <g id="patch_6">
    <path d="M 264.429412 130.63125 
L 264.429412 21.91125 
" style="fill:none;stroke:#cccccc;stroke-linecap:square;stroke-linejoin:miter;stroke-width:0.8;"/>
   </g>
   <g id="patch_7">
    <path d="M 264.429412 130.63125 
L 461.370588 130.63125 
" style="fill:none;stroke:#cccccc;stroke-linecap:square;stroke-linejoin:miter;stroke-width:0.8;"/>
   </g>
   <g id="text_19">
    <!-- Probability weighted -->
    <defs>
     <path d="M 63.59375 51.203125 
Q 63.59375 57.203125 60.6875 61.59375 
Q 57.796875 66 53.40625 68.40625 
Q 48.90625 70.90625 43.796875 71.546875 
Q 38.703125 72.203125 32.09375 72.203125 
Q 30.296875 72.203125 27.59375 72.203125 
Q 25 72.203125 22.046875 72.140625 
Q 19.09375 72.09375 16.09375 72.09375 
Q 13.09375 72.09375 10.546875 72.046875 
Q 8 72 6.09375 72 
Q 4.296875 72 3.703125 72 
L 3.703125 71 
Q 6.40625 70.59375 8.75 70.046875 
Q 11.09375 69.5 12.59375 67.90625 
Q 13.203125 67.296875 13.546875 65.9375 
Q 13.90625 64.59375 14.046875 62.9375 
Q 14.203125 61.296875 14.25 59.4375 
Q 14.296875 57.59375 14.296875 55.796875 
L 14.296875 36.296875 
Q 14.296875 33.59375 14.296875 30.5 
Q 14.296875 27.5 14.25 24.640625 
Q 14.203125 21.796875 14.140625 19.390625 
Q 14.09375 17 14.09375 15.59375 
Q 14.09375 14 14 12.296875 
Q 13.90625 10.59375 13.75 9.09375 
Q 13.59375 7.59375 13.296875 6.390625 
Q 13 5.203125 12.5 4.59375 
Q 11.203125 3 8.890625 2.203125 
Q 6.59375 1.40625 4.09375 1 
L 4.09375 0 
L 36.09375 0 
L 36.09375 1 
Q 32 1.203125 29.703125 2.5 
Q 27.40625 3.796875 26.59375 5.09375 
Q 25.59375 6.59375 25.5 8.890625 
Q 25.40625 11.203125 25.296875 14.40625 
Q 25.296875 16.09375 25.25 17.546875 
Q 25.203125 19 25.203125 20.703125 
Q 25.203125 22.40625 25.203125 24.59375 
Q 25.203125 26.90625 25.203125 30.09375 
Q 27.59375 30.09375 30.59375 30.09375 
Q 33.703125 30.09375 36.953125 30.34375 
Q 40.203125 30.59375 43.390625 31.09375 
Q 46.59375 31.59375 49.40625 32.59375 
Q 52.09375 33.59375 54.6875 35.25 
Q 57.296875 36.90625 59.25 39.203125 
Q 61.203125 41.5 62.390625 44.5 
Q 63.59375 47.5 63.59375 51.203125 
z
M 52.796875 51.703125 
Q 52.796875 45.40625 49.390625 40.34375 
Q 46 35.296875 39.59375 33.09375 
Q 36.5 32 32.890625 31.75 
Q 29.296875 31.5 25.203125 31.5 
Q 25.203125 32.296875 25.203125 35.90625 
Q 25.203125 39.5 25.203125 44.296875 
Q 25.203125 49.09375 25.25 54.09375 
Q 25.296875 59.09375 25.40625 62.59375 
Q 25.5 64.90625 25.59375 66.15625 
Q 25.703125 67.40625 25.796875 68.09375 
Q 25.90625 68.796875 26.046875 69.25 
Q 26.203125 69.703125 26.296875 70.296875 
Q 27 70.40625 28.140625 70.546875 
Q 29.296875 70.703125 31.40625 70.703125 
Q 34.296875 70.703125 37 70.296875 
Q 39.703125 69.90625 42.09375 68.796875 
Q 46.90625 66.5 49.84375 62 
Q 52.796875 57.5 52.796875 51.703125 
z
" id="BigCaslon-Medium-80"/>
     <path d="M 51.90625 24.203125 
Q 51.90625 28.90625 50.59375 33.25 
Q 49.296875 37.59375 46.796875 40.9375 
Q 44.296875 44.296875 40.6875 46.296875 
Q 37.09375 48.296875 32.40625 48.296875 
Q 29.59375 48.296875 26.796875 47.296875 
Q 24 46.296875 21.640625 44.640625 
Q 19.296875 43 17.5 41 
Q 15.703125 39 14.796875 36.90625 
L 14.59375 37 
L 14.90625 72.59375 
L 14.09375 72.59375 
L 0.703125 66.5 
L 0.703125 65.90625 
Q 2.40625 65 4 64.09375 
Q 5.59375 63.203125 6.5 62.59375 
L 6.5 0.296875 
L 7.203125 0.296875 
L 9.59375 5.703125 
L 10.09375 5.703125 
Q 13.296875 3 18 1.453125 
Q 22.703125 -0.09375 28.40625 -0.09375 
Q 33.5 -0.09375 37.796875 1.75 
Q 42.09375 3.59375 45.25 6.890625 
Q 48.40625 10.203125 50.15625 14.640625 
Q 51.90625 19.09375 51.90625 24.203125 
z
M 42.703125 22.796875 
Q 42.703125 18.203125 41.703125 14.25 
Q 40.703125 10.296875 38.84375 7.390625 
Q 37 4.5 34.453125 2.890625 
Q 31.90625 1.296875 28.703125 1.296875 
Q 25 1.296875 22.390625 2.84375 
Q 19.796875 4.40625 18.140625 6.953125 
Q 16.5 9.5 15.703125 12.75 
Q 14.90625 16 14.796875 19.296875 
Q 14.703125 21.203125 14.703125 23.09375 
Q 14.703125 25.09375 14.703125 27.09375 
Q 14.703125 28.5 14.703125 30.703125 
Q 14.703125 33 14.796875 34.203125 
Q 14.796875 34.796875 15.546875 36.09375 
Q 16.296875 37.40625 17.75 38.703125 
Q 19.203125 40 21.453125 41 
Q 23.703125 42 26.796875 42 
Q 30.90625 42 33.90625 40.390625 
Q 36.90625 38.796875 38.84375 36.140625 
Q 40.796875 33.5 41.75 30.046875 
Q 42.703125 26.59375 42.703125 22.796875 
z
" id="BigCaslon-Medium-98"/>
     <path d="M 46.5 9.796875 
L 45.90625 9.796875 
Q 45.5 8.296875 44.390625 7.34375 
Q 43.296875 6.40625 41 6.40625 
Q 39 6.40625 37.453125 7.84375 
Q 35.90625 9.296875 35.90625 13.796875 
Q 35.90625 17.203125 35.953125 20.046875 
Q 36 22.90625 36 25.59375 
Q 36 28.296875 36.046875 31.1875 
Q 36.09375 34.09375 36.09375 37.703125 
Q 36.09375 39.40625 36 41.15625 
Q 35.90625 42.90625 35.5 43.59375 
Q 34.5 45.59375 32.203125 46.9375 
Q 29.90625 48.296875 27.296875 48.296875 
Q 26 48.296875 23.953125 47.6875 
Q 21.90625 47.09375 19.453125 46.09375 
Q 17 45.09375 14.296875 43.6875 
Q 11.59375 42.296875 9 40.796875 
Q 8.203125 40.296875 7.140625 39.6875 
Q 6.09375 39.09375 5.1875 38.296875 
Q 4.296875 37.5 3.6875 36.5 
Q 3.09375 35.5 3.09375 34.296875 
Q 3.09375 32.796875 4.25 31.640625 
Q 5.40625 30.5 7 30.5 
Q 8.703125 30.5 10.140625 31.59375 
Q 11.59375 32.703125 11.59375 34.09375 
L 11.59375 38.59375 
Q 11.59375 39.203125 12.296875 40.046875 
Q 13 40.90625 14.203125 41.75 
Q 15.40625 42.59375 16.953125 43.140625 
Q 18.5 43.703125 20.09375 43.703125 
Q 22.5 43.703125 24 43.046875 
Q 25.5 42.40625 26.34375 41.59375 
Q 27.203125 40.796875 27.546875 40.046875 
Q 27.90625 39.296875 27.90625 39.09375 
L 27.90625 28.796875 
Q 26.90625 28.203125 25.453125 27.453125 
Q 24 26.703125 22.09375 25.640625 
Q 20.203125 24.59375 17.640625 23.09375 
Q 15.09375 21.59375 11.796875 19.5 
Q 8.5 17.40625 6.25 14.796875 
Q 4 12.203125 4 9.40625 
Q 4 6.796875 4.84375 5 
Q 5.703125 3.203125 7.046875 2.046875 
Q 8.40625 0.90625 10.046875 0.453125 
Q 11.703125 0 13.296875 0 
Q 16 0 18.25 0.84375 
Q 20.5 1.703125 22.34375 3.09375 
Q 24.203125 4.5 25.546875 6.09375 
Q 26.90625 7.703125 27.703125 9 
L 27.90625 8.90625 
Q 27.90625 3.90625 30.546875 1.90625 
Q 33.203125 -0.09375 36.59375 -0.09375 
Q 38.703125 -0.09375 40.453125 0.65625 
Q 42.203125 1.40625 43.5 2.84375 
Q 44.796875 4.296875 45.59375 6.09375 
Q 46.40625 7.90625 46.5 9.796875 
z
M 27.90625 11.796875 
Q 27.90625 10.09375 26.703125 9 
Q 25 7.296875 23 6.6875 
Q 21 6.09375 18.40625 6.09375 
Q 15.5 6.09375 13.703125 8.1875 
Q 11.90625 10.296875 11.90625 12.90625 
Q 11.90625 15.5 13.75 17.546875 
Q 15.59375 19.59375 18.140625 21.296875 
Q 20.703125 23 23.390625 24.453125 
Q 26.09375 25.90625 27.90625 27.203125 
z
" id="BigCaslon-Medium-97"/>
     <path d="M 24 0 
L 24 1.09375 
Q 22.09375 1.296875 20.6875 1.34375 
Q 19.296875 1.40625 18.390625 1.59375 
Q 17.5 1.796875 17.046875 2.296875 
Q 16.59375 2.796875 16.59375 3.796875 
L 16.59375 72.296875 
L 15.90625 72.296875 
L 1.59375 67.59375 
L 1.59375 67 
Q 2.796875 66.5 4.59375 65.453125 
Q 6.40625 64.40625 7.296875 63.90625 
Q 8 63.40625 8.140625 63 
Q 8.296875 62.59375 8.296875 61.796875 
L 8.296875 4.296875 
Q 8.296875 2.703125 6.796875 2.046875 
Q 5.296875 1.40625 0.703125 1.09375 
L 0.703125 0 
z
" id="BigCaslon-Medium-108"/>
     <path d="M 35.09375 47.296875 
L 16.59375 47.296875 
L 16.59375 56 
L 15.796875 56 
L 1.296875 42.296875 
L 1.296875 41.203125 
L 8.59375 41.203125 
Q 8.59375 34.59375 8.5 26.140625 
Q 8.40625 17.703125 8.40625 8.296875 
Q 8.40625 6.703125 9.34375 5.140625 
Q 10.296875 3.59375 11.796875 2.34375 
Q 13.296875 1.09375 15.25 0.4375 
Q 17.203125 -0.203125 19.296875 -0.203125 
Q 22.5 -0.203125 24.84375 0.546875 
Q 27.203125 1.296875 28.953125 2.640625 
Q 30.703125 4 31.75 5.640625 
Q 32.796875 7.296875 33.40625 8.796875 
L 32.796875 9.09375 
Q 31.40625 7.09375 29.5 6.140625 
Q 27.59375 5.203125 24.703125 5.203125 
Q 21.203125 5.203125 19 7.5 
Q 16.796875 9.796875 16.796875 14.90625 
L 16.796875 41.203125 
L 32 41.203125 
z
" id="BigCaslon-Medium-116"/>
     <path d="M 44.296875 46.203125 
L 44.296875 47.296875 
L 28.90625 47.296875 
L 28.90625 46.203125 
Q 29.796875 46.09375 30.796875 46 
Q 31.796875 45.90625 32.640625 45.59375 
Q 33.5 45.296875 34 44.75 
Q 34.5 44.203125 34.5 43.296875 
Q 34.5 42.703125 33.84375 40.25 
Q 33.203125 37.796875 32.203125 34.34375 
Q 31.203125 30.90625 30 27 
Q 28.796875 23.09375 27.6875 19.546875 
Q 26.59375 16 25.796875 13.390625 
Q 25 10.796875 24.703125 10 
Q 23.796875 12.40625 22.59375 15.65625 
Q 21.40625 18.90625 20.15625 22.40625 
Q 18.90625 25.90625 17.65625 29.34375 
Q 16.40625 32.796875 15.40625 35.6875 
Q 14.40625 38.59375 13.796875 40.546875 
Q 13.203125 42.5 13.203125 43 
Q 13.203125 44.90625 14.75 45.40625 
Q 16.296875 45.90625 18.40625 46.203125 
L 18.40625 47.296875 
L -3.40625 47.296875 
L -3.40625 46.203125 
Q 0 46 1.25 45.390625 
Q 2.5 44.796875 3.40625 43.796875 
Q 4.90625 39.703125 6.703125 34.796875 
Q 8.5 29.90625 10.34375 24.84375 
Q 12.203125 19.796875 14 15 
Q 15.796875 10.203125 17.1875 6.34375 
Q 18.59375 2.5 19.5 0.046875 
Q 20.40625 -2.40625 20.59375 -2.796875 
Q 20.5 -3.296875 20.09375 -4.796875 
Q 19.703125 -6.296875 19.046875 -8.4375 
Q 18.40625 -10.59375 17.546875 -13.25 
Q 16.703125 -15.90625 15.59375 -18.59375 
L 15.40625 -18.59375 
Q 14 -17.296875 12.640625 -16.09375 
Q 11.296875 -14.90625 9.296875 -14.90625 
Q 7.296875 -14.90625 6.09375 -16.203125 
Q 4.90625 -17.5 4.90625 -19.5 
Q 4.90625 -21.5 6.59375 -22.75 
Q 8.296875 -24 10.296875 -24 
Q 12.59375 -24 14.796875 -22.296875 
Q 17 -20.59375 18.203125 -16.796875 
Q 19.90625 -11.5 21.75 -5.59375 
Q 23.59375 0.296875 25.4375 6.296875 
Q 27.296875 12.296875 29.09375 18 
Q 30.90625 23.703125 32.40625 28.453125 
Q 33.90625 33.203125 35 36.703125 
Q 36.09375 40.203125 36.59375 41.796875 
Q 37.09375 43.40625 37.890625 44.25 
Q 38.703125 45.09375 39.75 45.5 
Q 40.796875 45.90625 41.9375 46 
Q 43.09375 46.09375 44.296875 46.203125 
z
" id="BigCaslon-Medium-121"/>
     <path id="BigCaslon-Medium-32"/>
     <path d="M 76.5 46.203125 
L 76.5 47.296875 
L 58.203125 47.296875 
L 58.203125 46.203125 
Q 59.09375 46.09375 60.1875 46 
Q 61.296875 45.90625 62.25 45.546875 
Q 63.203125 45.203125 63.84375 44.453125 
Q 64.5 43.703125 64.5 42.296875 
Q 64.5 41.40625 63.796875 39.09375 
Q 63.09375 36.796875 62.046875 33.84375 
Q 61 30.90625 59.640625 27.546875 
Q 58.296875 24.203125 57.046875 21.046875 
Q 55.796875 17.90625 54.6875 15.34375 
Q 53.59375 12.796875 53 11.5 
Q 52.09375 13.90625 50.9375 17.046875 
Q 49.796875 20.203125 48.59375 23.5 
Q 47.40625 26.796875 46.25 30.09375 
Q 45.09375 33.40625 44.1875 36.09375 
Q 43.296875 38.796875 42.75 40.640625 
Q 42.203125 42.5 42.203125 43 
Q 42.203125 44.09375 43.046875 44.640625 
Q 43.90625 45.203125 45.046875 45.5 
Q 46.203125 45.796875 47.390625 45.9375 
Q 48.59375 46.09375 49.40625 46.203125 
L 49.40625 47.296875 
L 26.59375 47.296875 
L 26.59375 46.203125 
Q 28.40625 46.09375 29.40625 45.84375 
Q 30.40625 45.59375 30.953125 45.25 
Q 31.5 44.90625 31.75 44.546875 
Q 32 44.203125 32.296875 43.90625 
Q 33.296875 42.09375 34.09375 40.25 
Q 34.90625 38.40625 35.59375 36.40625 
Q 34.296875 32.796875 32.9375 29.09375 
Q 31.59375 25.40625 30.296875 22 
Q 29 18.59375 27.890625 15.796875 
Q 26.796875 13 26 11 
Q 24.09375 15.59375 21.796875 21.09375 
Q 19.5 26.59375 17.5 31.5 
Q 15.5 36.40625 14.140625 39.953125 
Q 12.796875 43.5 12.59375 44.296875 
Q 13.09375 44.796875 13.9375 45.09375 
Q 14.796875 45.40625 15.75 45.65625 
Q 16.703125 45.90625 17.640625 46 
Q 18.59375 46.09375 19.296875 46.203125 
L 19.296875 47.296875 
L -3.203125 47.296875 
L -3.203125 46.203125 
Q 0.09375 46.09375 1.25 45.34375 
Q 2.40625 44.59375 3 44.09375 
Q 3.796875 42.796875 4.546875 41.140625 
Q 5.296875 39.5 5.90625 38.09375 
Q 10.09375 28 13.796875 19 
Q 17.5 10 21.40625 0.5 
Q 21.796875 -0.203125 22.296875 -0.203125 
Q 22.90625 -0.203125 23.296875 0.40625 
Q 24.296875 2.59375 25 4.5 
Q 25.703125 6.40625 27.09375 9.09375 
L 36.59375 33.90625 
Q 38.59375 28.09375 40.09375 23.59375 
Q 41.59375 19.09375 42.890625 15.296875 
Q 44.203125 11.5 45.390625 7.953125 
Q 46.59375 4.40625 47.90625 0.5 
Q 48 0.203125 48.140625 0 
Q 48.296875 -0.203125 48.796875 -0.203125 
Q 49.296875 -0.203125 49.703125 0.40625 
Q 50.296875 1.59375 50.75 2.59375 
Q 51.203125 3.59375 51.703125 4.640625 
Q 52.203125 5.703125 52.796875 7.046875 
Q 53.40625 8.40625 54.296875 10.296875 
Q 55.703125 13.796875 57.453125 17.84375 
Q 59.203125 21.90625 60.953125 26 
Q 62.703125 30.09375 64.34375 33.84375 
Q 66 37.59375 67.203125 40.40625 
Q 68.09375 42.5 69.25 43.640625 
Q 70.40625 44.796875 71.59375 45.34375 
Q 72.796875 45.90625 74.046875 46 
Q 75.296875 46.09375 76.5 46.203125 
z
" id="BigCaslon-Medium-119"/>
     <path d="M 43.296875 15.203125 
L 42.5 15.40625 
Q 41.296875 11.703125 37.546875 9.140625 
Q 33.796875 6.59375 28.796875 6.59375 
Q 24.203125 6.59375 20.703125 8.296875 
Q 17.203125 10 14.890625 12.953125 
Q 12.59375 15.90625 11.390625 19.75 
Q 10.203125 23.59375 10.203125 27.796875 
Q 10.203125 28.90625 10.296875 29.953125 
Q 10.40625 31 10.40625 31.796875 
L 42.5 31.796875 
Q 42.203125 36 40.59375 39.09375 
Q 39 42.203125 36.453125 44.25 
Q 33.90625 46.296875 30.453125 47.296875 
Q 27 48.296875 23.09375 48.296875 
Q 18.296875 48.296875 14.34375 46.25 
Q 10.40625 44.203125 7.65625 40.890625 
Q 4.90625 37.59375 3.40625 33.4375 
Q 1.90625 29.296875 1.90625 25.09375 
Q 1.90625 19.90625 3.5 15.25 
Q 5.09375 10.59375 8.046875 7.140625 
Q 11 3.703125 15.203125 1.796875 
Q 19.40625 -0.09375 24.5 -0.09375 
Q 28.59375 -0.09375 31.9375 1.40625 
Q 35.296875 2.90625 37.6875 5.203125 
Q 40.09375 7.5 41.5 10.25 
Q 42.90625 13 43.296875 15.203125 
z
M 32.59375 37.59375 
Q 32.59375 36.203125 32.25 35.5 
Q 31.90625 34.796875 31.203125 34 
Q 30.203125 33.59375 28.890625 33.5 
Q 27.59375 33.40625 26.09375 33.40625 
Q 23.796875 33.40625 21.890625 33.34375 
Q 20 33.296875 18.25 33.25 
Q 16.5 33.203125 14.703125 33.203125 
Q 12.90625 33.203125 10.59375 33.203125 
Q 10.796875 34.40625 11.6875 36.65625 
Q 12.59375 38.90625 14.25 41.09375 
Q 15.90625 43.296875 18.15625 44.9375 
Q 20.40625 46.59375 23.203125 46.59375 
Q 27.5 46.59375 30.046875 43.9375 
Q 32.59375 41.296875 32.59375 37.59375 
z
" id="BigCaslon-Medium-101"/>
     <path d="M 53.5 42.796875 
Q 53.5 44.5 52.390625 45.703125 
Q 51.296875 46.90625 49.59375 46.90625 
Q 48.40625 46.90625 47.5 46.546875 
Q 46.59375 46.203125 45.796875 45.75 
Q 45 45.296875 44.046875 44.9375 
Q 43.09375 44.59375 41.90625 44.59375 
Q 40.703125 44.59375 39.84375 44.6875 
Q 39 44.796875 37.796875 45.203125 
Q 34.59375 46.90625 31.640625 47.59375 
Q 28.703125 48.296875 24.90625 48.296875 
Q 20.703125 48.296875 17.140625 47.09375 
Q 13.59375 45.90625 11 43.84375 
Q 8.40625 41.796875 6.953125 39 
Q 5.5 36.203125 5.5 33 
Q 5.5 27.90625 7.953125 24.59375 
Q 10.40625 21.296875 14.796875 19.59375 
L 14.796875 19.296875 
Q 12.296875 19 10.140625 18.046875 
Q 8 17.09375 6.390625 15.6875 
Q 4.796875 14.296875 3.890625 12.59375 
Q 3 10.90625 3 9 
Q 3 5.203125 5.75 2.890625 
Q 8.5 0.59375 13.59375 0 
L 13.59375 -0.203125 
Q 11.5 -1.5 9.34375 -2.84375 
Q 7.203125 -4.203125 5.453125 -5.75 
Q 3.703125 -7.296875 2.546875 -9 
Q 1.40625 -10.703125 1.40625 -12.796875 
Q 1.40625 -18.5 7.453125 -21.75 
Q 13.5 -25 24.40625 -25 
Q 30.09375 -25 34.84375 -23.453125 
Q 39.59375 -21.90625 43.09375 -19.203125 
Q 46.59375 -16.5 48.546875 -12.953125 
Q 50.5 -9.40625 50.5 -5.5 
Q 50.5 -2.5 49.453125 -0.046875 
Q 48.40625 2.40625 46.40625 4.296875 
Q 44.40625 6.203125 41.59375 7.296875 
Q 38.796875 8.40625 35.296875 8.40625 
L 19.296875 8.40625 
Q 17.59375 8.40625 15.796875 8.59375 
Q 14 8.796875 12.5 9.390625 
Q 11 10 10 11.046875 
Q 9 12.09375 9 13.703125 
Q 9 15.703125 10.890625 17 
Q 12.796875 18.296875 16 18.5 
Q 18 18.5 19.453125 18.296875 
Q 20.90625 18.09375 22.296875 18.09375 
Q 32 18.09375 37.5 22.046875 
Q 43 26 43 33.90625 
Q 43 37.09375 41.953125 39.09375 
Q 40.90625 41.09375 39.40625 43.40625 
L 39.796875 43.796875 
Q 41 43.09375 42.5 42.25 
Q 44 41.40625 45.453125 40.703125 
Q 46.90625 40 48.09375 39.5 
Q 49.296875 39 49.90625 39 
Q 51.40625 39 52.453125 40.140625 
Q 53.5 41.296875 53.5 42.796875 
z
M 35 33.90625 
Q 35 31.09375 34.296875 28.546875 
Q 33.59375 26 32.1875 24 
Q 30.796875 22 28.75 20.796875 
Q 26.703125 19.59375 24 19.59375 
Q 19.59375 19.59375 16.546875 23.25 
Q 13.5 26.90625 13.5 32.90625 
Q 13.5 35.5 14.203125 38 
Q 14.90625 40.5 16.25 42.453125 
Q 17.59375 44.40625 19.59375 45.546875 
Q 21.59375 46.703125 24.09375 46.703125 
Q 26.796875 46.703125 28.84375 45.640625 
Q 30.90625 44.59375 32.25 42.84375 
Q 33.59375 41.09375 34.296875 38.796875 
Q 35 36.5 35 33.90625 
z
M 43.796875 -9.59375 
Q 43.796875 -13.90625 41.140625 -17 
Q 38.5 -20.09375 35 -21.5 
Q 33.296875 -22.09375 31.140625 -22.390625 
Q 29 -22.703125 26 -22.703125 
Q 23.5 -22.703125 20.546875 -21.890625 
Q 17.59375 -21.09375 15 -19.4375 
Q 12.40625 -17.796875 10.65625 -15.390625 
Q 8.90625 -13 8.90625 -9.796875 
Q 8.90625 -6.703125 10.703125 -4.09375 
Q 12.5 -1.5 17.203125 -0.296875 
Q 18.59375 -0.09375 20.796875 0.09375 
Q 23 0.296875 25.09375 0.296875 
Q 30.90625 0.296875 34.203125 -0.140625 
Q 37.5 -0.59375 39.703125 -1.703125 
Q 41.40625 -2.5 42.59375 -4.59375 
Q 43.796875 -6.703125 43.796875 -9.59375 
z
" id="BigCaslon-Medium-103"/>
     <path d="M 51.40625 0 
L 51.40625 0.90625 
Q 50.5 1 49.5 1.140625 
Q 48.5 1.296875 47.59375 1.546875 
Q 46.703125 1.796875 46.09375 2.296875 
Q 45.5 2.796875 45.5 3.5 
L 45.5 33 
Q 45.5 36.296875 44.953125 39.09375 
Q 44.40625 41.90625 43.046875 43.953125 
Q 41.703125 46 39.453125 47.140625 
Q 37.203125 48.296875 33.90625 48.296875 
Q 30.5 48.296875 27.640625 47.140625 
Q 24.796875 46 22.59375 44.390625 
Q 20.40625 42.796875 18.953125 41 
Q 17.5 39.203125 16.796875 37.796875 
L 16.59375 37.90625 
L 16.90625 72.59375 
L 16.09375 72.59375 
L 2.703125 66.5 
L 2.703125 65.90625 
Q 4 65.09375 5.34375 64.4375 
Q 6.703125 63.796875 7.5 63.09375 
Q 8.203125 62.59375 8.34375 62.1875 
Q 8.5 61.796875 8.5 61 
L 8.5 4.203125 
Q 8.5 2.296875 6.640625 1.75 
Q 4.796875 1.203125 2.5 1 
L 2.5 0 
L 22.40625 0 
L 22.40625 1 
Q 21.40625 1.203125 20.40625 1.296875 
Q 19.40625 1.40625 18.59375 1.65625 
Q 17.796875 1.90625 17.296875 2.40625 
Q 16.796875 2.90625 16.796875 3.796875 
L 16.796875 34.5 
Q 16.796875 35.296875 17.140625 36.25 
Q 17.5 37.203125 17.703125 37.5 
Q 19.203125 39.703125 21.703125 41 
Q 24.203125 42.296875 27.796875 42.296875 
Q 30.59375 42.296875 32.390625 41.296875 
Q 34.203125 40.296875 35.25 38.5 
Q 36.296875 36.703125 36.6875 34.203125 
Q 37.09375 31.703125 37.09375 28.796875 
L 37.09375 3.796875 
Q 37.09375 2.203125 35.296875 1.75 
Q 33.5 1.296875 30.796875 1.09375 
L 30.796875 0 
z
" id="BigCaslon-Medium-104"/>
     <path d="M 53.296875 3.90625 
L 53.296875 4.59375 
Q 51.40625 5.40625 49.203125 6.296875 
Q 47 7.203125 46.203125 7.703125 
L 46.203125 72.59375 
L 45.40625 72.59375 
L 29.5 68.203125 
L 29.5 67.59375 
L 37.703125 64.5 
Q 37.703125 63.40625 37.703125 61 
Q 37.703125 58.703125 37.703125 56 
Q 37.703125 53.296875 37.75 50.6875 
Q 37.796875 48.09375 37.90625 46.59375 
Q 35.703125 47.296875 33.046875 47.796875 
Q 30.40625 48.296875 27.40625 48.296875 
Q 21.703125 48.296875 17 46.390625 
Q 12.296875 44.5 8.9375 41.140625 
Q 5.59375 37.796875 3.75 33.296875 
Q 1.90625 28.796875 1.90625 23.59375 
Q 1.90625 17.796875 3.5 13.34375 
Q 5.09375 8.90625 7.796875 5.84375 
Q 10.5 2.796875 13.953125 1.34375 
Q 17.40625 -0.09375 21.09375 -0.09375 
Q 27 -0.09375 30.953125 2.296875 
Q 34.90625 4.703125 37.796875 9.703125 
L 37.90625 9.703125 
L 37.90625 -0.296875 
L 38.5 -0.296875 
z
M 37.796875 13.5 
Q 37 9.203125 34.046875 6.390625 
Q 31.09375 3.59375 27 3.59375 
Q 23.09375 3.59375 20.140625 5.390625 
Q 17.203125 7.203125 15.203125 10.140625 
Q 13.203125 13.09375 12.203125 16.9375 
Q 11.203125 20.796875 11.203125 24.90625 
Q 11.203125 29 12.046875 32.890625 
Q 12.90625 36.796875 14.703125 39.796875 
Q 16.5 42.796875 19.25 44.59375 
Q 22 46.40625 25.90625 46.40625 
Q 28.796875 46.40625 32.1875 43.90625 
Q 35.59375 41.40625 37.796875 37.296875 
z
" id="BigCaslon-Medium-100"/>
    </defs>
    <g style="fill:#262626;" transform="translate(311.695625 15.91125)scale(0.12 -0.12)">
     <use xlink:href="#BigCaslon-Medium-80"/>
     <use x="65.599991" xlink:href="#BigCaslon-Medium-114"/>
     <use x="101.299988" xlink:href="#BigCaslon-Medium-111"/>
     <use x="152.399979" xlink:href="#BigCaslon-Medium-98"/>
     <use x="206.199966" xlink:href="#BigCaslon-Medium-97"/>
     <use x="250.999954" xlink:href="#BigCaslon-Medium-98"/>
     <use x="304.799942" xlink:href="#BigCaslon-Medium-105"/>
     <use x="330.199936" xlink:href="#BigCaslon-Medium-108"/>
     <use x="354.799927" xlink:href="#BigCaslon-Medium-105"/>
     <use x="380.199921" xlink:href="#BigCaslon-Medium-116"/>
     <use x="412.599915" xlink:href="#BigCaslon-Medium-121"/>
     <use x="454.199905" xlink:href="#BigCaslon-Medium-32"/>
     <use x="475.19989" xlink:href="#BigCaslon-Medium-119"/>
     <use x="549.099884" xlink:href="#BigCaslon-Medium-101"/>
     <use x="592.599869" xlink:href="#BigCaslon-Medium-105"/>
     <use x="617.999863" xlink:href="#BigCaslon-Medium-103"/>
     <use x="670.499847" xlink:href="#BigCaslon-Medium-104"/>
     <use x="722.899841" xlink:href="#BigCaslon-Medium-116"/>
     <use x="755.299835" xlink:href="#BigCaslon-Medium-101"/>
     <use x="798.79982" xlink:href="#BigCaslon-Medium-100"/>
    </g>
   </g>
  </g>
  <g id="axes_3">
   <g id="patch_8">
    <path d="M 500.758824 130.63125 
L 697.7 130.63125 
L 697.7 21.91125 
L 500.758824 21.91125 
z
" style="fill:none;"/>
   </g>
   <g id="matplotlib.axis_5">
    <g id="xtick_13">
     <g id="text_20">
      <!-- 0.0 -->
      <g style="fill:#262626;" transform="translate(499.10687 144.789063)scale(0.1 -0.1)">
       <use xlink:href="#ArialMT-48"/>
       <use x="55.615234" xlink:href="#ArialMT-46"/>
       <use x="83.398438" xlink:href="#ArialMT-48"/>
      </g>
     </g>
    </g>
    <g id="xtick_14">
     <g id="text_21">
      <!-- 0.1 -->
      <g style="fill:#262626;" transform="translate(535.645122 144.789063)scale(0.1 -0.1)">
       <use xlink:href="#ArialMT-48"/>
       <use x="55.615234" xlink:href="#ArialMT-46"/>
       <use x="83.398438" xlink:href="#ArialMT-49"/>
      </g>
     </g>
    </g>
    <g id="xtick_15">
     <g id="text_22">
      <!-- 0.2 -->
      <g style="fill:#262626;" transform="translate(572.183373 144.789063)scale(0.1 -0.1)">
       <use xlink:href="#ArialMT-48"/>
       <use x="55.615234" xlink:href="#ArialMT-46"/>
       <use x="83.398438" xlink:href="#ArialMT-50"/>
      </g>
     </g>
    </g>
    <g id="xtick_16">
     <g id="text_23">
      <!-- 0.3 -->
      <g style="fill:#262626;" transform="translate(608.721625 144.789063)scale(0.1 -0.1)">
       <use xlink:href="#ArialMT-48"/>
       <use x="55.615234" xlink:href="#ArialMT-46"/>
       <use x="83.398438" xlink:href="#ArialMT-51"/>
      </g>
     </g>
    </g>
    <g id="xtick_17">
     <g id="text_24">
      <!-- 0.4 -->
      <g style="fill:#262626;" transform="translate(645.259877 144.789063)scale(0.1 -0.1)">
       <use xlink:href="#ArialMT-48"/>
       <use x="55.615234" xlink:href="#ArialMT-46"/>
       <use x="83.398438" xlink:href="#ArialMT-52"/>
      </g>
     </g>
    </g>
    <g id="xtick_18">
     <g id="text_25">
      <!-- 0.5 -->
      <g style="fill:#262626;" transform="translate(681.798128 144.789063)scale(0.1 -0.1)">
       <use xlink:href="#ArialMT-48"/>
       <use x="55.615234" xlink:href="#ArialMT-46"/>
       <use x="83.398438" xlink:href="#ArialMT-53"/>
      </g>
     </g>
    </g>
   </g>
   <g id="matplotlib.axis_6">
    <g id="ytick_11"/>
    <g id="ytick_12"/>
    <g id="ytick_13"/>
    <g id="ytick_14"/>
    <g id="ytick_15"/>
   </g>
   <g id="PolyCollection_3">
    <defs>
     <path d="M 509.710695 -74.032844 
L 509.710695 -7.791042 
L 511.519154 -9.343612 
L 513.327613 -10.244797 
L 515.136072 -11.662944 
L 516.944531 -13.328104 
L 518.75299 -14.580584 
L 520.561449 -13.401749 
L 522.369908 -15.208017 
L 524.178367 -15.463973 
L 525.986825 -17.293859 
L 527.795284 -16.523562 
L 529.603743 -16.612777 
L 531.412202 -19.220135 
L 533.220661 -18.324515 
L 535.02912 -19.620631 
L 536.837579 -18.080177 
L 538.646038 -18.554775 
L 540.454497 -18.116541 
L 542.262956 -18.129152 
L 544.071415 -21.123682 
L 545.879874 -21.345938 
L 547.688333 -19.261472 
L 549.496791 -21.191256 
L 551.30525 -17.044403 
L 553.113709 -20.991203 
L 554.922168 -20.343935 
L 556.730627 -20.274563 
L 558.539086 -21.01216 
L 560.347545 -16.50484 
L 562.156004 -21.273521 
L 563.964463 -16.813922 
L 565.772922 -21.519378 
L 567.581381 -18.946875 
L 569.38984 -19.757306 
L 571.198298 -24.34132 
L 573.006757 -20.992698 
L 574.815216 -21.15787 
L 576.623675 -20.697961 
L 578.432134 -18.017629 
L 580.240593 -21.798935 
L 582.049052 -27.010012 
L 583.857511 -25.653864 
L 585.66597 -24.666775 
L 587.474429 -22.891603 
L 589.282888 -23.804496 
L 591.091347 -21.142169 
L 592.899806 -18.508047 
L 594.708264 -25.822771 
L 596.516723 -25.016975 
L 598.325182 -14.977054 
L 600.133641 -23.869995 
L 601.9421 -22.554705 
L 603.750559 -23.933893 
L 605.559018 -21.97231 
L 607.367477 -22.810485 
L 609.175936 -24.311139 
L 610.984395 -26.508683 
L 612.792854 -17.721888 
L 614.601313 -29.488961 
L 616.409772 -24.844005 
L 618.21823 -21.0636 
L 620.026689 -25.417648 
L 621.835148 -24.909437 
L 623.643607 -28.814106 
L 625.452066 -24.417394 
L 627.260525 -20.42062 
L 629.068984 -22.411136 
L 630.877443 -28.588926 
L 632.685902 -28.903864 
L 634.494361 -29.77501 
L 636.30282 -30.303712 
L 638.111279 -17.441654 
L 639.919737 -16.644899 
L 641.728196 -27.494413 
L 643.536655 -27.642144 
L 645.345114 -26.955284 
L 647.153573 -29.64123 
L 648.962032 -30.695393 
L 650.770491 -26.849419 
L 652.57895 -20.181096 
L 654.387409 -31.385074 
L 656.195868 -24.226136 
L 658.004327 -30.993895 
L 659.812786 -21.919605 
L 661.621245 -29.228308 
L 663.429703 -23.82987 
L 665.238162 -32.633587 
L 667.046621 -29.696655 
L 668.85508 -33.835498 
L 670.663539 -30.573483 
L 672.471998 -28.876746 
L 674.280457 -28.445053 
L 676.088916 -33.589615 
L 677.897375 -30.756069 
L 679.705834 -31.528626 
L 681.514293 -31.661752 
L 683.322752 -36.191741 
L 685.131211 -21.239256 
L 686.939669 -25.584774 
L 688.748128 -35.248816 
L 688.748128 -114.668239 
L 688.748128 -114.668239 
L 686.939669 -105.245346 
L 685.131211 -108.883006 
L 683.322752 -106.510784 
L 681.514293 -109.246431 
L 679.705834 -95.243992 
L 677.897375 -101.157032 
L 676.088916 -109.347615 
L 674.280457 -97.001181 
L 672.471998 -96.882724 
L 670.663539 -103.731379 
L 668.85508 -101.121684 
L 667.046621 -95.845454 
L 665.238162 -97.618071 
L 663.429703 -104.021173 
L 661.621245 -91.45599 
L 659.812786 -103.766881 
L 658.004327 -99.368532 
L 656.195868 -98.09101 
L 654.387409 -94.693701 
L 652.57895 -94.829086 
L 650.770491 -99.881759 
L 648.962032 -95.990249 
L 647.153573 -98.196844 
L 645.345114 -95.600964 
L 643.536655 -91.085194 
L 641.728196 -84.516078 
L 639.919737 -90.19737 
L 638.111279 -89.47976 
L 636.30282 -95.503725 
L 634.494361 -85.921467 
L 632.685902 -84.613813 
L 630.877443 -88.255583 
L 629.068984 -83.500211 
L 627.260525 -86.921682 
L 625.452066 -81.493953 
L 623.643607 -86.399603 
L 621.835148 -73.423097 
L 620.026689 -72.400861 
L 618.21823 -77.389556 
L 616.409772 -79.936984 
L 614.601313 -73.243691 
L 612.792854 -79.219142 
L 610.984395 -83.7188 
L 609.175936 -72.78974 
L 607.367477 -74.783734 
L 605.559018 -77.307117 
L 603.750559 -71.862345 
L 601.9421 -73.552038 
L 600.133641 -68.43342 
L 598.325182 -82.443129 
L 596.516723 -66.834779 
L 594.708264 -60.74724 
L 592.899806 -77.584855 
L 591.091347 -69.544308 
L 589.282888 -67.941814 
L 587.474429 -63.471888 
L 585.66597 -68.981106 
L 583.857511 -62.319012 
L 582.049052 -59.516428 
L 580.240593 -56.388813 
L 578.432134 -67.758774 
L 576.623675 -65.71283 
L 574.815216 -64.445627 
L 573.006757 -61.870009 
L 571.198298 -57.658399 
L 569.38984 -58.868018 
L 567.581381 -60.925262 
L 565.772922 -56.198776 
L 563.964463 -55.487842 
L 562.156004 -50.538465 
L 560.347545 -57.656513 
L 558.539086 -52.074522 
L 556.730627 -46.531003 
L 554.922168 -45.293089 
L 553.113709 -49.810113 
L 551.30525 -53.634045 
L 549.496791 -47.819605 
L 547.688333 -47.538763 
L 545.879874 -42.944054 
L 544.071415 -43.82579 
L 542.262956 -50.90426 
L 540.454497 -47.398015 
L 538.646038 -49.6529 
L 536.837579 -50.076034 
L 535.02912 -47.797556 
L 533.220661 -47.093477 
L 531.412202 -47.007228 
L 529.603743 -46.824566 
L 527.795284 -47.503858 
L 525.986825 -49.14073 
L 524.178367 -51.925742 
L 522.369908 -55.819666 
L 520.561449 -59.101348 
L 518.75299 -58.778403 
L 516.944531 -60.795259 
L 515.136072 -65.489591 
L 513.327613 -67.61934 
L 511.519154 -70.568337 
L 509.710695 -74.032844 
z
" id="mff76380bba" style="stroke:#ffffff;stroke-opacity:0.1;"/>
    </defs>
    <g clip-path="url(#pa194635f58)">
     <use style="fill:#821580;fill-opacity:0.1;stroke:#ffffff;stroke-opacity:0.1;" x="0" xlink:href="#mff76380bba" y="153.976563"/>
    </g>
   </g>
   <g id="line2d_5">
    <path clip-path="url(#pa194635f58)" d="M 509.710695 113.06462 
L 511.519154 114.020588 
L 513.327613 115.044494 
L 515.136072 115.400295 
L 516.944531 116.914881 
L 518.75299 117.297069 
L 520.561449 117.725014 
L 522.369908 118.462721 
L 524.178367 120.281705 
L 525.986825 120.759268 
L 527.795284 121.962852 
L 529.603743 122.257891 
L 531.412202 120.862881 
L 533.220661 121.267567 
L 535.02912 120.267469 
L 536.837579 119.898457 
L 538.646038 119.872725 
L 540.454497 121.219284 
L 542.262956 119.459857 
L 544.071415 121.501826 
L 545.879874 121.831567 
L 547.688333 120.576445 
L 549.496791 119.471132 
L 551.30525 118.637338 
L 553.113709 118.575905 
L 554.922168 121.158051 
L 556.730627 120.573779 
L 558.539086 117.433221 
L 560.347545 116.895886 
L 562.156004 118.07057 
L 563.964463 117.825681 
L 565.772922 115.117485 
L 567.581381 114.040494 
L 569.38984 114.663901 
L 571.198298 112.976703 
L 573.006757 112.545209 
L 574.815216 111.174814 
L 576.623675 110.771167 
L 578.432134 111.088361 
L 580.240593 114.882689 
L 582.049052 110.713343 
L 583.857511 109.990124 
L 585.66597 107.152622 
L 587.474429 110.794817 
L 589.282888 108.103408 
L 591.091347 108.633324 
L 592.899806 105.930111 
L 594.708264 110.691557 
L 596.516723 108.050685 
L 598.325182 105.266471 
L 600.133641 107.824855 
L 601.9421 105.923191 
L 603.750559 106.078443 
L 605.559018 104.336849 
L 607.367477 105.179453 
L 609.175936 105.426123 
L 610.984395 98.862821 
L 612.792854 105.506048 
L 614.601313 102.610236 
L 616.409772 101.586068 
L 618.21823 104.749985 
L 620.026689 105.067308 
L 621.835148 104.810295 
L 623.643607 96.369708 
L 625.452066 101.020889 
L 627.260525 100.305411 
L 629.068984 101.020889 
L 630.877443 95.554308 
L 632.685902 97.217724 
L 634.494361 96.128324 
L 636.30282 91.072844 
L 638.111279 100.515855 
L 639.919737 100.555428 
L 641.728196 97.971317 
L 643.536655 94.612893 
L 645.345114 92.698439 
L 647.153573 90.057525 
L 648.962032 90.633741 
L 650.770491 90.610973 
L 652.57895 96.471471 
L 654.387409 90.937175 
L 656.195868 92.817989 
L 658.004327 88.795349 
L 659.812786 91.133319 
L 661.621245 93.634413 
L 663.429703 90.051041 
L 665.238162 88.850733 
L 667.046621 91.205508 
L 668.85508 86.497971 
L 670.663539 86.824131 
L 672.471998 91.096827 
L 674.280457 91.253445 
L 676.088916 82.507947 
L 677.897375 88.020012 
L 679.705834 90.590253 
L 681.514293 83.522471 
L 683.322752 82.6253 
L 685.131211 88.915431 
L 686.939669 88.561502 
L 688.748128 79.018035 
" style="fill:none;stroke:#821580;stroke-linecap:round;stroke-width:1.5;"/>
   </g>
   <g id="line2d_6">
    <path clip-path="url(#pa194635f58)" d="M 500.758824 122.11381 
L 697.7 122.11381 
" style="fill:none;stroke:#000000;stroke-dasharray:5.55,2.4;stroke-dashoffset:0;stroke-width:1.5;"/>
   </g>
   <g id="patch_9">
    <path d="M 500.758824 130.63125 
L 500.758824 21.91125 
" style="fill:none;stroke:#cccccc;stroke-linecap:square;stroke-linejoin:miter;stroke-width:0.8;"/>
   </g>
   <g id="patch_10">
    <path d="M 500.758824 130.63125 
L 697.7 130.63125 
" style="fill:none;stroke:#cccccc;stroke-linecap:square;stroke-linejoin:miter;stroke-width:0.8;"/>
   </g>
   <g id="text_26">
    <!-- $k$-means -->
    <defs>
     <path d="M 18.3125 75.984375 
L 27.296875 75.984375 
L 18.703125 31.6875 
L 49.515625 54.6875 
L 61.1875 54.6875 
L 26.8125 28.515625 
L 51.90625 0 
L 41.015625 0 
L 17.671875 26.703125 
L 12.5 0 
L 3.515625 0 
z
" id="DejaVuSans-Oblique-107"/>
     <path d="M 24.296875 22.5 
L 24.296875 29.5 
L 1.203125 29.5 
L 1.203125 22.5 
z
" id="BigCaslon-Medium-45"/>
     <path d="M 36.90625 14.59375 
Q 36.90625 19.703125 33.75 23.203125 
Q 30.59375 26.703125 26.09375 27.796875 
Q 24.203125 28.296875 21.59375 28.84375 
Q 19 29.40625 16.796875 29.90625 
Q 13.59375 30.703125 11.5 32.296875 
Q 9.40625 33.90625 9.40625 37.59375 
Q 9.40625 39.90625 10.203125 41.65625 
Q 11 43.40625 12.25 44.546875 
Q 13.5 45.703125 15.140625 46.296875 
Q 16.796875 46.90625 18.5 46.90625 
Q 21.296875 46.90625 23.4375 45.90625 
Q 25.59375 44.90625 27.296875 43.046875 
Q 29 41.203125 30.390625 38.640625 
Q 31.796875 36.09375 33.203125 33.09375 
L 34 33.296875 
L 32.796875 45.703125 
Q 29.90625 46.796875 26.703125 47.546875 
Q 23.5 48.296875 19.296875 48.296875 
Q 16 48.296875 13.09375 47.34375 
Q 10.203125 46.40625 8 44.59375 
Q 5.796875 42.796875 4.5 40.296875 
Q 3.203125 37.796875 3.203125 34.703125 
Q 3.203125 30.203125 5.546875 27 
Q 7.90625 23.796875 11.703125 22.5 
Q 13.703125 21.796875 16.203125 21.1875 
Q 18.703125 20.59375 21.40625 20.09375 
Q 24.796875 19.40625 26.75 17.34375 
Q 28.703125 15.296875 28.703125 12.203125 
Q 28.703125 6.5 25.84375 3.75 
Q 23 1 18.203125 1 
Q 14.90625 1 12.5 2.453125 
Q 10.09375 3.90625 8.390625 6.15625 
Q 6.703125 8.40625 5.5 11.046875 
Q 4.296875 13.703125 3.5 16.09375 
L 2.703125 16.09375 
L 2.703125 2.90625 
Q 6 1.40625 9.890625 0.59375 
Q 13.796875 -0.203125 18.203125 -0.203125 
Q 21.90625 -0.203125 25.25 0.59375 
Q 28.59375 1.40625 31.1875 3.203125 
Q 33.796875 5 35.34375 7.84375 
Q 36.90625 10.703125 36.90625 14.59375 
z
" id="BigCaslon-Medium-115"/>
    </defs>
    <g style="fill:#262626;" transform="translate(578.709412 15.91125)scale(0.12 -0.12)">
     <use transform="translate(0 0.015625)" xlink:href="#DejaVuSans-Oblique-107"/>
     <use transform="translate(57.910156 0.015625)" xlink:href="#BigCaslon-Medium-45"/>
     <use transform="translate(83.510147 0.015625)" xlink:href="#BigCaslon-Medium-109"/>
     <use transform="translate(162.910141 0.015625)" xlink:href="#BigCaslon-Medium-101"/>
     <use transform="translate(206.410126 0.015625)" xlink:href="#BigCaslon-Medium-97"/>
     <use transform="translate(251.210114 0.015625)" xlink:href="#BigCaslon-Medium-110"/>
     <use transform="translate(303.310104 0.015625)" xlink:href="#BigCaslon-Medium-115"/>
    </g>
   </g>
  </g>
 </g>
 <defs>
  <clipPath id="p4f0b3d28f3">
   <rect height="108.72" width="196.941176" x="28.1" y="21.91125"/>
  </clipPath>
  <clipPath id="paf3f4becf7">
   <rect height="108.72" width="196.941176" x="264.429412" y="21.91125"/>
  </clipPath>
  <clipPath id="pa194635f58">
   <rect height="108.72" width="196.941176" x="500.758824" y="21.91125"/>
  </clipPath>
 </defs>
</svg>
