<?xml version="1.0" encoding="utf-8" standalone="no"?>
<!DOCTYPE svg PUBLIC "-//W3C//DTD SVG 1.1//EN"
  "http://www.w3.org/Graphics/SVG/1.1/DTD/svg11.dtd">
<!-- Created with matplotlib (https://matplotlib.org/) -->
<svg height="171.318125pt" version="1.1" viewBox="0 0 727.285625 171.318125" width="727.285625pt" xmlns="http://www.w3.org/2000/svg" xmlns:xlink="http://www.w3.org/1999/xlink">
 <defs>
  <style type="text/css">
*{stroke-linecap:butt;stroke-linejoin:round;}
  </style>
 </defs>
 <g id="figure_1">
  <g id="patch_1">
   <path d="M 0 171.318125 
L 727.285625 171.318125 
L 727.285625 0 
L 0 0 
z
" style="fill:none;"/>
  </g>
  <g id="axes_1">
   <g id="patch_2">
    <path d="M 43.535625 130.63125 
L 240.476801 130.63125 
L 240.476801 21.91125 
L 43.535625 21.91125 
z
" style="fill:none;"/>
   </g>
   <g id="matplotlib.axis_1">
    <g id="xtick_1">
     <g id="text_1">
      <!-- 0.0 -->
      <defs>
       <path d="M 4.15625 35.296875 
Q 4.15625 48 6.765625 55.734375 
Q 9.375 63.484375 14.515625 67.671875 
Q 19.671875 71.875 27.484375 71.875 
Q 33.25 71.875 37.59375 69.546875 
Q 41.9375 67.234375 44.765625 62.859375 
Q 47.609375 58.5 49.21875 52.21875 
Q 50.828125 45.953125 50.828125 35.296875 
Q 50.828125 22.703125 48.234375 14.96875 
Q 45.65625 7.234375 40.5 3 
Q 35.359375 -1.21875 27.484375 -1.21875 
Q 17.140625 -1.21875 11.234375 6.203125 
Q 4.15625 15.140625 4.15625 35.296875 
z
M 13.1875 35.296875 
Q 13.1875 17.671875 17.3125 11.828125 
Q 21.4375 6 27.484375 6 
Q 33.546875 6 37.671875 11.859375 
Q 41.796875 17.71875 41.796875 35.296875 
Q 41.796875 52.984375 37.671875 58.78125 
Q 33.546875 64.59375 27.390625 64.59375 
Q 21.34375 64.59375 17.71875 59.46875 
Q 13.1875 52.9375 13.1875 35.296875 
z
" id="ArialMT-48"/>
       <path d="M 9.078125 0 
L 9.078125 10.015625 
L 19.09375 10.015625 
L 19.09375 0 
z
" id="ArialMT-46"/>
      </defs>
      <g style="fill:#262626;" transform="translate(36.585625 144.789062)scale(0.1 -0.1)">
       <use xlink:href="#ArialMT-48"/>
       <use x="55.615234" xlink:href="#ArialMT-46"/>
       <use x="83.398438" xlink:href="#ArialMT-48"/>
      </g>
     </g>
    </g>
    <g id="xtick_2">
     <g id="text_2">
      <!-- 0.1 -->
      <defs>
       <path d="M 37.25 0 
L 28.46875 0 
L 28.46875 56 
Q 25.296875 52.984375 20.140625 49.953125 
Q 14.984375 46.921875 10.890625 45.40625 
L 10.890625 53.90625 
Q 18.265625 57.375 23.78125 62.296875 
Q 29.296875 67.234375 31.59375 71.875 
L 37.25 71.875 
z
" id="ArialMT-49"/>
      </defs>
      <g style="fill:#262626;" transform="translate(75.97386 144.789062)scale(0.1 -0.1)">
       <use xlink:href="#ArialMT-48"/>
       <use x="55.615234" xlink:href="#ArialMT-46"/>
       <use x="83.398438" xlink:href="#ArialMT-49"/>
      </g>
     </g>
    </g>
    <g id="xtick_3">
     <g id="text_3">
      <!-- 0.2 -->
      <defs>
       <path d="M 50.34375 8.453125 
L 50.34375 0 
L 3.03125 0 
Q 2.9375 3.171875 4.046875 6.109375 
Q 5.859375 10.9375 9.828125 15.625 
Q 13.8125 20.3125 21.34375 26.46875 
Q 33.015625 36.03125 37.109375 41.625 
Q 41.21875 47.21875 41.21875 52.203125 
Q 41.21875 57.421875 37.46875 61 
Q 33.734375 64.59375 27.734375 64.59375 
Q 21.390625 64.59375 17.578125 60.78125 
Q 13.765625 56.984375 13.71875 50.25 
L 4.6875 51.171875 
Q 5.609375 61.28125 11.65625 66.578125 
Q 17.71875 71.875 27.9375 71.875 
Q 38.234375 71.875 44.234375 66.15625 
Q 50.25 60.453125 50.25 52 
Q 50.25 47.703125 48.484375 43.546875 
Q 46.734375 39.40625 42.65625 34.8125 
Q 38.578125 30.21875 29.109375 22.21875 
Q 21.1875 15.578125 18.9375 13.203125 
Q 16.703125 10.84375 15.234375 8.453125 
z
" id="ArialMT-50"/>
      </defs>
      <g style="fill:#262626;" transform="translate(115.362096 144.789062)scale(0.1 -0.1)">
       <use xlink:href="#ArialMT-48"/>
       <use x="55.615234" xlink:href="#ArialMT-46"/>
       <use x="83.398438" xlink:href="#ArialMT-50"/>
      </g>
     </g>
    </g>
    <g id="xtick_4">
     <g id="text_4">
      <!-- 0.3 -->
      <defs>
       <path d="M 4.203125 18.890625 
L 12.984375 20.0625 
Q 14.5 12.59375 18.140625 9.296875 
Q 21.78125 6 27 6 
Q 33.203125 6 37.46875 10.296875 
Q 41.75 14.59375 41.75 20.953125 
Q 41.75 27 37.796875 30.921875 
Q 33.84375 34.859375 27.734375 34.859375 
Q 25.25 34.859375 21.53125 33.890625 
L 22.515625 41.609375 
Q 23.390625 41.5 23.921875 41.5 
Q 29.546875 41.5 34.03125 44.421875 
Q 38.53125 47.359375 38.53125 53.46875 
Q 38.53125 58.296875 35.25 61.46875 
Q 31.984375 64.65625 26.8125 64.65625 
Q 21.6875 64.65625 18.265625 61.421875 
Q 14.84375 58.203125 13.875 51.765625 
L 5.078125 53.328125 
Q 6.6875 62.15625 12.390625 67.015625 
Q 18.109375 71.875 26.609375 71.875 
Q 32.46875 71.875 37.390625 69.359375 
Q 42.328125 66.84375 44.9375 62.5 
Q 47.5625 58.15625 47.5625 53.265625 
Q 47.5625 48.640625 45.0625 44.828125 
Q 42.578125 41.015625 37.703125 38.765625 
Q 44.046875 37.3125 47.5625 32.6875 
Q 51.078125 28.078125 51.078125 21.140625 
Q 51.078125 11.765625 44.234375 5.25 
Q 37.40625 -1.265625 26.953125 -1.265625 
Q 17.53125 -1.265625 11.296875 4.34375 
Q 5.078125 9.96875 4.203125 18.890625 
z
" id="ArialMT-51"/>
      </defs>
      <g style="fill:#262626;" transform="translate(154.750331 144.789062)scale(0.1 -0.1)">
       <use xlink:href="#ArialMT-48"/>
       <use x="55.615234" xlink:href="#ArialMT-46"/>
       <use x="83.398438" xlink:href="#ArialMT-51"/>
      </g>
     </g>
    </g>
    <g id="xtick_5">
     <g id="text_5">
      <!-- 0.4 -->
      <defs>
       <path d="M 32.328125 0 
L 32.328125 17.140625 
L 1.265625 17.140625 
L 1.265625 25.203125 
L 33.9375 71.578125 
L 41.109375 71.578125 
L 41.109375 25.203125 
L 50.78125 25.203125 
L 50.78125 17.140625 
L 41.109375 17.140625 
L 41.109375 0 
z
M 32.328125 25.203125 
L 32.328125 57.46875 
L 9.90625 25.203125 
z
" id="ArialMT-52"/>
      </defs>
      <g style="fill:#262626;" transform="translate(194.138566 144.789062)scale(0.1 -0.1)">
       <use xlink:href="#ArialMT-48"/>
       <use x="55.615234" xlink:href="#ArialMT-46"/>
       <use x="83.398438" xlink:href="#ArialMT-52"/>
      </g>
     </g>
    </g>
    <g id="xtick_6">
     <g id="text_6">
      <!-- 0.5 -->
      <defs>
       <path d="M 4.15625 18.75 
L 13.375 19.53125 
Q 14.40625 12.796875 18.140625 9.390625 
Q 21.875 6 27.15625 6 
Q 33.5 6 37.890625 10.78125 
Q 42.28125 15.578125 42.28125 23.484375 
Q 42.28125 31 38.0625 35.34375 
Q 33.84375 39.703125 27 39.703125 
Q 22.75 39.703125 19.328125 37.765625 
Q 15.921875 35.84375 13.96875 32.765625 
L 5.71875 33.84375 
L 12.640625 70.609375 
L 48.25 70.609375 
L 48.25 62.203125 
L 19.671875 62.203125 
L 15.828125 42.96875 
Q 22.265625 47.46875 29.34375 47.46875 
Q 38.71875 47.46875 45.15625 40.96875 
Q 51.609375 34.46875 51.609375 24.265625 
Q 51.609375 14.546875 45.953125 7.46875 
Q 39.0625 -1.21875 27.15625 -1.21875 
Q 17.390625 -1.21875 11.203125 4.25 
Q 5.03125 9.71875 4.15625 18.75 
z
" id="ArialMT-53"/>
      </defs>
      <g style="fill:#262626;" transform="translate(233.526801 144.789062)scale(0.1 -0.1)">
       <use xlink:href="#ArialMT-48"/>
       <use x="55.615234" xlink:href="#ArialMT-46"/>
       <use x="83.398438" xlink:href="#ArialMT-53"/>
      </g>
     </g>
    </g>
   </g>
   <g id="matplotlib.axis_2">
    <g id="ytick_1">
     <g id="text_7">
      <!-- 0.0 -->
      <g style="fill:#262626;" transform="translate(22.635625 123.572364)scale(0.1 -0.1)">
       <use xlink:href="#ArialMT-48"/>
       <use x="55.615234" xlink:href="#ArialMT-46"/>
       <use x="83.398438" xlink:href="#ArialMT-48"/>
      </g>
     </g>
    </g>
    <g id="ytick_2">
     <g id="text_8">
      <!-- 0.1 -->
      <g style="fill:#262626;" transform="translate(22.635625 88.113058)scale(0.1 -0.1)">
       <use xlink:href="#ArialMT-48"/>
       <use x="55.615234" xlink:href="#ArialMT-46"/>
       <use x="83.398438" xlink:href="#ArialMT-49"/>
      </g>
     </g>
    </g>
    <g id="ytick_3">
     <g id="text_9">
      <!-- 0.2 -->
      <g style="fill:#262626;" transform="translate(22.635625 52.653752)scale(0.1 -0.1)">
       <use xlink:href="#ArialMT-48"/>
       <use x="55.615234" xlink:href="#ArialMT-46"/>
       <use x="83.398438" xlink:href="#ArialMT-50"/>
      </g>
     </g>
    </g>
    <g id="text_10">
     <!-- Distortion -->
     <defs>
      <path d="M 82.203125 37 
Q 82.203125 43.5 80.546875 48.546875 
Q 78.90625 53.59375 76.15625 57.4375 
Q 73.40625 61.296875 69.703125 64.09375 
Q 66 66.90625 61.796875 68.703125 
Q 58.59375 70.09375 55.296875 70.796875 
Q 52 71.5 48.703125 71.796875 
Q 45.40625 72.09375 42.09375 72.09375 
Q 38.90625 72.09375 35.703125 72.09375 
Q 24.5 72.09375 16.59375 72.046875 
Q 8.703125 72 4.5 72 
L 4.5 71 
Q 7.09375 70.703125 9.1875 70 
Q 11.296875 69.296875 12.796875 67.5 
Q 13.40625 66.796875 13.703125 65.546875 
Q 14 64.296875 14.140625 62.75 
Q 14.296875 61.203125 14.296875 59.40625 
Q 14.296875 57.59375 14.296875 55.796875 
L 14.296875 36.296875 
Q 14.296875 33.59375 14.296875 30.5 
Q 14.296875 27.5 14.25 24.640625 
Q 14.203125 21.796875 14.140625 19.390625 
Q 14.09375 17 14.09375 15.59375 
Q 14.09375 14 14 12.296875 
Q 13.90625 10.59375 13.703125 9.09375 
Q 13.5 7.59375 13.25 6.390625 
Q 13 5.203125 12.5 4.703125 
Q 11.296875 3.296875 8.9375 2.296875 
Q 6.59375 1.296875 4.09375 1 
L 4.09375 0 
L 40.59375 0 
Q 45.203125 0 50.09375 0.640625 
Q 55 1.296875 59.59375 2.890625 
Q 64.203125 4.5 68.296875 7.203125 
Q 72.40625 9.90625 75.5 14 
Q 78.59375 18.09375 80.390625 23.796875 
Q 82.203125 29.5 82.203125 37 
z
M 69.90625 36.796875 
Q 69.90625 23.703125 64.546875 14.75 
Q 59.203125 5.796875 48.40625 2.703125 
Q 46.09375 2 43.4375 1.75 
Q 40.796875 1.5 38.296875 1.5 
Q 35.59375 1.5 32.546875 2.046875 
Q 29.5 2.59375 27.5 4.59375 
Q 26.90625 5.203125 26.453125 6.453125 
Q 26 7.703125 25.796875 9.25 
Q 25.59375 10.796875 25.4375 12.4375 
Q 25.296875 14.09375 25.296875 15.5 
Q 25.203125 18.796875 25.203125 24 
Q 25.203125 29.296875 25.203125 35.703125 
Q 25.203125 47.59375 25.296875 56.1875 
Q 25.40625 64.796875 25.90625 69.703125 
Q 26.59375 69.90625 27.75 70 
Q 28.90625 70.09375 30.25 70.25 
Q 31.59375 70.40625 33 70.453125 
Q 34.40625 70.5 35.59375 70.5 
Q 39.09375 70.5 41.5 70.25 
Q 43.90625 70 45.90625 69.59375 
Q 51.09375 68.703125 55.5 65.59375 
Q 59.90625 62.5 63.09375 58.046875 
Q 66.296875 53.59375 68.09375 48.09375 
Q 69.90625 42.59375 69.90625 36.796875 
z
" id="BigCaslon-Medium-68"/>
      <path d="M 17.703125 64.09375 
Q 17.703125 66.40625 16.140625 67.90625 
Q 14.59375 69.40625 12.296875 69.40625 
Q 10 69.40625 8.453125 67.90625 
Q 6.90625 66.40625 6.90625 64.09375 
Q 6.90625 61.90625 8.5 60.296875 
Q 10.09375 58.703125 12.296875 58.703125 
Q 14.59375 58.703125 16.140625 60.25 
Q 17.703125 61.796875 17.703125 64.09375 
z
M 23.296875 0 
L 23.296875 1 
Q 22.296875 1.203125 21.25 1.25 
Q 20.203125 1.296875 19.296875 1.5 
Q 18.40625 1.703125 17.75 2.140625 
Q 17.09375 2.59375 16.90625 3.59375 
L 16.90625 48.296875 
L 16.296875 48.296875 
L 2.796875 43.90625 
L 2.796875 43.296875 
Q 4.203125 42.796875 5.453125 42.1875 
Q 6.703125 41.59375 7.59375 41 
Q 8.296875 40.5 8.4375 39.890625 
Q 8.59375 39.296875 8.59375 38.5 
L 8.59375 4.203125 
Q 8.59375 3.296875 7.9375 2.6875 
Q 7.296875 2.09375 6.34375 1.75 
Q 5.40625 1.40625 4.203125 1.25 
Q 3 1.09375 1.796875 1 
L 1.796875 0 
z
" id="BigCaslon-Medium-105"/>
      <path d="M 36.90625 14.59375 
Q 36.90625 19.703125 33.75 23.203125 
Q 30.59375 26.703125 26.09375 27.796875 
Q 24.203125 28.296875 21.59375 28.84375 
Q 19 29.40625 16.796875 29.90625 
Q 13.59375 30.703125 11.5 32.296875 
Q 9.40625 33.90625 9.40625 37.59375 
Q 9.40625 39.90625 10.203125 41.65625 
Q 11 43.40625 12.25 44.546875 
Q 13.5 45.703125 15.140625 46.296875 
Q 16.796875 46.90625 18.5 46.90625 
Q 21.296875 46.90625 23.4375 45.90625 
Q 25.59375 44.90625 27.296875 43.046875 
Q 29 41.203125 30.390625 38.640625 
Q 31.796875 36.09375 33.203125 33.09375 
L 34 33.296875 
L 32.796875 45.703125 
Q 29.90625 46.796875 26.703125 47.546875 
Q 23.5 48.296875 19.296875 48.296875 
Q 16 48.296875 13.09375 47.34375 
Q 10.203125 46.40625 8 44.59375 
Q 5.796875 42.796875 4.5 40.296875 
Q 3.203125 37.796875 3.203125 34.703125 
Q 3.203125 30.203125 5.546875 27 
Q 7.90625 23.796875 11.703125 22.5 
Q 13.703125 21.796875 16.203125 21.1875 
Q 18.703125 20.59375 21.40625 20.09375 
Q 24.796875 19.40625 26.75 17.34375 
Q 28.703125 15.296875 28.703125 12.203125 
Q 28.703125 6.5 25.84375 3.75 
Q 23 1 18.203125 1 
Q 14.90625 1 12.5 2.453125 
Q 10.09375 3.90625 8.390625 6.15625 
Q 6.703125 8.40625 5.5 11.046875 
Q 4.296875 13.703125 3.5 16.09375 
L 2.703125 16.09375 
L 2.703125 2.90625 
Q 6 1.40625 9.890625 0.59375 
Q 13.796875 -0.203125 18.203125 -0.203125 
Q 21.90625 -0.203125 25.25 0.59375 
Q 28.59375 1.40625 31.1875 3.203125 
Q 33.796875 5 35.34375 7.84375 
Q 36.90625 10.703125 36.90625 14.59375 
z
" id="BigCaslon-Medium-115"/>
      <path d="M 35.09375 47.296875 
L 16.59375 47.296875 
L 16.59375 56 
L 15.796875 56 
L 1.296875 42.296875 
L 1.296875 41.203125 
L 8.59375 41.203125 
Q 8.59375 34.59375 8.5 26.140625 
Q 8.40625 17.703125 8.40625 8.296875 
Q 8.40625 6.703125 9.34375 5.140625 
Q 10.296875 3.59375 11.796875 2.34375 
Q 13.296875 1.09375 15.25 0.4375 
Q 17.203125 -0.203125 19.296875 -0.203125 
Q 22.5 -0.203125 24.84375 0.546875 
Q 27.203125 1.296875 28.953125 2.640625 
Q 30.703125 4 31.75 5.640625 
Q 32.796875 7.296875 33.40625 8.796875 
L 32.796875 9.09375 
Q 31.40625 7.09375 29.5 6.140625 
Q 27.59375 5.203125 24.703125 5.203125 
Q 21.203125 5.203125 19 7.5 
Q 16.796875 9.796875 16.796875 14.90625 
L 16.796875 41.203125 
L 32 41.203125 
z
" id="BigCaslon-Medium-116"/>
      <path d="M 49.203125 24.5 
Q 49.203125 30.5 47.046875 34.953125 
Q 44.90625 39.40625 41.546875 42.34375 
Q 38.203125 45.296875 34.09375 46.796875 
Q 30 48.296875 26 48.296875 
Q 20.59375 48.296875 16.140625 46.296875 
Q 11.703125 44.296875 8.546875 41 
Q 5.40625 37.703125 3.65625 33.390625 
Q 1.90625 29.09375 1.90625 24.5 
Q 1.90625 18.09375 4.15625 13.34375 
Q 6.40625 8.59375 9.953125 5.546875 
Q 13.5 2.5 17.703125 1.09375 
Q 21.90625 -0.296875 25.796875 -0.296875 
Q 30.5 -0.296875 34.75 1.59375 
Q 39 3.5 42.203125 6.890625 
Q 45.40625 10.296875 47.296875 14.84375 
Q 49.203125 19.40625 49.203125 24.5 
z
M 39.90625 24.59375 
Q 39.90625 21.09375 39.15625 17 
Q 38.40625 12.90625 36.75 9.34375 
Q 35.09375 5.796875 32.4375 3.4375 
Q 29.796875 1.09375 25.90625 1.09375 
Q 22 1.09375 19.203125 2.9375 
Q 16.40625 4.796875 14.59375 7.9375 
Q 12.796875 11.09375 12 15.1875 
Q 11.203125 19.296875 11.203125 23.90625 
Q 11.203125 28.09375 12.140625 32.140625 
Q 13.09375 36.203125 14.9375 39.453125 
Q 16.796875 42.703125 19.390625 44.703125 
Q 22 46.703125 25.296875 46.703125 
Q 29.40625 46.703125 32.203125 44.546875 
Q 35 42.40625 36.703125 39.09375 
Q 38.40625 35.796875 39.15625 31.890625 
Q 39.90625 28 39.90625 24.59375 
z
" id="BigCaslon-Medium-111"/>
      <path d="M 36.703125 43 
Q 36.703125 45.296875 34.953125 46.796875 
Q 33.203125 48.296875 30.703125 48.296875 
Q 27.59375 48.296875 25.1875 46.59375 
Q 22.796875 44.90625 21.09375 42.546875 
Q 19.40625 40.203125 18.296875 37.890625 
Q 17.203125 35.59375 16.703125 34.40625 
L 16.5 34.40625 
L 16.703125 48.296875 
L 16.09375 48.296875 
L 3 43.203125 
L 3 42.59375 
Q 4.203125 42.09375 5.390625 41.34375 
Q 6.59375 40.59375 7.5 40.09375 
Q 8.203125 39.59375 8.34375 39.1875 
Q 8.5 38.796875 8.5 38 
L 8.5 4.203125 
Q 8.5 2.59375 6.84375 1.890625 
Q 5.203125 1.203125 2.90625 1 
L 2.90625 0 
L 25.296875 0 
L 25.296875 1 
Q 24.296875 1.203125 22.9375 1.25 
Q 21.59375 1.296875 20.34375 1.5 
Q 19.09375 1.703125 18.09375 2.203125 
Q 17.09375 2.703125 16.796875 3.59375 
L 16.796875 32.40625 
Q 17.40625 33.90625 18.203125 35.546875 
Q 19 37.203125 20 38.5 
Q 21 39.796875 22.140625 40.640625 
Q 23.296875 41.5 24.5 41.5 
Q 25.90625 41.5 26.703125 40.953125 
Q 27.5 40.40625 28.203125 39.703125 
Q 28.90625 39 29.84375 38.453125 
Q 30.796875 37.90625 32.40625 37.90625 
Q 34.09375 37.90625 35.390625 39.34375 
Q 36.703125 40.796875 36.703125 43 
z
" id="BigCaslon-Medium-114"/>
      <path d="M 51.203125 0 
L 51.203125 0.90625 
Q 50.296875 1 49.25 1.140625 
Q 48.203125 1.296875 47.296875 1.546875 
Q 46.40625 1.796875 45.75 2.296875 
Q 45.09375 2.796875 45.09375 3.5 
L 45.09375 32.90625 
Q 45.09375 39.703125 42 44 
Q 38.90625 48.296875 33.09375 48.296875 
Q 30.40625 48.296875 27.90625 47.25 
Q 25.40625 46.203125 23.296875 44.59375 
Q 21.203125 43 19.546875 41.046875 
Q 17.90625 39.09375 16.796875 37.40625 
L 16.59375 37.5 
L 16.59375 48.296875 
L 16 48.296875 
L 2.90625 43.59375 
L 2.90625 43 
Q 4.09375 42.5 5.296875 41.84375 
Q 6.5 41.203125 7.40625 40.703125 
Q 8.09375 40.203125 8.25 39.796875 
Q 8.40625 39.40625 8.40625 38.59375 
L 8.40625 4.203125 
Q 8.40625 2.59375 6.75 1.890625 
Q 5.09375 1.203125 2.796875 1 
L 2.796875 0 
L 22.09375 0 
L 22.09375 1 
Q 21.09375 1.203125 20.1875 1.25 
Q 19.296875 1.296875 18.59375 1.5 
Q 17.90625 1.703125 17.40625 2.140625 
Q 16.90625 2.59375 16.703125 3.59375 
L 16.703125 36.40625 
Q 19.40625 39.09375 21.59375 40.5 
Q 23.796875 41.90625 27.09375 41.90625 
Q 32.296875 41.90625 34.5 38.34375 
Q 36.703125 34.796875 36.703125 29 
L 36.703125 3.796875 
Q 36.703125 2.203125 35.09375 1.75 
Q 33.5 1.296875 30.796875 1.09375 
L 30.796875 0 
z
" id="BigCaslon-Medium-110"/>
     </defs>
     <g style="fill:#262626;" transform="translate(15.875625 102.012188)rotate(-90)scale(0.12 -0.12)">
      <use xlink:href="#BigCaslon-Medium-68"/>
      <use x="85.199982" xlink:href="#BigCaslon-Medium-105"/>
      <use x="110.599976" xlink:href="#BigCaslon-Medium-115"/>
      <use x="148.799973" xlink:href="#BigCaslon-Medium-116"/>
      <use x="181.199966" xlink:href="#BigCaslon-Medium-111"/>
      <use x="232.299957" xlink:href="#BigCaslon-Medium-114"/>
      <use x="267.999954" xlink:href="#BigCaslon-Medium-116"/>
      <use x="300.399948" xlink:href="#BigCaslon-Medium-105"/>
      <use x="325.799942" xlink:href="#BigCaslon-Medium-111"/>
      <use x="376.899933" xlink:href="#BigCaslon-Medium-110"/>
     </g>
    </g>
   </g>
   <g id="PolyCollection_1">
    <defs>
     <path d="M 47.474449 -93.944418 
L 47.474449 -51.989252 
L 49.423967 -51.995885 
L 51.373486 -51.989252 
L 53.323005 -52.002977 
L 55.272523 -51.913621 
L 57.222042 -51.989252 
L 59.171561 -51.913621 
L 61.12108 -51.861381 
L 63.070598 -51.727557 
L 65.020117 -51.876462 
L 66.969636 -51.967484 
L 68.919154 -52.112928 
L 70.868673 -52.219192 
L 72.818192 -52.372615 
L 74.767711 -52.373841 
L 76.717229 -52.35363 
L 78.666748 -52.539611 
L 80.616267 -52.708042 
L 82.565785 -52.88002 
L 84.515304 -52.757866 
L 86.464823 -53.014946 
L 88.414342 -53.323442 
L 90.36386 -53.775548 
L 92.313379 -53.92625 
L 94.262898 -54.177565 
L 96.212416 -54.929748 
L 98.161935 -55.083846 
L 100.111454 -55.434893 
L 102.060973 -55.665378 
L 104.010491 -56.037572 
L 105.96001 -56.50931 
L 107.909529 -57.202405 
L 109.859047 -57.640065 
L 111.808566 -57.806723 
L 113.758085 -58.244646 
L 115.707604 -58.975107 
L 117.657122 -59.024945 
L 119.606641 -59.181013 
L 121.55616 -60.005442 
L 123.505678 -60.578097 
L 125.455197 -61.179145 
L 127.404716 -61.531806 
L 129.354235 -62.344649 
L 131.303753 -62.787732 
L 133.253272 -62.839984 
L 135.202791 -63.377192 
L 137.152309 -64.009413 
L 139.101828 -64.520027 
L 141.051347 -65.35864 
L 143.000866 -65.963221 
L 144.950384 -66.296538 
L 146.899903 -67.617398 
L 148.849422 -67.394873 
L 150.798941 -68.481701 
L 152.748459 -68.46701 
L 154.697978 -69.351397 
L 156.647497 -70.223696 
L 158.597015 -70.746721 
L 160.546534 -70.858418 
L 162.496053 -71.635698 
L 164.445572 -72.922871 
L 166.39509 -72.846604 
L 168.344609 -73.288101 
L 170.294128 -74.098317 
L 172.243646 -74.508155 
L 174.193165 -75.935392 
L 176.142684 -75.675505 
L 178.092203 -76.913035 
L 180.041721 -77.10636 
L 181.99124 -77.655979 
L 183.940759 -78.235738 
L 185.890277 -78.849184 
L 187.839796 -80.318973 
L 189.789315 -80.590236 
L 191.738834 -80.900381 
L 193.688352 -82.427028 
L 195.637871 -82.815183 
L 197.58739 -83.508922 
L 199.536908 -83.383828 
L 201.486427 -84.350095 
L 203.435946 -84.906806 
L 205.385465 -85.279128 
L 207.334983 -85.330303 
L 209.284502 -86.083813 
L 211.234021 -87.135589 
L 213.183539 -87.936969 
L 215.133058 -89.098261 
L 217.082577 -88.963591 
L 219.032096 -90.183391 
L 220.981614 -89.959997 
L 222.931133 -90.137337 
L 224.880652 -91.344683 
L 226.83017 -92.468134 
L 228.779689 -92.828699 
L 230.729208 -92.549691 
L 232.678727 -93.675524 
L 234.628245 -93.837777 
L 236.577764 -95.108993 
L 238.527283 -95.74002 
L 240.476801 -96.347521 
L 240.476801 -144.755479 
L 240.476801 -144.755479 
L 238.527283 -144.490391 
L 236.577764 -142.281965 
L 234.628245 -143.127208 
L 232.678727 -141.902551 
L 230.729208 -141.143722 
L 228.779689 -141.542866 
L 226.83017 -139.181276 
L 224.880652 -140.064865 
L 222.931133 -138.498325 
L 220.981614 -138.809605 
L 219.032096 -138.38876 
L 217.082577 -137.011818 
L 215.133058 -136.891257 
L 213.183539 -136.437044 
L 211.234021 -136.165199 
L 209.284502 -135.615448 
L 207.334983 -134.604235 
L 205.385465 -133.015351 
L 203.435946 -133.135912 
L 201.486427 -131.995896 
L 199.536908 -131.696264 
L 197.58739 -131.865626 
L 195.637871 -130.801469 
L 193.688352 -130.58363 
L 191.738834 -129.36093 
L 189.789315 -128.376288 
L 187.839796 -128.097932 
L 185.890277 -126.844446 
L 183.940759 -126.151863 
L 181.99124 -126.566737 
L 180.041721 -124.859853 
L 178.092203 -123.367717 
L 176.142684 -122.68722 
L 174.193165 -121.576006 
L 172.243646 -121.100851 
L 170.294128 -121.742853 
L 168.344609 -120.04064 
L 166.39509 -119.320794 
L 164.445572 -118.194983 
L 162.496053 -117.099291 
L 160.546534 -116.404288 
L 158.597015 -115.787092 
L 156.647497 -115.622206 
L 154.697978 -114.531832 
L 152.748459 -112.531293 
L 150.798941 -112.15907 
L 148.849422 -111.359363 
L 146.899903 -109.198437 
L 144.950384 -109.720899 
L 143.000866 -107.812605 
L 141.051347 -108.073342 
L 139.101828 -106.478146 
L 137.152309 -105.136011 
L 135.202791 -105.023731 
L 133.253272 -103.370138 
L 131.303753 -102.773818 
L 129.354235 -102.144939 
L 127.404716 -100.571815 
L 125.455197 -99.763081 
L 123.505678 -100.3142 
L 121.55616 -98.011118 
L 119.606641 -97.492517 
L 117.657122 -96.367579 
L 115.707604 -94.917294 
L 113.758085 -94.679545 
L 111.808566 -94.039505 
L 109.859047 -93.300871 
L 107.909529 -92.040465 
L 105.96001 -91.940597 
L 104.010491 -90.686683 
L 102.060973 -90.093577 
L 100.111454 -90.268579 
L 98.161935 -88.830848 
L 96.212416 -89.657441 
L 94.262898 -88.742055 
L 92.313379 -88.161058 
L 90.36386 -87.711416 
L 88.414342 -88.531608 
L 86.464823 -87.44529 
L 84.515304 -87.748348 
L 82.565785 -88.17839 
L 80.616267 -88.132599 
L 78.666748 -87.292903 
L 76.717229 -87.96051 
L 74.767711 -88.488581 
L 72.818192 -87.820031 
L 70.868673 -88.666825 
L 68.919154 -88.858917 
L 66.969636 -88.838455 
L 65.020117 -88.481035 
L 63.070598 -89.509355 
L 61.12108 -89.991602 
L 59.171561 -89.563912 
L 57.222042 -89.578096 
L 55.272523 -87.520842 
L 53.323005 -87.728279 
L 51.373486 -88.095283 
L 49.423967 -90.917508 
L 47.474449 -93.944418 
z
" id="md32641b277" style="stroke:#ffffff;stroke-opacity:0.07;"/>
    </defs>
    <g clip-path="url(#p0d16634910)">
     <use style="fill:#821580;fill-opacity:0.07;stroke:#ffffff;stroke-opacity:0.07;" x="0" xlink:href="#md32641b277" y="171.318125"/>
    </g>
   </g>
   <g id="line2d_1">
    <path clip-path="url(#p0d16634910)" d="M 47.474449 94.503036 
L 49.423967 95.476557 
L 51.373486 96.442184 
L 53.323005 97.374487 
L 55.272523 98.310681 
L 57.222042 99.002542 
L 59.171561 99.864456 
L 61.12108 100.502141 
L 63.070598 100.903678 
L 65.020117 101.151459 
L 66.969636 101.134118 
L 68.919154 100.970722 
L 70.868673 101.026109 
L 72.818192 100.91498 
L 74.767711 100.950723 
L 76.717229 100.748112 
L 78.666748 100.921721 
L 80.616267 100.587836 
L 82.565785 100.119844 
L 84.515304 100.117899 
L 86.464823 99.979891 
L 88.414342 99.336163 
L 90.36386 99.159634 
L 92.313379 98.65753 
L 94.262898 98.074721 
L 96.212416 97.63609 
L 98.161935 97.407218 
L 100.111454 96.703706 
L 102.060973 96.324291 
L 104.010491 95.723611 
L 105.96001 95.078334 
L 107.909529 94.542756 
L 109.859047 93.664996 
L 111.808566 93.272501 
L 113.758085 92.686075 
L 115.707604 92.103337 
L 117.657122 90.998496 
L 119.606641 90.521284 
L 121.55616 89.963368 
L 123.505678 88.834131 
L 125.455197 88.662862 
L 127.404716 88.100777 
L 129.354235 87.057194 
L 131.303753 86.372404 
L 133.253272 85.97414 
L 135.202791 84.831555 
L 137.152309 84.241457 
L 139.101828 83.783322 
L 141.051347 82.664865 
L 143.000866 82.417997 
L 144.950384 81.418399 
L 146.899903 80.865092 
L 148.849422 80.064918 
L 150.798941 79.209497 
L 152.748459 78.726896 
L 154.697978 77.713186 
L 156.647497 77.119881 
L 158.597015 76.486506 
L 160.546534 76.274105 
L 162.496053 75.227985 
L 164.445572 74.512203 
L 166.39509 73.617919 
L 168.344609 73.522392 
L 170.294128 72.085297 
L 172.243646 72.204795 
L 174.193165 70.957975 
L 176.142684 70.47814 
L 178.092203 70.02575 
L 180.041721 69.019769 
L 181.99124 67.960742 
L 183.940759 67.811954 
L 185.890277 67.280278 
L 187.839796 66.317274 
L 189.789315 66.047287 
L 191.738834 65.311506 
L 193.688352 64.382047 
L 195.637871 64.033765 
L 197.58739 63.163027 
L 199.536908 62.782903 
L 201.486427 62.30328 
L 203.435946 61.832168 
L 205.385465 61.428286 
L 207.334983 60.447482 
L 209.284502 59.667874 
L 211.234021 59.030741 
L 213.183539 58.498426 
L 215.133058 57.950012 
L 217.082577 57.823635 
L 219.032096 56.854391 
L 220.981614 56.555965 
L 222.931133 56.188465 
L 224.880652 55.639767 
L 226.83017 55.174612 
L 228.779689 54.334936 
L 230.729208 53.851626 
L 232.678727 53.525967 
L 234.628245 52.921528 
L 236.577764 52.764727 
L 238.527283 51.455995 
L 240.476801 51.098707 
" style="fill:none;stroke:#821580;stroke-linecap:round;stroke-width:1.5;"/>
   </g>
   <g id="line2d_2">
    <path clip-path="url(#p0d16634910)" d="M 43.535625 110.315057 
L 240.476801 110.315057 
" style="fill:none;stroke:#000000;stroke-dasharray:5.55,2.4;stroke-dashoffset:0;stroke-opacity:0.4;stroke-width:1.5;"/>
   </g>
   <g id="patch_3">
    <path d="M 43.535625 130.63125 
L 43.535625 21.91125 
" style="fill:none;stroke:#cccccc;stroke-linecap:square;stroke-linejoin:miter;stroke-width:0.8;"/>
   </g>
   <g id="patch_4">
    <path d="M 43.535625 130.63125 
L 240.476801 130.63125 
" style="fill:none;stroke:#cccccc;stroke-linecap:square;stroke-linejoin:miter;stroke-width:0.8;"/>
   </g>
   <g id="text_11">
    <!-- Uniform -->
    <defs>
     <path d="M 82.40625 71 
L 82.40625 72 
L 57.59375 72 
L 57.59375 71 
Q 62.40625 70.296875 64.84375 68.546875 
Q 67.296875 66.796875 68.296875 64 
Q 68.703125 63 68.890625 61.34375 
Q 69.09375 59.703125 69.1875 57.796875 
Q 69.296875 55.90625 69.34375 53.796875 
Q 69.40625 51.703125 69.40625 49.703125 
Q 69.40625 47.59375 69.40625 45.59375 
Q 69.40625 43.703125 69.40625 41.703125 
Q 69.40625 39.796875 69.40625 37.59375 
Q 69.40625 35.40625 69.40625 32.703125 
Q 69.40625 29.296875 69.15625 25.75 
Q 68.90625 22.203125 68.15625 18.796875 
Q 67.40625 15.40625 65.84375 12.40625 
Q 64.296875 9.40625 61.640625 7.09375 
Q 59 4.796875 55.046875 3.5 
Q 51.09375 2.203125 45.40625 2.203125 
Q 40.40625 2.203125 36.5 3.84375 
Q 32.59375 5.5 29.890625 8.546875 
Q 27.203125 11.59375 25.703125 15.9375 
Q 24.203125 20.296875 24.09375 25.59375 
Q 24.09375 28 24.046875 30.140625 
Q 24 32.296875 24 34.59375 
Q 24 37 24 39.703125 
Q 24 42.40625 24 45.796875 
Q 24 48.5 24 50.5 
Q 24 52.59375 24 54.5 
Q 24 56.40625 24.046875 58.40625 
Q 24.09375 60.40625 24.203125 63 
Q 24.296875 65.296875 25.1875 66.796875 
Q 26.09375 68.296875 27.390625 69.140625 
Q 28.703125 70 30.296875 70.390625 
Q 31.90625 70.796875 33.296875 71 
L 33.296875 72 
L 3.5 72 
L 3.5 71 
Q 6.09375 70.703125 8.140625 69.953125 
Q 10.203125 69.203125 11.59375 67.5 
Q 12.203125 66.796875 12.5 65.546875 
Q 12.796875 64.296875 12.9375 62.75 
Q 13.09375 61.203125 13.09375 59.40625 
Q 13.09375 57.59375 13.09375 55.796875 
L 13.09375 42.5 
Q 13.09375 37 13.046875 32.5 
Q 13 28 13 25.203125 
Q 13 24 13.140625 21.546875 
Q 13.296875 19.09375 14.140625 16.140625 
Q 15 13.203125 16.75 10.140625 
Q 18.5 7.09375 21.703125 4.546875 
Q 24.90625 2 29.84375 0.5 
Q 34.796875 -1 42 -1 
Q 49.296875 -1 54.296875 0.546875 
Q 59.296875 2.09375 62.5 4.75 
Q 65.703125 7.40625 67.453125 10.65625 
Q 69.203125 13.90625 70 17.15625 
Q 70.796875 20.40625 70.9375 23.296875 
Q 71.09375 26.203125 71.203125 28.09375 
Q 71.40625 34.796875 71.546875 40.09375 
Q 71.703125 45.40625 71.796875 49.703125 
Q 71.796875 52 71.890625 54.34375 
Q 72 56.703125 72.203125 58.796875 
Q 72.40625 60.90625 72.65625 62.5 
Q 72.90625 64.09375 73.203125 64.796875 
Q 74.40625 67.703125 76.546875 69.09375 
Q 78.703125 70.5 82.40625 71 
z
" id="BigCaslon-Medium-85"/>
     <path d="M 37.90625 67.5 
Q 37.90625 68.90625 37.15625 69.84375 
Q 36.40625 70.796875 35.25 71.390625 
Q 34.09375 72 32.640625 72.296875 
Q 31.203125 72.59375 29.703125 72.59375 
Q 26.5 72.59375 23.453125 71.75 
Q 20.40625 70.90625 17.84375 69.453125 
Q 15.296875 68 13.296875 66.046875 
Q 11.296875 64.09375 10.203125 61.796875 
Q 9.09375 59.59375 8.84375 55.546875 
Q 8.59375 51.5 8.59375 47.296875 
L 2.40625 47.296875 
L 1.296875 42.90625 
L 8.5 42.90625 
L 8.5 4.203125 
Q 8.5 3.40625 7.59375 2.84375 
Q 6.703125 2.296875 5.34375 1.9375 
Q 4 1.59375 2.546875 1.34375 
Q 1.09375 1.09375 0 1 
L 0 0 
L 25.40625 0 
L 25.40625 1 
Q 23.90625 1.203125 22.453125 1.296875 
Q 21 1.40625 19.796875 1.703125 
Q 18.59375 2 17.796875 2.5 
Q 17 3 16.796875 3.90625 
L 16.796875 42.90625 
L 27.40625 42.90625 
L 28.703125 47.296875 
L 16.90625 47.296875 
Q 16.90625 50.90625 16.953125 53.75 
Q 17 56.59375 17.203125 60.59375 
Q 17.40625 63.703125 18.25 65.546875 
Q 19.09375 67.40625 20.25 68.34375 
Q 21.40625 69.296875 22.5 69.59375 
Q 23.59375 69.90625 24.203125 69.90625 
Q 25.40625 69.5 26.34375 68.296875 
Q 27.296875 67.09375 28.34375 65.84375 
Q 29.40625 64.59375 30.65625 63.640625 
Q 31.90625 62.703125 33.703125 62.703125 
Q 35.59375 62.703125 36.75 64.203125 
Q 37.90625 65.703125 37.90625 67.5 
z
" id="BigCaslon-Medium-102"/>
     <path d="M 78.203125 0 
L 78.203125 0.90625 
Q 77.296875 1 76.296875 1.140625 
Q 75.296875 1.296875 74.4375 1.546875 
Q 73.59375 1.796875 73 2.296875 
Q 72.40625 2.796875 72.40625 3.5 
L 72.40625 33.296875 
Q 72.40625 39.90625 69.453125 44.09375 
Q 66.5 48.296875 60.703125 48.296875 
Q 58 48.296875 55.453125 47.1875 
Q 52.90625 46.09375 50.796875 44.34375 
Q 48.703125 42.59375 47.09375 40.546875 
Q 45.5 38.5 44.59375 36.703125 
L 44.296875 36.703125 
Q 43.59375 42 40.640625 45.140625 
Q 37.703125 48.296875 32.90625 48.296875 
Q 30.203125 48.296875 27.75 47.25 
Q 25.296875 46.203125 23.1875 44.640625 
Q 21.09375 43.09375 19.5 41.140625 
Q 17.90625 39.203125 16.90625 37.40625 
L 16.703125 37.5 
L 16.703125 48.296875 
L 16.09375 48.296875 
L 3 43.59375 
L 3 42.796875 
Q 4.203125 42.296875 5.390625 41.640625 
Q 6.59375 41 7.5 40.5 
Q 8.203125 40 8.34375 39.59375 
Q 8.5 39.203125 8.5 38.40625 
L 8.5 4.203125 
Q 8.5 2.59375 6.84375 1.890625 
Q 5.203125 1.203125 2.90625 1 
L 2.90625 0 
L 22.296875 0 
L 22.296875 1 
Q 21.296875 1.203125 20.390625 1.25 
Q 19.5 1.296875 18.75 1.5 
Q 18 1.703125 17.5 2.140625 
Q 17 2.59375 16.796875 3.59375 
L 16.796875 36.40625 
Q 19.40625 39.203125 21.5 40.59375 
Q 23.59375 42 26.90625 42 
Q 32.09375 42 34.140625 38.640625 
Q 36.203125 35.296875 36.203125 29.40625 
L 36.203125 3.796875 
Q 36.203125 2.203125 34.59375 1.75 
Q 33 1.296875 30.296875 1.09375 
L 30.296875 0 
L 50 0 
L 50 0.90625 
Q 49.09375 1 48.140625 1.140625 
Q 47.203125 1.296875 46.390625 1.546875 
Q 45.59375 1.796875 45.09375 2.296875 
Q 44.59375 2.796875 44.59375 3.5 
L 44.59375 35.796875 
Q 47 38.5 49.203125 40.25 
Q 51.40625 42 54.703125 42 
Q 59.90625 42 61.953125 38.546875 
Q 64 35.09375 64 29.296875 
L 64 3.796875 
Q 64 2.203125 62.59375 1.75 
Q 61.203125 1.296875 58.5 1.09375 
L 58.5 0 
z
" id="BigCaslon-Medium-109"/>
    </defs>
    <g style="fill:#262626;" transform="translate(120.759651 15.91125)scale(0.12 -0.12)">
     <use xlink:href="#BigCaslon-Medium-85"/>
     <use x="83.399994" xlink:href="#BigCaslon-Medium-110"/>
     <use x="135.499985" xlink:href="#BigCaslon-Medium-105"/>
     <use x="160.899979" xlink:href="#BigCaslon-Medium-102"/>
     <use x="187.899963" xlink:href="#BigCaslon-Medium-111"/>
     <use x="238.999954" xlink:href="#BigCaslon-Medium-114"/>
     <use x="274.699951" xlink:href="#BigCaslon-Medium-109"/>
    </g>
   </g>
  </g>
  <g id="axes_2">
   <g id="patch_5">
    <path d="M 279.865037 130.63125 
L 476.806213 130.63125 
L 476.806213 21.91125 
L 279.865037 21.91125 
z
" style="fill:none;"/>
   </g>
   <g id="matplotlib.axis_3">
    <g id="xtick_7">
     <g id="text_12">
      <!-- 0.0 -->
      <g style="fill:#262626;" transform="translate(272.915037 144.789062)scale(0.1 -0.1)">
       <use xlink:href="#ArialMT-48"/>
       <use x="55.615234" xlink:href="#ArialMT-46"/>
       <use x="83.398438" xlink:href="#ArialMT-48"/>
      </g>
     </g>
    </g>
    <g id="xtick_8">
     <g id="text_13">
      <!-- 0.1 -->
      <g style="fill:#262626;" transform="translate(312.303272 144.789062)scale(0.1 -0.1)">
       <use xlink:href="#ArialMT-48"/>
       <use x="55.615234" xlink:href="#ArialMT-46"/>
       <use x="83.398438" xlink:href="#ArialMT-49"/>
      </g>
     </g>
    </g>
    <g id="xtick_9">
     <g id="text_14">
      <!-- 0.2 -->
      <g style="fill:#262626;" transform="translate(351.691507 144.789062)scale(0.1 -0.1)">
       <use xlink:href="#ArialMT-48"/>
       <use x="55.615234" xlink:href="#ArialMT-46"/>
       <use x="83.398438" xlink:href="#ArialMT-50"/>
      </g>
     </g>
    </g>
    <g id="xtick_10">
     <g id="text_15">
      <!-- 0.3 -->
      <g style="fill:#262626;" transform="translate(391.079743 144.789062)scale(0.1 -0.1)">
       <use xlink:href="#ArialMT-48"/>
       <use x="55.615234" xlink:href="#ArialMT-46"/>
       <use x="83.398438" xlink:href="#ArialMT-51"/>
      </g>
     </g>
    </g>
    <g id="xtick_11">
     <g id="text_16">
      <!-- 0.4 -->
      <g style="fill:#262626;" transform="translate(430.467978 144.789062)scale(0.1 -0.1)">
       <use xlink:href="#ArialMT-48"/>
       <use x="55.615234" xlink:href="#ArialMT-46"/>
       <use x="83.398438" xlink:href="#ArialMT-52"/>
      </g>
     </g>
    </g>
    <g id="xtick_12">
     <g id="text_17">
      <!-- 0.5 -->
      <g style="fill:#262626;" transform="translate(469.856213 144.789062)scale(0.1 -0.1)">
       <use xlink:href="#ArialMT-48"/>
       <use x="55.615234" xlink:href="#ArialMT-46"/>
       <use x="83.398438" xlink:href="#ArialMT-53"/>
      </g>
     </g>
    </g>
   </g>
   <g id="matplotlib.axis_4">
    <g id="ytick_4"/>
    <g id="ytick_5"/>
    <g id="ytick_6"/>
   </g>
   <g id="PolyCollection_2">
    <defs>
     <path d="M 283.80386 -80.23994 
L 283.80386 -51.403958 
L 285.753379 -51.381307 
L 287.702898 -51.398889 
L 289.652416 -51.403958 
L 291.601935 -51.403958 
L 293.551454 -51.39332 
L 295.500973 -51.541431 
L 297.450491 -51.775463 
L 299.40001 -52.039084 
L 301.349529 -52.580389 
L 303.299047 -52.912969 
L 305.248566 -52.994544 
L 307.198085 -53.38592 
L 309.147604 -53.635908 
L 311.097122 -54.125246 
L 313.046641 -54.268367 
L 314.99616 -54.367568 
L 316.945678 -54.474344 
L 318.895197 -54.721345 
L 320.844716 -54.988937 
L 322.794235 -55.05479 
L 324.743753 -55.105632 
L 326.693272 -55.216376 
L 328.642791 -55.291743 
L 330.592309 -55.299867 
L 332.541828 -55.637044 
L 334.491347 -55.866183 
L 336.440866 -56.183919 
L 338.390384 -56.938288 
L 340.339903 -56.806266 
L 342.289422 -57.249185 
L 344.238941 -57.368648 
L 346.188459 -57.860769 
L 348.137978 -58.11222 
L 350.087497 -58.752621 
L 352.037015 -58.850196 
L 353.986534 -59.419023 
L 355.936053 -59.49904 
L 357.885572 -60.188821 
L 359.83509 -59.960774 
L 361.784609 -60.543414 
L 363.734128 -60.452845 
L 365.683646 -61.673572 
L 367.633165 -61.883678 
L 369.582684 -62.069666 
L 371.532203 -62.841914 
L 373.481721 -62.608647 
L 375.43124 -63.503995 
L 377.380759 -63.933176 
L 379.330277 -64.871074 
L 381.279796 -65.025322 
L 383.229315 -65.457926 
L 385.178834 -65.633449 
L 387.128352 -66.534635 
L 389.077871 -66.974648 
L 391.02739 -67.207882 
L 392.976908 -68.422843 
L 394.926427 -68.693627 
L 396.875946 -68.501171 
L 398.825465 -69.966616 
L 400.774983 -70.273339 
L 402.724502 -71.209465 
L 404.674021 -71.90414 
L 406.623539 -72.078218 
L 408.573058 -72.464724 
L 410.522577 -73.272869 
L 412.472096 -73.962994 
L 414.421614 -74.770554 
L 416.371133 -74.969126 
L 418.320652 -74.923585 
L 420.27017 -75.930991 
L 422.219689 -77.091921 
L 424.169208 -77.503504 
L 426.118727 -78.287154 
L 428.068245 -79.441355 
L 430.017764 -79.521138 
L 431.967283 -80.18496 
L 433.916801 -80.696614 
L 435.86632 -81.099077 
L 437.815839 -81.736744 
L 439.765358 -82.084926 
L 441.714876 -83.422834 
L 443.664395 -83.410423 
L 445.613914 -83.878384 
L 447.563432 -85.286119 
L 449.512951 -86.080407 
L 451.46247 -86.535418 
L 453.411989 -87.481317 
L 455.361507 -87.733943 
L 457.311026 -88.001661 
L 459.260545 -88.983019 
L 461.210064 -89.296834 
L 463.159582 -90.713237 
L 465.109101 -90.189254 
L 467.05862 -91.08992 
L 469.008138 -91.712231 
L 470.957657 -92.172049 
L 472.907176 -92.366455 
L 474.856695 -93.98402 
L 476.806213 -94.604112 
L 476.806213 -141.68789 
L 476.806213 -141.68789 
L 474.856695 -140.961146 
L 472.907176 -138.976202 
L 470.957657 -140.305926 
L 469.008138 -137.843801 
L 467.05862 -138.075535 
L 465.109101 -137.017075 
L 463.159582 -136.419586 
L 461.210064 -136.14123 
L 459.260545 -135.490552 
L 457.311026 -134.883927 
L 455.361507 -135.097478 
L 453.411989 -134.59041 
L 451.46247 -133.32274 
L 449.512951 -133.023108 
L 447.563432 -131.617084 
L 445.613914 -130.877092 
L 443.664395 -129.727024 
L 441.714876 -130.629463 
L 439.765358 -128.948692 
L 437.815839 -128.991243 
L 435.86632 -125.753808 
L 433.916801 -126.328249 
L 431.967283 -126.458498 
L 430.017764 -124.781272 
L 428.068245 -124.630068 
L 426.118727 -123.334533 
L 424.169208 -122.698526 
L 422.219689 -122.523785 
L 420.27017 -121.23019 
L 418.320652 -120.617931 
L 416.371133 -119.780842 
L 414.421614 -119.602185 
L 412.472096 -117.547155 
L 410.522577 -115.820037 
L 408.573058 -115.876772 
L 406.623539 -115.896275 
L 404.674021 -114.272239 
L 402.724502 -113.299306 
L 400.774983 -110.922223 
L 398.825465 -112.225365 
L 396.875946 -108.973735 
L 394.926427 -108.840762 
L 392.976908 -107.887338 
L 391.02739 -107.577069 
L 389.077871 -106.163584 
L 387.128352 -104.447927 
L 385.178834 -102.943507 
L 383.229315 -101.724423 
L 381.279796 -101.276025 
L 379.330277 -100.585463 
L 377.380759 -99.214646 
L 375.43124 -97.606881 
L 373.481721 -96.871979 
L 371.532203 -94.729428 
L 369.582684 -93.556797 
L 367.633165 -92.486134 
L 365.683646 -91.643976 
L 363.734128 -89.568359 
L 361.784609 -88.568353 
L 359.83509 -87.522623 
L 357.885572 -85.603649 
L 355.936053 -84.689955 
L 353.986534 -82.057102 
L 352.037015 -81.269905 
L 350.087497 -79.49342 
L 348.137978 -78.041362 
L 346.188459 -76.678007 
L 344.238941 -74.966147 
L 342.289422 -73.952625 
L 340.339903 -73.044344 
L 338.390384 -72.343204 
L 336.440866 -71.60867 
L 334.491347 -71.59626 
L 332.541828 -71.575123 
L 330.592309 -73.012998 
L 328.642791 -71.919078 
L 326.693272 -74.088195 
L 324.743753 -72.811065 
L 322.794235 -73.073464 
L 320.844716 -72.278345 
L 318.895197 -73.533466 
L 316.945678 -74.722442 
L 314.99616 -75.447402 
L 313.046641 -75.970693 
L 311.097122 -74.139172 
L 309.147604 -73.758114 
L 307.198085 -72.913249 
L 305.248566 -73.091959 
L 303.299047 -73.337322 
L 301.349529 -73.681804 
L 299.40001 -73.922889 
L 297.450491 -74.27039 
L 295.500973 -75.035388 
L 293.551454 -75.481916 
L 291.601935 -75.808217 
L 289.652416 -77.664011 
L 287.702898 -78.424924 
L 285.753379 -79.268475 
L 283.80386 -80.23994 
z
" id="med4b280093" style="stroke:#ffffff;stroke-opacity:0.07;"/>
    </defs>
    <g clip-path="url(#p19c080ca98)">
     <use style="fill:#821580;fill-opacity:0.07;stroke:#ffffff;stroke-opacity:0.07;" x="0" xlink:href="#med4b280093" y="171.318125"/>
    </g>
   </g>
   <g id="line2d_3">
    <path clip-path="url(#p19c080ca98)" d="M 283.80386 99.059037 
L 285.753379 100.282316 
L 287.702898 101.353595 
L 289.652416 102.241816 
L 291.601935 103.23923 
L 293.551454 103.835084 
L 295.500973 104.4976 
L 297.450491 105.028218 
L 299.40001 105.218445 
L 301.349529 105.271618 
L 303.299047 105.090301 
L 305.248566 105.371413 
L 307.198085 105.398727 
L 309.147604 105.38816 
L 311.097122 105.555883 
L 313.046641 105.27355 
L 314.99616 105.655376 
L 316.945678 105.619066 
L 318.895197 105.682811 
L 320.844716 105.544005 
L 322.794235 105.296527 
L 324.743753 104.996628 
L 326.693272 104.512271 
L 328.642791 104.384092 
L 330.592309 103.889242 
L 332.541828 103.518115 
L 334.491347 102.860551 
L 336.440866 102.199812 
L 338.390384 101.221281 
L 340.339903 101.023489 
L 342.289422 100.256474 
L 344.238941 99.262821 
L 346.188459 98.704479 
L 348.137978 97.786792 
L 350.087497 96.591317 
L 352.037015 95.747368 
L 353.986534 95.482629 
L 355.936053 94.209215 
L 357.885572 93.653638 
L 359.83509 92.97737 
L 361.784609 92.136902 
L 363.734128 91.512688 
L 365.683646 90.368345 
L 367.633165 89.949429 
L 369.582684 89.386335 
L 371.532203 88.359079 
L 373.481721 87.337496 
L 375.43124 86.438744 
L 377.380759 85.873066 
L 379.330277 84.99704 
L 381.279796 84.318601 
L 383.229315 83.818018 
L 385.178834 83.245389 
L 387.128352 82.27813 
L 389.077871 81.244492 
L 391.02739 80.500201 
L 392.976908 79.736266 
L 394.926427 79.010272 
L 396.875946 78.756596 
L 398.825465 77.369002 
L 400.774983 77.196315 
L 402.724502 76.473158 
L 404.674021 75.392571 
L 406.623539 74.900184 
L 408.573058 74.385314 
L 410.522577 73.707545 
L 412.472096 72.886166 
L 414.421614 72.012449 
L 416.371133 71.435242 
L 418.320652 70.699178 
L 420.27017 70.018997 
L 422.219689 69.101665 
L 424.169208 68.686507 
L 426.118727 68.149724 
L 428.068245 67.255953 
L 430.017764 66.944392 
L 431.967283 66.097978 
L 433.916801 65.697146 
L 435.86632 65.760547 
L 437.815839 64.017738 
L 439.765358 63.728815 
L 441.714876 62.729076 
L 443.664395 62.796078 
L 445.613914 61.975195 
L 447.563432 61.475306 
L 449.512951 60.562796 
L 451.46247 59.868006 
L 453.411989 58.753591 
L 455.361507 58.597074 
L 457.311026 58.507645 
L 459.260545 57.774347 
L 461.210064 57.38394 
L 463.159582 56.704469 
L 465.109101 56.265482 
L 467.05862 55.681169 
L 469.008138 55.107949 
L 470.957657 54.293661 
L 472.907176 54.477183 
L 474.856695 53.338458 
L 476.806213 52.845574 
" style="fill:none;stroke:#821580;stroke-linecap:round;stroke-width:1.5;"/>
   </g>
   <g id="line2d_4">
    <path clip-path="url(#p19c080ca98)" d="M 279.865037 110.315057 
L 476.806213 110.315057 
" style="fill:none;stroke:#000000;stroke-dasharray:5.55,2.4;stroke-dashoffset:0;stroke-opacity:0.4;stroke-width:1.5;"/>
   </g>
   <g id="patch_6">
    <path d="M 279.865037 130.63125 
L 279.865037 21.91125 
" style="fill:none;stroke:#cccccc;stroke-linecap:square;stroke-linejoin:miter;stroke-width:0.8;"/>
   </g>
   <g id="patch_7">
    <path d="M 279.865037 130.63125 
L 476.806213 130.63125 
" style="fill:none;stroke:#cccccc;stroke-linecap:square;stroke-linejoin:miter;stroke-width:0.8;"/>
   </g>
   <g id="text_18">
    <!-- Probability weighted -->
    <defs>
     <path d="M 63.59375 51.203125 
Q 63.59375 57.203125 60.6875 61.59375 
Q 57.796875 66 53.40625 68.40625 
Q 48.90625 70.90625 43.796875 71.546875 
Q 38.703125 72.203125 32.09375 72.203125 
Q 30.296875 72.203125 27.59375 72.203125 
Q 25 72.203125 22.046875 72.140625 
Q 19.09375 72.09375 16.09375 72.09375 
Q 13.09375 72.09375 10.546875 72.046875 
Q 8 72 6.09375 72 
Q 4.296875 72 3.703125 72 
L 3.703125 71 
Q 6.40625 70.59375 8.75 70.046875 
Q 11.09375 69.5 12.59375 67.90625 
Q 13.203125 67.296875 13.546875 65.9375 
Q 13.90625 64.59375 14.046875 62.9375 
Q 14.203125 61.296875 14.25 59.4375 
Q 14.296875 57.59375 14.296875 55.796875 
L 14.296875 36.296875 
Q 14.296875 33.59375 14.296875 30.5 
Q 14.296875 27.5 14.25 24.640625 
Q 14.203125 21.796875 14.140625 19.390625 
Q 14.09375 17 14.09375 15.59375 
Q 14.09375 14 14 12.296875 
Q 13.90625 10.59375 13.75 9.09375 
Q 13.59375 7.59375 13.296875 6.390625 
Q 13 5.203125 12.5 4.59375 
Q 11.203125 3 8.890625 2.203125 
Q 6.59375 1.40625 4.09375 1 
L 4.09375 0 
L 36.09375 0 
L 36.09375 1 
Q 32 1.203125 29.703125 2.5 
Q 27.40625 3.796875 26.59375 5.09375 
Q 25.59375 6.59375 25.5 8.890625 
Q 25.40625 11.203125 25.296875 14.40625 
Q 25.296875 16.09375 25.25 17.546875 
Q 25.203125 19 25.203125 20.703125 
Q 25.203125 22.40625 25.203125 24.59375 
Q 25.203125 26.90625 25.203125 30.09375 
Q 27.59375 30.09375 30.59375 30.09375 
Q 33.703125 30.09375 36.953125 30.34375 
Q 40.203125 30.59375 43.390625 31.09375 
Q 46.59375 31.59375 49.40625 32.59375 
Q 52.09375 33.59375 54.6875 35.25 
Q 57.296875 36.90625 59.25 39.203125 
Q 61.203125 41.5 62.390625 44.5 
Q 63.59375 47.5 63.59375 51.203125 
z
M 52.796875 51.703125 
Q 52.796875 45.40625 49.390625 40.34375 
Q 46 35.296875 39.59375 33.09375 
Q 36.5 32 32.890625 31.75 
Q 29.296875 31.5 25.203125 31.5 
Q 25.203125 32.296875 25.203125 35.90625 
Q 25.203125 39.5 25.203125 44.296875 
Q 25.203125 49.09375 25.25 54.09375 
Q 25.296875 59.09375 25.40625 62.59375 
Q 25.5 64.90625 25.59375 66.15625 
Q 25.703125 67.40625 25.796875 68.09375 
Q 25.90625 68.796875 26.046875 69.25 
Q 26.203125 69.703125 26.296875 70.296875 
Q 27 70.40625 28.140625 70.546875 
Q 29.296875 70.703125 31.40625 70.703125 
Q 34.296875 70.703125 37 70.296875 
Q 39.703125 69.90625 42.09375 68.796875 
Q 46.90625 66.5 49.84375 62 
Q 52.796875 57.5 52.796875 51.703125 
z
" id="BigCaslon-Medium-80"/>
     <path d="M 51.90625 24.203125 
Q 51.90625 28.90625 50.59375 33.25 
Q 49.296875 37.59375 46.796875 40.9375 
Q 44.296875 44.296875 40.6875 46.296875 
Q 37.09375 48.296875 32.40625 48.296875 
Q 29.59375 48.296875 26.796875 47.296875 
Q 24 46.296875 21.640625 44.640625 
Q 19.296875 43 17.5 41 
Q 15.703125 39 14.796875 36.90625 
L 14.59375 37 
L 14.90625 72.59375 
L 14.09375 72.59375 
L 0.703125 66.5 
L 0.703125 65.90625 
Q 2.40625 65 4 64.09375 
Q 5.59375 63.203125 6.5 62.59375 
L 6.5 0.296875 
L 7.203125 0.296875 
L 9.59375 5.703125 
L 10.09375 5.703125 
Q 13.296875 3 18 1.453125 
Q 22.703125 -0.09375 28.40625 -0.09375 
Q 33.5 -0.09375 37.796875 1.75 
Q 42.09375 3.59375 45.25 6.890625 
Q 48.40625 10.203125 50.15625 14.640625 
Q 51.90625 19.09375 51.90625 24.203125 
z
M 42.703125 22.796875 
Q 42.703125 18.203125 41.703125 14.25 
Q 40.703125 10.296875 38.84375 7.390625 
Q 37 4.5 34.453125 2.890625 
Q 31.90625 1.296875 28.703125 1.296875 
Q 25 1.296875 22.390625 2.84375 
Q 19.796875 4.40625 18.140625 6.953125 
Q 16.5 9.5 15.703125 12.75 
Q 14.90625 16 14.796875 19.296875 
Q 14.703125 21.203125 14.703125 23.09375 
Q 14.703125 25.09375 14.703125 27.09375 
Q 14.703125 28.5 14.703125 30.703125 
Q 14.703125 33 14.796875 34.203125 
Q 14.796875 34.796875 15.546875 36.09375 
Q 16.296875 37.40625 17.75 38.703125 
Q 19.203125 40 21.453125 41 
Q 23.703125 42 26.796875 42 
Q 30.90625 42 33.90625 40.390625 
Q 36.90625 38.796875 38.84375 36.140625 
Q 40.796875 33.5 41.75 30.046875 
Q 42.703125 26.59375 42.703125 22.796875 
z
" id="BigCaslon-Medium-98"/>
     <path d="M 46.5 9.796875 
L 45.90625 9.796875 
Q 45.5 8.296875 44.390625 7.34375 
Q 43.296875 6.40625 41 6.40625 
Q 39 6.40625 37.453125 7.84375 
Q 35.90625 9.296875 35.90625 13.796875 
Q 35.90625 17.203125 35.953125 20.046875 
Q 36 22.90625 36 25.59375 
Q 36 28.296875 36.046875 31.1875 
Q 36.09375 34.09375 36.09375 37.703125 
Q 36.09375 39.40625 36 41.15625 
Q 35.90625 42.90625 35.5 43.59375 
Q 34.5 45.59375 32.203125 46.9375 
Q 29.90625 48.296875 27.296875 48.296875 
Q 26 48.296875 23.953125 47.6875 
Q 21.90625 47.09375 19.453125 46.09375 
Q 17 45.09375 14.296875 43.6875 
Q 11.59375 42.296875 9 40.796875 
Q 8.203125 40.296875 7.140625 39.6875 
Q 6.09375 39.09375 5.1875 38.296875 
Q 4.296875 37.5 3.6875 36.5 
Q 3.09375 35.5 3.09375 34.296875 
Q 3.09375 32.796875 4.25 31.640625 
Q 5.40625 30.5 7 30.5 
Q 8.703125 30.5 10.140625 31.59375 
Q 11.59375 32.703125 11.59375 34.09375 
L 11.59375 38.59375 
Q 11.59375 39.203125 12.296875 40.046875 
Q 13 40.90625 14.203125 41.75 
Q 15.40625 42.59375 16.953125 43.140625 
Q 18.5 43.703125 20.09375 43.703125 
Q 22.5 43.703125 24 43.046875 
Q 25.5 42.40625 26.34375 41.59375 
Q 27.203125 40.796875 27.546875 40.046875 
Q 27.90625 39.296875 27.90625 39.09375 
L 27.90625 28.796875 
Q 26.90625 28.203125 25.453125 27.453125 
Q 24 26.703125 22.09375 25.640625 
Q 20.203125 24.59375 17.640625 23.09375 
Q 15.09375 21.59375 11.796875 19.5 
Q 8.5 17.40625 6.25 14.796875 
Q 4 12.203125 4 9.40625 
Q 4 6.796875 4.84375 5 
Q 5.703125 3.203125 7.046875 2.046875 
Q 8.40625 0.90625 10.046875 0.453125 
Q 11.703125 0 13.296875 0 
Q 16 0 18.25 0.84375 
Q 20.5 1.703125 22.34375 3.09375 
Q 24.203125 4.5 25.546875 6.09375 
Q 26.90625 7.703125 27.703125 9 
L 27.90625 8.90625 
Q 27.90625 3.90625 30.546875 1.90625 
Q 33.203125 -0.09375 36.59375 -0.09375 
Q 38.703125 -0.09375 40.453125 0.65625 
Q 42.203125 1.40625 43.5 2.84375 
Q 44.796875 4.296875 45.59375 6.09375 
Q 46.40625 7.90625 46.5 9.796875 
z
M 27.90625 11.796875 
Q 27.90625 10.09375 26.703125 9 
Q 25 7.296875 23 6.6875 
Q 21 6.09375 18.40625 6.09375 
Q 15.5 6.09375 13.703125 8.1875 
Q 11.90625 10.296875 11.90625 12.90625 
Q 11.90625 15.5 13.75 17.546875 
Q 15.59375 19.59375 18.140625 21.296875 
Q 20.703125 23 23.390625 24.453125 
Q 26.09375 25.90625 27.90625 27.203125 
z
" id="BigCaslon-Medium-97"/>
     <path d="M 24 0 
L 24 1.09375 
Q 22.09375 1.296875 20.6875 1.34375 
Q 19.296875 1.40625 18.390625 1.59375 
Q 17.5 1.796875 17.046875 2.296875 
Q 16.59375 2.796875 16.59375 3.796875 
L 16.59375 72.296875 
L 15.90625 72.296875 
L 1.59375 67.59375 
L 1.59375 67 
Q 2.796875 66.5 4.59375 65.453125 
Q 6.40625 64.40625 7.296875 63.90625 
Q 8 63.40625 8.140625 63 
Q 8.296875 62.59375 8.296875 61.796875 
L 8.296875 4.296875 
Q 8.296875 2.703125 6.796875 2.046875 
Q 5.296875 1.40625 0.703125 1.09375 
L 0.703125 0 
z
" id="BigCaslon-Medium-108"/>
     <path d="M 44.296875 46.203125 
L 44.296875 47.296875 
L 28.90625 47.296875 
L 28.90625 46.203125 
Q 29.796875 46.09375 30.796875 46 
Q 31.796875 45.90625 32.640625 45.59375 
Q 33.5 45.296875 34 44.75 
Q 34.5 44.203125 34.5 43.296875 
Q 34.5 42.703125 33.84375 40.25 
Q 33.203125 37.796875 32.203125 34.34375 
Q 31.203125 30.90625 30 27 
Q 28.796875 23.09375 27.6875 19.546875 
Q 26.59375 16 25.796875 13.390625 
Q 25 10.796875 24.703125 10 
Q 23.796875 12.40625 22.59375 15.65625 
Q 21.40625 18.90625 20.15625 22.40625 
Q 18.90625 25.90625 17.65625 29.34375 
Q 16.40625 32.796875 15.40625 35.6875 
Q 14.40625 38.59375 13.796875 40.546875 
Q 13.203125 42.5 13.203125 43 
Q 13.203125 44.90625 14.75 45.40625 
Q 16.296875 45.90625 18.40625 46.203125 
L 18.40625 47.296875 
L -3.40625 47.296875 
L -3.40625 46.203125 
Q 0 46 1.25 45.390625 
Q 2.5 44.796875 3.40625 43.796875 
Q 4.90625 39.703125 6.703125 34.796875 
Q 8.5 29.90625 10.34375 24.84375 
Q 12.203125 19.796875 14 15 
Q 15.796875 10.203125 17.1875 6.34375 
Q 18.59375 2.5 19.5 0.046875 
Q 20.40625 -2.40625 20.59375 -2.796875 
Q 20.5 -3.296875 20.09375 -4.796875 
Q 19.703125 -6.296875 19.046875 -8.4375 
Q 18.40625 -10.59375 17.546875 -13.25 
Q 16.703125 -15.90625 15.59375 -18.59375 
L 15.40625 -18.59375 
Q 14 -17.296875 12.640625 -16.09375 
Q 11.296875 -14.90625 9.296875 -14.90625 
Q 7.296875 -14.90625 6.09375 -16.203125 
Q 4.90625 -17.5 4.90625 -19.5 
Q 4.90625 -21.5 6.59375 -22.75 
Q 8.296875 -24 10.296875 -24 
Q 12.59375 -24 14.796875 -22.296875 
Q 17 -20.59375 18.203125 -16.796875 
Q 19.90625 -11.5 21.75 -5.59375 
Q 23.59375 0.296875 25.4375 6.296875 
Q 27.296875 12.296875 29.09375 18 
Q 30.90625 23.703125 32.40625 28.453125 
Q 33.90625 33.203125 35 36.703125 
Q 36.09375 40.203125 36.59375 41.796875 
Q 37.09375 43.40625 37.890625 44.25 
Q 38.703125 45.09375 39.75 45.5 
Q 40.796875 45.90625 41.9375 46 
Q 43.09375 46.09375 44.296875 46.203125 
z
" id="BigCaslon-Medium-121"/>
     <path id="BigCaslon-Medium-32"/>
     <path d="M 76.5 46.203125 
L 76.5 47.296875 
L 58.203125 47.296875 
L 58.203125 46.203125 
Q 59.09375 46.09375 60.1875 46 
Q 61.296875 45.90625 62.25 45.546875 
Q 63.203125 45.203125 63.84375 44.453125 
Q 64.5 43.703125 64.5 42.296875 
Q 64.5 41.40625 63.796875 39.09375 
Q 63.09375 36.796875 62.046875 33.84375 
Q 61 30.90625 59.640625 27.546875 
Q 58.296875 24.203125 57.046875 21.046875 
Q 55.796875 17.90625 54.6875 15.34375 
Q 53.59375 12.796875 53 11.5 
Q 52.09375 13.90625 50.9375 17.046875 
Q 49.796875 20.203125 48.59375 23.5 
Q 47.40625 26.796875 46.25 30.09375 
Q 45.09375 33.40625 44.1875 36.09375 
Q 43.296875 38.796875 42.75 40.640625 
Q 42.203125 42.5 42.203125 43 
Q 42.203125 44.09375 43.046875 44.640625 
Q 43.90625 45.203125 45.046875 45.5 
Q 46.203125 45.796875 47.390625 45.9375 
Q 48.59375 46.09375 49.40625 46.203125 
L 49.40625 47.296875 
L 26.59375 47.296875 
L 26.59375 46.203125 
Q 28.40625 46.09375 29.40625 45.84375 
Q 30.40625 45.59375 30.953125 45.25 
Q 31.5 44.90625 31.75 44.546875 
Q 32 44.203125 32.296875 43.90625 
Q 33.296875 42.09375 34.09375 40.25 
Q 34.90625 38.40625 35.59375 36.40625 
Q 34.296875 32.796875 32.9375 29.09375 
Q 31.59375 25.40625 30.296875 22 
Q 29 18.59375 27.890625 15.796875 
Q 26.796875 13 26 11 
Q 24.09375 15.59375 21.796875 21.09375 
Q 19.5 26.59375 17.5 31.5 
Q 15.5 36.40625 14.140625 39.953125 
Q 12.796875 43.5 12.59375 44.296875 
Q 13.09375 44.796875 13.9375 45.09375 
Q 14.796875 45.40625 15.75 45.65625 
Q 16.703125 45.90625 17.640625 46 
Q 18.59375 46.09375 19.296875 46.203125 
L 19.296875 47.296875 
L -3.203125 47.296875 
L -3.203125 46.203125 
Q 0.09375 46.09375 1.25 45.34375 
Q 2.40625 44.59375 3 44.09375 
Q 3.796875 42.796875 4.546875 41.140625 
Q 5.296875 39.5 5.90625 38.09375 
Q 10.09375 28 13.796875 19 
Q 17.5 10 21.40625 0.5 
Q 21.796875 -0.203125 22.296875 -0.203125 
Q 22.90625 -0.203125 23.296875 0.40625 
Q 24.296875 2.59375 25 4.5 
Q 25.703125 6.40625 27.09375 9.09375 
L 36.59375 33.90625 
Q 38.59375 28.09375 40.09375 23.59375 
Q 41.59375 19.09375 42.890625 15.296875 
Q 44.203125 11.5 45.390625 7.953125 
Q 46.59375 4.40625 47.90625 0.5 
Q 48 0.203125 48.140625 0 
Q 48.296875 -0.203125 48.796875 -0.203125 
Q 49.296875 -0.203125 49.703125 0.40625 
Q 50.296875 1.59375 50.75 2.59375 
Q 51.203125 3.59375 51.703125 4.640625 
Q 52.203125 5.703125 52.796875 7.046875 
Q 53.40625 8.40625 54.296875 10.296875 
Q 55.703125 13.796875 57.453125 17.84375 
Q 59.203125 21.90625 60.953125 26 
Q 62.703125 30.09375 64.34375 33.84375 
Q 66 37.59375 67.203125 40.40625 
Q 68.09375 42.5 69.25 43.640625 
Q 70.40625 44.796875 71.59375 45.34375 
Q 72.796875 45.90625 74.046875 46 
Q 75.296875 46.09375 76.5 46.203125 
z
" id="BigCaslon-Medium-119"/>
     <path d="M 43.296875 15.203125 
L 42.5 15.40625 
Q 41.296875 11.703125 37.546875 9.140625 
Q 33.796875 6.59375 28.796875 6.59375 
Q 24.203125 6.59375 20.703125 8.296875 
Q 17.203125 10 14.890625 12.953125 
Q 12.59375 15.90625 11.390625 19.75 
Q 10.203125 23.59375 10.203125 27.796875 
Q 10.203125 28.90625 10.296875 29.953125 
Q 10.40625 31 10.40625 31.796875 
L 42.5 31.796875 
Q 42.203125 36 40.59375 39.09375 
Q 39 42.203125 36.453125 44.25 
Q 33.90625 46.296875 30.453125 47.296875 
Q 27 48.296875 23.09375 48.296875 
Q 18.296875 48.296875 14.34375 46.25 
Q 10.40625 44.203125 7.65625 40.890625 
Q 4.90625 37.59375 3.40625 33.4375 
Q 1.90625 29.296875 1.90625 25.09375 
Q 1.90625 19.90625 3.5 15.25 
Q 5.09375 10.59375 8.046875 7.140625 
Q 11 3.703125 15.203125 1.796875 
Q 19.40625 -0.09375 24.5 -0.09375 
Q 28.59375 -0.09375 31.9375 1.40625 
Q 35.296875 2.90625 37.6875 5.203125 
Q 40.09375 7.5 41.5 10.25 
Q 42.90625 13 43.296875 15.203125 
z
M 32.59375 37.59375 
Q 32.59375 36.203125 32.25 35.5 
Q 31.90625 34.796875 31.203125 34 
Q 30.203125 33.59375 28.890625 33.5 
Q 27.59375 33.40625 26.09375 33.40625 
Q 23.796875 33.40625 21.890625 33.34375 
Q 20 33.296875 18.25 33.25 
Q 16.5 33.203125 14.703125 33.203125 
Q 12.90625 33.203125 10.59375 33.203125 
Q 10.796875 34.40625 11.6875 36.65625 
Q 12.59375 38.90625 14.25 41.09375 
Q 15.90625 43.296875 18.15625 44.9375 
Q 20.40625 46.59375 23.203125 46.59375 
Q 27.5 46.59375 30.046875 43.9375 
Q 32.59375 41.296875 32.59375 37.59375 
z
" id="BigCaslon-Medium-101"/>
     <path d="M 53.5 42.796875 
Q 53.5 44.5 52.390625 45.703125 
Q 51.296875 46.90625 49.59375 46.90625 
Q 48.40625 46.90625 47.5 46.546875 
Q 46.59375 46.203125 45.796875 45.75 
Q 45 45.296875 44.046875 44.9375 
Q 43.09375 44.59375 41.90625 44.59375 
Q 40.703125 44.59375 39.84375 44.6875 
Q 39 44.796875 37.796875 45.203125 
Q 34.59375 46.90625 31.640625 47.59375 
Q 28.703125 48.296875 24.90625 48.296875 
Q 20.703125 48.296875 17.140625 47.09375 
Q 13.59375 45.90625 11 43.84375 
Q 8.40625 41.796875 6.953125 39 
Q 5.5 36.203125 5.5 33 
Q 5.5 27.90625 7.953125 24.59375 
Q 10.40625 21.296875 14.796875 19.59375 
L 14.796875 19.296875 
Q 12.296875 19 10.140625 18.046875 
Q 8 17.09375 6.390625 15.6875 
Q 4.796875 14.296875 3.890625 12.59375 
Q 3 10.90625 3 9 
Q 3 5.203125 5.75 2.890625 
Q 8.5 0.59375 13.59375 0 
L 13.59375 -0.203125 
Q 11.5 -1.5 9.34375 -2.84375 
Q 7.203125 -4.203125 5.453125 -5.75 
Q 3.703125 -7.296875 2.546875 -9 
Q 1.40625 -10.703125 1.40625 -12.796875 
Q 1.40625 -18.5 7.453125 -21.75 
Q 13.5 -25 24.40625 -25 
Q 30.09375 -25 34.84375 -23.453125 
Q 39.59375 -21.90625 43.09375 -19.203125 
Q 46.59375 -16.5 48.546875 -12.953125 
Q 50.5 -9.40625 50.5 -5.5 
Q 50.5 -2.5 49.453125 -0.046875 
Q 48.40625 2.40625 46.40625 4.296875 
Q 44.40625 6.203125 41.59375 7.296875 
Q 38.796875 8.40625 35.296875 8.40625 
L 19.296875 8.40625 
Q 17.59375 8.40625 15.796875 8.59375 
Q 14 8.796875 12.5 9.390625 
Q 11 10 10 11.046875 
Q 9 12.09375 9 13.703125 
Q 9 15.703125 10.890625 17 
Q 12.796875 18.296875 16 18.5 
Q 18 18.5 19.453125 18.296875 
Q 20.90625 18.09375 22.296875 18.09375 
Q 32 18.09375 37.5 22.046875 
Q 43 26 43 33.90625 
Q 43 37.09375 41.953125 39.09375 
Q 40.90625 41.09375 39.40625 43.40625 
L 39.796875 43.796875 
Q 41 43.09375 42.5 42.25 
Q 44 41.40625 45.453125 40.703125 
Q 46.90625 40 48.09375 39.5 
Q 49.296875 39 49.90625 39 
Q 51.40625 39 52.453125 40.140625 
Q 53.5 41.296875 53.5 42.796875 
z
M 35 33.90625 
Q 35 31.09375 34.296875 28.546875 
Q 33.59375 26 32.1875 24 
Q 30.796875 22 28.75 20.796875 
Q 26.703125 19.59375 24 19.59375 
Q 19.59375 19.59375 16.546875 23.25 
Q 13.5 26.90625 13.5 32.90625 
Q 13.5 35.5 14.203125 38 
Q 14.90625 40.5 16.25 42.453125 
Q 17.59375 44.40625 19.59375 45.546875 
Q 21.59375 46.703125 24.09375 46.703125 
Q 26.796875 46.703125 28.84375 45.640625 
Q 30.90625 44.59375 32.25 42.84375 
Q 33.59375 41.09375 34.296875 38.796875 
Q 35 36.5 35 33.90625 
z
M 43.796875 -9.59375 
Q 43.796875 -13.90625 41.140625 -17 
Q 38.5 -20.09375 35 -21.5 
Q 33.296875 -22.09375 31.140625 -22.390625 
Q 29 -22.703125 26 -22.703125 
Q 23.5 -22.703125 20.546875 -21.890625 
Q 17.59375 -21.09375 15 -19.4375 
Q 12.40625 -17.796875 10.65625 -15.390625 
Q 8.90625 -13 8.90625 -9.796875 
Q 8.90625 -6.703125 10.703125 -4.09375 
Q 12.5 -1.5 17.203125 -0.296875 
Q 18.59375 -0.09375 20.796875 0.09375 
Q 23 0.296875 25.09375 0.296875 
Q 30.90625 0.296875 34.203125 -0.140625 
Q 37.5 -0.59375 39.703125 -1.703125 
Q 41.40625 -2.5 42.59375 -4.59375 
Q 43.796875 -6.703125 43.796875 -9.59375 
z
" id="BigCaslon-Medium-103"/>
     <path d="M 51.40625 0 
L 51.40625 0.90625 
Q 50.5 1 49.5 1.140625 
Q 48.5 1.296875 47.59375 1.546875 
Q 46.703125 1.796875 46.09375 2.296875 
Q 45.5 2.796875 45.5 3.5 
L 45.5 33 
Q 45.5 36.296875 44.953125 39.09375 
Q 44.40625 41.90625 43.046875 43.953125 
Q 41.703125 46 39.453125 47.140625 
Q 37.203125 48.296875 33.90625 48.296875 
Q 30.5 48.296875 27.640625 47.140625 
Q 24.796875 46 22.59375 44.390625 
Q 20.40625 42.796875 18.953125 41 
Q 17.5 39.203125 16.796875 37.796875 
L 16.59375 37.90625 
L 16.90625 72.59375 
L 16.09375 72.59375 
L 2.703125 66.5 
L 2.703125 65.90625 
Q 4 65.09375 5.34375 64.4375 
Q 6.703125 63.796875 7.5 63.09375 
Q 8.203125 62.59375 8.34375 62.1875 
Q 8.5 61.796875 8.5 61 
L 8.5 4.203125 
Q 8.5 2.296875 6.640625 1.75 
Q 4.796875 1.203125 2.5 1 
L 2.5 0 
L 22.40625 0 
L 22.40625 1 
Q 21.40625 1.203125 20.40625 1.296875 
Q 19.40625 1.40625 18.59375 1.65625 
Q 17.796875 1.90625 17.296875 2.40625 
Q 16.796875 2.90625 16.796875 3.796875 
L 16.796875 34.5 
Q 16.796875 35.296875 17.140625 36.25 
Q 17.5 37.203125 17.703125 37.5 
Q 19.203125 39.703125 21.703125 41 
Q 24.203125 42.296875 27.796875 42.296875 
Q 30.59375 42.296875 32.390625 41.296875 
Q 34.203125 40.296875 35.25 38.5 
Q 36.296875 36.703125 36.6875 34.203125 
Q 37.09375 31.703125 37.09375 28.796875 
L 37.09375 3.796875 
Q 37.09375 2.203125 35.296875 1.75 
Q 33.5 1.296875 30.796875 1.09375 
L 30.796875 0 
z
" id="BigCaslon-Medium-104"/>
     <path d="M 53.296875 3.90625 
L 53.296875 4.59375 
Q 51.40625 5.40625 49.203125 6.296875 
Q 47 7.203125 46.203125 7.703125 
L 46.203125 72.59375 
L 45.40625 72.59375 
L 29.5 68.203125 
L 29.5 67.59375 
L 37.703125 64.5 
Q 37.703125 63.40625 37.703125 61 
Q 37.703125 58.703125 37.703125 56 
Q 37.703125 53.296875 37.75 50.6875 
Q 37.796875 48.09375 37.90625 46.59375 
Q 35.703125 47.296875 33.046875 47.796875 
Q 30.40625 48.296875 27.40625 48.296875 
Q 21.703125 48.296875 17 46.390625 
Q 12.296875 44.5 8.9375 41.140625 
Q 5.59375 37.796875 3.75 33.296875 
Q 1.90625 28.796875 1.90625 23.59375 
Q 1.90625 17.796875 3.5 13.34375 
Q 5.09375 8.90625 7.796875 5.84375 
Q 10.5 2.796875 13.953125 1.34375 
Q 17.40625 -0.09375 21.09375 -0.09375 
Q 27 -0.09375 30.953125 2.296875 
Q 34.90625 4.703125 37.796875 9.703125 
L 37.90625 9.703125 
L 37.90625 -0.296875 
L 38.5 -0.296875 
z
M 37.796875 13.5 
Q 37 9.203125 34.046875 6.390625 
Q 31.09375 3.59375 27 3.59375 
Q 23.09375 3.59375 20.140625 5.390625 
Q 17.203125 7.203125 15.203125 10.140625 
Q 13.203125 13.09375 12.203125 16.9375 
Q 11.203125 20.796875 11.203125 24.90625 
Q 11.203125 29 12.046875 32.890625 
Q 12.90625 36.796875 14.703125 39.796875 
Q 16.5 42.796875 19.25 44.59375 
Q 22 46.40625 25.90625 46.40625 
Q 28.796875 46.40625 32.1875 43.90625 
Q 35.59375 41.40625 37.796875 37.296875 
z
" id="BigCaslon-Medium-100"/>
    </defs>
    <g style="fill:#262626;" transform="translate(327.13125 15.91125)scale(0.12 -0.12)">
     <use xlink:href="#BigCaslon-Medium-80"/>
     <use x="65.599991" xlink:href="#BigCaslon-Medium-114"/>
     <use x="101.299988" xlink:href="#BigCaslon-Medium-111"/>
     <use x="152.399979" xlink:href="#BigCaslon-Medium-98"/>
     <use x="206.199966" xlink:href="#BigCaslon-Medium-97"/>
     <use x="250.999954" xlink:href="#BigCaslon-Medium-98"/>
     <use x="304.799942" xlink:href="#BigCaslon-Medium-105"/>
     <use x="330.199936" xlink:href="#BigCaslon-Medium-108"/>
     <use x="354.799927" xlink:href="#BigCaslon-Medium-105"/>
     <use x="380.199921" xlink:href="#BigCaslon-Medium-116"/>
     <use x="412.599915" xlink:href="#BigCaslon-Medium-121"/>
     <use x="454.199905" xlink:href="#BigCaslon-Medium-32"/>
     <use x="475.19989" xlink:href="#BigCaslon-Medium-119"/>
     <use x="549.099884" xlink:href="#BigCaslon-Medium-101"/>
     <use x="592.599869" xlink:href="#BigCaslon-Medium-105"/>
     <use x="617.999863" xlink:href="#BigCaslon-Medium-103"/>
     <use x="670.499847" xlink:href="#BigCaslon-Medium-104"/>
     <use x="722.899841" xlink:href="#BigCaslon-Medium-116"/>
     <use x="755.299835" xlink:href="#BigCaslon-Medium-101"/>
     <use x="798.79982" xlink:href="#BigCaslon-Medium-100"/>
    </g>
   </g>
  </g>
  <g id="axes_3">
   <g id="patch_8">
    <path d="M 516.194449 130.63125 
L 713.135625 130.63125 
L 713.135625 21.91125 
L 516.194449 21.91125 
z
" style="fill:none;"/>
   </g>
   <g id="matplotlib.axis_5">
    <g id="xtick_13">
     <g id="text_19">
      <!-- 0.0 -->
      <g style="fill:#262626;" transform="translate(509.244449 144.789062)scale(0.1 -0.1)">
       <use xlink:href="#ArialMT-48"/>
       <use x="55.615234" xlink:href="#ArialMT-46"/>
       <use x="83.398438" xlink:href="#ArialMT-48"/>
      </g>
     </g>
    </g>
    <g id="xtick_14">
     <g id="text_20">
      <!-- 0.1 -->
      <g style="fill:#262626;" transform="translate(548.632684 144.789062)scale(0.1 -0.1)">
       <use xlink:href="#ArialMT-48"/>
       <use x="55.615234" xlink:href="#ArialMT-46"/>
       <use x="83.398438" xlink:href="#ArialMT-49"/>
      </g>
     </g>
    </g>
    <g id="xtick_15">
     <g id="text_21">
      <!-- 0.2 -->
      <g style="fill:#262626;" transform="translate(588.020919 144.789062)scale(0.1 -0.1)">
       <use xlink:href="#ArialMT-48"/>
       <use x="55.615234" xlink:href="#ArialMT-46"/>
       <use x="83.398438" xlink:href="#ArialMT-50"/>
      </g>
     </g>
    </g>
    <g id="xtick_16">
     <g id="text_22">
      <!-- 0.3 -->
      <g style="fill:#262626;" transform="translate(627.409154 144.789062)scale(0.1 -0.1)">
       <use xlink:href="#ArialMT-48"/>
       <use x="55.615234" xlink:href="#ArialMT-46"/>
       <use x="83.398438" xlink:href="#ArialMT-51"/>
      </g>
     </g>
    </g>
    <g id="xtick_17">
     <g id="text_23">
      <!-- 0.4 -->
      <g style="fill:#262626;" transform="translate(666.79739 144.789062)scale(0.1 -0.1)">
       <use xlink:href="#ArialMT-48"/>
       <use x="55.615234" xlink:href="#ArialMT-46"/>
       <use x="83.398438" xlink:href="#ArialMT-52"/>
      </g>
     </g>
    </g>
    <g id="xtick_18">
     <g id="text_24">
      <!-- 0.5 -->
      <g style="fill:#262626;" transform="translate(706.185625 144.789062)scale(0.1 -0.1)">
       <use xlink:href="#ArialMT-48"/>
       <use x="55.615234" xlink:href="#ArialMT-46"/>
       <use x="83.398438" xlink:href="#ArialMT-53"/>
      </g>
     </g>
    </g>
   </g>
   <g id="matplotlib.axis_6">
    <g id="ytick_7"/>
    <g id="ytick_8"/>
    <g id="ytick_9"/>
   </g>
   <g id="PolyCollection_3">
    <defs>
     <path d="M 520.133272 -78.743955 
L 520.133272 -51.383479 
L 522.082791 -51.383697 
L 524.032309 -51.381307 
L 525.981828 -51.381307 
L 527.931347 -51.414913 
L 529.880866 -51.464071 
L 531.830384 -51.924596 
L 533.779903 -52.244211 
L 535.729422 -52.223342 
L 537.678941 -52.867647 
L 539.628459 -52.960395 
L 541.577978 -52.733441 
L 543.527497 -52.536499 
L 545.477015 -52.930377 
L 547.426534 -53.885499 
L 549.376053 -54.207062 
L 551.325572 -54.279342 
L 553.27509 -54.174134 
L 555.224609 -53.958735 
L 557.174128 -53.552018 
L 559.123646 -52.936251 
L 561.073165 -53.355605 
L 563.022684 -54.338551 
L 564.972203 -55.055659 
L 566.921721 -55.593147 
L 568.87124 -55.575417 
L 570.820759 -56.020248 
L 572.770277 -56.187141 
L 574.719796 -56.329496 
L 576.669315 -56.888564 
L 578.618834 -56.589271 
L 580.568352 -56.878597 
L 582.517871 -57.2772 
L 584.46739 -57.32399 
L 586.416908 -57.828592 
L 588.366427 -57.910149 
L 590.315946 -58.344127 
L 592.265465 -58.788459 
L 594.214983 -59.278479 
L 596.164502 -59.669245 
L 598.114021 -59.452943 
L 600.063539 -59.618333 
L 602.013058 -60.374885 
L 603.962577 -60.821672 
L 605.912096 -61.440437 
L 607.861614 -61.9085 
L 609.811133 -62.29146 
L 611.760652 -63.073338 
L 613.71017 -62.914448 
L 615.659689 -63.649552 
L 617.609208 -64.601476 
L 619.558727 -64.514708 
L 621.508245 -64.941993 
L 623.457764 -65.608628 
L 625.407283 -66.349727 
L 627.356801 -66.651962 
L 629.30632 -67.835472 
L 631.255839 -68.846063 
L 633.205358 -69.033093 
L 635.154876 -69.812329 
L 637.104395 -70.143913 
L 639.053914 -70.466592 
L 641.003432 -71.02045 
L 642.952951 -71.630633 
L 644.90247 -71.92763 
L 646.851989 -73.139426 
L 648.801507 -73.855704 
L 650.751026 -73.719186 
L 652.700545 -75.178336 
L 654.650064 -75.304217 
L 656.599582 -76.164105 
L 658.549101 -77.593115 
L 660.49862 -77.950036 
L 662.448138 -77.63732 
L 664.397657 -78.663867 
L 666.347176 -79.162875 
L 668.296695 -79.208056 
L 670.246213 -80.278274 
L 672.195732 -81.080747 
L 674.145251 -81.812194 
L 676.094769 -82.304093 
L 678.044288 -83.174619 
L 679.993807 -83.699416 
L 681.943326 -84.750785 
L 683.892844 -84.963541 
L 685.842363 -86.23793 
L 687.791882 -86.048494 
L 689.7414 -87.776995 
L 691.690919 -87.931318 
L 693.640438 -88.385197 
L 695.589957 -88.405107 
L 697.539475 -89.135298 
L 699.488994 -89.688659 
L 701.438513 -90.143157 
L 703.388031 -90.688077 
L 705.33755 -91.39487 
L 707.287069 -92.102903 
L 709.236588 -93.21278 
L 711.186106 -93.776583 
L 713.135625 -94.592147 
L 713.135625 -141.544639 
L 713.135625 -141.544639 
L 711.186106 -141.508564 
L 709.236588 -140.89732 
L 707.287069 -140.549946 
L 705.33755 -138.878688 
L 703.388031 -138.477998 
L 701.438513 -137.398262 
L 699.488994 -136.710876 
L 697.539475 -136.662211 
L 695.589957 -136.446705 
L 693.640438 -137.070264 
L 691.690919 -136.329689 
L 689.7414 -136.680736 
L 687.791882 -133.135912 
L 685.842363 -134.713851 
L 683.892844 -132.247657 
L 681.943326 -131.790232 
L 679.993807 -130.667757 
L 678.044288 -130.909671 
L 676.094769 -129.722954 
L 674.145251 -129.191852 
L 672.195732 -128.690425 
L 670.246213 -127.707936 
L 668.296695 -126.67607 
L 666.347176 -126.862255 
L 664.397657 -125.007709 
L 662.448138 -124.023714 
L 660.49862 -124.172643 
L 658.549101 -123.275522 
L 656.599582 -121.894382 
L 654.650064 -121.595509 
L 652.700545 -120.116856 
L 650.751026 -118.690359 
L 648.801507 -118.329729 
L 646.851989 -118.915801 
L 644.90247 -115.733162 
L 642.952951 -116.379512 
L 641.003432 -116.200442 
L 639.053914 -112.494595 
L 637.104395 -113.616883 
L 635.154876 -112.259786 
L 633.205358 -112.309628 
L 631.255839 -110.396399 
L 629.30632 -108.932129 
L 627.356801 -107.729686 
L 625.407283 -106.735425 
L 623.457764 -105.510027 
L 621.508245 -104.372518 
L 619.558727 -103.748434 
L 617.609208 -102.282192 
L 615.659689 -100.115628 
L 613.71017 -100.66702 
L 611.760652 -98.001204 
L 609.811133 -97.431358 
L 607.861614 -96.557115 
L 605.912096 -94.747593 
L 603.962577 -93.761825 
L 602.013058 -92.130697 
L 600.063539 -90.52248 
L 598.114021 -89.126021 
L 596.164502 -88.909584 
L 594.214983 -85.528949 
L 592.265465 -84.284053 
L 590.315946 -83.877589 
L 588.366427 -81.718527 
L 586.416908 -79.965206 
L 584.46739 -78.36026 
L 582.517871 -77.211381 
L 580.568352 -74.865103 
L 578.618834 -73.261071 
L 576.669315 -71.3215 
L 574.719796 -69.918522 
L 572.770277 -68.090561 
L 570.820759 -66.511768 
L 568.87124 -65.176803 
L 566.921721 -64.632022 
L 564.972203 -63.65404 
L 563.022684 -63.921357 
L 561.073165 -63.100717 
L 559.123646 -63.168177 
L 557.174128 -63.048495 
L 555.224609 -63.085728 
L 553.27509 -63.146841 
L 551.325572 -63.352069 
L 549.376053 -63.978444 
L 547.426534 -65.605499 
L 545.477015 -66.306151 
L 543.527497 -66.458173 
L 541.577978 -67.3705 
L 539.628459 -68.092097 
L 537.678941 -66.681644 
L 535.729422 -66.937568 
L 533.779903 -69.803778 
L 531.830384 -71.368192 
L 529.880866 -73.492176 
L 527.931347 -76.581519 
L 525.981828 -77.841363 
L 524.032309 -78.206594 
L 522.082791 -78.743955 
L 520.133272 -78.743955 
z
" id="m87978e635e" style="stroke:#ffffff;stroke-opacity:0.07;"/>
    </defs>
    <g clip-path="url(#pd50ed1d5f5)">
     <use style="fill:#821580;fill-opacity:0.07;stroke:#ffffff;stroke-opacity:0.07;" x="0" xlink:href="#m87978e635e" y="171.318125"/>
    </g>
   </g>
   <g id="line2d_5">
    <path clip-path="url(#pd50ed1d5f5)" d="M 520.133272 100.711973 
L 522.082791 101.869452 
L 524.032309 102.934359 
L 525.981828 104.091451 
L 527.931347 105.161632 
L 529.880866 106.128168 
L 531.830384 106.724317 
L 533.779903 107.445188 
L 535.729422 108.169607 
L 537.678941 108.671599 
L 539.628459 109.232717 
L 541.577978 109.653761 
L 543.527497 110.048666 
L 545.477015 110.07313 
L 547.426534 109.969163 
L 549.376053 109.908168 
L 551.325572 110.142979 
L 553.27509 110.315057 
L 555.224609 109.849508 
L 557.174128 109.954179 
L 559.123646 109.587065 
L 561.073165 109.117643 
L 563.022684 108.201061 
L 564.972203 107.481437 
L 566.921721 106.339772 
L 568.87124 105.709731 
L 570.820759 104.690489 
L 572.770277 104.035485 
L 574.719796 103.2407 
L 576.669315 102.430526 
L 578.618834 101.884606 
L 580.568352 100.776006 
L 582.517871 99.666555 
L 584.46739 99.050911 
L 586.416908 98.288606 
L 588.366427 97.265747 
L 590.315946 96.610498 
L 592.265465 95.78135 
L 594.214983 95.022489 
L 596.164502 93.592628 
L 598.114021 93.062227 
L 600.063539 92.55289 
L 602.013058 91.721298 
L 603.962577 90.849425 
L 605.912096 89.866635 
L 607.861614 88.947317 
L 609.811133 88.38862 
L 611.760652 87.406539 
L 613.71017 86.628349 
L 615.659689 86.12504 
L 617.609208 84.734751 
L 619.558727 84.200096 
L 621.508245 83.44155 
L 623.457764 82.978665 
L 625.407283 81.909496 
L 627.356801 81.115845 
L 629.30632 80.506599 
L 631.255839 79.676851 
L 633.205358 78.908306 
L 635.154876 77.99764 
L 637.104395 77.062649 
L 639.053914 76.869381 
L 641.003432 75.443648 
L 642.952951 74.875661 
L 644.90247 74.803167 
L 646.851989 73.293467 
L 648.801507 72.945682 
L 650.751026 72.650731 
L 652.700545 71.627163 
L 654.650064 70.978825 
L 656.599582 70.400413 
L 658.549101 69.38656 
L 660.49862 68.520857 
L 662.448138 68.607165 
L 664.397657 67.638133 
L 666.347176 66.721368 
L 668.296695 66.340039 
L 670.246213 65.437599 
L 672.195732 64.701322 
L 674.145251 64.146881 
L 676.094769 63.831009 
L 678.044288 62.742196 
L 679.993807 62.708864 
L 681.943326 61.708344 
L 683.892844 61.38609 
L 685.842363 60.348054 
L 687.791882 60.500458 
L 689.7414 58.705224 
L 691.690919 58.432684 
L 693.640438 57.724136 
L 695.589957 57.959232 
L 697.539475 57.232458 
L 699.488994 56.935309 
L 701.438513 56.460438 
L 703.388031 55.619627 
L 705.33755 55.130359 
L 707.287069 54.239196 
L 709.236588 53.809145 
L 711.186106 53.369024 
L 713.135625 52.956207 
" style="fill:none;stroke:#821580;stroke-linecap:round;stroke-width:1.5;"/>
   </g>
   <g id="line2d_6">
    <path clip-path="url(#pd50ed1d5f5)" d="M 516.194449 110.315057 
L 713.135625 110.315057 
" style="fill:none;stroke:#000000;stroke-dasharray:5.55,2.4;stroke-dashoffset:0;stroke-opacity:0.4;stroke-width:1.5;"/>
   </g>
   <g id="patch_9">
    <path d="M 516.194449 130.63125 
L 516.194449 21.91125 
" style="fill:none;stroke:#cccccc;stroke-linecap:square;stroke-linejoin:miter;stroke-width:0.8;"/>
   </g>
   <g id="patch_10">
    <path d="M 516.194449 130.63125 
L 713.135625 130.63125 
" style="fill:none;stroke:#cccccc;stroke-linecap:square;stroke-linejoin:miter;stroke-width:0.8;"/>
   </g>
   <g id="text_25">
    <!-- Lower bound -->
    <defs>
     <path d="M 7.328125 0 
L 7.328125 71.578125 
L 16.796875 71.578125 
L 16.796875 8.453125 
L 52.046875 8.453125 
L 52.046875 0 
z
" id="ArialMT-76"/>
     <path d="M 3.328125 25.921875 
Q 3.328125 40.328125 11.328125 47.265625 
Q 18.015625 53.03125 27.640625 53.03125 
Q 38.328125 53.03125 45.109375 46.015625 
Q 51.90625 39.015625 51.90625 26.65625 
Q 51.90625 16.65625 48.90625 10.90625 
Q 45.90625 5.171875 40.15625 2 
Q 34.421875 -1.171875 27.640625 -1.171875 
Q 16.75 -1.171875 10.03125 5.8125 
Q 3.328125 12.796875 3.328125 25.921875 
z
M 12.359375 25.921875 
Q 12.359375 15.96875 16.703125 11.015625 
Q 21.046875 6.0625 27.640625 6.0625 
Q 34.1875 6.0625 38.53125 11.03125 
Q 42.875 16.015625 42.875 26.21875 
Q 42.875 35.84375 38.5 40.796875 
Q 34.125 45.75 27.640625 45.75 
Q 21.046875 45.75 16.703125 40.8125 
Q 12.359375 35.890625 12.359375 25.921875 
z
" id="ArialMT-111"/>
     <path d="M 16.15625 0 
L 0.296875 51.859375 
L 9.375 51.859375 
L 17.625 21.921875 
L 20.703125 10.796875 
Q 20.90625 11.625 23.390625 21.484375 
L 31.640625 51.859375 
L 40.671875 51.859375 
L 48.4375 21.78125 
L 51.03125 11.859375 
L 54 21.875 
L 62.890625 51.859375 
L 71.4375 51.859375 
L 55.21875 0 
L 46.09375 0 
L 37.84375 31.0625 
L 35.84375 39.890625 
L 25.34375 0 
z
" id="ArialMT-119"/>
     <path d="M 42.09375 16.703125 
L 51.171875 15.578125 
Q 49.03125 7.625 43.21875 3.21875 
Q 37.40625 -1.171875 28.375 -1.171875 
Q 17 -1.171875 10.328125 5.828125 
Q 3.65625 12.84375 3.65625 25.484375 
Q 3.65625 38.578125 10.390625 45.796875 
Q 17.140625 53.03125 27.875 53.03125 
Q 38.28125 53.03125 44.875 45.953125 
Q 51.46875 38.875 51.46875 26.03125 
Q 51.46875 25.25 51.421875 23.6875 
L 12.75 23.6875 
Q 13.234375 15.140625 17.578125 10.59375 
Q 21.921875 6.0625 28.421875 6.0625 
Q 33.25 6.0625 36.671875 8.59375 
Q 40.09375 11.140625 42.09375 16.703125 
z
M 13.234375 30.90625 
L 42.1875 30.90625 
Q 41.609375 37.453125 38.875 40.71875 
Q 34.671875 45.796875 27.984375 45.796875 
Q 21.921875 45.796875 17.796875 41.75 
Q 13.671875 37.703125 13.234375 30.90625 
z
" id="ArialMT-101"/>
     <path d="M 6.5 0 
L 6.5 51.859375 
L 14.40625 51.859375 
L 14.40625 44 
Q 17.4375 49.515625 20 51.265625 
Q 22.5625 53.03125 25.640625 53.03125 
Q 30.078125 53.03125 34.671875 50.203125 
L 31.640625 42.046875 
Q 28.421875 43.953125 25.203125 43.953125 
Q 22.3125 43.953125 20.015625 42.21875 
Q 17.71875 40.484375 16.75 37.40625 
Q 15.28125 32.71875 15.28125 27.15625 
L 15.28125 0 
z
" id="ArialMT-114"/>
     <path id="ArialMT-32"/>
     <path d="M 14.703125 0 
L 6.546875 0 
L 6.546875 71.578125 
L 15.328125 71.578125 
L 15.328125 46.046875 
Q 20.90625 53.03125 29.546875 53.03125 
Q 34.328125 53.03125 38.59375 51.09375 
Q 42.875 49.171875 45.625 45.671875 
Q 48.390625 42.1875 49.953125 37.25 
Q 51.515625 32.328125 51.515625 26.703125 
Q 51.515625 13.375 44.921875 6.09375 
Q 38.328125 -1.171875 29.109375 -1.171875 
Q 19.921875 -1.171875 14.703125 6.5 
z
M 14.59375 26.3125 
Q 14.59375 17 17.140625 12.84375 
Q 21.296875 6.0625 28.375 6.0625 
Q 34.125 6.0625 38.328125 11.0625 
Q 42.53125 16.0625 42.53125 25.984375 
Q 42.53125 36.140625 38.5 40.96875 
Q 34.46875 45.796875 28.765625 45.796875 
Q 23 45.796875 18.796875 40.796875 
Q 14.59375 35.796875 14.59375 26.3125 
z
" id="ArialMT-98"/>
     <path d="M 40.578125 0 
L 40.578125 7.625 
Q 34.515625 -1.171875 24.125 -1.171875 
Q 19.53125 -1.171875 15.546875 0.578125 
Q 11.578125 2.34375 9.640625 5 
Q 7.71875 7.671875 6.9375 11.53125 
Q 6.390625 14.109375 6.390625 19.734375 
L 6.390625 51.859375 
L 15.1875 51.859375 
L 15.1875 23.09375 
Q 15.1875 16.21875 15.71875 13.8125 
Q 16.546875 10.359375 19.234375 8.375 
Q 21.921875 6.390625 25.875 6.390625 
Q 29.828125 6.390625 33.296875 8.421875 
Q 36.765625 10.453125 38.203125 13.9375 
Q 39.65625 17.4375 39.65625 24.078125 
L 39.65625 51.859375 
L 48.4375 51.859375 
L 48.4375 0 
z
" id="ArialMT-117"/>
     <path d="M 6.59375 0 
L 6.59375 51.859375 
L 14.5 51.859375 
L 14.5 44.484375 
Q 20.21875 53.03125 31 53.03125 
Q 35.6875 53.03125 39.625 51.34375 
Q 43.5625 49.65625 45.515625 46.921875 
Q 47.46875 44.1875 48.25 40.4375 
Q 48.734375 37.984375 48.734375 31.890625 
L 48.734375 0 
L 39.9375 0 
L 39.9375 31.546875 
Q 39.9375 36.921875 38.90625 39.578125 
Q 37.890625 42.234375 35.28125 43.8125 
Q 32.671875 45.40625 29.15625 45.40625 
Q 23.53125 45.40625 19.453125 41.84375 
Q 15.375 38.28125 15.375 28.328125 
L 15.375 0 
z
" id="ArialMT-110"/>
     <path d="M 40.234375 0 
L 40.234375 6.546875 
Q 35.296875 -1.171875 25.734375 -1.171875 
Q 19.53125 -1.171875 14.328125 2.25 
Q 9.125 5.671875 6.265625 11.796875 
Q 3.421875 17.921875 3.421875 25.875 
Q 3.421875 33.640625 6 39.96875 
Q 8.59375 46.296875 13.765625 49.65625 
Q 18.953125 53.03125 25.34375 53.03125 
Q 30.03125 53.03125 33.6875 51.046875 
Q 37.359375 49.078125 39.65625 45.90625 
L 39.65625 71.578125 
L 48.390625 71.578125 
L 48.390625 0 
z
M 12.453125 25.875 
Q 12.453125 15.921875 16.640625 10.984375 
Q 20.84375 6.0625 26.5625 6.0625 
Q 32.328125 6.0625 36.34375 10.765625 
Q 40.375 15.484375 40.375 25.140625 
Q 40.375 35.796875 36.265625 40.765625 
Q 32.171875 45.75 26.171875 45.75 
Q 20.3125 45.75 16.375 40.96875 
Q 12.453125 36.1875 12.453125 25.875 
z
" id="ArialMT-100"/>
    </defs>
    <g style="fill:#666666;" transform="translate(654.053272 123.539389)scale(0.1 -0.1)">
     <use xlink:href="#ArialMT-76"/>
     <use x="55.615234" xlink:href="#ArialMT-111"/>
     <use x="111.230469" xlink:href="#ArialMT-119"/>
     <use x="183.447266" xlink:href="#ArialMT-101"/>
     <use x="239.0625" xlink:href="#ArialMT-114"/>
     <use x="272.363281" xlink:href="#ArialMT-32"/>
     <use x="300.146484" xlink:href="#ArialMT-98"/>
     <use x="355.761719" xlink:href="#ArialMT-111"/>
     <use x="411.376953" xlink:href="#ArialMT-117"/>
     <use x="466.992188" xlink:href="#ArialMT-110"/>
     <use x="522.607422" xlink:href="#ArialMT-100"/>
    </g>
   </g>
   <g id="text_26">
    <!-- K-means -->
    <defs>
     <path d="M 80.5 0 
L 80.5 1 
Q 77.703125 1.203125 75.453125 1.703125 
Q 73.203125 2.203125 71.90625 2.703125 
Q 71.59375 2.796875 70.6875 3.5 
Q 69.796875 4.203125 68.59375 5.140625 
Q 67.40625 6.09375 66.09375 7.296875 
Q 64.796875 8.5 63.796875 9.703125 
Q 59.59375 14.40625 55.046875 19.5 
Q 50.5 24.59375 46.5 29.09375 
Q 42.5 33.59375 39.59375 36.9375 
Q 36.703125 40.296875 35.90625 41.296875 
Q 37.59375 43.09375 39.640625 45.140625 
Q 41.703125 47.203125 43.84375 49.390625 
Q 46 51.59375 48.203125 53.796875 
Q 50.40625 56 52.5 57.90625 
Q 57.90625 62.90625 63.09375 66.703125 
Q 68.296875 70.5 73.40625 71 
L 73.40625 72 
L 46.59375 72 
L 46.59375 71 
Q 49.203125 70.59375 51.203125 69.296875 
Q 53.203125 68 53.203125 65.09375 
Q 53.203125 63.40625 51.84375 61.296875 
Q 50.5 59.203125 48.796875 57.203125 
Q 46.40625 54.59375 43.09375 51.09375 
Q 39.796875 47.59375 36.4375 44.296875 
Q 33.09375 41 30.046875 38.34375 
Q 27 35.703125 25.203125 34.59375 
Q 25.203125 40.203125 25.203125 43.796875 
Q 25.203125 47.5 25.203125 50.09375 
Q 25.203125 52.703125 25.25 54.703125 
Q 25.296875 56.703125 25.40625 59 
Q 25.5 63.203125 26.453125 65.5 
Q 27.40625 67.796875 28.796875 68.9375 
Q 30.203125 70.09375 32 70.4375 
Q 33.796875 70.796875 35.703125 71 
L 35.703125 72 
L 4.703125 72 
L 4.703125 71 
Q 7.296875 70.703125 9.296875 69.890625 
Q 11.296875 69.09375 12.703125 67.40625 
Q 13.796875 66 14.046875 62.796875 
Q 14.296875 59.59375 14.296875 55.796875 
L 14.296875 36.296875 
Q 14.296875 33.59375 14.296875 30.5 
Q 14.296875 27.5 14.296875 24.59375 
Q 14.296875 21.796875 14.25 19.390625 
Q 14.203125 17 14.203125 15.59375 
Q 14.203125 14 14.140625 12.25 
Q 14.09375 10.5 13.9375 8.953125 
Q 13.796875 7.40625 13.5 6.203125 
Q 13.203125 5 12.703125 4.40625 
Q 11.5 3 9.203125 2.203125 
Q 6.90625 1.40625 4.40625 1 
L 4.40625 0 
L 36.5 0 
L 36.5 1 
Q 35.5 1.09375 34.140625 1.34375 
Q 32.796875 1.59375 31.390625 2.046875 
Q 30 2.5 28.796875 3.203125 
Q 27.59375 3.90625 26.90625 4.90625 
Q 25.90625 6.203125 25.59375 8.703125 
Q 25.296875 11.203125 25.203125 14.09375 
Q 25.09375 17.40625 25.09375 22 
Q 25.09375 26.703125 25.09375 31.90625 
Q 25.40625 32.703125 25.65625 33.046875 
Q 25.90625 33.40625 26.703125 33.40625 
Q 27.40625 33.40625 28.34375 32.703125 
Q 29.296875 32 31.90625 29.09375 
Q 38.09375 22.296875 43.84375 15.640625 
Q 49.59375 9 56 1.59375 
Q 56.59375 0.90625 57.09375 0.546875 
Q 57.59375 0.203125 58 0 
z
" id="BigCaslon-Medium-75"/>
     <path d="M 24.296875 22.5 
L 24.296875 29.5 
L 1.203125 29.5 
L 1.203125 22.5 
z
" id="BigCaslon-Medium-45"/>
    </defs>
    <g style="fill:#262626;" transform="translate(593.047224 15.91125)scale(0.12 -0.12)">
     <use xlink:href="#BigCaslon-Medium-75"/>
     <use x="76.699982" xlink:href="#BigCaslon-Medium-45"/>
     <use x="102.299973" xlink:href="#BigCaslon-Medium-109"/>
     <use x="181.699966" xlink:href="#BigCaslon-Medium-101"/>
     <use x="225.199951" xlink:href="#BigCaslon-Medium-97"/>
     <use x="269.999939" xlink:href="#BigCaslon-Medium-110"/>
     <use x="322.09993" xlink:href="#BigCaslon-Medium-115"/>
    </g>
   </g>
  </g>
  <g id="axes_4">
   <g id="matplotlib.axis_7">
    <g id="xtick_19">
     <g id="text_27">
      <!-- 0.0 -->
      <g style="opacity:0;" transform="translate(36.585625 144.789062)scale(0.1 -0.1)">
       <use xlink:href="#ArialMT-48"/>
       <use x="55.615234" xlink:href="#ArialMT-46"/>
       <use x="83.398438" xlink:href="#ArialMT-48"/>
      </g>
     </g>
    </g>
    <g id="xtick_20">
     <g id="text_28">
      <!-- 0.2 -->
      <g style="opacity:0;" transform="translate(170.505625 144.789062)scale(0.1 -0.1)">
       <use xlink:href="#ArialMT-48"/>
       <use x="55.615234" xlink:href="#ArialMT-46"/>
       <use x="83.398438" xlink:href="#ArialMT-50"/>
      </g>
     </g>
    </g>
    <g id="xtick_21">
     <g id="text_29">
      <!-- 0.4 -->
      <g style="opacity:0;" transform="translate(304.425625 144.789062)scale(0.1 -0.1)">
       <use xlink:href="#ArialMT-48"/>
       <use x="55.615234" xlink:href="#ArialMT-46"/>
       <use x="83.398438" xlink:href="#ArialMT-52"/>
      </g>
     </g>
    </g>
    <g id="xtick_22">
     <g id="text_30">
      <!-- 0.6 -->
      <defs>
       <path d="M 49.75 54.046875 
L 41.015625 53.375 
Q 39.84375 58.546875 37.703125 60.890625 
Q 34.125 64.65625 28.90625 64.65625 
Q 24.703125 64.65625 21.53125 62.3125 
Q 17.390625 59.28125 14.984375 53.46875 
Q 12.59375 47.65625 12.5 36.921875 
Q 15.671875 41.75 20.265625 44.09375 
Q 24.859375 46.4375 29.890625 46.4375 
Q 38.671875 46.4375 44.84375 39.96875 
Q 51.03125 33.5 51.03125 23.25 
Q 51.03125 16.5 48.125 10.71875 
Q 45.21875 4.9375 40.140625 1.859375 
Q 35.0625 -1.21875 28.609375 -1.21875 
Q 17.625 -1.21875 10.6875 6.859375 
Q 3.765625 14.9375 3.765625 33.5 
Q 3.765625 54.25 11.421875 63.671875 
Q 18.109375 71.875 29.4375 71.875 
Q 37.890625 71.875 43.28125 67.140625 
Q 48.6875 62.40625 49.75 54.046875 
z
M 13.875 23.1875 
Q 13.875 18.65625 15.796875 14.5 
Q 17.71875 10.359375 21.1875 8.171875 
Q 24.65625 6 28.46875 6 
Q 34.03125 6 38.03125 10.484375 
Q 42.046875 14.984375 42.046875 22.703125 
Q 42.046875 30.125 38.078125 34.390625 
Q 34.125 38.671875 28.125 38.671875 
Q 22.171875 38.671875 18.015625 34.390625 
Q 13.875 30.125 13.875 23.1875 
z
" id="ArialMT-54"/>
      </defs>
      <g style="opacity:0;" transform="translate(438.345625 144.789062)scale(0.1 -0.1)">
       <use xlink:href="#ArialMT-48"/>
       <use x="55.615234" xlink:href="#ArialMT-46"/>
       <use x="83.398438" xlink:href="#ArialMT-54"/>
      </g>
     </g>
    </g>
    <g id="xtick_23">
     <g id="text_31">
      <!-- 0.8 -->
      <defs>
       <path d="M 17.671875 38.8125 
Q 12.203125 40.828125 9.5625 44.53125 
Q 6.9375 48.25 6.9375 53.421875 
Q 6.9375 61.234375 12.546875 66.546875 
Q 18.171875 71.875 27.484375 71.875 
Q 36.859375 71.875 42.578125 66.421875 
Q 48.296875 60.984375 48.296875 53.171875 
Q 48.296875 48.1875 45.671875 44.5 
Q 43.0625 40.828125 37.75 38.8125 
Q 44.34375 36.671875 47.78125 31.875 
Q 51.21875 27.09375 51.21875 20.453125 
Q 51.21875 11.28125 44.71875 5.03125 
Q 38.234375 -1.21875 27.640625 -1.21875 
Q 17.046875 -1.21875 10.546875 5.046875 
Q 4.046875 11.328125 4.046875 20.703125 
Q 4.046875 27.6875 7.59375 32.390625 
Q 11.140625 37.109375 17.671875 38.8125 
z
M 15.921875 53.71875 
Q 15.921875 48.640625 19.1875 45.40625 
Q 22.46875 42.1875 27.6875 42.1875 
Q 32.765625 42.1875 36.015625 45.375 
Q 39.265625 48.578125 39.265625 53.21875 
Q 39.265625 58.0625 35.90625 61.359375 
Q 32.5625 64.65625 27.59375 64.65625 
Q 22.5625 64.65625 19.234375 61.421875 
Q 15.921875 58.203125 15.921875 53.71875 
z
M 13.09375 20.65625 
Q 13.09375 16.890625 14.875 13.375 
Q 16.65625 9.859375 20.171875 7.921875 
Q 23.6875 6 27.734375 6 
Q 34.03125 6 38.125 10.046875 
Q 42.234375 14.109375 42.234375 20.359375 
Q 42.234375 26.703125 38.015625 30.859375 
Q 33.796875 35.015625 27.4375 35.015625 
Q 21.234375 35.015625 17.15625 30.90625 
Q 13.09375 26.8125 13.09375 20.65625 
z
" id="ArialMT-56"/>
      </defs>
      <g style="opacity:0;" transform="translate(572.265625 144.789062)scale(0.1 -0.1)">
       <use xlink:href="#ArialMT-48"/>
       <use x="55.615234" xlink:href="#ArialMT-46"/>
       <use x="83.398438" xlink:href="#ArialMT-56"/>
      </g>
     </g>
    </g>
    <g id="xtick_24">
     <g id="text_32">
      <!-- 1.0 -->
      <g style="opacity:0;" transform="translate(706.185625 144.789062)scale(0.1 -0.1)">
       <use xlink:href="#ArialMT-49"/>
       <use x="55.615234" xlink:href="#ArialMT-46"/>
       <use x="83.398438" xlink:href="#ArialMT-48"/>
      </g>
     </g>
    </g>
    <g id="text_33">
     <!-- Noise standard deviation -->
     <defs>
      <path d="M 84.59375 71 
L 84.59375 72 
L 59.796875 72 
L 59.796875 71 
Q 64.59375 70.296875 67.140625 68.546875 
Q 69.703125 66.796875 70.703125 64 
Q 71.5 61.90625 71.59375 58.25 
Q 71.703125 54.59375 71.703125 50.59375 
L 71.703125 16.59375 
L 24.296875 72 
L 4 72 
L 4 71 
Q 5.59375 70.796875 7.34375 70.34375 
Q 9.09375 69.90625 10.59375 68.84375 
Q 12.09375 67.796875 13.1875 65.9375 
Q 14.296875 64.09375 14.59375 61.203125 
Q 14.703125 58.296875 14.703125 56.296875 
Q 14.703125 54.40625 14.703125 52.59375 
Q 14.703125 50.796875 14.703125 48.90625 
Q 14.703125 47 14.703125 44.09375 
Q 14.703125 37.40625 14.59375 31.546875 
Q 14.5 25.703125 14.296875 21.40625 
Q 14.09375 15.703125 13.6875 11.59375 
Q 13.296875 7.5 11.90625 5.40625 
Q 10.5 3.203125 8.09375 2.25 
Q 5.703125 1.296875 3.296875 1 
L 3.296875 0 
L 27.90625 0 
L 27.90625 1 
Q 23.796875 1.5 21.4375 2.640625 
Q 19.09375 3.796875 18 6.09375 
Q 17 8.09375 16.75 12.1875 
Q 16.5 16.296875 16.5 21.40625 
L 16.5 63.59375 
Q 23.296875 56 29.390625 48.890625 
Q 35.5 41.796875 41.84375 34.34375 
Q 48.203125 26.90625 55.203125 18.703125 
Q 62.203125 10.5 70.703125 0.703125 
Q 71.703125 -0.296875 72.5 -0.296875 
Q 73 -0.296875 73.25 -0.046875 
Q 73.5 0.203125 73.5 0.59375 
Q 73.5 3.5 73.5 7.09375 
Q 73.5 10.703125 73.453125 14.34375 
Q 73.40625 18 73.40625 21.5 
Q 73.40625 25.09375 73.40625 27.90625 
Q 73.40625 34.59375 73.546875 40.4375 
Q 73.703125 46.296875 73.90625 50.59375 
Q 74.09375 55.203125 74.296875 59.25 
Q 74.5 63.296875 75.203125 64.796875 
Q 76.40625 67.703125 78.65625 69.09375 
Q 80.90625 70.5 84.59375 71 
z
" id="BigCaslon-Medium-78"/>
      <path d="M 49.296875 46.203125 
L 49.296875 47.296875 
L 29.90625 47.296875 
L 29.90625 46.296875 
Q 30.796875 46.203125 32 46.203125 
Q 33.203125 46.203125 34.296875 45.890625 
Q 35.40625 45.59375 36.15625 44.84375 
Q 36.90625 44.09375 36.90625 42.703125 
Q 36.90625 41.796875 35.65625 38.09375 
Q 34.40625 34.40625 32.59375 29.5 
Q 30.796875 24.59375 28.796875 19.5 
Q 26.796875 14.40625 25.296875 10.703125 
Q 24.40625 13.09375 23.09375 16.296875 
Q 21.796875 19.5 20.4375 22.890625 
Q 19.09375 26.296875 17.796875 29.6875 
Q 16.5 33.09375 15.453125 35.890625 
Q 14.40625 38.703125 13.75 40.59375 
Q 13.09375 42.5 13.09375 43 
Q 13.09375 44.09375 13.9375 44.640625 
Q 14.796875 45.203125 16 45.5 
Q 17.203125 45.796875 18.546875 45.9375 
Q 19.90625 46.09375 20.796875 46.203125 
L 20.796875 47.296875 
L -3.296875 47.296875 
L -3.296875 46.203125 
Q 0 46 1.25 45.25 
Q 2.5 44.5 3.09375 43.90625 
Q 3.59375 43 4.1875 41.59375 
Q 4.796875 40.203125 5.390625 38.703125 
Q 6 37.203125 6.546875 35.84375 
Q 7.09375 34.5 7.40625 33.703125 
Q 9.5 28.203125 11.203125 23.796875 
Q 12.90625 19.40625 14.40625 15.546875 
Q 15.90625 11.703125 17.296875 8.046875 
Q 18.703125 4.40625 20.296875 0.296875 
Q 20.40625 0.09375 20.59375 -0.15625 
Q 20.796875 -0.40625 21.203125 -0.40625 
Q 21.90625 -0.40625 22.203125 0.203125 
Q 22.796875 1.5 23.25 2.5 
Q 23.703125 3.5 24.203125 4.59375 
Q 24.703125 5.703125 25.25 6.953125 
Q 25.796875 8.203125 26.59375 10 
Q 28 13.5 29.640625 17.703125 
Q 31.296875 21.90625 33 26.09375 
Q 34.703125 30.296875 36.25 34.09375 
Q 37.796875 37.90625 39 40.703125 
Q 39.796875 42.5 41.09375 43.59375 
Q 42.40625 44.703125 43.90625 45.25 
Q 45.40625 45.796875 46.84375 46 
Q 48.296875 46.203125 49.296875 46.203125 
z
" id="BigCaslon-Medium-118"/>
     </defs>
     <g style="fill:#262626;" transform="translate(307.041719 160.898125)scale(0.14 -0.14)">
      <use xlink:href="#BigCaslon-Medium-78"/>
      <use x="87.499985" xlink:href="#BigCaslon-Medium-111"/>
      <use x="138.599976" xlink:href="#BigCaslon-Medium-105"/>
      <use x="163.999969" xlink:href="#BigCaslon-Medium-115"/>
      <use x="202.199966" xlink:href="#BigCaslon-Medium-101"/>
      <use x="245.699951" xlink:href="#BigCaslon-Medium-32"/>
      <use x="266.699936" xlink:href="#BigCaslon-Medium-115"/>
      <use x="304.899933" xlink:href="#BigCaslon-Medium-116"/>
      <use x="337.299927" xlink:href="#BigCaslon-Medium-97"/>
      <use x="382.099915" xlink:href="#BigCaslon-Medium-110"/>
      <use x="434.199905" xlink:href="#BigCaslon-Medium-100"/>
      <use x="488.799896" xlink:href="#BigCaslon-Medium-97"/>
      <use x="533.599884" xlink:href="#BigCaslon-Medium-114"/>
      <use x="569.299881" xlink:href="#BigCaslon-Medium-100"/>
      <use x="623.899872" xlink:href="#BigCaslon-Medium-32"/>
      <use x="644.899857" xlink:href="#BigCaslon-Medium-100"/>
      <use x="699.499847" xlink:href="#BigCaslon-Medium-101"/>
      <use x="742.999832" xlink:href="#BigCaslon-Medium-118"/>
      <use x="787.29982" xlink:href="#BigCaslon-Medium-105"/>
      <use x="812.699814" xlink:href="#BigCaslon-Medium-97"/>
      <use x="857.499802" xlink:href="#BigCaslon-Medium-116"/>
      <use x="889.899796" xlink:href="#BigCaslon-Medium-105"/>
      <use x="915.299789" xlink:href="#BigCaslon-Medium-111"/>
      <use x="966.39978" xlink:href="#BigCaslon-Medium-110"/>
     </g>
    </g>
   </g>
   <g id="matplotlib.axis_8">
    <g id="ytick_10">
     <g id="text_34">
      <!-- 0.0 -->
      <g style="opacity:0;" transform="translate(22.635625 134.210156)scale(0.1 -0.1)">
       <use xlink:href="#ArialMT-48"/>
       <use x="55.615234" xlink:href="#ArialMT-46"/>
       <use x="83.398438" xlink:href="#ArialMT-48"/>
      </g>
     </g>
    </g>
    <g id="ytick_11">
     <g id="text_35">
      <!-- 0.2 -->
      <g style="opacity:0;" transform="translate(22.635625 112.466156)scale(0.1 -0.1)">
       <use xlink:href="#ArialMT-48"/>
       <use x="55.615234" xlink:href="#ArialMT-46"/>
       <use x="83.398438" xlink:href="#ArialMT-50"/>
      </g>
     </g>
    </g>
    <g id="ytick_12">
     <g id="text_36">
      <!-- 0.4 -->
      <g style="opacity:0;" transform="translate(22.635625 90.722156)scale(0.1 -0.1)">
       <use xlink:href="#ArialMT-48"/>
       <use x="55.615234" xlink:href="#ArialMT-46"/>
       <use x="83.398438" xlink:href="#ArialMT-52"/>
      </g>
     </g>
    </g>
    <g id="ytick_13">
     <g id="text_37">
      <!-- 0.6 -->
      <g style="opacity:0;" transform="translate(22.635625 68.978156)scale(0.1 -0.1)">
       <use xlink:href="#ArialMT-48"/>
       <use x="55.615234" xlink:href="#ArialMT-46"/>
       <use x="83.398438" xlink:href="#ArialMT-54"/>
      </g>
     </g>
    </g>
    <g id="ytick_14">
     <g id="text_38">
      <!-- 0.8 -->
      <g style="opacity:0;" transform="translate(22.635625 47.234156)scale(0.1 -0.1)">
       <use xlink:href="#ArialMT-48"/>
       <use x="55.615234" xlink:href="#ArialMT-46"/>
       <use x="83.398438" xlink:href="#ArialMT-56"/>
      </g>
     </g>
    </g>
    <g id="ytick_15">
     <g id="text_39">
      <!-- 1.0 -->
      <g style="opacity:0;" transform="translate(22.635625 25.490156)scale(0.1 -0.1)">
       <use xlink:href="#ArialMT-49"/>
       <use x="55.615234" xlink:href="#ArialMT-46"/>
       <use x="83.398438" xlink:href="#ArialMT-48"/>
      </g>
     </g>
    </g>
   </g>
  </g>
 </g>
 <defs>
  <clipPath id="p0d16634910">
   <rect height="108.72" width="196.941176" x="43.535625" y="21.91125"/>
  </clipPath>
  <clipPath id="p19c080ca98">
   <rect height="108.72" width="196.941176" x="279.865037" y="21.91125"/>
  </clipPath>
  <clipPath id="pd50ed1d5f5">
   <rect height="108.72" width="196.941176" x="516.194449" y="21.91125"/>
  </clipPath>
 </defs>
</svg>
