<?xml version="1.0" encoding="utf-8" standalone="no"?>
<!DOCTYPE svg PUBLIC "-//W3C//DTD SVG 1.1//EN"
  "http://www.w3.org/Graphics/SVG/1.1/DTD/svg11.dtd">
<!-- Created with matplotlib (https://matplotlib.org/) -->
<svg height="203.288125pt" version="1.1" viewBox="0 0 712.15125 203.288125" width="712.15125pt" xmlns="http://www.w3.org/2000/svg" xmlns:xlink="http://www.w3.org/1999/xlink">
 <defs>
  <style type="text/css">
*{stroke-linecap:butt;stroke-linejoin:round;}
  </style>
 </defs>
 <g id="figure_1">
  <g id="patch_1">
   <path d="M 0 203.288125 
L 712.15125 203.288125 
L 712.15125 0 
L 0 0 
z
" style="fill:none;"/>
  </g>
  <g id="axes_1">
   <g id="patch_2">
    <path d="M 43.535625 159.836875 
L 704.95125 159.836875 
L 704.95125 21.84 
L 43.535625 21.84 
z
" style="fill:none;"/>
   </g>
   <g id="matplotlib.axis_1">
    <g id="xtick_1">
     <g id="text_1">
      <!-- $0$ -->
      <defs>
       <path d="M 31.78125 66.40625 
Q 24.171875 66.40625 20.328125 58.90625 
Q 16.5 51.421875 16.5 36.375 
Q 16.5 21.390625 20.328125 13.890625 
Q 24.171875 6.390625 31.78125 6.390625 
Q 39.453125 6.390625 43.28125 13.890625 
Q 47.125 21.390625 47.125 36.375 
Q 47.125 51.421875 43.28125 58.90625 
Q 39.453125 66.40625 31.78125 66.40625 
z
M 31.78125 74.21875 
Q 44.046875 74.21875 50.515625 64.515625 
Q 56.984375 54.828125 56.984375 36.375 
Q 56.984375 17.96875 50.515625 8.265625 
Q 44.046875 -1.421875 31.78125 -1.421875 
Q 19.53125 -1.421875 13.0625 8.265625 
Q 6.59375 17.96875 6.59375 36.375 
Q 6.59375 54.828125 13.0625 64.515625 
Q 19.53125 74.21875 31.78125 74.21875 
z
" id="DejaVuSans-48"/>
      </defs>
      <g style="fill:#262626;" transform="translate(87.417526 173.994687)scale(0.1 -0.1)">
       <use transform="translate(0 0.78125)" xlink:href="#DejaVuSans-48"/>
      </g>
     </g>
    </g>
    <g id="xtick_2">
     <g id="text_2">
      <!-- $\frac{1}{4}$ -->
      <defs>
       <path d="M 12.40625 8.296875 
L 28.515625 8.296875 
L 28.515625 63.921875 
L 10.984375 60.40625 
L 10.984375 69.390625 
L 28.421875 72.90625 
L 38.28125 72.90625 
L 38.28125 8.296875 
L 54.390625 8.296875 
L 54.390625 0 
L 12.40625 0 
z
" id="DejaVuSans-49"/>
       <path d="M 37.796875 64.3125 
L 12.890625 25.390625 
L 37.796875 25.390625 
z
M 35.203125 72.90625 
L 47.609375 72.90625 
L 47.609375 25.390625 
L 58.015625 25.390625 
L 58.015625 17.1875 
L 47.609375 17.1875 
L 47.609375 0 
L 37.796875 0 
L 37.796875 17.1875 
L 4.890625 17.1875 
L 4.890625 26.703125 
z
" id="DejaVuSans-52"/>
      </defs>
      <g style="fill:#262626;" transform="translate(229.530482 176.336875)scale(0.1 -0.1)">
       <use transform="translate(0 43.965625)scale(0.7)" xlink:href="#DejaVuSans-49"/>
       <use transform="translate(0 -38.31875)scale(0.7)" xlink:href="#DejaVuSans-52"/>
       <path d="M 0 18.965625 
L 0 25.215625 
L 44.536133 25.215625 
L 44.536133 18.965625 
L 0 18.965625 
z
"/>
      </g>
     </g>
    </g>
    <g id="xtick_3">
     <g id="text_3">
      <!-- $\frac{1}{2}$ -->
      <defs>
       <path d="M 19.1875 8.296875 
L 53.609375 8.296875 
L 53.609375 0 
L 7.328125 0 
L 7.328125 8.296875 
Q 12.9375 14.109375 22.625 23.890625 
Q 32.328125 33.6875 34.8125 36.53125 
Q 39.546875 41.84375 41.421875 45.53125 
Q 43.3125 49.21875 43.3125 52.78125 
Q 43.3125 58.59375 39.234375 62.25 
Q 35.15625 65.921875 28.609375 65.921875 
Q 23.96875 65.921875 18.8125 64.3125 
Q 13.671875 62.703125 7.8125 59.421875 
L 7.8125 69.390625 
Q 13.765625 71.78125 18.9375 73 
Q 24.125 74.21875 28.421875 74.21875 
Q 39.75 74.21875 46.484375 68.546875 
Q 53.21875 62.890625 53.21875 53.421875 
Q 53.21875 48.921875 51.53125 44.890625 
Q 49.859375 40.875 45.40625 35.40625 
Q 44.1875 33.984375 37.640625 27.21875 
Q 31.109375 20.453125 19.1875 8.296875 
z
" id="DejaVuSans-50"/>
      </defs>
      <g style="fill:#262626;" transform="translate(371.343438 176.336875)scale(0.1 -0.1)">
       <use transform="translate(0 43.965625)scale(0.7)" xlink:href="#DejaVuSans-49"/>
       <use transform="translate(0 -39.2375)scale(0.7)" xlink:href="#DejaVuSans-50"/>
       <path d="M 0 18.965625 
L 0 25.215625 
L 44.536133 25.215625 
L 44.536133 18.965625 
L 0 18.965625 
z
"/>
      </g>
     </g>
    </g>
    <g id="xtick_4">
     <g id="text_4">
      <!-- $\frac{3}{4}$ -->
      <defs>
       <path d="M 40.578125 39.3125 
Q 47.65625 37.796875 51.625 33 
Q 55.609375 28.21875 55.609375 21.1875 
Q 55.609375 10.40625 48.1875 4.484375 
Q 40.765625 -1.421875 27.09375 -1.421875 
Q 22.515625 -1.421875 17.65625 -0.515625 
Q 12.796875 0.390625 7.625 2.203125 
L 7.625 11.71875 
Q 11.71875 9.328125 16.59375 8.109375 
Q 21.484375 6.890625 26.8125 6.890625 
Q 36.078125 6.890625 40.9375 10.546875 
Q 45.796875 14.203125 45.796875 21.1875 
Q 45.796875 27.640625 41.28125 31.265625 
Q 36.765625 34.90625 28.71875 34.90625 
L 20.21875 34.90625 
L 20.21875 43.015625 
L 29.109375 43.015625 
Q 36.375 43.015625 40.234375 45.921875 
Q 44.09375 48.828125 44.09375 54.296875 
Q 44.09375 59.90625 40.109375 62.90625 
Q 36.140625 65.921875 28.71875 65.921875 
Q 24.65625 65.921875 20.015625 65.03125 
Q 15.375 64.15625 9.8125 62.3125 
L 9.8125 71.09375 
Q 15.4375 72.65625 20.34375 73.4375 
Q 25.25 74.21875 29.59375 74.21875 
Q 40.828125 74.21875 47.359375 69.109375 
Q 53.90625 64.015625 53.90625 55.328125 
Q 53.90625 49.265625 50.4375 45.09375 
Q 46.96875 40.921875 40.578125 39.3125 
z
" id="DejaVuSans-51"/>
      </defs>
      <g style="fill:#262626;" transform="translate(513.156393 176.536875)scale(0.1 -0.1)">
       <use transform="translate(0 45.046875)scale(0.7)" xlink:href="#DejaVuSans-51"/>
       <use transform="translate(0 -38.232812)scale(0.7)" xlink:href="#DejaVuSans-52"/>
       <path d="M 0 19.051563 
L 0 25.301563 
L 44.536133 25.301563 
L 44.536133 19.051563 
L 0 19.051563 
z
"/>
      </g>
     </g>
    </g>
    <g id="xtick_5">
     <g id="text_5">
      <!-- $1$ -->
      <g style="fill:#262626;" transform="translate(654.669349 173.994687)scale(0.1 -0.1)">
       <use transform="translate(0 0.09375)" xlink:href="#DejaVuSans-49"/>
      </g>
     </g>
    </g>
    <g id="text_6">
     <!-- Noise probability (p) -->
     <defs>
      <path d="M 84.59375 71 
L 84.59375 72 
L 59.796875 72 
L 59.796875 71 
Q 64.59375 70.296875 67.140625 68.546875 
Q 69.703125 66.796875 70.703125 64 
Q 71.5 61.90625 71.59375 58.25 
Q 71.703125 54.59375 71.703125 50.59375 
L 71.703125 16.59375 
L 24.296875 72 
L 4 72 
L 4 71 
Q 5.59375 70.796875 7.34375 70.34375 
Q 9.09375 69.90625 10.59375 68.84375 
Q 12.09375 67.796875 13.1875 65.9375 
Q 14.296875 64.09375 14.59375 61.203125 
Q 14.703125 58.296875 14.703125 56.296875 
Q 14.703125 54.40625 14.703125 52.59375 
Q 14.703125 50.796875 14.703125 48.90625 
Q 14.703125 47 14.703125 44.09375 
Q 14.703125 37.40625 14.59375 31.546875 
Q 14.5 25.703125 14.296875 21.40625 
Q 14.09375 15.703125 13.6875 11.59375 
Q 13.296875 7.5 11.90625 5.40625 
Q 10.5 3.203125 8.09375 2.25 
Q 5.703125 1.296875 3.296875 1 
L 3.296875 0 
L 27.90625 0 
L 27.90625 1 
Q 23.796875 1.5 21.4375 2.640625 
Q 19.09375 3.796875 18 6.09375 
Q 17 8.09375 16.75 12.1875 
Q 16.5 16.296875 16.5 21.40625 
L 16.5 63.59375 
Q 23.296875 56 29.390625 48.890625 
Q 35.5 41.796875 41.84375 34.34375 
Q 48.203125 26.90625 55.203125 18.703125 
Q 62.203125 10.5 70.703125 0.703125 
Q 71.703125 -0.296875 72.5 -0.296875 
Q 73 -0.296875 73.25 -0.046875 
Q 73.5 0.203125 73.5 0.59375 
Q 73.5 3.5 73.5 7.09375 
Q 73.5 10.703125 73.453125 14.34375 
Q 73.40625 18 73.40625 21.5 
Q 73.40625 25.09375 73.40625 27.90625 
Q 73.40625 34.59375 73.546875 40.4375 
Q 73.703125 46.296875 73.90625 50.59375 
Q 74.09375 55.203125 74.296875 59.25 
Q 74.5 63.296875 75.203125 64.796875 
Q 76.40625 67.703125 78.65625 69.09375 
Q 80.90625 70.5 84.59375 71 
z
" id="BigCaslon-Medium-78"/>
      <path d="M 49.203125 24.5 
Q 49.203125 30.5 47.046875 34.953125 
Q 44.90625 39.40625 41.546875 42.34375 
Q 38.203125 45.296875 34.09375 46.796875 
Q 30 48.296875 26 48.296875 
Q 20.59375 48.296875 16.140625 46.296875 
Q 11.703125 44.296875 8.546875 41 
Q 5.40625 37.703125 3.65625 33.390625 
Q 1.90625 29.09375 1.90625 24.5 
Q 1.90625 18.09375 4.15625 13.34375 
Q 6.40625 8.59375 9.953125 5.546875 
Q 13.5 2.5 17.703125 1.09375 
Q 21.90625 -0.296875 25.796875 -0.296875 
Q 30.5 -0.296875 34.75 1.59375 
Q 39 3.5 42.203125 6.890625 
Q 45.40625 10.296875 47.296875 14.84375 
Q 49.203125 19.40625 49.203125 24.5 
z
M 39.90625 24.59375 
Q 39.90625 21.09375 39.15625 17 
Q 38.40625 12.90625 36.75 9.34375 
Q 35.09375 5.796875 32.4375 3.4375 
Q 29.796875 1.09375 25.90625 1.09375 
Q 22 1.09375 19.203125 2.9375 
Q 16.40625 4.796875 14.59375 7.9375 
Q 12.796875 11.09375 12 15.1875 
Q 11.203125 19.296875 11.203125 23.90625 
Q 11.203125 28.09375 12.140625 32.140625 
Q 13.09375 36.203125 14.9375 39.453125 
Q 16.796875 42.703125 19.390625 44.703125 
Q 22 46.703125 25.296875 46.703125 
Q 29.40625 46.703125 32.203125 44.546875 
Q 35 42.40625 36.703125 39.09375 
Q 38.40625 35.796875 39.15625 31.890625 
Q 39.90625 28 39.90625 24.59375 
z
" id="BigCaslon-Medium-111"/>
      <path d="M 17.703125 64.09375 
Q 17.703125 66.40625 16.140625 67.90625 
Q 14.59375 69.40625 12.296875 69.40625 
Q 10 69.40625 8.453125 67.90625 
Q 6.90625 66.40625 6.90625 64.09375 
Q 6.90625 61.90625 8.5 60.296875 
Q 10.09375 58.703125 12.296875 58.703125 
Q 14.59375 58.703125 16.140625 60.25 
Q 17.703125 61.796875 17.703125 64.09375 
z
M 23.296875 0 
L 23.296875 1 
Q 22.296875 1.203125 21.25 1.25 
Q 20.203125 1.296875 19.296875 1.5 
Q 18.40625 1.703125 17.75 2.140625 
Q 17.09375 2.59375 16.90625 3.59375 
L 16.90625 48.296875 
L 16.296875 48.296875 
L 2.796875 43.90625 
L 2.796875 43.296875 
Q 4.203125 42.796875 5.453125 42.1875 
Q 6.703125 41.59375 7.59375 41 
Q 8.296875 40.5 8.4375 39.890625 
Q 8.59375 39.296875 8.59375 38.5 
L 8.59375 4.203125 
Q 8.59375 3.296875 7.9375 2.6875 
Q 7.296875 2.09375 6.34375 1.75 
Q 5.40625 1.40625 4.203125 1.25 
Q 3 1.09375 1.796875 1 
L 1.796875 0 
z
" id="BigCaslon-Medium-105"/>
      <path d="M 36.90625 14.59375 
Q 36.90625 19.703125 33.75 23.203125 
Q 30.59375 26.703125 26.09375 27.796875 
Q 24.203125 28.296875 21.59375 28.84375 
Q 19 29.40625 16.796875 29.90625 
Q 13.59375 30.703125 11.5 32.296875 
Q 9.40625 33.90625 9.40625 37.59375 
Q 9.40625 39.90625 10.203125 41.65625 
Q 11 43.40625 12.25 44.546875 
Q 13.5 45.703125 15.140625 46.296875 
Q 16.796875 46.90625 18.5 46.90625 
Q 21.296875 46.90625 23.4375 45.90625 
Q 25.59375 44.90625 27.296875 43.046875 
Q 29 41.203125 30.390625 38.640625 
Q 31.796875 36.09375 33.203125 33.09375 
L 34 33.296875 
L 32.796875 45.703125 
Q 29.90625 46.796875 26.703125 47.546875 
Q 23.5 48.296875 19.296875 48.296875 
Q 16 48.296875 13.09375 47.34375 
Q 10.203125 46.40625 8 44.59375 
Q 5.796875 42.796875 4.5 40.296875 
Q 3.203125 37.796875 3.203125 34.703125 
Q 3.203125 30.203125 5.546875 27 
Q 7.90625 23.796875 11.703125 22.5 
Q 13.703125 21.796875 16.203125 21.1875 
Q 18.703125 20.59375 21.40625 20.09375 
Q 24.796875 19.40625 26.75 17.34375 
Q 28.703125 15.296875 28.703125 12.203125 
Q 28.703125 6.5 25.84375 3.75 
Q 23 1 18.203125 1 
Q 14.90625 1 12.5 2.453125 
Q 10.09375 3.90625 8.390625 6.15625 
Q 6.703125 8.40625 5.5 11.046875 
Q 4.296875 13.703125 3.5 16.09375 
L 2.703125 16.09375 
L 2.703125 2.90625 
Q 6 1.40625 9.890625 0.59375 
Q 13.796875 -0.203125 18.203125 -0.203125 
Q 21.90625 -0.203125 25.25 0.59375 
Q 28.59375 1.40625 31.1875 3.203125 
Q 33.796875 5 35.34375 7.84375 
Q 36.90625 10.703125 36.90625 14.59375 
z
" id="BigCaslon-Medium-115"/>
      <path d="M 43.296875 15.203125 
L 42.5 15.40625 
Q 41.296875 11.703125 37.546875 9.140625 
Q 33.796875 6.59375 28.796875 6.59375 
Q 24.203125 6.59375 20.703125 8.296875 
Q 17.203125 10 14.890625 12.953125 
Q 12.59375 15.90625 11.390625 19.75 
Q 10.203125 23.59375 10.203125 27.796875 
Q 10.203125 28.90625 10.296875 29.953125 
Q 10.40625 31 10.40625 31.796875 
L 42.5 31.796875 
Q 42.203125 36 40.59375 39.09375 
Q 39 42.203125 36.453125 44.25 
Q 33.90625 46.296875 30.453125 47.296875 
Q 27 48.296875 23.09375 48.296875 
Q 18.296875 48.296875 14.34375 46.25 
Q 10.40625 44.203125 7.65625 40.890625 
Q 4.90625 37.59375 3.40625 33.4375 
Q 1.90625 29.296875 1.90625 25.09375 
Q 1.90625 19.90625 3.5 15.25 
Q 5.09375 10.59375 8.046875 7.140625 
Q 11 3.703125 15.203125 1.796875 
Q 19.40625 -0.09375 24.5 -0.09375 
Q 28.59375 -0.09375 31.9375 1.40625 
Q 35.296875 2.90625 37.6875 5.203125 
Q 40.09375 7.5 41.5 10.25 
Q 42.90625 13 43.296875 15.203125 
z
M 32.59375 37.59375 
Q 32.59375 36.203125 32.25 35.5 
Q 31.90625 34.796875 31.203125 34 
Q 30.203125 33.59375 28.890625 33.5 
Q 27.59375 33.40625 26.09375 33.40625 
Q 23.796875 33.40625 21.890625 33.34375 
Q 20 33.296875 18.25 33.25 
Q 16.5 33.203125 14.703125 33.203125 
Q 12.90625 33.203125 10.59375 33.203125 
Q 10.796875 34.40625 11.6875 36.65625 
Q 12.59375 38.90625 14.25 41.09375 
Q 15.90625 43.296875 18.15625 44.9375 
Q 20.40625 46.59375 23.203125 46.59375 
Q 27.5 46.59375 30.046875 43.9375 
Q 32.59375 41.296875 32.59375 37.59375 
z
" id="BigCaslon-Medium-101"/>
      <path id="BigCaslon-Medium-32"/>
      <path d="M 51.40625 26.5 
Q 51.40625 30.5 50.296875 34.390625 
Q 49.203125 38.296875 46.953125 41.390625 
Q 44.703125 44.5 41.25 46.390625 
Q 37.796875 48.296875 33.09375 48.296875 
Q 30.203125 48.296875 27.75 47.1875 
Q 25.296875 46.09375 23.1875 44.4375 
Q 21.09375 42.796875 19.390625 40.796875 
Q 17.703125 38.796875 16.296875 36.90625 
L 16.203125 37.09375 
L 16.203125 48.296875 
L 15.59375 48.296875 
L 0.90625 42.5 
L 0.90625 41.90625 
Q 2.09375 41.40625 4.09375 40.453125 
Q 6.09375 39.5 7 39 
Q 7.703125 38.5 7.84375 38.09375 
Q 8 37.703125 8 36.90625 
L 8 -18.5 
Q 8 -19.296875 7.140625 -19.890625 
Q 6.296875 -20.5 5.046875 -20.890625 
Q 3.796875 -21.296875 2.390625 -21.546875 
Q 1 -21.796875 0 -21.90625 
L 0 -23 
L 24.59375 -23 
L 24.59375 -21.90625 
Q 23.59375 -21.796875 22.25 -21.6875 
Q 20.90625 -21.59375 19.65625 -21.34375 
Q 18.40625 -21.09375 17.5 -20.640625 
Q 16.59375 -20.203125 16.40625 -19.296875 
Q 16.40625 -17.5 16.40625 -14.59375 
Q 16.40625 -11.703125 16.34375 -8.703125 
Q 16.296875 -5.703125 16.25 -3 
Q 16.203125 -0.296875 16.203125 1.09375 
Q 18.09375 0.703125 19.84375 0.59375 
Q 21.59375 0.5 23.40625 0.5 
Q 29.90625 0.5 35.09375 2.453125 
Q 40.296875 4.40625 43.890625 7.84375 
Q 47.5 11.296875 49.453125 16.09375 
Q 51.40625 20.90625 51.40625 26.5 
z
M 42.40625 23.59375 
Q 42.40625 19 41.15625 15.09375 
Q 39.90625 11.203125 37.796875 8.390625 
Q 35.703125 5.59375 33 4 
Q 30.296875 2.40625 27.40625 2.40625 
Q 24.09375 2.40625 22 3.546875 
Q 19.90625 4.703125 18.703125 6.546875 
Q 17.5 8.40625 17 10.65625 
Q 16.5 12.90625 16.296875 15 
Q 16.203125 17.296875 16.203125 19.59375 
Q 16.203125 21.90625 16.203125 26 
Q 16.203125 27.703125 16.25 29.953125 
Q 16.296875 32.203125 16.296875 34.203125 
Q 16.296875 34.796875 17.046875 36.09375 
Q 17.796875 37.40625 19.25 38.65625 
Q 20.703125 39.90625 22.75 40.84375 
Q 24.796875 41.796875 27.40625 41.796875 
Q 31.203125 41.796875 34.046875 40.34375 
Q 36.90625 38.90625 38.75 36.453125 
Q 40.59375 34 41.5 30.703125 
Q 42.40625 27.40625 42.40625 23.59375 
z
" id="BigCaslon-Medium-112"/>
      <path d="M 36.703125 43 
Q 36.703125 45.296875 34.953125 46.796875 
Q 33.203125 48.296875 30.703125 48.296875 
Q 27.59375 48.296875 25.1875 46.59375 
Q 22.796875 44.90625 21.09375 42.546875 
Q 19.40625 40.203125 18.296875 37.890625 
Q 17.203125 35.59375 16.703125 34.40625 
L 16.5 34.40625 
L 16.703125 48.296875 
L 16.09375 48.296875 
L 3 43.203125 
L 3 42.59375 
Q 4.203125 42.09375 5.390625 41.34375 
Q 6.59375 40.59375 7.5 40.09375 
Q 8.203125 39.59375 8.34375 39.1875 
Q 8.5 38.796875 8.5 38 
L 8.5 4.203125 
Q 8.5 2.59375 6.84375 1.890625 
Q 5.203125 1.203125 2.90625 1 
L 2.90625 0 
L 25.296875 0 
L 25.296875 1 
Q 24.296875 1.203125 22.9375 1.25 
Q 21.59375 1.296875 20.34375 1.5 
Q 19.09375 1.703125 18.09375 2.203125 
Q 17.09375 2.703125 16.796875 3.59375 
L 16.796875 32.40625 
Q 17.40625 33.90625 18.203125 35.546875 
Q 19 37.203125 20 38.5 
Q 21 39.796875 22.140625 40.640625 
Q 23.296875 41.5 24.5 41.5 
Q 25.90625 41.5 26.703125 40.953125 
Q 27.5 40.40625 28.203125 39.703125 
Q 28.90625 39 29.84375 38.453125 
Q 30.796875 37.90625 32.40625 37.90625 
Q 34.09375 37.90625 35.390625 39.34375 
Q 36.703125 40.796875 36.703125 43 
z
" id="BigCaslon-Medium-114"/>
      <path d="M 51.90625 24.203125 
Q 51.90625 28.90625 50.59375 33.25 
Q 49.296875 37.59375 46.796875 40.9375 
Q 44.296875 44.296875 40.6875 46.296875 
Q 37.09375 48.296875 32.40625 48.296875 
Q 29.59375 48.296875 26.796875 47.296875 
Q 24 46.296875 21.640625 44.640625 
Q 19.296875 43 17.5 41 
Q 15.703125 39 14.796875 36.90625 
L 14.59375 37 
L 14.90625 72.59375 
L 14.09375 72.59375 
L 0.703125 66.5 
L 0.703125 65.90625 
Q 2.40625 65 4 64.09375 
Q 5.59375 63.203125 6.5 62.59375 
L 6.5 0.296875 
L 7.203125 0.296875 
L 9.59375 5.703125 
L 10.09375 5.703125 
Q 13.296875 3 18 1.453125 
Q 22.703125 -0.09375 28.40625 -0.09375 
Q 33.5 -0.09375 37.796875 1.75 
Q 42.09375 3.59375 45.25 6.890625 
Q 48.40625 10.203125 50.15625 14.640625 
Q 51.90625 19.09375 51.90625 24.203125 
z
M 42.703125 22.796875 
Q 42.703125 18.203125 41.703125 14.25 
Q 40.703125 10.296875 38.84375 7.390625 
Q 37 4.5 34.453125 2.890625 
Q 31.90625 1.296875 28.703125 1.296875 
Q 25 1.296875 22.390625 2.84375 
Q 19.796875 4.40625 18.140625 6.953125 
Q 16.5 9.5 15.703125 12.75 
Q 14.90625 16 14.796875 19.296875 
Q 14.703125 21.203125 14.703125 23.09375 
Q 14.703125 25.09375 14.703125 27.09375 
Q 14.703125 28.5 14.703125 30.703125 
Q 14.703125 33 14.796875 34.203125 
Q 14.796875 34.796875 15.546875 36.09375 
Q 16.296875 37.40625 17.75 38.703125 
Q 19.203125 40 21.453125 41 
Q 23.703125 42 26.796875 42 
Q 30.90625 42 33.90625 40.390625 
Q 36.90625 38.796875 38.84375 36.140625 
Q 40.796875 33.5 41.75 30.046875 
Q 42.703125 26.59375 42.703125 22.796875 
z
" id="BigCaslon-Medium-98"/>
      <path d="M 46.5 9.796875 
L 45.90625 9.796875 
Q 45.5 8.296875 44.390625 7.34375 
Q 43.296875 6.40625 41 6.40625 
Q 39 6.40625 37.453125 7.84375 
Q 35.90625 9.296875 35.90625 13.796875 
Q 35.90625 17.203125 35.953125 20.046875 
Q 36 22.90625 36 25.59375 
Q 36 28.296875 36.046875 31.1875 
Q 36.09375 34.09375 36.09375 37.703125 
Q 36.09375 39.40625 36 41.15625 
Q 35.90625 42.90625 35.5 43.59375 
Q 34.5 45.59375 32.203125 46.9375 
Q 29.90625 48.296875 27.296875 48.296875 
Q 26 48.296875 23.953125 47.6875 
Q 21.90625 47.09375 19.453125 46.09375 
Q 17 45.09375 14.296875 43.6875 
Q 11.59375 42.296875 9 40.796875 
Q 8.203125 40.296875 7.140625 39.6875 
Q 6.09375 39.09375 5.1875 38.296875 
Q 4.296875 37.5 3.6875 36.5 
Q 3.09375 35.5 3.09375 34.296875 
Q 3.09375 32.796875 4.25 31.640625 
Q 5.40625 30.5 7 30.5 
Q 8.703125 30.5 10.140625 31.59375 
Q 11.59375 32.703125 11.59375 34.09375 
L 11.59375 38.59375 
Q 11.59375 39.203125 12.296875 40.046875 
Q 13 40.90625 14.203125 41.75 
Q 15.40625 42.59375 16.953125 43.140625 
Q 18.5 43.703125 20.09375 43.703125 
Q 22.5 43.703125 24 43.046875 
Q 25.5 42.40625 26.34375 41.59375 
Q 27.203125 40.796875 27.546875 40.046875 
Q 27.90625 39.296875 27.90625 39.09375 
L 27.90625 28.796875 
Q 26.90625 28.203125 25.453125 27.453125 
Q 24 26.703125 22.09375 25.640625 
Q 20.203125 24.59375 17.640625 23.09375 
Q 15.09375 21.59375 11.796875 19.5 
Q 8.5 17.40625 6.25 14.796875 
Q 4 12.203125 4 9.40625 
Q 4 6.796875 4.84375 5 
Q 5.703125 3.203125 7.046875 2.046875 
Q 8.40625 0.90625 10.046875 0.453125 
Q 11.703125 0 13.296875 0 
Q 16 0 18.25 0.84375 
Q 20.5 1.703125 22.34375 3.09375 
Q 24.203125 4.5 25.546875 6.09375 
Q 26.90625 7.703125 27.703125 9 
L 27.90625 8.90625 
Q 27.90625 3.90625 30.546875 1.90625 
Q 33.203125 -0.09375 36.59375 -0.09375 
Q 38.703125 -0.09375 40.453125 0.65625 
Q 42.203125 1.40625 43.5 2.84375 
Q 44.796875 4.296875 45.59375 6.09375 
Q 46.40625 7.90625 46.5 9.796875 
z
M 27.90625 11.796875 
Q 27.90625 10.09375 26.703125 9 
Q 25 7.296875 23 6.6875 
Q 21 6.09375 18.40625 6.09375 
Q 15.5 6.09375 13.703125 8.1875 
Q 11.90625 10.296875 11.90625 12.90625 
Q 11.90625 15.5 13.75 17.546875 
Q 15.59375 19.59375 18.140625 21.296875 
Q 20.703125 23 23.390625 24.453125 
Q 26.09375 25.90625 27.90625 27.203125 
z
" id="BigCaslon-Medium-97"/>
      <path d="M 24 0 
L 24 1.09375 
Q 22.09375 1.296875 20.6875 1.34375 
Q 19.296875 1.40625 18.390625 1.59375 
Q 17.5 1.796875 17.046875 2.296875 
Q 16.59375 2.796875 16.59375 3.796875 
L 16.59375 72.296875 
L 15.90625 72.296875 
L 1.59375 67.59375 
L 1.59375 67 
Q 2.796875 66.5 4.59375 65.453125 
Q 6.40625 64.40625 7.296875 63.90625 
Q 8 63.40625 8.140625 63 
Q 8.296875 62.59375 8.296875 61.796875 
L 8.296875 4.296875 
Q 8.296875 2.703125 6.796875 2.046875 
Q 5.296875 1.40625 0.703125 1.09375 
L 0.703125 0 
z
" id="BigCaslon-Medium-108"/>
      <path d="M 35.09375 47.296875 
L 16.59375 47.296875 
L 16.59375 56 
L 15.796875 56 
L 1.296875 42.296875 
L 1.296875 41.203125 
L 8.59375 41.203125 
Q 8.59375 34.59375 8.5 26.140625 
Q 8.40625 17.703125 8.40625 8.296875 
Q 8.40625 6.703125 9.34375 5.140625 
Q 10.296875 3.59375 11.796875 2.34375 
Q 13.296875 1.09375 15.25 0.4375 
Q 17.203125 -0.203125 19.296875 -0.203125 
Q 22.5 -0.203125 24.84375 0.546875 
Q 27.203125 1.296875 28.953125 2.640625 
Q 30.703125 4 31.75 5.640625 
Q 32.796875 7.296875 33.40625 8.796875 
L 32.796875 9.09375 
Q 31.40625 7.09375 29.5 6.140625 
Q 27.59375 5.203125 24.703125 5.203125 
Q 21.203125 5.203125 19 7.5 
Q 16.796875 9.796875 16.796875 14.90625 
L 16.796875 41.203125 
L 32 41.203125 
z
" id="BigCaslon-Medium-116"/>
      <path d="M 44.296875 46.203125 
L 44.296875 47.296875 
L 28.90625 47.296875 
L 28.90625 46.203125 
Q 29.796875 46.09375 30.796875 46 
Q 31.796875 45.90625 32.640625 45.59375 
Q 33.5 45.296875 34 44.75 
Q 34.5 44.203125 34.5 43.296875 
Q 34.5 42.703125 33.84375 40.25 
Q 33.203125 37.796875 32.203125 34.34375 
Q 31.203125 30.90625 30 27 
Q 28.796875 23.09375 27.6875 19.546875 
Q 26.59375 16 25.796875 13.390625 
Q 25 10.796875 24.703125 10 
Q 23.796875 12.40625 22.59375 15.65625 
Q 21.40625 18.90625 20.15625 22.40625 
Q 18.90625 25.90625 17.65625 29.34375 
Q 16.40625 32.796875 15.40625 35.6875 
Q 14.40625 38.59375 13.796875 40.546875 
Q 13.203125 42.5 13.203125 43 
Q 13.203125 44.90625 14.75 45.40625 
Q 16.296875 45.90625 18.40625 46.203125 
L 18.40625 47.296875 
L -3.40625 47.296875 
L -3.40625 46.203125 
Q 0 46 1.25 45.390625 
Q 2.5 44.796875 3.40625 43.796875 
Q 4.90625 39.703125 6.703125 34.796875 
Q 8.5 29.90625 10.34375 24.84375 
Q 12.203125 19.796875 14 15 
Q 15.796875 10.203125 17.1875 6.34375 
Q 18.59375 2.5 19.5 0.046875 
Q 20.40625 -2.40625 20.59375 -2.796875 
Q 20.5 -3.296875 20.09375 -4.796875 
Q 19.703125 -6.296875 19.046875 -8.4375 
Q 18.40625 -10.59375 17.546875 -13.25 
Q 16.703125 -15.90625 15.59375 -18.59375 
L 15.40625 -18.59375 
Q 14 -17.296875 12.640625 -16.09375 
Q 11.296875 -14.90625 9.296875 -14.90625 
Q 7.296875 -14.90625 6.09375 -16.203125 
Q 4.90625 -17.5 4.90625 -19.5 
Q 4.90625 -21.5 6.59375 -22.75 
Q 8.296875 -24 10.296875 -24 
Q 12.59375 -24 14.796875 -22.296875 
Q 17 -20.59375 18.203125 -16.796875 
Q 19.90625 -11.5 21.75 -5.59375 
Q 23.59375 0.296875 25.4375 6.296875 
Q 27.296875 12.296875 29.09375 18 
Q 30.90625 23.703125 32.40625 28.453125 
Q 33.90625 33.203125 35 36.703125 
Q 36.09375 40.203125 36.59375 41.796875 
Q 37.09375 43.40625 37.890625 44.25 
Q 38.703125 45.09375 39.75 45.5 
Q 40.796875 45.90625 41.9375 46 
Q 43.09375 46.09375 44.296875 46.203125 
z
" id="BigCaslon-Medium-121"/>
      <path d="M 29.296875 -12.796875 
Q 25.296875 -10 21.390625 -6.09375 
Q 17.5 -2.203125 14.34375 2.9375 
Q 11.203125 8.09375 9.25 14.75 
Q 7.296875 21.40625 7.296875 29.5 
Q 7.296875 37.5 9.140625 43.890625 
Q 11 50.296875 14.046875 55.4375 
Q 17.09375 60.59375 21.09375 64.640625 
Q 25.09375 68.703125 29.296875 71.796875 
L 27.90625 73.09375 
Q 23.296875 69.703125 18.9375 65.59375 
Q 14.59375 61.5 11.1875 56.25 
Q 7.796875 51 5.6875 44.453125 
Q 3.59375 37.90625 3.59375 29.5 
Q 3.59375 20.796875 5.796875 14.09375 
Q 8 7.40625 11.453125 2.25 
Q 14.90625 -2.90625 19.296875 -6.90625 
Q 23.703125 -10.90625 28 -14.09375 
z
" id="BigCaslon-Medium-40"/>
      <path d="M 27.703125 29.5 
Q 27.703125 37.90625 25.59375 44.453125 
Q 23.5 51 20.09375 56.25 
Q 16.703125 61.5 12.34375 65.59375 
Q 8 69.703125 3.40625 73.09375 
L 2 71.796875 
Q 6.203125 68.703125 10.203125 64.640625 
Q 14.203125 60.59375 17.25 55.4375 
Q 20.296875 50.296875 22.140625 43.890625 
Q 24 37.5 24 29.5 
Q 24 21.40625 22.046875 14.75 
Q 20.09375 8.09375 16.9375 2.9375 
Q 13.796875 -2.203125 9.890625 -6.09375 
Q 6 -10 2 -12.796875 
L 3.296875 -14.09375 
Q 7.703125 -10.90625 12.046875 -6.90625 
Q 16.40625 -2.90625 19.84375 2.25 
Q 23.296875 7.40625 25.5 14.09375 
Q 27.703125 20.796875 27.703125 29.5 
z
" id="BigCaslon-Medium-41"/>
     </defs>
     <g style="fill:#262626;" transform="translate(323.50125 193.208125)scale(0.12 -0.12)">
      <use xlink:href="#BigCaslon-Medium-78"/>
      <use x="87.499985" xlink:href="#BigCaslon-Medium-111"/>
      <use x="138.599976" xlink:href="#BigCaslon-Medium-105"/>
      <use x="163.999969" xlink:href="#BigCaslon-Medium-115"/>
      <use x="202.199966" xlink:href="#BigCaslon-Medium-101"/>
      <use x="245.699951" xlink:href="#BigCaslon-Medium-32"/>
      <use x="266.699936" xlink:href="#BigCaslon-Medium-112"/>
      <use x="320.09993" xlink:href="#BigCaslon-Medium-114"/>
      <use x="355.799927" xlink:href="#BigCaslon-Medium-111"/>
      <use x="406.899918" xlink:href="#BigCaslon-Medium-98"/>
      <use x="460.699905" xlink:href="#BigCaslon-Medium-97"/>
      <use x="505.499893" xlink:href="#BigCaslon-Medium-98"/>
      <use x="559.299881" xlink:href="#BigCaslon-Medium-105"/>
      <use x="584.699875" xlink:href="#BigCaslon-Medium-108"/>
      <use x="609.299866" xlink:href="#BigCaslon-Medium-105"/>
      <use x="634.69986" xlink:href="#BigCaslon-Medium-116"/>
      <use x="667.099854" xlink:href="#BigCaslon-Medium-121"/>
      <use x="708.699844" xlink:href="#BigCaslon-Medium-32"/>
      <use x="729.699829" xlink:href="#BigCaslon-Medium-40"/>
      <use x="760.999817" xlink:href="#BigCaslon-Medium-112"/>
      <use x="814.399811" xlink:href="#BigCaslon-Medium-41"/>
     </g>
    </g>
   </g>
   <g id="matplotlib.axis_2">
    <g id="ytick_1">
     <g id="text_7">
      <!-- 0.0 -->
      <defs>
       <path d="M 4.15625 35.296875 
Q 4.15625 48 6.765625 55.734375 
Q 9.375 63.484375 14.515625 67.671875 
Q 19.671875 71.875 27.484375 71.875 
Q 33.25 71.875 37.59375 69.546875 
Q 41.9375 67.234375 44.765625 62.859375 
Q 47.609375 58.5 49.21875 52.21875 
Q 50.828125 45.953125 50.828125 35.296875 
Q 50.828125 22.703125 48.234375 14.96875 
Q 45.65625 7.234375 40.5 3 
Q 35.359375 -1.21875 27.484375 -1.21875 
Q 17.140625 -1.21875 11.234375 6.203125 
Q 4.15625 15.140625 4.15625 35.296875 
z
M 13.1875 35.296875 
Q 13.1875 17.671875 17.3125 11.828125 
Q 21.4375 6 27.484375 6 
Q 33.546875 6 37.671875 11.859375 
Q 41.796875 17.71875 41.796875 35.296875 
Q 41.796875 52.984375 37.671875 58.78125 
Q 33.546875 64.59375 27.390625 64.59375 
Q 21.34375 64.59375 17.71875 59.46875 
Q 13.1875 52.9375 13.1875 35.296875 
z
" id="ArialMT-48"/>
       <path d="M 9.078125 0 
L 9.078125 10.015625 
L 19.09375 10.015625 
L 19.09375 0 
z
" id="ArialMT-46"/>
      </defs>
      <g style="fill:#262626;" transform="translate(22.635625 163.415781)scale(0.1 -0.1)">
       <use xlink:href="#ArialMT-48"/>
       <use x="55.615234" xlink:href="#ArialMT-46"/>
       <use x="83.398438" xlink:href="#ArialMT-48"/>
      </g>
     </g>
    </g>
    <g id="ytick_2">
     <g id="text_8">
      <!-- 0.2 -->
      <defs>
       <path d="M 50.34375 8.453125 
L 50.34375 0 
L 3.03125 0 
Q 2.9375 3.171875 4.046875 6.109375 
Q 5.859375 10.9375 9.828125 15.625 
Q 13.8125 20.3125 21.34375 26.46875 
Q 33.015625 36.03125 37.109375 41.625 
Q 41.21875 47.21875 41.21875 52.203125 
Q 41.21875 57.421875 37.46875 61 
Q 33.734375 64.59375 27.734375 64.59375 
Q 21.390625 64.59375 17.578125 60.78125 
Q 13.765625 56.984375 13.71875 50.25 
L 4.6875 51.171875 
Q 5.609375 61.28125 11.65625 66.578125 
Q 17.71875 71.875 27.9375 71.875 
Q 38.234375 71.875 44.234375 66.15625 
Q 50.25 60.453125 50.25 52 
Q 50.25 47.703125 48.484375 43.546875 
Q 46.734375 39.40625 42.65625 34.8125 
Q 38.578125 30.21875 29.109375 22.21875 
Q 21.1875 15.578125 18.9375 13.203125 
Q 16.703125 10.84375 15.234375 8.453125 
z
" id="ArialMT-50"/>
      </defs>
      <g style="fill:#262626;" transform="translate(22.635625 137.104351)scale(0.1 -0.1)">
       <use xlink:href="#ArialMT-48"/>
       <use x="55.615234" xlink:href="#ArialMT-46"/>
       <use x="83.398438" xlink:href="#ArialMT-50"/>
      </g>
     </g>
    </g>
    <g id="ytick_3">
     <g id="text_9">
      <!-- 0.4 -->
      <defs>
       <path d="M 32.328125 0 
L 32.328125 17.140625 
L 1.265625 17.140625 
L 1.265625 25.203125 
L 33.9375 71.578125 
L 41.109375 71.578125 
L 41.109375 25.203125 
L 50.78125 25.203125 
L 50.78125 17.140625 
L 41.109375 17.140625 
L 41.109375 0 
z
M 32.328125 25.203125 
L 32.328125 57.46875 
L 9.90625 25.203125 
z
" id="ArialMT-52"/>
      </defs>
      <g style="fill:#262626;" transform="translate(22.635625 110.79292)scale(0.1 -0.1)">
       <use xlink:href="#ArialMT-48"/>
       <use x="55.615234" xlink:href="#ArialMT-46"/>
       <use x="83.398438" xlink:href="#ArialMT-52"/>
      </g>
     </g>
    </g>
    <g id="ytick_4">
     <g id="text_10">
      <!-- 0.6 -->
      <defs>
       <path d="M 49.75 54.046875 
L 41.015625 53.375 
Q 39.84375 58.546875 37.703125 60.890625 
Q 34.125 64.65625 28.90625 64.65625 
Q 24.703125 64.65625 21.53125 62.3125 
Q 17.390625 59.28125 14.984375 53.46875 
Q 12.59375 47.65625 12.5 36.921875 
Q 15.671875 41.75 20.265625 44.09375 
Q 24.859375 46.4375 29.890625 46.4375 
Q 38.671875 46.4375 44.84375 39.96875 
Q 51.03125 33.5 51.03125 23.25 
Q 51.03125 16.5 48.125 10.71875 
Q 45.21875 4.9375 40.140625 1.859375 
Q 35.0625 -1.21875 28.609375 -1.21875 
Q 17.625 -1.21875 10.6875 6.859375 
Q 3.765625 14.9375 3.765625 33.5 
Q 3.765625 54.25 11.421875 63.671875 
Q 18.109375 71.875 29.4375 71.875 
Q 37.890625 71.875 43.28125 67.140625 
Q 48.6875 62.40625 49.75 54.046875 
z
M 13.875 23.1875 
Q 13.875 18.65625 15.796875 14.5 
Q 17.71875 10.359375 21.1875 8.171875 
Q 24.65625 6 28.46875 6 
Q 34.03125 6 38.03125 10.484375 
Q 42.046875 14.984375 42.046875 22.703125 
Q 42.046875 30.125 38.078125 34.390625 
Q 34.125 38.671875 28.125 38.671875 
Q 22.171875 38.671875 18.015625 34.390625 
Q 13.875 30.125 13.875 23.1875 
z
" id="ArialMT-54"/>
      </defs>
      <g style="fill:#262626;" transform="translate(22.635625 84.48149)scale(0.1 -0.1)">
       <use xlink:href="#ArialMT-48"/>
       <use x="55.615234" xlink:href="#ArialMT-46"/>
       <use x="83.398438" xlink:href="#ArialMT-54"/>
      </g>
     </g>
    </g>
    <g id="ytick_5">
     <g id="text_11">
      <!-- 0.8 -->
      <defs>
       <path d="M 17.671875 38.8125 
Q 12.203125 40.828125 9.5625 44.53125 
Q 6.9375 48.25 6.9375 53.421875 
Q 6.9375 61.234375 12.546875 66.546875 
Q 18.171875 71.875 27.484375 71.875 
Q 36.859375 71.875 42.578125 66.421875 
Q 48.296875 60.984375 48.296875 53.171875 
Q 48.296875 48.1875 45.671875 44.5 
Q 43.0625 40.828125 37.75 38.8125 
Q 44.34375 36.671875 47.78125 31.875 
Q 51.21875 27.09375 51.21875 20.453125 
Q 51.21875 11.28125 44.71875 5.03125 
Q 38.234375 -1.21875 27.640625 -1.21875 
Q 17.046875 -1.21875 10.546875 5.046875 
Q 4.046875 11.328125 4.046875 20.703125 
Q 4.046875 27.6875 7.59375 32.390625 
Q 11.140625 37.109375 17.671875 38.8125 
z
M 15.921875 53.71875 
Q 15.921875 48.640625 19.1875 45.40625 
Q 22.46875 42.1875 27.6875 42.1875 
Q 32.765625 42.1875 36.015625 45.375 
Q 39.265625 48.578125 39.265625 53.21875 
Q 39.265625 58.0625 35.90625 61.359375 
Q 32.5625 64.65625 27.59375 64.65625 
Q 22.5625 64.65625 19.234375 61.421875 
Q 15.921875 58.203125 15.921875 53.71875 
z
M 13.09375 20.65625 
Q 13.09375 16.890625 14.875 13.375 
Q 16.65625 9.859375 20.171875 7.921875 
Q 23.6875 6 27.734375 6 
Q 34.03125 6 38.125 10.046875 
Q 42.234375 14.109375 42.234375 20.359375 
Q 42.234375 26.703125 38.015625 30.859375 
Q 33.796875 35.015625 27.4375 35.015625 
Q 21.234375 35.015625 17.15625 30.90625 
Q 13.09375 26.8125 13.09375 20.65625 
z
" id="ArialMT-56"/>
      </defs>
      <g style="fill:#262626;" transform="translate(22.635625 58.170059)scale(0.1 -0.1)">
       <use xlink:href="#ArialMT-48"/>
       <use x="55.615234" xlink:href="#ArialMT-46"/>
       <use x="83.398438" xlink:href="#ArialMT-56"/>
      </g>
     </g>
    </g>
    <g id="ytick_6">
     <g id="text_12">
      <!-- 1.0 -->
      <defs>
       <path d="M 37.25 0 
L 28.46875 0 
L 28.46875 56 
Q 25.296875 52.984375 20.140625 49.953125 
Q 14.984375 46.921875 10.890625 45.40625 
L 10.890625 53.90625 
Q 18.265625 57.375 23.78125 62.296875 
Q 29.296875 67.234375 31.59375 71.875 
L 37.25 71.875 
z
" id="ArialMT-49"/>
      </defs>
      <g style="fill:#262626;" transform="translate(22.635625 31.858629)scale(0.1 -0.1)">
       <use xlink:href="#ArialMT-49"/>
       <use x="55.615234" xlink:href="#ArialMT-46"/>
       <use x="83.398438" xlink:href="#ArialMT-48"/>
      </g>
     </g>
    </g>
    <g id="text_13">
     <!-- Packet error ratio -->
     <defs>
      <path d="M 63.59375 51.203125 
Q 63.59375 57.203125 60.6875 61.59375 
Q 57.796875 66 53.40625 68.40625 
Q 48.90625 70.90625 43.796875 71.546875 
Q 38.703125 72.203125 32.09375 72.203125 
Q 30.296875 72.203125 27.59375 72.203125 
Q 25 72.203125 22.046875 72.140625 
Q 19.09375 72.09375 16.09375 72.09375 
Q 13.09375 72.09375 10.546875 72.046875 
Q 8 72 6.09375 72 
Q 4.296875 72 3.703125 72 
L 3.703125 71 
Q 6.40625 70.59375 8.75 70.046875 
Q 11.09375 69.5 12.59375 67.90625 
Q 13.203125 67.296875 13.546875 65.9375 
Q 13.90625 64.59375 14.046875 62.9375 
Q 14.203125 61.296875 14.25 59.4375 
Q 14.296875 57.59375 14.296875 55.796875 
L 14.296875 36.296875 
Q 14.296875 33.59375 14.296875 30.5 
Q 14.296875 27.5 14.25 24.640625 
Q 14.203125 21.796875 14.140625 19.390625 
Q 14.09375 17 14.09375 15.59375 
Q 14.09375 14 14 12.296875 
Q 13.90625 10.59375 13.75 9.09375 
Q 13.59375 7.59375 13.296875 6.390625 
Q 13 5.203125 12.5 4.59375 
Q 11.203125 3 8.890625 2.203125 
Q 6.59375 1.40625 4.09375 1 
L 4.09375 0 
L 36.09375 0 
L 36.09375 1 
Q 32 1.203125 29.703125 2.5 
Q 27.40625 3.796875 26.59375 5.09375 
Q 25.59375 6.59375 25.5 8.890625 
Q 25.40625 11.203125 25.296875 14.40625 
Q 25.296875 16.09375 25.25 17.546875 
Q 25.203125 19 25.203125 20.703125 
Q 25.203125 22.40625 25.203125 24.59375 
Q 25.203125 26.90625 25.203125 30.09375 
Q 27.59375 30.09375 30.59375 30.09375 
Q 33.703125 30.09375 36.953125 30.34375 
Q 40.203125 30.59375 43.390625 31.09375 
Q 46.59375 31.59375 49.40625 32.59375 
Q 52.09375 33.59375 54.6875 35.25 
Q 57.296875 36.90625 59.25 39.203125 
Q 61.203125 41.5 62.390625 44.5 
Q 63.59375 47.5 63.59375 51.203125 
z
M 52.796875 51.703125 
Q 52.796875 45.40625 49.390625 40.34375 
Q 46 35.296875 39.59375 33.09375 
Q 36.5 32 32.890625 31.75 
Q 29.296875 31.5 25.203125 31.5 
Q 25.203125 32.296875 25.203125 35.90625 
Q 25.203125 39.5 25.203125 44.296875 
Q 25.203125 49.09375 25.25 54.09375 
Q 25.296875 59.09375 25.40625 62.59375 
Q 25.5 64.90625 25.59375 66.15625 
Q 25.703125 67.40625 25.796875 68.09375 
Q 25.90625 68.796875 26.046875 69.25 
Q 26.203125 69.703125 26.296875 70.296875 
Q 27 70.40625 28.140625 70.546875 
Q 29.296875 70.703125 31.40625 70.703125 
Q 34.296875 70.703125 37 70.296875 
Q 39.703125 69.90625 42.09375 68.796875 
Q 46.90625 66.5 49.84375 62 
Q 52.796875 57.5 52.796875 51.703125 
z
" id="BigCaslon-Medium-80"/>
      <path d="M 44.09375 14.296875 
L 43.296875 14.703125 
Q 40.90625 10.703125 37.296875 8.640625 
Q 33.703125 6.59375 27.5 6.59375 
Q 23.59375 6.59375 20.4375 8.046875 
Q 17.296875 9.5 15.09375 12.140625 
Q 12.90625 14.796875 11.703125 18.546875 
Q 10.5 22.296875 10.5 26.796875 
Q 10.5 30.90625 11.59375 34.5 
Q 12.703125 38.09375 14.59375 40.796875 
Q 16.5 43.5 19.09375 45.09375 
Q 21.703125 46.703125 24.796875 46.703125 
Q 29 46.703125 30.953125 44.25 
Q 32.90625 41.796875 32.90625 38.09375 
Q 32.90625 36.09375 32.40625 34.703125 
Q 32.796875 33.203125 34.140625 32.203125 
Q 35.5 31.203125 37.203125 31.203125 
Q 39.296875 31.203125 40.84375 32.75 
Q 42.40625 34.296875 42.40625 36.40625 
Q 42.40625 39.296875 40.84375 41.5 
Q 39.296875 43.703125 36.796875 45.203125 
Q 34.296875 46.703125 31.09375 47.5 
Q 27.90625 48.296875 24.59375 48.296875 
Q 19.703125 48.296875 15.546875 46.296875 
Q 11.40625 44.296875 8.40625 41 
Q 5.40625 37.703125 3.703125 33.34375 
Q 2 29 2 24.203125 
Q 2 19.09375 3.640625 14.59375 
Q 5.296875 10.09375 8.1875 6.75 
Q 11.09375 3.40625 15.1875 1.546875 
Q 19.296875 -0.296875 24.09375 -0.296875 
Q 27.90625 -0.296875 31.15625 0.796875 
Q 34.40625 1.90625 37 3.953125 
Q 39.59375 6 41.390625 8.640625 
Q 43.203125 11.296875 44.09375 14.296875 
z
" id="BigCaslon-Medium-99"/>
      <path d="M 52.796875 0 
L 52.796875 1 
Q 50.90625 1 49.203125 1.203125 
Q 47.5 1.40625 46.703125 1.59375 
Q 44.296875 3.40625 40.796875 8 
Q 37.90625 11.796875 34 17.640625 
Q 30.09375 23.5 25.703125 30.203125 
Q 28.40625 32.703125 31.5 35.546875 
Q 34.59375 38.40625 37.796875 41.09375 
Q 39.90625 42.90625 42.34375 43.90625 
Q 44.796875 44.90625 46.9375 45.453125 
Q 49.09375 46 50.6875 46.140625 
Q 52.296875 46.296875 52.59375 46.296875 
L 52.59375 47.296875 
L 28.09375 47.296875 
L 28.09375 46.296875 
Q 29.296875 46.296875 30.6875 46.09375 
Q 32.09375 45.90625 33.296875 45.59375 
Q 34.5 45.296875 35.296875 44.84375 
Q 36.09375 44.40625 36.09375 43.703125 
Q 36.09375 43 34.1875 40.84375 
Q 32.296875 38.703125 29.390625 35.84375 
Q 26.5 33 23.09375 29.953125 
Q 19.703125 26.90625 16.796875 24.5 
L 16.796875 72.296875 
L 16 72.296875 
L 2.703125 66.203125 
L 2.703125 65.59375 
Q 4 64.90625 5.453125 64.15625 
Q 6.90625 63.40625 7.59375 62.90625 
Q 8.296875 62.40625 8.390625 61.953125 
Q 8.5 61.5 8.5 60.703125 
L 8.5 4.203125 
Q 8.5 2.296875 6.640625 1.75 
Q 4.796875 1.203125 2.5 1 
L 2.5 0 
L 22.40625 0 
L 22.40625 1 
Q 21.40625 1.203125 20.40625 1.296875 
Q 19.40625 1.40625 18.59375 1.65625 
Q 17.796875 1.90625 17.296875 2.40625 
Q 16.796875 2.90625 16.796875 3.796875 
L 16.796875 23.40625 
Q 17.203125 23.59375 17.546875 23.640625 
Q 17.90625 23.703125 18.40625 23.703125 
Q 19.703125 23.703125 21.296875 21.5 
Q 22.796875 19.5 24.84375 16.546875 
Q 26.90625 13.59375 28.75 10.796875 
Q 30.59375 8 31.9375 5.84375 
Q 33.296875 3.703125 33.296875 3.09375 
Q 33.296875 1.703125 31.9375 1.390625 
Q 30.59375 1.09375 28.59375 1 
L 28.59375 0 
z
" id="BigCaslon-Medium-107"/>
     </defs>
     <g style="fill:#262626;" transform="translate(15.875625 133.522812)rotate(-90)scale(0.12 -0.12)">
      <use xlink:href="#BigCaslon-Medium-80"/>
      <use x="65.599991" xlink:href="#BigCaslon-Medium-97"/>
      <use x="110.399979" xlink:href="#BigCaslon-Medium-99"/>
      <use x="153.599976" xlink:href="#BigCaslon-Medium-107"/>
      <use x="202.399963" xlink:href="#BigCaslon-Medium-101"/>
      <use x="245.899948" xlink:href="#BigCaslon-Medium-116"/>
      <use x="278.299942" xlink:href="#BigCaslon-Medium-32"/>
      <use x="299.299927" xlink:href="#BigCaslon-Medium-101"/>
      <use x="342.799911" xlink:href="#BigCaslon-Medium-114"/>
      <use x="378.499908" xlink:href="#BigCaslon-Medium-114"/>
      <use x="414.199905" xlink:href="#BigCaslon-Medium-111"/>
      <use x="465.299896" xlink:href="#BigCaslon-Medium-114"/>
      <use x="500.999893" xlink:href="#BigCaslon-Medium-32"/>
      <use x="521.999878" xlink:href="#BigCaslon-Medium-114"/>
      <use x="557.699875" xlink:href="#BigCaslon-Medium-97"/>
      <use x="602.499863" xlink:href="#BigCaslon-Medium-116"/>
      <use x="634.899857" xlink:href="#BigCaslon-Medium-105"/>
      <use x="660.29985" xlink:href="#BigCaslon-Medium-111"/>
     </g>
    </g>
   </g>
   <g id="patch_3">
    <path clip-path="url(#pd3a1ebddde)" d="M 73.599972 159.836875 
L 84.945008 159.836875 
L 84.945008 107.977046 
L 73.599972 107.977046 
z
" style="fill:url(#h731d88ce28);stroke:#ffffff;stroke-linejoin:miter;"/>
   </g>
   <g id="patch_4">
    <path clip-path="url(#pd3a1ebddde)" d="M 130.325154 159.836875 
L 141.67019 159.836875 
L 141.67019 100.320419 
L 130.325154 100.320419 
z
" style="fill:url(#h731d88ce28);stroke:#ffffff;stroke-linejoin:miter;"/>
   </g>
   <g id="patch_5">
    <path clip-path="url(#pd3a1ebddde)" d="M 187.050336 159.836875 
L 198.395373 159.836875 
L 198.395373 92.61117 
L 187.050336 92.61117 
z
" style="fill:url(#h731d88ce28);stroke:#ffffff;stroke-linejoin:miter;"/>
   </g>
   <g id="patch_6">
    <path clip-path="url(#pd3a1ebddde)" d="M 243.775518 159.836875 
L 255.120555 159.836875 
L 255.120555 84.954544 
L 243.775518 84.954544 
z
" style="fill:url(#h731d88ce28);stroke:#ffffff;stroke-linejoin:miter;"/>
   </g>
   <g id="patch_7">
    <path clip-path="url(#pd3a1ebddde)" d="M 300.500701 159.836875 
L 311.845737 159.836875 
L 311.845737 75.087757 
L 300.500701 75.087757 
z
" style="fill:url(#h731d88ce28);stroke:#ffffff;stroke-linejoin:miter;"/>
   </g>
   <g id="patch_8">
    <path clip-path="url(#pd3a1ebddde)" d="M 357.225883 159.836875 
L 368.570919 159.836875 
L 368.570919 68.299408 
L 357.225883 68.299408 
z
" style="fill:url(#h731d88ce28);stroke:#ffffff;stroke-linejoin:miter;"/>
   </g>
   <g id="patch_9">
    <path clip-path="url(#pd3a1ebddde)" d="M 413.951065 159.836875 
L 425.296102 159.836875 
L 425.296102 59.090408 
L 413.951065 59.090408 
z
" style="fill:url(#h731d88ce28);stroke:#ffffff;stroke-linejoin:miter;"/>
   </g>
   <g id="patch_10">
    <path clip-path="url(#pd3a1ebddde)" d="M 470.676247 159.836875 
L 482.021284 159.836875 
L 482.021284 52.907222 
L 470.676247 52.907222 
z
" style="fill:url(#h731d88ce28);stroke:#ffffff;stroke-linejoin:miter;"/>
   </g>
   <g id="patch_11">
    <path clip-path="url(#pd3a1ebddde)" d="M 527.40143 159.836875 
L 538.746466 159.836875 
L 538.746466 44.356007 
L 527.40143 44.356007 
z
" style="fill:url(#h731d88ce28);stroke:#ffffff;stroke-linejoin:miter;"/>
   </g>
   <g id="patch_12">
    <path clip-path="url(#pd3a1ebddde)" d="M 584.126612 159.836875 
L 595.471648 159.836875 
L 595.471648 36.778315 
L 584.126612 36.778315 
z
" style="fill:url(#h731d88ce28);stroke:#ffffff;stroke-linejoin:miter;"/>
   </g>
   <g id="patch_13">
    <path clip-path="url(#pd3a1ebddde)" d="M 640.851794 159.836875 
L 652.196831 159.836875 
L 652.196831 28.41128 
L 640.851794 28.41128 
z
" style="fill:url(#h731d88ce28);stroke:#ffffff;stroke-linejoin:miter;"/>
   </g>
   <g id="patch_14">
    <path clip-path="url(#pd3a1ebddde)" d="M 84.945008 159.836875 
L 96.290044 159.836875 
L 96.290044 107.977046 
L 84.945008 107.977046 
z
" style="fill:#9e579d;stroke:#ffffff;stroke-linejoin:miter;"/>
   </g>
   <g id="patch_15">
    <path clip-path="url(#pd3a1ebddde)" d="M 141.67019 159.836875 
L 153.015227 159.836875 
L 153.015227 107.977046 
L 141.67019 107.977046 
z
" style="fill:#9e579d;stroke:#ffffff;stroke-linejoin:miter;"/>
   </g>
   <g id="patch_16">
    <path clip-path="url(#pd3a1ebddde)" d="M 198.395373 159.836875 
L 209.740409 159.836875 
L 209.740409 107.740243 
L 198.395373 107.740243 
z
" style="fill:#9e579d;stroke:#ffffff;stroke-linejoin:miter;"/>
   </g>
   <g id="patch_17">
    <path clip-path="url(#pd3a1ebddde)" d="M 255.120555 159.836875 
L 266.465591 159.836875 
L 266.465591 104.109265 
L 255.120555 104.109265 
z
" style="fill:#9e579d;stroke:#ffffff;stroke-linejoin:miter;"/>
   </g>
   <g id="patch_18">
    <path clip-path="url(#pd3a1ebddde)" d="M 311.845737 159.836875 
L 323.190773 159.836875 
L 323.190773 91.585024 
L 311.845737 91.585024 
z
" style="fill:#9e579d;stroke:#ffffff;stroke-linejoin:miter;"/>
   </g>
   <g id="patch_19">
    <path clip-path="url(#pd3a1ebddde)" d="M 368.570919 159.836875 
L 379.915956 159.836875 
L 379.915956 68.430966 
L 368.570919 68.430966 
z
" style="fill:#9e579d;stroke:#ffffff;stroke-linejoin:miter;"/>
   </g>
   <g id="patch_20">
    <path clip-path="url(#pd3a1ebddde)" d="M 425.296102 159.836875 
L 436.641138 159.836875 
L 436.641138 44.987481 
L 425.296102 44.987481 
z
" style="fill:#9e579d;stroke:#ffffff;stroke-linejoin:miter;"/>
   </g>
   <g id="patch_21">
    <path clip-path="url(#pd3a1ebddde)" d="M 482.021284 159.836875 
L 493.36632 159.836875 
L 493.36632 32.46324 
L 482.021284 32.46324 
z
" style="fill:#9e579d;stroke:#ffffff;stroke-linejoin:miter;"/>
   </g>
   <g id="patch_22">
    <path clip-path="url(#pd3a1ebddde)" d="M 538.746466 159.836875 
L 550.091502 159.836875 
L 550.091502 28.674394 
L 538.746466 28.674394 
z
" style="fill:#9e579d;stroke:#ffffff;stroke-linejoin:miter;"/>
   </g>
   <g id="patch_23">
    <path clip-path="url(#pd3a1ebddde)" d="M 595.471648 159.836875 
L 606.816685 159.836875 
L 606.816685 28.41128 
L 595.471648 28.41128 
z
" style="fill:#9e579d;stroke:#ffffff;stroke-linejoin:miter;"/>
   </g>
   <g id="patch_24">
    <path clip-path="url(#pd3a1ebddde)" d="M 652.196831 159.836875 
L 663.541867 159.836875 
L 663.541867 28.41128 
L 652.196831 28.41128 
z
" style="fill:#9e579d;stroke:#ffffff;stroke-linejoin:miter;"/>
   </g>
   <g id="patch_25">
    <path clip-path="url(#pd3a1ebddde)" d="M 96.290044 159.836875 
L 107.635081 159.836875 
L 107.635081 107.977046 
L 96.290044 107.977046 
z
" style="fill:#5f046a;stroke:#ffffff;stroke-linejoin:miter;"/>
   </g>
   <g id="patch_26">
    <path clip-path="url(#pd3a1ebddde)" d="M 153.015227 159.836875 
L 164.360263 159.836875 
L 164.360263 107.977046 
L 153.015227 107.977046 
z
" style="fill:#5f046a;stroke:#ffffff;stroke-linejoin:miter;"/>
   </g>
   <g id="patch_27">
    <path clip-path="url(#pd3a1ebddde)" d="M 209.740409 159.836875 
L 221.085445 159.836875 
L 221.085445 107.950734 
L 209.740409 107.950734 
z
" style="fill:#5f046a;stroke:#ffffff;stroke-linejoin:miter;"/>
   </g>
   <g id="patch_28">
    <path clip-path="url(#pd3a1ebddde)" d="M 266.465591 159.836875 
L 277.810628 159.836875 
L 277.810628 107.950734 
L 266.465591 107.950734 
z
" style="fill:#5f046a;stroke:#ffffff;stroke-linejoin:miter;"/>
   </g>
   <g id="patch_29">
    <path clip-path="url(#pd3a1ebddde)" d="M 323.190773 159.836875 
L 334.53581 159.836875 
L 334.53581 107.950734 
L 323.190773 107.950734 
z
" style="fill:#5f046a;stroke:#ffffff;stroke-linejoin:miter;"/>
   </g>
   <g id="patch_30">
    <path clip-path="url(#pd3a1ebddde)" d="M 379.915956 159.836875 
L 391.260992 159.836875 
L 391.260992 107.950734 
L 379.915956 107.950734 
z
" style="fill:#5f046a;stroke:#ffffff;stroke-linejoin:miter;"/>
   </g>
   <g id="patch_31">
    <path clip-path="url(#pd3a1ebddde)" d="M 436.641138 159.836875 
L 447.986174 159.836875 
L 447.986174 107.924423 
L 436.641138 107.924423 
z
" style="fill:#5f046a;stroke:#ffffff;stroke-linejoin:miter;"/>
   </g>
   <g id="patch_32">
    <path clip-path="url(#pd3a1ebddde)" d="M 493.36632 159.836875 
L 504.711357 159.836875 
L 504.711357 107.634997 
L 493.36632 107.634997 
z
" style="fill:#5f046a;stroke:#ffffff;stroke-linejoin:miter;"/>
   </g>
   <g id="patch_33">
    <path clip-path="url(#pd3a1ebddde)" d="M 550.091502 159.836875 
L 561.436539 159.836875 
L 561.436539 105.003854 
L 550.091502 105.003854 
z
" style="fill:#5f046a;stroke:#ffffff;stroke-linejoin:miter;"/>
   </g>
   <g id="patch_34">
    <path clip-path="url(#pd3a1ebddde)" d="M 606.816685 159.836875 
L 618.161721 159.836875 
L 618.161721 92.348056 
L 606.816685 92.348056 
z
" style="fill:#5f046a;stroke:#ffffff;stroke-linejoin:miter;"/>
   </g>
   <g id="patch_35">
    <path clip-path="url(#pd3a1ebddde)" d="M 663.541867 159.836875 
L 674.886903 159.836875 
L 674.886903 28.41128 
L 663.541867 28.41128 
z
" style="fill:#5f046a;stroke:#ffffff;stroke-linejoin:miter;"/>
   </g>
   <g id="patch_36">
    <path d="M 43.535625 159.836875 
L 43.535625 21.84 
" style="fill:none;stroke:#cccccc;stroke-linecap:square;stroke-linejoin:miter;stroke-width:0.8;"/>
   </g>
   <g id="patch_37">
    <path d="M 43.535625 159.836875 
L 704.95125 159.836875 
" style="fill:none;stroke:#cccccc;stroke-linecap:square;stroke-linejoin:miter;stroke-width:0.8;"/>
   </g>
   <g id="text_14">
    <!-- K-means segmentation K=1024 -->
    <defs>
     <path d="M 80.5 0 
L 80.5 1 
Q 77.703125 1.203125 75.453125 1.703125 
Q 73.203125 2.203125 71.90625 2.703125 
Q 71.59375 2.796875 70.6875 3.5 
Q 69.796875 4.203125 68.59375 5.140625 
Q 67.40625 6.09375 66.09375 7.296875 
Q 64.796875 8.5 63.796875 9.703125 
Q 59.59375 14.40625 55.046875 19.5 
Q 50.5 24.59375 46.5 29.09375 
Q 42.5 33.59375 39.59375 36.9375 
Q 36.703125 40.296875 35.90625 41.296875 
Q 37.59375 43.09375 39.640625 45.140625 
Q 41.703125 47.203125 43.84375 49.390625 
Q 46 51.59375 48.203125 53.796875 
Q 50.40625 56 52.5 57.90625 
Q 57.90625 62.90625 63.09375 66.703125 
Q 68.296875 70.5 73.40625 71 
L 73.40625 72 
L 46.59375 72 
L 46.59375 71 
Q 49.203125 70.59375 51.203125 69.296875 
Q 53.203125 68 53.203125 65.09375 
Q 53.203125 63.40625 51.84375 61.296875 
Q 50.5 59.203125 48.796875 57.203125 
Q 46.40625 54.59375 43.09375 51.09375 
Q 39.796875 47.59375 36.4375 44.296875 
Q 33.09375 41 30.046875 38.34375 
Q 27 35.703125 25.203125 34.59375 
Q 25.203125 40.203125 25.203125 43.796875 
Q 25.203125 47.5 25.203125 50.09375 
Q 25.203125 52.703125 25.25 54.703125 
Q 25.296875 56.703125 25.40625 59 
Q 25.5 63.203125 26.453125 65.5 
Q 27.40625 67.796875 28.796875 68.9375 
Q 30.203125 70.09375 32 70.4375 
Q 33.796875 70.796875 35.703125 71 
L 35.703125 72 
L 4.703125 72 
L 4.703125 71 
Q 7.296875 70.703125 9.296875 69.890625 
Q 11.296875 69.09375 12.703125 67.40625 
Q 13.796875 66 14.046875 62.796875 
Q 14.296875 59.59375 14.296875 55.796875 
L 14.296875 36.296875 
Q 14.296875 33.59375 14.296875 30.5 
Q 14.296875 27.5 14.296875 24.59375 
Q 14.296875 21.796875 14.25 19.390625 
Q 14.203125 17 14.203125 15.59375 
Q 14.203125 14 14.140625 12.25 
Q 14.09375 10.5 13.9375 8.953125 
Q 13.796875 7.40625 13.5 6.203125 
Q 13.203125 5 12.703125 4.40625 
Q 11.5 3 9.203125 2.203125 
Q 6.90625 1.40625 4.40625 1 
L 4.40625 0 
L 36.5 0 
L 36.5 1 
Q 35.5 1.09375 34.140625 1.34375 
Q 32.796875 1.59375 31.390625 2.046875 
Q 30 2.5 28.796875 3.203125 
Q 27.59375 3.90625 26.90625 4.90625 
Q 25.90625 6.203125 25.59375 8.703125 
Q 25.296875 11.203125 25.203125 14.09375 
Q 25.09375 17.40625 25.09375 22 
Q 25.09375 26.703125 25.09375 31.90625 
Q 25.40625 32.703125 25.65625 33.046875 
Q 25.90625 33.40625 26.703125 33.40625 
Q 27.40625 33.40625 28.34375 32.703125 
Q 29.296875 32 31.90625 29.09375 
Q 38.09375 22.296875 43.84375 15.640625 
Q 49.59375 9 56 1.59375 
Q 56.59375 0.90625 57.09375 0.546875 
Q 57.59375 0.203125 58 0 
z
" id="BigCaslon-Medium-75"/>
     <path d="M 24.296875 22.5 
L 24.296875 29.5 
L 1.203125 29.5 
L 1.203125 22.5 
z
" id="BigCaslon-Medium-45"/>
     <path d="M 78.203125 0 
L 78.203125 0.90625 
Q 77.296875 1 76.296875 1.140625 
Q 75.296875 1.296875 74.4375 1.546875 
Q 73.59375 1.796875 73 2.296875 
Q 72.40625 2.796875 72.40625 3.5 
L 72.40625 33.296875 
Q 72.40625 39.90625 69.453125 44.09375 
Q 66.5 48.296875 60.703125 48.296875 
Q 58 48.296875 55.453125 47.1875 
Q 52.90625 46.09375 50.796875 44.34375 
Q 48.703125 42.59375 47.09375 40.546875 
Q 45.5 38.5 44.59375 36.703125 
L 44.296875 36.703125 
Q 43.59375 42 40.640625 45.140625 
Q 37.703125 48.296875 32.90625 48.296875 
Q 30.203125 48.296875 27.75 47.25 
Q 25.296875 46.203125 23.1875 44.640625 
Q 21.09375 43.09375 19.5 41.140625 
Q 17.90625 39.203125 16.90625 37.40625 
L 16.703125 37.5 
L 16.703125 48.296875 
L 16.09375 48.296875 
L 3 43.59375 
L 3 42.796875 
Q 4.203125 42.296875 5.390625 41.640625 
Q 6.59375 41 7.5 40.5 
Q 8.203125 40 8.34375 39.59375 
Q 8.5 39.203125 8.5 38.40625 
L 8.5 4.203125 
Q 8.5 2.59375 6.84375 1.890625 
Q 5.203125 1.203125 2.90625 1 
L 2.90625 0 
L 22.296875 0 
L 22.296875 1 
Q 21.296875 1.203125 20.390625 1.25 
Q 19.5 1.296875 18.75 1.5 
Q 18 1.703125 17.5 2.140625 
Q 17 2.59375 16.796875 3.59375 
L 16.796875 36.40625 
Q 19.40625 39.203125 21.5 40.59375 
Q 23.59375 42 26.90625 42 
Q 32.09375 42 34.140625 38.640625 
Q 36.203125 35.296875 36.203125 29.40625 
L 36.203125 3.796875 
Q 36.203125 2.203125 34.59375 1.75 
Q 33 1.296875 30.296875 1.09375 
L 30.296875 0 
L 50 0 
L 50 0.90625 
Q 49.09375 1 48.140625 1.140625 
Q 47.203125 1.296875 46.390625 1.546875 
Q 45.59375 1.796875 45.09375 2.296875 
Q 44.59375 2.796875 44.59375 3.5 
L 44.59375 35.796875 
Q 47 38.5 49.203125 40.25 
Q 51.40625 42 54.703125 42 
Q 59.90625 42 61.953125 38.546875 
Q 64 35.09375 64 29.296875 
L 64 3.796875 
Q 64 2.203125 62.59375 1.75 
Q 61.203125 1.296875 58.5 1.09375 
L 58.5 0 
z
" id="BigCaslon-Medium-109"/>
     <path d="M 51.203125 0 
L 51.203125 0.90625 
Q 50.296875 1 49.25 1.140625 
Q 48.203125 1.296875 47.296875 1.546875 
Q 46.40625 1.796875 45.75 2.296875 
Q 45.09375 2.796875 45.09375 3.5 
L 45.09375 32.90625 
Q 45.09375 39.703125 42 44 
Q 38.90625 48.296875 33.09375 48.296875 
Q 30.40625 48.296875 27.90625 47.25 
Q 25.40625 46.203125 23.296875 44.59375 
Q 21.203125 43 19.546875 41.046875 
Q 17.90625 39.09375 16.796875 37.40625 
L 16.59375 37.5 
L 16.59375 48.296875 
L 16 48.296875 
L 2.90625 43.59375 
L 2.90625 43 
Q 4.09375 42.5 5.296875 41.84375 
Q 6.5 41.203125 7.40625 40.703125 
Q 8.09375 40.203125 8.25 39.796875 
Q 8.40625 39.40625 8.40625 38.59375 
L 8.40625 4.203125 
Q 8.40625 2.59375 6.75 1.890625 
Q 5.09375 1.203125 2.796875 1 
L 2.796875 0 
L 22.09375 0 
L 22.09375 1 
Q 21.09375 1.203125 20.1875 1.25 
Q 19.296875 1.296875 18.59375 1.5 
Q 17.90625 1.703125 17.40625 2.140625 
Q 16.90625 2.59375 16.703125 3.59375 
L 16.703125 36.40625 
Q 19.40625 39.09375 21.59375 40.5 
Q 23.796875 41.90625 27.09375 41.90625 
Q 32.296875 41.90625 34.5 38.34375 
Q 36.703125 34.796875 36.703125 29 
L 36.703125 3.796875 
Q 36.703125 2.203125 35.09375 1.75 
Q 33.5 1.296875 30.796875 1.09375 
L 30.796875 0 
z
" id="BigCaslon-Medium-110"/>
     <path d="M 53.5 42.796875 
Q 53.5 44.5 52.390625 45.703125 
Q 51.296875 46.90625 49.59375 46.90625 
Q 48.40625 46.90625 47.5 46.546875 
Q 46.59375 46.203125 45.796875 45.75 
Q 45 45.296875 44.046875 44.9375 
Q 43.09375 44.59375 41.90625 44.59375 
Q 40.703125 44.59375 39.84375 44.6875 
Q 39 44.796875 37.796875 45.203125 
Q 34.59375 46.90625 31.640625 47.59375 
Q 28.703125 48.296875 24.90625 48.296875 
Q 20.703125 48.296875 17.140625 47.09375 
Q 13.59375 45.90625 11 43.84375 
Q 8.40625 41.796875 6.953125 39 
Q 5.5 36.203125 5.5 33 
Q 5.5 27.90625 7.953125 24.59375 
Q 10.40625 21.296875 14.796875 19.59375 
L 14.796875 19.296875 
Q 12.296875 19 10.140625 18.046875 
Q 8 17.09375 6.390625 15.6875 
Q 4.796875 14.296875 3.890625 12.59375 
Q 3 10.90625 3 9 
Q 3 5.203125 5.75 2.890625 
Q 8.5 0.59375 13.59375 0 
L 13.59375 -0.203125 
Q 11.5 -1.5 9.34375 -2.84375 
Q 7.203125 -4.203125 5.453125 -5.75 
Q 3.703125 -7.296875 2.546875 -9 
Q 1.40625 -10.703125 1.40625 -12.796875 
Q 1.40625 -18.5 7.453125 -21.75 
Q 13.5 -25 24.40625 -25 
Q 30.09375 -25 34.84375 -23.453125 
Q 39.59375 -21.90625 43.09375 -19.203125 
Q 46.59375 -16.5 48.546875 -12.953125 
Q 50.5 -9.40625 50.5 -5.5 
Q 50.5 -2.5 49.453125 -0.046875 
Q 48.40625 2.40625 46.40625 4.296875 
Q 44.40625 6.203125 41.59375 7.296875 
Q 38.796875 8.40625 35.296875 8.40625 
L 19.296875 8.40625 
Q 17.59375 8.40625 15.796875 8.59375 
Q 14 8.796875 12.5 9.390625 
Q 11 10 10 11.046875 
Q 9 12.09375 9 13.703125 
Q 9 15.703125 10.890625 17 
Q 12.796875 18.296875 16 18.5 
Q 18 18.5 19.453125 18.296875 
Q 20.90625 18.09375 22.296875 18.09375 
Q 32 18.09375 37.5 22.046875 
Q 43 26 43 33.90625 
Q 43 37.09375 41.953125 39.09375 
Q 40.90625 41.09375 39.40625 43.40625 
L 39.796875 43.796875 
Q 41 43.09375 42.5 42.25 
Q 44 41.40625 45.453125 40.703125 
Q 46.90625 40 48.09375 39.5 
Q 49.296875 39 49.90625 39 
Q 51.40625 39 52.453125 40.140625 
Q 53.5 41.296875 53.5 42.796875 
z
M 35 33.90625 
Q 35 31.09375 34.296875 28.546875 
Q 33.59375 26 32.1875 24 
Q 30.796875 22 28.75 20.796875 
Q 26.703125 19.59375 24 19.59375 
Q 19.59375 19.59375 16.546875 23.25 
Q 13.5 26.90625 13.5 32.90625 
Q 13.5 35.5 14.203125 38 
Q 14.90625 40.5 16.25 42.453125 
Q 17.59375 44.40625 19.59375 45.546875 
Q 21.59375 46.703125 24.09375 46.703125 
Q 26.796875 46.703125 28.84375 45.640625 
Q 30.90625 44.59375 32.25 42.84375 
Q 33.59375 41.09375 34.296875 38.796875 
Q 35 36.5 35 33.90625 
z
M 43.796875 -9.59375 
Q 43.796875 -13.90625 41.140625 -17 
Q 38.5 -20.09375 35 -21.5 
Q 33.296875 -22.09375 31.140625 -22.390625 
Q 29 -22.703125 26 -22.703125 
Q 23.5 -22.703125 20.546875 -21.890625 
Q 17.59375 -21.09375 15 -19.4375 
Q 12.40625 -17.796875 10.65625 -15.390625 
Q 8.90625 -13 8.90625 -9.796875 
Q 8.90625 -6.703125 10.703125 -4.09375 
Q 12.5 -1.5 17.203125 -0.296875 
Q 18.59375 -0.09375 20.796875 0.09375 
Q 23 0.296875 25.09375 0.296875 
Q 30.90625 0.296875 34.203125 -0.140625 
Q 37.5 -0.59375 39.703125 -1.703125 
Q 41.40625 -2.5 42.59375 -4.59375 
Q 43.796875 -6.703125 43.796875 -9.59375 
z
" id="BigCaslon-Medium-103"/>
     <path d="M 55.5 30 
L 55.5 33.90625 
L 14.5 33.90625 
L 14.5 30 
z
M 55.5 18.59375 
L 55.5 22.5 
L 14.5 22.5 
L 14.5 18.59375 
z
" id="BigCaslon-Medium-61"/>
     <path d="M 28.09375 0 
L 28.09375 1.09375 
Q 26.90625 1.09375 25.5 1.296875 
Q 24.09375 1.5 22.890625 2 
Q 21.703125 2.5 20.890625 3.296875 
Q 20.09375 4.09375 20.09375 5.40625 
L 20.09375 41.796875 
Q 20.09375 43 20.84375 43.796875 
Q 21.59375 44.59375 22.796875 45.140625 
Q 24 45.703125 25.390625 45.953125 
Q 26.796875 46.203125 28.09375 46.203125 
L 28.09375 47.296875 
L 3.796875 47.296875 
L 3.796875 46.203125 
Q 5.203125 46.203125 6.59375 45.953125 
Q 8 45.703125 9.140625 45.203125 
Q 10.296875 44.703125 11.046875 43.890625 
Q 11.796875 43.09375 11.796875 41.90625 
L 11.796875 5.5 
Q 11.796875 4.40625 11.09375 3.546875 
Q 10.40625 2.703125 9.34375 2.203125 
Q 8.296875 1.703125 6.9375 1.390625 
Q 5.59375 1.09375 4.203125 1.09375 
L 4.203125 0 
z
" id="BigCaslon-Medium-49"/>
     <path d="M 50.59375 24.296875 
Q 50.59375 30 48.59375 34.453125 
Q 46.59375 38.90625 43.296875 41.953125 
Q 40 45 35.796875 46.59375 
Q 31.59375 48.203125 27.203125 48.203125 
Q 21.796875 48.203125 17.296875 46.25 
Q 12.796875 44.296875 9.546875 41.046875 
Q 6.296875 37.796875 4.5 33.546875 
Q 2.703125 29.296875 2.703125 24.59375 
Q 2.703125 18 5 13.25 
Q 7.296875 8.5 10.890625 5.453125 
Q 14.5 2.40625 18.75 1.046875 
Q 23 -0.296875 26.90625 -0.296875 
Q 31.59375 -0.296875 35.890625 1.453125 
Q 40.203125 3.203125 43.453125 6.5 
Q 46.703125 9.796875 48.640625 14.34375 
Q 50.59375 18.90625 50.59375 24.296875 
z
M 45.796875 23.796875 
Q 45.796875 19.796875 44.4375 16.140625 
Q 43.09375 12.5 40.59375 9.75 
Q 38.09375 7 34.59375 5.34375 
Q 31.09375 3.703125 26.90625 3.703125 
Q 22.703125 3.703125 19.140625 5.34375 
Q 15.59375 7 13 9.75 
Q 10.40625 12.5 8.953125 16.140625 
Q 7.5 19.796875 7.5 23.796875 
Q 7.5 27.796875 8.953125 31.4375 
Q 10.40625 35.09375 12.953125 37.890625 
Q 15.5 40.703125 19 42.34375 
Q 22.5 44 26.703125 44 
Q 31 44 34.5 42.34375 
Q 38 40.703125 40.5 37.890625 
Q 43 35.09375 44.390625 31.4375 
Q 45.796875 27.796875 45.796875 23.796875 
z
" id="BigCaslon-Medium-48"/>
     <path d="M 43.703125 13.40625 
L 42.703125 13.703125 
Q 42.203125 12.59375 41.640625 11.640625 
Q 41.09375 10.703125 40.140625 9.953125 
Q 39.203125 9.203125 37.640625 8.796875 
Q 36.09375 8.40625 33.40625 8.40625 
L 15.40625 8.40625 
L 15.40625 8.59375 
Q 18.59375 11.59375 22.046875 14.796875 
Q 25.5 18 28.34375 21.453125 
Q 31.203125 24.90625 33.046875 28.703125 
Q 34.90625 32.5 34.90625 36.703125 
Q 34.90625 42.09375 31.546875 45.1875 
Q 28.203125 48.296875 23.203125 48.296875 
Q 19.5 48.296875 16.203125 46.546875 
Q 12.90625 44.796875 10.15625 42.296875 
Q 7.40625 39.796875 5.40625 37.046875 
Q 3.40625 34.296875 2.296875 32.296875 
L 3.296875 31.703125 
Q 5.703125 35.59375 9.25 38.34375 
Q 12.796875 41.09375 17.90625 41.09375 
Q 20.296875 41.09375 22.09375 40.1875 
Q 23.90625 39.296875 25.046875 37.796875 
Q 26.203125 36.296875 26.796875 34.34375 
Q 27.40625 32.40625 27.40625 30.40625 
Q 27.40625 26.703125 25.046875 22.640625 
Q 22.703125 18.59375 19.203125 14.6875 
Q 15.703125 10.796875 11.703125 7.25 
Q 7.703125 3.703125 4.296875 0.796875 
L 4.59375 0 
L 38.703125 0 
z
" id="BigCaslon-Medium-50"/>
     <path d="M 52.5 0.5 
L 52.5 8.203125 
L 38.703125 8.203125 
L 38.703125 48.296875 
L 35.796875 48.296875 
L 4.59375 8.40625 
L 0 1.703125 
Q -0.5 0.90625 -0.25 0.703125 
Q 0 0.5 0.703125 0.5 
L 30.09375 0.5 
L 30.09375 -22.59375 
L 38.90625 -22.59375 
L 38.90625 0.5 
z
M 30.09375 8.203125 
L 6.59375 8.203125 
L 30.09375 37.90625 
z
" id="BigCaslon-Medium-52"/>
    </defs>
    <g style="fill:#262626;" transform="translate(297.444375 15.84)scale(0.12 -0.12)">
     <use xlink:href="#BigCaslon-Medium-75"/>
     <use x="76.699982" xlink:href="#BigCaslon-Medium-45"/>
     <use x="102.299973" xlink:href="#BigCaslon-Medium-109"/>
     <use x="181.699966" xlink:href="#BigCaslon-Medium-101"/>
     <use x="225.199951" xlink:href="#BigCaslon-Medium-97"/>
     <use x="269.999939" xlink:href="#BigCaslon-Medium-110"/>
     <use x="322.09993" xlink:href="#BigCaslon-Medium-115"/>
     <use x="360.299927" xlink:href="#BigCaslon-Medium-32"/>
     <use x="381.299911" xlink:href="#BigCaslon-Medium-115"/>
     <use x="419.499908" xlink:href="#BigCaslon-Medium-101"/>
     <use x="462.999893" xlink:href="#BigCaslon-Medium-103"/>
     <use x="515.499878" xlink:href="#BigCaslon-Medium-109"/>
     <use x="594.899872" xlink:href="#BigCaslon-Medium-101"/>
     <use x="638.399857" xlink:href="#BigCaslon-Medium-110"/>
     <use x="690.499847" xlink:href="#BigCaslon-Medium-116"/>
     <use x="722.899841" xlink:href="#BigCaslon-Medium-97"/>
     <use x="767.699829" xlink:href="#BigCaslon-Medium-116"/>
     <use x="800.099823" xlink:href="#BigCaslon-Medium-105"/>
     <use x="825.499817" xlink:href="#BigCaslon-Medium-111"/>
     <use x="876.599808" xlink:href="#BigCaslon-Medium-110"/>
     <use x="928.699799" xlink:href="#BigCaslon-Medium-32"/>
     <use x="949.699783" xlink:href="#BigCaslon-Medium-75"/>
     <use x="1026.399765" xlink:href="#BigCaslon-Medium-61"/>
     <use x="1096.39975" xlink:href="#BigCaslon-Medium-49"/>
     <use x="1127.999741" xlink:href="#BigCaslon-Medium-48"/>
     <use x="1181.299728" xlink:href="#BigCaslon-Medium-50"/>
     <use x="1224.899719" xlink:href="#BigCaslon-Medium-52"/>
    </g>
   </g>
   <g id="legend_1">
    <g id="patch_38">
     <path d="M 50.535625 72.754063 
L 183.671563 72.754063 
Q 185.671563 72.754063 185.671563 70.754063 
L 185.671563 28.84 
Q 185.671563 26.84 183.671563 26.84 
L 50.535625 26.84 
Q 48.535625 26.84 48.535625 28.84 
L 48.535625 70.754063 
Q 48.535625 72.754063 50.535625 72.754063 
z
" style="fill:#ffffff;opacity:0.8;stroke:#cccccc;stroke-linejoin:miter;"/>
    </g>
    <g id="patch_39">
     <path d="M 52.535625 37.997813 
L 72.535625 37.997813 
L 72.535625 30.997813 
L 52.535625 30.997813 
z
" style="fill:url(#h731d88ce28);stroke:#ffffff;stroke-linejoin:miter;"/>
    </g>
    <g id="text_15">
     <!-- Source -->
     <defs>
      <path d="M 4.5 23 
L 13.421875 23.78125 
Q 14.0625 18.40625 16.375 14.96875 
Q 18.703125 11.53125 23.578125 9.40625 
Q 28.46875 7.28125 34.578125 7.28125 
Q 39.984375 7.28125 44.140625 8.890625 
Q 48.296875 10.5 50.3125 13.296875 
Q 52.34375 16.109375 52.34375 19.4375 
Q 52.34375 22.796875 50.390625 25.3125 
Q 48.4375 27.828125 43.953125 29.546875 
Q 41.0625 30.671875 31.203125 33.03125 
Q 21.34375 35.40625 17.390625 37.5 
Q 12.25 40.1875 9.734375 44.15625 
Q 7.234375 48.140625 7.234375 53.078125 
Q 7.234375 58.5 10.296875 63.203125 
Q 13.375 67.921875 19.28125 70.359375 
Q 25.203125 72.796875 32.421875 72.796875 
Q 40.375 72.796875 46.453125 70.234375 
Q 52.546875 67.671875 55.8125 62.6875 
Q 59.078125 57.71875 59.328125 51.421875 
L 50.25 50.734375 
Q 49.515625 57.515625 45.28125 60.984375 
Q 41.0625 64.453125 32.8125 64.453125 
Q 24.21875 64.453125 20.28125 61.296875 
Q 16.359375 58.15625 16.359375 53.71875 
Q 16.359375 49.859375 19.140625 47.359375 
Q 21.875 44.875 33.421875 42.265625 
Q 44.96875 39.65625 49.265625 37.703125 
Q 55.515625 34.8125 58.484375 30.390625 
Q 61.46875 25.984375 61.46875 20.21875 
Q 61.46875 14.5 58.203125 9.4375 
Q 54.9375 4.390625 48.796875 1.578125 
Q 42.671875 -1.21875 35.015625 -1.21875 
Q 25.296875 -1.21875 18.71875 1.609375 
Q 12.15625 4.4375 8.421875 10.125 
Q 4.6875 15.828125 4.5 23 
z
" id="ArialMT-83"/>
      <path d="M 3.328125 25.921875 
Q 3.328125 40.328125 11.328125 47.265625 
Q 18.015625 53.03125 27.640625 53.03125 
Q 38.328125 53.03125 45.109375 46.015625 
Q 51.90625 39.015625 51.90625 26.65625 
Q 51.90625 16.65625 48.90625 10.90625 
Q 45.90625 5.171875 40.15625 2 
Q 34.421875 -1.171875 27.640625 -1.171875 
Q 16.75 -1.171875 10.03125 5.8125 
Q 3.328125 12.796875 3.328125 25.921875 
z
M 12.359375 25.921875 
Q 12.359375 15.96875 16.703125 11.015625 
Q 21.046875 6.0625 27.640625 6.0625 
Q 34.1875 6.0625 38.53125 11.03125 
Q 42.875 16.015625 42.875 26.21875 
Q 42.875 35.84375 38.5 40.796875 
Q 34.125 45.75 27.640625 45.75 
Q 21.046875 45.75 16.703125 40.8125 
Q 12.359375 35.890625 12.359375 25.921875 
z
" id="ArialMT-111"/>
      <path d="M 40.578125 0 
L 40.578125 7.625 
Q 34.515625 -1.171875 24.125 -1.171875 
Q 19.53125 -1.171875 15.546875 0.578125 
Q 11.578125 2.34375 9.640625 5 
Q 7.71875 7.671875 6.9375 11.53125 
Q 6.390625 14.109375 6.390625 19.734375 
L 6.390625 51.859375 
L 15.1875 51.859375 
L 15.1875 23.09375 
Q 15.1875 16.21875 15.71875 13.8125 
Q 16.546875 10.359375 19.234375 8.375 
Q 21.921875 6.390625 25.875 6.390625 
Q 29.828125 6.390625 33.296875 8.421875 
Q 36.765625 10.453125 38.203125 13.9375 
Q 39.65625 17.4375 39.65625 24.078125 
L 39.65625 51.859375 
L 48.4375 51.859375 
L 48.4375 0 
z
" id="ArialMT-117"/>
      <path d="M 6.5 0 
L 6.5 51.859375 
L 14.40625 51.859375 
L 14.40625 44 
Q 17.4375 49.515625 20 51.265625 
Q 22.5625 53.03125 25.640625 53.03125 
Q 30.078125 53.03125 34.671875 50.203125 
L 31.640625 42.046875 
Q 28.421875 43.953125 25.203125 43.953125 
Q 22.3125 43.953125 20.015625 42.21875 
Q 17.71875 40.484375 16.75 37.40625 
Q 15.28125 32.71875 15.28125 27.15625 
L 15.28125 0 
z
" id="ArialMT-114"/>
      <path d="M 40.4375 19 
L 49.078125 17.875 
Q 47.65625 8.9375 41.8125 3.875 
Q 35.984375 -1.171875 27.484375 -1.171875 
Q 16.84375 -1.171875 10.375 5.78125 
Q 3.90625 12.75 3.90625 25.734375 
Q 3.90625 34.125 6.6875 40.421875 
Q 9.46875 46.734375 15.15625 49.875 
Q 20.84375 53.03125 27.546875 53.03125 
Q 35.984375 53.03125 41.359375 48.75 
Q 46.734375 44.484375 48.25 36.625 
L 39.703125 35.296875 
Q 38.484375 40.53125 35.375 43.15625 
Q 32.28125 45.796875 27.875 45.796875 
Q 21.234375 45.796875 17.078125 41.03125 
Q 12.9375 36.28125 12.9375 25.984375 
Q 12.9375 15.53125 16.9375 10.796875 
Q 20.953125 6.0625 27.390625 6.0625 
Q 32.5625 6.0625 36.03125 9.234375 
Q 39.5 12.40625 40.4375 19 
z
" id="ArialMT-99"/>
      <path d="M 42.09375 16.703125 
L 51.171875 15.578125 
Q 49.03125 7.625 43.21875 3.21875 
Q 37.40625 -1.171875 28.375 -1.171875 
Q 17 -1.171875 10.328125 5.828125 
Q 3.65625 12.84375 3.65625 25.484375 
Q 3.65625 38.578125 10.390625 45.796875 
Q 17.140625 53.03125 27.875 53.03125 
Q 38.28125 53.03125 44.875 45.953125 
Q 51.46875 38.875 51.46875 26.03125 
Q 51.46875 25.25 51.421875 23.6875 
L 12.75 23.6875 
Q 13.234375 15.140625 17.578125 10.59375 
Q 21.921875 6.0625 28.421875 6.0625 
Q 33.25 6.0625 36.671875 8.59375 
Q 40.09375 11.140625 42.09375 16.703125 
z
M 13.234375 30.90625 
L 42.1875 30.90625 
Q 41.609375 37.453125 38.875 40.71875 
Q 34.671875 45.796875 27.984375 45.796875 
Q 21.921875 45.796875 17.796875 41.75 
Q 13.671875 37.703125 13.234375 30.90625 
z
" id="ArialMT-101"/>
     </defs>
     <g style="fill:#262626;" transform="translate(80.535625 37.997813)scale(0.1 -0.1)">
      <use xlink:href="#ArialMT-83"/>
      <use x="66.699219" xlink:href="#ArialMT-111"/>
      <use x="122.314453" xlink:href="#ArialMT-117"/>
      <use x="177.929688" xlink:href="#ArialMT-114"/>
      <use x="211.230469" xlink:href="#ArialMT-99"/>
      <use x="261.230469" xlink:href="#ArialMT-101"/>
     </g>
    </g>
    <g id="patch_40">
     <path d="M 52.535625 52.265 
L 72.535625 52.265 
L 72.535625 45.265 
L 52.535625 45.265 
z
" style="fill:#9e579d;stroke:#ffffff;stroke-linejoin:miter;"/>
    </g>
    <g id="text_16">
     <!-- 5 sample MC (median) -->
     <defs>
      <path d="M 4.15625 18.75 
L 13.375 19.53125 
Q 14.40625 12.796875 18.140625 9.390625 
Q 21.875 6 27.15625 6 
Q 33.5 6 37.890625 10.78125 
Q 42.28125 15.578125 42.28125 23.484375 
Q 42.28125 31 38.0625 35.34375 
Q 33.84375 39.703125 27 39.703125 
Q 22.75 39.703125 19.328125 37.765625 
Q 15.921875 35.84375 13.96875 32.765625 
L 5.71875 33.84375 
L 12.640625 70.609375 
L 48.25 70.609375 
L 48.25 62.203125 
L 19.671875 62.203125 
L 15.828125 42.96875 
Q 22.265625 47.46875 29.34375 47.46875 
Q 38.71875 47.46875 45.15625 40.96875 
Q 51.609375 34.46875 51.609375 24.265625 
Q 51.609375 14.546875 45.953125 7.46875 
Q 39.0625 -1.21875 27.15625 -1.21875 
Q 17.390625 -1.21875 11.203125 4.25 
Q 5.03125 9.71875 4.15625 18.75 
z
" id="ArialMT-53"/>
      <path id="ArialMT-32"/>
      <path d="M 3.078125 15.484375 
L 11.765625 16.84375 
Q 12.5 11.625 15.84375 8.84375 
Q 19.1875 6.0625 25.203125 6.0625 
Q 31.25 6.0625 34.171875 8.515625 
Q 37.109375 10.984375 37.109375 14.3125 
Q 37.109375 17.28125 34.515625 19 
Q 32.71875 20.171875 25.53125 21.96875 
Q 15.875 24.421875 12.140625 26.203125 
Q 8.40625 27.984375 6.46875 31.125 
Q 4.546875 34.28125 4.546875 38.09375 
Q 4.546875 41.546875 6.125 44.5 
Q 7.71875 47.46875 10.453125 49.421875 
Q 12.5 50.921875 16.03125 51.96875 
Q 19.578125 53.03125 23.640625 53.03125 
Q 29.734375 53.03125 34.34375 51.265625 
Q 38.96875 49.515625 41.15625 46.5 
Q 43.359375 43.5 44.1875 38.484375 
L 35.59375 37.3125 
Q 35.015625 41.3125 32.203125 43.546875 
Q 29.390625 45.796875 24.265625 45.796875 
Q 18.21875 45.796875 15.625 43.796875 
Q 13.03125 41.796875 13.03125 39.109375 
Q 13.03125 37.40625 14.109375 36.03125 
Q 15.1875 34.625 17.484375 33.6875 
Q 18.796875 33.203125 25.25 31.453125 
Q 34.578125 28.953125 38.25 27.359375 
Q 41.9375 25.78125 44.03125 22.75 
Q 46.140625 19.734375 46.140625 15.234375 
Q 46.140625 10.84375 43.578125 6.953125 
Q 41.015625 3.078125 36.171875 0.953125 
Q 31.34375 -1.171875 25.25 -1.171875 
Q 15.140625 -1.171875 9.84375 3.03125 
Q 4.546875 7.234375 3.078125 15.484375 
z
" id="ArialMT-115"/>
      <path d="M 40.4375 6.390625 
Q 35.546875 2.25 31.03125 0.53125 
Q 26.515625 -1.171875 21.34375 -1.171875 
Q 12.796875 -1.171875 8.203125 3 
Q 3.609375 7.171875 3.609375 13.671875 
Q 3.609375 17.484375 5.34375 20.625 
Q 7.078125 23.78125 9.890625 25.6875 
Q 12.703125 27.59375 16.21875 28.5625 
Q 18.796875 29.25 24.03125 29.890625 
Q 34.671875 31.15625 39.703125 32.90625 
Q 39.75 34.71875 39.75 35.203125 
Q 39.75 40.578125 37.25 42.78125 
Q 33.890625 45.75 27.25 45.75 
Q 21.046875 45.75 18.09375 43.578125 
Q 15.140625 41.40625 13.71875 35.890625 
L 5.125 37.0625 
Q 6.296875 42.578125 8.984375 45.96875 
Q 11.671875 49.359375 16.75 51.1875 
Q 21.828125 53.03125 28.515625 53.03125 
Q 35.15625 53.03125 39.296875 51.46875 
Q 43.453125 49.90625 45.40625 47.53125 
Q 47.359375 45.171875 48.140625 41.546875 
Q 48.578125 39.3125 48.578125 33.453125 
L 48.578125 21.734375 
Q 48.578125 9.46875 49.140625 6.21875 
Q 49.703125 2.984375 51.375 0 
L 42.1875 0 
Q 40.828125 2.734375 40.4375 6.390625 
z
M 39.703125 26.03125 
Q 34.90625 24.078125 25.34375 22.703125 
Q 19.921875 21.921875 17.671875 20.9375 
Q 15.4375 19.96875 14.203125 18.09375 
Q 12.984375 16.21875 12.984375 13.921875 
Q 12.984375 10.40625 15.640625 8.0625 
Q 18.3125 5.71875 23.4375 5.71875 
Q 28.515625 5.71875 32.46875 7.9375 
Q 36.421875 10.15625 38.28125 14.015625 
Q 39.703125 17 39.703125 22.796875 
z
" id="ArialMT-97"/>
      <path d="M 6.59375 0 
L 6.59375 51.859375 
L 14.453125 51.859375 
L 14.453125 44.578125 
Q 16.890625 48.390625 20.9375 50.703125 
Q 25 53.03125 30.171875 53.03125 
Q 35.9375 53.03125 39.625 50.640625 
Q 43.3125 48.25 44.828125 43.953125 
Q 50.984375 53.03125 60.84375 53.03125 
Q 68.5625 53.03125 72.703125 48.75 
Q 76.859375 44.484375 76.859375 35.59375 
L 76.859375 0 
L 68.109375 0 
L 68.109375 32.671875 
Q 68.109375 37.9375 67.25 40.25 
Q 66.40625 42.578125 64.15625 43.984375 
Q 61.921875 45.40625 58.890625 45.40625 
Q 53.421875 45.40625 49.796875 41.765625 
Q 46.1875 38.140625 46.1875 30.125 
L 46.1875 0 
L 37.40625 0 
L 37.40625 33.6875 
Q 37.40625 39.546875 35.25 42.46875 
Q 33.109375 45.40625 28.21875 45.40625 
Q 24.515625 45.40625 21.359375 43.453125 
Q 18.21875 41.5 16.796875 37.734375 
Q 15.375 33.984375 15.375 26.90625 
L 15.375 0 
z
" id="ArialMT-109"/>
      <path d="M 6.59375 -19.875 
L 6.59375 51.859375 
L 14.59375 51.859375 
L 14.59375 45.125 
Q 17.4375 49.078125 21 51.046875 
Q 24.5625 53.03125 29.640625 53.03125 
Q 36.28125 53.03125 41.359375 49.609375 
Q 46.4375 46.1875 49.015625 39.953125 
Q 51.609375 33.734375 51.609375 26.3125 
Q 51.609375 18.359375 48.75 11.984375 
Q 45.90625 5.609375 40.453125 2.21875 
Q 35.015625 -1.171875 29 -1.171875 
Q 24.609375 -1.171875 21.109375 0.6875 
Q 17.625 2.546875 15.375 5.375 
L 15.375 -19.875 
z
M 14.546875 25.640625 
Q 14.546875 15.625 18.59375 10.84375 
Q 22.65625 6.0625 28.421875 6.0625 
Q 34.28125 6.0625 38.453125 11.015625 
Q 42.625 15.96875 42.625 26.375 
Q 42.625 36.28125 38.546875 41.203125 
Q 34.46875 46.140625 28.8125 46.140625 
Q 23.1875 46.140625 18.859375 40.890625 
Q 14.546875 35.640625 14.546875 25.640625 
z
" id="ArialMT-112"/>
      <path d="M 6.390625 0 
L 6.390625 71.578125 
L 15.1875 71.578125 
L 15.1875 0 
z
" id="ArialMT-108"/>
      <path d="M 7.421875 0 
L 7.421875 71.578125 
L 21.6875 71.578125 
L 38.625 20.90625 
Q 40.96875 13.8125 42.046875 10.296875 
Q 43.265625 14.203125 45.84375 21.78125 
L 62.984375 71.578125 
L 75.734375 71.578125 
L 75.734375 0 
L 66.609375 0 
L 66.609375 59.90625 
L 45.796875 0 
L 37.25 0 
L 16.546875 60.9375 
L 16.546875 0 
z
" id="ArialMT-77"/>
      <path d="M 58.796875 25.09375 
L 68.265625 22.703125 
Q 65.28125 11.03125 57.546875 4.90625 
Q 49.8125 -1.21875 38.625 -1.21875 
Q 27.046875 -1.21875 19.796875 3.484375 
Q 12.546875 8.203125 8.765625 17.140625 
Q 4.984375 26.078125 4.984375 36.328125 
Q 4.984375 47.515625 9.25 55.828125 
Q 13.53125 64.15625 21.40625 68.46875 
Q 29.296875 72.796875 38.765625 72.796875 
Q 49.515625 72.796875 56.828125 67.328125 
Q 64.15625 61.859375 67.046875 51.953125 
L 57.71875 49.75 
Q 55.21875 57.5625 50.484375 61.125 
Q 45.75 64.703125 38.578125 64.703125 
Q 30.328125 64.703125 24.78125 60.734375 
Q 19.234375 56.78125 16.984375 50.109375 
Q 14.75 43.453125 14.75 36.375 
Q 14.75 27.25 17.40625 20.4375 
Q 20.0625 13.625 25.671875 10.25 
Q 31.296875 6.890625 37.84375 6.890625 
Q 45.796875 6.890625 51.3125 11.46875 
Q 56.84375 16.0625 58.796875 25.09375 
z
" id="ArialMT-67"/>
      <path d="M 23.390625 -21.046875 
Q 16.109375 -11.859375 11.078125 0.4375 
Q 6.0625 12.75 6.0625 25.921875 
Q 6.0625 37.546875 9.8125 48.1875 
Q 14.203125 60.546875 23.390625 72.796875 
L 29.6875 72.796875 
Q 23.78125 62.640625 21.875 58.296875 
Q 18.890625 51.5625 17.1875 44.234375 
Q 15.09375 35.109375 15.09375 25.875 
Q 15.09375 2.390625 29.6875 -21.046875 
z
" id="ArialMT-40"/>
      <path d="M 40.234375 0 
L 40.234375 6.546875 
Q 35.296875 -1.171875 25.734375 -1.171875 
Q 19.53125 -1.171875 14.328125 2.25 
Q 9.125 5.671875 6.265625 11.796875 
Q 3.421875 17.921875 3.421875 25.875 
Q 3.421875 33.640625 6 39.96875 
Q 8.59375 46.296875 13.765625 49.65625 
Q 18.953125 53.03125 25.34375 53.03125 
Q 30.03125 53.03125 33.6875 51.046875 
Q 37.359375 49.078125 39.65625 45.90625 
L 39.65625 71.578125 
L 48.390625 71.578125 
L 48.390625 0 
z
M 12.453125 25.875 
Q 12.453125 15.921875 16.640625 10.984375 
Q 20.84375 6.0625 26.5625 6.0625 
Q 32.328125 6.0625 36.34375 10.765625 
Q 40.375 15.484375 40.375 25.140625 
Q 40.375 35.796875 36.265625 40.765625 
Q 32.171875 45.75 26.171875 45.75 
Q 20.3125 45.75 16.375 40.96875 
Q 12.453125 36.1875 12.453125 25.875 
z
" id="ArialMT-100"/>
      <path d="M 6.640625 61.46875 
L 6.640625 71.578125 
L 15.4375 71.578125 
L 15.4375 61.46875 
z
M 6.640625 0 
L 6.640625 51.859375 
L 15.4375 51.859375 
L 15.4375 0 
z
" id="ArialMT-105"/>
      <path d="M 6.59375 0 
L 6.59375 51.859375 
L 14.5 51.859375 
L 14.5 44.484375 
Q 20.21875 53.03125 31 53.03125 
Q 35.6875 53.03125 39.625 51.34375 
Q 43.5625 49.65625 45.515625 46.921875 
Q 47.46875 44.1875 48.25 40.4375 
Q 48.734375 37.984375 48.734375 31.890625 
L 48.734375 0 
L 39.9375 0 
L 39.9375 31.546875 
Q 39.9375 36.921875 38.90625 39.578125 
Q 37.890625 42.234375 35.28125 43.8125 
Q 32.671875 45.40625 29.15625 45.40625 
Q 23.53125 45.40625 19.453125 41.84375 
Q 15.375 38.28125 15.375 28.328125 
L 15.375 0 
z
" id="ArialMT-110"/>
      <path d="M 12.359375 -21.046875 
L 6.0625 -21.046875 
Q 20.65625 2.390625 20.65625 25.875 
Q 20.65625 35.0625 18.5625 44.09375 
Q 16.890625 51.421875 13.921875 58.15625 
Q 12.015625 62.546875 6.0625 72.796875 
L 12.359375 72.796875 
Q 21.53125 60.546875 25.921875 48.1875 
Q 29.6875 37.546875 29.6875 25.921875 
Q 29.6875 12.75 24.625 0.4375 
Q 19.578125 -11.859375 12.359375 -21.046875 
z
" id="ArialMT-41"/>
     </defs>
     <g style="fill:#262626;" transform="translate(80.535625 52.265)scale(0.1 -0.1)">
      <use xlink:href="#ArialMT-53"/>
      <use x="55.615234" xlink:href="#ArialMT-32"/>
      <use x="83.398438" xlink:href="#ArialMT-115"/>
      <use x="133.398438" xlink:href="#ArialMT-97"/>
      <use x="189.013672" xlink:href="#ArialMT-109"/>
      <use x="272.314453" xlink:href="#ArialMT-112"/>
      <use x="327.929688" xlink:href="#ArialMT-108"/>
      <use x="350.146484" xlink:href="#ArialMT-101"/>
      <use x="405.761719" xlink:href="#ArialMT-32"/>
      <use x="433.544922" xlink:href="#ArialMT-77"/>
      <use x="516.845703" xlink:href="#ArialMT-67"/>
      <use x="589.0625" xlink:href="#ArialMT-32"/>
      <use x="616.845703" xlink:href="#ArialMT-40"/>
      <use x="650.146484" xlink:href="#ArialMT-109"/>
      <use x="733.447266" xlink:href="#ArialMT-101"/>
      <use x="789.0625" xlink:href="#ArialMT-100"/>
      <use x="844.677734" xlink:href="#ArialMT-105"/>
      <use x="866.894531" xlink:href="#ArialMT-97"/>
      <use x="922.509766" xlink:href="#ArialMT-110"/>
      <use x="978.125" xlink:href="#ArialMT-41"/>
     </g>
    </g>
    <g id="patch_41">
     <path d="M 52.535625 66.649375 
L 72.535625 66.649375 
L 72.535625 59.649375 
L 52.535625 59.649375 
z
" style="fill:#5f046a;stroke:#ffffff;stroke-linejoin:miter;"/>
    </g>
    <g id="text_17">
     <!-- 5 sample MC (floor) -->
     <defs>
      <path d="M 8.6875 0 
L 8.6875 45.015625 
L 0.921875 45.015625 
L 0.921875 51.859375 
L 8.6875 51.859375 
L 8.6875 57.375 
Q 8.6875 62.59375 9.625 65.140625 
Q 10.890625 68.5625 14.078125 70.671875 
Q 17.28125 72.796875 23.046875 72.796875 
Q 26.765625 72.796875 31.25 71.921875 
L 29.9375 64.265625 
Q 27.203125 64.75 24.75 64.75 
Q 20.75 64.75 19.09375 63.03125 
Q 17.4375 61.328125 17.4375 56.640625 
L 17.4375 51.859375 
L 27.546875 51.859375 
L 27.546875 45.015625 
L 17.4375 45.015625 
L 17.4375 0 
z
" id="ArialMT-102"/>
     </defs>
     <g style="fill:#262626;" transform="translate(80.535625 66.649375)scale(0.1 -0.1)">
      <use xlink:href="#ArialMT-53"/>
      <use x="55.615234" xlink:href="#ArialMT-32"/>
      <use x="83.398438" xlink:href="#ArialMT-115"/>
      <use x="133.398438" xlink:href="#ArialMT-97"/>
      <use x="189.013672" xlink:href="#ArialMT-109"/>
      <use x="272.314453" xlink:href="#ArialMT-112"/>
      <use x="327.929688" xlink:href="#ArialMT-108"/>
      <use x="350.146484" xlink:href="#ArialMT-101"/>
      <use x="405.761719" xlink:href="#ArialMT-32"/>
      <use x="433.544922" xlink:href="#ArialMT-77"/>
      <use x="516.845703" xlink:href="#ArialMT-67"/>
      <use x="589.0625" xlink:href="#ArialMT-32"/>
      <use x="616.845703" xlink:href="#ArialMT-40"/>
      <use x="650.146484" xlink:href="#ArialMT-102"/>
      <use x="677.929688" xlink:href="#ArialMT-108"/>
      <use x="700.146484" xlink:href="#ArialMT-111"/>
      <use x="755.761719" xlink:href="#ArialMT-111"/>
      <use x="811.376953" xlink:href="#ArialMT-114"/>
      <use x="844.677734" xlink:href="#ArialMT-41"/>
     </g>
    </g>
   </g>
  </g>
 </g>
 <defs>
  <clipPath id="pd3a1ebddde">
   <rect height="137.996875" width="661.415625" x="43.535625" y="21.84"/>
  </clipPath>
 </defs>
 <defs>
  <pattern height="72" id="h731d88ce28" patternUnits="userSpaceOnUse" width="72" x="0" y="0">
   <rect fill="#bbbbbb" height="73" width="73" x="0" y="0"/>
   <path d="M -36 36 
L 36 -36 
M -32 40 
L 40 -32 
M -28 44 
L 44 -28 
M -24 48 
L 48 -24 
M -20 52 
L 52 -20 
M -16 56 
L 56 -16 
M -12 60 
L 60 -12 
M -8 64 
L 64 -8 
M -4 68 
L 68 -4 
M 0 72 
L 72 0 
M 4 76 
L 76 4 
M 8 80 
L 80 8 
M 12 84 
L 84 12 
M 16 88 
L 88 16 
M 20 92 
L 92 20 
M 24 96 
L 96 24 
M 28 100 
L 100 28 
M 32 104 
L 104 32 
M 36 108 
L 108 36 
" style="fill:#ffffff;stroke:#ffffff;stroke-linecap:butt;stroke-linejoin:miter;stroke-width:1.0;"/>
  </pattern>
 </defs>
</svg>
