<?xml version="1.0" encoding="UTF-8"?>
<svg width="439px" height="515px" viewBox="0 0 439 515" version="1.1" xmlns="http://www.w3.org/2000/svg" xmlns:xlink="http://www.w3.org/1999/xlink">
    <!-- Generator: Sketch 43.1 (39012) - http://www.bohemiancoding.com/sketch -->
    <title>nn</title>
    <desc>Created with Sketch.</desc>
    <defs></defs>
    <g id="Page-1" stroke="none" stroke-width="1" fill="none" fill-rule="evenodd">
        <circle id="Oval" stroke="#4A4A4A" stroke-width="3" cx="74.5" cy="74.5" r="72.5"></circle>
        <text id="z" font-family="OpenSans, Open Sans" font-size="48" font-weight="normal" fill="#3F484C">
            <tspan x="61" y="92">z</tspan>
        </text>
        <text id="y" font-family="OpenSans, Open Sans" font-size="48" font-weight="normal" fill="#3F484C">
            <tspan x="351" y="92">y</tspan>
        </text>
        <circle id="Oval" stroke="#4A4A4A" stroke-width="3" cx="364.5" cy="74.5" r="72.5"></circle>
        <circle id="Oval" stroke="#4A4A4A" stroke-width="3" cx="219.5" cy="219.5" r="72.5"></circle>
        <circle id="Oval" stroke="#4A4A4A" stroke-width="3" cx="219.5" cy="440.5" r="72.5"></circle>
        <text id="a" font-family="OpenSans, Open Sans" font-size="48" font-weight="normal" fill="#3F484C">
            <tspan x="206" y="235">a</tspan>
        </text>
        <text id="x" font-family="OpenSans, Open Sans" font-size="48" font-weight="normal" fill="#3F484C">
            <tspan x="206" y="453">x</tspan>
        </text>
        <path d="M362.5,146.5 L276.5,399.5" id="Line" stroke="#000000" stroke-width="2" stroke-linecap="square"></path>
        <path id="Line-decoration-1" d="M276.5,399.5 L282.816212,390.240115 L277.135438,388.309101 L276.5,399.5 Z" stroke="#000000" stroke-width="2" stroke-linecap="square"></path>
        <path d="M72.5,147.5 L157.5,401.5" id="Line" stroke="#000000" stroke-width="2" stroke-linecap="square"></path>
        <path id="Line-decoration-1" d="M157.5,401.5 L156.917574,390.306217 L151.227718,392.210302 L157.5,401.5 Z" stroke="#000000" stroke-width="2" stroke-linecap="square"></path>
        <path d="M128.5,125.5 L164.5,172.5" id="Line" stroke="#EA3323" stroke-width="2" stroke-linecap="square"></path>
        <path id="Line-decoration-1" d="M164.5,172.5 L160.314404,162.101885 L155.551135,165.750347 L164.5,172.5 Z" stroke="#EA3323" stroke-width="2" stroke-linecap="square"></path>
        <path d="M308.5,125.5 L274.5,172.5" id="Line" stroke="#EA3323" stroke-width="2" stroke-linecap="square"></path>
        <path id="Line-decoration-1" d="M274.5,172.5 L283.260767,165.507936 L278.39942,161.991217 L274.5,172.5 Z" stroke="#EA3323" stroke-width="2" stroke-linecap="square"></path>
        <path d="M216,368.5 L216,294.5" id="Line" stroke="#EA3323" stroke-width="2" stroke-linecap="square"></path>
        <path id="Line-decoration-1" d="M216,294.5 L213,305.3 L219,305.3 L216,294.5 Z" stroke="#EA3323" stroke-width="2" stroke-linecap="square"></path>
    </g>
</svg>