<?xml version="1.0" encoding="utf-8" standalone="no"?>
<!DOCTYPE svg PUBLIC "-//W3C//DTD SVG 1.1//EN"
  "http://www.w3.org/Graphics/SVG/1.1/DTD/svg11.dtd">
<!-- Created with matplotlib (https://matplotlib.org/) -->
<svg height="276.045313pt" version="1.1" viewBox="0 0 384.875781 276.045313" width="384.875781pt" xmlns="http://www.w3.org/2000/svg" xmlns:xlink="http://www.w3.org/1999/xlink">
 <defs>
  <style type="text/css">
*{stroke-linecap:butt;stroke-linejoin:round;}
  </style>
 </defs>
 <g id="figure_1">
  <g id="patch_1">
   <path d="M 0 276.045313 
L 384.875781 276.045313 
L 384.875781 0 
L 0 0 
z
" style="fill:none;"/>
  </g>
  <g id="axes_1">
   <g id="patch_2">
    <path d="M 33.145313 239.315625 
L 367.945312 239.315625 
L 367.945312 21.875625 
L 33.145313 21.875625 
z
" style="fill:none;"/>
   </g>
   <g id="matplotlib.axis_1">
    <g id="xtick_1">
     <g id="line2d_1">
      <path clip-path="url(#pfd69f7d347)" d="M 33.145313 239.315625 
L 33.145313 21.875625 
" style="fill:none;stroke:#cccccc;stroke-linecap:round;stroke-width:0.8;"/>
     </g>
     <g id="text_1">
      <!-- 0.00 -->
      <defs>
       <path d="M 4.15625 35.296875 
Q 4.15625 48 6.765625 55.734375 
Q 9.375 63.484375 14.515625 67.671875 
Q 19.671875 71.875 27.484375 71.875 
Q 33.25 71.875 37.59375 69.546875 
Q 41.9375 67.234375 44.765625 62.859375 
Q 47.609375 58.5 49.21875 52.21875 
Q 50.828125 45.953125 50.828125 35.296875 
Q 50.828125 22.703125 48.234375 14.96875 
Q 45.65625 7.234375 40.5 3 
Q 35.359375 -1.21875 27.484375 -1.21875 
Q 17.140625 -1.21875 11.234375 6.203125 
Q 4.15625 15.140625 4.15625 35.296875 
z
M 13.1875 35.296875 
Q 13.1875 17.671875 17.3125 11.828125 
Q 21.4375 6 27.484375 6 
Q 33.546875 6 37.671875 11.859375 
Q 41.796875 17.71875 41.796875 35.296875 
Q 41.796875 52.984375 37.671875 58.78125 
Q 33.546875 64.59375 27.390625 64.59375 
Q 21.34375 64.59375 17.71875 59.46875 
Q 13.1875 52.9375 13.1875 35.296875 
z
" id="ArialMT-48"/>
       <path d="M 9.078125 0 
L 9.078125 10.015625 
L 19.09375 10.015625 
L 19.09375 0 
z
" id="ArialMT-46"/>
      </defs>
      <g style="fill:#262626;" transform="translate(23.414844 253.473438)scale(0.1 -0.1)">
       <use xlink:href="#ArialMT-48"/>
       <use x="55.615234" xlink:href="#ArialMT-46"/>
       <use x="83.398438" xlink:href="#ArialMT-48"/>
       <use x="139.013672" xlink:href="#ArialMT-48"/>
      </g>
     </g>
    </g>
    <g id="xtick_2">
     <g id="line2d_2">
      <path clip-path="url(#pfd69f7d347)" d="M 116.845313 239.315625 
L 116.845313 21.875625 
" style="fill:none;stroke:#cccccc;stroke-linecap:round;stroke-width:0.8;"/>
     </g>
     <g id="text_2">
      <!-- 0.25 -->
      <defs>
       <path d="M 50.34375 8.453125 
L 50.34375 0 
L 3.03125 0 
Q 2.9375 3.171875 4.046875 6.109375 
Q 5.859375 10.9375 9.828125 15.625 
Q 13.8125 20.3125 21.34375 26.46875 
Q 33.015625 36.03125 37.109375 41.625 
Q 41.21875 47.21875 41.21875 52.203125 
Q 41.21875 57.421875 37.46875 61 
Q 33.734375 64.59375 27.734375 64.59375 
Q 21.390625 64.59375 17.578125 60.78125 
Q 13.765625 56.984375 13.71875 50.25 
L 4.6875 51.171875 
Q 5.609375 61.28125 11.65625 66.578125 
Q 17.71875 71.875 27.9375 71.875 
Q 38.234375 71.875 44.234375 66.15625 
Q 50.25 60.453125 50.25 52 
Q 50.25 47.703125 48.484375 43.546875 
Q 46.734375 39.40625 42.65625 34.8125 
Q 38.578125 30.21875 29.109375 22.21875 
Q 21.1875 15.578125 18.9375 13.203125 
Q 16.703125 10.84375 15.234375 8.453125 
z
" id="ArialMT-50"/>
       <path d="M 4.15625 18.75 
L 13.375 19.53125 
Q 14.40625 12.796875 18.140625 9.390625 
Q 21.875 6 27.15625 6 
Q 33.5 6 37.890625 10.78125 
Q 42.28125 15.578125 42.28125 23.484375 
Q 42.28125 31 38.0625 35.34375 
Q 33.84375 39.703125 27 39.703125 
Q 22.75 39.703125 19.328125 37.765625 
Q 15.921875 35.84375 13.96875 32.765625 
L 5.71875 33.84375 
L 12.640625 70.609375 
L 48.25 70.609375 
L 48.25 62.203125 
L 19.671875 62.203125 
L 15.828125 42.96875 
Q 22.265625 47.46875 29.34375 47.46875 
Q 38.71875 47.46875 45.15625 40.96875 
Q 51.609375 34.46875 51.609375 24.265625 
Q 51.609375 14.546875 45.953125 7.46875 
Q 39.0625 -1.21875 27.15625 -1.21875 
Q 17.390625 -1.21875 11.203125 4.25 
Q 5.03125 9.71875 4.15625 18.75 
z
" id="ArialMT-53"/>
      </defs>
      <g style="fill:#262626;" transform="translate(107.114844 253.473438)scale(0.1 -0.1)">
       <use xlink:href="#ArialMT-48"/>
       <use x="55.615234" xlink:href="#ArialMT-46"/>
       <use x="83.398438" xlink:href="#ArialMT-50"/>
       <use x="139.013672" xlink:href="#ArialMT-53"/>
      </g>
     </g>
    </g>
    <g id="xtick_3">
     <g id="line2d_3">
      <path clip-path="url(#pfd69f7d347)" d="M 200.545313 239.315625 
L 200.545313 21.875625 
" style="fill:none;stroke:#cccccc;stroke-linecap:round;stroke-width:0.8;"/>
     </g>
     <g id="text_3">
      <!-- 0.50 -->
      <g style="fill:#262626;" transform="translate(190.814844 253.473438)scale(0.1 -0.1)">
       <use xlink:href="#ArialMT-48"/>
       <use x="55.615234" xlink:href="#ArialMT-46"/>
       <use x="83.398438" xlink:href="#ArialMT-53"/>
       <use x="139.013672" xlink:href="#ArialMT-48"/>
      </g>
     </g>
    </g>
    <g id="xtick_4">
     <g id="line2d_4">
      <path clip-path="url(#pfd69f7d347)" d="M 284.245313 239.315625 
L 284.245313 21.875625 
" style="fill:none;stroke:#cccccc;stroke-linecap:round;stroke-width:0.8;"/>
     </g>
     <g id="text_4">
      <!-- 0.75 -->
      <defs>
       <path d="M 4.734375 62.203125 
L 4.734375 70.65625 
L 51.078125 70.65625 
L 51.078125 63.8125 
Q 44.234375 56.546875 37.515625 44.484375 
Q 30.8125 32.421875 27.15625 19.671875 
Q 24.515625 10.6875 23.78125 0 
L 14.75 0 
Q 14.890625 8.453125 18.0625 20.40625 
Q 21.234375 32.375 27.171875 43.484375 
Q 33.109375 54.59375 39.796875 62.203125 
z
" id="ArialMT-55"/>
      </defs>
      <g style="fill:#262626;" transform="translate(274.514844 253.473438)scale(0.1 -0.1)">
       <use xlink:href="#ArialMT-48"/>
       <use x="55.615234" xlink:href="#ArialMT-46"/>
       <use x="83.398438" xlink:href="#ArialMT-55"/>
       <use x="139.013672" xlink:href="#ArialMT-53"/>
      </g>
     </g>
    </g>
    <g id="xtick_5">
     <g id="line2d_5">
      <path clip-path="url(#pfd69f7d347)" d="M 367.945312 239.315625 
L 367.945312 21.875625 
" style="fill:none;stroke:#cccccc;stroke-linecap:round;stroke-width:0.8;"/>
     </g>
     <g id="text_5">
      <!-- 1.00 -->
      <defs>
       <path d="M 37.25 0 
L 28.46875 0 
L 28.46875 56 
Q 25.296875 52.984375 20.140625 49.953125 
Q 14.984375 46.921875 10.890625 45.40625 
L 10.890625 53.90625 
Q 18.265625 57.375 23.78125 62.296875 
Q 29.296875 67.234375 31.59375 71.875 
L 37.25 71.875 
z
" id="ArialMT-49"/>
      </defs>
      <g style="fill:#262626;" transform="translate(358.214844 253.473438)scale(0.1 -0.1)">
       <use xlink:href="#ArialMT-49"/>
       <use x="55.615234" xlink:href="#ArialMT-46"/>
       <use x="83.398438" xlink:href="#ArialMT-48"/>
       <use x="139.013672" xlink:href="#ArialMT-48"/>
      </g>
     </g>
    </g>
    <g id="text_6">
     <!-- Distortion (bits) -->
     <defs>
      <path d="M 7.71875 0 
L 7.71875 71.578125 
L 32.375 71.578125 
Q 40.71875 71.578125 45.125 70.5625 
Q 51.265625 69.140625 55.609375 65.4375 
Q 61.28125 60.640625 64.078125 53.1875 
Q 66.890625 45.75 66.890625 36.1875 
Q 66.890625 28.03125 64.984375 21.734375 
Q 63.09375 15.4375 60.109375 11.296875 
Q 57.125 7.171875 53.578125 4.796875 
Q 50.046875 2.4375 45.046875 1.21875 
Q 40.046875 0 33.546875 0 
z
M 17.1875 8.453125 
L 32.46875 8.453125 
Q 39.546875 8.453125 43.578125 9.765625 
Q 47.609375 11.078125 50 13.484375 
Q 53.375 16.84375 55.25 22.53125 
Q 57.125 28.21875 57.125 36.328125 
Q 57.125 47.5625 53.4375 53.59375 
Q 49.75 59.625 44.484375 61.671875 
Q 40.671875 63.140625 32.234375 63.140625 
L 17.1875 63.140625 
z
" id="ArialMT-68"/>
      <path d="M 6.640625 61.46875 
L 6.640625 71.578125 
L 15.4375 71.578125 
L 15.4375 61.46875 
z
M 6.640625 0 
L 6.640625 51.859375 
L 15.4375 51.859375 
L 15.4375 0 
z
" id="ArialMT-105"/>
      <path d="M 3.078125 15.484375 
L 11.765625 16.84375 
Q 12.5 11.625 15.84375 8.84375 
Q 19.1875 6.0625 25.203125 6.0625 
Q 31.25 6.0625 34.171875 8.515625 
Q 37.109375 10.984375 37.109375 14.3125 
Q 37.109375 17.28125 34.515625 19 
Q 32.71875 20.171875 25.53125 21.96875 
Q 15.875 24.421875 12.140625 26.203125 
Q 8.40625 27.984375 6.46875 31.125 
Q 4.546875 34.28125 4.546875 38.09375 
Q 4.546875 41.546875 6.125 44.5 
Q 7.71875 47.46875 10.453125 49.421875 
Q 12.5 50.921875 16.03125 51.96875 
Q 19.578125 53.03125 23.640625 53.03125 
Q 29.734375 53.03125 34.34375 51.265625 
Q 38.96875 49.515625 41.15625 46.5 
Q 43.359375 43.5 44.1875 38.484375 
L 35.59375 37.3125 
Q 35.015625 41.3125 32.203125 43.546875 
Q 29.390625 45.796875 24.265625 45.796875 
Q 18.21875 45.796875 15.625 43.796875 
Q 13.03125 41.796875 13.03125 39.109375 
Q 13.03125 37.40625 14.109375 36.03125 
Q 15.1875 34.625 17.484375 33.6875 
Q 18.796875 33.203125 25.25 31.453125 
Q 34.578125 28.953125 38.25 27.359375 
Q 41.9375 25.78125 44.03125 22.75 
Q 46.140625 19.734375 46.140625 15.234375 
Q 46.140625 10.84375 43.578125 6.953125 
Q 41.015625 3.078125 36.171875 0.953125 
Q 31.34375 -1.171875 25.25 -1.171875 
Q 15.140625 -1.171875 9.84375 3.03125 
Q 4.546875 7.234375 3.078125 15.484375 
z
" id="ArialMT-115"/>
      <path d="M 25.78125 7.859375 
L 27.046875 0.09375 
Q 23.34375 -0.6875 20.40625 -0.6875 
Q 15.625 -0.6875 12.984375 0.828125 
Q 10.359375 2.34375 9.28125 4.8125 
Q 8.203125 7.28125 8.203125 15.1875 
L 8.203125 45.015625 
L 1.765625 45.015625 
L 1.765625 51.859375 
L 8.203125 51.859375 
L 8.203125 64.703125 
L 16.9375 69.96875 
L 16.9375 51.859375 
L 25.78125 51.859375 
L 25.78125 45.015625 
L 16.9375 45.015625 
L 16.9375 14.703125 
Q 16.9375 10.9375 17.40625 9.859375 
Q 17.875 8.796875 18.921875 8.15625 
Q 19.96875 7.515625 21.921875 7.515625 
Q 23.390625 7.515625 25.78125 7.859375 
z
" id="ArialMT-116"/>
      <path d="M 3.328125 25.921875 
Q 3.328125 40.328125 11.328125 47.265625 
Q 18.015625 53.03125 27.640625 53.03125 
Q 38.328125 53.03125 45.109375 46.015625 
Q 51.90625 39.015625 51.90625 26.65625 
Q 51.90625 16.65625 48.90625 10.90625 
Q 45.90625 5.171875 40.15625 2 
Q 34.421875 -1.171875 27.640625 -1.171875 
Q 16.75 -1.171875 10.03125 5.8125 
Q 3.328125 12.796875 3.328125 25.921875 
z
M 12.359375 25.921875 
Q 12.359375 15.96875 16.703125 11.015625 
Q 21.046875 6.0625 27.640625 6.0625 
Q 34.1875 6.0625 38.53125 11.03125 
Q 42.875 16.015625 42.875 26.21875 
Q 42.875 35.84375 38.5 40.796875 
Q 34.125 45.75 27.640625 45.75 
Q 21.046875 45.75 16.703125 40.8125 
Q 12.359375 35.890625 12.359375 25.921875 
z
" id="ArialMT-111"/>
      <path d="M 6.5 0 
L 6.5 51.859375 
L 14.40625 51.859375 
L 14.40625 44 
Q 17.4375 49.515625 20 51.265625 
Q 22.5625 53.03125 25.640625 53.03125 
Q 30.078125 53.03125 34.671875 50.203125 
L 31.640625 42.046875 
Q 28.421875 43.953125 25.203125 43.953125 
Q 22.3125 43.953125 20.015625 42.21875 
Q 17.71875 40.484375 16.75 37.40625 
Q 15.28125 32.71875 15.28125 27.15625 
L 15.28125 0 
z
" id="ArialMT-114"/>
      <path d="M 6.59375 0 
L 6.59375 51.859375 
L 14.5 51.859375 
L 14.5 44.484375 
Q 20.21875 53.03125 31 53.03125 
Q 35.6875 53.03125 39.625 51.34375 
Q 43.5625 49.65625 45.515625 46.921875 
Q 47.46875 44.1875 48.25 40.4375 
Q 48.734375 37.984375 48.734375 31.890625 
L 48.734375 0 
L 39.9375 0 
L 39.9375 31.546875 
Q 39.9375 36.921875 38.90625 39.578125 
Q 37.890625 42.234375 35.28125 43.8125 
Q 32.671875 45.40625 29.15625 45.40625 
Q 23.53125 45.40625 19.453125 41.84375 
Q 15.375 38.28125 15.375 28.328125 
L 15.375 0 
z
" id="ArialMT-110"/>
      <path id="ArialMT-32"/>
      <path d="M 23.390625 -21.046875 
Q 16.109375 -11.859375 11.078125 0.4375 
Q 6.0625 12.75 6.0625 25.921875 
Q 6.0625 37.546875 9.8125 48.1875 
Q 14.203125 60.546875 23.390625 72.796875 
L 29.6875 72.796875 
Q 23.78125 62.640625 21.875 58.296875 
Q 18.890625 51.5625 17.1875 44.234375 
Q 15.09375 35.109375 15.09375 25.875 
Q 15.09375 2.390625 29.6875 -21.046875 
z
" id="ArialMT-40"/>
      <path d="M 14.703125 0 
L 6.546875 0 
L 6.546875 71.578125 
L 15.328125 71.578125 
L 15.328125 46.046875 
Q 20.90625 53.03125 29.546875 53.03125 
Q 34.328125 53.03125 38.59375 51.09375 
Q 42.875 49.171875 45.625 45.671875 
Q 48.390625 42.1875 49.953125 37.25 
Q 51.515625 32.328125 51.515625 26.703125 
Q 51.515625 13.375 44.921875 6.09375 
Q 38.328125 -1.171875 29.109375 -1.171875 
Q 19.921875 -1.171875 14.703125 6.5 
z
M 14.59375 26.3125 
Q 14.59375 17 17.140625 12.84375 
Q 21.296875 6.0625 28.375 6.0625 
Q 34.125 6.0625 38.328125 11.0625 
Q 42.53125 16.0625 42.53125 25.984375 
Q 42.53125 36.140625 38.5 40.96875 
Q 34.46875 45.796875 28.765625 45.796875 
Q 23 45.796875 18.796875 40.796875 
Q 14.59375 35.796875 14.59375 26.3125 
z
" id="ArialMT-98"/>
      <path d="M 12.359375 -21.046875 
L 6.0625 -21.046875 
Q 20.65625 2.390625 20.65625 25.875 
Q 20.65625 35.0625 18.5625 44.09375 
Q 16.890625 51.421875 13.921875 58.15625 
Q 12.015625 62.546875 6.0625 72.796875 
L 12.359375 72.796875 
Q 21.53125 60.546875 25.921875 48.1875 
Q 29.6875 37.546875 29.6875 25.921875 
Q 29.6875 12.75 24.625 0.4375 
Q 19.578125 -11.859375 12.359375 -21.046875 
z
" id="ArialMT-41"/>
     </defs>
     <g style="fill:#262626;" transform="translate(166.928906 266.740625)scale(0.1 -0.1)">
      <use xlink:href="#ArialMT-68"/>
      <use x="72.216797" xlink:href="#ArialMT-105"/>
      <use x="94.433594" xlink:href="#ArialMT-115"/>
      <use x="144.433594" xlink:href="#ArialMT-116"/>
      <use x="172.216797" xlink:href="#ArialMT-111"/>
      <use x="227.832031" xlink:href="#ArialMT-114"/>
      <use x="261.132812" xlink:href="#ArialMT-116"/>
      <use x="288.916016" xlink:href="#ArialMT-105"/>
      <use x="311.132812" xlink:href="#ArialMT-111"/>
      <use x="366.748047" xlink:href="#ArialMT-110"/>
      <use x="422.363281" xlink:href="#ArialMT-32"/>
      <use x="450.146484" xlink:href="#ArialMT-40"/>
      <use x="483.447266" xlink:href="#ArialMT-98"/>
      <use x="539.0625" xlink:href="#ArialMT-105"/>
      <use x="561.279297" xlink:href="#ArialMT-116"/>
      <use x="589.0625" xlink:href="#ArialMT-115"/>
      <use x="639.0625" xlink:href="#ArialMT-41"/>
     </g>
    </g>
   </g>
   <g id="matplotlib.axis_2">
    <g id="ytick_1">
     <g id="line2d_6">
      <path clip-path="url(#pfd69f7d347)" d="M 33.145313 239.315625 
L 367.945312 239.315625 
" style="fill:none;stroke:#cccccc;stroke-linecap:round;stroke-width:0.8;"/>
     </g>
     <g id="text_7">
      <!-- 0 -->
      <g style="fill:#262626;" transform="translate(20.584375 242.894531)scale(0.1 -0.1)">
       <use xlink:href="#ArialMT-48"/>
      </g>
     </g>
    </g>
    <g id="ytick_2">
     <g id="line2d_7">
      <path clip-path="url(#pfd69f7d347)" d="M 33.145313 209.731952 
L 367.945312 209.731952 
" style="fill:none;stroke:#cccccc;stroke-linecap:round;stroke-width:0.8;"/>
     </g>
     <g id="text_8">
      <!-- 1 -->
      <g style="fill:#262626;" transform="translate(20.584375 213.310858)scale(0.1 -0.1)">
       <use xlink:href="#ArialMT-49"/>
      </g>
     </g>
    </g>
    <g id="ytick_3">
     <g id="line2d_8">
      <path clip-path="url(#pfd69f7d347)" d="M 33.145313 180.148278 
L 367.945312 180.148278 
" style="fill:none;stroke:#cccccc;stroke-linecap:round;stroke-width:0.8;"/>
     </g>
     <g id="text_9">
      <!-- 2 -->
      <g style="fill:#262626;" transform="translate(20.584375 183.727184)scale(0.1 -0.1)">
       <use xlink:href="#ArialMT-50"/>
      </g>
     </g>
    </g>
    <g id="ytick_4">
     <g id="line2d_9">
      <path clip-path="url(#pfd69f7d347)" d="M 33.145313 150.564605 
L 367.945312 150.564605 
" style="fill:none;stroke:#cccccc;stroke-linecap:round;stroke-width:0.8;"/>
     </g>
     <g id="text_10">
      <!-- 3 -->
      <defs>
       <path d="M 4.203125 18.890625 
L 12.984375 20.0625 
Q 14.5 12.59375 18.140625 9.296875 
Q 21.78125 6 27 6 
Q 33.203125 6 37.46875 10.296875 
Q 41.75 14.59375 41.75 20.953125 
Q 41.75 27 37.796875 30.921875 
Q 33.84375 34.859375 27.734375 34.859375 
Q 25.25 34.859375 21.53125 33.890625 
L 22.515625 41.609375 
Q 23.390625 41.5 23.921875 41.5 
Q 29.546875 41.5 34.03125 44.421875 
Q 38.53125 47.359375 38.53125 53.46875 
Q 38.53125 58.296875 35.25 61.46875 
Q 31.984375 64.65625 26.8125 64.65625 
Q 21.6875 64.65625 18.265625 61.421875 
Q 14.84375 58.203125 13.875 51.765625 
L 5.078125 53.328125 
Q 6.6875 62.15625 12.390625 67.015625 
Q 18.109375 71.875 26.609375 71.875 
Q 32.46875 71.875 37.390625 69.359375 
Q 42.328125 66.84375 44.9375 62.5 
Q 47.5625 58.15625 47.5625 53.265625 
Q 47.5625 48.640625 45.0625 44.828125 
Q 42.578125 41.015625 37.703125 38.765625 
Q 44.046875 37.3125 47.5625 32.6875 
Q 51.078125 28.078125 51.078125 21.140625 
Q 51.078125 11.765625 44.234375 5.25 
Q 37.40625 -1.265625 26.953125 -1.265625 
Q 17.53125 -1.265625 11.296875 4.34375 
Q 5.078125 9.96875 4.203125 18.890625 
z
" id="ArialMT-51"/>
      </defs>
      <g style="fill:#262626;" transform="translate(20.584375 154.143511)scale(0.1 -0.1)">
       <use xlink:href="#ArialMT-51"/>
      </g>
     </g>
    </g>
    <g id="ytick_5">
     <g id="line2d_10">
      <path clip-path="url(#pfd69f7d347)" d="M 33.145313 120.980931 
L 367.945312 120.980931 
" style="fill:none;stroke:#cccccc;stroke-linecap:round;stroke-width:0.8;"/>
     </g>
     <g id="text_11">
      <!-- 4 -->
      <defs>
       <path d="M 32.328125 0 
L 32.328125 17.140625 
L 1.265625 17.140625 
L 1.265625 25.203125 
L 33.9375 71.578125 
L 41.109375 71.578125 
L 41.109375 25.203125 
L 50.78125 25.203125 
L 50.78125 17.140625 
L 41.109375 17.140625 
L 41.109375 0 
z
M 32.328125 25.203125 
L 32.328125 57.46875 
L 9.90625 25.203125 
z
" id="ArialMT-52"/>
      </defs>
      <g style="fill:#262626;" transform="translate(20.584375 124.559837)scale(0.1 -0.1)">
       <use xlink:href="#ArialMT-52"/>
      </g>
     </g>
    </g>
    <g id="ytick_6">
     <g id="line2d_11">
      <path clip-path="url(#pfd69f7d347)" d="M 33.145313 91.397258 
L 367.945312 91.397258 
" style="fill:none;stroke:#cccccc;stroke-linecap:round;stroke-width:0.8;"/>
     </g>
     <g id="text_12">
      <!-- 5 -->
      <g style="fill:#262626;" transform="translate(20.584375 94.976164)scale(0.1 -0.1)">
       <use xlink:href="#ArialMT-53"/>
      </g>
     </g>
    </g>
    <g id="ytick_7">
     <g id="line2d_12">
      <path clip-path="url(#pfd69f7d347)" d="M 33.145313 61.813584 
L 367.945312 61.813584 
" style="fill:none;stroke:#cccccc;stroke-linecap:round;stroke-width:0.8;"/>
     </g>
     <g id="text_13">
      <!-- 6 -->
      <defs>
       <path d="M 49.75 54.046875 
L 41.015625 53.375 
Q 39.84375 58.546875 37.703125 60.890625 
Q 34.125 64.65625 28.90625 64.65625 
Q 24.703125 64.65625 21.53125 62.3125 
Q 17.390625 59.28125 14.984375 53.46875 
Q 12.59375 47.65625 12.5 36.921875 
Q 15.671875 41.75 20.265625 44.09375 
Q 24.859375 46.4375 29.890625 46.4375 
Q 38.671875 46.4375 44.84375 39.96875 
Q 51.03125 33.5 51.03125 23.25 
Q 51.03125 16.5 48.125 10.71875 
Q 45.21875 4.9375 40.140625 1.859375 
Q 35.0625 -1.21875 28.609375 -1.21875 
Q 17.625 -1.21875 10.6875 6.859375 
Q 3.765625 14.9375 3.765625 33.5 
Q 3.765625 54.25 11.421875 63.671875 
Q 18.109375 71.875 29.4375 71.875 
Q 37.890625 71.875 43.28125 67.140625 
Q 48.6875 62.40625 49.75 54.046875 
z
M 13.875 23.1875 
Q 13.875 18.65625 15.796875 14.5 
Q 17.71875 10.359375 21.1875 8.171875 
Q 24.65625 6 28.46875 6 
Q 34.03125 6 38.03125 10.484375 
Q 42.046875 14.984375 42.046875 22.703125 
Q 42.046875 30.125 38.078125 34.390625 
Q 34.125 38.671875 28.125 38.671875 
Q 22.171875 38.671875 18.015625 34.390625 
Q 13.875 30.125 13.875 23.1875 
z
" id="ArialMT-54"/>
      </defs>
      <g style="fill:#262626;" transform="translate(20.584375 65.39249)scale(0.1 -0.1)">
       <use xlink:href="#ArialMT-54"/>
      </g>
     </g>
    </g>
    <g id="ytick_8">
     <g id="line2d_13">
      <path clip-path="url(#pfd69f7d347)" d="M 33.145313 32.229911 
L 367.945312 32.229911 
" style="fill:none;stroke:#cccccc;stroke-linecap:round;stroke-width:0.8;"/>
     </g>
     <g id="text_14">
      <!-- 7 -->
      <g style="fill:#262626;" transform="translate(20.584375 35.808817)scale(0.1 -0.1)">
       <use xlink:href="#ArialMT-55"/>
      </g>
     </g>
    </g>
    <g id="text_15">
     <!-- Rate (bits) -->
     <defs>
      <path d="M 7.859375 0 
L 7.859375 71.578125 
L 39.59375 71.578125 
Q 49.171875 71.578125 54.140625 69.640625 
Q 59.125 67.71875 62.109375 62.828125 
Q 65.09375 57.953125 65.09375 52.046875 
Q 65.09375 44.4375 60.15625 39.203125 
Q 55.21875 33.984375 44.921875 32.5625 
Q 48.6875 30.765625 50.640625 29 
Q 54.78125 25.203125 58.5 19.484375 
L 70.953125 0 
L 59.03125 0 
L 49.5625 14.890625 
Q 45.40625 21.34375 42.71875 24.75 
Q 40.046875 28.171875 37.921875 29.53125 
Q 35.796875 30.90625 33.59375 31.453125 
Q 31.984375 31.78125 28.328125 31.78125 
L 17.328125 31.78125 
L 17.328125 0 
z
M 17.328125 39.984375 
L 37.703125 39.984375 
Q 44.1875 39.984375 47.84375 41.328125 
Q 51.515625 42.671875 53.421875 45.625 
Q 55.328125 48.578125 55.328125 52.046875 
Q 55.328125 57.125 51.640625 60.390625 
Q 47.953125 63.671875 39.984375 63.671875 
L 17.328125 63.671875 
z
" id="ArialMT-82"/>
      <path d="M 40.4375 6.390625 
Q 35.546875 2.25 31.03125 0.53125 
Q 26.515625 -1.171875 21.34375 -1.171875 
Q 12.796875 -1.171875 8.203125 3 
Q 3.609375 7.171875 3.609375 13.671875 
Q 3.609375 17.484375 5.34375 20.625 
Q 7.078125 23.78125 9.890625 25.6875 
Q 12.703125 27.59375 16.21875 28.5625 
Q 18.796875 29.25 24.03125 29.890625 
Q 34.671875 31.15625 39.703125 32.90625 
Q 39.75 34.71875 39.75 35.203125 
Q 39.75 40.578125 37.25 42.78125 
Q 33.890625 45.75 27.25 45.75 
Q 21.046875 45.75 18.09375 43.578125 
Q 15.140625 41.40625 13.71875 35.890625 
L 5.125 37.0625 
Q 6.296875 42.578125 8.984375 45.96875 
Q 11.671875 49.359375 16.75 51.1875 
Q 21.828125 53.03125 28.515625 53.03125 
Q 35.15625 53.03125 39.296875 51.46875 
Q 43.453125 49.90625 45.40625 47.53125 
Q 47.359375 45.171875 48.140625 41.546875 
Q 48.578125 39.3125 48.578125 33.453125 
L 48.578125 21.734375 
Q 48.578125 9.46875 49.140625 6.21875 
Q 49.703125 2.984375 51.375 0 
L 42.1875 0 
Q 40.828125 2.734375 40.4375 6.390625 
z
M 39.703125 26.03125 
Q 34.90625 24.078125 25.34375 22.703125 
Q 19.921875 21.921875 17.671875 20.9375 
Q 15.4375 19.96875 14.203125 18.09375 
Q 12.984375 16.21875 12.984375 13.921875 
Q 12.984375 10.40625 15.640625 8.0625 
Q 18.3125 5.71875 23.4375 5.71875 
Q 28.515625 5.71875 32.46875 7.9375 
Q 36.421875 10.15625 38.28125 14.015625 
Q 39.703125 17 39.703125 22.796875 
z
" id="ArialMT-97"/>
      <path d="M 42.09375 16.703125 
L 51.171875 15.578125 
Q 49.03125 7.625 43.21875 3.21875 
Q 37.40625 -1.171875 28.375 -1.171875 
Q 17 -1.171875 10.328125 5.828125 
Q 3.65625 12.84375 3.65625 25.484375 
Q 3.65625 38.578125 10.390625 45.796875 
Q 17.140625 53.03125 27.875 53.03125 
Q 38.28125 53.03125 44.875 45.953125 
Q 51.46875 38.875 51.46875 26.03125 
Q 51.46875 25.25 51.421875 23.6875 
L 12.75 23.6875 
Q 13.234375 15.140625 17.578125 10.59375 
Q 21.921875 6.0625 28.421875 6.0625 
Q 33.25 6.0625 36.671875 8.59375 
Q 40.09375 11.140625 42.09375 16.703125 
z
M 13.234375 30.90625 
L 42.1875 30.90625 
Q 41.609375 37.453125 38.875 40.71875 
Q 34.671875 45.796875 27.984375 45.796875 
Q 21.921875 45.796875 17.796875 41.75 
Q 13.671875 37.703125 13.234375 30.90625 
z
" id="ArialMT-101"/>
     </defs>
     <g style="fill:#262626;" transform="translate(14.479687 153.655781)rotate(-90)scale(0.1 -0.1)">
      <use xlink:href="#ArialMT-82"/>
      <use x="72.216797" xlink:href="#ArialMT-97"/>
      <use x="127.832031" xlink:href="#ArialMT-116"/>
      <use x="155.615234" xlink:href="#ArialMT-101"/>
      <use x="211.230469" xlink:href="#ArialMT-32"/>
      <use x="239.013672" xlink:href="#ArialMT-40"/>
      <use x="272.314453" xlink:href="#ArialMT-98"/>
      <use x="327.929688" xlink:href="#ArialMT-105"/>
      <use x="350.146484" xlink:href="#ArialMT-116"/>
      <use x="377.929688" xlink:href="#ArialMT-115"/>
      <use x="427.929688" xlink:href="#ArialMT-41"/>
     </g>
    </g>
   </g>
   <g id="line2d_14">
    <path clip-path="url(#pfd69f7d347)" d="M 33.472266 91.397258 
L 33.495978 92.891383 
L 33.521409 94.385507 
L 33.548685 95.879632 
L 33.57794 97.373757 
L 33.609316 98.867882 
L 33.642967 100.362007 
L 33.679059 101.856132 
L 33.717768 103.350257 
L 33.759285 104.844382 
L 33.803813 106.338507 
L 33.85157 107.832632 
L 33.902791 109.326757 
L 33.957727 110.820882 
L 34.016646 112.315007 
L 34.079839 113.809131 
L 34.147615 115.303256 
L 34.220306 116.797381 
L 34.298269 118.291506 
L 34.381886 119.785631 
L 34.471567 121.279756 
L 34.567753 122.773881 
L 34.670914 124.268006 
L 34.781557 125.762131 
L 34.900224 127.256256 
L 35.027497 128.750381 
L 35.164001 130.244506 
L 35.310405 131.738631 
L 35.467426 133.232755 
L 35.635835 134.72688 
L 35.816458 136.221005 
L 36.010181 137.71513 
L 36.217953 139.209255 
L 36.440793 140.70338 
L 36.679795 142.197505 
L 36.936131 143.69163 
L 37.211056 145.185755 
L 37.505921 146.67988 
L 37.82217 148.174005 
L 38.161355 149.66813 
L 38.525139 151.162255 
L 38.915307 152.656379 
L 39.33377 154.150504 
L 39.782583 155.644629 
L 40.263945 157.138754 
L 40.780218 158.632879 
L 41.333933 160.127004 
L 41.927805 161.621129 
L 42.564748 163.115254 
L 43.247884 164.609379 
L 43.980564 166.103504 
L 44.766381 167.597629 
L 45.609189 169.091754 
L 46.513121 170.585879 
L 47.48261 172.080003 
L 48.52241 173.574128 
L 49.63762 175.068253 
L 50.83371 176.562378 
L 52.116546 178.056503 
L 53.492418 179.550628 
L 54.968074 181.044753 
L 56.550751 182.538878 
L 58.24821 184.033003 
L 60.068775 185.527128 
L 62.021376 187.021253 
L 64.115587 188.515378 
L 66.36168 190.009503 
L 68.770668 191.503627 
L 71.354365 192.997752 
L 74.125443 194.491877 
L 77.097492 195.986002 
L 80.285085 197.480127 
L 83.703856 198.974252 
L 87.37057 200.468377 
L 91.303209 201.962502 
L 95.52106 203.456627 
L 100.044807 204.950752 
L 104.896634 206.444877 
L 110.100336 207.939002 
L 115.681432 209.433127 
L 121.667291 210.927251 
L 128.087271 212.421376 
L 134.972853 213.915501 
L 142.357807 215.409626 
L 150.278347 216.903751 
L 158.773318 218.397876 
L 167.88438 219.892001 
L 177.656213 221.386126 
L 188.136739 222.880251 
L 199.377357 224.374376 
L 211.433191 225.868501 
L 224.363363 227.362626 
L 238.231285 228.856751 
L 253.104966 230.350875 
L 269.057348 231.845 
L 286.166662 233.339125 
L 304.516815 234.83325 
L 324.197796 236.327375 
L 345.306123 237.8215 
L 367.945312 239.315625 
" style="fill:none;stroke:#821580;stroke-linecap:round;stroke-width:1.5;"/>
   </g>
   <g id="line2d_15">
    <path clip-path="url(#pfd69f7d347)" d="M 33.472266 61.813584 
L 33.495978 63.307709 
L 33.521409 64.801834 
L 33.548685 66.295959 
L 33.57794 67.790084 
L 33.609316 69.284209 
L 33.642967 70.778334 
L 33.679059 72.272459 
L 33.717768 73.766584 
L 33.759285 75.260708 
L 33.803813 76.754833 
L 33.85157 78.248958 
L 33.902791 79.743083 
L 33.957727 81.237208 
L 34.016646 82.731333 
L 34.079839 84.225458 
L 34.147615 85.719583 
L 34.220306 87.213708 
L 34.298269 88.707833 
L 34.381886 90.201958 
L 34.471567 91.696083 
L 34.567753 93.190208 
L 34.670914 94.684332 
L 34.781557 96.178457 
L 34.900224 97.672582 
L 35.027497 99.166707 
L 35.164001 100.660832 
L 35.310405 102.154957 
L 35.467426 103.649082 
L 35.635835 105.143207 
L 35.816458 106.637332 
L 36.010181 108.131457 
L 36.217953 109.625582 
L 36.440793 111.119707 
L 36.679795 112.613832 
L 36.936131 114.107956 
L 37.211056 115.602081 
L 37.505921 117.096206 
L 37.82217 118.590331 
L 38.161355 120.084456 
L 38.525139 121.578581 
L 38.915307 123.072706 
L 39.33377 124.566831 
L 39.782583 126.060956 
L 40.263945 127.555081 
L 40.780218 129.049206 
L 41.333933 130.543331 
L 41.927805 132.037456 
L 42.564748 133.53158 
L 43.247884 135.025705 
L 43.980564 136.51983 
L 44.766381 138.013955 
L 45.609189 139.50808 
L 46.513121 141.002205 
L 47.48261 142.49633 
L 48.52241 143.990455 
L 49.63762 145.48458 
L 50.83371 146.978705 
L 52.116546 148.47283 
L 53.492418 149.966955 
L 54.968074 151.46108 
L 56.550751 152.955204 
L 58.24821 154.449329 
L 60.068775 155.943454 
L 62.021376 157.437579 
L 64.115587 158.931704 
L 66.36168 160.425829 
L 68.770668 161.919954 
L 71.354365 163.414079 
L 74.125443 164.908204 
L 77.097492 166.402329 
L 80.285085 167.896454 
L 83.703856 169.390579 
L 87.37057 170.884704 
L 91.303209 172.378828 
L 95.52106 173.872953 
L 100.044807 175.367078 
L 104.896634 176.861203 
L 110.100336 178.355328 
L 115.681432 179.849453 
L 121.667291 181.343578 
L 128.087271 182.837703 
L 134.972853 184.331828 
L 142.357807 185.825953 
L 150.278347 187.320078 
L 158.773318 188.814203 
L 167.88438 190.308328 
L 177.656213 191.802452 
L 188.136739 193.296577 
L 199.377357 194.790702 
L 211.433191 196.284827 
L 224.363363 197.778952 
L 238.231285 199.273077 
L 253.104966 200.767202 
L 269.057348 202.261327 
L 286.166662 203.755452 
L 304.516815 205.249577 
L 324.197796 206.743702 
L 345.306123 208.237827 
L 367.945312 209.731952 
" style="fill:none;stroke:#894da3;stroke-linecap:round;stroke-width:1.5;"/>
   </g>
   <g id="line2d_16">
    <path clip-path="url(#pfd69f7d347)" d="M 33.472266 32.229911 
L 33.495978 33.724036 
L 33.521409 35.218161 
L 33.548685 36.712285 
L 33.57794 38.20641 
L 33.609316 39.700535 
L 33.642967 41.19466 
L 33.679059 42.688785 
L 33.717768 44.18291 
L 33.759285 45.677035 
L 33.803813 47.17116 
L 33.85157 48.665285 
L 33.902791 50.15941 
L 33.957727 51.653535 
L 34.016646 53.14766 
L 34.079839 54.641785 
L 34.147615 56.135909 
L 34.220306 57.630034 
L 34.298269 59.124159 
L 34.381886 60.618284 
L 34.471567 62.112409 
L 34.567753 63.606534 
L 34.670914 65.100659 
L 34.781557 66.594784 
L 34.900224 68.088909 
L 35.027497 69.583034 
L 35.164001 71.077159 
L 35.310405 72.571284 
L 35.467426 74.065409 
L 35.635835 75.559533 
L 35.816458 77.053658 
L 36.010181 78.547783 
L 36.217953 80.041908 
L 36.440793 81.536033 
L 36.679795 83.030158 
L 36.936131 84.524283 
L 37.211056 86.018408 
L 37.505921 87.512533 
L 37.82217 89.006658 
L 38.161355 90.500783 
L 38.525139 91.994908 
L 38.915307 93.489033 
L 39.33377 94.983157 
L 39.782583 96.477282 
L 40.263945 97.971407 
L 40.780218 99.465532 
L 41.333933 100.959657 
L 41.927805 102.453782 
L 42.564748 103.947907 
L 43.247884 105.442032 
L 43.980564 106.936157 
L 44.766381 108.430282 
L 45.609189 109.924407 
L 46.513121 111.418532 
L 47.48261 112.912657 
L 48.52241 114.406781 
L 49.63762 115.900906 
L 50.83371 117.395031 
L 52.116546 118.889156 
L 53.492418 120.383281 
L 54.968074 121.877406 
L 56.550751 123.371531 
L 58.24821 124.865656 
L 60.068775 126.359781 
L 62.021376 127.853906 
L 64.115587 129.348031 
L 66.36168 130.842156 
L 68.770668 132.336281 
L 71.354365 133.830405 
L 74.125443 135.32453 
L 77.097492 136.818655 
L 80.285085 138.31278 
L 83.703856 139.806905 
L 87.37057 141.30103 
L 91.303209 142.795155 
L 95.52106 144.28928 
L 100.044807 145.783405 
L 104.896634 147.27753 
L 110.100336 148.771655 
L 115.681432 150.26578 
L 121.667291 151.759905 
L 128.087271 153.254029 
L 134.972853 154.748154 
L 142.357807 156.242279 
L 150.278347 157.736404 
L 158.773318 159.230529 
L 167.88438 160.724654 
L 177.656213 162.218779 
L 188.136739 163.712904 
L 199.377357 165.207029 
L 211.433191 166.701154 
L 224.363363 168.195279 
L 238.231285 169.689404 
L 253.104966 171.183529 
L 269.057348 172.677653 
L 286.166662 174.171778 
L 304.516815 175.665903 
L 324.197796 177.160028 
L 345.306123 178.654153 
L 367.945312 180.148278 
" style="fill:none;stroke:#8c7dba;stroke-linecap:round;stroke-width:1.5;"/>
   </g>
   <g id="patch_3">
    <path d="M 33.145313 239.315625 
L 33.145313 21.875625 
" style="fill:none;stroke:#cccccc;stroke-linecap:square;stroke-linejoin:miter;stroke-width:0.8;"/>
   </g>
   <g id="patch_4">
    <path d="M 33.145313 239.315625 
L 367.945312 239.315625 
" style="fill:none;stroke:#cccccc;stroke-linecap:square;stroke-linejoin:miter;stroke-width:0.8;"/>
   </g>
   <g id="text_16">
    <!-- Rate-distortion curve for i.i.d Gaussian data with variance $\sigma^2$ -->
    <defs>
     <path d="M 79.703125 0 
L 79.703125 1 
Q 75 1.703125 71.5 4.09375 
Q 68 6.5 64.296875 11.703125 
Q 61.90625 15.09375 58.84375 19.5 
Q 55.796875 23.90625 53.203125 27.703125 
Q 51.703125 29.796875 50.09375 31.5 
Q 48.5 33.203125 46.796875 34.09375 
L 46.796875 34.40625 
Q 50.09375 35.5 53.09375 37.09375 
Q 56.09375 38.703125 58.34375 40.953125 
Q 60.59375 43.203125 61.9375 46.140625 
Q 63.296875 49.09375 63.296875 52.796875 
Q 63.296875 58.796875 60.59375 62.75 
Q 57.90625 66.703125 53.5 69 
Q 49.203125 71.296875 44 71.6875 
Q 38.796875 72.09375 32.09375 72.09375 
Q 29.40625 72.09375 25.09375 72.09375 
Q 20.796875 72.09375 16.5 72.046875 
Q 12.203125 72 8.796875 72 
Q 5.5 72 4.703125 72 
L 4.703125 71 
Q 7.40625 70.59375 9.25 70.046875 
Q 11.09375 69.5 12.59375 67.90625 
Q 13.203125 67.296875 13.546875 65.9375 
Q 13.90625 64.59375 14.046875 62.9375 
Q 14.203125 61.296875 14.25 59.4375 
Q 14.296875 57.59375 14.296875 55.796875 
L 14.296875 36.296875 
Q 14.296875 33.59375 14.296875 30.5 
Q 14.296875 27.5 14.25 24.640625 
Q 14.203125 21.796875 14.140625 19.390625 
Q 14.09375 17 14.09375 15.59375 
Q 14.09375 14 14 12.296875 
Q 13.90625 10.59375 13.75 9.09375 
Q 13.59375 7.59375 13.296875 6.390625 
Q 13 5.203125 12.5 4.59375 
Q 11.203125 3 8.890625 2.203125 
Q 6.59375 1.40625 4.09375 1 
L 4.09375 0 
L 36.09375 0 
L 36.09375 1 
Q 32 1.203125 29.703125 2.546875 
Q 27.40625 3.90625 26.59375 5.203125 
Q 25.59375 6.703125 25.5 9 
Q 25.40625 11.296875 25.296875 14.5 
Q 25.203125 17.796875 25.203125 22.59375 
Q 25.203125 27.40625 25.203125 33.90625 
Q 26.59375 33.796875 27.5 33.796875 
Q 28.5 33.796875 30.40625 33.40625 
Q 33 32.90625 35.34375 30.90625 
Q 37.703125 28.90625 39.703125 26.59375 
Q 42.09375 23.796875 43.84375 21.546875 
Q 45.59375 19.296875 47.09375 17.09375 
Q 48.59375 14.90625 50.046875 12.65625 
Q 51.5 10.40625 53.40625 7.59375 
Q 55 5.296875 55.75 4.140625 
Q 56.5 3 57 2.390625 
Q 57.5 1.796875 57.890625 1.34375 
Q 58.296875 0.90625 59.203125 0 
z
M 51.796875 53.40625 
Q 51.796875 50.703125 51.09375 48.203125 
Q 50.40625 45.703125 48.953125 43.546875 
Q 47.5 41.40625 45.203125 39.703125 
Q 42.90625 38 39.703125 37 
Q 36.40625 35.90625 32.84375 35.546875 
Q 29.296875 35.203125 25.203125 35.203125 
Q 25.203125 36 25.203125 39 
Q 25.203125 42.09375 25.203125 46.203125 
Q 25.203125 50.296875 25.25 54.6875 
Q 25.296875 59.09375 25.40625 62.59375 
Q 25.5 64.90625 25.546875 66.15625 
Q 25.59375 67.40625 25.640625 68.09375 
Q 25.703125 68.796875 25.796875 69.25 
Q 25.90625 69.703125 26 70.296875 
Q 26.703125 70.40625 28 70.5 
Q 29.296875 70.59375 31.40625 70.59375 
Q 34.296875 70.59375 36.9375 70.09375 
Q 39.59375 69.59375 42 68.5 
Q 46.796875 66.203125 49.296875 62.296875 
Q 51.796875 58.40625 51.796875 53.40625 
z
" id="BigCaslon-Medium-82"/>
     <path d="M 46.5 9.796875 
L 45.90625 9.796875 
Q 45.5 8.296875 44.390625 7.34375 
Q 43.296875 6.40625 41 6.40625 
Q 39 6.40625 37.453125 7.84375 
Q 35.90625 9.296875 35.90625 13.796875 
Q 35.90625 17.203125 35.953125 20.046875 
Q 36 22.90625 36 25.59375 
Q 36 28.296875 36.046875 31.1875 
Q 36.09375 34.09375 36.09375 37.703125 
Q 36.09375 39.40625 36 41.15625 
Q 35.90625 42.90625 35.5 43.59375 
Q 34.5 45.59375 32.203125 46.9375 
Q 29.90625 48.296875 27.296875 48.296875 
Q 26 48.296875 23.953125 47.6875 
Q 21.90625 47.09375 19.453125 46.09375 
Q 17 45.09375 14.296875 43.6875 
Q 11.59375 42.296875 9 40.796875 
Q 8.203125 40.296875 7.140625 39.6875 
Q 6.09375 39.09375 5.1875 38.296875 
Q 4.296875 37.5 3.6875 36.5 
Q 3.09375 35.5 3.09375 34.296875 
Q 3.09375 32.796875 4.25 31.640625 
Q 5.40625 30.5 7 30.5 
Q 8.703125 30.5 10.140625 31.59375 
Q 11.59375 32.703125 11.59375 34.09375 
L 11.59375 38.59375 
Q 11.59375 39.203125 12.296875 40.046875 
Q 13 40.90625 14.203125 41.75 
Q 15.40625 42.59375 16.953125 43.140625 
Q 18.5 43.703125 20.09375 43.703125 
Q 22.5 43.703125 24 43.046875 
Q 25.5 42.40625 26.34375 41.59375 
Q 27.203125 40.796875 27.546875 40.046875 
Q 27.90625 39.296875 27.90625 39.09375 
L 27.90625 28.796875 
Q 26.90625 28.203125 25.453125 27.453125 
Q 24 26.703125 22.09375 25.640625 
Q 20.203125 24.59375 17.640625 23.09375 
Q 15.09375 21.59375 11.796875 19.5 
Q 8.5 17.40625 6.25 14.796875 
Q 4 12.203125 4 9.40625 
Q 4 6.796875 4.84375 5 
Q 5.703125 3.203125 7.046875 2.046875 
Q 8.40625 0.90625 10.046875 0.453125 
Q 11.703125 0 13.296875 0 
Q 16 0 18.25 0.84375 
Q 20.5 1.703125 22.34375 3.09375 
Q 24.203125 4.5 25.546875 6.09375 
Q 26.90625 7.703125 27.703125 9 
L 27.90625 8.90625 
Q 27.90625 3.90625 30.546875 1.90625 
Q 33.203125 -0.09375 36.59375 -0.09375 
Q 38.703125 -0.09375 40.453125 0.65625 
Q 42.203125 1.40625 43.5 2.84375 
Q 44.796875 4.296875 45.59375 6.09375 
Q 46.40625 7.90625 46.5 9.796875 
z
M 27.90625 11.796875 
Q 27.90625 10.09375 26.703125 9 
Q 25 7.296875 23 6.6875 
Q 21 6.09375 18.40625 6.09375 
Q 15.5 6.09375 13.703125 8.1875 
Q 11.90625 10.296875 11.90625 12.90625 
Q 11.90625 15.5 13.75 17.546875 
Q 15.59375 19.59375 18.140625 21.296875 
Q 20.703125 23 23.390625 24.453125 
Q 26.09375 25.90625 27.90625 27.203125 
z
" id="BigCaslon-Medium-97"/>
     <path d="M 35.09375 47.296875 
L 16.59375 47.296875 
L 16.59375 56 
L 15.796875 56 
L 1.296875 42.296875 
L 1.296875 41.203125 
L 8.59375 41.203125 
Q 8.59375 34.59375 8.5 26.140625 
Q 8.40625 17.703125 8.40625 8.296875 
Q 8.40625 6.703125 9.34375 5.140625 
Q 10.296875 3.59375 11.796875 2.34375 
Q 13.296875 1.09375 15.25 0.4375 
Q 17.203125 -0.203125 19.296875 -0.203125 
Q 22.5 -0.203125 24.84375 0.546875 
Q 27.203125 1.296875 28.953125 2.640625 
Q 30.703125 4 31.75 5.640625 
Q 32.796875 7.296875 33.40625 8.796875 
L 32.796875 9.09375 
Q 31.40625 7.09375 29.5 6.140625 
Q 27.59375 5.203125 24.703125 5.203125 
Q 21.203125 5.203125 19 7.5 
Q 16.796875 9.796875 16.796875 14.90625 
L 16.796875 41.203125 
L 32 41.203125 
z
" id="BigCaslon-Medium-116"/>
     <path d="M 43.296875 15.203125 
L 42.5 15.40625 
Q 41.296875 11.703125 37.546875 9.140625 
Q 33.796875 6.59375 28.796875 6.59375 
Q 24.203125 6.59375 20.703125 8.296875 
Q 17.203125 10 14.890625 12.953125 
Q 12.59375 15.90625 11.390625 19.75 
Q 10.203125 23.59375 10.203125 27.796875 
Q 10.203125 28.90625 10.296875 29.953125 
Q 10.40625 31 10.40625 31.796875 
L 42.5 31.796875 
Q 42.203125 36 40.59375 39.09375 
Q 39 42.203125 36.453125 44.25 
Q 33.90625 46.296875 30.453125 47.296875 
Q 27 48.296875 23.09375 48.296875 
Q 18.296875 48.296875 14.34375 46.25 
Q 10.40625 44.203125 7.65625 40.890625 
Q 4.90625 37.59375 3.40625 33.4375 
Q 1.90625 29.296875 1.90625 25.09375 
Q 1.90625 19.90625 3.5 15.25 
Q 5.09375 10.59375 8.046875 7.140625 
Q 11 3.703125 15.203125 1.796875 
Q 19.40625 -0.09375 24.5 -0.09375 
Q 28.59375 -0.09375 31.9375 1.40625 
Q 35.296875 2.90625 37.6875 5.203125 
Q 40.09375 7.5 41.5 10.25 
Q 42.90625 13 43.296875 15.203125 
z
M 32.59375 37.59375 
Q 32.59375 36.203125 32.25 35.5 
Q 31.90625 34.796875 31.203125 34 
Q 30.203125 33.59375 28.890625 33.5 
Q 27.59375 33.40625 26.09375 33.40625 
Q 23.796875 33.40625 21.890625 33.34375 
Q 20 33.296875 18.25 33.25 
Q 16.5 33.203125 14.703125 33.203125 
Q 12.90625 33.203125 10.59375 33.203125 
Q 10.796875 34.40625 11.6875 36.65625 
Q 12.59375 38.90625 14.25 41.09375 
Q 15.90625 43.296875 18.15625 44.9375 
Q 20.40625 46.59375 23.203125 46.59375 
Q 27.5 46.59375 30.046875 43.9375 
Q 32.59375 41.296875 32.59375 37.59375 
z
" id="BigCaslon-Medium-101"/>
     <path d="M 24.296875 22.5 
L 24.296875 29.5 
L 1.203125 29.5 
L 1.203125 22.5 
z
" id="BigCaslon-Medium-45"/>
     <path d="M 53.296875 3.90625 
L 53.296875 4.59375 
Q 51.40625 5.40625 49.203125 6.296875 
Q 47 7.203125 46.203125 7.703125 
L 46.203125 72.59375 
L 45.40625 72.59375 
L 29.5 68.203125 
L 29.5 67.59375 
L 37.703125 64.5 
Q 37.703125 63.40625 37.703125 61 
Q 37.703125 58.703125 37.703125 56 
Q 37.703125 53.296875 37.75 50.6875 
Q 37.796875 48.09375 37.90625 46.59375 
Q 35.703125 47.296875 33.046875 47.796875 
Q 30.40625 48.296875 27.40625 48.296875 
Q 21.703125 48.296875 17 46.390625 
Q 12.296875 44.5 8.9375 41.140625 
Q 5.59375 37.796875 3.75 33.296875 
Q 1.90625 28.796875 1.90625 23.59375 
Q 1.90625 17.796875 3.5 13.34375 
Q 5.09375 8.90625 7.796875 5.84375 
Q 10.5 2.796875 13.953125 1.34375 
Q 17.40625 -0.09375 21.09375 -0.09375 
Q 27 -0.09375 30.953125 2.296875 
Q 34.90625 4.703125 37.796875 9.703125 
L 37.90625 9.703125 
L 37.90625 -0.296875 
L 38.5 -0.296875 
z
M 37.796875 13.5 
Q 37 9.203125 34.046875 6.390625 
Q 31.09375 3.59375 27 3.59375 
Q 23.09375 3.59375 20.140625 5.390625 
Q 17.203125 7.203125 15.203125 10.140625 
Q 13.203125 13.09375 12.203125 16.9375 
Q 11.203125 20.796875 11.203125 24.90625 
Q 11.203125 29 12.046875 32.890625 
Q 12.90625 36.796875 14.703125 39.796875 
Q 16.5 42.796875 19.25 44.59375 
Q 22 46.40625 25.90625 46.40625 
Q 28.796875 46.40625 32.1875 43.90625 
Q 35.59375 41.40625 37.796875 37.296875 
z
" id="BigCaslon-Medium-100"/>
     <path d="M 17.703125 64.09375 
Q 17.703125 66.40625 16.140625 67.90625 
Q 14.59375 69.40625 12.296875 69.40625 
Q 10 69.40625 8.453125 67.90625 
Q 6.90625 66.40625 6.90625 64.09375 
Q 6.90625 61.90625 8.5 60.296875 
Q 10.09375 58.703125 12.296875 58.703125 
Q 14.59375 58.703125 16.140625 60.25 
Q 17.703125 61.796875 17.703125 64.09375 
z
M 23.296875 0 
L 23.296875 1 
Q 22.296875 1.203125 21.25 1.25 
Q 20.203125 1.296875 19.296875 1.5 
Q 18.40625 1.703125 17.75 2.140625 
Q 17.09375 2.59375 16.90625 3.59375 
L 16.90625 48.296875 
L 16.296875 48.296875 
L 2.796875 43.90625 
L 2.796875 43.296875 
Q 4.203125 42.796875 5.453125 42.1875 
Q 6.703125 41.59375 7.59375 41 
Q 8.296875 40.5 8.4375 39.890625 
Q 8.59375 39.296875 8.59375 38.5 
L 8.59375 4.203125 
Q 8.59375 3.296875 7.9375 2.6875 
Q 7.296875 2.09375 6.34375 1.75 
Q 5.40625 1.40625 4.203125 1.25 
Q 3 1.09375 1.796875 1 
L 1.796875 0 
z
" id="BigCaslon-Medium-105"/>
     <path d="M 36.90625 14.59375 
Q 36.90625 19.703125 33.75 23.203125 
Q 30.59375 26.703125 26.09375 27.796875 
Q 24.203125 28.296875 21.59375 28.84375 
Q 19 29.40625 16.796875 29.90625 
Q 13.59375 30.703125 11.5 32.296875 
Q 9.40625 33.90625 9.40625 37.59375 
Q 9.40625 39.90625 10.203125 41.65625 
Q 11 43.40625 12.25 44.546875 
Q 13.5 45.703125 15.140625 46.296875 
Q 16.796875 46.90625 18.5 46.90625 
Q 21.296875 46.90625 23.4375 45.90625 
Q 25.59375 44.90625 27.296875 43.046875 
Q 29 41.203125 30.390625 38.640625 
Q 31.796875 36.09375 33.203125 33.09375 
L 34 33.296875 
L 32.796875 45.703125 
Q 29.90625 46.796875 26.703125 47.546875 
Q 23.5 48.296875 19.296875 48.296875 
Q 16 48.296875 13.09375 47.34375 
Q 10.203125 46.40625 8 44.59375 
Q 5.796875 42.796875 4.5 40.296875 
Q 3.203125 37.796875 3.203125 34.703125 
Q 3.203125 30.203125 5.546875 27 
Q 7.90625 23.796875 11.703125 22.5 
Q 13.703125 21.796875 16.203125 21.1875 
Q 18.703125 20.59375 21.40625 20.09375 
Q 24.796875 19.40625 26.75 17.34375 
Q 28.703125 15.296875 28.703125 12.203125 
Q 28.703125 6.5 25.84375 3.75 
Q 23 1 18.203125 1 
Q 14.90625 1 12.5 2.453125 
Q 10.09375 3.90625 8.390625 6.15625 
Q 6.703125 8.40625 5.5 11.046875 
Q 4.296875 13.703125 3.5 16.09375 
L 2.703125 16.09375 
L 2.703125 2.90625 
Q 6 1.40625 9.890625 0.59375 
Q 13.796875 -0.203125 18.203125 -0.203125 
Q 21.90625 -0.203125 25.25 0.59375 
Q 28.59375 1.40625 31.1875 3.203125 
Q 33.796875 5 35.34375 7.84375 
Q 36.90625 10.703125 36.90625 14.59375 
z
" id="BigCaslon-Medium-115"/>
     <path d="M 49.203125 24.5 
Q 49.203125 30.5 47.046875 34.953125 
Q 44.90625 39.40625 41.546875 42.34375 
Q 38.203125 45.296875 34.09375 46.796875 
Q 30 48.296875 26 48.296875 
Q 20.59375 48.296875 16.140625 46.296875 
Q 11.703125 44.296875 8.546875 41 
Q 5.40625 37.703125 3.65625 33.390625 
Q 1.90625 29.09375 1.90625 24.5 
Q 1.90625 18.09375 4.15625 13.34375 
Q 6.40625 8.59375 9.953125 5.546875 
Q 13.5 2.5 17.703125 1.09375 
Q 21.90625 -0.296875 25.796875 -0.296875 
Q 30.5 -0.296875 34.75 1.59375 
Q 39 3.5 42.203125 6.890625 
Q 45.40625 10.296875 47.296875 14.84375 
Q 49.203125 19.40625 49.203125 24.5 
z
M 39.90625 24.59375 
Q 39.90625 21.09375 39.15625 17 
Q 38.40625 12.90625 36.75 9.34375 
Q 35.09375 5.796875 32.4375 3.4375 
Q 29.796875 1.09375 25.90625 1.09375 
Q 22 1.09375 19.203125 2.9375 
Q 16.40625 4.796875 14.59375 7.9375 
Q 12.796875 11.09375 12 15.1875 
Q 11.203125 19.296875 11.203125 23.90625 
Q 11.203125 28.09375 12.140625 32.140625 
Q 13.09375 36.203125 14.9375 39.453125 
Q 16.796875 42.703125 19.390625 44.703125 
Q 22 46.703125 25.296875 46.703125 
Q 29.40625 46.703125 32.203125 44.546875 
Q 35 42.40625 36.703125 39.09375 
Q 38.40625 35.796875 39.15625 31.890625 
Q 39.90625 28 39.90625 24.59375 
z
" id="BigCaslon-Medium-111"/>
     <path d="M 36.703125 43 
Q 36.703125 45.296875 34.953125 46.796875 
Q 33.203125 48.296875 30.703125 48.296875 
Q 27.59375 48.296875 25.1875 46.59375 
Q 22.796875 44.90625 21.09375 42.546875 
Q 19.40625 40.203125 18.296875 37.890625 
Q 17.203125 35.59375 16.703125 34.40625 
L 16.5 34.40625 
L 16.703125 48.296875 
L 16.09375 48.296875 
L 3 43.203125 
L 3 42.59375 
Q 4.203125 42.09375 5.390625 41.34375 
Q 6.59375 40.59375 7.5 40.09375 
Q 8.203125 39.59375 8.34375 39.1875 
Q 8.5 38.796875 8.5 38 
L 8.5 4.203125 
Q 8.5 2.59375 6.84375 1.890625 
Q 5.203125 1.203125 2.90625 1 
L 2.90625 0 
L 25.296875 0 
L 25.296875 1 
Q 24.296875 1.203125 22.9375 1.25 
Q 21.59375 1.296875 20.34375 1.5 
Q 19.09375 1.703125 18.09375 2.203125 
Q 17.09375 2.703125 16.796875 3.59375 
L 16.796875 32.40625 
Q 17.40625 33.90625 18.203125 35.546875 
Q 19 37.203125 20 38.5 
Q 21 39.796875 22.140625 40.640625 
Q 23.296875 41.5 24.5 41.5 
Q 25.90625 41.5 26.703125 40.953125 
Q 27.5 40.40625 28.203125 39.703125 
Q 28.90625 39 29.84375 38.453125 
Q 30.796875 37.90625 32.40625 37.90625 
Q 34.09375 37.90625 35.390625 39.34375 
Q 36.703125 40.796875 36.703125 43 
z
" id="BigCaslon-Medium-114"/>
     <path d="M 51.203125 0 
L 51.203125 0.90625 
Q 50.296875 1 49.25 1.140625 
Q 48.203125 1.296875 47.296875 1.546875 
Q 46.40625 1.796875 45.75 2.296875 
Q 45.09375 2.796875 45.09375 3.5 
L 45.09375 32.90625 
Q 45.09375 39.703125 42 44 
Q 38.90625 48.296875 33.09375 48.296875 
Q 30.40625 48.296875 27.90625 47.25 
Q 25.40625 46.203125 23.296875 44.59375 
Q 21.203125 43 19.546875 41.046875 
Q 17.90625 39.09375 16.796875 37.40625 
L 16.59375 37.5 
L 16.59375 48.296875 
L 16 48.296875 
L 2.90625 43.59375 
L 2.90625 43 
Q 4.09375 42.5 5.296875 41.84375 
Q 6.5 41.203125 7.40625 40.703125 
Q 8.09375 40.203125 8.25 39.796875 
Q 8.40625 39.40625 8.40625 38.59375 
L 8.40625 4.203125 
Q 8.40625 2.59375 6.75 1.890625 
Q 5.09375 1.203125 2.796875 1 
L 2.796875 0 
L 22.09375 0 
L 22.09375 1 
Q 21.09375 1.203125 20.1875 1.25 
Q 19.296875 1.296875 18.59375 1.5 
Q 17.90625 1.703125 17.40625 2.140625 
Q 16.90625 2.59375 16.703125 3.59375 
L 16.703125 36.40625 
Q 19.40625 39.09375 21.59375 40.5 
Q 23.796875 41.90625 27.09375 41.90625 
Q 32.296875 41.90625 34.5 38.34375 
Q 36.703125 34.796875 36.703125 29 
L 36.703125 3.796875 
Q 36.703125 2.203125 35.09375 1.75 
Q 33.5 1.296875 30.796875 1.09375 
L 30.796875 0 
z
" id="BigCaslon-Medium-110"/>
     <path id="BigCaslon-Medium-32"/>
     <path d="M 44.09375 14.296875 
L 43.296875 14.703125 
Q 40.90625 10.703125 37.296875 8.640625 
Q 33.703125 6.59375 27.5 6.59375 
Q 23.59375 6.59375 20.4375 8.046875 
Q 17.296875 9.5 15.09375 12.140625 
Q 12.90625 14.796875 11.703125 18.546875 
Q 10.5 22.296875 10.5 26.796875 
Q 10.5 30.90625 11.59375 34.5 
Q 12.703125 38.09375 14.59375 40.796875 
Q 16.5 43.5 19.09375 45.09375 
Q 21.703125 46.703125 24.796875 46.703125 
Q 29 46.703125 30.953125 44.25 
Q 32.90625 41.796875 32.90625 38.09375 
Q 32.90625 36.09375 32.40625 34.703125 
Q 32.796875 33.203125 34.140625 32.203125 
Q 35.5 31.203125 37.203125 31.203125 
Q 39.296875 31.203125 40.84375 32.75 
Q 42.40625 34.296875 42.40625 36.40625 
Q 42.40625 39.296875 40.84375 41.5 
Q 39.296875 43.703125 36.796875 45.203125 
Q 34.296875 46.703125 31.09375 47.5 
Q 27.90625 48.296875 24.59375 48.296875 
Q 19.703125 48.296875 15.546875 46.296875 
Q 11.40625 44.296875 8.40625 41 
Q 5.40625 37.703125 3.703125 33.34375 
Q 2 29 2 24.203125 
Q 2 19.09375 3.640625 14.59375 
Q 5.296875 10.09375 8.1875 6.75 
Q 11.09375 3.40625 15.1875 1.546875 
Q 19.296875 -0.296875 24.09375 -0.296875 
Q 27.90625 -0.296875 31.15625 0.796875 
Q 34.40625 1.90625 37 3.953125 
Q 39.59375 6 41.390625 8.640625 
Q 43.203125 11.296875 44.09375 14.296875 
z
" id="BigCaslon-Medium-99"/>
     <path d="M 50.59375 2.5 
L 50.59375 3.09375 
Q 49.40625 3.59375 47.65625 4.390625 
Q 45.90625 5.203125 45 5.703125 
Q 44.296875 6.203125 44.140625 6.59375 
Q 44 7 44 7.796875 
L 44 47.296875 
L 27.203125 47.296875 
L 27.203125 46.203125 
Q 29.40625 46 31.453125 45.703125 
Q 33.5 45.40625 34.703125 44.90625 
Q 35.296875 44.09375 35.5 42.546875 
Q 35.703125 41 35.703125 40 
L 35.703125 11.5 
Q 34.796875 10.296875 33.75 9.1875 
Q 32.703125 8.09375 31.453125 7.25 
Q 30.203125 6.40625 28.640625 5.84375 
Q 27.09375 5.296875 25 5.296875 
Q 19.5 5.296875 17.5 8.4375 
Q 15.5 11.59375 15.5 18.203125 
L 15.5 47.296875 
L 0 47.296875 
L 0 46.203125 
Q 0.90625 46.09375 1.90625 46.046875 
Q 2.90625 46 3.796875 45.796875 
Q 4.703125 45.59375 5.453125 45.1875 
Q 6.203125 44.796875 6.59375 43.90625 
Q 6.796875 43.59375 6.84375 42.9375 
Q 6.90625 42.296875 7 41.546875 
Q 7.09375 40.796875 7.09375 40.09375 
Q 7.09375 39.40625 7.09375 39 
L 7.09375 14.59375 
Q 7.09375 7.296875 10.140625 3.5 
Q 13.203125 -0.296875 19.59375 -0.296875 
Q 22.40625 -0.296875 24.84375 0.59375 
Q 27.296875 1.5 29.296875 3.046875 
Q 31.296875 4.59375 32.890625 6.5 
Q 34.5 8.40625 35.59375 10.09375 
L 35.703125 10 
L 35.703125 -0.09375 
L 36.40625 -0.09375 
z
" id="BigCaslon-Medium-117"/>
     <path d="M 49.296875 46.203125 
L 49.296875 47.296875 
L 29.90625 47.296875 
L 29.90625 46.296875 
Q 30.796875 46.203125 32 46.203125 
Q 33.203125 46.203125 34.296875 45.890625 
Q 35.40625 45.59375 36.15625 44.84375 
Q 36.90625 44.09375 36.90625 42.703125 
Q 36.90625 41.796875 35.65625 38.09375 
Q 34.40625 34.40625 32.59375 29.5 
Q 30.796875 24.59375 28.796875 19.5 
Q 26.796875 14.40625 25.296875 10.703125 
Q 24.40625 13.09375 23.09375 16.296875 
Q 21.796875 19.5 20.4375 22.890625 
Q 19.09375 26.296875 17.796875 29.6875 
Q 16.5 33.09375 15.453125 35.890625 
Q 14.40625 38.703125 13.75 40.59375 
Q 13.09375 42.5 13.09375 43 
Q 13.09375 44.09375 13.9375 44.640625 
Q 14.796875 45.203125 16 45.5 
Q 17.203125 45.796875 18.546875 45.9375 
Q 19.90625 46.09375 20.796875 46.203125 
L 20.796875 47.296875 
L -3.296875 47.296875 
L -3.296875 46.203125 
Q 0 46 1.25 45.25 
Q 2.5 44.5 3.09375 43.90625 
Q 3.59375 43 4.1875 41.59375 
Q 4.796875 40.203125 5.390625 38.703125 
Q 6 37.203125 6.546875 35.84375 
Q 7.09375 34.5 7.40625 33.703125 
Q 9.5 28.203125 11.203125 23.796875 
Q 12.90625 19.40625 14.40625 15.546875 
Q 15.90625 11.703125 17.296875 8.046875 
Q 18.703125 4.40625 20.296875 0.296875 
Q 20.40625 0.09375 20.59375 -0.15625 
Q 20.796875 -0.40625 21.203125 -0.40625 
Q 21.90625 -0.40625 22.203125 0.203125 
Q 22.796875 1.5 23.25 2.5 
Q 23.703125 3.5 24.203125 4.59375 
Q 24.703125 5.703125 25.25 6.953125 
Q 25.796875 8.203125 26.59375 10 
Q 28 13.5 29.640625 17.703125 
Q 31.296875 21.90625 33 26.09375 
Q 34.703125 30.296875 36.25 34.09375 
Q 37.796875 37.90625 39 40.703125 
Q 39.796875 42.5 41.09375 43.59375 
Q 42.40625 44.703125 43.90625 45.25 
Q 45.40625 45.796875 46.84375 46 
Q 48.296875 46.203125 49.296875 46.203125 
z
" id="BigCaslon-Medium-118"/>
     <path d="M 37.90625 67.5 
Q 37.90625 68.90625 37.15625 69.84375 
Q 36.40625 70.796875 35.25 71.390625 
Q 34.09375 72 32.640625 72.296875 
Q 31.203125 72.59375 29.703125 72.59375 
Q 26.5 72.59375 23.453125 71.75 
Q 20.40625 70.90625 17.84375 69.453125 
Q 15.296875 68 13.296875 66.046875 
Q 11.296875 64.09375 10.203125 61.796875 
Q 9.09375 59.59375 8.84375 55.546875 
Q 8.59375 51.5 8.59375 47.296875 
L 2.40625 47.296875 
L 1.296875 42.90625 
L 8.5 42.90625 
L 8.5 4.203125 
Q 8.5 3.40625 7.59375 2.84375 
Q 6.703125 2.296875 5.34375 1.9375 
Q 4 1.59375 2.546875 1.34375 
Q 1.09375 1.09375 0 1 
L 0 0 
L 25.40625 0 
L 25.40625 1 
Q 23.90625 1.203125 22.453125 1.296875 
Q 21 1.40625 19.796875 1.703125 
Q 18.59375 2 17.796875 2.5 
Q 17 3 16.796875 3.90625 
L 16.796875 42.90625 
L 27.40625 42.90625 
L 28.703125 47.296875 
L 16.90625 47.296875 
Q 16.90625 50.90625 16.953125 53.75 
Q 17 56.59375 17.203125 60.59375 
Q 17.40625 63.703125 18.25 65.546875 
Q 19.09375 67.40625 20.25 68.34375 
Q 21.40625 69.296875 22.5 69.59375 
Q 23.59375 69.90625 24.203125 69.90625 
Q 25.40625 69.5 26.34375 68.296875 
Q 27.296875 67.09375 28.34375 65.84375 
Q 29.40625 64.59375 30.65625 63.640625 
Q 31.90625 62.703125 33.703125 62.703125 
Q 35.59375 62.703125 36.75 64.203125 
Q 37.90625 65.703125 37.90625 67.5 
z
" id="BigCaslon-Medium-102"/>
     <path d="M 18.203125 5.40625 
Q 18.203125 8 16.59375 9.84375 
Q 15 11.703125 12.40625 11.703125 
Q 9.796875 11.703125 8.09375 9.953125 
Q 6.40625 8.203125 6.40625 5.59375 
Q 6.40625 3 8.09375 1.453125 
Q 9.796875 -0.09375 12.40625 -0.09375 
Q 15 -0.09375 16.59375 1.34375 
Q 18.203125 2.796875 18.203125 5.40625 
z
" id="BigCaslon-Medium-46"/>
     <path d="M 79.09375 33.296875 
L 79.09375 34.296875 
L 49.796875 34.296875 
L 49.796875 33.296875 
Q 55.59375 32.796875 57.90625 30.203125 
Q 59.59375 28.40625 59.9375 25.59375 
Q 60.296875 22.796875 60.296875 19.296875 
Q 60.296875 15.796875 59.890625 12.5 
Q 59.5 9.203125 58.703125 7.90625 
Q 56.296875 4.203125 52.140625 2.546875 
Q 48 0.90625 43.203125 0.90625 
Q 36.5 0.90625 31.296875 3.453125 
Q 26.09375 6 22.5 10.59375 
Q 18.90625 15.203125 17 21.640625 
Q 15.09375 28.09375 15.09375 35.90625 
Q 15.09375 43 17.09375 49.453125 
Q 19.09375 55.90625 22.796875 60.84375 
Q 26.5 65.796875 31.796875 68.75 
Q 37.09375 71.703125 43.703125 71.703125 
Q 49.90625 71.703125 54.90625 69.59375 
Q 59.90625 67.5 63.09375 64.09375 
Q 65.59375 61.5 67.796875 57.5 
Q 70 53.5 71.09375 49 
L 72.296875 49 
L 72.296875 70.796875 
L 71.40625 70.796875 
Q 70.09375 69.09375 69.1875 67.890625 
Q 68.296875 66.703125 68.09375 66.703125 
Q 67.90625 66.703125 66.203125 67.75 
Q 64.5 68.796875 61.34375 70.046875 
Q 58.203125 71.296875 53.59375 72.34375 
Q 49 73.40625 43 73.40625 
Q 33 73.40625 26 70.546875 
Q 19 67.703125 14.203125 63 
Q 10.796875 59.703125 8.546875 56 
Q 6.296875 52.296875 5.046875 48.6875 
Q 3.796875 45.09375 3.296875 41.84375 
Q 2.796875 38.59375 2.796875 36.09375 
Q 2.796875 27.59375 5.546875 20.75 
Q 8.296875 13.90625 13.4375 9.15625 
Q 18.59375 4.40625 26.09375 1.953125 
Q 33.59375 -0.5 43.09375 -0.5 
Q 47.90625 -0.5 52.703125 0.5 
Q 57.5 1.5 61.453125 2.953125 
Q 65.40625 4.40625 68.15625 5.796875 
Q 70.90625 7.203125 71.59375 7.796875 
L 71.59375 22.40625 
Q 71.59375 24.703125 71.6875 27 
Q 71.796875 29.296875 72.5 30.40625 
Q 73.40625 31.796875 75.40625 32.4375 
Q 77.40625 33.09375 79.09375 33.296875 
z
" id="BigCaslon-Medium-71"/>
     <path d="M 76.5 46.203125 
L 76.5 47.296875 
L 58.203125 47.296875 
L 58.203125 46.203125 
Q 59.09375 46.09375 60.1875 46 
Q 61.296875 45.90625 62.25 45.546875 
Q 63.203125 45.203125 63.84375 44.453125 
Q 64.5 43.703125 64.5 42.296875 
Q 64.5 41.40625 63.796875 39.09375 
Q 63.09375 36.796875 62.046875 33.84375 
Q 61 30.90625 59.640625 27.546875 
Q 58.296875 24.203125 57.046875 21.046875 
Q 55.796875 17.90625 54.6875 15.34375 
Q 53.59375 12.796875 53 11.5 
Q 52.09375 13.90625 50.9375 17.046875 
Q 49.796875 20.203125 48.59375 23.5 
Q 47.40625 26.796875 46.25 30.09375 
Q 45.09375 33.40625 44.1875 36.09375 
Q 43.296875 38.796875 42.75 40.640625 
Q 42.203125 42.5 42.203125 43 
Q 42.203125 44.09375 43.046875 44.640625 
Q 43.90625 45.203125 45.046875 45.5 
Q 46.203125 45.796875 47.390625 45.9375 
Q 48.59375 46.09375 49.40625 46.203125 
L 49.40625 47.296875 
L 26.59375 47.296875 
L 26.59375 46.203125 
Q 28.40625 46.09375 29.40625 45.84375 
Q 30.40625 45.59375 30.953125 45.25 
Q 31.5 44.90625 31.75 44.546875 
Q 32 44.203125 32.296875 43.90625 
Q 33.296875 42.09375 34.09375 40.25 
Q 34.90625 38.40625 35.59375 36.40625 
Q 34.296875 32.796875 32.9375 29.09375 
Q 31.59375 25.40625 30.296875 22 
Q 29 18.59375 27.890625 15.796875 
Q 26.796875 13 26 11 
Q 24.09375 15.59375 21.796875 21.09375 
Q 19.5 26.59375 17.5 31.5 
Q 15.5 36.40625 14.140625 39.953125 
Q 12.796875 43.5 12.59375 44.296875 
Q 13.09375 44.796875 13.9375 45.09375 
Q 14.796875 45.40625 15.75 45.65625 
Q 16.703125 45.90625 17.640625 46 
Q 18.59375 46.09375 19.296875 46.203125 
L 19.296875 47.296875 
L -3.203125 47.296875 
L -3.203125 46.203125 
Q 0.09375 46.09375 1.25 45.34375 
Q 2.40625 44.59375 3 44.09375 
Q 3.796875 42.796875 4.546875 41.140625 
Q 5.296875 39.5 5.90625 38.09375 
Q 10.09375 28 13.796875 19 
Q 17.5 10 21.40625 0.5 
Q 21.796875 -0.203125 22.296875 -0.203125 
Q 22.90625 -0.203125 23.296875 0.40625 
Q 24.296875 2.59375 25 4.5 
Q 25.703125 6.40625 27.09375 9.09375 
L 36.59375 33.90625 
Q 38.59375 28.09375 40.09375 23.59375 
Q 41.59375 19.09375 42.890625 15.296875 
Q 44.203125 11.5 45.390625 7.953125 
Q 46.59375 4.40625 47.90625 0.5 
Q 48 0.203125 48.140625 0 
Q 48.296875 -0.203125 48.796875 -0.203125 
Q 49.296875 -0.203125 49.703125 0.40625 
Q 50.296875 1.59375 50.75 2.59375 
Q 51.203125 3.59375 51.703125 4.640625 
Q 52.203125 5.703125 52.796875 7.046875 
Q 53.40625 8.40625 54.296875 10.296875 
Q 55.703125 13.796875 57.453125 17.84375 
Q 59.203125 21.90625 60.953125 26 
Q 62.703125 30.09375 64.34375 33.84375 
Q 66 37.59375 67.203125 40.40625 
Q 68.09375 42.5 69.25 43.640625 
Q 70.40625 44.796875 71.59375 45.34375 
Q 72.796875 45.90625 74.046875 46 
Q 75.296875 46.09375 76.5 46.203125 
z
" id="BigCaslon-Medium-119"/>
     <path d="M 51.40625 0 
L 51.40625 0.90625 
Q 50.5 1 49.5 1.140625 
Q 48.5 1.296875 47.59375 1.546875 
Q 46.703125 1.796875 46.09375 2.296875 
Q 45.5 2.796875 45.5 3.5 
L 45.5 33 
Q 45.5 36.296875 44.953125 39.09375 
Q 44.40625 41.90625 43.046875 43.953125 
Q 41.703125 46 39.453125 47.140625 
Q 37.203125 48.296875 33.90625 48.296875 
Q 30.5 48.296875 27.640625 47.140625 
Q 24.796875 46 22.59375 44.390625 
Q 20.40625 42.796875 18.953125 41 
Q 17.5 39.203125 16.796875 37.796875 
L 16.59375 37.90625 
L 16.90625 72.59375 
L 16.09375 72.59375 
L 2.703125 66.5 
L 2.703125 65.90625 
Q 4 65.09375 5.34375 64.4375 
Q 6.703125 63.796875 7.5 63.09375 
Q 8.203125 62.59375 8.34375 62.1875 
Q 8.5 61.796875 8.5 61 
L 8.5 4.203125 
Q 8.5 2.296875 6.640625 1.75 
Q 4.796875 1.203125 2.5 1 
L 2.5 0 
L 22.40625 0 
L 22.40625 1 
Q 21.40625 1.203125 20.40625 1.296875 
Q 19.40625 1.40625 18.59375 1.65625 
Q 17.796875 1.90625 17.296875 2.40625 
Q 16.796875 2.90625 16.796875 3.796875 
L 16.796875 34.5 
Q 16.796875 35.296875 17.140625 36.25 
Q 17.5 37.203125 17.703125 37.5 
Q 19.203125 39.703125 21.703125 41 
Q 24.203125 42.296875 27.796875 42.296875 
Q 30.59375 42.296875 32.390625 41.296875 
Q 34.203125 40.296875 35.25 38.5 
Q 36.296875 36.703125 36.6875 34.203125 
Q 37.09375 31.703125 37.09375 28.796875 
L 37.09375 3.796875 
Q 37.09375 2.203125 35.296875 1.75 
Q 33.5 1.296875 30.796875 1.09375 
L 30.796875 0 
z
" id="BigCaslon-Medium-104"/>
     <path d="M 34.671875 47.5625 
Q 27.25 47.5625 22.21875 42.1875 
Q 16.890625 36.578125 15.140625 27.296875 
Q 13.1875 17.484375 16.3125 11.8125 
Q 19.390625 6.203125 26.65625 6.203125 
Q 33.84375 6.203125 39.109375 11.859375 
Q 44.4375 17.53125 46.34375 27.296875 
Q 48.046875 36.234375 45.015625 42.1875 
Q 42.1875 47.5625 34.671875 47.5625 
z
M 36.078125 54.734375 
L 65.921875 54.6875 
L 64.15625 45.703125 
L 54.109375 45.703125 
Q 57.90625 38.09375 55.859375 27.296875 
Q 53.21875 13.875 45.0625 6.25 
Q 36.859375 -1.421875 25.140625 -1.421875 
Q 13.375 -1.421875 8.203125 6.25 
Q 3.03125 13.875 5.671875 27.296875 
Q 8.25 40.765625 16.40625 48.390625 
Q 23.1875 54.734375 36.078125 54.734375 
z
" id="DejaVuSans-Oblique-963"/>
     <path d="M 19.1875 8.296875 
L 53.609375 8.296875 
L 53.609375 0 
L 7.328125 0 
L 7.328125 8.296875 
Q 12.9375 14.109375 22.625 23.890625 
Q 32.328125 33.6875 34.8125 36.53125 
Q 39.546875 41.84375 41.421875 45.53125 
Q 43.3125 49.21875 43.3125 52.78125 
Q 43.3125 58.59375 39.234375 62.25 
Q 35.15625 65.921875 28.609375 65.921875 
Q 23.96875 65.921875 18.8125 64.3125 
Q 13.671875 62.703125 7.8125 59.421875 
L 7.8125 69.390625 
Q 13.765625 71.78125 18.9375 73 
Q 24.125 74.21875 28.421875 74.21875 
Q 39.75 74.21875 46.484375 68.546875 
Q 53.21875 62.890625 53.21875 53.421875 
Q 53.21875 48.921875 51.53125 44.890625 
Q 49.859375 40.875 45.40625 35.40625 
Q 44.1875 33.984375 37.640625 27.21875 
Q 31.109375 20.453125 19.1875 8.296875 
z
" id="DejaVuSans-50"/>
    </defs>
    <g style="fill:#262626;" transform="translate(52.705313 15.875625)scale(0.12 -0.12)">
     <use transform="translate(0 0.765625)" xlink:href="#BigCaslon-Medium-82"/>
     <use transform="translate(76.199982 0.765625)" xlink:href="#BigCaslon-Medium-97"/>
     <use transform="translate(120.999969 0.765625)" xlink:href="#BigCaslon-Medium-116"/>
     <use transform="translate(153.399963 0.765625)" xlink:href="#BigCaslon-Medium-101"/>
     <use transform="translate(196.899948 0.765625)" xlink:href="#BigCaslon-Medium-45"/>
     <use transform="translate(222.499939 0.765625)" xlink:href="#BigCaslon-Medium-100"/>
     <use transform="translate(277.09993 0.765625)" xlink:href="#BigCaslon-Medium-105"/>
     <use transform="translate(302.499924 0.765625)" xlink:href="#BigCaslon-Medium-115"/>
     <use transform="translate(340.699921 0.765625)" xlink:href="#BigCaslon-Medium-116"/>
     <use transform="translate(373.099915 0.765625)" xlink:href="#BigCaslon-Medium-111"/>
     <use transform="translate(424.199905 0.765625)" xlink:href="#BigCaslon-Medium-114"/>
     <use transform="translate(459.899902 0.765625)" xlink:href="#BigCaslon-Medium-116"/>
     <use transform="translate(492.299896 0.765625)" xlink:href="#BigCaslon-Medium-105"/>
     <use transform="translate(517.69989 0.765625)" xlink:href="#BigCaslon-Medium-111"/>
     <use transform="translate(568.799881 0.765625)" xlink:href="#BigCaslon-Medium-110"/>
     <use transform="translate(620.899872 0.765625)" xlink:href="#BigCaslon-Medium-32"/>
     <use transform="translate(641.899857 0.765625)" xlink:href="#BigCaslon-Medium-99"/>
     <use transform="translate(685.099854 0.765625)" xlink:href="#BigCaslon-Medium-117"/>
     <use transform="translate(737.399841 0.765625)" xlink:href="#BigCaslon-Medium-114"/>
     <use transform="translate(773.099838 0.765625)" xlink:href="#BigCaslon-Medium-118"/>
     <use transform="translate(817.399826 0.765625)" xlink:href="#BigCaslon-Medium-101"/>
     <use transform="translate(860.899811 0.765625)" xlink:href="#BigCaslon-Medium-32"/>
     <use transform="translate(881.899796 0.765625)" xlink:href="#BigCaslon-Medium-102"/>
     <use transform="translate(908.89978 0.765625)" xlink:href="#BigCaslon-Medium-111"/>
     <use transform="translate(959.999771 0.765625)" xlink:href="#BigCaslon-Medium-114"/>
     <use transform="translate(995.699768 0.765625)" xlink:href="#BigCaslon-Medium-32"/>
     <use transform="translate(1016.699753 0.765625)" xlink:href="#BigCaslon-Medium-105"/>
     <use transform="translate(1042.099747 0.765625)" xlink:href="#BigCaslon-Medium-46"/>
     <use transform="translate(1066.399734 0.765625)" xlink:href="#BigCaslon-Medium-105"/>
     <use transform="translate(1091.799728 0.765625)" xlink:href="#BigCaslon-Medium-46"/>
     <use transform="translate(1116.099716 0.765625)" xlink:href="#BigCaslon-Medium-100"/>
     <use transform="translate(1170.699707 0.765625)" xlink:href="#BigCaslon-Medium-32"/>
     <use transform="translate(1191.699692 0.765625)" xlink:href="#BigCaslon-Medium-71"/>
     <use transform="translate(1274.199677 0.765625)" xlink:href="#BigCaslon-Medium-97"/>
     <use transform="translate(1318.999664 0.765625)" xlink:href="#BigCaslon-Medium-117"/>
     <use transform="translate(1371.299652 0.765625)" xlink:href="#BigCaslon-Medium-115"/>
     <use transform="translate(1409.499649 0.765625)" xlink:href="#BigCaslon-Medium-115"/>
     <use transform="translate(1447.699646 0.765625)" xlink:href="#BigCaslon-Medium-105"/>
     <use transform="translate(1473.09964 0.765625)" xlink:href="#BigCaslon-Medium-97"/>
     <use transform="translate(1517.899628 0.765625)" xlink:href="#BigCaslon-Medium-110"/>
     <use transform="translate(1569.999619 0.765625)" xlink:href="#BigCaslon-Medium-32"/>
     <use transform="translate(1590.999603 0.765625)" xlink:href="#BigCaslon-Medium-100"/>
     <use transform="translate(1645.599594 0.765625)" xlink:href="#BigCaslon-Medium-97"/>
     <use transform="translate(1690.399582 0.765625)" xlink:href="#BigCaslon-Medium-116"/>
     <use transform="translate(1722.799576 0.765625)" xlink:href="#BigCaslon-Medium-97"/>
     <use transform="translate(1767.599564 0.765625)" xlink:href="#BigCaslon-Medium-32"/>
     <use transform="translate(1788.599548 0.765625)" xlink:href="#BigCaslon-Medium-119"/>
     <use transform="translate(1862.499542 0.765625)" xlink:href="#BigCaslon-Medium-105"/>
     <use transform="translate(1887.899536 0.765625)" xlink:href="#BigCaslon-Medium-116"/>
     <use transform="translate(1920.29953 0.765625)" xlink:href="#BigCaslon-Medium-104"/>
     <use transform="translate(1972.699524 0.765625)" xlink:href="#BigCaslon-Medium-32"/>
     <use transform="translate(1993.699509 0.765625)" xlink:href="#BigCaslon-Medium-118"/>
     <use transform="translate(2037.999496 0.765625)" xlink:href="#BigCaslon-Medium-97"/>
     <use transform="translate(2082.799484 0.765625)" xlink:href="#BigCaslon-Medium-114"/>
     <use transform="translate(2118.499481 0.765625)" xlink:href="#BigCaslon-Medium-105"/>
     <use transform="translate(2143.899475 0.765625)" xlink:href="#BigCaslon-Medium-97"/>
     <use transform="translate(2188.699463 0.765625)" xlink:href="#BigCaslon-Medium-110"/>
     <use transform="translate(2240.799454 0.765625)" xlink:href="#BigCaslon-Medium-99"/>
     <use transform="translate(2283.999451 0.765625)" xlink:href="#BigCaslon-Medium-101"/>
     <use transform="translate(2327.499435 0.765625)" xlink:href="#BigCaslon-Medium-32"/>
     <use transform="translate(2348.49942 0.765625)" xlink:href="#DejaVuSans-Oblique-963"/>
     <use transform="translate(2416.351035 39.046875)scale(0.7)" xlink:href="#DejaVuSans-50"/>
    </g>
   </g>
   <g id="legend_1">
    <g id="patch_5">
     <path d="M 294.345313 72.311562 
L 360.945312 72.311562 
Q 362.945312 72.311562 362.945312 70.311562 
L 362.945312 28.875625 
Q 362.945312 26.875625 360.945312 26.875625 
L 294.345313 26.875625 
Q 292.345313 26.875625 292.345313 28.875625 
L 292.345313 70.311562 
Q 292.345313 72.311562 294.345313 72.311562 
z
" style="fill:#ffffff;opacity:0.8;stroke:#cccccc;stroke-linejoin:miter;"/>
    </g>
    <g id="line2d_17">
     <path d="M 296.345313 34.533437 
L 316.345313 34.533437 
" style="fill:none;stroke:#821580;stroke-linecap:round;stroke-width:1.5;"/>
    </g>
    <g id="line2d_18"/>
    <g id="text_17">
     <!-- $\sigma = 1.0$ -->
     <defs>
      <path d="M 10.59375 45.40625 
L 73.1875 45.40625 
L 73.1875 37.203125 
L 10.59375 37.203125 
z
M 10.59375 25.484375 
L 73.1875 25.484375 
L 73.1875 17.1875 
L 10.59375 17.1875 
z
" id="DejaVuSans-61"/>
      <path d="M 12.40625 8.296875 
L 28.515625 8.296875 
L 28.515625 63.921875 
L 10.984375 60.40625 
L 10.984375 69.390625 
L 28.421875 72.90625 
L 38.28125 72.90625 
L 38.28125 8.296875 
L 54.390625 8.296875 
L 54.390625 0 
L 12.40625 0 
z
" id="DejaVuSans-49"/>
      <path d="M 10.6875 12.40625 
L 21 12.40625 
L 21 0 
L 10.6875 0 
z
" id="DejaVuSans-46"/>
      <path d="M 31.78125 66.40625 
Q 24.171875 66.40625 20.328125 58.90625 
Q 16.5 51.421875 16.5 36.375 
Q 16.5 21.390625 20.328125 13.890625 
Q 24.171875 6.390625 31.78125 6.390625 
Q 39.453125 6.390625 43.28125 13.890625 
Q 47.125 21.390625 47.125 36.375 
Q 47.125 51.421875 43.28125 58.90625 
Q 39.453125 66.40625 31.78125 66.40625 
z
M 31.78125 74.21875 
Q 44.046875 74.21875 50.515625 64.515625 
Q 56.984375 54.828125 56.984375 36.375 
Q 56.984375 17.96875 50.515625 8.265625 
Q 44.046875 -1.421875 31.78125 -1.421875 
Q 19.53125 -1.421875 13.0625 8.265625 
Q 6.59375 17.96875 6.59375 36.375 
Q 6.59375 54.828125 13.0625 64.515625 
Q 19.53125 74.21875 31.78125 74.21875 
z
" id="DejaVuSans-48"/>
     </defs>
     <g style="fill:#262626;" transform="translate(324.345313 38.033437)scale(0.1 -0.1)">
      <use transform="translate(0 0.78125)" xlink:href="#DejaVuSans-Oblique-963"/>
      <use transform="translate(82.861328 0.78125)" xlink:href="#DejaVuSans-61"/>
      <use transform="translate(186.132812 0.78125)" xlink:href="#DejaVuSans-49"/>
      <use transform="translate(249.755859 0.78125)" xlink:href="#DejaVuSans-46"/>
      <use transform="translate(281.542969 0.78125)" xlink:href="#DejaVuSans-48"/>
     </g>
    </g>
    <g id="line2d_19">
     <path d="M 296.345313 48.67875 
L 316.345313 48.67875 
" style="fill:none;stroke:#894da3;stroke-linecap:round;stroke-width:1.5;"/>
    </g>
    <g id="line2d_20"/>
    <g id="text_18">
     <!-- $\sigma = 2.0$ -->
     <g style="fill:#262626;" transform="translate(324.345313 52.17875)scale(0.1 -0.1)">
      <use transform="translate(0 0.78125)" xlink:href="#DejaVuSans-Oblique-963"/>
      <use transform="translate(82.861328 0.78125)" xlink:href="#DejaVuSans-61"/>
      <use transform="translate(186.132812 0.78125)" xlink:href="#DejaVuSans-50"/>
      <use transform="translate(249.755859 0.78125)" xlink:href="#DejaVuSans-46"/>
      <use transform="translate(281.542969 0.78125)" xlink:href="#DejaVuSans-48"/>
     </g>
    </g>
    <g id="line2d_21">
     <path d="M 296.345313 62.824062 
L 316.345313 62.824062 
" style="fill:none;stroke:#8c7dba;stroke-linecap:round;stroke-width:1.5;"/>
    </g>
    <g id="line2d_22"/>
    <g id="text_19">
     <!-- $\sigma = 4.0$ -->
     <defs>
      <path d="M 37.796875 64.3125 
L 12.890625 25.390625 
L 37.796875 25.390625 
z
M 35.203125 72.90625 
L 47.609375 72.90625 
L 47.609375 25.390625 
L 58.015625 25.390625 
L 58.015625 17.1875 
L 47.609375 17.1875 
L 47.609375 0 
L 37.796875 0 
L 37.796875 17.1875 
L 4.890625 17.1875 
L 4.890625 26.703125 
z
" id="DejaVuSans-52"/>
     </defs>
     <g style="fill:#262626;" transform="translate(324.345313 66.324062)scale(0.1 -0.1)">
      <use transform="translate(0 0.78125)" xlink:href="#DejaVuSans-Oblique-963"/>
      <use transform="translate(82.861328 0.78125)" xlink:href="#DejaVuSans-61"/>
      <use transform="translate(186.132812 0.78125)" xlink:href="#DejaVuSans-52"/>
      <use transform="translate(249.755859 0.78125)" xlink:href="#DejaVuSans-46"/>
      <use transform="translate(281.542969 0.78125)" xlink:href="#DejaVuSans-48"/>
     </g>
    </g>
   </g>
  </g>
 </g>
 <defs>
  <clipPath id="pfd69f7d347">
   <rect height="217.44" width="334.8" x="33.145313" y="21.875625"/>
  </clipPath>
 </defs>
</svg>
