<?xml version="1.0" encoding="utf-8" standalone="no"?>
<!DOCTYPE svg PUBLIC "-//W3C//DTD SVG 1.1//EN"
  "http://www.w3.org/Graphics/SVG/1.1/DTD/svg11.dtd">
<!-- Created with matplotlib (https://matplotlib.org/) -->
<svg height="153.976563pt" version="1.1" viewBox="0 0 697.9 153.976563" width="697.9pt" xmlns="http://www.w3.org/2000/svg" xmlns:xlink="http://www.w3.org/1999/xlink">
 <defs>
  <style type="text/css">
*{stroke-linecap:butt;stroke-linejoin:round;}
  </style>
 </defs>
 <g id="figure_1">
  <g id="patch_1">
   <path d="M 0 153.976563 
L 697.9 153.976563 
L 697.9 0 
L 0 0 
z
" style="fill:none;"/>
  </g>
  <g id="axes_1">
   <g id="patch_2">
    <path d="M 14.15 130.63125 
L 211.091176 130.63125 
L 211.091176 21.91125 
L 14.15 21.91125 
z
" style="fill:none;"/>
   </g>
   <g id="matplotlib.axis_1">
    <g id="xtick_1">
     <g id="text_1">
      <!-- 0.0 -->
      <defs>
       <path d="M 4.15625 35.296875 
Q 4.15625 48 6.765625 55.734375 
Q 9.375 63.484375 14.515625 67.671875 
Q 19.671875 71.875 27.484375 71.875 
Q 33.25 71.875 37.59375 69.546875 
Q 41.9375 67.234375 44.765625 62.859375 
Q 47.609375 58.5 49.21875 52.21875 
Q 50.828125 45.953125 50.828125 35.296875 
Q 50.828125 22.703125 48.234375 14.96875 
Q 45.65625 7.234375 40.5 3 
Q 35.359375 -1.21875 27.484375 -1.21875 
Q 17.140625 -1.21875 11.234375 6.203125 
Q 4.15625 15.140625 4.15625 35.296875 
z
M 13.1875 35.296875 
Q 13.1875 17.671875 17.3125 11.828125 
Q 21.4375 6 27.484375 6 
Q 33.546875 6 37.671875 11.859375 
Q 41.796875 17.71875 41.796875 35.296875 
Q 41.796875 52.984375 37.671875 58.78125 
Q 33.546875 64.59375 27.390625 64.59375 
Q 21.34375 64.59375 17.71875 59.46875 
Q 13.1875 52.9375 13.1875 35.296875 
z
" id="ArialMT-48"/>
       <path d="M 9.078125 0 
L 9.078125 10.015625 
L 19.09375 10.015625 
L 19.09375 0 
z
" id="ArialMT-46"/>
      </defs>
      <g style="fill:#262626;" transform="translate(7.2 144.789063)scale(0.1 -0.1)">
       <use xlink:href="#ArialMT-48"/>
       <use x="55.615234" xlink:href="#ArialMT-46"/>
       <use x="83.398438" xlink:href="#ArialMT-48"/>
      </g>
     </g>
    </g>
    <g id="xtick_2">
     <g id="text_2">
      <!-- 0.2 -->
      <defs>
       <path d="M 50.34375 8.453125 
L 50.34375 0 
L 3.03125 0 
Q 2.9375 3.171875 4.046875 6.109375 
Q 5.859375 10.9375 9.828125 15.625 
Q 13.8125 20.3125 21.34375 26.46875 
Q 33.015625 36.03125 37.109375 41.625 
Q 41.21875 47.21875 41.21875 52.203125 
Q 41.21875 57.421875 37.46875 61 
Q 33.734375 64.59375 27.734375 64.59375 
Q 21.390625 64.59375 17.578125 60.78125 
Q 13.765625 56.984375 13.71875 50.25 
L 4.6875 51.171875 
Q 5.609375 61.28125 11.65625 66.578125 
Q 17.71875 71.875 27.9375 71.875 
Q 38.234375 71.875 44.234375 66.15625 
Q 50.25 60.453125 50.25 52 
Q 50.25 47.703125 48.484375 43.546875 
Q 46.734375 39.40625 42.65625 34.8125 
Q 38.578125 30.21875 29.109375 22.21875 
Q 21.1875 15.578125 18.9375 13.203125 
Q 16.703125 10.84375 15.234375 8.453125 
z
" id="ArialMT-50"/>
      </defs>
      <g style="fill:#262626;" transform="translate(46.588235 144.789063)scale(0.1 -0.1)">
       <use xlink:href="#ArialMT-48"/>
       <use x="55.615234" xlink:href="#ArialMT-46"/>
       <use x="83.398438" xlink:href="#ArialMT-50"/>
      </g>
     </g>
    </g>
    <g id="xtick_3">
     <g id="text_3">
      <!-- 0.4 -->
      <defs>
       <path d="M 32.328125 0 
L 32.328125 17.140625 
L 1.265625 17.140625 
L 1.265625 25.203125 
L 33.9375 71.578125 
L 41.109375 71.578125 
L 41.109375 25.203125 
L 50.78125 25.203125 
L 50.78125 17.140625 
L 41.109375 17.140625 
L 41.109375 0 
z
M 32.328125 25.203125 
L 32.328125 57.46875 
L 9.90625 25.203125 
z
" id="ArialMT-52"/>
      </defs>
      <g style="fill:#262626;" transform="translate(85.976471 144.789063)scale(0.1 -0.1)">
       <use xlink:href="#ArialMT-48"/>
       <use x="55.615234" xlink:href="#ArialMT-46"/>
       <use x="83.398438" xlink:href="#ArialMT-52"/>
      </g>
     </g>
    </g>
    <g id="xtick_4">
     <g id="text_4">
      <!-- 0.6 -->
      <defs>
       <path d="M 49.75 54.046875 
L 41.015625 53.375 
Q 39.84375 58.546875 37.703125 60.890625 
Q 34.125 64.65625 28.90625 64.65625 
Q 24.703125 64.65625 21.53125 62.3125 
Q 17.390625 59.28125 14.984375 53.46875 
Q 12.59375 47.65625 12.5 36.921875 
Q 15.671875 41.75 20.265625 44.09375 
Q 24.859375 46.4375 29.890625 46.4375 
Q 38.671875 46.4375 44.84375 39.96875 
Q 51.03125 33.5 51.03125 23.25 
Q 51.03125 16.5 48.125 10.71875 
Q 45.21875 4.9375 40.140625 1.859375 
Q 35.0625 -1.21875 28.609375 -1.21875 
Q 17.625 -1.21875 10.6875 6.859375 
Q 3.765625 14.9375 3.765625 33.5 
Q 3.765625 54.25 11.421875 63.671875 
Q 18.109375 71.875 29.4375 71.875 
Q 37.890625 71.875 43.28125 67.140625 
Q 48.6875 62.40625 49.75 54.046875 
z
M 13.875 23.1875 
Q 13.875 18.65625 15.796875 14.5 
Q 17.71875 10.359375 21.1875 8.171875 
Q 24.65625 6 28.46875 6 
Q 34.03125 6 38.03125 10.484375 
Q 42.046875 14.984375 42.046875 22.703125 
Q 42.046875 30.125 38.078125 34.390625 
Q 34.125 38.671875 28.125 38.671875 
Q 22.171875 38.671875 18.015625 34.390625 
Q 13.875 30.125 13.875 23.1875 
z
" id="ArialMT-54"/>
      </defs>
      <g style="fill:#262626;" transform="translate(125.364706 144.789063)scale(0.1 -0.1)">
       <use xlink:href="#ArialMT-48"/>
       <use x="55.615234" xlink:href="#ArialMT-46"/>
       <use x="83.398438" xlink:href="#ArialMT-54"/>
      </g>
     </g>
    </g>
    <g id="xtick_5">
     <g id="text_5">
      <!-- 0.8 -->
      <defs>
       <path d="M 17.671875 38.8125 
Q 12.203125 40.828125 9.5625 44.53125 
Q 6.9375 48.25 6.9375 53.421875 
Q 6.9375 61.234375 12.546875 66.546875 
Q 18.171875 71.875 27.484375 71.875 
Q 36.859375 71.875 42.578125 66.421875 
Q 48.296875 60.984375 48.296875 53.171875 
Q 48.296875 48.1875 45.671875 44.5 
Q 43.0625 40.828125 37.75 38.8125 
Q 44.34375 36.671875 47.78125 31.875 
Q 51.21875 27.09375 51.21875 20.453125 
Q 51.21875 11.28125 44.71875 5.03125 
Q 38.234375 -1.21875 27.640625 -1.21875 
Q 17.046875 -1.21875 10.546875 5.046875 
Q 4.046875 11.328125 4.046875 20.703125 
Q 4.046875 27.6875 7.59375 32.390625 
Q 11.140625 37.109375 17.671875 38.8125 
z
M 15.921875 53.71875 
Q 15.921875 48.640625 19.1875 45.40625 
Q 22.46875 42.1875 27.6875 42.1875 
Q 32.765625 42.1875 36.015625 45.375 
Q 39.265625 48.578125 39.265625 53.21875 
Q 39.265625 58.0625 35.90625 61.359375 
Q 32.5625 64.65625 27.59375 64.65625 
Q 22.5625 64.65625 19.234375 61.421875 
Q 15.921875 58.203125 15.921875 53.71875 
z
M 13.09375 20.65625 
Q 13.09375 16.890625 14.875 13.375 
Q 16.65625 9.859375 20.171875 7.921875 
Q 23.6875 6 27.734375 6 
Q 34.03125 6 38.125 10.046875 
Q 42.234375 14.109375 42.234375 20.359375 
Q 42.234375 26.703125 38.015625 30.859375 
Q 33.796875 35.015625 27.4375 35.015625 
Q 21.234375 35.015625 17.15625 30.90625 
Q 13.09375 26.8125 13.09375 20.65625 
z
" id="ArialMT-56"/>
      </defs>
      <g style="fill:#262626;" transform="translate(164.752941 144.789063)scale(0.1 -0.1)">
       <use xlink:href="#ArialMT-48"/>
       <use x="55.615234" xlink:href="#ArialMT-46"/>
       <use x="83.398438" xlink:href="#ArialMT-56"/>
      </g>
     </g>
    </g>
    <g id="xtick_6">
     <g id="text_6">
      <!-- 1.0 -->
      <defs>
       <path d="M 37.25 0 
L 28.46875 0 
L 28.46875 56 
Q 25.296875 52.984375 20.140625 49.953125 
Q 14.984375 46.921875 10.890625 45.40625 
L 10.890625 53.90625 
Q 18.265625 57.375 23.78125 62.296875 
Q 29.296875 67.234375 31.59375 71.875 
L 37.25 71.875 
z
" id="ArialMT-49"/>
      </defs>
      <g style="fill:#262626;" transform="translate(204.141176 144.789063)scale(0.1 -0.1)">
       <use xlink:href="#ArialMT-49"/>
       <use x="55.615234" xlink:href="#ArialMT-46"/>
       <use x="83.398438" xlink:href="#ArialMT-48"/>
      </g>
     </g>
    </g>
   </g>
   <g id="matplotlib.axis_2"/>
   <g id="PolyCollection_1">
    <defs>
     <path d="M 14.15 -126.88817 
L 14.15 -23.345313 
L 15.449544 -23.345313 
L 16.749088 -23.345313 
L 18.048631 -23.345313 
L 19.348175 -23.345313 
L 20.647719 -23.345313 
L 21.947263 -23.345313 
L 23.246807 -23.345313 
L 24.546351 -23.345313 
L 25.845894 -23.345313 
L 27.145438 -23.345313 
L 28.444982 -23.345313 
L 29.744526 -23.345313 
L 31.04407 -23.345313 
L 32.343613 -23.345313 
L 33.643157 -23.345313 
L 34.942701 -23.345313 
L 36.242245 -23.345313 
L 37.541789 -23.345313 
L 38.841333 -23.345313 
L 40.140876 -23.345313 
L 41.44042 -23.345313 
L 42.739964 -23.345313 
L 44.039508 -23.345313 
L 45.339052 -23.345313 
L 46.638595 -23.345313 
L 47.938139 -23.345313 
L 49.237683 -23.345313 
L 50.537227 -23.345313 
L 51.836771 -23.345313 
L 53.136315 -23.345313 
L 54.435858 -23.345313 
L 55.735402 -23.345313 
L 57.034946 -23.345313 
L 58.33449 -23.345313 
L 59.634034 -23.345313 
L 60.933577 -23.345313 
L 62.233121 -23.345313 
L 63.532665 -23.345313 
L 64.832209 -23.345313 
L 66.131753 -23.345313 
L 67.431297 -23.345313 
L 68.73084 -23.345313 
L 70.030384 -23.345313 
L 71.329928 -23.345313 
L 72.629472 -23.345313 
L 73.929016 -23.345313 
L 75.228559 -23.345313 
L 76.528103 -23.345313 
L 77.827647 -23.345313 
L 77.827647 -126.88817 
L 77.827647 -126.88817 
L 76.528103 -126.88817 
L 75.228559 -126.88817 
L 73.929016 -126.88817 
L 72.629472 -126.88817 
L 71.329928 -126.88817 
L 70.030384 -126.88817 
L 68.73084 -126.88817 
L 67.431297 -126.88817 
L 66.131753 -126.88817 
L 64.832209 -126.88817 
L 63.532665 -126.88817 
L 62.233121 -126.88817 
L 60.933577 -126.88817 
L 59.634034 -126.88817 
L 58.33449 -126.88817 
L 57.034946 -126.88817 
L 55.735402 -126.88817 
L 54.435858 -126.88817 
L 53.136315 -126.88817 
L 51.836771 -126.88817 
L 50.537227 -126.88817 
L 49.237683 -126.88817 
L 47.938139 -126.88817 
L 46.638595 -126.88817 
L 45.339052 -126.88817 
L 44.039508 -126.88817 
L 42.739964 -126.88817 
L 41.44042 -126.88817 
L 40.140876 -126.88817 
L 38.841333 -126.88817 
L 37.541789 -126.88817 
L 36.242245 -126.88817 
L 34.942701 -126.88817 
L 33.643157 -126.88817 
L 32.343613 -126.88817 
L 31.04407 -126.88817 
L 29.744526 -126.88817 
L 28.444982 -126.88817 
L 27.145438 -126.88817 
L 25.845894 -126.88817 
L 24.546351 -126.88817 
L 23.246807 -126.88817 
L 21.947263 -126.88817 
L 20.647719 -126.88817 
L 19.348175 -126.88817 
L 18.048631 -126.88817 
L 16.749088 -126.88817 
L 15.449544 -126.88817 
L 14.15 -126.88817 
z
" id="m044a00560f" style="stroke:#999999;stroke-opacity:0.1;"/>
    </defs>
    <g clip-path="url(#p8cd65bb7ba)">
     <use style="fill:#999999;fill-opacity:0.1;stroke:#999999;stroke-opacity:0.1;" x="0" xlink:href="#m044a00560f" y="153.976563"/>
    </g>
   </g>
   <g id="PolyCollection_2">
    <defs>
     <path d="M 81.766471 -126.88817 
L 81.766471 -23.345313 
L 83.025822 -23.345313 
L 84.285174 -23.345313 
L 85.544526 -23.345313 
L 86.803878 -23.345313 
L 88.063229 -23.345313 
L 89.322581 -23.345313 
L 90.581933 -23.345313 
L 91.841285 -23.345313 
L 93.100636 -23.345313 
L 94.359988 -23.345313 
L 95.61934 -23.345313 
L 96.878691 -23.345313 
L 98.138043 -23.345313 
L 99.397395 -23.345313 
L 100.656747 -23.345313 
L 101.916098 -23.345313 
L 103.17545 -23.345313 
L 104.434802 -23.345313 
L 105.694154 -23.345313 
L 106.953505 -23.345313 
L 108.212857 -23.345313 
L 109.472209 -23.345313 
L 110.731561 -23.345313 
L 111.990912 -23.345313 
L 113.250264 -23.345313 
L 114.509616 -23.345313 
L 115.768968 -23.345313 
L 117.028319 -23.345313 
L 118.287671 -23.345313 
L 119.547023 -23.345313 
L 120.806375 -23.345313 
L 122.065726 -23.345313 
L 123.325078 -23.345313 
L 124.58443 -23.345313 
L 125.843782 -23.345313 
L 127.103133 -23.345313 
L 128.362485 -23.345313 
L 129.621837 -23.345313 
L 130.881188 -23.345313 
L 132.14054 -23.345313 
L 133.399892 -23.345313 
L 134.659244 -23.345313 
L 135.918595 -23.345313 
L 137.177947 -23.345313 
L 138.437299 -23.345313 
L 139.696651 -23.345313 
L 140.956002 -23.345313 
L 142.215354 -23.345313 
L 143.474706 -23.345313 
L 143.474706 -126.88817 
L 143.474706 -126.88817 
L 142.215354 -126.88817 
L 140.956002 -126.88817 
L 139.696651 -126.88817 
L 138.437299 -126.88817 
L 137.177947 -126.88817 
L 135.918595 -126.88817 
L 134.659244 -126.88817 
L 133.399892 -126.88817 
L 132.14054 -126.88817 
L 130.881188 -126.88817 
L 129.621837 -126.88817 
L 128.362485 -126.88817 
L 127.103133 -126.88817 
L 125.843782 -126.88817 
L 124.58443 -126.88817 
L 123.325078 -126.88817 
L 122.065726 -126.88817 
L 120.806375 -126.88817 
L 119.547023 -126.88817 
L 118.287671 -126.88817 
L 117.028319 -126.88817 
L 115.768968 -126.88817 
L 114.509616 -126.88817 
L 113.250264 -126.88817 
L 111.990912 -126.88817 
L 110.731561 -126.88817 
L 109.472209 -126.88817 
L 108.212857 -126.88817 
L 106.953505 -126.88817 
L 105.694154 -126.88817 
L 104.434802 -126.88817 
L 103.17545 -126.88817 
L 101.916098 -126.88817 
L 100.656747 -126.88817 
L 99.397395 -126.88817 
L 98.138043 -126.88817 
L 96.878691 -126.88817 
L 95.61934 -126.88817 
L 94.359988 -126.88817 
L 93.100636 -126.88817 
L 91.841285 -126.88817 
L 90.581933 -126.88817 
L 89.322581 -126.88817 
L 88.063229 -126.88817 
L 86.803878 -126.88817 
L 85.544526 -126.88817 
L 84.285174 -126.88817 
L 83.025822 -126.88817 
L 81.766471 -126.88817 
z
" id="mb8b7eeb88a" style="stroke:#999999;stroke-opacity:0.1;"/>
    </defs>
    <g clip-path="url(#p8cd65bb7ba)">
     <use style="fill:#999999;fill-opacity:0.1;stroke:#999999;stroke-opacity:0.1;" x="0" xlink:href="#mb8b7eeb88a" y="153.976563"/>
    </g>
   </g>
   <g id="PolyCollection_3">
    <defs>
     <path d="M 147.413529 -126.88817 
L 147.413529 -23.345313 
L 148.713073 -23.345313 
L 150.012617 -23.345313 
L 151.312161 -23.345313 
L 152.611705 -23.345313 
L 153.911248 -23.345313 
L 155.210792 -23.345313 
L 156.510336 -23.345313 
L 157.80988 -23.345313 
L 159.109424 -23.345313 
L 160.408968 -23.345313 
L 161.708511 -23.345313 
L 163.008055 -23.345313 
L 164.307599 -23.345313 
L 165.607143 -23.345313 
L 166.906687 -23.345313 
L 168.20623 -23.345313 
L 169.505774 -23.345313 
L 170.805318 -23.345313 
L 172.104862 -23.345313 
L 173.404406 -23.345313 
L 174.70395 -23.345313 
L 176.003493 -23.345313 
L 177.303037 -23.345313 
L 178.602581 -23.345313 
L 179.902125 -23.345313 
L 181.201669 -23.345313 
L 182.501212 -23.345313 
L 183.800756 -23.345313 
L 185.1003 -23.345313 
L 186.399844 -23.345313 
L 187.699388 -23.345313 
L 188.998932 -23.345313 
L 190.298475 -23.345313 
L 191.598019 -23.345313 
L 192.897563 -23.345313 
L 194.197107 -23.345313 
L 195.496651 -23.345313 
L 196.796194 -23.345313 
L 198.095738 -23.345313 
L 199.395282 -23.345313 
L 200.694826 -23.345313 
L 201.99437 -23.345313 
L 203.293914 -23.345313 
L 204.593457 -23.345313 
L 205.893001 -23.345313 
L 207.192545 -23.345313 
L 208.492089 -23.345313 
L 209.791633 -23.345313 
L 211.091176 -23.345313 
L 211.091176 -126.88817 
L 211.091176 -126.88817 
L 209.791633 -126.88817 
L 208.492089 -126.88817 
L 207.192545 -126.88817 
L 205.893001 -126.88817 
L 204.593457 -126.88817 
L 203.293914 -126.88817 
L 201.99437 -126.88817 
L 200.694826 -126.88817 
L 199.395282 -126.88817 
L 198.095738 -126.88817 
L 196.796194 -126.88817 
L 195.496651 -126.88817 
L 194.197107 -126.88817 
L 192.897563 -126.88817 
L 191.598019 -126.88817 
L 190.298475 -126.88817 
L 188.998932 -126.88817 
L 187.699388 -126.88817 
L 186.399844 -126.88817 
L 185.1003 -126.88817 
L 183.800756 -126.88817 
L 182.501212 -126.88817 
L 181.201669 -126.88817 
L 179.902125 -126.88817 
L 178.602581 -126.88817 
L 177.303037 -126.88817 
L 176.003493 -126.88817 
L 174.70395 -126.88817 
L 173.404406 -126.88817 
L 172.104862 -126.88817 
L 170.805318 -126.88817 
L 169.505774 -126.88817 
L 168.20623 -126.88817 
L 166.906687 -126.88817 
L 165.607143 -126.88817 
L 164.307599 -126.88817 
L 163.008055 -126.88817 
L 161.708511 -126.88817 
L 160.408968 -126.88817 
L 159.109424 -126.88817 
L 157.80988 -126.88817 
L 156.510336 -126.88817 
L 155.210792 -126.88817 
L 153.911248 -126.88817 
L 152.611705 -126.88817 
L 151.312161 -126.88817 
L 150.012617 -126.88817 
L 148.713073 -126.88817 
L 147.413529 -126.88817 
z
" id="m806f7fb1a1" style="stroke:#999999;stroke-opacity:0.1;"/>
    </defs>
    <g clip-path="url(#p8cd65bb7ba)">
     <use style="fill:#999999;fill-opacity:0.1;stroke:#999999;stroke-opacity:0.1;" x="0" xlink:href="#m806f7fb1a1" y="153.976563"/>
    </g>
   </g>
   <g id="PathCollection_1">
    <defs>
     <path d="M -0 1.118034 
L 1.118034 -1.118034 
L -1.118034 -1.118034 
z
" id="m1a217cbb86" style="stroke:#4d089a;"/>
    </defs>
    <g clip-path="url(#p8cd65bb7ba)">
     <use style="fill:#4d089a;stroke:#4d089a;" x="46.638595" xlink:href="#m1a217cbb86" y="127.832794"/>
     <use style="fill:#4d089a;stroke:#4d089a;" x="113.250264" xlink:href="#m1a217cbb86" y="127.832794"/>
     <use style="fill:#4d089a;stroke:#4d089a;" x="179.902125" xlink:href="#m1a217cbb86" y="127.832794"/>
    </g>
   </g>
   <g id="line2d_1">
    <path clip-path="url(#p8cd65bb7ba)" d="M 14.15 130.63125 
L 16.139305 130.63125 
L 18.12861 130.63125 
L 20.117914 130.63125 
L 22.107219 130.631248 
L 24.096524 130.631242 
L 26.085829 130.631223 
L 28.075134 130.631173 
L 30.064439 130.631058 
L 32.053743 130.630823 
L 34.043048 130.630376 
L 36.032353 130.629586 
L 38.021658 130.628259 
L 40.010963 130.626132 
L 42.000267 130.622851 
L 43.989572 130.617955 
L 45.978877 130.610856 
L 47.968182 130.600822 
L 49.957487 130.586952 
L 51.946791 130.56816 
L 53.936096 130.543152 
L 55.925401 130.510405 
L 57.914706 130.468154 
L 59.904011 130.414367 
L 61.893316 130.346735 
L 63.88262 130.262657 
L 65.871925 130.159227 
L 67.86123 130.03323 
L 69.850535 129.881136 
L 71.83984 129.699099 
L 73.829144 129.482961 
L 75.818449 129.228262 
L 77.807754 128.930253 
L 79.797059 128.583912 
L 81.786364 128.183972 
L 83.775668 127.72495 
L 85.764973 127.201182 
L 87.754278 126.606864 
L 89.743583 125.936105 
L 91.732888 125.182976 
L 93.722193 124.341576 
L 95.711497 123.406095 
L 97.700802 122.370891 
L 99.690107 121.230567 
L 101.679412 119.980056 
L 103.668717 118.614714 
L 105.658021 117.130412 
L 107.647326 115.523637 
L 109.636631 113.791595 
L 111.625936 111.932321 
L 113.615241 109.944781 
L 115.604545 107.828991 
L 117.59385 105.58612 
L 119.583155 103.218606 
L 121.57246 100.730264 
L 123.561765 98.126386 
L 125.55107 95.413852 
L 127.540374 92.601214 
L 129.529679 89.698791 
L 131.518984 86.718743 
L 133.508289 83.675137 
L 135.497594 80.584001 
L 137.486898 77.463358 
L 139.476203 74.333243 
L 141.465508 71.215706 
L 143.454813 68.134778 
L 145.444118 65.116423 
L 147.433422 62.188454 
L 149.422727 59.380417 
L 151.412032 56.723443 
L 153.401337 54.250056 
L 155.390642 51.993936 
L 157.379947 49.989643 
L 159.369251 48.272284 
L 161.358556 46.877121 
L 163.347861 45.839129 
L 165.337166 45.19248 
L 167.326471 44.96996 
L 169.315775 45.202318 
L 171.30508 45.917521 
L 173.294385 47.139939 
L 175.28369 48.889428 
L 177.272995 51.180321 
L 179.262299 54.020312 
L 181.251604 57.409233 
L 183.240909 61.337714 
L 185.230214 65.785722 
L 187.219519 70.720959 
L 189.208824 76.097138 
L 191.198128 81.852101 
L 193.187433 87.905789 
L 195.176738 94.158048 
L 197.166043 100.486267 
L 199.155348 106.742836 
L 201.144652 112.752418 
L 203.133957 118.309018 
L 205.123262 123.172856 
L 207.112567 127.067015 
L 209.101872 129.673865 
L 211.091176 130.63125 
" style="fill:none;stroke:#821580;stroke-linecap:round;stroke-width:1.5;"/>
   </g>
   <g id="patch_3">
    <path d="M 14.15 130.63125 
L 211.091176 130.63125 
" style="fill:none;stroke:#cccccc;stroke-linecap:square;stroke-linejoin:miter;stroke-width:0.8;"/>
   </g>
   <g id="text_7">
    <!-- $A$ -->
    <defs>
     <path d="M 36.8125 72.90625 
L 48 72.90625 
L 61.53125 0 
L 51.21875 0 
L 48.1875 18.703125 
L 15.375 18.703125 
L 5.078125 0 
L -5.328125 0 
z
M 40.375 63.1875 
L 19.921875 26.90625 
L 46.6875 26.90625 
z
" id="DejaVuSans-Oblique-65"/>
    </defs>
    <g style="fill:#262626;" transform="translate(19.073529 41.080671)scale(0.1 -0.1)">
     <use transform="translate(0 0.09375)" xlink:href="#DejaVuSans-Oblique-65"/>
    </g>
   </g>
   <g id="text_8">
    <!-- $B$ -->
    <defs>
     <path d="M 16.890625 72.90625 
L 42.09375 72.90625 
Q 52.34375 72.90625 57.421875 69.09375 
Q 62.5 65.28125 62.5 57.625 
Q 62.5 50.59375 58.125 45.484375 
Q 53.765625 40.375 46.6875 39.3125 
Q 52.734375 37.9375 55.765625 34.078125 
Q 58.796875 30.21875 58.796875 23.78125 
Q 58.796875 12.796875 50.65625 6.390625 
Q 42.53125 0 28.421875 0 
L 2.6875 0 
z
M 19.28125 34.8125 
L 14.109375 8.109375 
L 29.984375 8.109375 
Q 38.921875 8.109375 43.75 12.203125 
Q 48.578125 16.3125 48.578125 23.78125 
Q 48.578125 29.546875 45.375 32.171875 
Q 42.1875 34.8125 35.109375 34.8125 
z
M 25.09375 64.796875 
L 20.796875 42.828125 
L 35.5 42.828125 
Q 43.359375 42.828125 47.78125 46.234375 
Q 52.203125 49.65625 52.203125 55.71875 
Q 52.203125 60.453125 49.21875 62.625 
Q 46.234375 64.796875 39.703125 64.796875 
z
" id="DejaVuSans-Oblique-66"/>
    </defs>
    <g style="fill:#262626;" transform="translate(86.69 41.080671)scale(0.1 -0.1)">
     <use transform="translate(0 0.09375)" xlink:href="#DejaVuSans-Oblique-66"/>
    </g>
   </g>
   <g id="text_9">
    <!-- $C$ -->
    <defs>
     <path d="M 69.484375 67.28125 
L 67.484375 56.890625 
Q 62.796875 61.625 57.546875 63.921875 
Q 52.296875 66.21875 46.1875 66.21875 
Q 37.84375 66.21875 31.515625 62.203125 
Q 25.203125 58.203125 20.609375 50 
Q 17.671875 44.734375 16.125 38.84375 
Q 14.59375 32.953125 14.59375 27 
Q 14.59375 17.046875 19.75 11.8125 
Q 24.90625 6.59375 34.71875 6.59375 
Q 41.5 6.59375 47.75 8.765625 
Q 54 10.9375 59.90625 15.28125 
L 57.625 3.609375 
Q 51.8125 1.125 45.875 -0.140625 
Q 39.9375 -1.421875 33.984375 -1.421875 
Q 19.96875 -1.421875 12.078125 6.1875 
Q 4.203125 13.8125 4.203125 27.390625 
Q 4.203125 36.078125 7.203125 44.46875 
Q 10.203125 52.875 15.828125 59.8125 
Q 21.78125 67.1875 29.421875 70.703125 
Q 37.0625 74.21875 47.21875 74.21875 
Q 53.46875 74.21875 59.0625 72.484375 
Q 64.65625 70.75 69.484375 67.28125 
z
" id="DejaVuSans-Oblique-67"/>
    </defs>
    <g style="fill:#262626;" transform="translate(152.337059 41.080671)scale(0.1 -0.1)">
     <use transform="translate(0 0.78125)" xlink:href="#DejaVuSans-Oblique-67"/>
    </g>
   </g>
   <g id="text_10">
    <!-- Uniform segmentation -->
    <defs>
     <path d="M 82.40625 71 
L 82.40625 72 
L 57.59375 72 
L 57.59375 71 
Q 62.40625 70.296875 64.84375 68.546875 
Q 67.296875 66.796875 68.296875 64 
Q 68.703125 63 68.890625 61.34375 
Q 69.09375 59.703125 69.1875 57.796875 
Q 69.296875 55.90625 69.34375 53.796875 
Q 69.40625 51.703125 69.40625 49.703125 
Q 69.40625 47.59375 69.40625 45.59375 
Q 69.40625 43.703125 69.40625 41.703125 
Q 69.40625 39.796875 69.40625 37.59375 
Q 69.40625 35.40625 69.40625 32.703125 
Q 69.40625 29.296875 69.15625 25.75 
Q 68.90625 22.203125 68.15625 18.796875 
Q 67.40625 15.40625 65.84375 12.40625 
Q 64.296875 9.40625 61.640625 7.09375 
Q 59 4.796875 55.046875 3.5 
Q 51.09375 2.203125 45.40625 2.203125 
Q 40.40625 2.203125 36.5 3.84375 
Q 32.59375 5.5 29.890625 8.546875 
Q 27.203125 11.59375 25.703125 15.9375 
Q 24.203125 20.296875 24.09375 25.59375 
Q 24.09375 28 24.046875 30.140625 
Q 24 32.296875 24 34.59375 
Q 24 37 24 39.703125 
Q 24 42.40625 24 45.796875 
Q 24 48.5 24 50.5 
Q 24 52.59375 24 54.5 
Q 24 56.40625 24.046875 58.40625 
Q 24.09375 60.40625 24.203125 63 
Q 24.296875 65.296875 25.1875 66.796875 
Q 26.09375 68.296875 27.390625 69.140625 
Q 28.703125 70 30.296875 70.390625 
Q 31.90625 70.796875 33.296875 71 
L 33.296875 72 
L 3.5 72 
L 3.5 71 
Q 6.09375 70.703125 8.140625 69.953125 
Q 10.203125 69.203125 11.59375 67.5 
Q 12.203125 66.796875 12.5 65.546875 
Q 12.796875 64.296875 12.9375 62.75 
Q 13.09375 61.203125 13.09375 59.40625 
Q 13.09375 57.59375 13.09375 55.796875 
L 13.09375 42.5 
Q 13.09375 37 13.046875 32.5 
Q 13 28 13 25.203125 
Q 13 24 13.140625 21.546875 
Q 13.296875 19.09375 14.140625 16.140625 
Q 15 13.203125 16.75 10.140625 
Q 18.5 7.09375 21.703125 4.546875 
Q 24.90625 2 29.84375 0.5 
Q 34.796875 -1 42 -1 
Q 49.296875 -1 54.296875 0.546875 
Q 59.296875 2.09375 62.5 4.75 
Q 65.703125 7.40625 67.453125 10.65625 
Q 69.203125 13.90625 70 17.15625 
Q 70.796875 20.40625 70.9375 23.296875 
Q 71.09375 26.203125 71.203125 28.09375 
Q 71.40625 34.796875 71.546875 40.09375 
Q 71.703125 45.40625 71.796875 49.703125 
Q 71.796875 52 71.890625 54.34375 
Q 72 56.703125 72.203125 58.796875 
Q 72.40625 60.90625 72.65625 62.5 
Q 72.90625 64.09375 73.203125 64.796875 
Q 74.40625 67.703125 76.546875 69.09375 
Q 78.703125 70.5 82.40625 71 
z
" id="BigCaslon-Medium-85"/>
     <path d="M 51.203125 0 
L 51.203125 0.90625 
Q 50.296875 1 49.25 1.140625 
Q 48.203125 1.296875 47.296875 1.546875 
Q 46.40625 1.796875 45.75 2.296875 
Q 45.09375 2.796875 45.09375 3.5 
L 45.09375 32.90625 
Q 45.09375 39.703125 42 44 
Q 38.90625 48.296875 33.09375 48.296875 
Q 30.40625 48.296875 27.90625 47.25 
Q 25.40625 46.203125 23.296875 44.59375 
Q 21.203125 43 19.546875 41.046875 
Q 17.90625 39.09375 16.796875 37.40625 
L 16.59375 37.5 
L 16.59375 48.296875 
L 16 48.296875 
L 2.90625 43.59375 
L 2.90625 43 
Q 4.09375 42.5 5.296875 41.84375 
Q 6.5 41.203125 7.40625 40.703125 
Q 8.09375 40.203125 8.25 39.796875 
Q 8.40625 39.40625 8.40625 38.59375 
L 8.40625 4.203125 
Q 8.40625 2.59375 6.75 1.890625 
Q 5.09375 1.203125 2.796875 1 
L 2.796875 0 
L 22.09375 0 
L 22.09375 1 
Q 21.09375 1.203125 20.1875 1.25 
Q 19.296875 1.296875 18.59375 1.5 
Q 17.90625 1.703125 17.40625 2.140625 
Q 16.90625 2.59375 16.703125 3.59375 
L 16.703125 36.40625 
Q 19.40625 39.09375 21.59375 40.5 
Q 23.796875 41.90625 27.09375 41.90625 
Q 32.296875 41.90625 34.5 38.34375 
Q 36.703125 34.796875 36.703125 29 
L 36.703125 3.796875 
Q 36.703125 2.203125 35.09375 1.75 
Q 33.5 1.296875 30.796875 1.09375 
L 30.796875 0 
z
" id="BigCaslon-Medium-110"/>
     <path d="M 17.703125 64.09375 
Q 17.703125 66.40625 16.140625 67.90625 
Q 14.59375 69.40625 12.296875 69.40625 
Q 10 69.40625 8.453125 67.90625 
Q 6.90625 66.40625 6.90625 64.09375 
Q 6.90625 61.90625 8.5 60.296875 
Q 10.09375 58.703125 12.296875 58.703125 
Q 14.59375 58.703125 16.140625 60.25 
Q 17.703125 61.796875 17.703125 64.09375 
z
M 23.296875 0 
L 23.296875 1 
Q 22.296875 1.203125 21.25 1.25 
Q 20.203125 1.296875 19.296875 1.5 
Q 18.40625 1.703125 17.75 2.140625 
Q 17.09375 2.59375 16.90625 3.59375 
L 16.90625 48.296875 
L 16.296875 48.296875 
L 2.796875 43.90625 
L 2.796875 43.296875 
Q 4.203125 42.796875 5.453125 42.1875 
Q 6.703125 41.59375 7.59375 41 
Q 8.296875 40.5 8.4375 39.890625 
Q 8.59375 39.296875 8.59375 38.5 
L 8.59375 4.203125 
Q 8.59375 3.296875 7.9375 2.6875 
Q 7.296875 2.09375 6.34375 1.75 
Q 5.40625 1.40625 4.203125 1.25 
Q 3 1.09375 1.796875 1 
L 1.796875 0 
z
" id="BigCaslon-Medium-105"/>
     <path d="M 37.90625 67.5 
Q 37.90625 68.90625 37.15625 69.84375 
Q 36.40625 70.796875 35.25 71.390625 
Q 34.09375 72 32.640625 72.296875 
Q 31.203125 72.59375 29.703125 72.59375 
Q 26.5 72.59375 23.453125 71.75 
Q 20.40625 70.90625 17.84375 69.453125 
Q 15.296875 68 13.296875 66.046875 
Q 11.296875 64.09375 10.203125 61.796875 
Q 9.09375 59.59375 8.84375 55.546875 
Q 8.59375 51.5 8.59375 47.296875 
L 2.40625 47.296875 
L 1.296875 42.90625 
L 8.5 42.90625 
L 8.5 4.203125 
Q 8.5 3.40625 7.59375 2.84375 
Q 6.703125 2.296875 5.34375 1.9375 
Q 4 1.59375 2.546875 1.34375 
Q 1.09375 1.09375 0 1 
L 0 0 
L 25.40625 0 
L 25.40625 1 
Q 23.90625 1.203125 22.453125 1.296875 
Q 21 1.40625 19.796875 1.703125 
Q 18.59375 2 17.796875 2.5 
Q 17 3 16.796875 3.90625 
L 16.796875 42.90625 
L 27.40625 42.90625 
L 28.703125 47.296875 
L 16.90625 47.296875 
Q 16.90625 50.90625 16.953125 53.75 
Q 17 56.59375 17.203125 60.59375 
Q 17.40625 63.703125 18.25 65.546875 
Q 19.09375 67.40625 20.25 68.34375 
Q 21.40625 69.296875 22.5 69.59375 
Q 23.59375 69.90625 24.203125 69.90625 
Q 25.40625 69.5 26.34375 68.296875 
Q 27.296875 67.09375 28.34375 65.84375 
Q 29.40625 64.59375 30.65625 63.640625 
Q 31.90625 62.703125 33.703125 62.703125 
Q 35.59375 62.703125 36.75 64.203125 
Q 37.90625 65.703125 37.90625 67.5 
z
" id="BigCaslon-Medium-102"/>
     <path d="M 49.203125 24.5 
Q 49.203125 30.5 47.046875 34.953125 
Q 44.90625 39.40625 41.546875 42.34375 
Q 38.203125 45.296875 34.09375 46.796875 
Q 30 48.296875 26 48.296875 
Q 20.59375 48.296875 16.140625 46.296875 
Q 11.703125 44.296875 8.546875 41 
Q 5.40625 37.703125 3.65625 33.390625 
Q 1.90625 29.09375 1.90625 24.5 
Q 1.90625 18.09375 4.15625 13.34375 
Q 6.40625 8.59375 9.953125 5.546875 
Q 13.5 2.5 17.703125 1.09375 
Q 21.90625 -0.296875 25.796875 -0.296875 
Q 30.5 -0.296875 34.75 1.59375 
Q 39 3.5 42.203125 6.890625 
Q 45.40625 10.296875 47.296875 14.84375 
Q 49.203125 19.40625 49.203125 24.5 
z
M 39.90625 24.59375 
Q 39.90625 21.09375 39.15625 17 
Q 38.40625 12.90625 36.75 9.34375 
Q 35.09375 5.796875 32.4375 3.4375 
Q 29.796875 1.09375 25.90625 1.09375 
Q 22 1.09375 19.203125 2.9375 
Q 16.40625 4.796875 14.59375 7.9375 
Q 12.796875 11.09375 12 15.1875 
Q 11.203125 19.296875 11.203125 23.90625 
Q 11.203125 28.09375 12.140625 32.140625 
Q 13.09375 36.203125 14.9375 39.453125 
Q 16.796875 42.703125 19.390625 44.703125 
Q 22 46.703125 25.296875 46.703125 
Q 29.40625 46.703125 32.203125 44.546875 
Q 35 42.40625 36.703125 39.09375 
Q 38.40625 35.796875 39.15625 31.890625 
Q 39.90625 28 39.90625 24.59375 
z
" id="BigCaslon-Medium-111"/>
     <path d="M 36.703125 43 
Q 36.703125 45.296875 34.953125 46.796875 
Q 33.203125 48.296875 30.703125 48.296875 
Q 27.59375 48.296875 25.1875 46.59375 
Q 22.796875 44.90625 21.09375 42.546875 
Q 19.40625 40.203125 18.296875 37.890625 
Q 17.203125 35.59375 16.703125 34.40625 
L 16.5 34.40625 
L 16.703125 48.296875 
L 16.09375 48.296875 
L 3 43.203125 
L 3 42.59375 
Q 4.203125 42.09375 5.390625 41.34375 
Q 6.59375 40.59375 7.5 40.09375 
Q 8.203125 39.59375 8.34375 39.1875 
Q 8.5 38.796875 8.5 38 
L 8.5 4.203125 
Q 8.5 2.59375 6.84375 1.890625 
Q 5.203125 1.203125 2.90625 1 
L 2.90625 0 
L 25.296875 0 
L 25.296875 1 
Q 24.296875 1.203125 22.9375 1.25 
Q 21.59375 1.296875 20.34375 1.5 
Q 19.09375 1.703125 18.09375 2.203125 
Q 17.09375 2.703125 16.796875 3.59375 
L 16.796875 32.40625 
Q 17.40625 33.90625 18.203125 35.546875 
Q 19 37.203125 20 38.5 
Q 21 39.796875 22.140625 40.640625 
Q 23.296875 41.5 24.5 41.5 
Q 25.90625 41.5 26.703125 40.953125 
Q 27.5 40.40625 28.203125 39.703125 
Q 28.90625 39 29.84375 38.453125 
Q 30.796875 37.90625 32.40625 37.90625 
Q 34.09375 37.90625 35.390625 39.34375 
Q 36.703125 40.796875 36.703125 43 
z
" id="BigCaslon-Medium-114"/>
     <path d="M 78.203125 0 
L 78.203125 0.90625 
Q 77.296875 1 76.296875 1.140625 
Q 75.296875 1.296875 74.4375 1.546875 
Q 73.59375 1.796875 73 2.296875 
Q 72.40625 2.796875 72.40625 3.5 
L 72.40625 33.296875 
Q 72.40625 39.90625 69.453125 44.09375 
Q 66.5 48.296875 60.703125 48.296875 
Q 58 48.296875 55.453125 47.1875 
Q 52.90625 46.09375 50.796875 44.34375 
Q 48.703125 42.59375 47.09375 40.546875 
Q 45.5 38.5 44.59375 36.703125 
L 44.296875 36.703125 
Q 43.59375 42 40.640625 45.140625 
Q 37.703125 48.296875 32.90625 48.296875 
Q 30.203125 48.296875 27.75 47.25 
Q 25.296875 46.203125 23.1875 44.640625 
Q 21.09375 43.09375 19.5 41.140625 
Q 17.90625 39.203125 16.90625 37.40625 
L 16.703125 37.5 
L 16.703125 48.296875 
L 16.09375 48.296875 
L 3 43.59375 
L 3 42.796875 
Q 4.203125 42.296875 5.390625 41.640625 
Q 6.59375 41 7.5 40.5 
Q 8.203125 40 8.34375 39.59375 
Q 8.5 39.203125 8.5 38.40625 
L 8.5 4.203125 
Q 8.5 2.59375 6.84375 1.890625 
Q 5.203125 1.203125 2.90625 1 
L 2.90625 0 
L 22.296875 0 
L 22.296875 1 
Q 21.296875 1.203125 20.390625 1.25 
Q 19.5 1.296875 18.75 1.5 
Q 18 1.703125 17.5 2.140625 
Q 17 2.59375 16.796875 3.59375 
L 16.796875 36.40625 
Q 19.40625 39.203125 21.5 40.59375 
Q 23.59375 42 26.90625 42 
Q 32.09375 42 34.140625 38.640625 
Q 36.203125 35.296875 36.203125 29.40625 
L 36.203125 3.796875 
Q 36.203125 2.203125 34.59375 1.75 
Q 33 1.296875 30.296875 1.09375 
L 30.296875 0 
L 50 0 
L 50 0.90625 
Q 49.09375 1 48.140625 1.140625 
Q 47.203125 1.296875 46.390625 1.546875 
Q 45.59375 1.796875 45.09375 2.296875 
Q 44.59375 2.796875 44.59375 3.5 
L 44.59375 35.796875 
Q 47 38.5 49.203125 40.25 
Q 51.40625 42 54.703125 42 
Q 59.90625 42 61.953125 38.546875 
Q 64 35.09375 64 29.296875 
L 64 3.796875 
Q 64 2.203125 62.59375 1.75 
Q 61.203125 1.296875 58.5 1.09375 
L 58.5 0 
z
" id="BigCaslon-Medium-109"/>
     <path id="BigCaslon-Medium-32"/>
     <path d="M 36.90625 14.59375 
Q 36.90625 19.703125 33.75 23.203125 
Q 30.59375 26.703125 26.09375 27.796875 
Q 24.203125 28.296875 21.59375 28.84375 
Q 19 29.40625 16.796875 29.90625 
Q 13.59375 30.703125 11.5 32.296875 
Q 9.40625 33.90625 9.40625 37.59375 
Q 9.40625 39.90625 10.203125 41.65625 
Q 11 43.40625 12.25 44.546875 
Q 13.5 45.703125 15.140625 46.296875 
Q 16.796875 46.90625 18.5 46.90625 
Q 21.296875 46.90625 23.4375 45.90625 
Q 25.59375 44.90625 27.296875 43.046875 
Q 29 41.203125 30.390625 38.640625 
Q 31.796875 36.09375 33.203125 33.09375 
L 34 33.296875 
L 32.796875 45.703125 
Q 29.90625 46.796875 26.703125 47.546875 
Q 23.5 48.296875 19.296875 48.296875 
Q 16 48.296875 13.09375 47.34375 
Q 10.203125 46.40625 8 44.59375 
Q 5.796875 42.796875 4.5 40.296875 
Q 3.203125 37.796875 3.203125 34.703125 
Q 3.203125 30.203125 5.546875 27 
Q 7.90625 23.796875 11.703125 22.5 
Q 13.703125 21.796875 16.203125 21.1875 
Q 18.703125 20.59375 21.40625 20.09375 
Q 24.796875 19.40625 26.75 17.34375 
Q 28.703125 15.296875 28.703125 12.203125 
Q 28.703125 6.5 25.84375 3.75 
Q 23 1 18.203125 1 
Q 14.90625 1 12.5 2.453125 
Q 10.09375 3.90625 8.390625 6.15625 
Q 6.703125 8.40625 5.5 11.046875 
Q 4.296875 13.703125 3.5 16.09375 
L 2.703125 16.09375 
L 2.703125 2.90625 
Q 6 1.40625 9.890625 0.59375 
Q 13.796875 -0.203125 18.203125 -0.203125 
Q 21.90625 -0.203125 25.25 0.59375 
Q 28.59375 1.40625 31.1875 3.203125 
Q 33.796875 5 35.34375 7.84375 
Q 36.90625 10.703125 36.90625 14.59375 
z
" id="BigCaslon-Medium-115"/>
     <path d="M 43.296875 15.203125 
L 42.5 15.40625 
Q 41.296875 11.703125 37.546875 9.140625 
Q 33.796875 6.59375 28.796875 6.59375 
Q 24.203125 6.59375 20.703125 8.296875 
Q 17.203125 10 14.890625 12.953125 
Q 12.59375 15.90625 11.390625 19.75 
Q 10.203125 23.59375 10.203125 27.796875 
Q 10.203125 28.90625 10.296875 29.953125 
Q 10.40625 31 10.40625 31.796875 
L 42.5 31.796875 
Q 42.203125 36 40.59375 39.09375 
Q 39 42.203125 36.453125 44.25 
Q 33.90625 46.296875 30.453125 47.296875 
Q 27 48.296875 23.09375 48.296875 
Q 18.296875 48.296875 14.34375 46.25 
Q 10.40625 44.203125 7.65625 40.890625 
Q 4.90625 37.59375 3.40625 33.4375 
Q 1.90625 29.296875 1.90625 25.09375 
Q 1.90625 19.90625 3.5 15.25 
Q 5.09375 10.59375 8.046875 7.140625 
Q 11 3.703125 15.203125 1.796875 
Q 19.40625 -0.09375 24.5 -0.09375 
Q 28.59375 -0.09375 31.9375 1.40625 
Q 35.296875 2.90625 37.6875 5.203125 
Q 40.09375 7.5 41.5 10.25 
Q 42.90625 13 43.296875 15.203125 
z
M 32.59375 37.59375 
Q 32.59375 36.203125 32.25 35.5 
Q 31.90625 34.796875 31.203125 34 
Q 30.203125 33.59375 28.890625 33.5 
Q 27.59375 33.40625 26.09375 33.40625 
Q 23.796875 33.40625 21.890625 33.34375 
Q 20 33.296875 18.25 33.25 
Q 16.5 33.203125 14.703125 33.203125 
Q 12.90625 33.203125 10.59375 33.203125 
Q 10.796875 34.40625 11.6875 36.65625 
Q 12.59375 38.90625 14.25 41.09375 
Q 15.90625 43.296875 18.15625 44.9375 
Q 20.40625 46.59375 23.203125 46.59375 
Q 27.5 46.59375 30.046875 43.9375 
Q 32.59375 41.296875 32.59375 37.59375 
z
" id="BigCaslon-Medium-101"/>
     <path d="M 53.5 42.796875 
Q 53.5 44.5 52.390625 45.703125 
Q 51.296875 46.90625 49.59375 46.90625 
Q 48.40625 46.90625 47.5 46.546875 
Q 46.59375 46.203125 45.796875 45.75 
Q 45 45.296875 44.046875 44.9375 
Q 43.09375 44.59375 41.90625 44.59375 
Q 40.703125 44.59375 39.84375 44.6875 
Q 39 44.796875 37.796875 45.203125 
Q 34.59375 46.90625 31.640625 47.59375 
Q 28.703125 48.296875 24.90625 48.296875 
Q 20.703125 48.296875 17.140625 47.09375 
Q 13.59375 45.90625 11 43.84375 
Q 8.40625 41.796875 6.953125 39 
Q 5.5 36.203125 5.5 33 
Q 5.5 27.90625 7.953125 24.59375 
Q 10.40625 21.296875 14.796875 19.59375 
L 14.796875 19.296875 
Q 12.296875 19 10.140625 18.046875 
Q 8 17.09375 6.390625 15.6875 
Q 4.796875 14.296875 3.890625 12.59375 
Q 3 10.90625 3 9 
Q 3 5.203125 5.75 2.890625 
Q 8.5 0.59375 13.59375 0 
L 13.59375 -0.203125 
Q 11.5 -1.5 9.34375 -2.84375 
Q 7.203125 -4.203125 5.453125 -5.75 
Q 3.703125 -7.296875 2.546875 -9 
Q 1.40625 -10.703125 1.40625 -12.796875 
Q 1.40625 -18.5 7.453125 -21.75 
Q 13.5 -25 24.40625 -25 
Q 30.09375 -25 34.84375 -23.453125 
Q 39.59375 -21.90625 43.09375 -19.203125 
Q 46.59375 -16.5 48.546875 -12.953125 
Q 50.5 -9.40625 50.5 -5.5 
Q 50.5 -2.5 49.453125 -0.046875 
Q 48.40625 2.40625 46.40625 4.296875 
Q 44.40625 6.203125 41.59375 7.296875 
Q 38.796875 8.40625 35.296875 8.40625 
L 19.296875 8.40625 
Q 17.59375 8.40625 15.796875 8.59375 
Q 14 8.796875 12.5 9.390625 
Q 11 10 10 11.046875 
Q 9 12.09375 9 13.703125 
Q 9 15.703125 10.890625 17 
Q 12.796875 18.296875 16 18.5 
Q 18 18.5 19.453125 18.296875 
Q 20.90625 18.09375 22.296875 18.09375 
Q 32 18.09375 37.5 22.046875 
Q 43 26 43 33.90625 
Q 43 37.09375 41.953125 39.09375 
Q 40.90625 41.09375 39.40625 43.40625 
L 39.796875 43.796875 
Q 41 43.09375 42.5 42.25 
Q 44 41.40625 45.453125 40.703125 
Q 46.90625 40 48.09375 39.5 
Q 49.296875 39 49.90625 39 
Q 51.40625 39 52.453125 40.140625 
Q 53.5 41.296875 53.5 42.796875 
z
M 35 33.90625 
Q 35 31.09375 34.296875 28.546875 
Q 33.59375 26 32.1875 24 
Q 30.796875 22 28.75 20.796875 
Q 26.703125 19.59375 24 19.59375 
Q 19.59375 19.59375 16.546875 23.25 
Q 13.5 26.90625 13.5 32.90625 
Q 13.5 35.5 14.203125 38 
Q 14.90625 40.5 16.25 42.453125 
Q 17.59375 44.40625 19.59375 45.546875 
Q 21.59375 46.703125 24.09375 46.703125 
Q 26.796875 46.703125 28.84375 45.640625 
Q 30.90625 44.59375 32.25 42.84375 
Q 33.59375 41.09375 34.296875 38.796875 
Q 35 36.5 35 33.90625 
z
M 43.796875 -9.59375 
Q 43.796875 -13.90625 41.140625 -17 
Q 38.5 -20.09375 35 -21.5 
Q 33.296875 -22.09375 31.140625 -22.390625 
Q 29 -22.703125 26 -22.703125 
Q 23.5 -22.703125 20.546875 -21.890625 
Q 17.59375 -21.09375 15 -19.4375 
Q 12.40625 -17.796875 10.65625 -15.390625 
Q 8.90625 -13 8.90625 -9.796875 
Q 8.90625 -6.703125 10.703125 -4.09375 
Q 12.5 -1.5 17.203125 -0.296875 
Q 18.59375 -0.09375 20.796875 0.09375 
Q 23 0.296875 25.09375 0.296875 
Q 30.90625 0.296875 34.203125 -0.140625 
Q 37.5 -0.59375 39.703125 -1.703125 
Q 41.40625 -2.5 42.59375 -4.59375 
Q 43.796875 -6.703125 43.796875 -9.59375 
z
" id="BigCaslon-Medium-103"/>
     <path d="M 35.09375 47.296875 
L 16.59375 47.296875 
L 16.59375 56 
L 15.796875 56 
L 1.296875 42.296875 
L 1.296875 41.203125 
L 8.59375 41.203125 
Q 8.59375 34.59375 8.5 26.140625 
Q 8.40625 17.703125 8.40625 8.296875 
Q 8.40625 6.703125 9.34375 5.140625 
Q 10.296875 3.59375 11.796875 2.34375 
Q 13.296875 1.09375 15.25 0.4375 
Q 17.203125 -0.203125 19.296875 -0.203125 
Q 22.5 -0.203125 24.84375 0.546875 
Q 27.203125 1.296875 28.953125 2.640625 
Q 30.703125 4 31.75 5.640625 
Q 32.796875 7.296875 33.40625 8.796875 
L 32.796875 9.09375 
Q 31.40625 7.09375 29.5 6.140625 
Q 27.59375 5.203125 24.703125 5.203125 
Q 21.203125 5.203125 19 7.5 
Q 16.796875 9.796875 16.796875 14.90625 
L 16.796875 41.203125 
L 32 41.203125 
z
" id="BigCaslon-Medium-116"/>
     <path d="M 46.5 9.796875 
L 45.90625 9.796875 
Q 45.5 8.296875 44.390625 7.34375 
Q 43.296875 6.40625 41 6.40625 
Q 39 6.40625 37.453125 7.84375 
Q 35.90625 9.296875 35.90625 13.796875 
Q 35.90625 17.203125 35.953125 20.046875 
Q 36 22.90625 36 25.59375 
Q 36 28.296875 36.046875 31.1875 
Q 36.09375 34.09375 36.09375 37.703125 
Q 36.09375 39.40625 36 41.15625 
Q 35.90625 42.90625 35.5 43.59375 
Q 34.5 45.59375 32.203125 46.9375 
Q 29.90625 48.296875 27.296875 48.296875 
Q 26 48.296875 23.953125 47.6875 
Q 21.90625 47.09375 19.453125 46.09375 
Q 17 45.09375 14.296875 43.6875 
Q 11.59375 42.296875 9 40.796875 
Q 8.203125 40.296875 7.140625 39.6875 
Q 6.09375 39.09375 5.1875 38.296875 
Q 4.296875 37.5 3.6875 36.5 
Q 3.09375 35.5 3.09375 34.296875 
Q 3.09375 32.796875 4.25 31.640625 
Q 5.40625 30.5 7 30.5 
Q 8.703125 30.5 10.140625 31.59375 
Q 11.59375 32.703125 11.59375 34.09375 
L 11.59375 38.59375 
Q 11.59375 39.203125 12.296875 40.046875 
Q 13 40.90625 14.203125 41.75 
Q 15.40625 42.59375 16.953125 43.140625 
Q 18.5 43.703125 20.09375 43.703125 
Q 22.5 43.703125 24 43.046875 
Q 25.5 42.40625 26.34375 41.59375 
Q 27.203125 40.796875 27.546875 40.046875 
Q 27.90625 39.296875 27.90625 39.09375 
L 27.90625 28.796875 
Q 26.90625 28.203125 25.453125 27.453125 
Q 24 26.703125 22.09375 25.640625 
Q 20.203125 24.59375 17.640625 23.09375 
Q 15.09375 21.59375 11.796875 19.5 
Q 8.5 17.40625 6.25 14.796875 
Q 4 12.203125 4 9.40625 
Q 4 6.796875 4.84375 5 
Q 5.703125 3.203125 7.046875 2.046875 
Q 8.40625 0.90625 10.046875 0.453125 
Q 11.703125 0 13.296875 0 
Q 16 0 18.25 0.84375 
Q 20.5 1.703125 22.34375 3.09375 
Q 24.203125 4.5 25.546875 6.09375 
Q 26.90625 7.703125 27.703125 9 
L 27.90625 8.90625 
Q 27.90625 3.90625 30.546875 1.90625 
Q 33.203125 -0.09375 36.59375 -0.09375 
Q 38.703125 -0.09375 40.453125 0.65625 
Q 42.203125 1.40625 43.5 2.84375 
Q 44.796875 4.296875 45.59375 6.09375 
Q 46.40625 7.90625 46.5 9.796875 
z
M 27.90625 11.796875 
Q 27.90625 10.09375 26.703125 9 
Q 25 7.296875 23 6.6875 
Q 21 6.09375 18.40625 6.09375 
Q 15.5 6.09375 13.703125 8.1875 
Q 11.90625 10.296875 11.90625 12.90625 
Q 11.90625 15.5 13.75 17.546875 
Q 15.59375 19.59375 18.140625 21.296875 
Q 20.703125 23 23.390625 24.453125 
Q 26.09375 25.90625 27.90625 27.203125 
z
" id="BigCaslon-Medium-97"/>
    </defs>
    <g style="fill:#262626;" transform="translate(57.269651 15.91125)scale(0.12 -0.12)">
     <use xlink:href="#BigCaslon-Medium-85"/>
     <use x="83.399994" xlink:href="#BigCaslon-Medium-110"/>
     <use x="135.499985" xlink:href="#BigCaslon-Medium-105"/>
     <use x="160.899979" xlink:href="#BigCaslon-Medium-102"/>
     <use x="187.899963" xlink:href="#BigCaslon-Medium-111"/>
     <use x="238.999954" xlink:href="#BigCaslon-Medium-114"/>
     <use x="274.699951" xlink:href="#BigCaslon-Medium-109"/>
     <use x="354.099945" xlink:href="#BigCaslon-Medium-32"/>
     <use x="375.09993" xlink:href="#BigCaslon-Medium-115"/>
     <use x="413.299927" xlink:href="#BigCaslon-Medium-101"/>
     <use x="456.799911" xlink:href="#BigCaslon-Medium-103"/>
     <use x="509.299896" xlink:href="#BigCaslon-Medium-109"/>
     <use x="588.69989" xlink:href="#BigCaslon-Medium-101"/>
     <use x="632.199875" xlink:href="#BigCaslon-Medium-110"/>
     <use x="684.299866" xlink:href="#BigCaslon-Medium-116"/>
     <use x="716.69986" xlink:href="#BigCaslon-Medium-97"/>
     <use x="761.499847" xlink:href="#BigCaslon-Medium-116"/>
     <use x="793.899841" xlink:href="#BigCaslon-Medium-105"/>
     <use x="819.299835" xlink:href="#BigCaslon-Medium-111"/>
     <use x="870.399826" xlink:href="#BigCaslon-Medium-110"/>
    </g>
   </g>
  </g>
  <g id="axes_2">
   <g id="patch_4">
    <path d="M 250.479412 130.63125 
L 447.420588 130.63125 
L 447.420588 21.91125 
L 250.479412 21.91125 
z
" style="fill:none;"/>
   </g>
   <g id="matplotlib.axis_3">
    <g id="xtick_7">
     <g id="text_11">
      <!-- 0.0 -->
      <g style="fill:#262626;" transform="translate(243.529412 144.789063)scale(0.1 -0.1)">
       <use xlink:href="#ArialMT-48"/>
       <use x="55.615234" xlink:href="#ArialMT-46"/>
       <use x="83.398438" xlink:href="#ArialMT-48"/>
      </g>
     </g>
    </g>
    <g id="xtick_8">
     <g id="text_12">
      <!-- 0.2 -->
      <g style="fill:#262626;" transform="translate(282.917647 144.789063)scale(0.1 -0.1)">
       <use xlink:href="#ArialMT-48"/>
       <use x="55.615234" xlink:href="#ArialMT-46"/>
       <use x="83.398438" xlink:href="#ArialMT-50"/>
      </g>
     </g>
    </g>
    <g id="xtick_9">
     <g id="text_13">
      <!-- 0.4 -->
      <g style="fill:#262626;" transform="translate(322.305882 144.789063)scale(0.1 -0.1)">
       <use xlink:href="#ArialMT-48"/>
       <use x="55.615234" xlink:href="#ArialMT-46"/>
       <use x="83.398438" xlink:href="#ArialMT-52"/>
      </g>
     </g>
    </g>
    <g id="xtick_10">
     <g id="text_14">
      <!-- 0.6 -->
      <g style="fill:#262626;" transform="translate(361.694118 144.789063)scale(0.1 -0.1)">
       <use xlink:href="#ArialMT-48"/>
       <use x="55.615234" xlink:href="#ArialMT-46"/>
       <use x="83.398438" xlink:href="#ArialMT-54"/>
      </g>
     </g>
    </g>
    <g id="xtick_11">
     <g id="text_15">
      <!-- 0.8 -->
      <g style="fill:#262626;" transform="translate(401.082353 144.789063)scale(0.1 -0.1)">
       <use xlink:href="#ArialMT-48"/>
       <use x="55.615234" xlink:href="#ArialMT-46"/>
       <use x="83.398438" xlink:href="#ArialMT-56"/>
      </g>
     </g>
    </g>
    <g id="xtick_12">
     <g id="text_16">
      <!-- 1.0 -->
      <g style="fill:#262626;" transform="translate(440.470588 144.789063)scale(0.1 -0.1)">
       <use xlink:href="#ArialMT-49"/>
       <use x="55.615234" xlink:href="#ArialMT-46"/>
       <use x="83.398438" xlink:href="#ArialMT-48"/>
      </g>
     </g>
    </g>
   </g>
   <g id="matplotlib.axis_4"/>
   <g id="PolyCollection_4">
    <defs>
     <path d="M 250.479412 -126.88817 
L 250.479412 -23.345313 
L 253.175607 -23.345313 
L 255.871803 -23.345313 
L 258.567998 -23.345313 
L 261.264194 -23.345313 
L 263.960389 -23.345313 
L 266.656585 -23.345313 
L 269.35278 -23.345313 
L 272.048976 -23.345313 
L 274.745171 -23.345313 
L 277.441367 -23.345313 
L 280.137562 -23.345313 
L 282.833758 -23.345313 
L 285.529953 -23.345313 
L 288.226149 -23.345313 
L 290.922344 -23.345313 
L 293.61854 -23.345313 
L 296.314735 -23.345313 
L 299.010931 -23.345313 
L 301.707127 -23.345313 
L 304.403322 -23.345313 
L 307.099518 -23.345313 
L 309.795713 -23.345313 
L 312.491909 -23.345313 
L 315.188104 -23.345313 
L 317.8843 -23.345313 
L 320.580495 -23.345313 
L 323.276691 -23.345313 
L 325.972886 -23.345313 
L 328.669082 -23.345313 
L 331.365277 -23.345313 
L 334.061473 -23.345313 
L 336.757668 -23.345313 
L 339.453864 -23.345313 
L 342.150059 -23.345313 
L 344.846255 -23.345313 
L 347.54245 -23.345313 
L 350.238646 -23.345313 
L 352.934841 -23.345313 
L 355.631037 -23.345313 
L 358.327232 -23.345313 
L 361.023428 -23.345313 
L 363.719623 -23.345313 
L 366.415819 -23.345313 
L 369.112014 -23.345313 
L 371.80821 -23.345313 
L 374.504405 -23.345313 
L 377.200601 -23.345313 
L 379.896796 -23.345313 
L 382.592992 -23.345313 
L 382.592992 -126.88817 
L 382.592992 -126.88817 
L 379.896796 -126.88817 
L 377.200601 -126.88817 
L 374.504405 -126.88817 
L 371.80821 -126.88817 
L 369.112014 -126.88817 
L 366.415819 -126.88817 
L 363.719623 -126.88817 
L 361.023428 -126.88817 
L 358.327232 -126.88817 
L 355.631037 -126.88817 
L 352.934841 -126.88817 
L 350.238646 -126.88817 
L 347.54245 -126.88817 
L 344.846255 -126.88817 
L 342.150059 -126.88817 
L 339.453864 -126.88817 
L 336.757668 -126.88817 
L 334.061473 -126.88817 
L 331.365277 -126.88817 
L 328.669082 -126.88817 
L 325.972886 -126.88817 
L 323.276691 -126.88817 
L 320.580495 -126.88817 
L 317.8843 -126.88817 
L 315.188104 -126.88817 
L 312.491909 -126.88817 
L 309.795713 -126.88817 
L 307.099518 -126.88817 
L 304.403322 -126.88817 
L 301.707127 -126.88817 
L 299.010931 -126.88817 
L 296.314735 -126.88817 
L 293.61854 -126.88817 
L 290.922344 -126.88817 
L 288.226149 -126.88817 
L 285.529953 -126.88817 
L 282.833758 -126.88817 
L 280.137562 -126.88817 
L 277.441367 -126.88817 
L 274.745171 -126.88817 
L 272.048976 -126.88817 
L 269.35278 -126.88817 
L 266.656585 -126.88817 
L 263.960389 -126.88817 
L 261.264194 -126.88817 
L 258.567998 -126.88817 
L 255.871803 -126.88817 
L 253.175607 -126.88817 
L 250.479412 -126.88817 
z
" id="mcfb7e6036f" style="stroke:#999999;stroke-opacity:0.1;"/>
    </defs>
    <g clip-path="url(#p3c5dfb0b0c)">
     <use style="fill:#999999;fill-opacity:0.1;stroke:#999999;stroke-opacity:0.1;" x="0" xlink:href="#mcfb7e6036f" y="153.976563"/>
    </g>
   </g>
   <g id="PolyCollection_5">
    <defs>
     <path d="M 386.531815 -126.88817 
L 386.531815 -23.345313 
L 386.915625 -23.345313 
L 387.299435 -23.345313 
L 387.683244 -23.345313 
L 388.067054 -23.345313 
L 388.450863 -23.345313 
L 388.834673 -23.345313 
L 389.218483 -23.345313 
L 389.602292 -23.345313 
L 389.986102 -23.345313 
L 390.369912 -23.345313 
L 390.753721 -23.345313 
L 391.137531 -23.345313 
L 391.52134 -23.345313 
L 391.90515 -23.345313 
L 392.28896 -23.345313 
L 392.672769 -23.345313 
L 393.056579 -23.345313 
L 393.440388 -23.345313 
L 393.824198 -23.345313 
L 394.208008 -23.345313 
L 394.591817 -23.345313 
L 394.975627 -23.345313 
L 395.359436 -23.345313 
L 395.743246 -23.345313 
L 396.127056 -23.345313 
L 396.510865 -23.345313 
L 396.894675 -23.345313 
L 397.278484 -23.345313 
L 397.662294 -23.345313 
L 398.046104 -23.345313 
L 398.429913 -23.345313 
L 398.813723 -23.345313 
L 399.197533 -23.345313 
L 399.581342 -23.345313 
L 399.965152 -23.345313 
L 400.348961 -23.345313 
L 400.732771 -23.345313 
L 401.116581 -23.345313 
L 401.50039 -23.345313 
L 401.8842 -23.345313 
L 402.268009 -23.345313 
L 402.651819 -23.345313 
L 403.035629 -23.345313 
L 403.419438 -23.345313 
L 403.803248 -23.345313 
L 404.187057 -23.345313 
L 404.570867 -23.345313 
L 404.954677 -23.345313 
L 405.338486 -23.345313 
L 405.338486 -126.88817 
L 405.338486 -126.88817 
L 404.954677 -126.88817 
L 404.570867 -126.88817 
L 404.187057 -126.88817 
L 403.803248 -126.88817 
L 403.419438 -126.88817 
L 403.035629 -126.88817 
L 402.651819 -126.88817 
L 402.268009 -126.88817 
L 401.8842 -126.88817 
L 401.50039 -126.88817 
L 401.116581 -126.88817 
L 400.732771 -126.88817 
L 400.348961 -126.88817 
L 399.965152 -126.88817 
L 399.581342 -126.88817 
L 399.197533 -126.88817 
L 398.813723 -126.88817 
L 398.429913 -126.88817 
L 398.046104 -126.88817 
L 397.662294 -126.88817 
L 397.278484 -126.88817 
L 396.894675 -126.88817 
L 396.510865 -126.88817 
L 396.127056 -126.88817 
L 395.743246 -126.88817 
L 395.359436 -126.88817 
L 394.975627 -126.88817 
L 394.591817 -126.88817 
L 394.208008 -126.88817 
L 393.824198 -126.88817 
L 393.440388 -126.88817 
L 393.056579 -126.88817 
L 392.672769 -126.88817 
L 392.28896 -126.88817 
L 391.90515 -126.88817 
L 391.52134 -126.88817 
L 391.137531 -126.88817 
L 390.753721 -126.88817 
L 390.369912 -126.88817 
L 389.986102 -126.88817 
L 389.602292 -126.88817 
L 389.218483 -126.88817 
L 388.834673 -126.88817 
L 388.450863 -126.88817 
L 388.067054 -126.88817 
L 387.683244 -126.88817 
L 387.299435 -126.88817 
L 386.915625 -126.88817 
L 386.531815 -126.88817 
z
" id="m5cc2c12e17" style="stroke:#999999;stroke-opacity:0.1;"/>
    </defs>
    <g clip-path="url(#p3c5dfb0b0c)">
     <use style="fill:#999999;fill-opacity:0.1;stroke:#999999;stroke-opacity:0.1;" x="0" xlink:href="#m5cc2c12e17" y="153.976563"/>
    </g>
   </g>
   <g id="PolyCollection_6">
    <defs>
     <path d="M 409.27731 -126.88817 
L 409.27731 -23.345313 
L 410.055744 -23.345313 
L 410.834178 -23.345313 
L 411.612613 -23.345313 
L 412.391047 -23.345313 
L 413.169481 -23.345313 
L 413.947915 -23.345313 
L 414.72635 -23.345313 
L 415.504784 -23.345313 
L 416.283218 -23.345313 
L 417.061652 -23.345313 
L 417.840087 -23.345313 
L 418.618521 -23.345313 
L 419.396955 -23.345313 
L 420.175389 -23.345313 
L 420.953824 -23.345313 
L 421.732258 -23.345313 
L 422.510692 -23.345313 
L 423.289126 -23.345313 
L 424.067561 -23.345313 
L 424.845995 -23.345313 
L 425.624429 -23.345313 
L 426.402863 -23.345313 
L 427.181298 -23.345313 
L 427.959732 -23.345313 
L 428.738166 -23.345313 
L 429.5166 -23.345313 
L 430.295035 -23.345313 
L 431.073469 -23.345313 
L 431.851903 -23.345313 
L 432.630337 -23.345313 
L 433.408772 -23.345313 
L 434.187206 -23.345313 
L 434.96564 -23.345313 
L 435.744074 -23.345313 
L 436.522509 -23.345313 
L 437.300943 -23.345313 
L 438.079377 -23.345313 
L 438.857811 -23.345313 
L 439.636246 -23.345313 
L 440.41468 -23.345313 
L 441.193114 -23.345313 
L 441.971548 -23.345313 
L 442.749983 -23.345313 
L 443.528417 -23.345313 
L 444.306851 -23.345313 
L 445.085285 -23.345313 
L 445.86372 -23.345313 
L 446.642154 -23.345313 
L 447.420588 -23.345313 
L 447.420588 -126.88817 
L 447.420588 -126.88817 
L 446.642154 -126.88817 
L 445.86372 -126.88817 
L 445.085285 -126.88817 
L 444.306851 -126.88817 
L 443.528417 -126.88817 
L 442.749983 -126.88817 
L 441.971548 -126.88817 
L 441.193114 -126.88817 
L 440.41468 -126.88817 
L 439.636246 -126.88817 
L 438.857811 -126.88817 
L 438.079377 -126.88817 
L 437.300943 -126.88817 
L 436.522509 -126.88817 
L 435.744074 -126.88817 
L 434.96564 -126.88817 
L 434.187206 -126.88817 
L 433.408772 -126.88817 
L 432.630337 -126.88817 
L 431.851903 -126.88817 
L 431.073469 -126.88817 
L 430.295035 -126.88817 
L 429.5166 -126.88817 
L 428.738166 -126.88817 
L 427.959732 -126.88817 
L 427.181298 -126.88817 
L 426.402863 -126.88817 
L 425.624429 -126.88817 
L 424.845995 -126.88817 
L 424.067561 -126.88817 
L 423.289126 -126.88817 
L 422.510692 -126.88817 
L 421.732258 -126.88817 
L 420.953824 -126.88817 
L 420.175389 -126.88817 
L 419.396955 -126.88817 
L 418.618521 -126.88817 
L 417.840087 -126.88817 
L 417.061652 -126.88817 
L 416.283218 -126.88817 
L 415.504784 -126.88817 
L 414.72635 -126.88817 
L 413.947915 -126.88817 
L 413.169481 -126.88817 
L 412.391047 -126.88817 
L 411.612613 -126.88817 
L 410.834178 -126.88817 
L 410.055744 -126.88817 
L 409.27731 -126.88817 
z
" id="m45ac70375b" style="stroke:#999999;stroke-opacity:0.1;"/>
    </defs>
    <g clip-path="url(#p3c5dfb0b0c)">
     <use style="fill:#999999;fill-opacity:0.1;stroke:#999999;stroke-opacity:0.1;" x="0" xlink:href="#m45ac70375b" y="153.976563"/>
    </g>
   </g>
   <g id="PathCollection_2">
    <g clip-path="url(#p3c5dfb0b0c)">
     <use style="fill:#4d089a;stroke:#4d089a;" x="317.8843" xlink:href="#m1a217cbb86" y="127.832794"/>
     <use style="fill:#4d089a;stroke:#4d089a;" x="396.127056" xlink:href="#m1a217cbb86" y="127.832794"/>
     <use style="fill:#4d089a;stroke:#4d089a;" x="428.738166" xlink:href="#m1a217cbb86" y="127.832794"/>
    </g>
   </g>
   <g id="line2d_2">
    <path clip-path="url(#p3c5dfb0b0c)" d="M 250.479412 130.63125 
L 252.468717 130.63125 
L 254.458021 130.63125 
L 256.447326 130.63125 
L 258.436631 130.631248 
L 260.425936 130.631242 
L 262.415241 130.631223 
L 264.404545 130.631173 
L 266.39385 130.631058 
L 268.383155 130.630823 
L 270.37246 130.630376 
L 272.361765 130.629586 
L 274.35107 130.628259 
L 276.340374 130.626132 
L 278.329679 130.622851 
L 280.318984 130.617955 
L 282.308289 130.610856 
L 284.297594 130.600822 
L 286.286898 130.586952 
L 288.276203 130.56816 
L 290.265508 130.543152 
L 292.254813 130.510405 
L 294.244118 130.468154 
L 296.233422 130.414367 
L 298.222727 130.346735 
L 300.212032 130.262657 
L 302.201337 130.159227 
L 304.190642 130.03323 
L 306.179947 129.881136 
L 308.169251 129.699099 
L 310.158556 129.482961 
L 312.147861 129.228262 
L 314.137166 128.930253 
L 316.126471 128.583912 
L 318.115775 128.183972 
L 320.10508 127.72495 
L 322.094385 127.201182 
L 324.08369 126.606864 
L 326.072995 125.936105 
L 328.062299 125.182976 
L 330.051604 124.341576 
L 332.040909 123.406095 
L 334.030214 122.370891 
L 336.019519 121.230567 
L 338.008824 119.980056 
L 339.998128 118.614714 
L 341.987433 117.130412 
L 343.976738 115.523637 
L 345.966043 113.791595 
L 347.955348 111.932321 
L 349.944652 109.944781 
L 351.933957 107.828991 
L 353.923262 105.58612 
L 355.912567 103.218606 
L 357.901872 100.730264 
L 359.891176 98.126386 
L 361.880481 95.413852 
L 363.869786 92.601214 
L 365.859091 89.698791 
L 367.848396 86.718743 
L 369.837701 83.675137 
L 371.827005 80.584001 
L 373.81631 77.463358 
L 375.805615 74.333243 
L 377.79492 71.215706 
L 379.784225 68.134778 
L 381.773529 65.116423 
L 383.762834 62.188454 
L 385.752139 59.380417 
L 387.741444 56.723443 
L 389.730749 54.250056 
L 391.720053 51.993936 
L 393.709358 49.989643 
L 395.698663 48.272284 
L 397.687968 46.877121 
L 399.677273 45.839129 
L 401.666578 45.19248 
L 403.655882 44.96996 
L 405.645187 45.202318 
L 407.634492 45.917521 
L 409.623797 47.139939 
L 411.613102 48.889428 
L 413.602406 51.180321 
L 415.591711 54.020312 
L 417.581016 57.409233 
L 419.570321 61.337714 
L 421.559626 65.785722 
L 423.54893 70.720959 
L 425.538235 76.097138 
L 427.52754 81.852101 
L 429.516845 87.905789 
L 431.50615 94.158048 
L 433.495455 100.486267 
L 435.484759 106.742836 
L 437.474064 112.752418 
L 439.463369 118.309018 
L 441.452674 123.172856 
L 443.441979 127.067015 
L 445.431283 129.673865 
L 447.420588 130.63125 
" style="fill:none;stroke:#821580;stroke-linecap:round;stroke-width:1.5;"/>
   </g>
   <g id="patch_5">
    <path d="M 250.479412 130.63125 
L 447.420588 130.63125 
" style="fill:none;stroke:#cccccc;stroke-linecap:square;stroke-linejoin:miter;stroke-width:0.8;"/>
   </g>
   <g id="text_17">
    <!-- $A$ -->
    <g style="fill:#262626;" transform="translate(255.402941 41.080671)scale(0.1 -0.1)">
     <use transform="translate(0 0.09375)" xlink:href="#DejaVuSans-Oblique-65"/>
    </g>
   </g>
   <g id="text_18">
    <!-- $B$ -->
    <g style="fill:#262626;" transform="translate(391.455345 41.080671)scale(0.1 -0.1)">
     <use transform="translate(0 0.09375)" xlink:href="#DejaVuSans-Oblique-66"/>
    </g>
   </g>
   <g id="text_19">
    <!-- $C$ -->
    <g style="fill:#262626;" transform="translate(414.200839 41.080671)scale(0.1 -0.1)">
     <use transform="translate(0 0.78125)" xlink:href="#DejaVuSans-Oblique-67"/>
    </g>
   </g>
   <g id="text_20">
    <!-- Probability weighted segmentation -->
    <defs>
     <path d="M 63.59375 51.203125 
Q 63.59375 57.203125 60.6875 61.59375 
Q 57.796875 66 53.40625 68.40625 
Q 48.90625 70.90625 43.796875 71.546875 
Q 38.703125 72.203125 32.09375 72.203125 
Q 30.296875 72.203125 27.59375 72.203125 
Q 25 72.203125 22.046875 72.140625 
Q 19.09375 72.09375 16.09375 72.09375 
Q 13.09375 72.09375 10.546875 72.046875 
Q 8 72 6.09375 72 
Q 4.296875 72 3.703125 72 
L 3.703125 71 
Q 6.40625 70.59375 8.75 70.046875 
Q 11.09375 69.5 12.59375 67.90625 
Q 13.203125 67.296875 13.546875 65.9375 
Q 13.90625 64.59375 14.046875 62.9375 
Q 14.203125 61.296875 14.25 59.4375 
Q 14.296875 57.59375 14.296875 55.796875 
L 14.296875 36.296875 
Q 14.296875 33.59375 14.296875 30.5 
Q 14.296875 27.5 14.25 24.640625 
Q 14.203125 21.796875 14.140625 19.390625 
Q 14.09375 17 14.09375 15.59375 
Q 14.09375 14 14 12.296875 
Q 13.90625 10.59375 13.75 9.09375 
Q 13.59375 7.59375 13.296875 6.390625 
Q 13 5.203125 12.5 4.59375 
Q 11.203125 3 8.890625 2.203125 
Q 6.59375 1.40625 4.09375 1 
L 4.09375 0 
L 36.09375 0 
L 36.09375 1 
Q 32 1.203125 29.703125 2.5 
Q 27.40625 3.796875 26.59375 5.09375 
Q 25.59375 6.59375 25.5 8.890625 
Q 25.40625 11.203125 25.296875 14.40625 
Q 25.296875 16.09375 25.25 17.546875 
Q 25.203125 19 25.203125 20.703125 
Q 25.203125 22.40625 25.203125 24.59375 
Q 25.203125 26.90625 25.203125 30.09375 
Q 27.59375 30.09375 30.59375 30.09375 
Q 33.703125 30.09375 36.953125 30.34375 
Q 40.203125 30.59375 43.390625 31.09375 
Q 46.59375 31.59375 49.40625 32.59375 
Q 52.09375 33.59375 54.6875 35.25 
Q 57.296875 36.90625 59.25 39.203125 
Q 61.203125 41.5 62.390625 44.5 
Q 63.59375 47.5 63.59375 51.203125 
z
M 52.796875 51.703125 
Q 52.796875 45.40625 49.390625 40.34375 
Q 46 35.296875 39.59375 33.09375 
Q 36.5 32 32.890625 31.75 
Q 29.296875 31.5 25.203125 31.5 
Q 25.203125 32.296875 25.203125 35.90625 
Q 25.203125 39.5 25.203125 44.296875 
Q 25.203125 49.09375 25.25 54.09375 
Q 25.296875 59.09375 25.40625 62.59375 
Q 25.5 64.90625 25.59375 66.15625 
Q 25.703125 67.40625 25.796875 68.09375 
Q 25.90625 68.796875 26.046875 69.25 
Q 26.203125 69.703125 26.296875 70.296875 
Q 27 70.40625 28.140625 70.546875 
Q 29.296875 70.703125 31.40625 70.703125 
Q 34.296875 70.703125 37 70.296875 
Q 39.703125 69.90625 42.09375 68.796875 
Q 46.90625 66.5 49.84375 62 
Q 52.796875 57.5 52.796875 51.703125 
z
" id="BigCaslon-Medium-80"/>
     <path d="M 51.90625 24.203125 
Q 51.90625 28.90625 50.59375 33.25 
Q 49.296875 37.59375 46.796875 40.9375 
Q 44.296875 44.296875 40.6875 46.296875 
Q 37.09375 48.296875 32.40625 48.296875 
Q 29.59375 48.296875 26.796875 47.296875 
Q 24 46.296875 21.640625 44.640625 
Q 19.296875 43 17.5 41 
Q 15.703125 39 14.796875 36.90625 
L 14.59375 37 
L 14.90625 72.59375 
L 14.09375 72.59375 
L 0.703125 66.5 
L 0.703125 65.90625 
Q 2.40625 65 4 64.09375 
Q 5.59375 63.203125 6.5 62.59375 
L 6.5 0.296875 
L 7.203125 0.296875 
L 9.59375 5.703125 
L 10.09375 5.703125 
Q 13.296875 3 18 1.453125 
Q 22.703125 -0.09375 28.40625 -0.09375 
Q 33.5 -0.09375 37.796875 1.75 
Q 42.09375 3.59375 45.25 6.890625 
Q 48.40625 10.203125 50.15625 14.640625 
Q 51.90625 19.09375 51.90625 24.203125 
z
M 42.703125 22.796875 
Q 42.703125 18.203125 41.703125 14.25 
Q 40.703125 10.296875 38.84375 7.390625 
Q 37 4.5 34.453125 2.890625 
Q 31.90625 1.296875 28.703125 1.296875 
Q 25 1.296875 22.390625 2.84375 
Q 19.796875 4.40625 18.140625 6.953125 
Q 16.5 9.5 15.703125 12.75 
Q 14.90625 16 14.796875 19.296875 
Q 14.703125 21.203125 14.703125 23.09375 
Q 14.703125 25.09375 14.703125 27.09375 
Q 14.703125 28.5 14.703125 30.703125 
Q 14.703125 33 14.796875 34.203125 
Q 14.796875 34.796875 15.546875 36.09375 
Q 16.296875 37.40625 17.75 38.703125 
Q 19.203125 40 21.453125 41 
Q 23.703125 42 26.796875 42 
Q 30.90625 42 33.90625 40.390625 
Q 36.90625 38.796875 38.84375 36.140625 
Q 40.796875 33.5 41.75 30.046875 
Q 42.703125 26.59375 42.703125 22.796875 
z
" id="BigCaslon-Medium-98"/>
     <path d="M 24 0 
L 24 1.09375 
Q 22.09375 1.296875 20.6875 1.34375 
Q 19.296875 1.40625 18.390625 1.59375 
Q 17.5 1.796875 17.046875 2.296875 
Q 16.59375 2.796875 16.59375 3.796875 
L 16.59375 72.296875 
L 15.90625 72.296875 
L 1.59375 67.59375 
L 1.59375 67 
Q 2.796875 66.5 4.59375 65.453125 
Q 6.40625 64.40625 7.296875 63.90625 
Q 8 63.40625 8.140625 63 
Q 8.296875 62.59375 8.296875 61.796875 
L 8.296875 4.296875 
Q 8.296875 2.703125 6.796875 2.046875 
Q 5.296875 1.40625 0.703125 1.09375 
L 0.703125 0 
z
" id="BigCaslon-Medium-108"/>
     <path d="M 44.296875 46.203125 
L 44.296875 47.296875 
L 28.90625 47.296875 
L 28.90625 46.203125 
Q 29.796875 46.09375 30.796875 46 
Q 31.796875 45.90625 32.640625 45.59375 
Q 33.5 45.296875 34 44.75 
Q 34.5 44.203125 34.5 43.296875 
Q 34.5 42.703125 33.84375 40.25 
Q 33.203125 37.796875 32.203125 34.34375 
Q 31.203125 30.90625 30 27 
Q 28.796875 23.09375 27.6875 19.546875 
Q 26.59375 16 25.796875 13.390625 
Q 25 10.796875 24.703125 10 
Q 23.796875 12.40625 22.59375 15.65625 
Q 21.40625 18.90625 20.15625 22.40625 
Q 18.90625 25.90625 17.65625 29.34375 
Q 16.40625 32.796875 15.40625 35.6875 
Q 14.40625 38.59375 13.796875 40.546875 
Q 13.203125 42.5 13.203125 43 
Q 13.203125 44.90625 14.75 45.40625 
Q 16.296875 45.90625 18.40625 46.203125 
L 18.40625 47.296875 
L -3.40625 47.296875 
L -3.40625 46.203125 
Q 0 46 1.25 45.390625 
Q 2.5 44.796875 3.40625 43.796875 
Q 4.90625 39.703125 6.703125 34.796875 
Q 8.5 29.90625 10.34375 24.84375 
Q 12.203125 19.796875 14 15 
Q 15.796875 10.203125 17.1875 6.34375 
Q 18.59375 2.5 19.5 0.046875 
Q 20.40625 -2.40625 20.59375 -2.796875 
Q 20.5 -3.296875 20.09375 -4.796875 
Q 19.703125 -6.296875 19.046875 -8.4375 
Q 18.40625 -10.59375 17.546875 -13.25 
Q 16.703125 -15.90625 15.59375 -18.59375 
L 15.40625 -18.59375 
Q 14 -17.296875 12.640625 -16.09375 
Q 11.296875 -14.90625 9.296875 -14.90625 
Q 7.296875 -14.90625 6.09375 -16.203125 
Q 4.90625 -17.5 4.90625 -19.5 
Q 4.90625 -21.5 6.59375 -22.75 
Q 8.296875 -24 10.296875 -24 
Q 12.59375 -24 14.796875 -22.296875 
Q 17 -20.59375 18.203125 -16.796875 
Q 19.90625 -11.5 21.75 -5.59375 
Q 23.59375 0.296875 25.4375 6.296875 
Q 27.296875 12.296875 29.09375 18 
Q 30.90625 23.703125 32.40625 28.453125 
Q 33.90625 33.203125 35 36.703125 
Q 36.09375 40.203125 36.59375 41.796875 
Q 37.09375 43.40625 37.890625 44.25 
Q 38.703125 45.09375 39.75 45.5 
Q 40.796875 45.90625 41.9375 46 
Q 43.09375 46.09375 44.296875 46.203125 
z
" id="BigCaslon-Medium-121"/>
     <path d="M 76.5 46.203125 
L 76.5 47.296875 
L 58.203125 47.296875 
L 58.203125 46.203125 
Q 59.09375 46.09375 60.1875 46 
Q 61.296875 45.90625 62.25 45.546875 
Q 63.203125 45.203125 63.84375 44.453125 
Q 64.5 43.703125 64.5 42.296875 
Q 64.5 41.40625 63.796875 39.09375 
Q 63.09375 36.796875 62.046875 33.84375 
Q 61 30.90625 59.640625 27.546875 
Q 58.296875 24.203125 57.046875 21.046875 
Q 55.796875 17.90625 54.6875 15.34375 
Q 53.59375 12.796875 53 11.5 
Q 52.09375 13.90625 50.9375 17.046875 
Q 49.796875 20.203125 48.59375 23.5 
Q 47.40625 26.796875 46.25 30.09375 
Q 45.09375 33.40625 44.1875 36.09375 
Q 43.296875 38.796875 42.75 40.640625 
Q 42.203125 42.5 42.203125 43 
Q 42.203125 44.09375 43.046875 44.640625 
Q 43.90625 45.203125 45.046875 45.5 
Q 46.203125 45.796875 47.390625 45.9375 
Q 48.59375 46.09375 49.40625 46.203125 
L 49.40625 47.296875 
L 26.59375 47.296875 
L 26.59375 46.203125 
Q 28.40625 46.09375 29.40625 45.84375 
Q 30.40625 45.59375 30.953125 45.25 
Q 31.5 44.90625 31.75 44.546875 
Q 32 44.203125 32.296875 43.90625 
Q 33.296875 42.09375 34.09375 40.25 
Q 34.90625 38.40625 35.59375 36.40625 
Q 34.296875 32.796875 32.9375 29.09375 
Q 31.59375 25.40625 30.296875 22 
Q 29 18.59375 27.890625 15.796875 
Q 26.796875 13 26 11 
Q 24.09375 15.59375 21.796875 21.09375 
Q 19.5 26.59375 17.5 31.5 
Q 15.5 36.40625 14.140625 39.953125 
Q 12.796875 43.5 12.59375 44.296875 
Q 13.09375 44.796875 13.9375 45.09375 
Q 14.796875 45.40625 15.75 45.65625 
Q 16.703125 45.90625 17.640625 46 
Q 18.59375 46.09375 19.296875 46.203125 
L 19.296875 47.296875 
L -3.203125 47.296875 
L -3.203125 46.203125 
Q 0.09375 46.09375 1.25 45.34375 
Q 2.40625 44.59375 3 44.09375 
Q 3.796875 42.796875 4.546875 41.140625 
Q 5.296875 39.5 5.90625 38.09375 
Q 10.09375 28 13.796875 19 
Q 17.5 10 21.40625 0.5 
Q 21.796875 -0.203125 22.296875 -0.203125 
Q 22.90625 -0.203125 23.296875 0.40625 
Q 24.296875 2.59375 25 4.5 
Q 25.703125 6.40625 27.09375 9.09375 
L 36.59375 33.90625 
Q 38.59375 28.09375 40.09375 23.59375 
Q 41.59375 19.09375 42.890625 15.296875 
Q 44.203125 11.5 45.390625 7.953125 
Q 46.59375 4.40625 47.90625 0.5 
Q 48 0.203125 48.140625 0 
Q 48.296875 -0.203125 48.796875 -0.203125 
Q 49.296875 -0.203125 49.703125 0.40625 
Q 50.296875 1.59375 50.75 2.59375 
Q 51.203125 3.59375 51.703125 4.640625 
Q 52.203125 5.703125 52.796875 7.046875 
Q 53.40625 8.40625 54.296875 10.296875 
Q 55.703125 13.796875 57.453125 17.84375 
Q 59.203125 21.90625 60.953125 26 
Q 62.703125 30.09375 64.34375 33.84375 
Q 66 37.59375 67.203125 40.40625 
Q 68.09375 42.5 69.25 43.640625 
Q 70.40625 44.796875 71.59375 45.34375 
Q 72.796875 45.90625 74.046875 46 
Q 75.296875 46.09375 76.5 46.203125 
z
" id="BigCaslon-Medium-119"/>
     <path d="M 51.40625 0 
L 51.40625 0.90625 
Q 50.5 1 49.5 1.140625 
Q 48.5 1.296875 47.59375 1.546875 
Q 46.703125 1.796875 46.09375 2.296875 
Q 45.5 2.796875 45.5 3.5 
L 45.5 33 
Q 45.5 36.296875 44.953125 39.09375 
Q 44.40625 41.90625 43.046875 43.953125 
Q 41.703125 46 39.453125 47.140625 
Q 37.203125 48.296875 33.90625 48.296875 
Q 30.5 48.296875 27.640625 47.140625 
Q 24.796875 46 22.59375 44.390625 
Q 20.40625 42.796875 18.953125 41 
Q 17.5 39.203125 16.796875 37.796875 
L 16.59375 37.90625 
L 16.90625 72.59375 
L 16.09375 72.59375 
L 2.703125 66.5 
L 2.703125 65.90625 
Q 4 65.09375 5.34375 64.4375 
Q 6.703125 63.796875 7.5 63.09375 
Q 8.203125 62.59375 8.34375 62.1875 
Q 8.5 61.796875 8.5 61 
L 8.5 4.203125 
Q 8.5 2.296875 6.640625 1.75 
Q 4.796875 1.203125 2.5 1 
L 2.5 0 
L 22.40625 0 
L 22.40625 1 
Q 21.40625 1.203125 20.40625 1.296875 
Q 19.40625 1.40625 18.59375 1.65625 
Q 17.796875 1.90625 17.296875 2.40625 
Q 16.796875 2.90625 16.796875 3.796875 
L 16.796875 34.5 
Q 16.796875 35.296875 17.140625 36.25 
Q 17.5 37.203125 17.703125 37.5 
Q 19.203125 39.703125 21.703125 41 
Q 24.203125 42.296875 27.796875 42.296875 
Q 30.59375 42.296875 32.390625 41.296875 
Q 34.203125 40.296875 35.25 38.5 
Q 36.296875 36.703125 36.6875 34.203125 
Q 37.09375 31.703125 37.09375 28.796875 
L 37.09375 3.796875 
Q 37.09375 2.203125 35.296875 1.75 
Q 33.5 1.296875 30.796875 1.09375 
L 30.796875 0 
z
" id="BigCaslon-Medium-104"/>
     <path d="M 53.296875 3.90625 
L 53.296875 4.59375 
Q 51.40625 5.40625 49.203125 6.296875 
Q 47 7.203125 46.203125 7.703125 
L 46.203125 72.59375 
L 45.40625 72.59375 
L 29.5 68.203125 
L 29.5 67.59375 
L 37.703125 64.5 
Q 37.703125 63.40625 37.703125 61 
Q 37.703125 58.703125 37.703125 56 
Q 37.703125 53.296875 37.75 50.6875 
Q 37.796875 48.09375 37.90625 46.59375 
Q 35.703125 47.296875 33.046875 47.796875 
Q 30.40625 48.296875 27.40625 48.296875 
Q 21.703125 48.296875 17 46.390625 
Q 12.296875 44.5 8.9375 41.140625 
Q 5.59375 37.796875 3.75 33.296875 
Q 1.90625 28.796875 1.90625 23.59375 
Q 1.90625 17.796875 3.5 13.34375 
Q 5.09375 8.90625 7.796875 5.84375 
Q 10.5 2.796875 13.953125 1.34375 
Q 17.40625 -0.09375 21.09375 -0.09375 
Q 27 -0.09375 30.953125 2.296875 
Q 34.90625 4.703125 37.796875 9.703125 
L 37.90625 9.703125 
L 37.90625 -0.296875 
L 38.5 -0.296875 
z
M 37.796875 13.5 
Q 37 9.203125 34.046875 6.390625 
Q 31.09375 3.59375 27 3.59375 
Q 23.09375 3.59375 20.140625 5.390625 
Q 17.203125 7.203125 15.203125 10.140625 
Q 13.203125 13.09375 12.203125 16.9375 
Q 11.203125 20.796875 11.203125 24.90625 
Q 11.203125 29 12.046875 32.890625 
Q 12.90625 36.796875 14.703125 39.796875 
Q 16.5 42.796875 19.25 44.59375 
Q 22 46.40625 25.90625 46.40625 
Q 28.796875 46.40625 32.1875 43.90625 
Q 35.59375 41.40625 37.796875 37.296875 
z
" id="BigCaslon-Medium-100"/>
    </defs>
    <g style="fill:#262626;" transform="translate(263.64125 15.91125)scale(0.12 -0.12)">
     <use xlink:href="#BigCaslon-Medium-80"/>
     <use x="65.599991" xlink:href="#BigCaslon-Medium-114"/>
     <use x="101.299988" xlink:href="#BigCaslon-Medium-111"/>
     <use x="152.399979" xlink:href="#BigCaslon-Medium-98"/>
     <use x="206.199966" xlink:href="#BigCaslon-Medium-97"/>
     <use x="250.999954" xlink:href="#BigCaslon-Medium-98"/>
     <use x="304.799942" xlink:href="#BigCaslon-Medium-105"/>
     <use x="330.199936" xlink:href="#BigCaslon-Medium-108"/>
     <use x="354.799927" xlink:href="#BigCaslon-Medium-105"/>
     <use x="380.199921" xlink:href="#BigCaslon-Medium-116"/>
     <use x="412.599915" xlink:href="#BigCaslon-Medium-121"/>
     <use x="454.199905" xlink:href="#BigCaslon-Medium-32"/>
     <use x="475.19989" xlink:href="#BigCaslon-Medium-119"/>
     <use x="549.099884" xlink:href="#BigCaslon-Medium-101"/>
     <use x="592.599869" xlink:href="#BigCaslon-Medium-105"/>
     <use x="617.999863" xlink:href="#BigCaslon-Medium-103"/>
     <use x="670.499847" xlink:href="#BigCaslon-Medium-104"/>
     <use x="722.899841" xlink:href="#BigCaslon-Medium-116"/>
     <use x="755.299835" xlink:href="#BigCaslon-Medium-101"/>
     <use x="798.79982" xlink:href="#BigCaslon-Medium-100"/>
     <use x="853.399811" xlink:href="#BigCaslon-Medium-32"/>
     <use x="874.399796" xlink:href="#BigCaslon-Medium-115"/>
     <use x="912.599792" xlink:href="#BigCaslon-Medium-101"/>
     <use x="956.099777" xlink:href="#BigCaslon-Medium-103"/>
     <use x="1008.599762" xlink:href="#BigCaslon-Medium-109"/>
     <use x="1087.999756" xlink:href="#BigCaslon-Medium-101"/>
     <use x="1131.499741" xlink:href="#BigCaslon-Medium-110"/>
     <use x="1183.599731" xlink:href="#BigCaslon-Medium-116"/>
     <use x="1215.999725" xlink:href="#BigCaslon-Medium-97"/>
     <use x="1260.799713" xlink:href="#BigCaslon-Medium-116"/>
     <use x="1293.199707" xlink:href="#BigCaslon-Medium-105"/>
     <use x="1318.599701" xlink:href="#BigCaslon-Medium-111"/>
     <use x="1369.699692" xlink:href="#BigCaslon-Medium-110"/>
    </g>
   </g>
  </g>
  <g id="axes_3">
   <g id="patch_6">
    <path d="M 486.808824 130.63125 
L 683.75 130.63125 
L 683.75 21.91125 
L 486.808824 21.91125 
z
" style="fill:none;"/>
   </g>
   <g id="matplotlib.axis_5">
    <g id="xtick_13">
     <g id="text_21">
      <!-- 0.0 -->
      <g style="fill:#262626;" transform="translate(479.858824 144.789063)scale(0.1 -0.1)">
       <use xlink:href="#ArialMT-48"/>
       <use x="55.615234" xlink:href="#ArialMT-46"/>
       <use x="83.398438" xlink:href="#ArialMT-48"/>
      </g>
     </g>
    </g>
    <g id="xtick_14">
     <g id="text_22">
      <!-- 0.2 -->
      <g style="fill:#262626;" transform="translate(519.247059 144.789063)scale(0.1 -0.1)">
       <use xlink:href="#ArialMT-48"/>
       <use x="55.615234" xlink:href="#ArialMT-46"/>
       <use x="83.398438" xlink:href="#ArialMT-50"/>
      </g>
     </g>
    </g>
    <g id="xtick_15">
     <g id="text_23">
      <!-- 0.4 -->
      <g style="fill:#262626;" transform="translate(558.635294 144.789063)scale(0.1 -0.1)">
       <use xlink:href="#ArialMT-48"/>
       <use x="55.615234" xlink:href="#ArialMT-46"/>
       <use x="83.398438" xlink:href="#ArialMT-52"/>
      </g>
     </g>
    </g>
    <g id="xtick_16">
     <g id="text_24">
      <!-- 0.6 -->
      <g style="fill:#262626;" transform="translate(598.023529 144.789063)scale(0.1 -0.1)">
       <use xlink:href="#ArialMT-48"/>
       <use x="55.615234" xlink:href="#ArialMT-46"/>
       <use x="83.398438" xlink:href="#ArialMT-54"/>
      </g>
     </g>
    </g>
    <g id="xtick_17">
     <g id="text_25">
      <!-- 0.8 -->
      <g style="fill:#262626;" transform="translate(637.411765 144.789063)scale(0.1 -0.1)">
       <use xlink:href="#ArialMT-48"/>
       <use x="55.615234" xlink:href="#ArialMT-46"/>
       <use x="83.398438" xlink:href="#ArialMT-56"/>
      </g>
     </g>
    </g>
    <g id="xtick_18">
     <g id="text_26">
      <!-- 1.0 -->
      <g style="fill:#262626;" transform="translate(676.8 144.789063)scale(0.1 -0.1)">
       <use xlink:href="#ArialMT-49"/>
       <use x="55.615234" xlink:href="#ArialMT-46"/>
       <use x="83.398438" xlink:href="#ArialMT-48"/>
      </g>
     </g>
    </g>
   </g>
   <g id="matplotlib.axis_6"/>
   <g id="PolyCollection_7">
    <defs>
     <path d="M 486.808824 -126.88817 
L 486.808824 -23.345313 
L 488.798128 -23.345313 
L 490.787433 -23.345313 
L 492.776738 -23.345313 
L 494.766043 -23.345313 
L 496.755348 -23.345313 
L 498.744652 -23.345313 
L 500.733957 -23.345313 
L 502.723262 -23.345313 
L 504.712567 -23.345313 
L 506.701872 -23.345313 
L 508.691176 -23.345313 
L 510.680481 -23.345313 
L 512.669786 -23.345313 
L 514.659091 -23.345313 
L 516.648396 -23.345313 
L 518.637701 -23.345313 
L 520.627005 -23.345313 
L 522.61631 -23.345313 
L 524.605615 -23.345313 
L 526.59492 -23.345313 
L 528.584225 -23.345313 
L 530.573529 -23.345313 
L 532.562834 -23.345313 
L 534.552139 -23.345313 
L 536.541444 -23.345313 
L 538.530749 -23.345313 
L 540.520053 -23.345313 
L 542.509358 -23.345313 
L 544.498663 -23.345313 
L 546.487968 -23.345313 
L 548.477273 -23.345313 
L 550.466578 -23.345313 
L 552.455882 -23.345313 
L 554.445187 -23.345313 
L 556.434492 -23.345313 
L 558.423797 -23.345313 
L 560.413102 -23.345313 
L 562.402406 -23.345313 
L 564.391711 -23.345313 
L 566.381016 -23.345313 
L 568.370321 -23.345313 
L 570.359626 -23.345313 
L 572.34893 -23.345313 
L 574.338235 -23.345313 
L 576.32754 -23.345313 
L 578.316845 -23.345313 
L 580.30615 -23.345313 
L 582.295455 -23.345313 
L 584.284759 -23.345313 
L 586.274064 -23.345313 
L 588.263369 -23.345313 
L 590.252674 -23.345313 
L 592.241979 -23.345313 
L 594.231283 -23.345313 
L 596.220588 -23.345313 
L 598.209893 -23.345313 
L 600.199198 -23.345313 
L 602.188503 -23.345313 
L 604.177807 -23.345313 
L 604.177807 -126.88817 
L 604.177807 -126.88817 
L 602.188503 -126.88817 
L 600.199198 -126.88817 
L 598.209893 -126.88817 
L 596.220588 -126.88817 
L 594.231283 -126.88817 
L 592.241979 -126.88817 
L 590.252674 -126.88817 
L 588.263369 -126.88817 
L 586.274064 -126.88817 
L 584.284759 -126.88817 
L 582.295455 -126.88817 
L 580.30615 -126.88817 
L 578.316845 -126.88817 
L 576.32754 -126.88817 
L 574.338235 -126.88817 
L 572.34893 -126.88817 
L 570.359626 -126.88817 
L 568.370321 -126.88817 
L 566.381016 -126.88817 
L 564.391711 -126.88817 
L 562.402406 -126.88817 
L 560.413102 -126.88817 
L 558.423797 -126.88817 
L 556.434492 -126.88817 
L 554.445187 -126.88817 
L 552.455882 -126.88817 
L 550.466578 -126.88817 
L 548.477273 -126.88817 
L 546.487968 -126.88817 
L 544.498663 -126.88817 
L 542.509358 -126.88817 
L 540.520053 -126.88817 
L 538.530749 -126.88817 
L 536.541444 -126.88817 
L 534.552139 -126.88817 
L 532.562834 -126.88817 
L 530.573529 -126.88817 
L 528.584225 -126.88817 
L 526.59492 -126.88817 
L 524.605615 -126.88817 
L 522.61631 -126.88817 
L 520.627005 -126.88817 
L 518.637701 -126.88817 
L 516.648396 -126.88817 
L 514.659091 -126.88817 
L 512.669786 -126.88817 
L 510.680481 -126.88817 
L 508.691176 -126.88817 
L 506.701872 -126.88817 
L 504.712567 -126.88817 
L 502.723262 -126.88817 
L 500.733957 -126.88817 
L 498.744652 -126.88817 
L 496.755348 -126.88817 
L 494.766043 -126.88817 
L 492.776738 -126.88817 
L 490.787433 -126.88817 
L 488.798128 -126.88817 
L 486.808824 -126.88817 
z
" id="mb8331e7805" style="stroke:#999999;stroke-opacity:0.1;"/>
    </defs>
    <g clip-path="url(#pa1a28a44b7)">
     <use style="fill:#999999;fill-opacity:0.1;stroke:#999999;stroke-opacity:0.1;" x="0" xlink:href="#mb8331e7805" y="153.976563"/>
    </g>
   </g>
   <g id="PolyCollection_8">
    <defs>
     <path d="M 608.156417 -126.88817 
L 608.156417 -23.345313 
L 610.145722 -23.345313 
L 612.135027 -23.345313 
L 614.124332 -23.345313 
L 616.113636 -23.345313 
L 618.102941 -23.345313 
L 620.092246 -23.345313 
L 622.081551 -23.345313 
L 624.070856 -23.345313 
L 626.06016 -23.345313 
L 628.049465 -23.345313 
L 630.03877 -23.345313 
L 632.028075 -23.345313 
L 634.01738 -23.345313 
L 636.006684 -23.345313 
L 637.995989 -23.345313 
L 637.995989 -126.88817 
L 637.995989 -126.88817 
L 636.006684 -126.88817 
L 634.01738 -126.88817 
L 632.028075 -126.88817 
L 630.03877 -126.88817 
L 628.049465 -126.88817 
L 626.06016 -126.88817 
L 624.070856 -126.88817 
L 622.081551 -126.88817 
L 620.092246 -126.88817 
L 618.102941 -126.88817 
L 616.113636 -126.88817 
L 614.124332 -126.88817 
L 612.135027 -126.88817 
L 610.145722 -126.88817 
L 608.156417 -126.88817 
z
" id="mea73c43498" style="stroke:#999999;stroke-opacity:0.1;"/>
    </defs>
    <g clip-path="url(#pa1a28a44b7)">
     <use style="fill:#999999;fill-opacity:0.1;stroke:#999999;stroke-opacity:0.1;" x="0" xlink:href="#mea73c43498" y="153.976563"/>
    </g>
   </g>
   <g id="PolyCollection_9">
    <defs>
     <path d="M 641.974599 -126.88817 
L 641.974599 -23.345313 
L 643.963904 -23.345313 
L 645.953209 -23.345313 
L 647.942513 -23.345313 
L 649.931818 -23.345313 
L 651.921123 -23.345313 
L 653.910428 -23.345313 
L 655.899733 -23.345313 
L 657.889037 -23.345313 
L 659.878342 -23.345313 
L 661.867647 -23.345313 
L 663.856952 -23.345313 
L 665.846257 -23.345313 
L 667.835561 -23.345313 
L 669.824866 -23.345313 
L 671.814171 -23.345313 
L 673.803476 -23.345313 
L 675.792781 -23.345313 
L 677.782086 -23.345313 
L 679.77139 -23.345313 
L 681.760695 -23.345313 
L 683.75 -23.345313 
L 683.75 -126.88817 
L 683.75 -126.88817 
L 681.760695 -126.88817 
L 679.77139 -126.88817 
L 677.782086 -126.88817 
L 675.792781 -126.88817 
L 673.803476 -126.88817 
L 671.814171 -126.88817 
L 669.824866 -126.88817 
L 667.835561 -126.88817 
L 665.846257 -126.88817 
L 663.856952 -126.88817 
L 661.867647 -126.88817 
L 659.878342 -126.88817 
L 657.889037 -126.88817 
L 655.899733 -126.88817 
L 653.910428 -126.88817 
L 651.921123 -126.88817 
L 649.931818 -126.88817 
L 647.942513 -126.88817 
L 645.953209 -126.88817 
L 643.963904 -126.88817 
L 641.974599 -126.88817 
z
" id="m0b5fd60ba1" style="stroke:#999999;stroke-opacity:0.1;"/>
    </defs>
    <g clip-path="url(#pa1a28a44b7)">
     <use style="fill:#999999;fill-opacity:0.1;stroke:#999999;stroke-opacity:0.1;" x="0" xlink:href="#m0b5fd60ba1" y="153.976563"/>
    </g>
   </g>
   <g id="PathCollection_3">
    <g clip-path="url(#pa1a28a44b7)">
     <use style="fill:#4d089a;stroke:#4d089a;" x="546.487968" xlink:href="#m1a217cbb86" y="127.832794"/>
     <use style="fill:#4d089a;stroke:#4d089a;" x="624.070856" xlink:href="#m1a217cbb86" y="127.832794"/>
     <use style="fill:#4d089a;stroke:#4d089a;" x="661.867647" xlink:href="#m1a217cbb86" y="127.832794"/>
    </g>
   </g>
   <g id="patch_7">
    <path clip-path="url(#pa1a28a44b7)" d="M 516.744405 130.63125 
L 525.051874 130.63125 
L 525.051874 130.604713 
L 516.744405 130.604713 
z
" style="fill:#821580;opacity:0.1;stroke:#ffffff;stroke-linejoin:miter;"/>
   </g>
   <g id="patch_8">
    <path clip-path="url(#pa1a28a44b7)" d="M 525.051874 130.63125 
L 533.359343 130.63125 
L 533.359343 130.564908 
L 525.051874 130.564908 
z
" style="fill:#821580;opacity:0.1;stroke:#ffffff;stroke-linejoin:miter;"/>
   </g>
   <g id="patch_9">
    <path clip-path="url(#pa1a28a44b7)" d="M 533.359343 130.63125 
L 541.666812 130.63125 
L 541.666812 130.273005 
L 533.359343 130.273005 
z
" style="fill:#821580;opacity:0.1;stroke:#ffffff;stroke-linejoin:miter;"/>
   </g>
   <g id="patch_10">
    <path clip-path="url(#pa1a28a44b7)" d="M 541.666812 130.63125 
L 549.974281 130.63125 
L 549.974281 129.529979 
L 541.666812 129.529979 
z
" style="fill:#821580;opacity:0.1;stroke:#ffffff;stroke-linejoin:miter;"/>
   </g>
   <g id="patch_11">
    <path clip-path="url(#pa1a28a44b7)" d="M 549.974281 130.63125 
L 558.28175 130.63125 
L 558.28175 128.163341 
L 549.974281 128.163341 
z
" style="fill:#821580;opacity:0.1;stroke:#ffffff;stroke-linejoin:miter;"/>
   </g>
   <g id="patch_12">
    <path clip-path="url(#pa1a28a44b7)" d="M 558.28175 130.63125 
L 566.589219 130.63125 
L 566.589219 125.62909 
L 558.28175 125.62909 
z
" style="fill:#821580;opacity:0.1;stroke:#ffffff;stroke-linejoin:miter;"/>
   </g>
   <g id="patch_13">
    <path clip-path="url(#pa1a28a44b7)" d="M 566.589219 130.63125 
L 574.896688 130.63125 
L 574.896688 121.595518 
L 566.589219 121.595518 
z
" style="fill:#821580;opacity:0.1;stroke:#ffffff;stroke-linejoin:miter;"/>
   </g>
   <g id="patch_14">
    <path clip-path="url(#pa1a28a44b7)" d="M 574.896688 130.63125 
L 583.204157 130.63125 
L 583.204157 116.195309 
L 574.896688 116.195309 
z
" style="fill:#821580;opacity:0.1;stroke:#ffffff;stroke-linejoin:miter;"/>
   </g>
   <g id="patch_15">
    <path clip-path="url(#pa1a28a44b7)" d="M 583.204157 130.63125 
L 591.511627 130.63125 
L 591.511627 109.415193 
L 583.204157 109.415193 
z
" style="fill:#821580;opacity:0.1;stroke:#ffffff;stroke-linejoin:miter;"/>
   </g>
   <g id="patch_16">
    <path clip-path="url(#pa1a28a44b7)" d="M 591.511627 130.63125 
L 599.819096 130.63125 
L 599.819096 99.59663 
L 591.511627 99.59663 
z
" style="fill:#821580;opacity:0.1;stroke:#ffffff;stroke-linejoin:miter;"/>
   </g>
   <g id="patch_17">
    <path clip-path="url(#pa1a28a44b7)" d="M 599.819096 130.63125 
L 608.126565 130.63125 
L 608.126565 87.973574 
L 599.819096 87.973574 
z
" style="fill:#821580;opacity:0.1;stroke:#ffffff;stroke-linejoin:miter;"/>
   </g>
   <g id="patch_18">
    <path clip-path="url(#pa1a28a44b7)" d="M 608.126565 130.63125 
L 616.434034 130.63125 
L 616.434034 74.559294 
L 608.126565 74.559294 
z
" style="fill:#821580;opacity:0.1;stroke:#ffffff;stroke-linejoin:miter;"/>
   </g>
   <g id="patch_19">
    <path clip-path="url(#pa1a28a44b7)" d="M 616.434034 130.63125 
L 624.741503 130.63125 
L 624.741503 62.458579 
L 616.434034 62.458579 
z
" style="fill:#821580;opacity:0.1;stroke:#ffffff;stroke-linejoin:miter;"/>
   </g>
   <g id="patch_20">
    <path clip-path="url(#pa1a28a44b7)" d="M 624.741503 130.63125 
L 633.048972 130.63125 
L 633.048972 49.694447 
L 624.741503 49.694447 
z
" style="fill:#821580;opacity:0.1;stroke:#ffffff;stroke-linejoin:miter;"/>
   </g>
   <g id="patch_21">
    <path clip-path="url(#pa1a28a44b7)" d="M 633.048972 130.63125 
L 641.356441 130.63125 
L 641.356441 46.045657 
L 633.048972 46.045657 
z
" style="fill:#821580;opacity:0.1;stroke:#ffffff;stroke-linejoin:miter;"/>
   </g>
   <g id="patch_22">
    <path clip-path="url(#pa1a28a44b7)" d="M 641.356441 130.63125 
L 649.66391 130.63125 
L 649.66391 45.833364 
L 641.356441 45.833364 
z
" style="fill:#821580;opacity:0.1;stroke:#ffffff;stroke-linejoin:miter;"/>
   </g>
   <g id="patch_23">
    <path clip-path="url(#pa1a28a44b7)" d="M 649.66391 130.63125 
L 657.971379 130.63125 
L 657.971379 55.890757 
L 649.66391 55.890757 
z
" style="fill:#821580;opacity:0.1;stroke:#ffffff;stroke-linejoin:miter;"/>
   </g>
   <g id="patch_24">
    <path clip-path="url(#pa1a28a44b7)" d="M 657.971379 130.63125 
L 666.278848 130.63125 
L 666.278848 78.287695 
L 657.971379 78.287695 
z
" style="fill:#821580;opacity:0.1;stroke:#ffffff;stroke-linejoin:miter;"/>
   </g>
   <g id="patch_25">
    <path clip-path="url(#pa1a28a44b7)" d="M 666.278848 130.63125 
L 674.586318 130.63125 
L 674.586318 102.489126 
L 666.278848 102.489126 
z
" style="fill:#821580;opacity:0.1;stroke:#ffffff;stroke-linejoin:miter;"/>
   </g>
   <g id="patch_26">
    <path clip-path="url(#pa1a28a44b7)" d="M 674.586318 130.63125 
L 682.893787 130.63125 
L 682.893787 124.408404 
L 674.586318 124.408404 
z
" style="fill:#821580;opacity:0.1;stroke:#ffffff;stroke-linejoin:miter;"/>
   </g>
   <g id="line2d_3">
    <path clip-path="url(#pa1a28a44b7)" d="M 486.808824 130.63125 
L 488.798128 130.63125 
L 490.787433 130.63125 
L 492.776738 130.63125 
L 494.766043 130.631248 
L 496.755348 130.631242 
L 498.744652 130.631223 
L 500.733957 130.631173 
L 502.723262 130.631058 
L 504.712567 130.630823 
L 506.701872 130.630376 
L 508.691176 130.629586 
L 510.680481 130.628259 
L 512.669786 130.626132 
L 514.659091 130.622851 
L 516.648396 130.617955 
L 518.637701 130.610856 
L 520.627005 130.600822 
L 522.61631 130.586952 
L 524.605615 130.56816 
L 526.59492 130.543152 
L 528.584225 130.510405 
L 530.573529 130.468154 
L 532.562834 130.414367 
L 534.552139 130.346735 
L 536.541444 130.262657 
L 538.530749 130.159227 
L 540.520053 130.03323 
L 542.509358 129.881136 
L 544.498663 129.699099 
L 546.487968 129.482961 
L 548.477273 129.228262 
L 550.466578 128.930253 
L 552.455882 128.583912 
L 554.445187 128.183972 
L 556.434492 127.72495 
L 558.423797 127.201182 
L 560.413102 126.606864 
L 562.402406 125.936105 
L 564.391711 125.182976 
L 566.381016 124.341576 
L 568.370321 123.406095 
L 570.359626 122.370891 
L 572.34893 121.230567 
L 574.338235 119.980056 
L 576.32754 118.614714 
L 578.316845 117.130412 
L 580.30615 115.523637 
L 582.295455 113.791595 
L 584.284759 111.932321 
L 586.274064 109.944781 
L 588.263369 107.828991 
L 590.252674 105.58612 
L 592.241979 103.218606 
L 594.231283 100.730264 
L 596.220588 98.126386 
L 598.209893 95.413852 
L 600.199198 92.601214 
L 602.188503 89.698791 
L 604.177807 86.718743 
L 606.167112 83.675137 
L 608.156417 80.584001 
L 610.145722 77.463358 
L 612.135027 74.333243 
L 614.124332 71.215706 
L 616.113636 68.134778 
L 618.102941 65.116423 
L 620.092246 62.188454 
L 622.081551 59.380417 
L 624.070856 56.723443 
L 626.06016 54.250056 
L 628.049465 51.993936 
L 630.03877 49.989643 
L 632.028075 48.272284 
L 634.01738 46.877121 
L 636.006684 45.839129 
L 637.995989 45.19248 
L 639.985294 44.96996 
L 641.974599 45.202318 
L 643.963904 45.917521 
L 645.953209 47.139939 
L 647.942513 48.889428 
L 649.931818 51.180321 
L 651.921123 54.020312 
L 653.910428 57.409233 
L 655.899733 61.337714 
L 657.889037 65.785722 
L 659.878342 70.720959 
L 661.867647 76.097138 
L 663.856952 81.852101 
L 665.846257 87.905789 
L 667.835561 94.158048 
L 669.824866 100.486267 
L 671.814171 106.742836 
L 673.803476 112.752418 
L 675.792781 118.309018 
L 677.782086 123.172856 
L 679.77139 127.067015 
L 681.760695 129.673865 
L 683.75 130.63125 
" style="fill:none;stroke:#894da3;stroke-linecap:round;stroke-width:1.5;"/>
   </g>
   <g id="patch_27">
    <path d="M 486.808824 130.63125 
L 683.75 130.63125 
" style="fill:none;stroke:#cccccc;stroke-linecap:square;stroke-linejoin:miter;stroke-width:0.8;"/>
   </g>
   <g id="text_27">
    <!-- $A$ -->
    <g style="fill:#262626;" transform="translate(491.732353 41.080671)scale(0.1 -0.1)">
     <use transform="translate(0 0.09375)" xlink:href="#DejaVuSans-Oblique-65"/>
    </g>
   </g>
   <g id="text_28">
    <!-- $B$ -->
    <g style="fill:#262626;" transform="translate(613.079947 41.080671)scale(0.1 -0.1)">
     <use transform="translate(0 0.09375)" xlink:href="#DejaVuSans-Oblique-66"/>
    </g>
   </g>
   <g id="text_29">
    <!-- $C$ -->
    <g style="fill:#262626;" transform="translate(644.908824 41.080671)scale(0.1 -0.1)">
     <use transform="translate(0 0.78125)" xlink:href="#DejaVuSans-Oblique-67"/>
    </g>
   </g>
   <g id="text_30">
    <!-- K-means segmentation -->
    <defs>
     <path d="M 80.5 0 
L 80.5 1 
Q 77.703125 1.203125 75.453125 1.703125 
Q 73.203125 2.203125 71.90625 2.703125 
Q 71.59375 2.796875 70.6875 3.5 
Q 69.796875 4.203125 68.59375 5.140625 
Q 67.40625 6.09375 66.09375 7.296875 
Q 64.796875 8.5 63.796875 9.703125 
Q 59.59375 14.40625 55.046875 19.5 
Q 50.5 24.59375 46.5 29.09375 
Q 42.5 33.59375 39.59375 36.9375 
Q 36.703125 40.296875 35.90625 41.296875 
Q 37.59375 43.09375 39.640625 45.140625 
Q 41.703125 47.203125 43.84375 49.390625 
Q 46 51.59375 48.203125 53.796875 
Q 50.40625 56 52.5 57.90625 
Q 57.90625 62.90625 63.09375 66.703125 
Q 68.296875 70.5 73.40625 71 
L 73.40625 72 
L 46.59375 72 
L 46.59375 71 
Q 49.203125 70.59375 51.203125 69.296875 
Q 53.203125 68 53.203125 65.09375 
Q 53.203125 63.40625 51.84375 61.296875 
Q 50.5 59.203125 48.796875 57.203125 
Q 46.40625 54.59375 43.09375 51.09375 
Q 39.796875 47.59375 36.4375 44.296875 
Q 33.09375 41 30.046875 38.34375 
Q 27 35.703125 25.203125 34.59375 
Q 25.203125 40.203125 25.203125 43.796875 
Q 25.203125 47.5 25.203125 50.09375 
Q 25.203125 52.703125 25.25 54.703125 
Q 25.296875 56.703125 25.40625 59 
Q 25.5 63.203125 26.453125 65.5 
Q 27.40625 67.796875 28.796875 68.9375 
Q 30.203125 70.09375 32 70.4375 
Q 33.796875 70.796875 35.703125 71 
L 35.703125 72 
L 4.703125 72 
L 4.703125 71 
Q 7.296875 70.703125 9.296875 69.890625 
Q 11.296875 69.09375 12.703125 67.40625 
Q 13.796875 66 14.046875 62.796875 
Q 14.296875 59.59375 14.296875 55.796875 
L 14.296875 36.296875 
Q 14.296875 33.59375 14.296875 30.5 
Q 14.296875 27.5 14.296875 24.59375 
Q 14.296875 21.796875 14.25 19.390625 
Q 14.203125 17 14.203125 15.59375 
Q 14.203125 14 14.140625 12.25 
Q 14.09375 10.5 13.9375 8.953125 
Q 13.796875 7.40625 13.5 6.203125 
Q 13.203125 5 12.703125 4.40625 
Q 11.5 3 9.203125 2.203125 
Q 6.90625 1.40625 4.40625 1 
L 4.40625 0 
L 36.5 0 
L 36.5 1 
Q 35.5 1.09375 34.140625 1.34375 
Q 32.796875 1.59375 31.390625 2.046875 
Q 30 2.5 28.796875 3.203125 
Q 27.59375 3.90625 26.90625 4.90625 
Q 25.90625 6.203125 25.59375 8.703125 
Q 25.296875 11.203125 25.203125 14.09375 
Q 25.09375 17.40625 25.09375 22 
Q 25.09375 26.703125 25.09375 31.90625 
Q 25.40625 32.703125 25.65625 33.046875 
Q 25.90625 33.40625 26.703125 33.40625 
Q 27.40625 33.40625 28.34375 32.703125 
Q 29.296875 32 31.90625 29.09375 
Q 38.09375 22.296875 43.84375 15.640625 
Q 49.59375 9 56 1.59375 
Q 56.59375 0.90625 57.09375 0.546875 
Q 57.59375 0.203125 58 0 
z
" id="BigCaslon-Medium-75"/>
     <path d="M 24.296875 22.5 
L 24.296875 29.5 
L 1.203125 29.5 
L 1.203125 22.5 
z
" id="BigCaslon-Medium-45"/>
    </defs>
    <g style="fill:#262626;" transform="translate(529.557224 15.91125)scale(0.12 -0.12)">
     <use xlink:href="#BigCaslon-Medium-75"/>
     <use x="76.699982" xlink:href="#BigCaslon-Medium-45"/>
     <use x="102.299973" xlink:href="#BigCaslon-Medium-109"/>
     <use x="181.699966" xlink:href="#BigCaslon-Medium-101"/>
     <use x="225.199951" xlink:href="#BigCaslon-Medium-97"/>
     <use x="269.999939" xlink:href="#BigCaslon-Medium-110"/>
     <use x="322.09993" xlink:href="#BigCaslon-Medium-115"/>
     <use x="360.299927" xlink:href="#BigCaslon-Medium-32"/>
     <use x="381.299911" xlink:href="#BigCaslon-Medium-115"/>
     <use x="419.499908" xlink:href="#BigCaslon-Medium-101"/>
     <use x="462.999893" xlink:href="#BigCaslon-Medium-103"/>
     <use x="515.499878" xlink:href="#BigCaslon-Medium-109"/>
     <use x="594.899872" xlink:href="#BigCaslon-Medium-101"/>
     <use x="638.399857" xlink:href="#BigCaslon-Medium-110"/>
     <use x="690.499847" xlink:href="#BigCaslon-Medium-116"/>
     <use x="722.899841" xlink:href="#BigCaslon-Medium-97"/>
     <use x="767.699829" xlink:href="#BigCaslon-Medium-116"/>
     <use x="800.099823" xlink:href="#BigCaslon-Medium-105"/>
     <use x="825.499817" xlink:href="#BigCaslon-Medium-111"/>
     <use x="876.599808" xlink:href="#BigCaslon-Medium-110"/>
    </g>
   </g>
  </g>
 </g>
 <defs>
  <clipPath id="p8cd65bb7ba">
   <rect height="108.72" width="196.941176" x="14.15" y="21.91125"/>
  </clipPath>
  <clipPath id="p3c5dfb0b0c">
   <rect height="108.72" width="196.941176" x="250.479412" y="21.91125"/>
  </clipPath>
  <clipPath id="pa1a28a44b7">
   <rect height="108.72" width="196.941176" x="486.808824" y="21.91125"/>
  </clipPath>
 </defs>
</svg>
