<?xml version="1.0" encoding="UTF-8" standalone="no"?>
<!DOCTYPE svg PUBLIC "-//W3C//DTD SVG 1.1//EN" "http://www.w3.org/Graphics/SVG/1.1/DTD/svg11.dtd">
<svg xmlns:dc="http://purl.org/dc/elements/1.1/" xmlns:xl="http://www.w3.org/1999/xlink" version="1.1" xmlns="http://www.w3.org/2000/svg" viewBox="74 33 164 164" width="164" height="164">
  <defs/>
  <metadata> Produced by OmniGraffle 7.8.2 
    <dc:date>2019-09-03 16:17:43 +0000</dc:date>
  </metadata>
  <g id="Canvas_1" fill-opacity="1" stroke-dasharray="none" stroke="none" stroke-opacity="1" fill="none">
    <title>Canvas 1</title>
    <g id="Canvas_1: Layer 1">
      <title>Layer 1</title>
      <g id="Graphic_11">
        <circle cx="156.375" cy="114.84742" r="81.0001294300536" fill="white"/>
        <circle cx="156.375" cy="114.84742" r="81.0001294300536" stroke="black" stroke-linecap="round" stroke-linejoin="round" stroke-width="1"/>
      </g>
      <g id="Group_6">
        <g id="Graphic_10">
          <path d="M 213.65059 97.22416 C 245.2832 106.95722 245.2832 122.73762 213.65059 132.47068 C 182.01814 142.20378 130.73186 142.20378 99.09941 132.47068 C 67.46681 122.73762 67.46681 106.95722 99.09941 97.22416 C 130.73186 87.49105 182.01814 87.49105 213.65059 97.22416" stroke="black" stroke-linecap="round" stroke-linejoin="round" stroke-dasharray="4.0,4.0" stroke-width="1"/>
        </g>
        <g id="Line_9">
          <path d="M 156.375 33.847418 L 156.375 195.84742 L 156.375 195.84742" stroke="black" stroke-linecap="round" stroke-linejoin="round" stroke-dasharray="4.0,4.0" stroke-width="1"/>
        </g>
        <g id="Line_8">
          <line x1="75.375" y1="114.84742" x2="237.375" y2="114.84742" stroke="black" stroke-linecap="round" stroke-linejoin="round" stroke-dasharray="4.0,4.0" stroke-width="1"/>
        </g>
        <g id="Line_7">
          <path d="M 102.375 132.84742 L 130.50852 123.47944 L 210.375 96.84742" stroke="black" stroke-linecap="round" stroke-linejoin="round" stroke-dasharray="4.0,4.0" stroke-width="1"/>
        </g>
      </g>
      <g id="Line_5">
        <path d="M 120.06606 171.87723 C 120.06606 171.87723 142.84357 160.88701 166.78075 139.41291 C 190.71793 117.93881 204.55867 96.07871 204.55867 96.07871" stroke="#b4b4b4" stroke-linecap="butt" stroke-linejoin="round" stroke-width="1"/>
      </g>
      <g id="Graphic_3">
        <circle cx="120.375" cy="171.28644" r="9.00001438111707" fill="#f7788a"/>
      </g>
      <g id="Graphic_2">
        <circle cx="204.3546" cy="95.48687" r="9.00001438111706" fill="#a87bd9"/>
      </g>
    </g>
  </g>
</svg>
