<?xml version="1.0" encoding="utf-8" standalone="no"?>
<!DOCTYPE svg PUBLIC "-//W3C//DTD SVG 1.1//EN"
  "http://www.w3.org/Graphics/SVG/1.1/DTD/svg11.dtd">
<!-- Created with matplotlib (https://matplotlib.org/) -->
<svg height="261.123594pt" version="1.1" viewBox="0 0 828.023125 261.123594" width="828.023125pt" xmlns="http://www.w3.org/2000/svg" xmlns:xlink="http://www.w3.org/1999/xlink">
 <defs>
  <style type="text/css">
*{stroke-linecap:butt;stroke-linejoin:round;}
  </style>
 </defs>
 <g id="figure_1">
  <g id="patch_1">
   <path d="M 0 261.123594 
L 828.023125 261.123594 
L 828.023125 0 
L 0 0 
z
" style="fill:none;"/>
  </g>
  <g id="axes_1">
   <g id="patch_2">
    <path d="M 43.535625 218.163281 
L 399.91375 218.163281 
L 399.91375 10.778906 
L 43.535625 10.778906 
z
" style="fill:none;"/>
   </g>
   <g id="matplotlib.axis_1">
    <g id="xtick_1">
     <g id="text_1">
      <!-- 2 -->
      <defs>
       <path d="M 50.34375 8.453125 
L 50.34375 0 
L 3.03125 0 
Q 2.9375 3.171875 4.046875 6.109375 
Q 5.859375 10.9375 9.828125 15.625 
Q 13.8125 20.3125 21.34375 26.46875 
Q 33.015625 36.03125 37.109375 41.625 
Q 41.21875 47.21875 41.21875 52.203125 
Q 41.21875 57.421875 37.46875 61 
Q 33.734375 64.59375 27.734375 64.59375 
Q 21.390625 64.59375 17.578125 60.78125 
Q 13.765625 56.984375 13.71875 50.25 
L 4.6875 51.171875 
Q 5.609375 61.28125 11.65625 66.578125 
Q 17.71875 71.875 27.9375 71.875 
Q 38.234375 71.875 44.234375 66.15625 
Q 50.25 60.453125 50.25 52 
Q 50.25 47.703125 48.484375 43.546875 
Q 46.734375 39.40625 42.65625 34.8125 
Q 38.578125 30.21875 29.109375 22.21875 
Q 21.1875 15.578125 18.9375 13.203125 
Q 16.703125 10.84375 15.234375 8.453125 
z
" id="ArialMT-50"/>
      </defs>
      <g style="fill:#262626;" transform="translate(40.755156 232.321094)scale(0.1 -0.1)">
       <use xlink:href="#ArialMT-50"/>
      </g>
     </g>
    </g>
    <g id="xtick_2">
     <g id="text_2">
      <!-- 16 -->
      <defs>
       <path d="M 37.25 0 
L 28.46875 0 
L 28.46875 56 
Q 25.296875 52.984375 20.140625 49.953125 
Q 14.984375 46.921875 10.890625 45.40625 
L 10.890625 53.90625 
Q 18.265625 57.375 23.78125 62.296875 
Q 29.296875 67.234375 31.59375 71.875 
L 37.25 71.875 
z
" id="ArialMT-49"/>
       <path d="M 49.75 54.046875 
L 41.015625 53.375 
Q 39.84375 58.546875 37.703125 60.890625 
Q 34.125 64.65625 28.90625 64.65625 
Q 24.703125 64.65625 21.53125 62.3125 
Q 17.390625 59.28125 14.984375 53.46875 
Q 12.59375 47.65625 12.5 36.921875 
Q 15.671875 41.75 20.265625 44.09375 
Q 24.859375 46.4375 29.890625 46.4375 
Q 38.671875 46.4375 44.84375 39.96875 
Q 51.03125 33.5 51.03125 23.25 
Q 51.03125 16.5 48.125 10.71875 
Q 45.21875 4.9375 40.140625 1.859375 
Q 35.0625 -1.21875 28.609375 -1.21875 
Q 17.625 -1.21875 10.6875 6.859375 
Q 3.765625 14.9375 3.765625 33.5 
Q 3.765625 54.25 11.421875 63.671875 
Q 18.109375 71.875 29.4375 71.875 
Q 37.890625 71.875 43.28125 67.140625 
Q 48.6875 62.40625 49.75 54.046875 
z
M 13.875 23.1875 
Q 13.875 18.65625 15.796875 14.5 
Q 17.71875 10.359375 21.1875 8.171875 
Q 24.65625 6 28.46875 6 
Q 34.03125 6 38.03125 10.484375 
Q 42.046875 14.984375 42.046875 22.703125 
Q 42.046875 30.125 38.078125 34.390625 
Q 34.125 38.671875 28.125 38.671875 
Q 22.171875 38.671875 18.015625 34.390625 
Q 13.875 30.125 13.875 23.1875 
z
" id="ArialMT-54"/>
      </defs>
      <g style="fill:#262626;" transform="translate(118.447167 232.321094)scale(0.1 -0.1)">
       <use xlink:href="#ArialMT-49"/>
       <use x="55.615234" xlink:href="#ArialMT-54"/>
      </g>
     </g>
    </g>
    <g id="xtick_3">
     <g id="text_3">
      <!-- 32 -->
      <defs>
       <path d="M 4.203125 18.890625 
L 12.984375 20.0625 
Q 14.5 12.59375 18.140625 9.296875 
Q 21.78125 6 27 6 
Q 33.203125 6 37.46875 10.296875 
Q 41.75 14.59375 41.75 20.953125 
Q 41.75 27 37.796875 30.921875 
Q 33.84375 34.859375 27.734375 34.859375 
Q 25.25 34.859375 21.53125 33.890625 
L 22.515625 41.609375 
Q 23.390625 41.5 23.921875 41.5 
Q 29.546875 41.5 34.03125 44.421875 
Q 38.53125 47.359375 38.53125 53.46875 
Q 38.53125 58.296875 35.25 61.46875 
Q 31.984375 64.65625 26.8125 64.65625 
Q 21.6875 64.65625 18.265625 61.421875 
Q 14.84375 58.203125 13.875 51.765625 
L 5.078125 53.328125 
Q 6.6875 62.15625 12.390625 67.015625 
Q 18.109375 71.875 26.609375 71.875 
Q 32.46875 71.875 37.390625 69.359375 
Q 42.328125 66.84375 44.9375 62.5 
Q 47.5625 58.15625 47.5625 53.265625 
Q 47.5625 48.640625 45.0625 44.828125 
Q 42.578125 41.015625 37.703125 38.765625 
Q 44.046875 37.3125 47.5625 32.6875 
Q 51.078125 28.078125 51.078125 21.140625 
Q 51.078125 11.765625 44.234375 5.25 
Q 37.40625 -1.265625 26.953125 -1.265625 
Q 17.53125 -1.265625 11.296875 4.34375 
Q 5.078125 9.96875 4.203125 18.890625 
z
" id="ArialMT-51"/>
      </defs>
      <g style="fill:#262626;" transform="translate(210.415716 232.321094)scale(0.1 -0.1)">
       <use xlink:href="#ArialMT-51"/>
       <use x="55.615234" xlink:href="#ArialMT-50"/>
      </g>
     </g>
    </g>
    <g id="xtick_4">
     <g id="text_4">
      <!-- 48 -->
      <defs>
       <path d="M 32.328125 0 
L 32.328125 17.140625 
L 1.265625 17.140625 
L 1.265625 25.203125 
L 33.9375 71.578125 
L 41.109375 71.578125 
L 41.109375 25.203125 
L 50.78125 25.203125 
L 50.78125 17.140625 
L 41.109375 17.140625 
L 41.109375 0 
z
M 32.328125 25.203125 
L 32.328125 57.46875 
L 9.90625 25.203125 
z
" id="ArialMT-52"/>
       <path d="M 17.671875 38.8125 
Q 12.203125 40.828125 9.5625 44.53125 
Q 6.9375 48.25 6.9375 53.421875 
Q 6.9375 61.234375 12.546875 66.546875 
Q 18.171875 71.875 27.484375 71.875 
Q 36.859375 71.875 42.578125 66.421875 
Q 48.296875 60.984375 48.296875 53.171875 
Q 48.296875 48.1875 45.671875 44.5 
Q 43.0625 40.828125 37.75 38.8125 
Q 44.34375 36.671875 47.78125 31.875 
Q 51.21875 27.09375 51.21875 20.453125 
Q 51.21875 11.28125 44.71875 5.03125 
Q 38.234375 -1.21875 27.640625 -1.21875 
Q 17.046875 -1.21875 10.546875 5.046875 
Q 4.046875 11.328125 4.046875 20.703125 
Q 4.046875 27.6875 7.59375 32.390625 
Q 11.140625 37.109375 17.671875 38.8125 
z
M 15.921875 53.71875 
Q 15.921875 48.640625 19.1875 45.40625 
Q 22.46875 42.1875 27.6875 42.1875 
Q 32.765625 42.1875 36.015625 45.375 
Q 39.265625 48.578125 39.265625 53.21875 
Q 39.265625 58.0625 35.90625 61.359375 
Q 32.5625 64.65625 27.59375 64.65625 
Q 22.5625 64.65625 19.234375 61.421875 
Q 15.921875 58.203125 15.921875 53.71875 
z
M 13.09375 20.65625 
Q 13.09375 16.890625 14.875 13.375 
Q 16.65625 9.859375 20.171875 7.921875 
Q 23.6875 6 27.734375 6 
Q 34.03125 6 38.125 10.046875 
Q 42.234375 14.109375 42.234375 20.359375 
Q 42.234375 26.703125 38.015625 30.859375 
Q 33.796875 35.015625 27.4375 35.015625 
Q 21.234375 35.015625 17.15625 30.90625 
Q 13.09375 26.8125 13.09375 20.65625 
z
" id="ArialMT-56"/>
      </defs>
      <g style="fill:#262626;" transform="translate(302.384264 232.321094)scale(0.1 -0.1)">
       <use xlink:href="#ArialMT-52"/>
       <use x="55.615234" xlink:href="#ArialMT-56"/>
      </g>
     </g>
    </g>
    <g id="xtick_5">
     <g id="text_5">
      <!-- 64 -->
      <g style="fill:#262626;" transform="translate(394.352812 232.321094)scale(0.1 -0.1)">
       <use xlink:href="#ArialMT-54"/>
       <use x="55.615234" xlink:href="#ArialMT-52"/>
      </g>
     </g>
    </g>
   </g>
   <g id="matplotlib.axis_2">
    <g id="ytick_1">
     <g id="text_6">
      <!-- 0.0 -->
      <defs>
       <path d="M 4.15625 35.296875 
Q 4.15625 48 6.765625 55.734375 
Q 9.375 63.484375 14.515625 67.671875 
Q 19.671875 71.875 27.484375 71.875 
Q 33.25 71.875 37.59375 69.546875 
Q 41.9375 67.234375 44.765625 62.859375 
Q 47.609375 58.5 49.21875 52.21875 
Q 50.828125 45.953125 50.828125 35.296875 
Q 50.828125 22.703125 48.234375 14.96875 
Q 45.65625 7.234375 40.5 3 
Q 35.359375 -1.21875 27.484375 -1.21875 
Q 17.140625 -1.21875 11.234375 6.203125 
Q 4.15625 15.140625 4.15625 35.296875 
z
M 13.1875 35.296875 
Q 13.1875 17.671875 17.3125 11.828125 
Q 21.4375 6 27.484375 6 
Q 33.546875 6 37.671875 11.859375 
Q 41.796875 17.71875 41.796875 35.296875 
Q 41.796875 52.984375 37.671875 58.78125 
Q 33.546875 64.59375 27.390625 64.59375 
Q 21.34375 64.59375 17.71875 59.46875 
Q 13.1875 52.9375 13.1875 35.296875 
z
" id="ArialMT-48"/>
       <path d="M 9.078125 0 
L 9.078125 10.015625 
L 19.09375 10.015625 
L 19.09375 0 
z
" id="ArialMT-46"/>
      </defs>
      <g style="fill:#262626;" transform="translate(22.635625 221.742188)scale(0.1 -0.1)">
       <use xlink:href="#ArialMT-48"/>
       <use x="55.615234" xlink:href="#ArialMT-46"/>
       <use x="83.398438" xlink:href="#ArialMT-48"/>
      </g>
     </g>
    </g>
    <g id="ytick_2">
     <g id="text_7">
      <!-- 0.1 -->
      <g style="fill:#262626;" transform="translate(22.635625 182.429836)scale(0.1 -0.1)">
       <use xlink:href="#ArialMT-48"/>
       <use x="55.615234" xlink:href="#ArialMT-46"/>
       <use x="83.398438" xlink:href="#ArialMT-49"/>
      </g>
     </g>
    </g>
    <g id="ytick_3">
     <g id="text_8">
      <!-- 0.2 -->
      <g style="fill:#262626;" transform="translate(22.635625 143.117485)scale(0.1 -0.1)">
       <use xlink:href="#ArialMT-48"/>
       <use x="55.615234" xlink:href="#ArialMT-46"/>
       <use x="83.398438" xlink:href="#ArialMT-50"/>
      </g>
     </g>
    </g>
    <g id="ytick_4">
     <g id="text_9">
      <!-- 0.3 -->
      <g style="fill:#262626;" transform="translate(22.635625 103.805133)scale(0.1 -0.1)">
       <use xlink:href="#ArialMT-48"/>
       <use x="55.615234" xlink:href="#ArialMT-46"/>
       <use x="83.398438" xlink:href="#ArialMT-51"/>
      </g>
     </g>
    </g>
    <g id="ytick_5">
     <g id="text_10">
      <!-- 0.4 -->
      <g style="fill:#262626;" transform="translate(22.635625 64.492782)scale(0.1 -0.1)">
       <use xlink:href="#ArialMT-48"/>
       <use x="55.615234" xlink:href="#ArialMT-46"/>
       <use x="83.398438" xlink:href="#ArialMT-52"/>
      </g>
     </g>
    </g>
    <g id="ytick_6">
     <g id="text_11">
      <!-- 0.5 -->
      <defs>
       <path d="M 4.15625 18.75 
L 13.375 19.53125 
Q 14.40625 12.796875 18.140625 9.390625 
Q 21.875 6 27.15625 6 
Q 33.5 6 37.890625 10.78125 
Q 42.28125 15.578125 42.28125 23.484375 
Q 42.28125 31 38.0625 35.34375 
Q 33.84375 39.703125 27 39.703125 
Q 22.75 39.703125 19.328125 37.765625 
Q 15.921875 35.84375 13.96875 32.765625 
L 5.71875 33.84375 
L 12.640625 70.609375 
L 48.25 70.609375 
L 48.25 62.203125 
L 19.671875 62.203125 
L 15.828125 42.96875 
Q 22.265625 47.46875 29.34375 47.46875 
Q 38.71875 47.46875 45.15625 40.96875 
Q 51.609375 34.46875 51.609375 24.265625 
Q 51.609375 14.546875 45.953125 7.46875 
Q 39.0625 -1.21875 27.15625 -1.21875 
Q 17.390625 -1.21875 11.203125 4.25 
Q 5.03125 9.71875 4.15625 18.75 
z
" id="ArialMT-53"/>
      </defs>
      <g style="fill:#262626;" transform="translate(22.635625 25.18043)scale(0.1 -0.1)">
       <use xlink:href="#ArialMT-48"/>
       <use x="55.615234" xlink:href="#ArialMT-46"/>
       <use x="83.398438" xlink:href="#ArialMT-53"/>
      </g>
     </g>
    </g>
    <g id="text_12">
     <!-- Distribution error -->
     <defs>
      <path d="M 82.203125 37 
Q 82.203125 43.5 80.546875 48.546875 
Q 78.90625 53.59375 76.15625 57.4375 
Q 73.40625 61.296875 69.703125 64.09375 
Q 66 66.90625 61.796875 68.703125 
Q 58.59375 70.09375 55.296875 70.796875 
Q 52 71.5 48.703125 71.796875 
Q 45.40625 72.09375 42.09375 72.09375 
Q 38.90625 72.09375 35.703125 72.09375 
Q 24.5 72.09375 16.59375 72.046875 
Q 8.703125 72 4.5 72 
L 4.5 71 
Q 7.09375 70.703125 9.1875 70 
Q 11.296875 69.296875 12.796875 67.5 
Q 13.40625 66.796875 13.703125 65.546875 
Q 14 64.296875 14.140625 62.75 
Q 14.296875 61.203125 14.296875 59.40625 
Q 14.296875 57.59375 14.296875 55.796875 
L 14.296875 36.296875 
Q 14.296875 33.59375 14.296875 30.5 
Q 14.296875 27.5 14.25 24.640625 
Q 14.203125 21.796875 14.140625 19.390625 
Q 14.09375 17 14.09375 15.59375 
Q 14.09375 14 14 12.296875 
Q 13.90625 10.59375 13.703125 9.09375 
Q 13.5 7.59375 13.25 6.390625 
Q 13 5.203125 12.5 4.703125 
Q 11.296875 3.296875 8.9375 2.296875 
Q 6.59375 1.296875 4.09375 1 
L 4.09375 0 
L 40.59375 0 
Q 45.203125 0 50.09375 0.640625 
Q 55 1.296875 59.59375 2.890625 
Q 64.203125 4.5 68.296875 7.203125 
Q 72.40625 9.90625 75.5 14 
Q 78.59375 18.09375 80.390625 23.796875 
Q 82.203125 29.5 82.203125 37 
z
M 69.90625 36.796875 
Q 69.90625 23.703125 64.546875 14.75 
Q 59.203125 5.796875 48.40625 2.703125 
Q 46.09375 2 43.4375 1.75 
Q 40.796875 1.5 38.296875 1.5 
Q 35.59375 1.5 32.546875 2.046875 
Q 29.5 2.59375 27.5 4.59375 
Q 26.90625 5.203125 26.453125 6.453125 
Q 26 7.703125 25.796875 9.25 
Q 25.59375 10.796875 25.4375 12.4375 
Q 25.296875 14.09375 25.296875 15.5 
Q 25.203125 18.796875 25.203125 24 
Q 25.203125 29.296875 25.203125 35.703125 
Q 25.203125 47.59375 25.296875 56.1875 
Q 25.40625 64.796875 25.90625 69.703125 
Q 26.59375 69.90625 27.75 70 
Q 28.90625 70.09375 30.25 70.25 
Q 31.59375 70.40625 33 70.453125 
Q 34.40625 70.5 35.59375 70.5 
Q 39.09375 70.5 41.5 70.25 
Q 43.90625 70 45.90625 69.59375 
Q 51.09375 68.703125 55.5 65.59375 
Q 59.90625 62.5 63.09375 58.046875 
Q 66.296875 53.59375 68.09375 48.09375 
Q 69.90625 42.59375 69.90625 36.796875 
z
" id="BigCaslon-Medium-68"/>
      <path d="M 17.703125 64.09375 
Q 17.703125 66.40625 16.140625 67.90625 
Q 14.59375 69.40625 12.296875 69.40625 
Q 10 69.40625 8.453125 67.90625 
Q 6.90625 66.40625 6.90625 64.09375 
Q 6.90625 61.90625 8.5 60.296875 
Q 10.09375 58.703125 12.296875 58.703125 
Q 14.59375 58.703125 16.140625 60.25 
Q 17.703125 61.796875 17.703125 64.09375 
z
M 23.296875 0 
L 23.296875 1 
Q 22.296875 1.203125 21.25 1.25 
Q 20.203125 1.296875 19.296875 1.5 
Q 18.40625 1.703125 17.75 2.140625 
Q 17.09375 2.59375 16.90625 3.59375 
L 16.90625 48.296875 
L 16.296875 48.296875 
L 2.796875 43.90625 
L 2.796875 43.296875 
Q 4.203125 42.796875 5.453125 42.1875 
Q 6.703125 41.59375 7.59375 41 
Q 8.296875 40.5 8.4375 39.890625 
Q 8.59375 39.296875 8.59375 38.5 
L 8.59375 4.203125 
Q 8.59375 3.296875 7.9375 2.6875 
Q 7.296875 2.09375 6.34375 1.75 
Q 5.40625 1.40625 4.203125 1.25 
Q 3 1.09375 1.796875 1 
L 1.796875 0 
z
" id="BigCaslon-Medium-105"/>
      <path d="M 36.90625 14.59375 
Q 36.90625 19.703125 33.75 23.203125 
Q 30.59375 26.703125 26.09375 27.796875 
Q 24.203125 28.296875 21.59375 28.84375 
Q 19 29.40625 16.796875 29.90625 
Q 13.59375 30.703125 11.5 32.296875 
Q 9.40625 33.90625 9.40625 37.59375 
Q 9.40625 39.90625 10.203125 41.65625 
Q 11 43.40625 12.25 44.546875 
Q 13.5 45.703125 15.140625 46.296875 
Q 16.796875 46.90625 18.5 46.90625 
Q 21.296875 46.90625 23.4375 45.90625 
Q 25.59375 44.90625 27.296875 43.046875 
Q 29 41.203125 30.390625 38.640625 
Q 31.796875 36.09375 33.203125 33.09375 
L 34 33.296875 
L 32.796875 45.703125 
Q 29.90625 46.796875 26.703125 47.546875 
Q 23.5 48.296875 19.296875 48.296875 
Q 16 48.296875 13.09375 47.34375 
Q 10.203125 46.40625 8 44.59375 
Q 5.796875 42.796875 4.5 40.296875 
Q 3.203125 37.796875 3.203125 34.703125 
Q 3.203125 30.203125 5.546875 27 
Q 7.90625 23.796875 11.703125 22.5 
Q 13.703125 21.796875 16.203125 21.1875 
Q 18.703125 20.59375 21.40625 20.09375 
Q 24.796875 19.40625 26.75 17.34375 
Q 28.703125 15.296875 28.703125 12.203125 
Q 28.703125 6.5 25.84375 3.75 
Q 23 1 18.203125 1 
Q 14.90625 1 12.5 2.453125 
Q 10.09375 3.90625 8.390625 6.15625 
Q 6.703125 8.40625 5.5 11.046875 
Q 4.296875 13.703125 3.5 16.09375 
L 2.703125 16.09375 
L 2.703125 2.90625 
Q 6 1.40625 9.890625 0.59375 
Q 13.796875 -0.203125 18.203125 -0.203125 
Q 21.90625 -0.203125 25.25 0.59375 
Q 28.59375 1.40625 31.1875 3.203125 
Q 33.796875 5 35.34375 7.84375 
Q 36.90625 10.703125 36.90625 14.59375 
z
" id="BigCaslon-Medium-115"/>
      <path d="M 35.09375 47.296875 
L 16.59375 47.296875 
L 16.59375 56 
L 15.796875 56 
L 1.296875 42.296875 
L 1.296875 41.203125 
L 8.59375 41.203125 
Q 8.59375 34.59375 8.5 26.140625 
Q 8.40625 17.703125 8.40625 8.296875 
Q 8.40625 6.703125 9.34375 5.140625 
Q 10.296875 3.59375 11.796875 2.34375 
Q 13.296875 1.09375 15.25 0.4375 
Q 17.203125 -0.203125 19.296875 -0.203125 
Q 22.5 -0.203125 24.84375 0.546875 
Q 27.203125 1.296875 28.953125 2.640625 
Q 30.703125 4 31.75 5.640625 
Q 32.796875 7.296875 33.40625 8.796875 
L 32.796875 9.09375 
Q 31.40625 7.09375 29.5 6.140625 
Q 27.59375 5.203125 24.703125 5.203125 
Q 21.203125 5.203125 19 7.5 
Q 16.796875 9.796875 16.796875 14.90625 
L 16.796875 41.203125 
L 32 41.203125 
z
" id="BigCaslon-Medium-116"/>
      <path d="M 36.703125 43 
Q 36.703125 45.296875 34.953125 46.796875 
Q 33.203125 48.296875 30.703125 48.296875 
Q 27.59375 48.296875 25.1875 46.59375 
Q 22.796875 44.90625 21.09375 42.546875 
Q 19.40625 40.203125 18.296875 37.890625 
Q 17.203125 35.59375 16.703125 34.40625 
L 16.5 34.40625 
L 16.703125 48.296875 
L 16.09375 48.296875 
L 3 43.203125 
L 3 42.59375 
Q 4.203125 42.09375 5.390625 41.34375 
Q 6.59375 40.59375 7.5 40.09375 
Q 8.203125 39.59375 8.34375 39.1875 
Q 8.5 38.796875 8.5 38 
L 8.5 4.203125 
Q 8.5 2.59375 6.84375 1.890625 
Q 5.203125 1.203125 2.90625 1 
L 2.90625 0 
L 25.296875 0 
L 25.296875 1 
Q 24.296875 1.203125 22.9375 1.25 
Q 21.59375 1.296875 20.34375 1.5 
Q 19.09375 1.703125 18.09375 2.203125 
Q 17.09375 2.703125 16.796875 3.59375 
L 16.796875 32.40625 
Q 17.40625 33.90625 18.203125 35.546875 
Q 19 37.203125 20 38.5 
Q 21 39.796875 22.140625 40.640625 
Q 23.296875 41.5 24.5 41.5 
Q 25.90625 41.5 26.703125 40.953125 
Q 27.5 40.40625 28.203125 39.703125 
Q 28.90625 39 29.84375 38.453125 
Q 30.796875 37.90625 32.40625 37.90625 
Q 34.09375 37.90625 35.390625 39.34375 
Q 36.703125 40.796875 36.703125 43 
z
" id="BigCaslon-Medium-114"/>
      <path d="M 51.90625 24.203125 
Q 51.90625 28.90625 50.59375 33.25 
Q 49.296875 37.59375 46.796875 40.9375 
Q 44.296875 44.296875 40.6875 46.296875 
Q 37.09375 48.296875 32.40625 48.296875 
Q 29.59375 48.296875 26.796875 47.296875 
Q 24 46.296875 21.640625 44.640625 
Q 19.296875 43 17.5 41 
Q 15.703125 39 14.796875 36.90625 
L 14.59375 37 
L 14.90625 72.59375 
L 14.09375 72.59375 
L 0.703125 66.5 
L 0.703125 65.90625 
Q 2.40625 65 4 64.09375 
Q 5.59375 63.203125 6.5 62.59375 
L 6.5 0.296875 
L 7.203125 0.296875 
L 9.59375 5.703125 
L 10.09375 5.703125 
Q 13.296875 3 18 1.453125 
Q 22.703125 -0.09375 28.40625 -0.09375 
Q 33.5 -0.09375 37.796875 1.75 
Q 42.09375 3.59375 45.25 6.890625 
Q 48.40625 10.203125 50.15625 14.640625 
Q 51.90625 19.09375 51.90625 24.203125 
z
M 42.703125 22.796875 
Q 42.703125 18.203125 41.703125 14.25 
Q 40.703125 10.296875 38.84375 7.390625 
Q 37 4.5 34.453125 2.890625 
Q 31.90625 1.296875 28.703125 1.296875 
Q 25 1.296875 22.390625 2.84375 
Q 19.796875 4.40625 18.140625 6.953125 
Q 16.5 9.5 15.703125 12.75 
Q 14.90625 16 14.796875 19.296875 
Q 14.703125 21.203125 14.703125 23.09375 
Q 14.703125 25.09375 14.703125 27.09375 
Q 14.703125 28.5 14.703125 30.703125 
Q 14.703125 33 14.796875 34.203125 
Q 14.796875 34.796875 15.546875 36.09375 
Q 16.296875 37.40625 17.75 38.703125 
Q 19.203125 40 21.453125 41 
Q 23.703125 42 26.796875 42 
Q 30.90625 42 33.90625 40.390625 
Q 36.90625 38.796875 38.84375 36.140625 
Q 40.796875 33.5 41.75 30.046875 
Q 42.703125 26.59375 42.703125 22.796875 
z
" id="BigCaslon-Medium-98"/>
      <path d="M 50.59375 2.5 
L 50.59375 3.09375 
Q 49.40625 3.59375 47.65625 4.390625 
Q 45.90625 5.203125 45 5.703125 
Q 44.296875 6.203125 44.140625 6.59375 
Q 44 7 44 7.796875 
L 44 47.296875 
L 27.203125 47.296875 
L 27.203125 46.203125 
Q 29.40625 46 31.453125 45.703125 
Q 33.5 45.40625 34.703125 44.90625 
Q 35.296875 44.09375 35.5 42.546875 
Q 35.703125 41 35.703125 40 
L 35.703125 11.5 
Q 34.796875 10.296875 33.75 9.1875 
Q 32.703125 8.09375 31.453125 7.25 
Q 30.203125 6.40625 28.640625 5.84375 
Q 27.09375 5.296875 25 5.296875 
Q 19.5 5.296875 17.5 8.4375 
Q 15.5 11.59375 15.5 18.203125 
L 15.5 47.296875 
L 0 47.296875 
L 0 46.203125 
Q 0.90625 46.09375 1.90625 46.046875 
Q 2.90625 46 3.796875 45.796875 
Q 4.703125 45.59375 5.453125 45.1875 
Q 6.203125 44.796875 6.59375 43.90625 
Q 6.796875 43.59375 6.84375 42.9375 
Q 6.90625 42.296875 7 41.546875 
Q 7.09375 40.796875 7.09375 40.09375 
Q 7.09375 39.40625 7.09375 39 
L 7.09375 14.59375 
Q 7.09375 7.296875 10.140625 3.5 
Q 13.203125 -0.296875 19.59375 -0.296875 
Q 22.40625 -0.296875 24.84375 0.59375 
Q 27.296875 1.5 29.296875 3.046875 
Q 31.296875 4.59375 32.890625 6.5 
Q 34.5 8.40625 35.59375 10.09375 
L 35.703125 10 
L 35.703125 -0.09375 
L 36.40625 -0.09375 
z
" id="BigCaslon-Medium-117"/>
      <path d="M 49.203125 24.5 
Q 49.203125 30.5 47.046875 34.953125 
Q 44.90625 39.40625 41.546875 42.34375 
Q 38.203125 45.296875 34.09375 46.796875 
Q 30 48.296875 26 48.296875 
Q 20.59375 48.296875 16.140625 46.296875 
Q 11.703125 44.296875 8.546875 41 
Q 5.40625 37.703125 3.65625 33.390625 
Q 1.90625 29.09375 1.90625 24.5 
Q 1.90625 18.09375 4.15625 13.34375 
Q 6.40625 8.59375 9.953125 5.546875 
Q 13.5 2.5 17.703125 1.09375 
Q 21.90625 -0.296875 25.796875 -0.296875 
Q 30.5 -0.296875 34.75 1.59375 
Q 39 3.5 42.203125 6.890625 
Q 45.40625 10.296875 47.296875 14.84375 
Q 49.203125 19.40625 49.203125 24.5 
z
M 39.90625 24.59375 
Q 39.90625 21.09375 39.15625 17 
Q 38.40625 12.90625 36.75 9.34375 
Q 35.09375 5.796875 32.4375 3.4375 
Q 29.796875 1.09375 25.90625 1.09375 
Q 22 1.09375 19.203125 2.9375 
Q 16.40625 4.796875 14.59375 7.9375 
Q 12.796875 11.09375 12 15.1875 
Q 11.203125 19.296875 11.203125 23.90625 
Q 11.203125 28.09375 12.140625 32.140625 
Q 13.09375 36.203125 14.9375 39.453125 
Q 16.796875 42.703125 19.390625 44.703125 
Q 22 46.703125 25.296875 46.703125 
Q 29.40625 46.703125 32.203125 44.546875 
Q 35 42.40625 36.703125 39.09375 
Q 38.40625 35.796875 39.15625 31.890625 
Q 39.90625 28 39.90625 24.59375 
z
" id="BigCaslon-Medium-111"/>
      <path d="M 51.203125 0 
L 51.203125 0.90625 
Q 50.296875 1 49.25 1.140625 
Q 48.203125 1.296875 47.296875 1.546875 
Q 46.40625 1.796875 45.75 2.296875 
Q 45.09375 2.796875 45.09375 3.5 
L 45.09375 32.90625 
Q 45.09375 39.703125 42 44 
Q 38.90625 48.296875 33.09375 48.296875 
Q 30.40625 48.296875 27.90625 47.25 
Q 25.40625 46.203125 23.296875 44.59375 
Q 21.203125 43 19.546875 41.046875 
Q 17.90625 39.09375 16.796875 37.40625 
L 16.59375 37.5 
L 16.59375 48.296875 
L 16 48.296875 
L 2.90625 43.59375 
L 2.90625 43 
Q 4.09375 42.5 5.296875 41.84375 
Q 6.5 41.203125 7.40625 40.703125 
Q 8.09375 40.203125 8.25 39.796875 
Q 8.40625 39.40625 8.40625 38.59375 
L 8.40625 4.203125 
Q 8.40625 2.59375 6.75 1.890625 
Q 5.09375 1.203125 2.796875 1 
L 2.796875 0 
L 22.09375 0 
L 22.09375 1 
Q 21.09375 1.203125 20.1875 1.25 
Q 19.296875 1.296875 18.59375 1.5 
Q 17.90625 1.703125 17.40625 2.140625 
Q 16.90625 2.59375 16.703125 3.59375 
L 16.703125 36.40625 
Q 19.40625 39.09375 21.59375 40.5 
Q 23.796875 41.90625 27.09375 41.90625 
Q 32.296875 41.90625 34.5 38.34375 
Q 36.703125 34.796875 36.703125 29 
L 36.703125 3.796875 
Q 36.703125 2.203125 35.09375 1.75 
Q 33.5 1.296875 30.796875 1.09375 
L 30.796875 0 
z
" id="BigCaslon-Medium-110"/>
      <path id="BigCaslon-Medium-32"/>
      <path d="M 43.296875 15.203125 
L 42.5 15.40625 
Q 41.296875 11.703125 37.546875 9.140625 
Q 33.796875 6.59375 28.796875 6.59375 
Q 24.203125 6.59375 20.703125 8.296875 
Q 17.203125 10 14.890625 12.953125 
Q 12.59375 15.90625 11.390625 19.75 
Q 10.203125 23.59375 10.203125 27.796875 
Q 10.203125 28.90625 10.296875 29.953125 
Q 10.40625 31 10.40625 31.796875 
L 42.5 31.796875 
Q 42.203125 36 40.59375 39.09375 
Q 39 42.203125 36.453125 44.25 
Q 33.90625 46.296875 30.453125 47.296875 
Q 27 48.296875 23.09375 48.296875 
Q 18.296875 48.296875 14.34375 46.25 
Q 10.40625 44.203125 7.65625 40.890625 
Q 4.90625 37.59375 3.40625 33.4375 
Q 1.90625 29.296875 1.90625 25.09375 
Q 1.90625 19.90625 3.5 15.25 
Q 5.09375 10.59375 8.046875 7.140625 
Q 11 3.703125 15.203125 1.796875 
Q 19.40625 -0.09375 24.5 -0.09375 
Q 28.59375 -0.09375 31.9375 1.40625 
Q 35.296875 2.90625 37.6875 5.203125 
Q 40.09375 7.5 41.5 10.25 
Q 42.90625 13 43.296875 15.203125 
z
M 32.59375 37.59375 
Q 32.59375 36.203125 32.25 35.5 
Q 31.90625 34.796875 31.203125 34 
Q 30.203125 33.59375 28.890625 33.5 
Q 27.59375 33.40625 26.09375 33.40625 
Q 23.796875 33.40625 21.890625 33.34375 
Q 20 33.296875 18.25 33.25 
Q 16.5 33.203125 14.703125 33.203125 
Q 12.90625 33.203125 10.59375 33.203125 
Q 10.796875 34.40625 11.6875 36.65625 
Q 12.59375 38.90625 14.25 41.09375 
Q 15.90625 43.296875 18.15625 44.9375 
Q 20.40625 46.59375 23.203125 46.59375 
Q 27.5 46.59375 30.046875 43.9375 
Q 32.59375 41.296875 32.59375 37.59375 
z
" id="BigCaslon-Medium-101"/>
     </defs>
     <g style="fill:#262626;" transform="translate(15.875625 158.398594)rotate(-90)scale(0.12 -0.12)">
      <use xlink:href="#BigCaslon-Medium-68"/>
      <use x="85.199982" xlink:href="#BigCaslon-Medium-105"/>
      <use x="110.599976" xlink:href="#BigCaslon-Medium-115"/>
      <use x="148.799973" xlink:href="#BigCaslon-Medium-116"/>
      <use x="181.199966" xlink:href="#BigCaslon-Medium-114"/>
      <use x="216.899963" xlink:href="#BigCaslon-Medium-105"/>
      <use x="242.299957" xlink:href="#BigCaslon-Medium-98"/>
      <use x="296.099945" xlink:href="#BigCaslon-Medium-117"/>
      <use x="348.399933" xlink:href="#BigCaslon-Medium-116"/>
      <use x="380.799927" xlink:href="#BigCaslon-Medium-105"/>
      <use x="406.199921" xlink:href="#BigCaslon-Medium-111"/>
      <use x="457.299911" xlink:href="#BigCaslon-Medium-110"/>
      <use x="509.399902" xlink:href="#BigCaslon-Medium-32"/>
      <use x="530.399887" xlink:href="#BigCaslon-Medium-101"/>
      <use x="573.899872" xlink:href="#BigCaslon-Medium-114"/>
      <use x="609.599869" xlink:href="#BigCaslon-Medium-114"/>
      <use x="645.299866" xlink:href="#BigCaslon-Medium-111"/>
      <use x="696.399857" xlink:href="#BigCaslon-Medium-114"/>
     </g>
    </g>
   </g>
   <g id="PolyCollection_1">
    <defs>
     <path d="M 43.535625 -240.70401 
L 43.535625 -224.288849 
L 55.031694 -185.894113 
L 66.527762 -158.813553 
L 78.023831 -145.329333 
L 89.519899 -132.464665 
L 101.015968 -119.63875 
L 112.512036 -109.964949 
L 124.008105 -104.340179 
L 135.504173 -97.668477 
L 147.000242 -92.157123 
L 158.49631 -87.813782 
L 169.992379 -84.062122 
L 181.488448 -80.9775 
L 192.984516 -76.696475 
L 204.480585 -74.462543 
L 215.976653 -72.964634 
L 227.472722 -71.359858 
L 238.96879 -68.674511 
L 250.464859 -66.770525 
L 261.960927 -65.488687 
L 273.456996 -65.096313 
L 284.953065 -63.568524 
L 296.449133 -62.834593 
L 307.945202 -60.66101 
L 319.44127 -60.526628 
L 330.937339 -60.024484 
L 342.433407 -60.659064 
L 353.929476 -59.193352 
L 365.425544 -58.0512 
L 376.921613 -57.046112 
L 388.417681 -56.568177 
L 388.417681 -60.624475 
L 388.417681 -60.624475 
L 376.921613 -60.567693 
L 365.425544 -61.503752 
L 353.929476 -62.321591 
L 342.433407 -64.370722 
L 330.937339 -63.441437 
L 319.44127 -63.930415 
L 307.945202 -64.310318 
L 296.449133 -66.858582 
L 284.953065 -68.250238 
L 273.456996 -69.599891 
L 261.960927 -69.879731 
L 250.464859 -71.269599 
L 238.96879 -73.140267 
L 227.472722 -76.198425 
L 215.976653 -77.246401 
L 204.480585 -78.442717 
L 192.984516 -80.640968 
L 181.488448 -85.656004 
L 169.992379 -89.381942 
L 158.49631 -93.291404 
L 147.000242 -98.670773 
L 135.504173 -104.27737 
L 124.008105 -112.140584 
L 112.512036 -117.71581 
L 101.015968 -128.633402 
L 89.519899 -142.49581 
L 78.023831 -157.235222 
L 66.527762 -172.972555 
L 55.031694 -201.452696 
L 43.535625 -240.70401 
z
" id="m2d46268fba" style="stroke:#45046a;stroke-opacity:0.1;"/>
    </defs>
    <g clip-path="url(#p566592206b)">
     <use style="fill:#45046a;fill-opacity:0.1;stroke:#45046a;stroke-opacity:0.1;" x="0" xlink:href="#m2d46268fba" y="261.123594"/>
    </g>
   </g>
   <g id="PolyCollection_2">
    <defs>
     <path d="M 43.535625 -136.616291 
L 43.535625 -135.001229 
L 55.031694 -103.727514 
L 66.527762 -79.402045 
L 78.023831 -70.4722 
L 89.519899 -64.560726 
L 101.015968 -61.723154 
L 112.512036 -58.914685 
L 124.008105 -57.290913 
L 135.504173 -55.581585 
L 147.000242 -54.518258 
L 158.49631 -53.767162 
L 169.992379 -53.286392 
L 181.488448 -53.01539 
L 192.984516 -52.445949 
L 204.480585 -51.603537 
L 215.976653 -51.100499 
L 227.472722 -50.454484 
L 238.96879 -50.494648 
L 250.464859 -50.340207 
L 261.960927 -50.313768 
L 273.456996 -49.926859 
L 284.953065 -50.163579 
L 296.449133 -49.576979 
L 307.945202 -49.954532 
L 319.44127 -48.88348 
L 330.937339 -49.786937 
L 342.433407 -48.861148 
L 353.929476 -49.660198 
L 365.425544 -49.120319 
L 376.921613 -49.370371 
L 388.417681 -48.431866 
L 388.417681 -51.280994 
L 388.417681 -51.280994 
L 376.921613 -52.053864 
L 365.425544 -51.400649 
L 353.929476 -52.036015 
L 342.433407 -50.85295 
L 330.937339 -52.102255 
L 319.44127 -51.470758 
L 307.945202 -52.939381 
L 296.449133 -52.559823 
L 284.953065 -53.550868 
L 273.456996 -53.415035 
L 261.960927 -53.98039 
L 250.464859 -53.361679 
L 238.96879 -53.822012 
L 227.472722 -53.568824 
L 215.976653 -54.712273 
L 204.480585 -55.14267 
L 192.984516 -56.511017 
L 181.488448 -57.206027 
L 169.992379 -58.119941 
L 158.49631 -58.352595 
L 147.000242 -59.23744 
L 135.504173 -59.688806 
L 124.008105 -61.261791 
L 112.512036 -62.775189 
L 101.015968 -66.280715 
L 89.519899 -70.580113 
L 78.023831 -77.446319 
L 66.527762 -87.169955 
L 55.031694 -108.949918 
L 43.535625 -136.616291 
z
" id="m40539638c6" style="stroke:#811580;stroke-opacity:0.1;"/>
    </defs>
    <g clip-path="url(#p566592206b)">
     <use style="fill:#811580;fill-opacity:0.1;stroke:#811580;stroke-opacity:0.1;" x="0" xlink:href="#m40539638c6" y="261.123594"/>
    </g>
   </g>
   <g id="PolyCollection_3">
    <defs>
     <path d="M 43.535625 -173.384307 
L 43.535625 -153.770443 
L 55.031694 -119.753956 
L 66.527762 -92.517038 
L 78.023831 -81.336409 
L 89.519899 -74.714025 
L 101.015968 -69.621538 
L 112.512036 -68.484322 
L 124.008105 -64.645069 
L 135.504173 -63.001597 
L 147.000242 -59.178967 
L 158.49631 -57.466374 
L 169.992379 -55.822534 
L 181.488448 -54.686239 
L 192.984516 -54.087882 
L 204.480585 -54.19782 
L 215.976653 -54.784238 
L 227.472722 -54.002688 
L 238.96879 -52.897475 
L 250.464859 -51.421222 
L 261.960927 -50.702412 
L 273.456996 -50.367539 
L 284.953065 -50.183024 
L 296.449133 -49.771901 
L 307.945202 -49.213613 
L 319.44127 -48.720967 
L 330.937339 -48.424699 
L 342.433407 -48.375644 
L 353.929476 -48.262926 
L 365.425544 -48.234344 
L 376.921613 -48.05682 
L 388.417681 -47.890452 
L 388.417681 -52.169684 
L 388.417681 -52.169684 
L 376.921613 -52.576834 
L 365.425544 -52.895376 
L 353.929476 -53.617806 
L 342.433407 -54.247994 
L 330.937339 -54.963679 
L 319.44127 -55.272999 
L 307.945202 -55.553202 
L 296.449133 -55.842332 
L 284.953065 -56.257727 
L 273.456996 -56.767177 
L 261.960927 -58.186716 
L 250.464859 -59.603411 
L 238.96879 -60.958101 
L 227.472722 -61.461429 
L 215.976653 -62.136895 
L 204.480585 -63.503759 
L 192.984516 -64.476461 
L 181.488448 -66.305679 
L 169.992379 -68.492912 
L 158.49631 -71.255541 
L 147.000242 -73.324051 
L 135.504173 -74.139658 
L 124.008105 -74.448006 
L 112.512036 -77.768183 
L 101.015968 -82.435331 
L 89.519899 -89.759393 
L 78.023831 -96.379744 
L 66.527762 -106.544921 
L 55.031694 -134.987766 
L 43.535625 -173.384307 
z
" id="m643206ffb7" style="stroke:#a56cc1;stroke-opacity:0.1;"/>
    </defs>
    <g clip-path="url(#p566592206b)">
     <use style="fill:#a56cc1;fill-opacity:0.1;stroke:#a56cc1;stroke-opacity:0.1;" x="0" xlink:href="#m643206ffb7" y="261.123594"/>
    </g>
   </g>
   <g id="line2d_1">
    <path clip-path="url(#p566592206b)" d="M 43.535625 28.627165 
L 66.527762 95.23054 
L 89.519899 123.643356 
L 112.512036 147.283214 
L 135.504173 160.15067 
L 158.49631 170.571001 
L 181.488448 177.806842 
L 204.480585 184.670963 
L 227.472722 187.344452 
L 250.464859 192.103532 
L 273.456996 193.775492 
L 296.449133 196.277006 
L 319.44127 198.895072 
L 342.433407 198.608701 
L 365.425544 201.346118 
L 388.417681 202.527268 
" style="fill:none;stroke:#45046a;stroke-linecap:round;stroke-width:1.5;"/>
    <defs>
     <path d="M -3 3 
L 3 3 
L 3 -3 
L -3 -3 
z
" id="med484c962e" style="stroke:#45046a;stroke-linejoin:miter;"/>
    </defs>
    <g clip-path="url(#p566592206b)">
     <use style="fill:#45046a;stroke:#45046a;stroke-linejoin:miter;" x="43.535625" xlink:href="#med484c962e" y="28.627165"/>
     <use style="fill:#45046a;stroke:#45046a;stroke-linejoin:miter;" x="66.527762" xlink:href="#med484c962e" y="95.23054"/>
     <use style="fill:#45046a;stroke:#45046a;stroke-linejoin:miter;" x="89.519899" xlink:href="#med484c962e" y="123.643356"/>
     <use style="fill:#45046a;stroke:#45046a;stroke-linejoin:miter;" x="112.512036" xlink:href="#med484c962e" y="147.283214"/>
     <use style="fill:#45046a;stroke:#45046a;stroke-linejoin:miter;" x="135.504173" xlink:href="#med484c962e" y="160.15067"/>
     <use style="fill:#45046a;stroke:#45046a;stroke-linejoin:miter;" x="158.49631" xlink:href="#med484c962e" y="170.571001"/>
     <use style="fill:#45046a;stroke:#45046a;stroke-linejoin:miter;" x="181.488448" xlink:href="#med484c962e" y="177.806842"/>
     <use style="fill:#45046a;stroke:#45046a;stroke-linejoin:miter;" x="204.480585" xlink:href="#med484c962e" y="184.670963"/>
     <use style="fill:#45046a;stroke:#45046a;stroke-linejoin:miter;" x="227.472722" xlink:href="#med484c962e" y="187.344452"/>
     <use style="fill:#45046a;stroke:#45046a;stroke-linejoin:miter;" x="250.464859" xlink:href="#med484c962e" y="192.103532"/>
     <use style="fill:#45046a;stroke:#45046a;stroke-linejoin:miter;" x="273.456996" xlink:href="#med484c962e" y="193.775492"/>
     <use style="fill:#45046a;stroke:#45046a;stroke-linejoin:miter;" x="296.449133" xlink:href="#med484c962e" y="196.277006"/>
     <use style="fill:#45046a;stroke:#45046a;stroke-linejoin:miter;" x="319.44127" xlink:href="#med484c962e" y="198.895072"/>
     <use style="fill:#45046a;stroke:#45046a;stroke-linejoin:miter;" x="342.433407" xlink:href="#med484c962e" y="198.608701"/>
     <use style="fill:#45046a;stroke:#45046a;stroke-linejoin:miter;" x="365.425544" xlink:href="#med484c962e" y="201.346118"/>
     <use style="fill:#45046a;stroke:#45046a;stroke-linejoin:miter;" x="388.417681" xlink:href="#med484c962e" y="202.527268"/>
    </g>
   </g>
   <g id="line2d_2">
    <path clip-path="url(#p566592206b)" d="M 43.535625 125.314834 
L 66.527762 177.837594 
L 89.519899 193.553174 
L 112.512036 200.278657 
L 135.504173 203.488398 
L 158.49631 205.063715 
L 181.488448 206.012886 
L 204.480585 207.75049 
L 227.472722 209.11194 
L 250.464859 209.27265 
L 273.456996 209.452647 
L 296.449133 210.055192 
L 319.44127 210.946475 
L 342.433407 211.266544 
L 365.425544 210.86311 
L 388.417681 211.267164 
" style="fill:none;stroke:#811580;stroke-linecap:round;stroke-width:1.5;"/>
    <defs>
     <path d="M 0 1.5 
C 0.397805 1.5 0.77937 1.341951 1.06066 1.06066 
C 1.341951 0.77937 1.5 0.397805 1.5 0 
C 1.5 -0.397805 1.341951 -0.77937 1.06066 -1.06066 
C 0.77937 -1.341951 0.397805 -1.5 0 -1.5 
C -0.397805 -1.5 -0.77937 -1.341951 -1.06066 -1.06066 
C -1.341951 -0.77937 -1.5 -0.397805 -1.5 0 
C -1.5 0.397805 -1.341951 0.77937 -1.06066 1.06066 
C -0.77937 1.341951 -0.397805 1.5 0 1.5 
z
" id="m850967ea3a" style="stroke:#811580;"/>
    </defs>
    <g clip-path="url(#p566592206b)">
     <use style="fill:#811580;stroke:#811580;" x="43.535625" xlink:href="#m850967ea3a" y="125.314834"/>
     <use style="fill:#811580;stroke:#811580;" x="66.527762" xlink:href="#m850967ea3a" y="177.837594"/>
     <use style="fill:#811580;stroke:#811580;" x="89.519899" xlink:href="#m850967ea3a" y="193.553174"/>
     <use style="fill:#811580;stroke:#811580;" x="112.512036" xlink:href="#m850967ea3a" y="200.278657"/>
     <use style="fill:#811580;stroke:#811580;" x="135.504173" xlink:href="#m850967ea3a" y="203.488398"/>
     <use style="fill:#811580;stroke:#811580;" x="158.49631" xlink:href="#m850967ea3a" y="205.063715"/>
     <use style="fill:#811580;stroke:#811580;" x="181.488448" xlink:href="#m850967ea3a" y="206.012886"/>
     <use style="fill:#811580;stroke:#811580;" x="204.480585" xlink:href="#m850967ea3a" y="207.75049"/>
     <use style="fill:#811580;stroke:#811580;" x="227.472722" xlink:href="#m850967ea3a" y="209.11194"/>
     <use style="fill:#811580;stroke:#811580;" x="250.464859" xlink:href="#m850967ea3a" y="209.27265"/>
     <use style="fill:#811580;stroke:#811580;" x="273.456996" xlink:href="#m850967ea3a" y="209.452647"/>
     <use style="fill:#811580;stroke:#811580;" x="296.449133" xlink:href="#m850967ea3a" y="210.055192"/>
     <use style="fill:#811580;stroke:#811580;" x="319.44127" xlink:href="#m850967ea3a" y="210.946475"/>
     <use style="fill:#811580;stroke:#811580;" x="342.433407" xlink:href="#m850967ea3a" y="211.266544"/>
     <use style="fill:#811580;stroke:#811580;" x="365.425544" xlink:href="#m850967ea3a" y="210.86311"/>
     <use style="fill:#811580;stroke:#811580;" x="388.417681" xlink:href="#m850967ea3a" y="211.267164"/>
    </g>
   </g>
   <g id="line2d_3">
    <path clip-path="url(#p566592206b)" d="M 43.535625 97.546219 
L 66.527762 161.592614 
L 89.519899 178.886885 
L 112.512036 187.997341 
L 135.504173 192.552966 
L 158.49631 196.762636 
L 181.488448 200.627635 
L 204.480585 202.272804 
L 227.472722 203.391535 
L 250.464859 205.611277 
L 273.456996 207.556236 
L 296.449133 208.316477 
L 319.44127 209.126611 
L 342.433407 209.811774 
L 365.425544 210.558734 
L 388.417681 211.093526 
" style="fill:none;stroke:#a56cc1;stroke-linecap:round;stroke-width:1.5;"/>
    <defs>
     <path d="M 0 -3 
L -3 3 
L 3 3 
z
" id="m775c247e81" style="stroke:#a56cc1;stroke-linejoin:miter;"/>
    </defs>
    <g clip-path="url(#p566592206b)">
     <use style="fill:#a56cc1;stroke:#a56cc1;stroke-linejoin:miter;" x="43.535625" xlink:href="#m775c247e81" y="97.546219"/>
     <use style="fill:#a56cc1;stroke:#a56cc1;stroke-linejoin:miter;" x="66.527762" xlink:href="#m775c247e81" y="161.592614"/>
     <use style="fill:#a56cc1;stroke:#a56cc1;stroke-linejoin:miter;" x="89.519899" xlink:href="#m775c247e81" y="178.886885"/>
     <use style="fill:#a56cc1;stroke:#a56cc1;stroke-linejoin:miter;" x="112.512036" xlink:href="#m775c247e81" y="187.997341"/>
     <use style="fill:#a56cc1;stroke:#a56cc1;stroke-linejoin:miter;" x="135.504173" xlink:href="#m775c247e81" y="192.552966"/>
     <use style="fill:#a56cc1;stroke:#a56cc1;stroke-linejoin:miter;" x="158.49631" xlink:href="#m775c247e81" y="196.762636"/>
     <use style="fill:#a56cc1;stroke:#a56cc1;stroke-linejoin:miter;" x="181.488448" xlink:href="#m775c247e81" y="200.627635"/>
     <use style="fill:#a56cc1;stroke:#a56cc1;stroke-linejoin:miter;" x="204.480585" xlink:href="#m775c247e81" y="202.272804"/>
     <use style="fill:#a56cc1;stroke:#a56cc1;stroke-linejoin:miter;" x="227.472722" xlink:href="#m775c247e81" y="203.391535"/>
     <use style="fill:#a56cc1;stroke:#a56cc1;stroke-linejoin:miter;" x="250.464859" xlink:href="#m775c247e81" y="205.611277"/>
     <use style="fill:#a56cc1;stroke:#a56cc1;stroke-linejoin:miter;" x="273.456996" xlink:href="#m775c247e81" y="207.556236"/>
     <use style="fill:#a56cc1;stroke:#a56cc1;stroke-linejoin:miter;" x="296.449133" xlink:href="#m775c247e81" y="208.316477"/>
     <use style="fill:#a56cc1;stroke:#a56cc1;stroke-linejoin:miter;" x="319.44127" xlink:href="#m775c247e81" y="209.126611"/>
     <use style="fill:#a56cc1;stroke:#a56cc1;stroke-linejoin:miter;" x="342.433407" xlink:href="#m775c247e81" y="209.811774"/>
     <use style="fill:#a56cc1;stroke:#a56cc1;stroke-linejoin:miter;" x="365.425544" xlink:href="#m775c247e81" y="210.558734"/>
     <use style="fill:#a56cc1;stroke:#a56cc1;stroke-linejoin:miter;" x="388.417681" xlink:href="#m775c247e81" y="211.093526"/>
    </g>
   </g>
   <g id="patch_3">
    <path d="M 43.535625 218.163281 
L 43.535625 10.778906 
" style="fill:none;stroke:#cccccc;stroke-linecap:square;stroke-linejoin:miter;stroke-width:0.8;"/>
   </g>
   <g id="patch_4">
    <path d="M 43.535625 218.163281 
L 399.91375 218.163281 
" style="fill:none;stroke:#cccccc;stroke-linecap:square;stroke-linejoin:miter;stroke-width:0.8;"/>
   </g>
   <g id="legend_1">
    <g id="patch_5">
     <path d="M 320.573125 62.597656 
L 392.91375 62.597656 
Q 394.91375 62.597656 394.91375 60.597656 
L 394.91375 17.778906 
Q 394.91375 15.778906 392.91375 15.778906 
L 320.573125 15.778906 
Q 318.573125 15.778906 318.573125 17.778906 
L 318.573125 60.597656 
Q 318.573125 62.597656 320.573125 62.597656 
z
" style="fill:#ffffff;opacity:0.8;stroke:#ffffff;stroke-linejoin:miter;"/>
    </g>
    <g id="line2d_4">
     <path d="M 322.573125 23.508594 
L 342.573125 23.508594 
" style="fill:none;stroke:#45046a;stroke-linecap:round;stroke-width:1.5;"/>
    </g>
    <g id="line2d_5">
     <g>
      <use style="fill:#45046a;stroke:#45046a;stroke-linejoin:miter;" x="332.573125" xlink:href="#med484c962e" y="23.508594"/>
     </g>
    </g>
    <g id="text_13">
     <!-- Uniform -->
     <defs>
      <path d="M 82.40625 71 
L 82.40625 72 
L 57.59375 72 
L 57.59375 71 
Q 62.40625 70.296875 64.84375 68.546875 
Q 67.296875 66.796875 68.296875 64 
Q 68.703125 63 68.890625 61.34375 
Q 69.09375 59.703125 69.1875 57.796875 
Q 69.296875 55.90625 69.34375 53.796875 
Q 69.40625 51.703125 69.40625 49.703125 
Q 69.40625 47.59375 69.40625 45.59375 
Q 69.40625 43.703125 69.40625 41.703125 
Q 69.40625 39.796875 69.40625 37.59375 
Q 69.40625 35.40625 69.40625 32.703125 
Q 69.40625 29.296875 69.15625 25.75 
Q 68.90625 22.203125 68.15625 18.796875 
Q 67.40625 15.40625 65.84375 12.40625 
Q 64.296875 9.40625 61.640625 7.09375 
Q 59 4.796875 55.046875 3.5 
Q 51.09375 2.203125 45.40625 2.203125 
Q 40.40625 2.203125 36.5 3.84375 
Q 32.59375 5.5 29.890625 8.546875 
Q 27.203125 11.59375 25.703125 15.9375 
Q 24.203125 20.296875 24.09375 25.59375 
Q 24.09375 28 24.046875 30.140625 
Q 24 32.296875 24 34.59375 
Q 24 37 24 39.703125 
Q 24 42.40625 24 45.796875 
Q 24 48.5 24 50.5 
Q 24 52.59375 24 54.5 
Q 24 56.40625 24.046875 58.40625 
Q 24.09375 60.40625 24.203125 63 
Q 24.296875 65.296875 25.1875 66.796875 
Q 26.09375 68.296875 27.390625 69.140625 
Q 28.703125 70 30.296875 70.390625 
Q 31.90625 70.796875 33.296875 71 
L 33.296875 72 
L 3.5 72 
L 3.5 71 
Q 6.09375 70.703125 8.140625 69.953125 
Q 10.203125 69.203125 11.59375 67.5 
Q 12.203125 66.796875 12.5 65.546875 
Q 12.796875 64.296875 12.9375 62.75 
Q 13.09375 61.203125 13.09375 59.40625 
Q 13.09375 57.59375 13.09375 55.796875 
L 13.09375 42.5 
Q 13.09375 37 13.046875 32.5 
Q 13 28 13 25.203125 
Q 13 24 13.140625 21.546875 
Q 13.296875 19.09375 14.140625 16.140625 
Q 15 13.203125 16.75 10.140625 
Q 18.5 7.09375 21.703125 4.546875 
Q 24.90625 2 29.84375 0.5 
Q 34.796875 -1 42 -1 
Q 49.296875 -1 54.296875 0.546875 
Q 59.296875 2.09375 62.5 4.75 
Q 65.703125 7.40625 67.453125 10.65625 
Q 69.203125 13.90625 70 17.15625 
Q 70.796875 20.40625 70.9375 23.296875 
Q 71.09375 26.203125 71.203125 28.09375 
Q 71.40625 34.796875 71.546875 40.09375 
Q 71.703125 45.40625 71.796875 49.703125 
Q 71.796875 52 71.890625 54.34375 
Q 72 56.703125 72.203125 58.796875 
Q 72.40625 60.90625 72.65625 62.5 
Q 72.90625 64.09375 73.203125 64.796875 
Q 74.40625 67.703125 76.546875 69.09375 
Q 78.703125 70.5 82.40625 71 
z
" id="BigCaslon-Medium-85"/>
      <path d="M 37.90625 67.5 
Q 37.90625 68.90625 37.15625 69.84375 
Q 36.40625 70.796875 35.25 71.390625 
Q 34.09375 72 32.640625 72.296875 
Q 31.203125 72.59375 29.703125 72.59375 
Q 26.5 72.59375 23.453125 71.75 
Q 20.40625 70.90625 17.84375 69.453125 
Q 15.296875 68 13.296875 66.046875 
Q 11.296875 64.09375 10.203125 61.796875 
Q 9.09375 59.59375 8.84375 55.546875 
Q 8.59375 51.5 8.59375 47.296875 
L 2.40625 47.296875 
L 1.296875 42.90625 
L 8.5 42.90625 
L 8.5 4.203125 
Q 8.5 3.40625 7.59375 2.84375 
Q 6.703125 2.296875 5.34375 1.9375 
Q 4 1.59375 2.546875 1.34375 
Q 1.09375 1.09375 0 1 
L 0 0 
L 25.40625 0 
L 25.40625 1 
Q 23.90625 1.203125 22.453125 1.296875 
Q 21 1.40625 19.796875 1.703125 
Q 18.59375 2 17.796875 2.5 
Q 17 3 16.796875 3.90625 
L 16.796875 42.90625 
L 27.40625 42.90625 
L 28.703125 47.296875 
L 16.90625 47.296875 
Q 16.90625 50.90625 16.953125 53.75 
Q 17 56.59375 17.203125 60.59375 
Q 17.40625 63.703125 18.25 65.546875 
Q 19.09375 67.40625 20.25 68.34375 
Q 21.40625 69.296875 22.5 69.59375 
Q 23.59375 69.90625 24.203125 69.90625 
Q 25.40625 69.5 26.34375 68.296875 
Q 27.296875 67.09375 28.34375 65.84375 
Q 29.40625 64.59375 30.65625 63.640625 
Q 31.90625 62.703125 33.703125 62.703125 
Q 35.59375 62.703125 36.75 64.203125 
Q 37.90625 65.703125 37.90625 67.5 
z
" id="BigCaslon-Medium-102"/>
      <path d="M 78.203125 0 
L 78.203125 0.90625 
Q 77.296875 1 76.296875 1.140625 
Q 75.296875 1.296875 74.4375 1.546875 
Q 73.59375 1.796875 73 2.296875 
Q 72.40625 2.796875 72.40625 3.5 
L 72.40625 33.296875 
Q 72.40625 39.90625 69.453125 44.09375 
Q 66.5 48.296875 60.703125 48.296875 
Q 58 48.296875 55.453125 47.1875 
Q 52.90625 46.09375 50.796875 44.34375 
Q 48.703125 42.59375 47.09375 40.546875 
Q 45.5 38.5 44.59375 36.703125 
L 44.296875 36.703125 
Q 43.59375 42 40.640625 45.140625 
Q 37.703125 48.296875 32.90625 48.296875 
Q 30.203125 48.296875 27.75 47.25 
Q 25.296875 46.203125 23.1875 44.640625 
Q 21.09375 43.09375 19.5 41.140625 
Q 17.90625 39.203125 16.90625 37.40625 
L 16.703125 37.5 
L 16.703125 48.296875 
L 16.09375 48.296875 
L 3 43.59375 
L 3 42.796875 
Q 4.203125 42.296875 5.390625 41.640625 
Q 6.59375 41 7.5 40.5 
Q 8.203125 40 8.34375 39.59375 
Q 8.5 39.203125 8.5 38.40625 
L 8.5 4.203125 
Q 8.5 2.59375 6.84375 1.890625 
Q 5.203125 1.203125 2.90625 1 
L 2.90625 0 
L 22.296875 0 
L 22.296875 1 
Q 21.296875 1.203125 20.390625 1.25 
Q 19.5 1.296875 18.75 1.5 
Q 18 1.703125 17.5 2.140625 
Q 17 2.59375 16.796875 3.59375 
L 16.796875 36.40625 
Q 19.40625 39.203125 21.5 40.59375 
Q 23.59375 42 26.90625 42 
Q 32.09375 42 34.140625 38.640625 
Q 36.203125 35.296875 36.203125 29.40625 
L 36.203125 3.796875 
Q 36.203125 2.203125 34.59375 1.75 
Q 33 1.296875 30.296875 1.09375 
L 30.296875 0 
L 50 0 
L 50 0.90625 
Q 49.09375 1 48.140625 1.140625 
Q 47.203125 1.296875 46.390625 1.546875 
Q 45.59375 1.796875 45.09375 2.296875 
Q 44.59375 2.796875 44.59375 3.5 
L 44.59375 35.796875 
Q 47 38.5 49.203125 40.25 
Q 51.40625 42 54.703125 42 
Q 59.90625 42 61.953125 38.546875 
Q 64 35.09375 64 29.296875 
L 64 3.796875 
Q 64 2.203125 62.59375 1.75 
Q 61.203125 1.296875 58.5 1.09375 
L 58.5 0 
z
" id="BigCaslon-Medium-109"/>
     </defs>
     <g style="fill:#262626;" transform="translate(350.573125 27.008594)scale(0.1 -0.1)">
      <use xlink:href="#BigCaslon-Medium-85"/>
      <use x="83.399994" xlink:href="#BigCaslon-Medium-110"/>
      <use x="135.499985" xlink:href="#BigCaslon-Medium-105"/>
      <use x="160.899979" xlink:href="#BigCaslon-Medium-102"/>
      <use x="187.899963" xlink:href="#BigCaslon-Medium-111"/>
      <use x="238.999954" xlink:href="#BigCaslon-Medium-114"/>
      <use x="274.699951" xlink:href="#BigCaslon-Medium-109"/>
     </g>
    </g>
    <g id="line2d_6">
     <path d="M 322.573125 38.067969 
L 342.573125 38.067969 
" style="fill:none;stroke:#811580;stroke-linecap:round;stroke-width:1.5;"/>
    </g>
    <g id="line2d_7">
     <g>
      <use style="fill:#811580;stroke:#811580;" x="332.573125" xlink:href="#m850967ea3a" y="38.067969"/>
     </g>
    </g>
    <g id="text_14">
     <!-- Weighted -->
     <defs>
      <path d="M 102.09375 71 
L 102.09375 72 
L 80.09375 72 
L 80.09375 71 
Q 81.296875 70.90625 82.796875 70.546875 
Q 84.296875 70.203125 85.59375 69.546875 
Q 86.90625 68.90625 87.796875 67.953125 
Q 88.703125 67 88.703125 65.5 
Q 88.703125 64.5 88.5 62.390625 
Q 88.296875 60.296875 86.90625 55.703125 
Q 85.796875 52.09375 84.4375 47.9375 
Q 83.09375 43.796875 81.75 39.640625 
Q 80.40625 35.5 79.046875 31.5 
Q 77.703125 27.5 76.546875 24.25 
Q 75.40625 21 74.65625 18.75 
Q 73.90625 16.5 73.59375 15.796875 
Q 72.90625 17.703125 71.34375 21.953125 
Q 69.796875 26.203125 67.890625 31.546875 
Q 66 36.90625 63.890625 42.703125 
Q 61.796875 48.5 60.09375 53.453125 
Q 58.40625 58.40625 57.296875 61.84375 
Q 56.203125 65.296875 56.203125 65.90625 
Q 56.203125 67.40625 57.453125 68.40625 
Q 58.703125 69.40625 60.25 69.953125 
Q 61.796875 70.5 63.34375 70.703125 
Q 64.90625 70.90625 65.5 71 
L 65.5 72 
L 34.203125 72 
L 34.203125 70.90625 
Q 36.59375 70.796875 38.296875 70.25 
Q 40 69.703125 41.140625 68.84375 
Q 42.296875 68 42.9375 67.09375 
Q 43.59375 66.203125 44 65.40625 
Q 45.40625 62.5 46.59375 59.453125 
Q 47.796875 56.40625 49.296875 52.40625 
Q 47.09375 45.5 44.890625 39.140625 
Q 42.703125 32.796875 40.890625 27.75 
Q 39.09375 22.703125 37.890625 19.34375 
Q 36.703125 16 36.40625 15.203125 
Q 35.296875 18.203125 33.5 22.84375 
Q 31.703125 27.5 29.640625 32.84375 
Q 27.59375 38.203125 25.546875 43.703125 
Q 23.5 49.203125 21.796875 53.84375 
Q 20.09375 58.5 19.046875 61.75 
Q 18 65 18 65.90625 
Q 18 67.59375 18.953125 68.59375 
Q 19.90625 69.59375 21.203125 70.09375 
Q 22.5 70.59375 23.703125 70.796875 
Q 24.90625 71 25.40625 71 
L 25.40625 72 
L -2.796875 72 
L -2.796875 70.90625 
Q -0.59375 70.796875 0.796875 70.140625 
Q 2.203125 69.5 3.203125 68.640625 
Q 4.203125 67.796875 4.75 66.890625 
Q 5.296875 66 5.59375 65.40625 
Q 6.203125 64.203125 6.703125 63.09375 
Q 7.203125 62 7.640625 60.796875 
Q 8.09375 59.59375 8.640625 58.1875 
Q 9.203125 56.796875 9.90625 54.90625 
Q 12.296875 48.59375 14.6875 42.25 
Q 17.09375 35.90625 19.640625 29.15625 
Q 22.203125 22.40625 24.953125 15.09375 
Q 27.703125 7.796875 30.796875 -0.296875 
L 32 -0.296875 
L 36.40625 9.5 
Q 38.09375 14.203125 39.890625 19.25 
Q 41.703125 24.296875 43.5 29.5 
Q 45.296875 34.703125 47.09375 39.75 
Q 48.90625 44.796875 50.5 49.40625 
Q 52.59375 43.796875 54.59375 38.046875 
Q 56.59375 32.296875 58.75 26.1875 
Q 60.90625 20.09375 63.25 13.5 
Q 65.59375 6.90625 68.296875 -0.296875 
L 69.296875 -0.296875 
L 73.5 9.296875 
Q 75.40625 15 77.59375 21.34375 
Q 79.796875 27.703125 81.9375 34 
Q 84.09375 40.296875 86.1875 46.25 
Q 88.296875 52.203125 89.90625 57.09375 
Q 90.90625 60 91.796875 61.953125 
Q 92.703125 63.90625 93.5 65.15625 
Q 94.296875 66.40625 94.890625 67.09375 
Q 95.5 67.796875 95.796875 68.09375 
Q 96.09375 68.5 97.84375 69.59375 
Q 99.59375 70.703125 102.09375 71 
z
" id="BigCaslon-Medium-87"/>
      <path d="M 53.5 42.796875 
Q 53.5 44.5 52.390625 45.703125 
Q 51.296875 46.90625 49.59375 46.90625 
Q 48.40625 46.90625 47.5 46.546875 
Q 46.59375 46.203125 45.796875 45.75 
Q 45 45.296875 44.046875 44.9375 
Q 43.09375 44.59375 41.90625 44.59375 
Q 40.703125 44.59375 39.84375 44.6875 
Q 39 44.796875 37.796875 45.203125 
Q 34.59375 46.90625 31.640625 47.59375 
Q 28.703125 48.296875 24.90625 48.296875 
Q 20.703125 48.296875 17.140625 47.09375 
Q 13.59375 45.90625 11 43.84375 
Q 8.40625 41.796875 6.953125 39 
Q 5.5 36.203125 5.5 33 
Q 5.5 27.90625 7.953125 24.59375 
Q 10.40625 21.296875 14.796875 19.59375 
L 14.796875 19.296875 
Q 12.296875 19 10.140625 18.046875 
Q 8 17.09375 6.390625 15.6875 
Q 4.796875 14.296875 3.890625 12.59375 
Q 3 10.90625 3 9 
Q 3 5.203125 5.75 2.890625 
Q 8.5 0.59375 13.59375 0 
L 13.59375 -0.203125 
Q 11.5 -1.5 9.34375 -2.84375 
Q 7.203125 -4.203125 5.453125 -5.75 
Q 3.703125 -7.296875 2.546875 -9 
Q 1.40625 -10.703125 1.40625 -12.796875 
Q 1.40625 -18.5 7.453125 -21.75 
Q 13.5 -25 24.40625 -25 
Q 30.09375 -25 34.84375 -23.453125 
Q 39.59375 -21.90625 43.09375 -19.203125 
Q 46.59375 -16.5 48.546875 -12.953125 
Q 50.5 -9.40625 50.5 -5.5 
Q 50.5 -2.5 49.453125 -0.046875 
Q 48.40625 2.40625 46.40625 4.296875 
Q 44.40625 6.203125 41.59375 7.296875 
Q 38.796875 8.40625 35.296875 8.40625 
L 19.296875 8.40625 
Q 17.59375 8.40625 15.796875 8.59375 
Q 14 8.796875 12.5 9.390625 
Q 11 10 10 11.046875 
Q 9 12.09375 9 13.703125 
Q 9 15.703125 10.890625 17 
Q 12.796875 18.296875 16 18.5 
Q 18 18.5 19.453125 18.296875 
Q 20.90625 18.09375 22.296875 18.09375 
Q 32 18.09375 37.5 22.046875 
Q 43 26 43 33.90625 
Q 43 37.09375 41.953125 39.09375 
Q 40.90625 41.09375 39.40625 43.40625 
L 39.796875 43.796875 
Q 41 43.09375 42.5 42.25 
Q 44 41.40625 45.453125 40.703125 
Q 46.90625 40 48.09375 39.5 
Q 49.296875 39 49.90625 39 
Q 51.40625 39 52.453125 40.140625 
Q 53.5 41.296875 53.5 42.796875 
z
M 35 33.90625 
Q 35 31.09375 34.296875 28.546875 
Q 33.59375 26 32.1875 24 
Q 30.796875 22 28.75 20.796875 
Q 26.703125 19.59375 24 19.59375 
Q 19.59375 19.59375 16.546875 23.25 
Q 13.5 26.90625 13.5 32.90625 
Q 13.5 35.5 14.203125 38 
Q 14.90625 40.5 16.25 42.453125 
Q 17.59375 44.40625 19.59375 45.546875 
Q 21.59375 46.703125 24.09375 46.703125 
Q 26.796875 46.703125 28.84375 45.640625 
Q 30.90625 44.59375 32.25 42.84375 
Q 33.59375 41.09375 34.296875 38.796875 
Q 35 36.5 35 33.90625 
z
M 43.796875 -9.59375 
Q 43.796875 -13.90625 41.140625 -17 
Q 38.5 -20.09375 35 -21.5 
Q 33.296875 -22.09375 31.140625 -22.390625 
Q 29 -22.703125 26 -22.703125 
Q 23.5 -22.703125 20.546875 -21.890625 
Q 17.59375 -21.09375 15 -19.4375 
Q 12.40625 -17.796875 10.65625 -15.390625 
Q 8.90625 -13 8.90625 -9.796875 
Q 8.90625 -6.703125 10.703125 -4.09375 
Q 12.5 -1.5 17.203125 -0.296875 
Q 18.59375 -0.09375 20.796875 0.09375 
Q 23 0.296875 25.09375 0.296875 
Q 30.90625 0.296875 34.203125 -0.140625 
Q 37.5 -0.59375 39.703125 -1.703125 
Q 41.40625 -2.5 42.59375 -4.59375 
Q 43.796875 -6.703125 43.796875 -9.59375 
z
" id="BigCaslon-Medium-103"/>
      <path d="M 51.40625 0 
L 51.40625 0.90625 
Q 50.5 1 49.5 1.140625 
Q 48.5 1.296875 47.59375 1.546875 
Q 46.703125 1.796875 46.09375 2.296875 
Q 45.5 2.796875 45.5 3.5 
L 45.5 33 
Q 45.5 36.296875 44.953125 39.09375 
Q 44.40625 41.90625 43.046875 43.953125 
Q 41.703125 46 39.453125 47.140625 
Q 37.203125 48.296875 33.90625 48.296875 
Q 30.5 48.296875 27.640625 47.140625 
Q 24.796875 46 22.59375 44.390625 
Q 20.40625 42.796875 18.953125 41 
Q 17.5 39.203125 16.796875 37.796875 
L 16.59375 37.90625 
L 16.90625 72.59375 
L 16.09375 72.59375 
L 2.703125 66.5 
L 2.703125 65.90625 
Q 4 65.09375 5.34375 64.4375 
Q 6.703125 63.796875 7.5 63.09375 
Q 8.203125 62.59375 8.34375 62.1875 
Q 8.5 61.796875 8.5 61 
L 8.5 4.203125 
Q 8.5 2.296875 6.640625 1.75 
Q 4.796875 1.203125 2.5 1 
L 2.5 0 
L 22.40625 0 
L 22.40625 1 
Q 21.40625 1.203125 20.40625 1.296875 
Q 19.40625 1.40625 18.59375 1.65625 
Q 17.796875 1.90625 17.296875 2.40625 
Q 16.796875 2.90625 16.796875 3.796875 
L 16.796875 34.5 
Q 16.796875 35.296875 17.140625 36.25 
Q 17.5 37.203125 17.703125 37.5 
Q 19.203125 39.703125 21.703125 41 
Q 24.203125 42.296875 27.796875 42.296875 
Q 30.59375 42.296875 32.390625 41.296875 
Q 34.203125 40.296875 35.25 38.5 
Q 36.296875 36.703125 36.6875 34.203125 
Q 37.09375 31.703125 37.09375 28.796875 
L 37.09375 3.796875 
Q 37.09375 2.203125 35.296875 1.75 
Q 33.5 1.296875 30.796875 1.09375 
L 30.796875 0 
z
" id="BigCaslon-Medium-104"/>
      <path d="M 53.296875 3.90625 
L 53.296875 4.59375 
Q 51.40625 5.40625 49.203125 6.296875 
Q 47 7.203125 46.203125 7.703125 
L 46.203125 72.59375 
L 45.40625 72.59375 
L 29.5 68.203125 
L 29.5 67.59375 
L 37.703125 64.5 
Q 37.703125 63.40625 37.703125 61 
Q 37.703125 58.703125 37.703125 56 
Q 37.703125 53.296875 37.75 50.6875 
Q 37.796875 48.09375 37.90625 46.59375 
Q 35.703125 47.296875 33.046875 47.796875 
Q 30.40625 48.296875 27.40625 48.296875 
Q 21.703125 48.296875 17 46.390625 
Q 12.296875 44.5 8.9375 41.140625 
Q 5.59375 37.796875 3.75 33.296875 
Q 1.90625 28.796875 1.90625 23.59375 
Q 1.90625 17.796875 3.5 13.34375 
Q 5.09375 8.90625 7.796875 5.84375 
Q 10.5 2.796875 13.953125 1.34375 
Q 17.40625 -0.09375 21.09375 -0.09375 
Q 27 -0.09375 30.953125 2.296875 
Q 34.90625 4.703125 37.796875 9.703125 
L 37.90625 9.703125 
L 37.90625 -0.296875 
L 38.5 -0.296875 
z
M 37.796875 13.5 
Q 37 9.203125 34.046875 6.390625 
Q 31.09375 3.59375 27 3.59375 
Q 23.09375 3.59375 20.140625 5.390625 
Q 17.203125 7.203125 15.203125 10.140625 
Q 13.203125 13.09375 12.203125 16.9375 
Q 11.203125 20.796875 11.203125 24.90625 
Q 11.203125 29 12.046875 32.890625 
Q 12.90625 36.796875 14.703125 39.796875 
Q 16.5 42.796875 19.25 44.59375 
Q 22 46.40625 25.90625 46.40625 
Q 28.796875 46.40625 32.1875 43.90625 
Q 35.59375 41.40625 37.796875 37.296875 
z
" id="BigCaslon-Medium-100"/>
     </defs>
     <g style="fill:#262626;" transform="translate(350.573125 41.567969)scale(0.1 -0.1)">
      <use xlink:href="#BigCaslon-Medium-87"/>
      <use x="99.099991" xlink:href="#BigCaslon-Medium-101"/>
      <use x="142.599976" xlink:href="#BigCaslon-Medium-105"/>
      <use x="167.999969" xlink:href="#BigCaslon-Medium-103"/>
      <use x="220.499954" xlink:href="#BigCaslon-Medium-104"/>
      <use x="272.899948" xlink:href="#BigCaslon-Medium-116"/>
      <use x="305.299942" xlink:href="#BigCaslon-Medium-101"/>
      <use x="348.799927" xlink:href="#BigCaslon-Medium-100"/>
     </g>
    </g>
    <g id="line2d_8">
     <path d="M 322.573125 52.797656 
L 342.573125 52.797656 
" style="fill:none;stroke:#a56cc1;stroke-linecap:round;stroke-width:1.5;"/>
    </g>
    <g id="line2d_9">
     <g>
      <use style="fill:#a56cc1;stroke:#a56cc1;stroke-linejoin:miter;" x="332.573125" xlink:href="#m775c247e81" y="52.797656"/>
     </g>
    </g>
    <g id="text_15">
     <!-- Centroid -->
     <defs>
      <path d="M 72.703125 48.90625 
L 72.703125 71.296875 
L 71.59375 71.296875 
Q 71 70.40625 70.296875 69.546875 
Q 69.59375 68.703125 68.9375 68.046875 
Q 68.296875 67.40625 67.75 66.953125 
Q 67.203125 66.5 67 66.5 
Q 66.796875 66.5 65.1875 67.59375 
Q 63.59375 68.703125 60.59375 70 
Q 57.59375 71.296875 53.09375 72.390625 
Q 48.59375 73.5 42.59375 73.5 
Q 36 73.5 30.703125 72.09375 
Q 25.40625 70.703125 21.203125 68.34375 
Q 17 66 13.890625 62.890625 
Q 10.796875 59.796875 8.703125 56.40625 
Q 6.90625 53.5 5.75 50.640625 
Q 4.59375 47.796875 3.9375 45.1875 
Q 3.296875 42.59375 3.046875 40.296875 
Q 2.796875 38 2.796875 36.203125 
Q 2.796875 28.09375 5.59375 21.34375 
Q 8.40625 14.59375 13.65625 9.75 
Q 18.90625 4.90625 26.40625 2.25 
Q 33.90625 -0.40625 43.203125 -0.40625 
Q 48.796875 -0.40625 53.09375 0.546875 
Q 57.40625 1.5 60.40625 2.75 
Q 63.40625 4 65 5.046875 
Q 66.59375 6.09375 66.796875 6.09375 
Q 67.296875 6.09375 68.59375 4.6875 
Q 69.90625 3.296875 71.09375 1.59375 
L 72.296875 1.59375 
L 72.59375 23.59375 
L 71.40625 23.59375 
Q 70.5 19.296875 68.046875 15.25 
Q 65.59375 11.203125 62.046875 8.09375 
Q 58.5 5 53.953125 3.09375 
Q 49.40625 1.203125 44.203125 1.203125 
Q 37.59375 1.203125 32.1875 3.890625 
Q 26.796875 6.59375 23 11.25 
Q 19.203125 15.90625 17.140625 22.203125 
Q 15.09375 28.5 15.09375 35.703125 
Q 15.09375 42.5 17.046875 48.953125 
Q 19 55.40625 22.640625 60.5 
Q 26.296875 65.59375 31.6875 68.6875 
Q 37.09375 71.796875 44 71.796875 
Q 49 71.796875 53.453125 70 
Q 57.90625 68.203125 61.453125 65.09375 
Q 65 62 67.59375 57.796875 
Q 70.203125 53.59375 71.5 48.796875 
z
" id="BigCaslon-Medium-67"/>
     </defs>
     <g style="fill:#262626;" transform="translate(350.573125 56.297656)scale(0.1 -0.1)">
      <use xlink:href="#BigCaslon-Medium-67"/>
      <use x="77.599991" xlink:href="#BigCaslon-Medium-101"/>
      <use x="121.099976" xlink:href="#BigCaslon-Medium-110"/>
      <use x="173.199966" xlink:href="#BigCaslon-Medium-116"/>
      <use x="205.59996" xlink:href="#BigCaslon-Medium-114"/>
      <use x="241.299957" xlink:href="#BigCaslon-Medium-111"/>
      <use x="292.399948" xlink:href="#BigCaslon-Medium-105"/>
      <use x="317.799942" xlink:href="#BigCaslon-Medium-100"/>
     </g>
    </g>
   </g>
  </g>
  <g id="axes_2">
   <g id="patch_6">
    <path d="M 453.323125 218.163281 
L 809.70125 218.163281 
L 809.70125 10.778906 
L 453.323125 10.778906 
z
" style="fill:none;"/>
   </g>
   <g id="matplotlib.axis_3">
    <g id="xtick_6">
     <g id="text_16">
      <!-- 64 -->
      <g style="fill:#262626;" transform="translate(447.762188 232.321094)scale(0.1 -0.1)">
       <use xlink:href="#ArialMT-54"/>
       <use x="55.615234" xlink:href="#ArialMT-52"/>
      </g>
     </g>
    </g>
    <g id="xtick_7">
     <g id="text_17">
      <!-- 1024 -->
      <g style="fill:#262626;" transform="translate(527.053185 232.321094)scale(0.1 -0.1)">
       <use xlink:href="#ArialMT-49"/>
       <use x="55.615234" xlink:href="#ArialMT-48"/>
       <use x="111.230469" xlink:href="#ArialMT-50"/>
       <use x="166.845703" xlink:href="#ArialMT-52"/>
      </g>
     </g>
    </g>
    <g id="xtick_8">
     <g id="text_18">
      <!-- 2048 -->
      <g style="fill:#262626;" transform="translate(617.561915 232.321094)scale(0.1 -0.1)">
       <use xlink:href="#ArialMT-50"/>
       <use x="55.615234" xlink:href="#ArialMT-48"/>
       <use x="111.230469" xlink:href="#ArialMT-52"/>
       <use x="166.845703" xlink:href="#ArialMT-56"/>
      </g>
     </g>
    </g>
    <g id="xtick_9">
     <g id="text_19">
      <!-- 3072 -->
      <defs>
       <path d="M 4.734375 62.203125 
L 4.734375 70.65625 
L 51.078125 70.65625 
L 51.078125 63.8125 
Q 44.234375 56.546875 37.515625 44.484375 
Q 30.8125 32.421875 27.15625 19.671875 
Q 24.515625 10.6875 23.78125 0 
L 14.75 0 
Q 14.890625 8.453125 18.0625 20.40625 
Q 21.234375 32.375 27.171875 43.484375 
Q 33.109375 54.59375 39.796875 62.203125 
z
" id="ArialMT-55"/>
      </defs>
      <g style="fill:#262626;" transform="translate(708.070645 232.321094)scale(0.1 -0.1)">
       <use xlink:href="#ArialMT-51"/>
       <use x="55.615234" xlink:href="#ArialMT-48"/>
       <use x="111.230469" xlink:href="#ArialMT-55"/>
       <use x="166.845703" xlink:href="#ArialMT-50"/>
      </g>
     </g>
    </g>
    <g id="xtick_10">
     <g id="text_20">
      <!-- 4096 -->
      <defs>
       <path d="M 5.46875 16.546875 
L 13.921875 17.328125 
Q 14.984375 11.375 18.015625 8.6875 
Q 21.046875 6 25.78125 6 
Q 29.828125 6 32.875 7.859375 
Q 35.9375 9.71875 37.890625 12.8125 
Q 39.84375 15.921875 41.15625 21.1875 
Q 42.484375 26.46875 42.484375 31.9375 
Q 42.484375 32.515625 42.4375 33.6875 
Q 39.796875 29.5 35.234375 26.875 
Q 30.671875 24.265625 25.34375 24.265625 
Q 16.453125 24.265625 10.296875 30.703125 
Q 4.15625 37.15625 4.15625 47.703125 
Q 4.15625 58.59375 10.578125 65.234375 
Q 17 71.875 26.65625 71.875 
Q 33.640625 71.875 39.421875 68.109375 
Q 45.21875 64.359375 48.21875 57.390625 
Q 51.21875 50.4375 51.21875 37.25 
Q 51.21875 23.53125 48.234375 15.40625 
Q 45.265625 7.28125 39.375 3.03125 
Q 33.5 -1.21875 25.59375 -1.21875 
Q 17.1875 -1.21875 11.859375 3.4375 
Q 6.546875 8.109375 5.46875 16.546875 
z
M 41.453125 48.140625 
Q 41.453125 55.71875 37.421875 60.15625 
Q 33.40625 64.59375 27.734375 64.59375 
Q 21.875 64.59375 17.53125 59.8125 
Q 13.1875 55.03125 13.1875 47.40625 
Q 13.1875 40.578125 17.3125 36.296875 
Q 21.4375 32.03125 27.484375 32.03125 
Q 33.59375 32.03125 37.515625 36.296875 
Q 41.453125 40.578125 41.453125 48.140625 
z
" id="ArialMT-57"/>
      </defs>
      <g style="fill:#262626;" transform="translate(798.579375 232.321094)scale(0.1 -0.1)">
       <use xlink:href="#ArialMT-52"/>
       <use x="55.615234" xlink:href="#ArialMT-48"/>
       <use x="111.230469" xlink:href="#ArialMT-57"/>
       <use x="166.845703" xlink:href="#ArialMT-54"/>
      </g>
     </g>
    </g>
   </g>
   <g id="matplotlib.axis_4">
    <g id="ytick_7">
     <g id="text_21">
      <!-- 0.0 -->
      <g style="fill:#262626;" transform="translate(432.423125 221.742188)scale(0.1 -0.1)">
       <use xlink:href="#ArialMT-48"/>
       <use x="55.615234" xlink:href="#ArialMT-46"/>
       <use x="83.398438" xlink:href="#ArialMT-48"/>
      </g>
     </g>
    </g>
    <g id="ytick_8">
     <g id="text_22">
      <!-- 0.2 -->
      <g style="fill:#262626;" transform="translate(432.423125 180.265312)scale(0.1 -0.1)">
       <use xlink:href="#ArialMT-48"/>
       <use x="55.615234" xlink:href="#ArialMT-46"/>
       <use x="83.398438" xlink:href="#ArialMT-50"/>
      </g>
     </g>
    </g>
    <g id="ytick_9">
     <g id="text_23">
      <!-- 0.4 -->
      <g style="fill:#262626;" transform="translate(432.423125 138.788437)scale(0.1 -0.1)">
       <use xlink:href="#ArialMT-48"/>
       <use x="55.615234" xlink:href="#ArialMT-46"/>
       <use x="83.398438" xlink:href="#ArialMT-52"/>
      </g>
     </g>
    </g>
    <g id="ytick_10">
     <g id="text_24">
      <!-- 0.6 -->
      <g style="fill:#262626;" transform="translate(432.423125 97.311562)scale(0.1 -0.1)">
       <use xlink:href="#ArialMT-48"/>
       <use x="55.615234" xlink:href="#ArialMT-46"/>
       <use x="83.398438" xlink:href="#ArialMT-54"/>
      </g>
     </g>
    </g>
    <g id="ytick_11">
     <g id="text_25">
      <!-- 0.8 -->
      <g style="fill:#262626;" transform="translate(432.423125 55.834687)scale(0.1 -0.1)">
       <use xlink:href="#ArialMT-48"/>
       <use x="55.615234" xlink:href="#ArialMT-46"/>
       <use x="83.398438" xlink:href="#ArialMT-56"/>
      </g>
     </g>
    </g>
    <g id="ytick_12">
     <g id="text_26">
      <!-- 1.0 -->
      <g style="fill:#262626;" transform="translate(432.423125 14.357812)scale(0.1 -0.1)">
       <use xlink:href="#ArialMT-49"/>
       <use x="55.615234" xlink:href="#ArialMT-46"/>
       <use x="83.398438" xlink:href="#ArialMT-48"/>
      </g>
     </g>
    </g>
    <g id="text_27">
     <!-- Packet error ratio -->
     <defs>
      <path d="M 63.59375 51.203125 
Q 63.59375 57.203125 60.6875 61.59375 
Q 57.796875 66 53.40625 68.40625 
Q 48.90625 70.90625 43.796875 71.546875 
Q 38.703125 72.203125 32.09375 72.203125 
Q 30.296875 72.203125 27.59375 72.203125 
Q 25 72.203125 22.046875 72.140625 
Q 19.09375 72.09375 16.09375 72.09375 
Q 13.09375 72.09375 10.546875 72.046875 
Q 8 72 6.09375 72 
Q 4.296875 72 3.703125 72 
L 3.703125 71 
Q 6.40625 70.59375 8.75 70.046875 
Q 11.09375 69.5 12.59375 67.90625 
Q 13.203125 67.296875 13.546875 65.9375 
Q 13.90625 64.59375 14.046875 62.9375 
Q 14.203125 61.296875 14.25 59.4375 
Q 14.296875 57.59375 14.296875 55.796875 
L 14.296875 36.296875 
Q 14.296875 33.59375 14.296875 30.5 
Q 14.296875 27.5 14.25 24.640625 
Q 14.203125 21.796875 14.140625 19.390625 
Q 14.09375 17 14.09375 15.59375 
Q 14.09375 14 14 12.296875 
Q 13.90625 10.59375 13.75 9.09375 
Q 13.59375 7.59375 13.296875 6.390625 
Q 13 5.203125 12.5 4.59375 
Q 11.203125 3 8.890625 2.203125 
Q 6.59375 1.40625 4.09375 1 
L 4.09375 0 
L 36.09375 0 
L 36.09375 1 
Q 32 1.203125 29.703125 2.5 
Q 27.40625 3.796875 26.59375 5.09375 
Q 25.59375 6.59375 25.5 8.890625 
Q 25.40625 11.203125 25.296875 14.40625 
Q 25.296875 16.09375 25.25 17.546875 
Q 25.203125 19 25.203125 20.703125 
Q 25.203125 22.40625 25.203125 24.59375 
Q 25.203125 26.90625 25.203125 30.09375 
Q 27.59375 30.09375 30.59375 30.09375 
Q 33.703125 30.09375 36.953125 30.34375 
Q 40.203125 30.59375 43.390625 31.09375 
Q 46.59375 31.59375 49.40625 32.59375 
Q 52.09375 33.59375 54.6875 35.25 
Q 57.296875 36.90625 59.25 39.203125 
Q 61.203125 41.5 62.390625 44.5 
Q 63.59375 47.5 63.59375 51.203125 
z
M 52.796875 51.703125 
Q 52.796875 45.40625 49.390625 40.34375 
Q 46 35.296875 39.59375 33.09375 
Q 36.5 32 32.890625 31.75 
Q 29.296875 31.5 25.203125 31.5 
Q 25.203125 32.296875 25.203125 35.90625 
Q 25.203125 39.5 25.203125 44.296875 
Q 25.203125 49.09375 25.25 54.09375 
Q 25.296875 59.09375 25.40625 62.59375 
Q 25.5 64.90625 25.59375 66.15625 
Q 25.703125 67.40625 25.796875 68.09375 
Q 25.90625 68.796875 26.046875 69.25 
Q 26.203125 69.703125 26.296875 70.296875 
Q 27 70.40625 28.140625 70.546875 
Q 29.296875 70.703125 31.40625 70.703125 
Q 34.296875 70.703125 37 70.296875 
Q 39.703125 69.90625 42.09375 68.796875 
Q 46.90625 66.5 49.84375 62 
Q 52.796875 57.5 52.796875 51.703125 
z
" id="BigCaslon-Medium-80"/>
      <path d="M 46.5 9.796875 
L 45.90625 9.796875 
Q 45.5 8.296875 44.390625 7.34375 
Q 43.296875 6.40625 41 6.40625 
Q 39 6.40625 37.453125 7.84375 
Q 35.90625 9.296875 35.90625 13.796875 
Q 35.90625 17.203125 35.953125 20.046875 
Q 36 22.90625 36 25.59375 
Q 36 28.296875 36.046875 31.1875 
Q 36.09375 34.09375 36.09375 37.703125 
Q 36.09375 39.40625 36 41.15625 
Q 35.90625 42.90625 35.5 43.59375 
Q 34.5 45.59375 32.203125 46.9375 
Q 29.90625 48.296875 27.296875 48.296875 
Q 26 48.296875 23.953125 47.6875 
Q 21.90625 47.09375 19.453125 46.09375 
Q 17 45.09375 14.296875 43.6875 
Q 11.59375 42.296875 9 40.796875 
Q 8.203125 40.296875 7.140625 39.6875 
Q 6.09375 39.09375 5.1875 38.296875 
Q 4.296875 37.5 3.6875 36.5 
Q 3.09375 35.5 3.09375 34.296875 
Q 3.09375 32.796875 4.25 31.640625 
Q 5.40625 30.5 7 30.5 
Q 8.703125 30.5 10.140625 31.59375 
Q 11.59375 32.703125 11.59375 34.09375 
L 11.59375 38.59375 
Q 11.59375 39.203125 12.296875 40.046875 
Q 13 40.90625 14.203125 41.75 
Q 15.40625 42.59375 16.953125 43.140625 
Q 18.5 43.703125 20.09375 43.703125 
Q 22.5 43.703125 24 43.046875 
Q 25.5 42.40625 26.34375 41.59375 
Q 27.203125 40.796875 27.546875 40.046875 
Q 27.90625 39.296875 27.90625 39.09375 
L 27.90625 28.796875 
Q 26.90625 28.203125 25.453125 27.453125 
Q 24 26.703125 22.09375 25.640625 
Q 20.203125 24.59375 17.640625 23.09375 
Q 15.09375 21.59375 11.796875 19.5 
Q 8.5 17.40625 6.25 14.796875 
Q 4 12.203125 4 9.40625 
Q 4 6.796875 4.84375 5 
Q 5.703125 3.203125 7.046875 2.046875 
Q 8.40625 0.90625 10.046875 0.453125 
Q 11.703125 0 13.296875 0 
Q 16 0 18.25 0.84375 
Q 20.5 1.703125 22.34375 3.09375 
Q 24.203125 4.5 25.546875 6.09375 
Q 26.90625 7.703125 27.703125 9 
L 27.90625 8.90625 
Q 27.90625 3.90625 30.546875 1.90625 
Q 33.203125 -0.09375 36.59375 -0.09375 
Q 38.703125 -0.09375 40.453125 0.65625 
Q 42.203125 1.40625 43.5 2.84375 
Q 44.796875 4.296875 45.59375 6.09375 
Q 46.40625 7.90625 46.5 9.796875 
z
M 27.90625 11.796875 
Q 27.90625 10.09375 26.703125 9 
Q 25 7.296875 23 6.6875 
Q 21 6.09375 18.40625 6.09375 
Q 15.5 6.09375 13.703125 8.1875 
Q 11.90625 10.296875 11.90625 12.90625 
Q 11.90625 15.5 13.75 17.546875 
Q 15.59375 19.59375 18.140625 21.296875 
Q 20.703125 23 23.390625 24.453125 
Q 26.09375 25.90625 27.90625 27.203125 
z
" id="BigCaslon-Medium-97"/>
      <path d="M 44.09375 14.296875 
L 43.296875 14.703125 
Q 40.90625 10.703125 37.296875 8.640625 
Q 33.703125 6.59375 27.5 6.59375 
Q 23.59375 6.59375 20.4375 8.046875 
Q 17.296875 9.5 15.09375 12.140625 
Q 12.90625 14.796875 11.703125 18.546875 
Q 10.5 22.296875 10.5 26.796875 
Q 10.5 30.90625 11.59375 34.5 
Q 12.703125 38.09375 14.59375 40.796875 
Q 16.5 43.5 19.09375 45.09375 
Q 21.703125 46.703125 24.796875 46.703125 
Q 29 46.703125 30.953125 44.25 
Q 32.90625 41.796875 32.90625 38.09375 
Q 32.90625 36.09375 32.40625 34.703125 
Q 32.796875 33.203125 34.140625 32.203125 
Q 35.5 31.203125 37.203125 31.203125 
Q 39.296875 31.203125 40.84375 32.75 
Q 42.40625 34.296875 42.40625 36.40625 
Q 42.40625 39.296875 40.84375 41.5 
Q 39.296875 43.703125 36.796875 45.203125 
Q 34.296875 46.703125 31.09375 47.5 
Q 27.90625 48.296875 24.59375 48.296875 
Q 19.703125 48.296875 15.546875 46.296875 
Q 11.40625 44.296875 8.40625 41 
Q 5.40625 37.703125 3.703125 33.34375 
Q 2 29 2 24.203125 
Q 2 19.09375 3.640625 14.59375 
Q 5.296875 10.09375 8.1875 6.75 
Q 11.09375 3.40625 15.1875 1.546875 
Q 19.296875 -0.296875 24.09375 -0.296875 
Q 27.90625 -0.296875 31.15625 0.796875 
Q 34.40625 1.90625 37 3.953125 
Q 39.59375 6 41.390625 8.640625 
Q 43.203125 11.296875 44.09375 14.296875 
z
" id="BigCaslon-Medium-99"/>
      <path d="M 52.796875 0 
L 52.796875 1 
Q 50.90625 1 49.203125 1.203125 
Q 47.5 1.40625 46.703125 1.59375 
Q 44.296875 3.40625 40.796875 8 
Q 37.90625 11.796875 34 17.640625 
Q 30.09375 23.5 25.703125 30.203125 
Q 28.40625 32.703125 31.5 35.546875 
Q 34.59375 38.40625 37.796875 41.09375 
Q 39.90625 42.90625 42.34375 43.90625 
Q 44.796875 44.90625 46.9375 45.453125 
Q 49.09375 46 50.6875 46.140625 
Q 52.296875 46.296875 52.59375 46.296875 
L 52.59375 47.296875 
L 28.09375 47.296875 
L 28.09375 46.296875 
Q 29.296875 46.296875 30.6875 46.09375 
Q 32.09375 45.90625 33.296875 45.59375 
Q 34.5 45.296875 35.296875 44.84375 
Q 36.09375 44.40625 36.09375 43.703125 
Q 36.09375 43 34.1875 40.84375 
Q 32.296875 38.703125 29.390625 35.84375 
Q 26.5 33 23.09375 29.953125 
Q 19.703125 26.90625 16.796875 24.5 
L 16.796875 72.296875 
L 16 72.296875 
L 2.703125 66.203125 
L 2.703125 65.59375 
Q 4 64.90625 5.453125 64.15625 
Q 6.90625 63.40625 7.59375 62.90625 
Q 8.296875 62.40625 8.390625 61.953125 
Q 8.5 61.5 8.5 60.703125 
L 8.5 4.203125 
Q 8.5 2.296875 6.640625 1.75 
Q 4.796875 1.203125 2.5 1 
L 2.5 0 
L 22.40625 0 
L 22.40625 1 
Q 21.40625 1.203125 20.40625 1.296875 
Q 19.40625 1.40625 18.59375 1.65625 
Q 17.796875 1.90625 17.296875 2.40625 
Q 16.796875 2.90625 16.796875 3.796875 
L 16.796875 23.40625 
Q 17.203125 23.59375 17.546875 23.640625 
Q 17.90625 23.703125 18.40625 23.703125 
Q 19.703125 23.703125 21.296875 21.5 
Q 22.796875 19.5 24.84375 16.546875 
Q 26.90625 13.59375 28.75 10.796875 
Q 30.59375 8 31.9375 5.84375 
Q 33.296875 3.703125 33.296875 3.09375 
Q 33.296875 1.703125 31.9375 1.390625 
Q 30.59375 1.09375 28.59375 1 
L 28.59375 0 
z
" id="BigCaslon-Medium-107"/>
     </defs>
     <g style="fill:#262626;" transform="translate(425.663125 157.155469)rotate(-90)scale(0.12 -0.12)">
      <use xlink:href="#BigCaslon-Medium-80"/>
      <use x="65.599991" xlink:href="#BigCaslon-Medium-97"/>
      <use x="110.399979" xlink:href="#BigCaslon-Medium-99"/>
      <use x="153.599976" xlink:href="#BigCaslon-Medium-107"/>
      <use x="202.399963" xlink:href="#BigCaslon-Medium-101"/>
      <use x="245.899948" xlink:href="#BigCaslon-Medium-116"/>
      <use x="278.299942" xlink:href="#BigCaslon-Medium-32"/>
      <use x="299.299927" xlink:href="#BigCaslon-Medium-101"/>
      <use x="342.799911" xlink:href="#BigCaslon-Medium-114"/>
      <use x="378.499908" xlink:href="#BigCaslon-Medium-114"/>
      <use x="414.199905" xlink:href="#BigCaslon-Medium-111"/>
      <use x="465.299896" xlink:href="#BigCaslon-Medium-114"/>
      <use x="500.999893" xlink:href="#BigCaslon-Medium-32"/>
      <use x="521.999878" xlink:href="#BigCaslon-Medium-114"/>
      <use x="557.699875" xlink:href="#BigCaslon-Medium-97"/>
      <use x="602.499863" xlink:href="#BigCaslon-Medium-116"/>
      <use x="634.899857" xlink:href="#BigCaslon-Medium-105"/>
      <use x="660.29985" xlink:href="#BigCaslon-Medium-111"/>
     </g>
    </g>
   </g>
   <g id="PolyCollection_4">
    <defs>
     <path d="M 453.323125 -249.899985 
L 453.323125 -249.107272 
L 480.723229 -241.842736 
L 508.123333 -235.347171 
L 535.523437 -228.188778 
L 562.92354 -221.973546 
L 590.323644 -215.412415 
L 617.723748 -208.62363 
L 645.123852 -202.713709 
L 672.523956 -195.939919 
L 699.92406 -189.193214 
L 727.324164 -181.772199 
L 754.724267 -175.42877 
L 782.124371 -170.029007 
L 809.524475 -164.45246 
L 809.524475 -166.17251 
L 809.524475 -166.17251 
L 782.124371 -174.200378 
L 754.724267 -181.898091 
L 727.324164 -187.923988 
L 699.92406 -193.747921 
L 672.523956 -199.53645 
L 645.123852 -206.256469 
L 617.723748 -212.937084 
L 590.323644 -218.75727 
L 562.92354 -224.150695 
L 535.523437 -230.286355 
L 508.123333 -237.285402 
L 480.723229 -243.905747 
L 453.323125 -249.899985 
z
" id="m4f90ef81c4" style="stroke:#45046a;stroke-opacity:0.1;"/>
    </defs>
    <g clip-path="url(#p5aca399f33)">
     <use style="fill:#45046a;fill-opacity:0.1;stroke:#45046a;stroke-opacity:0.1;" x="0" xlink:href="#m4f90ef81c4" y="261.123594"/>
    </g>
   </g>
   <g id="PolyCollection_5">
    <defs>
     <path d="M 453.323125 -248.341023 
L 453.323125 -246.149864 
L 480.723229 -231.4676 
L 508.123333 -217.434082 
L 535.523437 -203.222921 
L 562.92354 -189.066501 
L 590.323644 -174.532742 
L 617.723748 -162.538111 
L 645.123852 -151.111091 
L 672.523956 -141.920362 
L 699.92406 -133.265795 
L 727.324164 -126.876765 
L 754.724267 -119.151558 
L 782.124371 -111.464671 
L 809.524475 -102.575852 
L 809.524475 -108.724758 
L 809.524475 -108.724758 
L 782.124371 -117.035017 
L 754.724267 -124.583968 
L 727.324164 -131.882607 
L 699.92406 -140.609594 
L 672.523956 -149.329228 
L 645.123852 -158.351456 
L 617.723748 -166.778034 
L 590.323644 -177.374474 
L 562.92354 -190.362925 
L 535.523437 -204.613556 
L 508.123333 -220.37635 
L 480.723229 -234.335115 
L 453.323125 -248.341023 
z
" id="m0e6c6db6ee" style="stroke:#811580;stroke-opacity:0.1;"/>
    </defs>
    <g clip-path="url(#p5aca399f33)">
     <use style="fill:#811580;fill-opacity:0.1;stroke:#811580;stroke-opacity:0.1;" x="0" xlink:href="#m0e6c6db6ee" y="261.123594"/>
    </g>
   </g>
   <g id="PolyCollection_6">
    <defs>
     <path d="M 453.323125 -248.649308 
L 453.323125 -249.012255 
L 480.723229 -228.741606 
L 508.123333 -208.763309 
L 535.523437 -187.495147 
L 562.92354 -170.183724 
L 590.323644 -155.289969 
L 617.723748 -144.527877 
L 645.123852 -134.61326 
L 672.523956 -125.346585 
L 699.92406 -115.419315 
L 727.324164 -106.475692 
L 754.724267 -98.318035 
L 782.124371 -91.537037 
L 809.524475 -84.552731 
L 809.524475 -89.704421 
L 809.524475 -89.704421 
L 782.124371 -94.969619 
L 754.724267 -100.281434 
L 727.324164 -110.355167 
L 699.92406 -120.306565 
L 672.523956 -131.560153 
L 645.123852 -140.746078 
L 617.723748 -149.431536 
L 590.323644 -160.338807 
L 562.92354 -175.658651 
L 535.523437 -196.155704 
L 508.123333 -216.585627 
L 480.723229 -233.844347 
L 453.323125 -248.649308 
z
" id="m9b2809bd3c" style="stroke:#a56cc1;stroke-opacity:0.1;"/>
    </defs>
    <g clip-path="url(#p5aca399f33)">
     <use style="fill:#a56cc1;fill-opacity:0.1;stroke:#a56cc1;stroke-opacity:0.1;" x="0" xlink:href="#m9b2809bd3c" y="261.123594"/>
    </g>
   </g>
   <g id="line2d_10">
    <path clip-path="url(#p5aca399f33)" d="M 453.323125 11.619965 
L 480.723229 18.249352 
L 508.123333 24.807307 
L 535.523437 31.886027 
L 562.92354 38.061473 
L 590.323644 44.038751 
L 617.723748 50.343236 
L 645.123852 56.638504 
L 672.523956 63.385409 
L 699.92406 69.653026 
L 727.324164 76.2755 
L 754.724267 82.460163 
L 782.124371 89.008901 
L 809.524475 95.811109 
" style="fill:none;stroke:#45046a;stroke-linecap:round;stroke-width:1.5;"/>
    <g clip-path="url(#p5aca399f33)">
     <use style="fill:#45046a;stroke:#45046a;stroke-linejoin:miter;" x="453.323125" xlink:href="#med484c962e" y="11.619965"/>
     <use style="fill:#45046a;stroke:#45046a;stroke-linejoin:miter;" x="480.723229" xlink:href="#med484c962e" y="18.249352"/>
     <use style="fill:#45046a;stroke:#45046a;stroke-linejoin:miter;" x="508.123333" xlink:href="#med484c962e" y="24.807307"/>
     <use style="fill:#45046a;stroke:#45046a;stroke-linejoin:miter;" x="535.523437" xlink:href="#med484c962e" y="31.886027"/>
     <use style="fill:#45046a;stroke:#45046a;stroke-linejoin:miter;" x="562.92354" xlink:href="#med484c962e" y="38.061473"/>
     <use style="fill:#45046a;stroke:#45046a;stroke-linejoin:miter;" x="590.323644" xlink:href="#med484c962e" y="44.038751"/>
     <use style="fill:#45046a;stroke:#45046a;stroke-linejoin:miter;" x="617.723748" xlink:href="#med484c962e" y="50.343236"/>
     <use style="fill:#45046a;stroke:#45046a;stroke-linejoin:miter;" x="645.123852" xlink:href="#med484c962e" y="56.638504"/>
     <use style="fill:#45046a;stroke:#45046a;stroke-linejoin:miter;" x="672.523956" xlink:href="#med484c962e" y="63.385409"/>
     <use style="fill:#45046a;stroke:#45046a;stroke-linejoin:miter;" x="699.92406" xlink:href="#med484c962e" y="69.653026"/>
     <use style="fill:#45046a;stroke:#45046a;stroke-linejoin:miter;" x="727.324164" xlink:href="#med484c962e" y="76.2755"/>
     <use style="fill:#45046a;stroke:#45046a;stroke-linejoin:miter;" x="754.724267" xlink:href="#med484c962e" y="82.460163"/>
     <use style="fill:#45046a;stroke:#45046a;stroke-linejoin:miter;" x="782.124371" xlink:href="#med484c962e" y="89.008901"/>
     <use style="fill:#45046a;stroke:#45046a;stroke-linejoin:miter;" x="809.524475" xlink:href="#med484c962e" y="95.811109"/>
    </g>
   </g>
   <g id="line2d_11">
    <path clip-path="url(#p5aca399f33)" d="M 453.323125 13.878151 
L 480.723229 28.222236 
L 508.123333 42.218377 
L 535.523437 57.205355 
L 562.92354 71.40888 
L 590.323644 85.169986 
L 617.723748 96.465521 
L 645.123852 106.39232 
L 672.523956 115.498799 
L 699.92406 124.1859 
L 727.324164 131.743908 
L 754.724267 139.255831 
L 782.124371 146.87375 
L 809.524475 155.473289 
" style="fill:none;stroke:#811580;stroke-linecap:round;stroke-width:1.5;"/>
    <g clip-path="url(#p5aca399f33)">
     <use style="fill:#811580;stroke:#811580;" x="453.323125" xlink:href="#m850967ea3a" y="13.878151"/>
     <use style="fill:#811580;stroke:#811580;" x="480.723229" xlink:href="#m850967ea3a" y="28.222236"/>
     <use style="fill:#811580;stroke:#811580;" x="508.123333" xlink:href="#m850967ea3a" y="42.218377"/>
     <use style="fill:#811580;stroke:#811580;" x="535.523437" xlink:href="#m850967ea3a" y="57.205355"/>
     <use style="fill:#811580;stroke:#811580;" x="562.92354" xlink:href="#m850967ea3a" y="71.40888"/>
     <use style="fill:#811580;stroke:#811580;" x="590.323644" xlink:href="#m850967ea3a" y="85.169986"/>
     <use style="fill:#811580;stroke:#811580;" x="617.723748" xlink:href="#m850967ea3a" y="96.465521"/>
     <use style="fill:#811580;stroke:#811580;" x="645.123852" xlink:href="#m850967ea3a" y="106.39232"/>
     <use style="fill:#811580;stroke:#811580;" x="672.523956" xlink:href="#m850967ea3a" y="115.498799"/>
     <use style="fill:#811580;stroke:#811580;" x="699.92406" xlink:href="#m850967ea3a" y="124.1859"/>
     <use style="fill:#811580;stroke:#811580;" x="727.324164" xlink:href="#m850967ea3a" y="131.743908"/>
     <use style="fill:#811580;stroke:#811580;" x="754.724267" xlink:href="#m850967ea3a" y="139.255831"/>
     <use style="fill:#811580;stroke:#811580;" x="782.124371" xlink:href="#m850967ea3a" y="146.87375"/>
     <use style="fill:#811580;stroke:#811580;" x="809.524475" xlink:href="#m850967ea3a" y="155.473289"/>
    </g>
   </g>
   <g id="line2d_12">
    <path clip-path="url(#p5aca399f33)" d="M 453.323125 12.292812 
L 480.723229 29.830617 
L 508.123333 48.449126 
L 535.523437 69.298168 
L 562.92354 88.202406 
L 590.323644 103.309206 
L 617.723748 114.143887 
L 645.123852 123.443924 
L 672.523956 132.670225 
L 699.92406 143.260654 
L 727.324164 152.708164 
L 754.724267 161.823859 
L 782.124371 167.870266 
L 809.524475 173.995018 
" style="fill:none;stroke:#a56cc1;stroke-linecap:round;stroke-width:1.5;"/>
    <g clip-path="url(#p5aca399f33)">
     <use style="fill:#a56cc1;stroke:#a56cc1;stroke-linejoin:miter;" x="453.323125" xlink:href="#m775c247e81" y="12.292812"/>
     <use style="fill:#a56cc1;stroke:#a56cc1;stroke-linejoin:miter;" x="480.723229" xlink:href="#m775c247e81" y="29.830617"/>
     <use style="fill:#a56cc1;stroke:#a56cc1;stroke-linejoin:miter;" x="508.123333" xlink:href="#m775c247e81" y="48.449126"/>
     <use style="fill:#a56cc1;stroke:#a56cc1;stroke-linejoin:miter;" x="535.523437" xlink:href="#m775c247e81" y="69.298168"/>
     <use style="fill:#a56cc1;stroke:#a56cc1;stroke-linejoin:miter;" x="562.92354" xlink:href="#m775c247e81" y="88.202406"/>
     <use style="fill:#a56cc1;stroke:#a56cc1;stroke-linejoin:miter;" x="590.323644" xlink:href="#m775c247e81" y="103.309206"/>
     <use style="fill:#a56cc1;stroke:#a56cc1;stroke-linejoin:miter;" x="617.723748" xlink:href="#m775c247e81" y="114.143887"/>
     <use style="fill:#a56cc1;stroke:#a56cc1;stroke-linejoin:miter;" x="645.123852" xlink:href="#m775c247e81" y="123.443924"/>
     <use style="fill:#a56cc1;stroke:#a56cc1;stroke-linejoin:miter;" x="672.523956" xlink:href="#m775c247e81" y="132.670225"/>
     <use style="fill:#a56cc1;stroke:#a56cc1;stroke-linejoin:miter;" x="699.92406" xlink:href="#m775c247e81" y="143.260654"/>
     <use style="fill:#a56cc1;stroke:#a56cc1;stroke-linejoin:miter;" x="727.324164" xlink:href="#m775c247e81" y="152.708164"/>
     <use style="fill:#a56cc1;stroke:#a56cc1;stroke-linejoin:miter;" x="754.724267" xlink:href="#m775c247e81" y="161.823859"/>
     <use style="fill:#a56cc1;stroke:#a56cc1;stroke-linejoin:miter;" x="782.124371" xlink:href="#m775c247e81" y="167.870266"/>
     <use style="fill:#a56cc1;stroke:#a56cc1;stroke-linejoin:miter;" x="809.524475" xlink:href="#m775c247e81" y="173.995018"/>
    </g>
   </g>
   <g id="line2d_13">
    <path clip-path="url(#p5aca399f33)" d="M 453.323125 166.317187 
L 809.70125 166.317187 
" style="fill:none;stroke:#000000;stroke-dasharray:5.55,2.4;stroke-dashoffset:0;stroke-opacity:0.2;stroke-width:1.5;"/>
   </g>
   <g id="line2d_14">
    <path clip-path="url(#p5aca399f33)" d="M 453.323125 114.471094 
L 809.70125 114.471094 
" style="fill:none;stroke:#000000;stroke-dasharray:5.55,2.4;stroke-dashoffset:0;stroke-opacity:0.2;stroke-width:1.5;"/>
   </g>
   <g id="line2d_15">
    <path clip-path="url(#p5aca399f33)" d="M 453.323125 62.625 
L 809.70125 62.625 
" style="fill:none;stroke:#000000;stroke-dasharray:5.55,2.4;stroke-dashoffset:0;stroke-opacity:0.2;stroke-width:1.5;"/>
   </g>
   <g id="patch_7">
    <path d="M 453.323125 218.163281 
L 453.323125 10.778906 
" style="fill:none;stroke:#cccccc;stroke-linecap:square;stroke-linejoin:miter;stroke-width:0.8;"/>
   </g>
   <g id="patch_8">
    <path d="M 453.323125 218.163281 
L 809.70125 218.163281 
" style="fill:none;stroke:#cccccc;stroke-linecap:square;stroke-linejoin:miter;stroke-width:0.8;"/>
   </g>
  </g>
  <g id="axes_3">
   <g id="matplotlib.axis_5">
    <g id="xtick_11">
     <g id="text_28">
      <!-- 0.0 -->
      <g style="opacity:0;" transform="translate(36.585625 232.321094)scale(0.1 -0.1)">
       <use xlink:href="#ArialMT-48"/>
       <use x="55.615234" xlink:href="#ArialMT-46"/>
       <use x="83.398438" xlink:href="#ArialMT-48"/>
      </g>
     </g>
    </g>
    <g id="xtick_12">
     <g id="text_29">
      <!-- 0.2 -->
      <g style="opacity:0;" transform="translate(189.81875 232.321094)scale(0.1 -0.1)">
       <use xlink:href="#ArialMT-48"/>
       <use x="55.615234" xlink:href="#ArialMT-46"/>
       <use x="83.398438" xlink:href="#ArialMT-50"/>
      </g>
     </g>
    </g>
    <g id="xtick_13">
     <g id="text_30">
      <!-- 0.4 -->
      <g style="opacity:0;" transform="translate(343.051875 232.321094)scale(0.1 -0.1)">
       <use xlink:href="#ArialMT-48"/>
       <use x="55.615234" xlink:href="#ArialMT-46"/>
       <use x="83.398438" xlink:href="#ArialMT-52"/>
      </g>
     </g>
    </g>
    <g id="xtick_14">
     <g id="text_31">
      <!-- 0.6 -->
      <g style="opacity:0;" transform="translate(496.285 232.321094)scale(0.1 -0.1)">
       <use xlink:href="#ArialMT-48"/>
       <use x="55.615234" xlink:href="#ArialMT-46"/>
       <use x="83.398438" xlink:href="#ArialMT-54"/>
      </g>
     </g>
    </g>
    <g id="xtick_15">
     <g id="text_32">
      <!-- 0.8 -->
      <g style="opacity:0;" transform="translate(649.518125 232.321094)scale(0.1 -0.1)">
       <use xlink:href="#ArialMT-48"/>
       <use x="55.615234" xlink:href="#ArialMT-46"/>
       <use x="83.398438" xlink:href="#ArialMT-56"/>
      </g>
     </g>
    </g>
    <g id="xtick_16">
     <g id="text_33">
      <!-- 1.0 -->
      <g style="opacity:0;" transform="translate(802.75125 232.321094)scale(0.1 -0.1)">
       <use xlink:href="#ArialMT-49"/>
       <use x="55.615234" xlink:href="#ArialMT-46"/>
       <use x="83.398438" xlink:href="#ArialMT-48"/>
      </g>
     </g>
    </g>
    <g id="text_34">
     <!-- Number of segmentations -->
     <defs>
      <path d="M 84.59375 71 
L 84.59375 72 
L 59.796875 72 
L 59.796875 71 
Q 64.59375 70.296875 67.140625 68.546875 
Q 69.703125 66.796875 70.703125 64 
Q 71.5 61.90625 71.59375 58.25 
Q 71.703125 54.59375 71.703125 50.59375 
L 71.703125 16.59375 
L 24.296875 72 
L 4 72 
L 4 71 
Q 5.59375 70.796875 7.34375 70.34375 
Q 9.09375 69.90625 10.59375 68.84375 
Q 12.09375 67.796875 13.1875 65.9375 
Q 14.296875 64.09375 14.59375 61.203125 
Q 14.703125 58.296875 14.703125 56.296875 
Q 14.703125 54.40625 14.703125 52.59375 
Q 14.703125 50.796875 14.703125 48.90625 
Q 14.703125 47 14.703125 44.09375 
Q 14.703125 37.40625 14.59375 31.546875 
Q 14.5 25.703125 14.296875 21.40625 
Q 14.09375 15.703125 13.6875 11.59375 
Q 13.296875 7.5 11.90625 5.40625 
Q 10.5 3.203125 8.09375 2.25 
Q 5.703125 1.296875 3.296875 1 
L 3.296875 0 
L 27.90625 0 
L 27.90625 1 
Q 23.796875 1.5 21.4375 2.640625 
Q 19.09375 3.796875 18 6.09375 
Q 17 8.09375 16.75 12.1875 
Q 16.5 16.296875 16.5 21.40625 
L 16.5 63.59375 
Q 23.296875 56 29.390625 48.890625 
Q 35.5 41.796875 41.84375 34.34375 
Q 48.203125 26.90625 55.203125 18.703125 
Q 62.203125 10.5 70.703125 0.703125 
Q 71.703125 -0.296875 72.5 -0.296875 
Q 73 -0.296875 73.25 -0.046875 
Q 73.5 0.203125 73.5 0.59375 
Q 73.5 3.5 73.5 7.09375 
Q 73.5 10.703125 73.453125 14.34375 
Q 73.40625 18 73.40625 21.5 
Q 73.40625 25.09375 73.40625 27.90625 
Q 73.40625 34.59375 73.546875 40.4375 
Q 73.703125 46.296875 73.90625 50.59375 
Q 74.09375 55.203125 74.296875 59.25 
Q 74.5 63.296875 75.203125 64.796875 
Q 76.40625 67.703125 78.65625 69.09375 
Q 80.90625 70.5 84.59375 71 
z
" id="BigCaslon-Medium-78"/>
     </defs>
     <g style="fill:#262626;" transform="translate(341.985938 249.923594)scale(0.16 -0.16)">
      <use xlink:href="#BigCaslon-Medium-78"/>
      <use x="87.499985" xlink:href="#BigCaslon-Medium-117"/>
      <use x="139.799973" xlink:href="#BigCaslon-Medium-109"/>
      <use x="219.199966" xlink:href="#BigCaslon-Medium-98"/>
      <use x="272.999954" xlink:href="#BigCaslon-Medium-101"/>
      <use x="316.499939" xlink:href="#BigCaslon-Medium-114"/>
      <use x="352.199936" xlink:href="#BigCaslon-Medium-32"/>
      <use x="373.199921" xlink:href="#BigCaslon-Medium-111"/>
      <use x="424.299911" xlink:href="#BigCaslon-Medium-102"/>
      <use x="451.299896" xlink:href="#BigCaslon-Medium-32"/>
      <use x="472.299881" xlink:href="#BigCaslon-Medium-115"/>
      <use x="510.499878" xlink:href="#BigCaslon-Medium-101"/>
      <use x="553.999863" xlink:href="#BigCaslon-Medium-103"/>
      <use x="606.499847" xlink:href="#BigCaslon-Medium-109"/>
      <use x="685.899841" xlink:href="#BigCaslon-Medium-101"/>
      <use x="729.399826" xlink:href="#BigCaslon-Medium-110"/>
      <use x="781.499817" xlink:href="#BigCaslon-Medium-116"/>
      <use x="813.899811" xlink:href="#BigCaslon-Medium-97"/>
      <use x="858.699799" xlink:href="#BigCaslon-Medium-116"/>
      <use x="891.099792" xlink:href="#BigCaslon-Medium-105"/>
      <use x="916.499786" xlink:href="#BigCaslon-Medium-111"/>
      <use x="967.599777" xlink:href="#BigCaslon-Medium-110"/>
      <use x="1019.699768" xlink:href="#BigCaslon-Medium-115"/>
     </g>
    </g>
   </g>
   <g id="matplotlib.axis_6">
    <g id="ytick_13">
     <g id="text_35">
      <!-- 0.0 -->
      <g style="opacity:0;" transform="translate(22.635625 221.742188)scale(0.1 -0.1)">
       <use xlink:href="#ArialMT-48"/>
       <use x="55.615234" xlink:href="#ArialMT-46"/>
       <use x="83.398438" xlink:href="#ArialMT-48"/>
      </g>
     </g>
    </g>
    <g id="ytick_14">
     <g id="text_36">
      <!-- 0.2 -->
      <g style="opacity:0;" transform="translate(22.635625 180.265312)scale(0.1 -0.1)">
       <use xlink:href="#ArialMT-48"/>
       <use x="55.615234" xlink:href="#ArialMT-46"/>
       <use x="83.398438" xlink:href="#ArialMT-50"/>
      </g>
     </g>
    </g>
    <g id="ytick_15">
     <g id="text_37">
      <!-- 0.4 -->
      <g style="opacity:0;" transform="translate(22.635625 138.788437)scale(0.1 -0.1)">
       <use xlink:href="#ArialMT-48"/>
       <use x="55.615234" xlink:href="#ArialMT-46"/>
       <use x="83.398438" xlink:href="#ArialMT-52"/>
      </g>
     </g>
    </g>
    <g id="ytick_16">
     <g id="text_38">
      <!-- 0.6 -->
      <g style="opacity:0;" transform="translate(22.635625 97.311562)scale(0.1 -0.1)">
       <use xlink:href="#ArialMT-48"/>
       <use x="55.615234" xlink:href="#ArialMT-46"/>
       <use x="83.398438" xlink:href="#ArialMT-54"/>
      </g>
     </g>
    </g>
    <g id="ytick_17">
     <g id="text_39">
      <!-- 0.8 -->
      <g style="opacity:0;" transform="translate(22.635625 55.834687)scale(0.1 -0.1)">
       <use xlink:href="#ArialMT-48"/>
       <use x="55.615234" xlink:href="#ArialMT-46"/>
       <use x="83.398438" xlink:href="#ArialMT-56"/>
      </g>
     </g>
    </g>
    <g id="ytick_18">
     <g id="text_40">
      <!-- 1.0 -->
      <g style="opacity:0;" transform="translate(22.635625 14.357812)scale(0.1 -0.1)">
       <use xlink:href="#ArialMT-49"/>
       <use x="55.615234" xlink:href="#ArialMT-46"/>
       <use x="83.398438" xlink:href="#ArialMT-48"/>
      </g>
     </g>
    </g>
   </g>
  </g>
 </g>
 <defs>
  <clipPath id="p566592206b">
   <rect height="207.384375" width="356.378125" x="43.535625" y="10.778906"/>
  </clipPath>
  <clipPath id="p5aca399f33">
   <rect height="207.384375" width="356.378125" x="453.323125" y="10.778906"/>
  </clipPath>
 </defs>
</svg>
