<?xml version="1.0" encoding="utf-8" standalone="no"?>
<!DOCTYPE svg PUBLIC "-//W3C//DTD SVG 1.1//EN"
  "http://www.w3.org/Graphics/SVG/1.1/DTD/svg11.dtd">
<!-- Created with matplotlib (https://matplotlib.org/) -->
<svg height="124.401056pt" version="1.1" viewBox="0 0 432.9 124.401056" width="432.9pt" xmlns="http://www.w3.org/2000/svg" xmlns:xlink="http://www.w3.org/1999/xlink">
 <defs>
  <style type="text/css">
*{stroke-linecap:butt;stroke-linejoin:round;}
  </style>
 </defs>
 <g id="figure_1">
  <g id="patch_1">
   <path d="M 0 124.401056 
L 432.9 124.401056 
L 432.9 0 
L 0 0 
z
" style="fill:none;"/>
  </g>
  <g id="patch_2">
   <path d="M 7.2 117.201056 
L 130.288235 117.201056 
L 130.288235 8.481056 
L 7.2 8.481056 
z
" style="fill:none;"/>
  </g>
  <g id="axes_1">
   <g id="Poly3DCollection_1">
    <path clip-path="url(#p58fca331bb)" d="M 61.112585 59.625324 
L 62.849517 58.438419 
L 62.940953 66.946865 
L 61.21353 67.25039 
z
" style="fill:#821580;fill-opacity:0.15;stroke:#ffffff;stroke-width:0.2;"/>
    <path clip-path="url(#p58fca331bb)" d="M 59.412884 60.808928 
L 61.112585 59.625324 
L 61.21353 67.25039 
L 59.519666 67.616532 
z
" style="fill:#821580;fill-opacity:0.15;stroke:#ffffff;stroke-width:0.2;"/>
    <path clip-path="url(#p58fca331bb)" d="M 62.849517 58.438419 
L 64.617838 57.247638 
L 64.695576 66.706949 
L 62.940953 66.946865 
z
" style="fill:#821580;fill-opacity:0.15;stroke:#ffffff;stroke-width:0.2;"/>
    <path clip-path="url(#p58fca331bb)" d="M 57.756181 61.989952 
L 59.412884 60.808928 
L 59.519666 67.616532 
L 57.865639 68.044087 
z
" style="fill:#821580;fill-opacity:0.15;stroke:#ffffff;stroke-width:0.2;"/>
    <path clip-path="url(#p58fca331bb)" d="M 64.617838 57.247638 
L 66.411637 56.052608 
L 66.470972 66.531424 
L 64.695576 66.706949 
z
" style="fill:#821580;fill-opacity:0.15;stroke:#ffffff;stroke-width:0.2;"/>
    <path clip-path="url(#p58fca331bb)" d="M 56.148164 63.169209 
L 57.756181 61.989952 
L 57.865639 68.044087 
L 56.257624 68.531645 
z
" style="fill:#821580;fill-opacity:0.15;stroke:#ffffff;stroke-width:0.2;"/>
    <path clip-path="url(#p58fca331bb)" d="M 66.411637 56.052608 
L 68.224946 54.853218 
L 68.260662 66.420861 
L 66.470972 66.531424 
z
" style="fill:#821580;fill-opacity:0.15;stroke:#ffffff;stroke-width:0.2;"/>
    <path clip-path="url(#p58fca331bb)" d="M 54.594425 64.347555 
L 56.148164 63.169209 
L 56.257624 68.531645 
L 54.701677 69.077583 
z
" style="fill:#821580;fill-opacity:0.15;stroke:#ffffff;stroke-width:0.2;"/>
    <path clip-path="url(#p58fca331bb)" d="M 68.224946 54.853218 
L 70.051739 53.649685 
L 70.058132 66.375618 
L 68.260662 66.420861 
z
" style="fill:#821580;fill-opacity:0.15;stroke:#ffffff;stroke-width:0.2;"/>
    <path clip-path="url(#p58fca331bb)" d="M 53.10045 65.525843 
L 54.594425 64.347555 
L 54.701677 69.077583 
L 53.20372 69.680077 
z
" style="fill:#821580;fill-opacity:0.15;stroke:#ffffff;stroke-width:0.2;"/>
    <path clip-path="url(#p58fca331bb)" d="M 70.051739 53.649685 
L 71.885935 52.442617 
L 71.856851 66.395842 
L 70.058132 66.375618 
z
" style="fill:#821580;fill-opacity:0.15;stroke:#ffffff;stroke-width:0.2;"/>
    <path clip-path="url(#p58fca331bb)" d="M 51.671606 66.704877 
L 53.10045 65.525843 
L 53.20372 69.680077 
L 51.769519 70.337094 
z
" style="fill:#821580;fill-opacity:0.15;stroke:#ffffff;stroke-width:0.2;"/>
    <path clip-path="url(#p58fca331bb)" d="M 71.885935 52.442617 
L 73.721405 51.233084 
L 73.650283 66.481467 
L 71.856851 66.395842 
z
" style="fill:#821580;fill-opacity:0.15;stroke:#ffffff;stroke-width:0.2;"/>
    <path clip-path="url(#p58fca331bb)" d="M 50.313122 67.885379 
L 51.671606 66.704877 
L 51.769519 70.337094 
L 50.404667 71.046401 
z
" style="fill:#821580;fill-opacity:0.15;stroke:#ffffff;stroke-width:0.2;"/>
    <path clip-path="url(#p58fca331bb)" d="M 73.721405 51.233084 
L 75.551966 50.02269 
L 75.431907 66.632216 
L 73.650283 66.481467 
z
" style="fill:#821580;fill-opacity:0.15;stroke:#ffffff;stroke-width:0.2;"/>
    <path clip-path="url(#p58fca331bb)" d="M 49.030077 69.067949 
L 50.313122 67.885379 
L 50.404667 71.046401 
L 49.114567 71.805567 
z
" style="fill:#821580;fill-opacity:0.15;stroke:#ffffff;stroke-width:0.2;"/>
    <path clip-path="url(#p58fca331bb)" d="M 75.551966 50.02269 
L 77.371385 48.813646 
L 77.195228 66.847599 
L 75.431907 66.632216 
z
" style="fill:#821580;fill-opacity:0.15;stroke:#ffffff;stroke-width:0.2;"/>
    <path clip-path="url(#p58fca331bb)" d="M 47.827376 70.253037 
L 49.030077 69.067949 
L 49.114567 71.805567 
L 47.904406 72.611962 
z
" style="fill:#821580;fill-opacity:0.15;stroke:#ffffff;stroke-width:0.2;"/>
    <path clip-path="url(#p58fca331bb)" d="M 77.371385 48.813646 
L 79.173381 47.608842 
L 78.933797 67.126916 
L 77.195228 66.847599 
z
" style="fill:#821580;fill-opacity:0.15;stroke:#ffffff;stroke-width:0.2;"/>
    <path clip-path="url(#p58fca331bb)" d="M 46.709732 71.440911 
L 47.827376 70.253037 
L 47.904406 72.611962 
L 46.779142 73.462766 
z
" style="fill:#821580;fill-opacity:0.15;stroke:#ffffff;stroke-width:0.2;"/>
    <path clip-path="url(#p58fca331bb)" d="M 79.173381 47.608842 
L 80.95162 46.411925 
L 80.641227 67.469253 
L 78.933797 67.126916 
z
" style="fill:#821580;fill-opacity:0.15;stroke:#ffffff;stroke-width:0.2;"/>
    <path clip-path="url(#p58fca331bb)" d="M 45.681644 72.631638 
L 46.709732 71.440911 
L 46.779142 73.462766 
L 45.743479 74.354973 
z
" style="fill:#821580;fill-opacity:0.15;stroke:#ffffff;stroke-width:0.2;"/>
    <path clip-path="url(#p58fca331bb)" d="M 44.747375 73.82506 
L 45.681644 72.631638 
L 45.743479 74.354973 
L 44.801848 75.285394 
z
" style="fill:#821580;fill-opacity:0.15;stroke:#ffffff;stroke-width:0.2;"/>
    <path clip-path="url(#p58fca331bb)" d="M 80.95162 46.411925 
L 82.699719 45.22737 
L 82.311208 67.873489 
L 80.641227 67.469253 
z
" style="fill:#821580;fill-opacity:0.15;stroke:#ffffff;stroke-width:0.2;"/>
    <path clip-path="url(#p58fca331bb)" d="M 43.91093 75.020779 
L 44.747375 73.82506 
L 44.801848 75.285394 
L 43.958384 76.250667 
z
" style="fill:#821580;fill-opacity:0.15;stroke:#ffffff;stroke-width:0.2;"/>
    <path clip-path="url(#p58fca331bb)" d="M 82.699719 45.22737 
L 84.411246 44.060555 
L 83.937523 68.33829 
L 82.311208 67.873489 
z
" style="fill:#821580;fill-opacity:0.15;stroke:#ffffff;stroke-width:0.2;"/>
    <path clip-path="url(#p58fca331bb)" d="M 43.176028 76.218142 
L 43.91093 75.020779 
L 43.958384 76.250667 
L 43.216909 77.24726 
z
" style="fill:#821580;fill-opacity:0.15;stroke:#ffffff;stroke-width:0.2;"/>
    <path clip-path="url(#p58fca331bb)" d="M 84.411246 44.060555 
L 86.079726 42.917821 
L 85.514068 68.862117 
L 83.937523 68.33829 
z
" style="fill:#821580;fill-opacity:0.15;stroke:#ffffff;stroke-width:0.2;"/>
    <path clip-path="url(#p58fca331bb)" d="M 42.546083 77.416234 
L 43.176028 76.218142 
L 43.216909 77.24726 
L 42.580903 78.271483 
z
" style="fill:#821580;fill-opacity:0.15;stroke:#ffffff;stroke-width:0.2;"/>
    <path clip-path="url(#p58fca331bb)" d="M 86.079726 42.917821 
L 87.698643 41.806542 
L 87.034869 69.443221 
L 85.514068 68.862117 
z
" style="fill:#821580;fill-opacity:0.15;stroke:#ffffff;stroke-width:0.2;"/>
    <path clip-path="url(#p58fca331bb)" d="M 42.024176 78.613874 
L 42.546083 77.416234 
L 42.580903 78.271483 
L 42.053494 79.319498 
z
" style="fill:#821580;fill-opacity:0.15;stroke:#ffffff;stroke-width:0.2;"/>
    <path clip-path="url(#p58fca331bb)" d="M 87.698643 41.806542 
L 89.261447 40.735172 
L 88.494097 70.079649 
L 87.034869 69.443221 
z
" style="fill:#821580;fill-opacity:0.15;stroke:#ffffff;stroke-width:0.2;"/>
    <path clip-path="url(#p58fca331bb)" d="M 41.613032 79.809608 
L 42.024176 78.613874 
L 42.053494 79.319498 
L 41.637426 80.387327 
z
" style="fill:#821580;fill-opacity:0.15;stroke:#ffffff;stroke-width:0.2;"/>
    <path clip-path="url(#p58fca331bb)" d="M 41.314996 81.001716 
L 41.613032 79.809608 
L 41.637426 80.387327 
L 41.335046 81.470863 
z
" style="fill:#821580;fill-opacity:0.15;stroke:#ffffff;stroke-width:0.2;"/>
    <path clip-path="url(#p58fca331bb)" d="M 89.261447 40.735172 
L 90.76157 39.713288 
L 89.886091 70.769245 
L 88.494097 70.079649 
z
" style="fill:#821580;fill-opacity:0.15;stroke:#ffffff;stroke-width:0.2;"/>
    <path clip-path="url(#p58fca331bb)" d="M 41.13201 82.188213 
L 41.314996 81.001716 
L 41.335046 81.470863 
L 41.148281 82.565888 
z
" style="fill:#821580;fill-opacity:0.15;stroke:#ffffff;stroke-width:0.2;"/>
    <path clip-path="url(#p58fca331bb)" d="M 90.76157 39.713288 
L 92.192438 38.751619 
L 91.205373 71.509652 
L 89.886091 70.769245 
z
" style="fill:#821580;fill-opacity:0.15;stroke:#ffffff;stroke-width:0.2;"/>
    <path clip-path="url(#p58fca331bb)" d="M 41.065593 83.366862 
L 41.13201 82.188213 
L 41.148281 82.565888 
L 41.078622 83.668081 
z
" style="fill:#821580;fill-opacity:0.15;stroke:#ffffff;stroke-width:0.2;"/>
    <path clip-path="url(#p58fca331bb)" d="M 92.192438 38.751619 
L 93.547493 37.862055 
L 92.446672 72.298316 
L 91.205373 71.509652 
z
" style="fill:#821580;fill-opacity:0.15;stroke:#ffffff;stroke-width:0.2;"/>
    <path clip-path="url(#p58fca331bb)" d="M 41.116815 84.535183 
L 41.065593 83.366862 
L 41.078622 83.668081 
L 41.127103 84.773038 
z
" style="fill:#821580;fill-opacity:0.15;stroke:#ffffff;stroke-width:0.2;"/>
    <path clip-path="url(#p58fca331bb)" d="M 41.286284 85.690471 
L 41.116815 84.535183 
L 41.127103 84.773038 
L 41.294288 85.876286 
z
" style="fill:#821580;fill-opacity:0.15;stroke:#ffffff;stroke-width:0.2;"/>
    <path clip-path="url(#p58fca331bb)" d="M 93.547493 37.862055 
L 94.820217 37.057631 
L 93.604939 73.13249 
L 92.446672 72.298316 
z
" style="fill:#821580;fill-opacity:0.15;stroke:#ffffff;stroke-width:0.2;"/>
    <path clip-path="url(#p58fca331bb)" d="M 41.574123 86.82981 
L 41.286284 85.690471 
L 41.294288 85.876286 
L 41.580253 86.973302 
z
" style="fill:#821580;fill-opacity:0.15;stroke:#ffffff;stroke-width:0.2;"/>
    <path clip-path="url(#p58fca331bb)" d="M 94.820217 37.057631 
L 96.004168 36.352496 
L 94.675371 74.009238 
L 93.604939 73.13249 
z
" style="fill:#821580;fill-opacity:0.15;stroke:#ffffff;stroke-width:0.2;"/>
    <path clip-path="url(#p58fca331bb)" d="M 41.979962 87.950101 
L 41.574123 86.82981 
L 41.580253 86.973302 
L 41.984579 88.05953 
z
" style="fill:#821580;fill-opacity:0.15;stroke:#ffffff;stroke-width:0.2;"/>
    <path clip-path="url(#p58fca331bb)" d="M 96.004168 36.352496 
L 97.093015 35.761837 
L 95.653431 74.92544 
L 94.675371 74.009238 
z
" style="fill:#821580;fill-opacity:0.15;stroke:#ffffff;stroke-width:0.2;"/>
    <path clip-path="url(#p58fca331bb)" d="M 42.50292 89.04808 
L 41.979962 87.950101 
L 41.984579 88.05953 
L 42.506335 89.130406 
z
" style="fill:#821580;fill-opacity:0.15;stroke:#ffffff;stroke-width:0.2;"/>
    <path clip-path="url(#p58fca331bb)" d="M 43.141595 90.120349 
L 42.50292 89.04808 
L 42.506335 89.130406 
L 43.144072 90.181373 
z
" style="fill:#821580;fill-opacity:0.15;stroke:#ffffff;stroke-width:0.2;"/>
    <path clip-path="url(#p58fca331bb)" d="M 97.093015 35.761837 
L 98.080587 35.301778 
L 96.534867 75.877798 
L 95.653431 74.92544 
z
" style="fill:#821580;fill-opacity:0.15;stroke:#ffffff;stroke-width:0.2;"/>
    <path clip-path="url(#p58fca331bb)" d="M 43.894062 91.163399 
L 43.141595 90.120349 
L 43.144072 90.181373 
L 43.895822 91.207905 
z
" style="fill:#821580;fill-opacity:0.15;stroke:#ffffff;stroke-width:0.2;"/>
    <path clip-path="url(#p58fca331bb)" d="M 98.080587 35.301778 
L 98.960924 34.989234 
L 97.315736 76.862846 
L 96.534867 75.877798 
z
" style="fill:#821580;fill-opacity:0.15;stroke:#ffffff;stroke-width:0.2;"/>
    <path clip-path="url(#p58fca331bb)" d="M 44.757866 92.173646 
L 43.894062 91.163399 
L 43.895822 91.207905 
L 44.759087 92.205531 
z
" style="fill:#821580;fill-opacity:0.15;stroke:#ffffff;stroke-width:0.2;"/>
    <path clip-path="url(#p58fca331bb)" d="M 45.730022 93.147462 
L 44.757866 92.173646 
L 44.759087 92.205531 
L 45.730849 93.169858 
z
" style="fill:#821580;fill-opacity:0.15;stroke:#ffffff;stroke-width:0.2;"/>
    <path clip-path="url(#p58fca331bb)" d="M 98.960924 34.989234 
L 99.728343 34.841722 
L 97.992424 77.876953 
L 97.315736 76.862846 
z
" style="fill:#821580;fill-opacity:0.15;stroke:#ffffff;stroke-width:0.2;"/>
    <path clip-path="url(#p58fca331bb)" d="M 46.807021 94.081203 
L 45.730022 93.147462 
L 45.730849 93.169858 
L 46.807565 94.096592 
z
" style="fill:#821580;fill-opacity:0.15;stroke:#ffffff;stroke-width:0.2;"/>
    <path clip-path="url(#p58fca331bb)" d="M 47.984833 94.971247 
L 46.807021 94.081203 
L 46.807565 94.096592 
L 47.98518 94.981565 
z
" style="fill:#821580;fill-opacity:0.15;stroke:#ffffff;stroke-width:0.2;"/>
    <path clip-path="url(#p58fca331bb)" d="M 99.728343 34.841722 
L 100.377501 34.877124 
L 98.561666 78.916336 
L 97.992424 77.876953 
z
" style="fill:#821580;fill-opacity:0.15;stroke:#ffffff;stroke-width:0.2;"/>
    <path clip-path="url(#p58fca331bb)" d="M 49.258923 95.814029 
L 47.984833 94.971247 
L 47.98518 94.981565 
L 49.259136 95.820758 
z
" style="fill:#821580;fill-opacity:0.15;stroke:#ffffff;stroke-width:0.2;"/>
    <path clip-path="url(#p58fca331bb)" d="M 100.377501 34.877124 
L 100.903477 35.113393 
L 99.020571 79.977069 
L 98.561666 78.916336 
z
" style="fill:#821580;fill-opacity:0.15;stroke:#ffffff;stroke-width:0.2;"/>
    <path clip-path="url(#p58fca331bb)" d="M 50.62426 96.606072 
L 49.258923 95.814029 
L 49.259136 95.820758 
L 50.624386 96.610324 
z
" style="fill:#821580;fill-opacity:0.15;stroke:#ffffff;stroke-width:0.2;"/>
    <path clip-path="url(#p58fca331bb)" d="M 52.075341 97.344021 
L 50.62426 96.606072 
L 50.624386 96.610324 
L 52.075412 97.346612 
z
" style="fill:#821580;fill-opacity:0.15;stroke:#ffffff;stroke-width:0.2;"/>
    <path clip-path="url(#p58fca331bb)" d="M 100.903477 35.113393 
L 101.301846 35.568214 
L 99.366635 81.055093 
L 99.020571 79.977069 
z
" style="fill:#821580;fill-opacity:0.15;stroke:#ffffff;stroke-width:0.2;"/>
    <path clip-path="url(#p58fca331bb)" d="M 53.60621 98.024675 
L 52.075341 97.344021 
L 52.075412 97.346612 
L 53.606248 98.02619 
z
" style="fill:#821580;fill-opacity:0.15;stroke:#ffffff;stroke-width:0.2;"/>
    <path clip-path="url(#p58fca331bb)" d="M 55.210485 98.645023 
L 53.60621 98.024675 
L 53.606248 98.02619 
L 55.210504 98.645866 
z
" style="fill:#821580;fill-opacity:0.15;stroke:#ffffff;stroke-width:0.2;"/>
    <path clip-path="url(#p58fca331bb)" d="M 101.301846 35.568214 
L 101.568772 36.258599 
L 99.59777 82.146232 
L 99.366635 81.055093 
z
" style="fill:#821580;fill-opacity:0.15;stroke:#ffffff;stroke-width:0.2;"/>
    <path clip-path="url(#p58fca331bb)" d="M 56.881387 99.202268 
L 55.210485 98.645023 
L 55.210504 98.645866 
L 56.881396 99.202711 
z
" style="fill:#821580;fill-opacity:0.15;stroke:#ffffff;stroke-width:0.2;"/>
    <path clip-path="url(#p58fca331bb)" d="M 58.611774 99.693858 
L 56.881387 99.202268 
L 56.881396 99.202711 
L 58.611778 99.694074 
z
" style="fill:#821580;fill-opacity:0.15;stroke:#ffffff;stroke-width:0.2;"/>
    <path clip-path="url(#p58fca331bb)" d="M 60.394177 100.117509 
L 58.611774 99.693858 
L 58.611778 99.694074 
L 60.394178 100.117606 
z
" style="fill:#821580;fill-opacity:0.15;stroke:#ffffff;stroke-width:0.2;"/>
    <path clip-path="url(#p58fca331bb)" d="M 101.568772 36.258599 
L 101.70109 37.200436 
L 99.712316 83.246201 
L 99.59777 82.146232 
z
" style="fill:#821580;fill-opacity:0.15;stroke:#ffffff;stroke-width:0.2;"/>
    <path clip-path="url(#p58fca331bb)" d="M 62.220834 100.471232 
L 60.394177 100.117509 
L 60.394178 100.117606 
L 62.220835 100.471271 
z
" style="fill:#821580;fill-opacity:0.15;stroke:#ffffff;stroke-width:0.2;"/>
    <path clip-path="url(#p58fca331bb)" d="M 64.083741 100.753349 
L 62.220834 100.471232 
L 62.220835 100.471271 
L 64.083741 100.753362 
z
" style="fill:#821580;fill-opacity:0.15;stroke:#ffffff;stroke-width:0.2;"/>
    <path clip-path="url(#p58fca331bb)" d="M 65.974686 100.96251 
L 64.083741 100.753349 
L 64.083741 100.753362 
L 65.974686 100.962514 
z
" style="fill:#821580;fill-opacity:0.15;stroke:#ffffff;stroke-width:0.2;"/>
    <path clip-path="url(#p58fca331bb)" d="M 77.440561 100.168293 
L 75.554184 100.89125 
L 75.554184 100.89125 
L 77.435397 100.654078 
z
" style="fill:#821580;fill-opacity:0.15;stroke:#ffffff;stroke-width:0.2;"/>
    <path clip-path="url(#p58fca331bb)" d="M 79.309735 98.53251 
L 77.440561 100.168293 
L 77.435397 100.654078 
L 79.285413 100.344448 
z
" style="fill:#821580;fill-opacity:0.15;stroke:#ffffff;stroke-width:0.2;"/>
    <path clip-path="url(#p58fca331bb)" d="M 75.554184 100.89125 
L 73.650088 101.054813 
L 73.650088 101.054813 
L 75.554184 100.89125 
z
" style="fill:#821580;fill-opacity:0.15;stroke:#ffffff;stroke-width:0.2;"/>
    <path clip-path="url(#p58fca331bb)" d="M 67.885301 101.097709 
L 65.974686 100.96251 
L 65.974686 100.962514 
L 67.885301 101.09771 
z
" style="fill:#821580;fill-opacity:0.15;stroke:#ffffff;stroke-width:0.2;"/>
    <path clip-path="url(#p58fca331bb)" d="M 73.650088 101.054813 
L 71.731553 101.143973 
L 71.731553 101.143973 
L 73.650088 101.054813 
z
" style="fill:#821580;fill-opacity:0.15;stroke:#ffffff;stroke-width:0.2;"/>
    <path clip-path="url(#p58fca331bb)" d="M 69.807104 101.158295 
L 67.885301 101.097709 
L 67.885301 101.09771 
L 69.807104 101.158295 
z
" style="fill:#821580;fill-opacity:0.15;stroke:#ffffff;stroke-width:0.2;"/>
    <path clip-path="url(#p58fca331bb)" d="M 71.731553 101.143973 
L 69.807104 101.158295 
L 69.807104 101.158295 
L 71.731553 101.143973 
z
" style="fill:#821580;fill-opacity:0.15;stroke:#ffffff;stroke-width:0.2;"/>
    <path clip-path="url(#p58fca331bb)" d="M 81.157509 96.161424 
L 79.309735 98.53251 
L 79.285413 100.344448 
L 81.096094 99.963857 
z
" style="fill:#821580;fill-opacity:0.15;stroke:#ffffff;stroke-width:0.2;"/>
    <path clip-path="url(#p58fca331bb)" d="M 101.70109 37.200436 
L 101.696397 38.407979 
L 99.709062 84.350626 
L 99.712316 83.246201 
z
" style="fill:#821580;fill-opacity:0.15;stroke:#ffffff;stroke-width:0.2;"/>
    <path clip-path="url(#p58fca331bb)" d="M 82.97807 93.209503 
L 81.157509 96.161424 
L 81.096094 99.963857 
L 82.859521 99.514138 
z
" style="fill:#821580;fill-opacity:0.15;stroke:#ffffff;stroke-width:0.2;"/>
    <path clip-path="url(#p58fca331bb)" d="M 84.764297 89.812253 
L 82.97807 93.209503 
L 82.859521 99.514138 
L 84.56804 98.997451 
z
" style="fill:#821580;fill-opacity:0.15;stroke:#ffffff;stroke-width:0.2;"/>
    <path clip-path="url(#p58fca331bb)" d="M 101.696397 38.407979 
L 101.553136 39.893298 
L 99.587264 85.455059 
L 99.709062 84.350626 
z
" style="fill:#821580;fill-opacity:0.15;stroke:#ffffff;stroke-width:0.2;"/>
    <path clip-path="url(#p58fca331bb)" d="M 86.50805 86.08917 
L 84.764297 89.812253 
L 84.56804 98.997451 
L 86.214298 98.41626 
z
" style="fill:#821580;fill-opacity:0.15;stroke:#ffffff;stroke-width:0.2;"/>
    <path clip-path="url(#p58fca331bb)" d="M 101.553136 39.893298 
L 101.270672 41.66568 
L 99.346656 86.554993 
L 99.587264 85.455059 
z
" style="fill:#821580;fill-opacity:0.15;stroke:#ffffff;stroke-width:0.2;"/>
    <path clip-path="url(#p58fca331bb)" d="M 88.20044 82.145857 
L 86.50805 86.08917 
L 86.214298 98.41626 
L 87.791283 97.773326 
z
" style="fill:#821580;fill-opacity:0.15;stroke:#ffffff;stroke-width:0.2;"/>
    <path clip-path="url(#p58fca331bb)" d="M 101.270672 41.66568 
L 100.849364 43.731008 
L 98.987467 87.645884 
L 99.346656 86.554993 
z
" style="fill:#821580;fill-opacity:0.15;stroke:#ffffff;stroke-width:0.2;"/>
    <path clip-path="url(#p58fca331bb)" d="M 89.832089 78.075555 
L 88.20044 82.145857 
L 87.791283 97.773326 
L 89.292359 97.07168 
z
" style="fill:#821580;fill-opacity:0.15;stroke:#ffffff;stroke-width:0.2;"/>
    <path clip-path="url(#p58fca331bb)" d="M 100.849364 43.731008 
L 100.290616 46.091111 
L 98.510433 88.723168 
L 98.987467 87.645884 
z
" style="fill:#821580;fill-opacity:0.15;stroke:#ffffff;stroke-width:0.2;"/>
    <path clip-path="url(#p58fca331bb)" d="M 91.393386 73.960256 
L 89.832089 78.075555 
L 89.292359 97.07168 
L 90.711294 96.314609 
z
" style="fill:#821580;fill-opacity:0.15;stroke:#ffffff;stroke-width:0.2;"/>
    <path clip-path="url(#p58fca331bb)" d="M 92.874719 69.871542 
L 91.393386 73.960256 
L 90.711294 96.314609 
L 92.042291 95.505631 
z
" style="fill:#821580;fill-opacity:0.15;stroke:#ffffff;stroke-width:0.2;"/>
    <path clip-path="url(#p58fca331bb)" d="M 100.290616 46.091111 
L 99.596917 48.743111 
L 97.916802 89.782281 
L 98.510433 88.723168 
z
" style="fill:#821580;fill-opacity:0.15;stroke:#ffffff;stroke-width:0.2;"/>
    <path clip-path="url(#p58fca331bb)" d="M 94.266698 65.871235 
L 92.874719 69.871542 
L 92.042291 95.505631 
L 93.280009 94.648475 
z
" style="fill:#821580;fill-opacity:0.15;stroke:#ffffff;stroke-width:0.2;"/>
    <path clip-path="url(#p58fca331bb)" d="M 99.596917 48.743111 
L 98.771851 51.678775 
L 97.208345 90.818684 
L 97.916802 89.782281 
z
" style="fill:#821580;fill-opacity:0.15;stroke:#ffffff;stroke-width:0.2;"/>
    <path clip-path="url(#p58fca331bb)" d="M 95.560364 62.01195 
L 94.266698 65.871235 
L 93.280009 94.648475 
L 94.419587 93.747055 
z
" style="fill:#821580;fill-opacity:0.15;stroke:#ffffff;stroke-width:0.2;"/>
    <path clip-path="url(#p58fca331bb)" d="M 98.771851 51.678775 
L 97.82009 54.883877 
L 96.387356 91.827883 
L 97.208345 90.818684 
z
" style="fill:#821580;fill-opacity:0.15;stroke:#ffffff;stroke-width:0.2;"/>
    <path clip-path="url(#p58fca331bb)" d="M 96.747359 58.337599 
L 95.560364 62.01195 
L 94.419587 93.747055 
L 95.456656 92.805452 
z
" style="fill:#821580;fill-opacity:0.15;stroke:#ffffff;stroke-width:0.2;"/>
    <path clip-path="url(#p58fca331bb)" d="M 97.82009 54.883877 
L 96.747359 58.337599 
L 95.456656 92.805452 
L 96.387356 91.827883 
z
" style="fill:#821580;fill-opacity:0.15;stroke:#ffffff;stroke-width:0.2;"/>
   </g>
   <g id="line2d_1">
    <path clip-path="url(#p58fca331bb)" d="M 75.554184 100.89125 
L 73.650088 101.054813 
L 71.731553 101.143973 
L 69.807104 101.158295 
L 67.885301 101.09771 
L 65.974686 100.962514 
L 64.083741 100.753362 
L 62.220835 100.471271 
L 60.394178 100.117606 
L 58.611778 99.694074 
L 56.881396 99.202711 
L 55.210504 98.645866 
L 53.606248 98.02619 
L 52.075412 97.346612 
L 50.624386 96.610324 
L 49.259136 95.820758 
L 47.98518 94.981565 
L 46.807565 94.096592 
L 45.730849 93.169858 
L 44.759087 92.205531 
L 43.895822 91.207905 
L 43.144072 90.181373 
L 42.506335 89.130406 
L 41.984579 88.05953 
L 41.580253 86.973302 
L 41.294288 85.876286 
L 41.127103 84.773038 
L 41.078622 83.668081 
L 41.148281 82.565888 
L 41.335046 81.470863 
L 41.637426 80.387327 
L 42.053494 79.319498 
L 42.580903 78.271483 
L 43.216909 77.24726 
L 43.958384 76.250667 
L 44.801848 75.285394 
L 45.743479 74.354973 
L 46.779142 73.462766 
L 47.904406 72.611962 
L 49.114567 71.805567 
L 50.404667 71.046401 
L 51.769519 70.337094 
L 53.20372 69.680077 
L 54.701677 69.077583 
L 56.257624 68.531645 
L 57.865639 68.044087 
L 59.519666 67.616532 
L 61.21353 67.25039 
L 62.940953 66.946865 
L 64.695576 66.706949 
L 66.470972 66.531424 
L 68.260662 66.420861 
L 70.058132 66.375618 
L 71.856851 66.395842 
L 73.650283 66.481467 
L 75.431907 66.632216 
L 77.195228 66.847599 
L 78.933797 67.126916 
L 80.641227 67.469253 
L 82.311208 67.873489 
L 83.937523 68.33829 
L 85.514068 68.862117 
L 87.034869 69.443221 
L 88.494097 70.079649 
L 89.886091 70.769245 
L 91.205373 71.509652 
L 92.446672 72.298316 
L 93.604939 73.13249 
L 94.675371 74.009238 
L 95.653431 74.92544 
L 96.534867 75.877798 
L 97.315736 76.862846 
L 97.992424 77.876953 
L 98.561666 78.916336 
L 99.020571 79.977069 
L 99.366635 81.055093 
L 99.59777 82.146232 
L 99.712316 83.246201 
L 99.709062 84.350626 
L 99.587264 85.455059 
L 99.346656 86.554993 
L 98.987467 87.645884 
L 98.510433 88.723168 
L 97.916802 89.782281 
L 97.208345 90.818684 
L 96.387356 91.827883 
L 95.456656 92.805452 
L 94.419587 93.747055 
L 93.280009 94.648475 
L 92.042291 95.505631 
L 90.711294 96.314609 
L 89.292359 97.07168 
L 87.791283 97.773326 
L 86.214298 98.41626 
L 84.56804 98.997451 
L 82.859521 99.514138 
L 81.096094 99.963857 
L 79.285413 100.344448 
L 77.435397 100.654078 
L 75.554184 100.89125 
" style="fill:none;stroke:#000000;stroke-dasharray:3.7,1.6;stroke-dashoffset:0;"/>
   </g>
   <g id="line2d_2">
    <path clip-path="url(#p58fca331bb)" d="M 75.554184 100.89125 
L 73.650088 101.054813 
L 71.731553 101.143973 
L 69.807104 101.158295 
L 67.885301 101.097709 
L 65.974686 100.96251 
L 64.083741 100.753349 
L 62.220834 100.471232 
L 60.394177 100.117509 
L 58.611774 99.693858 
L 56.881387 99.202268 
L 55.210485 98.645023 
L 53.60621 98.024675 
L 52.075341 97.344021 
L 50.62426 96.606072 
L 49.258923 95.814029 
L 47.984833 94.971247 
L 46.807021 94.081203 
L 45.730022 93.147462 
L 44.757866 92.173646 
L 43.894062 91.163399 
L 43.141595 90.120349 
L 42.50292 89.04808 
L 41.979962 87.950101 
L 41.574123 86.82981 
L 41.286284 85.690471 
L 41.116815 84.535183 
L 41.065593 83.366862 
L 41.13201 82.188213 
L 41.314996 81.001716 
L 41.613032 79.809608 
L 42.024176 78.613874 
L 42.546083 77.416234 
L 43.176028 76.218142 
L 43.91093 75.020779 
L 44.747375 73.82506 
L 45.681644 72.631638 
L 46.709732 71.440911 
L 47.827376 70.253037 
L 49.030077 69.067949 
L 50.313122 67.885379 
L 51.671606 66.704877 
L 53.10045 65.525843 
L 54.594425 64.347555 
L 56.148164 63.169209 
L 57.756181 61.989952 
L 59.412884 60.808928 
L 61.112585 59.625324 
L 62.849517 58.438419 
L 64.617838 57.247638 
L 66.411637 56.052608 
L 68.224946 54.853218 
L 70.051739 53.649685 
L 71.885935 52.442617 
L 73.721405 51.233084 
L 75.551966 50.02269 
L 77.371385 48.813646 
L 79.173381 47.608842 
L 80.95162 46.411925 
L 82.699719 45.22737 
L 84.411246 44.060555 
L 86.079726 42.917821 
L 87.698643 41.806542 
L 89.261447 40.735172 
L 90.76157 39.713288 
L 92.192438 38.751619 
L 93.547493 37.862055 
L 94.820217 37.057631 
L 96.004168 36.352496 
L 97.093015 35.761837 
L 98.080587 35.301778 
L 98.960924 34.989234 
L 99.728343 34.841722 
L 100.377501 34.877124 
L 100.903477 35.113393 
L 101.301846 35.568214 
L 101.568772 36.258599 
L 101.70109 37.200436 
L 101.696397 38.407979 
L 101.553136 39.893298 
L 101.270672 41.66568 
L 100.849364 43.731008 
L 100.290616 46.091111 
L 99.596917 48.743111 
L 98.771851 51.678775 
L 97.82009 54.883877 
L 96.747359 58.337599 
L 95.560364 62.01195 
L 94.266698 65.871235 
L 92.874719 69.871542 
L 91.393386 73.960256 
L 89.832089 78.075555 
L 88.20044 82.145857 
L 86.50805 86.08917 
L 84.764297 89.812253 
L 82.97807 93.209503 
L 81.157509 96.161424 
L 79.309735 98.53251 
L 77.440561 100.168293 
L 75.554184 100.89125 
" style="fill:none;stroke:#821580;stroke-linecap:round;stroke-width:1.5;"/>
   </g>
   <g id="text_1">
    <!-- $0$° -->
    <defs>
     <path d="M 31.78125 66.40625 
Q 24.171875 66.40625 20.328125 58.90625 
Q 16.5 51.421875 16.5 36.375 
Q 16.5 21.390625 20.328125 13.890625 
Q 24.171875 6.390625 31.78125 6.390625 
Q 39.453125 6.390625 43.28125 13.890625 
Q 47.125 21.390625 47.125 36.375 
Q 47.125 51.421875 43.28125 58.90625 
Q 39.453125 66.40625 31.78125 66.40625 
z
M 31.78125 74.21875 
Q 44.046875 74.21875 50.515625 64.515625 
Q 56.984375 54.828125 56.984375 36.375 
Q 56.984375 17.96875 50.515625 8.265625 
Q 44.046875 -1.421875 31.78125 -1.421875 
Q 19.53125 -1.421875 13.0625 8.265625 
Q 6.59375 17.96875 6.59375 36.375 
Q 6.59375 54.828125 13.0625 64.515625 
Q 19.53125 74.21875 31.78125 74.21875 
z
" id="DejaVuSans-48"/>
     <path d="M 6.25 59.28125 
Q 6.25 64.890625 10.21875 68.84375 
Q 14.203125 72.796875 19.78125 72.796875 
Q 25.4375 72.796875 29.390625 68.84375 
Q 33.34375 64.890625 33.34375 59.28125 
Q 33.34375 53.65625 29.359375 49.671875 
Q 25.390625 45.703125 19.78125 45.703125 
Q 14.203125 45.703125 10.21875 49.65625 
Q 6.25 53.609375 6.25 59.28125 
z
M 11.578125 59.28125 
Q 11.578125 55.859375 13.984375 53.4375 
Q 16.40625 51.03125 19.828125 51.03125 
Q 23.1875 51.03125 25.609375 53.4375 
Q 28.03125 55.859375 28.03125 59.28125 
Q 28.03125 62.703125 25.609375 65.109375 
Q 23.1875 67.53125 19.828125 67.53125 
Q 16.40625 67.53125 13.984375 65.109375 
Q 11.578125 62.703125 11.578125 59.28125 
z
" id="ArialMT-176"/>
    </defs>
    <g style="fill:#cccccc;" transform="translate(33.813672 14.357812)scale(0.1 -0.1)">
     <use transform="translate(0 0.78125)" xlink:href="#DejaVuSans-48"/>
     <use transform="translate(63.623047 0.78125)" xlink:href="#ArialMT-176"/>
    </g>
   </g>
  </g>
  <g id="patch_3">
   <path d="M 154.905882 117.201056 
L 277.994118 117.201056 
L 277.994118 8.481056 
L 154.905882 8.481056 
z
" style="fill:none;"/>
  </g>
  <g id="axes_2">
   <g id="Poly3DCollection_2">
    <path clip-path="url(#pf336ffa556)" d="M 217.771565 66.339174 
L 219.570284 66.346888 
L 219.570191 66.390851 
L 217.771581 66.370656 
z
" style="fill:#821580;fill-opacity:0.15;stroke:#ffffff;stroke-width:0.2;"/>
    <path clip-path="url(#pf336ffa556)" d="M 215.974148 66.393825 
L 217.771565 66.339174 
L 217.771581 66.370656 
L 215.974216 66.41593 
z
" style="fill:#821580;fill-opacity:0.15;stroke:#ffffff;stroke-width:0.2;"/>
    <path clip-path="url(#pf336ffa556)" d="M 219.570284 66.346888 
L 221.363795 66.41614 
L 221.363513 66.476449 
L 219.570191 66.390851 
z
" style="fill:#821580;fill-opacity:0.15;stroke:#ffffff;stroke-width:0.2;"/>
    <path clip-path="url(#pf336ffa556)" d="M 214.184544 66.511341 
L 215.974148 66.393825 
L 215.974216 66.41593 
L 214.18463 66.526526 
z
" style="fill:#821580;fill-opacity:0.15;stroke:#ffffff;stroke-width:0.2;"/>
    <path clip-path="url(#pf336ffa556)" d="M 221.363795 66.41614 
L 223.145613 66.545769 
L 223.145024 66.627173 
L 221.363513 66.476449 
z
" style="fill:#821580;fill-opacity:0.15;stroke:#ffffff;stroke-width:0.2;"/>
    <path clip-path="url(#pf336ffa556)" d="M 212.40925 66.691907 
L 214.184544 66.511341 
L 214.18463 66.526526 
L 212.409334 66.702085 
z
" style="fill:#821580;fill-opacity:0.15;stroke:#ffffff;stroke-width:0.2;"/>
    <path clip-path="url(#pf336ffa556)" d="M 223.145613 66.545769 
L 224.90929 66.734266 
L 224.908231 66.842534 
L 223.145024 66.627173 
z
" style="fill:#821580;fill-opacity:0.15;stroke:#ffffff;stroke-width:0.2;"/>
    <path clip-path="url(#pf336ffa556)" d="M 210.654735 66.935401 
L 212.40925 66.691907 
L 212.409334 66.702085 
L 210.654806 66.942038 
z
" style="fill:#821580;fill-opacity:0.15;stroke:#ffffff;stroke-width:0.2;"/>
    <path clip-path="url(#pf336ffa556)" d="M 224.90929 66.734266 
L 226.648431 66.979771 
L 226.646686 67.121829 
L 224.908231 66.842534 
z
" style="fill:#821580;fill-opacity:0.15;stroke:#ffffff;stroke-width:0.2;"/>
    <path clip-path="url(#pf336ffa556)" d="M 208.927419 67.241408 
L 210.654735 66.935401 
L 210.654806 66.942038 
L 208.927474 67.245601 
z
" style="fill:#821580;fill-opacity:0.15;stroke:#ffffff;stroke-width:0.2;"/>
    <path clip-path="url(#pf336ffa556)" d="M 226.648431 66.979771 
L 228.356716 67.280063 
L 228.354001 67.464149 
L 226.646686 67.121829 
z
" style="fill:#821580;fill-opacity:0.15;stroke:#ffffff;stroke-width:0.2;"/>
    <path clip-path="url(#pf336ffa556)" d="M 207.233658 67.609226 
L 208.927419 67.241408 
L 208.927474 67.245601 
L 207.233698 67.611782 
z
" style="fill:#821580;fill-opacity:0.15;stroke:#ffffff;stroke-width:0.2;"/>
    <path clip-path="url(#pf336ffa556)" d="M 228.356716 67.280063 
L 230.027915 67.632556 
L 230.023867 67.868369 
L 228.354001 67.464149 
z
" style="fill:#821580;fill-opacity:0.15;stroke:#ffffff;stroke-width:0.2;"/>
    <path clip-path="url(#pf336ffa556)" d="M 205.579726 68.037884 
L 207.233658 67.609226 
L 207.233698 67.611782 
L 205.579753 68.039378 
z
" style="fill:#821580;fill-opacity:0.15;stroke:#ffffff;stroke-width:0.2;"/>
    <path clip-path="url(#pf336ffa556)" d="M 230.027915 67.632556 
L 231.655902 68.034294 
L 231.650067 68.333157 
L 230.023867 67.868369 
z
" style="fill:#821580;fill-opacity:0.15;stroke:#ffffff;stroke-width:0.2;"/>
    <path clip-path="url(#pf336ffa556)" d="M 203.971798 68.526145 
L 205.579726 68.037884 
L 205.579753 68.039378 
L 203.971815 68.526977 
z
" style="fill:#821580;fill-opacity:0.15;stroke:#ffffff;stroke-width:0.2;"/>
    <path clip-path="url(#pf336ffa556)" d="M 231.655902 68.034294 
L 233.234679 68.481951 
L 233.226499 68.856973 
L 231.650067 68.333157 
z
" style="fill:#821580;fill-opacity:0.15;stroke:#ffffff;stroke-width:0.2;"/>
    <path clip-path="url(#pf336ffa556)" d="M 202.415929 69.072522 
L 203.971798 68.526145 
L 203.971815 68.526977 
L 202.415939 69.072958 
z
" style="fill:#821580;fill-opacity:0.15;stroke:#ffffff;stroke-width:0.2;"/>
    <path clip-path="url(#pf336ffa556)" d="M 233.234679 68.481951 
L 234.75839 68.971825 
L 234.747188 69.43807 
L 233.226499 68.856973 
z
" style="fill:#821580;fill-opacity:0.15;stroke:#ffffff;stroke-width:0.2;"/>
    <path clip-path="url(#pf336ffa556)" d="M 200.918043 69.675282 
L 202.415929 69.072522 
L 202.415939 69.072958 
L 200.918048 69.675495 
z
" style="fill:#821580;fill-opacity:0.15;stroke:#ffffff;stroke-width:0.2;"/>
    <path clip-path="url(#pf336ffa556)" d="M 234.75839 68.971825 
L 236.221338 69.499849 
L 236.206306 70.074492 
L 234.747188 69.43807 
z
" style="fill:#821580;fill-opacity:0.15;stroke:#ffffff;stroke-width:0.2;"/>
    <path clip-path="url(#pf336ffa556)" d="M 199.483904 70.332461 
L 200.918043 69.675282 
L 200.918048 69.675495 
L 199.483907 70.332557 
z
" style="fill:#821580;fill-opacity:0.15;stroke:#ffffff;stroke-width:0.2;"/>
    <path clip-path="url(#pf336ffa556)" d="M 236.221338 69.499849 
L 237.618002 70.061588 
L 237.598192 70.764086 
L 236.206306 70.074492 
z
" style="fill:#821580;fill-opacity:0.15;stroke:#ffffff;stroke-width:0.2;"/>
    <path clip-path="url(#pf336ffa556)" d="M 198.119108 71.041871 
L 199.483904 70.332461 
L 199.483907 70.332557 
L 198.119109 71.041909 
z
" style="fill:#821580;fill-opacity:0.15;stroke:#ffffff;stroke-width:0.2;"/>
    <path clip-path="url(#pf336ffa556)" d="M 237.618002 70.061588 
L 238.943056 70.652251 
L 238.917369 71.504493 
L 237.598192 70.764086 
z
" style="fill:#821580;fill-opacity:0.15;stroke:#ffffff;stroke-width:0.2;"/>
    <path clip-path="url(#pf336ffa556)" d="M 196.829055 71.801107 
L 198.119108 71.041871 
L 198.119109 71.041909 
L 196.829055 71.80112 
z
" style="fill:#821580;fill-opacity:0.15;stroke:#ffffff;stroke-width:0.2;"/>
    <path clip-path="url(#pf336ffa556)" d="M 195.618935 72.607557 
L 196.829055 71.801107 
L 196.829055 71.80112 
L 195.618935 72.607561 
z
" style="fill:#821580;fill-opacity:0.15;stroke:#ffffff;stroke-width:0.2;"/>
    <path clip-path="url(#pf336ffa556)" d="M 238.943056 70.652251 
L 240.191387 71.266698 
L 240.158566 72.29316 
L 238.917369 71.504493 
z
" style="fill:#821580;fill-opacity:0.15;stroke:#ffffff;stroke-width:0.2;"/>
    <path clip-path="url(#pf336ffa556)" d="M 194.493705 73.458411 
L 195.618935 72.607557 
L 195.618935 72.607561 
L 194.493705 73.458411 
z
" style="fill:#821580;fill-opacity:0.15;stroke:#ffffff;stroke-width:0.2;"/>
    <path clip-path="url(#pf336ffa556)" d="M 240.191387 71.266698 
L 241.358109 71.899458 
L 241.316735 73.12734 
L 240.158566 72.29316 
z
" style="fill:#821580;fill-opacity:0.15;stroke:#ffffff;stroke-width:0.2;"/>
    <path clip-path="url(#pf336ffa556)" d="M 193.458069 74.350664 
L 194.493705 73.458411 
L 194.493705 73.458411 
L 193.458069 74.350664 
z
" style="fill:#821580;fill-opacity:0.15;stroke:#ffffff;stroke-width:0.2;"/>
    <path clip-path="url(#pf336ffa556)" d="M 241.358109 71.899458 
L 242.438581 72.544742 
L 242.387072 74.004097 
L 241.316735 73.12734 
z
" style="fill:#821580;fill-opacity:0.15;stroke:#ffffff;stroke-width:0.2;"/>
    <path clip-path="url(#pf336ffa556)" d="M 192.516457 75.281131 
L 193.458069 74.350664 
L 193.458069 74.350664 
L 192.516457 75.281131 
z
" style="fill:#821580;fill-opacity:0.15;stroke:#ffffff;stroke-width:0.2;"/>
    <path clip-path="url(#pf336ffa556)" d="M 242.438581 72.544742 
L 243.428421 73.196464 
L 243.365042 74.92031 
L 242.387072 74.004097 
z
" style="fill:#821580;fill-opacity:0.15;stroke:#ffffff;stroke-width:0.2;"/>
    <path clip-path="url(#pf336ffa556)" d="M 191.673006 76.246449 
L 192.516457 75.281131 
L 192.516457 75.281131 
L 191.673006 76.246449 
z
" style="fill:#821580;fill-opacity:0.15;stroke:#ffffff;stroke-width:0.2;"/>
    <path clip-path="url(#pf336ffa556)" d="M 243.428421 73.196464 
L 244.323528 73.848267 
L 244.246393 75.872682 
L 243.365042 74.92031 
z
" style="fill:#821580;fill-opacity:0.15;stroke:#ffffff;stroke-width:0.2;"/>
    <path clip-path="url(#pf336ffa556)" d="M 190.931535 77.243087 
L 191.673006 76.246449 
L 191.673006 76.246449 
L 190.931535 77.243087 
z
" style="fill:#821580;fill-opacity:0.15;stroke:#ffffff;stroke-width:0.2;"/>
    <path clip-path="url(#pf336ffa556)" d="M 244.323528 73.848267 
L 245.120088 74.493552 
L 245.027182 76.857747 
L 244.246393 75.872682 
z
" style="fill:#821580;fill-opacity:0.15;stroke:#ffffff;stroke-width:0.2;"/>
    <path clip-path="url(#pf336ffa556)" d="M 190.275947 77.786253 
L 190.931535 77.243087 
L 190.931535 77.243087 
L 190.295528 78.267355 
z
" style="fill:#821580;fill-opacity:0.15;stroke:#ffffff;stroke-width:0.2;"/>
    <path clip-path="url(#pf336ffa556)" d="M 245.120088 74.493552 
L 245.814597 75.125506 
L 245.703795 77.871874 
L 245.027182 76.857747 
z
" style="fill:#821580;fill-opacity:0.15;stroke:#ffffff;stroke-width:0.2;"/>
    <path clip-path="url(#pf336ffa556)" d="M 189.693533 77.519946 
L 190.275947 77.786253 
L 190.295528 78.267355 
L 189.76811 79.315413 
z
" style="fill:#821580;fill-opacity:0.15;stroke:#ffffff;stroke-width:0.2;"/>
    <path clip-path="url(#pf336ffa556)" d="M 245.814597 75.125506 
L 246.40387 75.737142 
L 246.272969 78.91128 
L 245.703795 77.871874 
z
" style="fill:#821580;fill-opacity:0.15;stroke:#ffffff;stroke-width:0.2;"/>
    <path clip-path="url(#pf336ffa556)" d="M 246.40387 75.737142 
L 246.885056 76.321339 
L 246.731811 79.972038 
L 246.272969 78.91128 
z
" style="fill:#821580;fill-opacity:0.15;stroke:#ffffff;stroke-width:0.2;"/>
    <path clip-path="url(#pf336ffa556)" d="M 189.192887 76.613313 
L 189.693533 77.519946 
L 189.76811 79.315413 
L 189.352025 80.383284 
z
" style="fill:#821580;fill-opacity:0.15;stroke:#ffffff;stroke-width:0.2;"/>
    <path clip-path="url(#pf336ffa556)" d="M 246.885056 76.321339 
L 247.255652 76.870888 
L 247.077819 81.05009 
L 246.731811 79.972038 
z
" style="fill:#821580;fill-opacity:0.15;stroke:#ffffff;stroke-width:0.2;"/>
    <path clip-path="url(#pf336ffa556)" d="M 188.782409 75.212441 
L 189.192887 76.613313 
L 189.352025 80.383284 
L 189.049622 81.466862 
z
" style="fill:#821580;fill-opacity:0.15;stroke:#ffffff;stroke-width:0.2;"/>
    <path clip-path="url(#pf336ffa556)" d="M 247.255652 76.870888 
L 247.513511 77.37854 
L 247.308904 82.141259 
L 247.077819 81.05009 
z
" style="fill:#821580;fill-opacity:0.15;stroke:#ffffff;stroke-width:0.2;"/>
    <path clip-path="url(#pf336ffa556)" d="M 247.513511 77.37854 
L 247.656861 77.83706 
L 247.423407 83.241261 
L 247.308904 82.141259 
z
" style="fill:#821580;fill-opacity:0.15;stroke:#ffffff;stroke-width:0.2;"/>
    <path clip-path="url(#pf336ffa556)" d="M 188.470153 73.444346 
L 188.782409 75.212441 
L 189.049622 81.466862 
L 188.862827 82.561927 
z
" style="fill:#821580;fill-opacity:0.15;stroke:#ffffff;stroke-width:0.2;"/>
    <path clip-path="url(#pf336ffa556)" d="M 247.656861 77.83706 
L 247.684307 78.239292 
L 247.420117 84.345721 
L 247.423407 83.241261 
z
" style="fill:#821580;fill-opacity:0.15;stroke:#ffffff;stroke-width:0.2;"/>
    <path clip-path="url(#pf336ffa556)" d="M 188.263681 71.419884 
L 188.470153 73.444346 
L 188.862827 82.561927 
L 188.79313 83.664158 
z
" style="fill:#821580;fill-opacity:0.15;stroke:#ffffff;stroke-width:0.2;"/>
    <path clip-path="url(#pf336ffa556)" d="M 247.684307 78.239292 
L 247.594848 78.578213 
L 247.29829 85.450191 
L 247.420117 84.345721 
z
" style="fill:#821580;fill-opacity:0.15;stroke:#ffffff;stroke-width:0.2;"/>
    <path clip-path="url(#pf336ffa556)" d="M 247.594848 78.578213 
L 247.387884 78.847009 
L 247.05766 86.550165 
L 247.29829 85.450191 
z
" style="fill:#821580;fill-opacity:0.15;stroke:#ffffff;stroke-width:0.2;"/>
    <path clip-path="url(#pf336ffa556)" d="M 188.169915 69.235889 
L 188.263681 71.419884 
L 188.79313 83.664158 
L 188.841567 84.769151 
z
" style="fill:#821580;fill-opacity:0.15;stroke:#ffffff;stroke-width:0.2;"/>
    <path clip-path="url(#pf336ffa556)" d="M 247.387884 78.847009 
L 247.063224 79.039147 
L 246.698457 87.641098 
L 247.05766 86.550165 
z
" style="fill:#821580;fill-opacity:0.15;stroke:#ffffff;stroke-width:0.2;"/>
    <path clip-path="url(#pf336ffa556)" d="M 247.063224 79.039147 
L 246.621099 79.148448 
L 246.221416 88.718425 
L 246.698457 87.641098 
z
" style="fill:#821580;fill-opacity:0.15;stroke:#ffffff;stroke-width:0.2;"/>
    <path clip-path="url(#pf336ffa556)" d="M 188.194998 66.976746 
L 188.169915 69.235889 
L 188.841567 84.769151 
L 189.008701 85.872434 
z
" style="fill:#821580;fill-opacity:0.15;stroke:#ffffff;stroke-width:0.2;"/>
    <path clip-path="url(#pf336ffa556)" d="M 246.621099 79.148448 
L 246.062164 79.169175 
L 245.627786 89.777583 
L 246.221416 88.718425 
z
" style="fill:#821580;fill-opacity:0.15;stroke:#ffffff;stroke-width:0.2;"/>
    <path clip-path="url(#pf336ffa556)" d="M 188.344164 64.715579 
L 188.194998 66.976746 
L 189.008701 85.872434 
L 189.29461 86.969482 
z
" style="fill:#821580;fill-opacity:0.15;stroke:#ffffff;stroke-width:0.2;"/>
    <path clip-path="url(#pf336ffa556)" d="M 246.062164 79.169175 
L 245.387514 79.096115 
L 244.919337 90.814033 
L 245.627786 89.777583 
z
" style="fill:#821580;fill-opacity:0.15;stroke:#ffffff;stroke-width:0.2;"/>
    <path clip-path="url(#pf336ffa556)" d="M 245.387514 79.096115 
L 244.598683 78.92467 
L 244.098364 91.82328 
L 244.919337 90.814033 
z
" style="fill:#821580;fill-opacity:0.15;stroke:#ffffff;stroke-width:0.2;"/>
    <path clip-path="url(#pf336ffa556)" d="M 188.621622 62.515144 
L 188.344164 64.715579 
L 189.29461 86.969482 
L 189.698872 88.055741 
z
" style="fill:#821580;fill-opacity:0.15;stroke:#ffffff;stroke-width:0.2;"/>
    <path clip-path="url(#pf336ffa556)" d="M 244.598683 78.92467 
L 243.697659 78.650952 
L 243.167687 92.800897 
L 244.098364 91.82328 
z
" style="fill:#821580;fill-opacity:0.15;stroke:#ffffff;stroke-width:0.2;"/>
    <path clip-path="url(#pf336ffa556)" d="M 189.030463 60.428557 
L 188.621622 62.515144 
L 189.698872 88.055741 
L 190.220558 89.126645 
z
" style="fill:#821580;fill-opacity:0.15;stroke:#ffffff;stroke-width:0.2;"/>
    <path clip-path="url(#pf336ffa556)" d="M 243.697659 78.650952 
L 242.686886 78.271876 
L 242.130648 93.74255 
L 243.167687 92.800897 
z
" style="fill:#821580;fill-opacity:0.15;stroke:#ffffff;stroke-width:0.2;"/>
    <path clip-path="url(#pf336ffa556)" d="M 242.686886 78.271876 
L 241.569275 77.785263 
L 240.991108 94.644019 
L 242.130648 93.74255 
z
" style="fill:#821580;fill-opacity:0.15;stroke:#ffffff;stroke-width:0.2;"/>
    <path clip-path="url(#pf336ffa556)" d="M 189.572583 58.49989 
L 189.030463 60.428557 
L 190.220558 89.126645 
L 190.858221 90.177637 
z
" style="fill:#821580;fill-opacity:0.15;stroke:#ffffff;stroke-width:0.2;"/>
    <path clip-path="url(#pf336ffa556)" d="M 241.569275 77.785263 
L 240.348206 77.189935 
L 239.753435 95.501227 
L 240.991108 94.644019 
z
" style="fill:#821580;fill-opacity:0.15;stroke:#ffffff;stroke-width:0.2;"/>
    <path clip-path="url(#pf336ffa556)" d="M 240.348206 77.189935 
L 239.027541 76.485821 
L 238.422489 96.310256 
L 239.753435 95.501227 
z
" style="fill:#821580;fill-opacity:0.15;stroke:#ffffff;stroke-width:0.2;"/>
    <path clip-path="url(#pf336ffa556)" d="M 190.248635 56.764718 
L 189.572583 58.49989 
L 190.858221 90.177637 
L 191.60989 91.204192 
z
" style="fill:#821580;fill-opacity:0.15;stroke:#ffffff;stroke-width:0.2;"/>
    <path clip-path="url(#pf336ffa556)" d="M 239.027541 76.485821 
L 237.611622 75.67405 
L 237.003612 97.067378 
L 238.422489 96.310256 
z
" style="fill:#821580;fill-opacity:0.15;stroke:#ffffff;stroke-width:0.2;"/>
    <path clip-path="url(#pf336ffa556)" d="M 191.057998 55.250627 
L 190.248635 56.764718 
L 191.60989 91.204192 
L 192.47307 92.201838 
z
" style="fill:#821580;fill-opacity:0.15;stroke:#ffffff;stroke-width:0.2;"/>
    <path clip-path="url(#pf336ffa556)" d="M 237.611622 75.67405 
L 236.105283 74.757055 
L 235.5026 97.769074 
L 237.003612 97.067378 
z
" style="fill:#821580;fill-opacity:0.15;stroke:#ffffff;stroke-width:0.2;"/>
    <path clip-path="url(#pf336ffa556)" d="M 191.998783 53.977738 
L 191.057998 55.250627 
L 192.47307 92.201838 
L 193.444741 93.166182 
z
" style="fill:#821580;fill-opacity:0.15;stroke:#ffffff;stroke-width:0.2;"/>
    <path clip-path="url(#pf336ffa556)" d="M 236.105283 74.757055 
L 234.51385 73.738658 
L 233.925685 98.412058 
L 235.5026 97.769074 
z
" style="fill:#821580;fill-opacity:0.15;stroke:#ffffff;stroke-width:0.2;"/>
    <path clip-path="url(#pf336ffa556)" d="M 234.51385 73.738658 
L 232.843145 72.624162 
L 232.279504 98.993297 
L 233.925685 98.412058 
z
" style="fill:#821580;fill-opacity:0.15;stroke:#ffffff;stroke-width:0.2;"/>
    <path clip-path="url(#pf336ffa556)" d="M 193.067853 52.959236 
L 191.998783 53.977738 
L 193.444741 93.166182 
L 194.521362 94.09293 
z
" style="fill:#821580;fill-opacity:0.15;stroke:#ffffff;stroke-width:0.2;"/>
    <path clip-path="url(#pf336ffa556)" d="M 232.843145 72.624162 
L 231.099485 71.420423 
L 230.571067 99.510033 
L 232.279504 98.993297 
z
" style="fill:#821580;fill-opacity:0.15;stroke:#ffffff;stroke-width:0.2;"/>
    <path clip-path="url(#pf336ffa556)" d="M 194.260875 52.201932 
L 193.067853 52.959236 
L 194.521362 94.09293 
L 195.698879 94.977914 
z
" style="fill:#821580;fill-opacity:0.15;stroke:#ffffff;stroke-width:0.2;"/>
    <path clip-path="url(#pf336ffa556)" d="M 231.099485 71.420423 
L 229.289683 70.135916 
L 228.807726 99.959798 
L 230.571067 99.510033 
z
" style="fill:#821580;fill-opacity:0.15;stroke:#ffffff;stroke-width:0.2;"/>
    <path clip-path="url(#pf336ffa556)" d="M 229.289683 70.135916 
L 227.421042 68.780787 
L 226.997137 100.340435 
L 228.807726 99.959798 
z
" style="fill:#821580;fill-opacity:0.15;stroke:#ffffff;stroke-width:0.2;"/>
    <path clip-path="url(#pf336ffa556)" d="M 195.572385 51.706853 
L 194.260875 52.201932 
L 195.698879 94.977914 
L 196.972732 95.817114 
z
" style="fill:#821580;fill-opacity:0.15;stroke:#ffffff;stroke-width:0.2;"/>
    <path clip-path="url(#pf336ffa556)" d="M 227.421042 68.780787 
L 225.501346 67.366876 
L 225.147217 100.650109 
L 226.997137 100.340435 
z
" style="fill:#821580;fill-opacity:0.15;stroke:#ffffff;stroke-width:0.2;"/>
    <path clip-path="url(#pf336ffa556)" d="M 196.995879 51.469857 
L 195.572385 51.706853 
L 196.972732 95.817114 
L 198.337876 96.606684 
z
" style="fill:#821580;fill-opacity:0.15;stroke:#ffffff;stroke-width:0.2;"/>
    <path clip-path="url(#pf336ffa556)" d="M 225.501346 67.366876 
L 223.538846 65.907732 
L 223.266105 100.887322 
L 225.147217 100.650109 
z
" style="fill:#821580;fill-opacity:0.15;stroke:#ffffff;stroke-width:0.2;"/>
    <path clip-path="url(#pf336ffa556)" d="M 198.523915 51.482265 
L 196.995879 51.469857 
L 198.337876 96.606684 
L 199.788794 97.342973 
z
" style="fill:#821580;fill-opacity:0.15;stroke:#ffffff;stroke-width:0.2;"/>
    <path clip-path="url(#pf336ffa556)" d="M 223.538846 65.907732 
L 221.542243 64.418582 
L 221.362112 101.050925 
L 223.266105 100.887322 
z
" style="fill:#821580;fill-opacity:0.15;stroke:#ffffff;stroke-width:0.2;"/>
    <path clip-path="url(#pf336ffa556)" d="M 200.148225 51.731505 
L 198.523915 51.482265 
L 199.788794 97.342973 
L 201.319519 98.022548 
z
" style="fill:#821580;fill-opacity:0.15;stroke:#ffffff;stroke-width:0.2;"/>
    <path clip-path="url(#pf336ffa556)" d="M 221.542243 64.418582 
L 219.520661 62.91629 
L 219.443684 101.140121 
L 221.362112 101.050925 
z
" style="fill:#821580;fill-opacity:0.15;stroke:#ffffff;stroke-width:0.2;"/>
    <path clip-path="url(#pf336ffa556)" d="M 201.859837 52.201753 
L 200.148225 51.731505 
L 201.319519 98.022548 
L 202.923662 98.642218 
z
" style="fill:#821580;fill-opacity:0.15;stroke:#ffffff;stroke-width:0.2;"/>
    <path clip-path="url(#pf336ffa556)" d="M 219.520661 62.91629 
L 217.483614 61.419255 
L 217.519345 101.154478 
L 219.443684 101.140121 
z
" style="fill:#821580;fill-opacity:0.15;stroke:#ffffff;stroke-width:0.2;"/>
    <path clip-path="url(#pf336ffa556)" d="M 217.483614 61.419255 
L 215.440968 59.947293 
L 215.597653 101.093926 
L 217.519345 101.154478 
z
" style="fill:#821580;fill-opacity:0.15;stroke:#ffffff;stroke-width:0.2;"/>
    <path clip-path="url(#pf336ffa556)" d="M 203.6492 52.874564 
L 201.859837 52.201753 
L 202.923662 98.642218 
L 204.59444 99.199053 
z
" style="fill:#821580;fill-opacity:0.15;stroke:#ffffff;stroke-width:0.2;"/>
    <path clip-path="url(#pf336ffa556)" d="M 215.440968 59.947293 
L 213.402886 58.521451 
L 213.687152 100.958758 
L 215.597653 101.093926 
z
" style="fill:#821580;fill-opacity:0.15;stroke:#ffffff;stroke-width:0.2;"/>
    <path clip-path="url(#pf336ffa556)" d="M 205.506308 53.729477 
L 203.6492 52.874564 
L 204.59444 99.199053 
L 206.324706 99.690403 
z
" style="fill:#821580;fill-opacity:0.15;stroke:#ffffff;stroke-width:0.2;"/>
    <path clip-path="url(#pf336ffa556)" d="M 213.402886 58.521451 
L 211.379773 57.163789 
L 211.796321 100.749632 
L 213.687152 100.958758 
z
" style="fill:#821580;fill-opacity:0.15;stroke:#ffffff;stroke-width:0.2;"/>
    <path clip-path="url(#pf336ffa556)" d="M 207.420825 54.744591 
L 205.506308 53.729477 
L 206.324706 99.690403 
L 208.10699 100.113919 
z
" style="fill:#821580;fill-opacity:0.15;stroke:#ffffff;stroke-width:0.2;"/>
    <path clip-path="url(#pf336ffa556)" d="M 211.379773 57.163789 
L 209.382199 55.897103 
L 209.933531 100.467564 
L 211.796321 100.749632 
z
" style="fill:#821580;fill-opacity:0.15;stroke:#ffffff;stroke-width:0.2;"/>
    <path clip-path="url(#pf336ffa556)" d="M 209.382199 55.897103 
L 207.420825 54.744591 
L 208.10699 100.113919 
L 209.933531 100.467564 
z
" style="fill:#821580;fill-opacity:0.15;stroke:#ffffff;stroke-width:0.2;"/>
   </g>
   <g id="line2d_3">
    <path clip-path="url(#pf336ffa556)" d="M 190.931535 77.243087 
L 191.673006 76.246449 
L 192.516457 75.281131 
L 193.458069 74.350664 
L 194.493705 73.458411 
L 195.618935 72.607561 
L 196.829055 71.80112 
L 198.119109 71.041909 
L 199.483907 70.332557 
L 200.918048 69.675495 
L 202.415939 69.072958 
L 203.971815 68.526977 
L 205.579753 68.039378 
L 207.233698 67.611782 
L 208.927474 67.245601 
L 210.654806 66.942038 
L 212.409334 66.702085 
L 214.18463 66.526526 
L 215.974216 66.41593 
L 217.771581 66.370656 
L 219.570191 66.390851 
L 221.363513 66.476449 
L 223.145024 66.627173 
L 224.908231 66.842534 
L 226.646686 67.121829 
L 228.354001 67.464149 
L 230.023867 67.868369 
L 231.650067 68.333157 
L 233.226499 68.856973 
L 234.747188 69.43807 
L 236.206306 70.074492 
L 237.598192 70.764086 
L 238.917369 71.504493 
L 240.158566 72.29316 
L 241.316735 73.12734 
L 242.387072 74.004097 
L 243.365042 74.92031 
L 244.246393 75.872682 
L 245.027182 76.857747 
L 245.703795 77.871874 
L 246.272969 78.91128 
L 246.731811 79.972038 
L 247.077819 81.05009 
L 247.308904 82.141259 
L 247.423407 83.241261 
L 247.420117 84.345721 
L 247.29829 85.450191 
L 247.05766 86.550165 
L 246.698457 87.641098 
L 246.221416 88.718425 
L 245.627786 89.777583 
L 244.919337 90.814033 
L 244.098364 91.82328 
L 243.167687 92.800897 
L 242.130648 93.74255 
L 240.991108 94.644019 
L 239.753435 95.501227 
L 238.422489 96.310256 
L 237.003612 97.067378 
L 235.5026 97.769074 
L 233.925685 98.412058 
L 232.279504 98.993297 
L 230.571067 99.510033 
L 228.807726 99.959798 
L 226.997137 100.340435 
L 225.147217 100.650109 
L 223.266105 100.887322 
L 221.362112 101.050925 
L 219.443684 101.140121 
L 217.519345 101.154478 
L 215.597653 101.093926 
L 213.687152 100.958758 
L 211.796321 100.749632 
L 209.933531 100.467564 
L 208.10699 100.113919 
L 206.324706 99.690403 
L 204.59444 99.199053 
L 202.923662 98.642218 
L 201.319519 98.022548 
L 199.788794 97.342973 
L 198.337876 96.606684 
L 196.972732 95.817114 
L 195.698879 94.977914 
L 194.521362 94.09293 
L 193.444741 93.166182 
L 192.47307 92.201838 
L 191.60989 91.204192 
L 190.858221 90.177637 
L 190.220558 89.126645 
L 189.698872 88.055741 
L 189.29461 86.969482 
L 189.008701 85.872434 
L 188.841567 84.769151 
L 188.79313 83.664158 
L 188.862827 82.561927 
L 189.049622 81.466862 
L 189.352025 80.383284 
L 189.76811 79.315413 
L 190.295528 78.267355 
L 190.931535 77.243087 
" style="fill:none;stroke:#000000;stroke-dasharray:3.7,1.6;stroke-dashoffset:0;"/>
   </g>
   <g id="line2d_4">
    <path clip-path="url(#pf336ffa556)" d="M 190.931535 77.243087 
L 191.673006 76.246449 
L 192.516457 75.281131 
L 193.458069 74.350664 
L 194.493705 73.458411 
L 195.618935 72.607557 
L 196.829055 71.801107 
L 198.119108 71.041871 
L 199.483904 70.332461 
L 200.918043 69.675282 
L 202.415929 69.072522 
L 203.971798 68.526145 
L 205.579726 68.037884 
L 207.233658 67.609226 
L 208.927419 67.241408 
L 210.654735 66.935401 
L 212.40925 66.691907 
L 214.184544 66.511341 
L 215.974148 66.393825 
L 217.771565 66.339174 
L 219.570284 66.346888 
L 221.363795 66.41614 
L 223.145613 66.545769 
L 224.90929 66.734266 
L 226.648431 66.979771 
L 228.356716 67.280063 
L 230.027915 67.632556 
L 231.655902 68.034294 
L 233.234679 68.481951 
L 234.75839 68.971825 
L 236.221338 69.499849 
L 237.618002 70.061588 
L 238.943056 70.652251 
L 240.191387 71.266698 
L 241.358109 71.899458 
L 242.438581 72.544742 
L 243.428421 73.196464 
L 244.323528 73.848267 
L 245.120088 74.493552 
L 245.814597 75.125506 
L 246.40387 75.737142 
L 246.885056 76.321339 
L 247.255652 76.870888 
L 247.513511 77.37854 
L 247.656861 77.83706 
L 247.684307 78.239292 
L 247.594848 78.578213 
L 247.387884 78.847009 
L 247.063224 79.039147 
L 246.621099 79.148448 
L 246.062164 79.169175 
L 245.387514 79.096115 
L 244.598683 78.92467 
L 243.697659 78.650952 
L 242.686886 78.271876 
L 241.569275 77.785263 
L 240.348206 77.189935 
L 239.027541 76.485821 
L 237.611622 75.67405 
L 236.105283 74.757055 
L 234.51385 73.738658 
L 232.843145 72.624162 
L 231.099485 71.420423 
L 229.289683 70.135916 
L 227.421042 68.780787 
L 225.501346 67.366876 
L 223.538846 65.907732 
L 221.542243 64.418582 
L 219.520661 62.91629 
L 217.483614 61.419255 
L 215.440968 59.947293 
L 213.402886 58.521451 
L 211.379773 57.163789 
L 209.382199 55.897103 
L 207.420825 54.744591 
L 205.506308 53.729477 
L 203.6492 52.874564 
L 201.859837 52.201753 
L 200.148225 51.731505 
L 198.523915 51.482265 
L 196.995879 51.469857 
L 195.572385 51.706853 
L 194.260875 52.201932 
L 193.067853 52.959236 
L 191.998783 53.977738 
L 191.057998 55.250627 
L 190.248635 56.764718 
L 189.572583 58.49989 
L 189.030463 60.428557 
L 188.621622 62.515144 
L 188.344164 64.715579 
L 188.194998 66.976746 
L 188.169915 69.235889 
L 188.263681 71.419884 
L 188.470153 73.444346 
L 188.782409 75.212441 
L 189.192887 76.613313 
L 189.693533 77.519946 
L 190.275947 77.786253 
L 190.931535 77.243087 
" style="fill:none;stroke:#821580;stroke-linecap:round;stroke-width:1.5;"/>
   </g>
   <g id="text_2">
    <!-- $120$° -->
    <defs>
     <path d="M 12.40625 8.296875 
L 28.515625 8.296875 
L 28.515625 63.921875 
L 10.984375 60.40625 
L 10.984375 69.390625 
L 28.421875 72.90625 
L 38.28125 72.90625 
L 38.28125 8.296875 
L 54.390625 8.296875 
L 54.390625 0 
L 12.40625 0 
z
" id="DejaVuSans-49"/>
     <path d="M 19.1875 8.296875 
L 53.609375 8.296875 
L 53.609375 0 
L 7.328125 0 
L 7.328125 8.296875 
Q 12.9375 14.109375 22.625 23.890625 
Q 32.328125 33.6875 34.8125 36.53125 
Q 39.546875 41.84375 41.421875 45.53125 
Q 43.3125 49.21875 43.3125 52.78125 
Q 43.3125 58.59375 39.234375 62.25 
Q 35.15625 65.921875 28.609375 65.921875 
Q 23.96875 65.921875 18.8125 64.3125 
Q 13.671875 62.703125 7.8125 59.421875 
L 7.8125 69.390625 
Q 13.765625 71.78125 18.9375 73 
Q 24.125 74.21875 28.421875 74.21875 
Q 39.75 74.21875 46.484375 68.546875 
Q 53.21875 62.890625 53.21875 53.421875 
Q 53.21875 48.921875 51.53125 44.890625 
Q 49.859375 40.875 45.40625 35.40625 
Q 44.1875 33.984375 37.640625 27.21875 
Q 31.109375 20.453125 19.1875 8.296875 
z
" id="DejaVuSans-50"/>
    </defs>
    <g style="fill:#cccccc;" transform="translate(181.519555 14.357812)scale(0.1 -0.1)">
     <use transform="translate(0 0.78125)" xlink:href="#DejaVuSans-49"/>
     <use transform="translate(63.623047 0.78125)" xlink:href="#DejaVuSans-50"/>
     <use transform="translate(127.246094 0.78125)" xlink:href="#DejaVuSans-48"/>
     <use transform="translate(190.869141 0.78125)" xlink:href="#ArialMT-176"/>
    </g>
   </g>
  </g>
  <g id="patch_4">
   <path d="M 302.611765 117.201056 
L 425.7 117.201056 
L 425.7 8.481056 
L 302.611765 8.481056 
z
" style="fill:none;"/>
  </g>
  <g id="axes_3">
   <g id="Poly3DCollection_3">
    <path clip-path="url(#p2d586d9b53)" d="M 384.012161 66.331025 
L 385.356453 68.982778 
L 385.306042 70.770252 
L 383.914066 70.080596 
z
" style="fill:#821580;fill-opacity:0.15;stroke:#ffffff;stroke-width:0.2;"/>
    <path clip-path="url(#p2d586d9b53)" d="M 385.356453 68.982778 
L 386.639766 71.031303 
L 386.625314 71.51072 
L 385.306042 70.770252 
z
" style="fill:#821580;fill-opacity:0.15;stroke:#ffffff;stroke-width:0.2;"/>
    <path clip-path="url(#p2d586d9b53)" d="M 382.604197 63.229598 
L 384.012161 66.331025 
L 383.914066 70.080596 
L 382.454863 69.44411 
z
" style="fill:#821580;fill-opacity:0.15;stroke:#ffffff;stroke-width:0.2;"/>
    <path clip-path="url(#p2d586d9b53)" d="M 381.131529 59.812455 
L 382.604197 63.229598 
L 382.454863 69.44411 
L 380.934095 68.86295 
z
" style="fill:#821580;fill-opacity:0.15;stroke:#ffffff;stroke-width:0.2;"/>
    <path clip-path="url(#p2d586d9b53)" d="M 386.639766 71.031303 
L 387.86661 72.299448 
L 387.86661 72.299448 
L 386.625314 71.51072 
z
" style="fill:#821580;fill-opacity:0.15;stroke:#ffffff;stroke-width:0.2;"/>
    <path clip-path="url(#p2d586d9b53)" d="M 379.594661 56.196879 
L 381.131529 59.812455 
L 380.934095 68.86295 
L 379.357588 68.339069 
z
" style="fill:#821580;fill-opacity:0.15;stroke:#ffffff;stroke-width:0.2;"/>
    <path clip-path="url(#p2d586d9b53)" d="M 387.86661 72.299448 
L 389.024881 73.133686 
L 389.024881 73.133686 
L 387.86661 72.299448 
z
" style="fill:#821580;fill-opacity:0.15;stroke:#ffffff;stroke-width:0.2;"/>
    <path clip-path="url(#p2d586d9b53)" d="M 377.995508 52.485607 
L 379.594661 56.196879 
L 379.357588 68.339069 
L 377.731319 67.874216 
z
" style="fill:#821580;fill-opacity:0.15;stroke:#ffffff;stroke-width:0.2;"/>
    <path clip-path="url(#p2d586d9b53)" d="M 389.024881 73.133686 
L 390.095325 74.010499 
L 390.095325 74.010499 
L 389.024881 73.133686 
z
" style="fill:#821580;fill-opacity:0.15;stroke:#ffffff;stroke-width:0.2;"/>
    <path clip-path="url(#p2d586d9b53)" d="M 376.337285 48.768414 
L 377.995508 52.485607 
L 377.731319 67.874216 
L 376.061391 67.469932 
z
" style="fill:#821580;fill-opacity:0.15;stroke:#ffffff;stroke-width:0.2;"/>
    <path clip-path="url(#p2d586d9b53)" d="M 390.095325 74.010499 
L 391.073404 74.926766 
L 391.073404 74.926767 
L 390.095325 74.010499 
z
" style="fill:#821580;fill-opacity:0.15;stroke:#ffffff;stroke-width:0.2;"/>
    <path clip-path="url(#p2d586d9b53)" d="M 374.62439 45.123303 
L 376.337285 48.768414 
L 376.061391 67.469932 
L 374.35402 67.127548 
z
" style="fill:#821580;fill-opacity:0.15;stroke:#ffffff;stroke-width:0.2;"/>
    <path clip-path="url(#p2d586d9b53)" d="M 391.073404 74.926766 
L 391.954866 75.879191 
L 391.954866 75.879192 
L 391.073404 74.926767 
z
" style="fill:#821580;fill-opacity:0.15;stroke:#ffffff;stroke-width:0.2;"/>
    <path clip-path="url(#p2d586d9b53)" d="M 372.862282 41.617437 
L 374.62439 45.123303 
L 374.35402 67.127548 
L 372.615515 66.848188 
z
" style="fill:#821580;fill-opacity:0.15;stroke:#ffffff;stroke-width:0.2;"/>
    <path clip-path="url(#p2d586d9b53)" d="M 371.057357 38.307897 
L 372.862282 41.617437 
L 372.615515 66.848188 
L 370.852266 66.632765 
z
" style="fill:#821580;fill-opacity:0.15;stroke:#ffffff;stroke-width:0.2;"/>
    <path clip-path="url(#p2d586d9b53)" d="M 391.954866 75.879191 
L 392.735769 76.864303 
L 392.735769 76.864306 
L 391.954866 75.879192 
z
" style="fill:#821580;fill-opacity:0.15;stroke:#ffffff;stroke-width:0.2;"/>
    <path clip-path="url(#p2d586d9b53)" d="M 369.216816 35.242332 
L 371.057357 38.307897 
L 370.852266 66.632765 
L 369.070719 66.481979 
z
" style="fill:#821580;fill-opacity:0.15;stroke:#ffffff;stroke-width:0.2;"/>
    <path clip-path="url(#p2d586d9b53)" d="M 392.735769 76.864303 
L 393.412498 77.878467 
L 393.412497 77.878481 
L 392.735769 76.864306 
z
" style="fill:#821580;fill-opacity:0.15;stroke:#ffffff;stroke-width:0.2;"/>
    <path clip-path="url(#p2d586d9b53)" d="M 367.348534 32.459558 
L 369.216816 35.242332 
L 369.070719 66.481979 
L 367.277368 66.396319 
z
" style="fill:#821580;fill-opacity:0.15;stroke:#ffffff;stroke-width:0.2;"/>
    <path clip-path="url(#p2d586d9b53)" d="M 393.412498 77.878467 
L 393.981789 78.917892 
L 393.981788 78.917931 
L 393.412497 77.878481 
z
" style="fill:#821580;fill-opacity:0.15;stroke:#ffffff;stroke-width:0.2;"/>
    <path clip-path="url(#p2d586d9b53)" d="M 365.460919 29.990131 
L 367.348534 32.459558 
L 367.277368 66.396319 
L 365.478736 66.376064 
z
" style="fill:#821580;fill-opacity:0.15;stroke:#ffffff;stroke-width:0.2;"/>
    <path clip-path="url(#p2d586d9b53)" d="M 393.981789 78.917892 
L 394.44075 79.978634 
L 394.440746 79.97873 
L 393.981788 78.917931 
z
" style="fill:#821580;fill-opacity:0.15;stroke:#ffffff;stroke-width:0.2;"/>
    <path clip-path="url(#p2d586d9b53)" d="M 363.562783 27.856919 
L 365.460919 29.990131 
L 365.478736 66.376064 
L 363.681357 66.42128 
z
" style="fill:#821580;fill-opacity:0.15;stroke:#ffffff;stroke-width:0.2;"/>
    <path clip-path="url(#p2d586d9b53)" d="M 394.44075 79.978634 
L 394.78688 81.056606 
L 394.786871 81.056821 
L 394.440746 79.97873 
z
" style="fill:#821580;fill-opacity:0.15;stroke:#ffffff;stroke-width:0.2;"/>
    <path clip-path="url(#p2d586d9b53)" d="M 361.663211 26.075683 
L 363.562783 27.856919 
L 363.681357 66.42128 
L 361.891763 66.531819 
z
" style="fill:#821580;fill-opacity:0.15;stroke:#ffffff;stroke-width:0.2;"/>
    <path clip-path="url(#p2d586d9b53)" d="M 359.771429 24.655675 
L 361.663211 26.075683 
L 361.891763 66.531819 
L 360.116466 66.707324 
z
" style="fill:#821580;fill-opacity:0.15;stroke:#ffffff;stroke-width:0.2;"/>
    <path clip-path="url(#p2d586d9b53)" d="M 394.78688 81.056606 
L 395.018092 82.147584 
L 395.018073 82.148024 
L 394.786871 81.056821 
z
" style="fill:#821580;fill-opacity:0.15;stroke:#ffffff;stroke-width:0.2;"/>
    <path clip-path="url(#p2d586d9b53)" d="M 357.896695 23.600252 
L 359.771429 24.655675 
L 360.116466 66.707324 
L 358.361946 66.947223 
z
" style="fill:#821580;fill-opacity:0.15;stroke:#ffffff;stroke-width:0.2;"/>
    <path clip-path="url(#p2d586d9b53)" d="M 395.018092 82.147584 
L 395.132728 83.247218 
L 395.132692 83.248056 
L 395.018073 82.148024 
z
" style="fill:#821580;fill-opacity:0.15;stroke:#ffffff;stroke-width:0.2;"/>
    <path clip-path="url(#p2d586d9b53)" d="M 356.048187 22.907502 
L 357.896695 23.600252 
L 358.361946 66.947223 
L 356.634628 67.250735 
z
" style="fill:#821580;fill-opacity:0.15;stroke:#ffffff;stroke-width:0.2;"/>
    <path clip-path="url(#p2d586d9b53)" d="M 354.234905 22.570866 
L 356.048187 22.907502 
L 356.634628 67.250735 
L 354.940874 67.616868 
z
" style="fill:#821580;fill-opacity:0.15;stroke:#ffffff;stroke-width:0.2;"/>
    <path clip-path="url(#p2d586d9b53)" d="M 395.132728 83.247218 
L 395.129582 84.351037 
L 395.129517 84.352543 
L 395.132692 83.248056 
z
" style="fill:#821580;fill-opacity:0.15;stroke:#ffffff;stroke-width:0.2;"/>
    <path clip-path="url(#p2d586d9b53)" d="M 352.46559 22.579765 
L 354.234905 22.570866 
L 354.940874 67.616868 
L 353.286957 68.044418 
z
" style="fill:#821580;fill-opacity:0.15;stroke:#ffffff;stroke-width:0.2;"/>
    <path clip-path="url(#p2d586d9b53)" d="M 350.748652 22.920207 
L 352.46559 22.579765 
L 353.286957 68.044418 
L 351.679054 68.531974 
z
" style="fill:#821580;fill-opacity:0.15;stroke:#ffffff;stroke-width:0.2;"/>
    <path clip-path="url(#p2d586d9b53)" d="M 395.129582 84.351037 
L 395.007913 85.454458 
L 395.007802 85.457036 
L 395.129517 84.352543 
z
" style="fill:#821580;fill-opacity:0.15;stroke:#ffffff;stroke-width:0.2;"/>
    <path clip-path="url(#p2d586d9b53)" d="M 349.092109 23.575373 
L 350.748652 22.920207 
L 351.679054 68.531974 
L 350.123221 69.077915 
z
" style="fill:#821580;fill-opacity:0.15;stroke:#ffffff;stroke-width:0.2;"/>
    <path clip-path="url(#p2d586d9b53)" d="M 347.503539 24.526173 
L 349.092109 23.575373 
L 350.123221 69.077915 
L 348.625379 69.680415 
z
" style="fill:#821580;fill-opacity:0.15;stroke:#ffffff;stroke-width:0.2;"/>
    <path clip-path="url(#p2d586d9b53)" d="M 395.007913 85.454458 
L 394.767464 86.552795 
L 394.767283 86.557029 
L 395.007802 85.457036 
z
" style="fill:#821580;fill-opacity:0.15;stroke:#ffffff;stroke-width:0.2;"/>
    <path clip-path="url(#p2d586d9b53)" d="M 345.990048 25.751764 
L 347.503539 24.526173 
L 348.625379 69.680415 
L 347.191292 70.337442 
z
" style="fill:#821580;fill-opacity:0.15;stroke:#ffffff;stroke-width:0.2;"/>
    <path clip-path="url(#p2d586d9b53)" d="M 344.558238 27.230033 
L 345.990048 25.751764 
L 347.191292 70.337442 
L 345.826556 71.046763 
z
" style="fill:#821580;fill-opacity:0.15;stroke:#ffffff;stroke-width:0.2;"/>
    <path clip-path="url(#p2d586d9b53)" d="M 394.767464 86.552795 
L 394.408472 87.64127 
L 394.408188 87.647976 
L 394.767283 86.557029 
z
" style="fill:#821580;fill-opacity:0.15;stroke:#ffffff;stroke-width:0.2;"/>
    <path clip-path="url(#p2d586d9b53)" d="M 343.214199 28.938023 
L 344.558238 27.230033 
L 345.826556 71.046763 
L 344.53657 71.805947 
z
" style="fill:#821580;fill-opacity:0.15;stroke:#ffffff;stroke-width:0.2;"/>
    <path clip-path="url(#p2d586d9b53)" d="M 341.963493 30.852325 
L 343.214199 28.938023 
L 344.53657 71.805947 
L 343.326523 72.612364 
z
" style="fill:#821580;fill-opacity:0.15;stroke:#ffffff;stroke-width:0.2;"/>
    <path clip-path="url(#p2d586d9b53)" d="M 340.811154 32.949411 
L 341.963493 30.852325 
L 343.326523 72.612364 
L 342.201371 73.463194 
z
" style="fill:#821580;fill-opacity:0.15;stroke:#ffffff;stroke-width:0.2;"/>
    <path clip-path="url(#p2d586d9b53)" d="M 394.408472 87.64127 
L 393.931681 88.715022 
L 393.931251 88.725313 
L 394.408188 87.647976 
z
" style="fill:#821580;fill-opacity:0.15;stroke:#ffffff;stroke-width:0.2;"/>
    <path clip-path="url(#p2d586d9b53)" d="M 339.761693 35.205932 
L 340.811154 32.949411 
L 342.201371 73.463194 
L 341.165818 74.355431 
z
" style="fill:#821580;fill-opacity:0.15;stroke:#ffffff;stroke-width:0.2;"/>
    <path clip-path="url(#p2d586d9b53)" d="M 338.819103 37.598959 
L 339.761693 35.205932 
L 341.165818 74.355431 
L 340.224294 75.285885 
z
" style="fill:#821580;fill-opacity:0.15;stroke:#ffffff;stroke-width:0.2;"/>
    <path clip-path="url(#p2d586d9b53)" d="M 393.931681 88.715022 
L 393.338351 89.769115 
L 393.337722 89.784477 
L 393.931251 88.725313 
z
" style="fill:#821580;fill-opacity:0.15;stroke:#ffffff;stroke-width:0.2;"/>
    <path clip-path="url(#p2d586d9b53)" d="M 337.986869 40.106192 
L 338.819103 37.598959 
L 340.224294 75.285885 
L 339.380936 76.251194 
z
" style="fill:#821580;fill-opacity:0.15;stroke:#ffffff;stroke-width:0.2;"/>
    <path clip-path="url(#p2d586d9b53)" d="M 337.26798 42.706121 
L 337.986869 40.106192 
L 339.380936 76.251194 
L 338.639562 77.247827 
z
" style="fill:#821580;fill-opacity:0.15;stroke:#ffffff;stroke-width:0.2;"/>
    <path clip-path="url(#p2d586d9b53)" d="M 393.338351 89.769115 
L 392.630264 90.798553 
L 392.62937 90.820928 
L 393.337722 89.784477 
z
" style="fill:#821580;fill-opacity:0.15;stroke:#ffffff;stroke-width:0.2;"/>
    <path clip-path="url(#p2d586d9b53)" d="M 336.66494 45.378159 
L 337.26798 42.706121 
L 338.639562 77.247827 
L 338.003655 78.272094 
z
" style="fill:#821580;fill-opacity:0.15;stroke:#ffffff;stroke-width:0.2;"/>
    <path clip-path="url(#p2d586d9b53)" d="M 336.179782 48.102736 
L 336.66494 45.378159 
L 338.003655 78.272094 
L 337.47634 79.320157 
z
" style="fill:#821580;fill-opacity:0.15;stroke:#ffffff;stroke-width:0.2;"/>
    <path clip-path="url(#p2d586d9b53)" d="M 335.814078 50.86137 
L 336.179782 48.102736 
L 337.47634 79.320157 
L 337.060362 80.388035 
z
" style="fill:#821580;fill-opacity:0.15;stroke:#ffffff;stroke-width:0.2;"/>
    <path clip-path="url(#p2d586d9b53)" d="M 392.630264 90.798553 
L 391.809726 91.798291 
L 391.808489 91.830171 
L 392.62937 90.820928 
z
" style="fill:#821580;fill-opacity:0.15;stroke:#ffffff;stroke-width:0.2;"/>
    <path clip-path="url(#p2d586d9b53)" d="M 335.568949 53.63671 
L 335.814078 50.86137 
L 337.060362 80.388035 
L 336.758067 81.471625 
z
" style="fill:#821580;fill-opacity:0.15;stroke:#ffffff;stroke-width:0.2;"/>
    <path clip-path="url(#p2d586d9b53)" d="M 335.445078 56.412562 
L 335.568949 53.63671 
L 336.758067 81.471625 
L 336.571383 82.566706 
z
" style="fill:#821580;fill-opacity:0.15;stroke:#ffffff;stroke-width:0.2;"/>
    <path clip-path="url(#p2d586d9b53)" d="M 391.809726 91.798291 
L 390.879568 92.763244 
L 390.877899 92.80778 
L 391.808489 91.830171 
z
" style="fill:#821580;fill-opacity:0.15;stroke:#ffffff;stroke-width:0.2;"/>
    <path clip-path="url(#p2d586d9b53)" d="M 335.442712 59.173891 
L 335.445078 56.412562 
L 336.571383 82.566706 
L 336.501799 83.668957 
z
" style="fill:#821580;fill-opacity:0.15;stroke:#ffffff;stroke-width:0.2;"/>
    <path clip-path="url(#p2d586d9b53)" d="M 335.561674 61.90682 
L 335.442712 59.173891 
L 336.501799 83.668957 
L 336.550349 84.773975 
z
" style="fill:#821580;fill-opacity:0.15;stroke:#ffffff;stroke-width:0.2;"/>
    <path clip-path="url(#p2d586d9b53)" d="M 390.879568 92.763244 
L 389.843141 93.688304 
L 389.840943 93.749419 
L 390.877899 92.80778 
z
" style="fill:#821580;fill-opacity:0.15;stroke:#ffffff;stroke-width:0.2;"/>
    <path clip-path="url(#p2d586d9b53)" d="M 335.801365 64.598602 
L 335.561674 61.90682 
L 336.550349 84.773975 
L 336.717598 85.877286 
z
" style="fill:#821580;fill-opacity:0.15;stroke:#ffffff;stroke-width:0.2;"/>
    <path clip-path="url(#p2d586d9b53)" d="M 389.843141 93.688304 
L 388.704311 94.568356 
L 388.70148 94.650872 
L 389.840943 93.749419 
z
" style="fill:#821580;fill-opacity:0.15;stroke:#ffffff;stroke-width:0.2;"/>
    <path clip-path="url(#p2d586d9b53)" d="M 336.160765 67.237599 
L 335.801365 64.598602 
L 336.717598 85.877286 
L 337.003621 86.974367 
z
" style="fill:#821580;fill-opacity:0.15;stroke:#ffffff;stroke-width:0.2;"/>
    <path clip-path="url(#p2d586d9b53)" d="M 336.638441 69.813243 
L 336.160765 67.237599 
L 337.003621 86.974367 
L 337.407998 88.060663 
z
" style="fill:#821580;fill-opacity:0.15;stroke:#ffffff;stroke-width:0.2;"/>
    <path clip-path="url(#p2d586d9b53)" d="M 388.704311 94.568356 
L 387.467444 95.398286 
L 387.463877 95.508057 
L 388.70148 94.650872 
z
" style="fill:#821580;fill-opacity:0.15;stroke:#ffffff;stroke-width:0.2;"/>
    <path clip-path="url(#p2d586d9b53)" d="M 337.232541 72.315996 
L 336.638441 69.813243 
L 337.407998 88.060663 
L 337.929798 89.131607 
z
" style="fill:#821580;fill-opacity:0.15;stroke:#ffffff;stroke-width:0.2;"/>
    <path clip-path="url(#p2d586d9b53)" d="M 337.940801 74.737309 
L 337.232541 72.315996 
L 337.929798 89.131607 
L 338.567573 90.182643 
z
" style="fill:#821580;fill-opacity:0.15;stroke:#ffffff;stroke-width:0.2;"/>
    <path clip-path="url(#p2d586d9b53)" d="M 387.467444 95.398286 
L 386.137394 96.173005 
L 386.132997 96.317059 
L 387.463877 95.508057 
z
" style="fill:#821580;fill-opacity:0.15;stroke:#ffffff;stroke-width:0.2;"/>
    <path clip-path="url(#p2d586d9b53)" d="M 338.760539 77.069577 
L 337.940801 74.737309 
L 338.567573 90.182643 
L 339.319353 91.209245 
z
" style="fill:#821580;fill-opacity:0.15;stroke:#ffffff;stroke-width:0.2;"/>
    <path clip-path="url(#p2d586d9b53)" d="M 386.137394 96.173005 
L 384.719485 96.887458 
L 384.714178 97.074149 
L 386.132997 96.317059 
z
" style="fill:#821580;fill-opacity:0.15;stroke:#ffffff;stroke-width:0.2;"/>
    <path clip-path="url(#p2d586d9b53)" d="M 339.688662 79.306091 
L 338.760539 77.069577 
L 339.319353 91.209245 
L 340.182642 92.206943 
z
" style="fill:#821580;fill-opacity:0.15;stroke:#ffffff;stroke-width:0.2;"/>
    <path clip-path="url(#p2d586d9b53)" d="M 384.719485 96.887458 
L 383.219483 97.536649 
L 383.213218 97.77581 
L 384.714178 97.074149 
z
" style="fill:#821580;fill-opacity:0.15;stroke:#ffffff;stroke-width:0.2;"/>
    <path clip-path="url(#p2d586d9b53)" d="M 340.721662 81.440995 
L 339.688662 79.306091 
L 340.182642 92.206943 
L 341.15442 93.17134 
z
" style="fill:#821580;fill-opacity:0.15;stroke:#ffffff;stroke-width:0.2;"/>
    <path clip-path="url(#p2d586d9b53)" d="M 341.855619 83.469237 
L 340.721662 81.440995 
L 341.15442 93.17134 
L 342.231145 94.098146 
z
" style="fill:#821580;fill-opacity:0.15;stroke:#ffffff;stroke-width:0.2;"/>
    <path clip-path="url(#p2d586d9b53)" d="M 383.219483 97.536649 
L 381.643575 98.115651 
L 381.636348 98.418754 
L 383.213218 97.77581 
z
" style="fill:#821580;fill-opacity:0.15;stroke:#ffffff;stroke-width:0.2;"/>
    <path clip-path="url(#p2d586d9b53)" d="M 343.086206 85.386532 
L 341.855619 83.469237 
L 342.231145 94.098146 
L 343.408762 94.98319 
z
" style="fill:#821580;fill-opacity:0.15;stroke:#ffffff;stroke-width:0.2;"/>
    <path clip-path="url(#p2d586d9b53)" d="M 381.643575 98.115651 
L 379.998336 98.61963 
L 379.990204 98.99995 
L 381.636348 98.418754 
z
" style="fill:#821580;fill-opacity:0.15;stroke:#ffffff;stroke-width:0.2;"/>
    <path clip-path="url(#p2d586d9b53)" d="M 344.408692 87.189314 
L 343.086206 85.386532 
L 343.408762 94.98319 
L 344.682713 95.822453 
z
" style="fill:#821580;fill-opacity:0.15;stroke:#ffffff;stroke-width:0.2;"/>
    <path clip-path="url(#p2d586d9b53)" d="M 379.998336 98.61963 
L 378.290695 99.043865 
L 378.281797 99.516638 
L 379.990204 98.99995 
z
" style="fill:#821580;fill-opacity:0.15;stroke:#ffffff;stroke-width:0.2;"/>
    <path clip-path="url(#p2d586d9b53)" d="M 345.817951 88.874698 
L 344.408692 87.189314 
L 344.682713 95.822453 
L 346.04795 96.612088 
z
" style="fill:#821580;fill-opacity:0.15;stroke:#ffffff;stroke-width:0.2;"/>
    <path clip-path="url(#p2d586d9b53)" d="M 347.308471 90.440442 
L 345.817951 88.874698 
L 346.04795 96.612088 
L 347.498957 97.348444 
z
" style="fill:#821580;fill-opacity:0.15;stroke:#ffffff;stroke-width:0.2;"/>
    <path clip-path="url(#p2d586d9b53)" d="M 378.290695 99.043865 
L 376.527899 99.383763 
L 376.51848 99.966351 
L 378.281797 99.516638 
z
" style="fill:#821580;fill-opacity:0.15;stroke:#ffffff;stroke-width:0.2;"/>
    <path clip-path="url(#p2d586d9b53)" d="M 348.874365 91.884911 
L 347.308471 90.440442 
L 347.498957 97.348444 
L 349.029766 98.028087 
z
" style="fill:#821580;fill-opacity:0.15;stroke:#ffffff;stroke-width:0.2;"/>
    <path clip-path="url(#p2d586d9b53)" d="M 376.527899 99.383763 
L 374.717477 99.634883 
L 374.707907 100.346933 
L 376.51848 99.966351 
z
" style="fill:#821580;fill-opacity:0.15;stroke:#ffffff;stroke-width:0.2;"/>
    <path clip-path="url(#p2d586d9b53)" d="M 350.509389 93.207041 
L 348.874365 91.884911 
L 349.029766 98.028087 
L 350.633988 98.647828 
z
" style="fill:#821580;fill-opacity:0.15;stroke:#ffffff;stroke-width:0.2;"/>
    <path clip-path="url(#p2d586d9b53)" d="M 374.717477 99.634883 
L 372.867191 99.792956 
L 372.857996 100.656549 
L 374.707907 100.346933 
z
" style="fill:#821580;fill-opacity:0.15;stroke:#ffffff;stroke-width:0.2;"/>
    <path clip-path="url(#p2d586d9b53)" d="M 352.20696 94.406308 
L 350.509389 93.207041 
L 350.633988 98.647828 
L 352.304839 99.204734 
z
" style="fill:#821580;fill-opacity:0.15;stroke:#ffffff;stroke-width:0.2;"/>
    <path clip-path="url(#p2d586d9b53)" d="M 372.867191 99.792956 
L 370.984999 99.853904 
L 370.976884 100.893701 
L 372.857996 100.656549 
z
" style="fill:#821580;fill-opacity:0.15;stroke:#ffffff;stroke-width:0.2;"/>
    <path clip-path="url(#p2d586d9b53)" d="M 353.960175 95.482695 
L 352.20696 94.406308 
L 352.304839 99.204734 
L 354.035173 99.696156 
z
" style="fill:#821580;fill-opacity:0.15;stroke:#ffffff;stroke-width:0.2;"/>
    <path clip-path="url(#p2d586d9b53)" d="M 370.984999 99.853904 
L 369.079009 99.813866 
L 369.072886 101.05724 
L 370.976884 100.893701 
z
" style="fill:#821580;fill-opacity:0.15;stroke:#ffffff;stroke-width:0.2;"/>
    <path clip-path="url(#p2d586d9b53)" d="M 355.761841 96.436666 
L 353.960175 95.482695 
L 354.035173 99.696156 
L 355.817519 100.119744 
z
" style="fill:#821580;fill-opacity:0.15;stroke:#ffffff;stroke-width:0.2;"/>
    <path clip-path="url(#p2d586d9b53)" d="M 369.079009 99.813866 
L 367.157429 99.669215 
L 367.154444 101.146371 
L 369.072886 101.05724 
z
" style="fill:#821580;fill-opacity:0.15;stroke:#ffffff;stroke-width:0.2;"/>
    <path clip-path="url(#p2d586d9b53)" d="M 357.6045 97.269134 
L 355.761841 96.436666 
L 355.817519 100.119744 
L 357.644115 100.473462 
z
" style="fill:#821580;fill-opacity:0.15;stroke:#ffffff;stroke-width:0.2;"/>
    <path clip-path="url(#p2d586d9b53)" d="M 367.157429 99.669215 
L 365.228528 99.416581 
L 365.230083 101.16066 
L 367.154444 101.146371 
z
" style="fill:#821580;fill-opacity:0.15;stroke:#ffffff;stroke-width:0.2;"/>
    <path clip-path="url(#p2d586d9b53)" d="M 359.480461 97.981439 
L 357.6045 97.269134 
L 357.644115 100.473462 
L 359.506954 100.755603 
z
" style="fill:#821580;fill-opacity:0.15;stroke:#ffffff;stroke-width:0.2;"/>
    <path clip-path="url(#p2d586d9b53)" d="M 365.228528 99.416581 
L 363.300582 99.052877 
L 363.308363 101.100038 
L 365.230083 101.16066 
z
" style="fill:#821580;fill-opacity:0.15;stroke:#ffffff;stroke-width:0.2;"/>
    <path clip-path="url(#p2d586d9b53)" d="M 361.381838 98.575316 
L 359.480461 97.981439 
L 359.506954 100.755603 
L 361.397826 100.9648 
z
" style="fill:#821580;fill-opacity:0.15;stroke:#ffffff;stroke-width:0.2;"/>
    <path clip-path="url(#p2d586d9b53)" d="M 363.300582 99.052877 
L 361.381838 98.575316 
L 361.397826 100.9648 
L 363.308363 101.100038 
z
" style="fill:#821580;fill-opacity:0.15;stroke:#ffffff;stroke-width:0.2;"/>
   </g>
   <g id="line2d_5">
    <path clip-path="url(#p2d586d9b53)" d="M 387.86661 72.299448 
L 389.024881 73.133686 
L 390.095325 74.010499 
L 391.073404 74.926767 
L 391.954866 75.879192 
L 392.735769 76.864306 
L 393.412497 77.878481 
L 393.981788 78.917931 
L 394.440746 79.97873 
L 394.786871 81.056821 
L 395.018073 82.148024 
L 395.132692 83.248056 
L 395.129517 84.352543 
L 395.007802 85.457036 
L 394.767283 86.557029 
L 394.408188 87.647976 
L 393.931251 88.725313 
L 393.337722 89.784477 
L 392.62937 90.820928 
L 391.808489 91.830171 
L 390.877899 92.80778 
L 389.840943 93.749419 
L 388.70148 94.650872 
L 387.463877 95.508057 
L 386.132997 96.317059 
L 384.714178 97.074149 
L 383.213218 97.77581 
L 381.636348 98.418754 
L 379.990204 98.99995 
L 378.281797 99.516638 
L 376.51848 99.966351 
L 374.707907 100.346933 
L 372.857996 100.656549 
L 370.976884 100.893701 
L 369.072886 101.05724 
L 367.154444 101.146371 
L 365.230083 101.16066 
L 363.308363 101.100038 
L 361.397826 100.9648 
L 359.506954 100.755603 
L 357.644115 100.473462 
L 355.817519 100.119744 
L 354.035173 99.696156 
L 352.304839 99.204734 
L 350.633988 98.647828 
L 349.029766 98.028087 
L 347.498957 97.348444 
L 346.04795 96.612088 
L 344.682713 95.822453 
L 343.408762 94.98319 
L 342.231145 94.098146 
L 341.15442 93.17134 
L 340.182642 92.206943 
L 339.319353 91.209245 
L 338.567573 90.182643 
L 337.929798 89.131607 
L 337.407998 88.060663 
L 337.003621 86.974367 
L 336.717598 85.877286 
L 336.550349 84.773975 
L 336.501799 83.668957 
L 336.571383 82.566706 
L 336.758067 81.471625 
L 337.060362 80.388035 
L 337.47634 79.320157 
L 338.003655 78.272094 
L 338.639562 77.247827 
L 339.380936 76.251194 
L 340.224294 75.285885 
L 341.165818 74.355431 
L 342.201371 73.463194 
L 343.326523 72.612364 
L 344.53657 71.805947 
L 345.826556 71.046763 
L 347.191292 70.337442 
L 348.625379 69.680415 
L 350.123221 69.077915 
L 351.679054 68.531974 
L 353.286957 68.044418 
L 354.940874 67.616868 
L 356.634628 67.250735 
L 358.361946 66.947223 
L 360.116466 66.707324 
L 361.891763 66.531819 
L 363.681357 66.42128 
L 365.478736 66.376064 
L 367.277368 66.396319 
L 369.070719 66.481979 
L 370.852266 66.632765 
L 372.615515 66.848188 
L 374.35402 67.127548 
L 376.061391 67.469932 
L 377.731319 67.874216 
L 379.357588 68.339069 
L 380.934095 68.86295 
L 382.454863 69.44411 
L 383.914066 70.080596 
L 385.306042 70.770252 
L 386.625314 71.51072 
L 387.86661 72.299448 
" style="fill:none;stroke:#000000;stroke-dasharray:3.7,1.6;stroke-dashoffset:0;"/>
   </g>
   <g id="line2d_6">
    <path clip-path="url(#p2d586d9b53)" d="M 387.86661 72.299448 
L 389.024881 73.133686 
L 390.095325 74.010499 
L 391.073404 74.926766 
L 391.954866 75.879191 
L 392.735769 76.864303 
L 393.412498 77.878467 
L 393.981789 78.917892 
L 394.44075 79.978634 
L 394.78688 81.056606 
L 395.018092 82.147584 
L 395.132728 83.247218 
L 395.129582 84.351037 
L 395.007913 85.454458 
L 394.767464 86.552795 
L 394.408472 87.64127 
L 393.931681 88.715022 
L 393.338351 89.769115 
L 392.630264 90.798553 
L 391.809726 91.798291 
L 390.879568 92.763244 
L 389.843141 93.688304 
L 388.704311 94.568356 
L 387.467444 95.398286 
L 386.137394 96.173005 
L 384.719485 96.887458 
L 383.219483 97.536649 
L 381.643575 98.115651 
L 379.998336 98.61963 
L 378.290695 99.043865 
L 376.527899 99.383763 
L 374.717477 99.634883 
L 372.867191 99.792956 
L 370.984999 99.853904 
L 369.079009 99.813866 
L 367.157429 99.669215 
L 365.228528 99.416581 
L 363.300582 99.052877 
L 361.381838 98.575316 
L 359.480461 97.981439 
L 357.6045 97.269134 
L 355.761841 96.436666 
L 353.960175 95.482695 
L 352.20696 94.406308 
L 350.509389 93.207041 
L 348.874365 91.884911 
L 347.308471 90.440442 
L 345.817951 88.874698 
L 344.408692 87.189314 
L 343.086206 85.386532 
L 341.855619 83.469237 
L 340.721662 81.440995 
L 339.688662 79.306091 
L 338.760539 77.069577 
L 337.940801 74.737309 
L 337.232541 72.315996 
L 336.638441 69.813243 
L 336.160765 67.237599 
L 335.801365 64.598602 
L 335.561674 61.90682 
L 335.442712 59.173891 
L 335.445078 56.412562 
L 335.568949 53.63671 
L 335.814078 50.86137 
L 336.179782 48.102736 
L 336.66494 45.378159 
L 337.26798 42.706121 
L 337.986869 40.106192 
L 338.819103 37.598959 
L 339.761693 35.205932 
L 340.811154 32.949411 
L 341.963493 30.852325 
L 343.214199 28.938023 
L 344.558238 27.230033 
L 345.990048 25.751764 
L 347.503539 24.526173 
L 349.092109 23.575373 
L 350.748652 22.920207 
L 352.46559 22.579765 
L 354.234905 22.570866 
L 356.048187 22.907502 
L 357.896695 23.600252 
L 359.771429 24.655675 
L 361.663211 26.075683 
L 363.562783 27.856919 
L 365.460919 29.990131 
L 367.348534 32.459558 
L 369.216816 35.242332 
L 371.057357 38.307897 
L 372.862282 41.617437 
L 374.62439 45.123303 
L 376.337285 48.768414 
L 377.995508 52.485607 
L 379.594661 56.196879 
L 381.131529 59.812455 
L 382.604197 63.229598 
L 384.012161 66.331025 
L 385.356453 68.982778 
L 386.639766 71.031303 
L 387.86661 72.299448 
" style="fill:none;stroke:#821580;stroke-linecap:round;stroke-width:1.5;"/>
   </g>
   <g id="text_3">
    <!-- $240$° -->
    <defs>
     <path d="M 37.796875 64.3125 
L 12.890625 25.390625 
L 37.796875 25.390625 
z
M 35.203125 72.90625 
L 47.609375 72.90625 
L 47.609375 25.390625 
L 58.015625 25.390625 
L 58.015625 17.1875 
L 47.609375 17.1875 
L 47.609375 0 
L 37.796875 0 
L 37.796875 17.1875 
L 4.890625 17.1875 
L 4.890625 26.703125 
z
" id="DejaVuSans-52"/>
    </defs>
    <g style="fill:#cccccc;" transform="translate(329.225437 14.357812)scale(0.1 -0.1)">
     <use transform="translate(0 0.78125)" xlink:href="#DejaVuSans-50"/>
     <use transform="translate(63.623047 0.78125)" xlink:href="#DejaVuSans-52"/>
     <use transform="translate(127.246094 0.78125)" xlink:href="#DejaVuSans-48"/>
     <use transform="translate(190.869141 0.78125)" xlink:href="#ArialMT-176"/>
    </g>
   </g>
  </g>
 </g>
 <defs>
  <clipPath id="p58fca331bb">
   <rect height="108.72" width="123.088235" x="7.2" y="8.481056"/>
  </clipPath>
  <clipPath id="pf336ffa556">
   <rect height="108.72" width="123.088235" x="154.905882" y="8.481056"/>
  </clipPath>
  <clipPath id="p2d586d9b53">
   <rect height="108.72" width="123.088235" x="302.611765" y="8.481056"/>
  </clipPath>
 </defs>
</svg>
