<?xml version="1.0" encoding="UTF-8"?>
<svg width="270px" height="337px" viewBox="0 0 270 337" version="1.1" xmlns="http://www.w3.org/2000/svg" xmlns:xlink="http://www.w3.org/1999/xlink">
    <!-- Generator: Sketch 55.2 (78181) - https://sketchapp.com -->
    <title>Untitled 2</title>
    <desc>Created with Sketch.</desc>
    <g id="Page-1" stroke="none" stroke-width="1" fill="none" fill-rule="evenodd">
        <g id="curious" fill="#000000" fill-rule="nonzero">
            <path d="M262.2,58.6 C257.3,37.1 245.6,22.1 227.3,13.5 C209,4.9 178.2,0.6 134.9,0.6 C91.3,0.6 60.4,4.9 42.3,13.5 C24.2,22.1 12.6,37.1 7.7,58.6 C2.8,80.1 0.3,116.8 0.3,168.7 C0.3,220.6 2.8,257.3 7.7,278.8 C12.6,300.3 24.2,315.3 42.3,323.9 C60.4,332.5 91.3,336.8 134.9,336.8 C178.2,336.8 209,332.5 227.3,323.9 C245.6,315.3 257.2,300.3 262.2,278.8 C267.1,257.3 269.6,220.6 269.6,168.7 C269.6,116.8 267.1,80.1 262.2,58.6 M230.4,251.2 C226.7,267.3 218,278.6 204.3,285 C190.6,291.4 167.5,294.7 135,294.7 C102.3,294.7 79.1,291.5 65.5,285 C51.9,278.6 43.2,267.3 39.5,251.2 C35.8,235.1 34,207.6 34,168.7 C34,129.8 35.8,102.3 39.5,86.2 C43.2,70.1 51.9,58.8 65.5,52.4 C79.1,46 102.3,42.7 135,42.7 C167.5,42.7 190.6,45.9 204.3,52.4 C218,58.8 226.7,70.1 230.4,86.2 C234.1,102.3 236,129.8 236,168.7 C235.9,207.6 234.1,235.1 230.4,251.2" id="Shape"></path>
        </g>
    </g>
</svg>